<svg viewBox="0 0 40 40" fill="none" xmlns="http://www.w3.org/2000/svg">
<path fill-rule="evenodd" clip-rule="evenodd" d="M19.7308 19.8846C22.3223 19.8846 24.4231 17.7838 24.4231 15.1923C24.4231 12.6008 22.3223 10.5 19.7308 10.5C17.1393 10.5 15.0385 12.6008 15.0385 15.1923C15.0385 17.7838 17.1393 19.8846 19.7308 19.8846ZM19.7308 21.3846C23.1507 21.3846 25.9231 18.6122 25.9231 15.1923C25.9231 11.7724 23.1507 9 19.7308 9C16.3109 9 13.5385 11.7724 13.5385 15.1923C13.5385 18.6122 16.3109 21.3846 19.7308 21.3846Z" fill="black"/>
<path fill-rule="evenodd" clip-rule="evenodd" d="M19.7308 23.9038C14.702 23.9038 10.75 27.5943 10.75 32H9.25C9.25 26.6345 14.0113 22.4038 19.7308 22.4038C25.4503 22.4038 30.2115 26.6345 30.2115 32H28.7115C28.7115 27.5943 24.7596 23.9038 19.7308 23.9038Z" fill="black"/>
</svg>
