<svg viewBox="0 0 32 32" fill="none" xmlns="http://www.w3.org/2000/svg">
<path fill-rule="evenodd" clip-rule="evenodd" d="M15.9521 4.71124C15.5225 5.34215 14.7156 6.52125 14.4613 6.86874C14.2157 7.20442 13.8904 7.3917 13.6204 7.49277C12.9839 7.73104 12.4341 7.39139 12.1766 7.18746C12.0278 7.06956 11.8681 6.9611 11.7321 6.89429C11.7312 6.89425 11.7302 6.89422 11.7291 6.89419C11.705 6.89348 11.6631 6.8964 11.6034 6.9092C11.4835 6.9349 11.3525 6.98698 11.2528 7.03761C11.2505 7.03946 11.2468 7.04263 11.2415 7.04757C9.35811 8.80617 5.61581 12.3086 5.01461 12.902C4.84302 13.0713 4.75638 13.2798 4.72206 13.4941C4.69 13.6944 4.7092 13.8695 4.72863 13.9577L6.88382 19.4068C6.88704 19.415 6.88964 19.4208 6.8915 19.4247C7.06795 19.6118 7.331 19.7036 7.68309 19.701C8.02588 19.6985 8.36847 19.6035 8.5834 19.5128L12.7367 16.9752C12.7622 16.9596 12.7887 16.9455 12.8159 16.9331C14.3725 16.2206 16.0852 16.2967 17.1555 17.353L20.3781 20.5336C20.8142 20.9639 21.3973 21.1626 22.0144 21.213C22.6351 21.2637 23.2281 21.1576 23.5868 21.0445C23.587 21.0444 23.5867 21.0445 23.5868 21.0445C24.2998 20.6186 25.0628 19.606 25.7243 18.4444C26.3674 17.3151 26.8368 16.1871 27.0067 15.6953C27.2083 15.1115 27.2769 14.5438 27.2906 14.2001C27.2903 14.1974 27.2877 14.1767 27.2623 14.1402L22.9509 7.9444C22.9402 7.92895 22.9322 7.92252 22.9291 7.92024C22.9257 7.9178 22.9229 7.91647 22.9197 7.91549C22.9122 7.91318 22.8956 7.91118 22.8738 7.91802C22.852 7.92487 22.8395 7.936 22.8346 7.94218C22.8326 7.94481 22.831 7.94752 22.8296 7.95143C22.8284 7.95509 22.8255 7.96492 22.8255 7.98374C22.8255 8.09047 22.8157 8.2292 22.7712 8.37933C22.5674 9.06683 22.075 9.43661 21.5349 9.55096C21.0575 9.65202 20.5891 9.54893 20.2841 9.43721C20.1387 9.38397 20.0205 9.31181 19.931 9.24842C19.5208 8.95809 18.9319 8.53703 18.4224 8.16367C18.168 7.9773 17.9302 7.8004 17.7432 7.65657C17.5854 7.53516 17.3932 7.38498 17.2944 7.27662C16.9609 6.91097 16.9216 6.41952 16.9178 6.2061C16.9136 5.97535 16.9744 5.78048 17.0282 5.64605L17.2307 5.13965C17.2929 4.98414 17.1884 4.81438 17.0241 4.7983C16.6344 4.76015 16.2776 4.72578 16.0847 4.70848C16.0233 4.70297 15.9799 4.70648 15.9521 4.71124ZM14.7964 3.73378C15.0494 3.39044 15.5728 3.15061 16.2193 3.20861C16.4192 3.22655 16.782 3.26151 17.1708 3.29957C18.3361 3.41362 19.0628 4.61396 18.6289 5.69887L18.4264 6.20527C18.4258 6.20679 18.4252 6.20821 18.4247 6.20954C18.4255 6.22087 18.4265 6.2324 18.4279 6.24383C18.4298 6.25897 18.4321 6.2722 18.4345 6.28331C18.4701 6.31261 18.5414 6.37068 18.6613 6.46294C18.8347 6.5963 19.0617 6.76527 19.3124 6.94899C19.813 7.3158 20.3948 7.73174 20.801 8.01932C20.806 8.02284 20.8097 8.02528 20.8122 8.02686C20.8782 8.05024 20.9556 8.07004 21.033 8.07979C21.1157 8.0902 21.1798 8.08686 21.223 8.07772C21.262 8.06946 21.2736 8.05909 21.2759 8.05709C21.2759 8.05703 21.2972 8.04009 21.3196 7.97543C21.3268 6.43959 23.3079 5.8209 24.187 7.08427L28.4984 13.28C28.6799 13.541 28.8104 13.8788 28.7954 14.2584C28.7774 14.7129 28.6906 15.4326 28.43 16.187C28.2303 16.7652 27.7227 17.9782 27.0329 19.1896C26.3619 20.3679 25.4362 21.6953 24.3567 22.3388C24.2547 22.3997 24.1485 22.4463 24.0398 22.4806C23.5238 22.6434 22.7346 22.7828 21.8918 22.7139C21.0455 22.6448 20.0839 22.359 19.3203 21.6054L18.195 20.4948C18.1919 20.4916 18.1895 20.4893 18.1877 20.4876L16.0977 18.4248C15.6244 17.9577 14.6652 17.7569 13.482 18.2846L9.32494 20.8244C9.29845 20.8406 9.27099 20.8551 9.24271 20.8679C8.87772 21.033 8.30626 21.2024 7.69424 21.2069C7.07731 21.2115 6.32694 21.0451 5.76445 20.4238C5.62232 20.2668 5.53727 20.0967 5.48347 19.9607L3.31089 14.4675C3.30156 14.4439 3.29342 14.4199 3.28652 14.3955C3.14607 13.8988 3.06643 12.7089 3.9568 11.8302C4.57743 11.2176 8.34345 7.69329 10.2138 5.94689C10.3021 5.86445 10.4145 5.77536 10.557 5.70207C10.7404 5.60771 11.0017 5.49806 11.2879 5.43673C11.5556 5.37938 11.9613 5.33887 12.349 5.52011C12.64 5.65617 12.9126 5.84938 13.1116 6.00698C13.1324 6.02346 13.1512 6.0367 13.1676 6.047C13.2044 6.02513 13.2299 6.00162 13.2461 5.97946C13.4961 5.63772 14.3677 4.36314 14.78 3.75701C14.7853 3.74917 14.7908 3.74142 14.7964 3.73378ZM20.471 24.8527C20.7851 24.5368 21.2257 24.36 21.6796 24.36H23.8416C24.3216 24.36 24.7788 24.5567 25.0937 24.8974C25.4182 25.2485 25.5887 25.7563 25.4474 26.2968C25.2712 26.9711 24.948 27.573 24.5267 28.0191C24.1123 28.4579 23.5461 28.7999 22.897 28.7999C21.7081 28.7999 20.4031 27.7776 20.0689 26.1951C19.9564 25.6624 20.1463 25.1793 20.471 24.8527ZM21.5473 25.9071C21.7617 26.8726 22.5165 27.2941 22.897 27.2941C23.0013 27.2941 23.1978 27.233 23.4319 26.9851C23.6583 26.7454 23.8686 26.3788 23.9892 25.921C23.9888 25.9206 23.9883 25.9201 23.9879 25.9196C23.9676 25.8977 23.916 25.8659 23.8416 25.8659H21.6796C21.6465 25.8659 21.6156 25.8725 21.5896 25.8831C21.5703 25.8909 21.5564 25.8998 21.5473 25.9071Z" fill="#09090C"/>
</svg>
