<svg width="436" height="244" viewBox="0 0 436 244" fill="none" xmlns="http://www.w3.org/2000/svg">
<path d="M217 14.5L157 30L167.5 91.5H211.5V243H377L374.5 91.5H421.5L430.5 30L368 14.5L330 6L322.887 1.5542C322.331 1.20703 321.643 1.15398 321.005 1.30375C316.729 2.30787 304.232 2.848 298 3H287.5C282.15 3 271.812 1.7832 266.684 1.09322C266.238 1.03319 265.789 1.12413 265.401 1.35232L257.5 6L217 14.5Z" stroke="black"/>
<path d="M330.229 6C328.009 24.3122 312.411 38.5 293.5 38.5C274.589 38.5 258.991 24.3122 256.771 6" stroke="black"/>
<path d="M322.5 1.5C319.241 17.585 307.552 28.5 293.5 28.5C279.741 28.5 268.146 17.0764 264.609 1.5" stroke="black"/>
<path d="M219 14.5C219.667 36.5 219.1 82.7 211.5 91.5" stroke="black"/>
<path d="M367.707 14.5C367.04 36.5 367.607 82.7 375.207 91.5" stroke="black"/>
<path d="M162.5 28.5L173 91.5" stroke="black" stroke-dasharray="2 2"/>
<path d="M425 28.5L415.5 91.5" stroke="black" stroke-dasharray="2 2"/>
<rect x="208" y="90" width="173" height="2" fill="#E31B23"/>
<rect x="211" y="203" width="166" height="2" fill="#E31B23"/>
<rect x="241" y="6" width="237" height="1.99999" transform="rotate(90 241 6)" fill="#E31B23"/>
<circle cx="294" cy="90" r="16" fill="#E31B23"/>
<path d="M289.453 96L293.085 84.48H295.909L299.541 96H297.557L294.261 85.664H294.693L291.437 96H289.453ZM291.477 93.504V91.704H297.525V93.504H291.477Z" fill="white"/>
<circle cx="241" cy="147" r="16" fill="#E31B23"/>
<path d="M237.573 153V141.48H242.141C242.92 141.48 243.557 141.637 244.053 141.952C244.554 142.261 244.925 142.659 245.165 143.144C245.41 143.629 245.533 144.131 245.533 144.648C245.533 145.283 245.381 145.821 245.077 146.264C244.778 146.707 244.37 147.005 243.853 147.16V146.76C244.578 146.925 245.128 147.269 245.501 147.792C245.88 148.315 246.069 148.909 246.069 149.576C246.069 150.259 245.938 150.856 245.677 151.368C245.416 151.88 245.026 152.28 244.509 152.568C243.997 152.856 243.362 153 242.605 153H237.573ZM239.525 151.184H242.365C242.701 151.184 243.002 151.117 243.269 150.984C243.536 150.845 243.744 150.653 243.893 150.408C244.048 150.157 244.125 149.861 244.125 149.52C244.125 149.211 244.058 148.933 243.925 148.688C243.792 148.443 243.597 148.248 243.341 148.104C243.085 147.955 242.778 147.88 242.421 147.88H239.525V151.184ZM239.525 146.08H242.117C242.394 146.08 242.642 146.027 242.861 145.92C243.08 145.813 243.253 145.656 243.381 145.448C243.509 145.24 243.573 144.984 243.573 144.68C243.573 144.28 243.445 143.947 243.189 143.68C242.933 143.413 242.576 143.28 242.117 143.28H239.525V146.08Z" fill="white"/>
<circle cx="294" cy="199" r="16" fill="#E31B23"/>
<path d="M294.086 205.24C292.934 205.24 291.947 204.989 291.126 204.488C290.304 203.981 289.672 203.277 289.23 202.376C288.792 201.475 288.574 200.429 288.574 199.24C288.574 198.051 288.792 197.005 289.23 196.104C289.672 195.203 290.304 194.501 291.126 194C291.947 193.493 292.934 193.24 294.086 193.24C295.414 193.24 296.52 193.573 297.406 194.24C298.291 194.901 298.912 195.795 299.27 196.92L297.326 197.456C297.102 196.704 296.72 196.117 296.182 195.696C295.643 195.269 294.944 195.056 294.086 195.056C293.312 195.056 292.667 195.229 292.15 195.576C291.638 195.923 291.251 196.411 290.99 197.04C290.734 197.664 290.603 198.397 290.598 199.24C290.598 200.083 290.726 200.819 290.982 201.448C291.243 202.072 291.632 202.557 292.15 202.904C292.667 203.251 293.312 203.424 294.086 203.424C294.944 203.424 295.643 203.211 296.182 202.784C296.72 202.357 297.102 201.771 297.326 201.024L299.27 201.56C298.912 202.685 298.291 203.581 297.406 204.248C296.52 204.909 295.414 205.24 294.086 205.24Z" fill="white"/>
<circle cx="16" cy="17" r="16" fill="#E31B23"/>
<path d="M11.4528 23L15.0848 11.48H17.9088L21.5408 23H19.5568L16.2608 12.664H16.6928L13.4368 23H11.4528ZM13.4768 20.504V18.704H19.5248V20.504H13.4768Z" fill="white"/>
<circle cx="16" cy="65" r="16" fill="#E31B23"/>
<path d="M12.5731 71V59.48H17.1411C17.9198 59.48 18.5571 59.6373 19.0531 59.952C19.5545 60.2613 19.9251 60.6587 20.1651 61.144C20.4105 61.6293 20.5331 62.1307 20.5331 62.648C20.5331 63.2827 20.3811 63.8213 20.0771 64.264C19.7785 64.7067 19.3705 65.0053 18.8531 65.16V64.76C19.5785 64.9253 20.1278 65.2693 20.5011 65.792C20.8798 66.3147 21.0691 66.9093 21.0691 67.576C21.0691 68.2587 20.9385 68.856 20.6771 69.368C20.4158 69.88 20.0265 70.28 19.5091 70.568C18.9971 70.856 18.3625 71 17.6051 71H12.5731ZM14.5251 69.184H17.3651C17.7011 69.184 18.0025 69.1173 18.2691 68.984C18.5358 68.8453 18.7438 68.6533 18.8931 68.408C19.0478 68.1573 19.1251 67.8613 19.1251 67.52C19.1251 67.2107 19.0585 66.9333 18.9251 66.688C18.7918 66.4427 18.5971 66.248 18.3411 66.104C18.0851 65.9547 17.7785 65.88 17.4211 65.88H14.5251V69.184ZM14.5251 64.08H17.1171C17.3945 64.08 17.6425 64.0267 17.8611 63.92C18.0798 63.8133 18.2531 63.656 18.3811 63.448C18.5091 63.24 18.5731 62.984 18.5731 62.68C18.5731 62.28 18.4451 61.9467 18.1891 61.68C17.9331 61.4133 17.5758 61.28 17.1171 61.28H14.5251V64.08Z" fill="white"/>
<circle cx="16" cy="113" r="16" fill="#E31B23"/>
<path d="M16.0858 119.24C14.9338 119.24 13.9471 118.989 13.1258 118.488C12.3044 117.981 11.6724 117.277 11.2298 116.376C10.7924 115.475 10.5738 114.429 10.5738 113.24C10.5738 112.051 10.7924 111.005 11.2298 110.104C11.6724 109.203 12.3044 108.501 13.1258 108C13.9471 107.493 14.9338 107.24 16.0858 107.24C17.4138 107.24 18.5204 107.573 19.4058 108.24C20.2911 108.901 20.9124 109.795 21.2698 110.92L19.3258 111.456C19.1018 110.704 18.7204 110.117 18.1818 109.696C17.6431 109.269 16.9444 109.056 16.0858 109.056C15.3124 109.056 14.6671 109.229 14.1498 109.576C13.6378 109.923 13.2511 110.411 12.9898 111.04C12.7338 111.664 12.6031 112.397 12.5978 113.24C12.5978 114.083 12.7258 114.819 12.9818 115.448C13.2431 116.072 13.6324 116.557 14.1498 116.904C14.6671 117.251 15.3124 117.424 16.0858 117.424C16.9444 117.424 17.6431 117.211 18.1818 116.784C18.7204 116.357 19.1018 115.771 19.3258 115.024L21.2698 115.56C20.9124 116.685 20.2911 117.581 19.4058 118.248C18.5204 118.909 17.4138 119.24 16.0858 119.24Z" fill="white"/>
<path d="M48.758 22.195C47.8263 22.195 47.0355 21.9892 46.3855 21.5775C45.7355 21.1658 45.2393 20.5938 44.897 19.8615C44.559 19.1292 44.39 18.282 44.39 17.32C44.39 16.358 44.559 15.5108 44.897 14.7785C45.2393 14.0462 45.7355 13.4742 46.3855 13.0625C47.0355 12.6508 47.8263 12.445 48.758 12.445C49.8413 12.445 50.7318 12.7202 51.4295 13.2705C52.1315 13.8208 52.6147 14.5618 52.879 15.4935L51.7025 15.8055C51.5118 15.1078 51.1717 14.5575 50.682 14.1545C50.1923 13.7515 49.551 13.55 48.758 13.55C48.0603 13.55 47.4797 13.7082 47.016 14.0245C46.5523 14.3408 46.2035 14.7828 45.9695 15.3505C45.7355 15.9138 45.6163 16.5703 45.612 17.32C45.6077 18.0653 45.7225 18.7218 45.9565 19.2895C46.1905 19.8528 46.5415 20.2948 47.0095 20.6155C47.4775 20.9318 48.0603 21.09 48.758 21.09C49.551 21.09 50.1923 20.8885 50.682 20.4855C51.1717 20.0782 51.5118 19.5278 51.7025 18.8345L52.879 19.1465C52.6147 20.0738 52.1315 20.8148 51.4295 21.3695C50.7318 21.9198 49.8413 22.195 48.758 22.195ZM59.303 22V18.4835C59.303 18.1498 59.2727 17.8292 59.212 17.5215C59.1557 17.2138 59.0539 16.9387 58.9065 16.696C58.7635 16.449 58.5685 16.254 58.3215 16.111C58.0789 15.968 57.7712 15.8965 57.3985 15.8965C57.1082 15.8965 56.8439 15.9463 56.6055 16.046C56.3715 16.1413 56.17 16.2887 56.001 16.488C55.832 16.6873 55.6999 16.9387 55.6045 17.242C55.5135 17.541 55.468 17.8942 55.468 18.3015L54.7075 18.0675C54.7075 17.3872 54.8289 16.8043 55.0715 16.319C55.3185 15.8293 55.663 15.4545 56.105 15.1945C56.5514 14.9302 57.0757 14.798 57.678 14.798C58.133 14.798 58.5209 14.8695 58.8415 15.0125C59.1622 15.1555 59.4287 15.3462 59.641 15.5845C59.8534 15.8185 60.0202 16.0828 60.1415 16.3775C60.2629 16.6678 60.3474 16.9647 60.395 17.268C60.447 17.567 60.473 17.8508 60.473 18.1195V22H59.303ZM54.298 22V12.64H55.338V17.8075H55.468V22H54.298ZM65.2049 22.195C64.5159 22.195 63.9136 22.0433 63.3979 21.74C62.8866 21.4323 62.4879 21.0055 62.2019 20.4595C61.9159 19.9092 61.7729 19.2678 61.7729 18.5355C61.7729 17.7685 61.9138 17.1055 62.1954 16.5465C62.4771 15.9832 62.8693 15.5498 63.3719 15.2465C63.8789 14.9388 64.4726 14.785 65.1529 14.785C65.8593 14.785 66.4594 14.9475 66.9534 15.2725C67.4518 15.5975 67.8244 16.0612 68.0714 16.6635C68.3228 17.2658 68.4311 17.983 68.3964 18.815H67.2264V18.399C67.2134 17.5367 67.0379 16.8932 66.6999 16.4685C66.3619 16.0395 65.8593 15.825 65.1919 15.825C64.4769 15.825 63.9331 16.0547 63.5604 16.514C63.1878 16.9733 63.0014 17.632 63.0014 18.49C63.0014 19.3177 63.1878 19.959 63.5604 20.414C63.9331 20.869 64.4639 21.0965 65.1529 21.0965C65.6166 21.0965 66.0196 20.9903 66.3619 20.778C66.7043 20.5657 66.9729 20.2602 67.1679 19.8615L68.2794 20.245C68.0064 20.8647 67.5948 21.3457 67.0444 21.688C66.4984 22.026 65.8853 22.195 65.2049 22.195ZM62.6114 18.815V17.8855H67.7984V18.815H62.6114ZM72.4956 22.1885C71.6593 22.1885 70.9724 22.0065 70.4351 21.6425C69.9021 21.2742 69.5749 20.7607 69.4536 20.102L70.6366 19.9135C70.7319 20.2948 70.9508 20.5982 71.2931 20.8235C71.6354 21.0445 72.0601 21.155 72.5671 21.155C73.0481 21.155 73.4251 21.0553 73.6981 20.856C73.9711 20.6567 74.1076 20.3858 74.1076 20.0435C74.1076 19.8442 74.0621 19.6838 73.9711 19.5625C73.8801 19.4368 73.6916 19.3198 73.4056 19.2115C73.1239 19.1032 72.6971 18.9732 72.1251 18.8215C71.5054 18.6568 71.0179 18.4857 70.6626 18.308C70.3073 18.1303 70.0538 17.9245 69.9021 17.6905C69.7504 17.4565 69.6746 17.1727 69.6746 16.839C69.6746 16.4273 69.7873 16.0677 70.0126 15.76C70.2379 15.448 70.5521 15.2075 70.9551 15.0385C71.3624 14.8695 71.8348 14.785 72.3721 14.785C72.9051 14.785 73.3818 14.8695 73.8021 15.0385C74.2224 15.2075 74.5604 15.448 74.8161 15.76C75.0761 16.0677 75.2299 16.4273 75.2776 16.839L74.0946 17.0535C74.0383 16.6765 73.8563 16.3797 73.5486 16.163C73.2453 15.9463 72.8531 15.8315 72.3721 15.8185C71.9171 15.8012 71.5466 15.8813 71.2606 16.059C70.9789 16.2367 70.8381 16.4772 70.8381 16.7805C70.8381 16.9495 70.8901 17.0947 70.9941 17.216C71.1024 17.3373 71.2996 17.4522 71.5856 17.5605C71.8759 17.6688 72.2963 17.7923 72.8466 17.931C73.4663 18.087 73.9538 18.2582 74.3091 18.4445C74.6688 18.6265 74.9244 18.8432 75.0761 19.0945C75.2278 19.3415 75.3036 19.647 75.3036 20.011C75.3036 20.687 75.0544 21.22 74.5561 21.61C74.0578 21.9957 73.3709 22.1885 72.4956 22.1885ZM80.6566 22C80.2406 22.0823 79.829 22.1148 79.4216 22.0975C79.0186 22.0845 78.659 22.0043 78.3426 21.857C78.0263 21.7053 77.7858 21.4713 77.6211 21.155C77.4825 20.8777 77.4066 20.5982 77.3936 20.3165C77.385 20.0305 77.3806 19.7077 77.3806 19.348V13.03H78.5376V19.296C78.5376 19.582 78.5398 19.8268 78.5441 20.0305C78.5528 20.2342 78.5983 20.4097 78.6806 20.557C78.8366 20.8343 79.0836 20.9968 79.4216 21.0445C79.764 21.0922 80.1756 21.0792 80.6566 21.0055V22ZM75.9571 15.9355V14.98H80.6566V15.9355H75.9571Z" fill="#3D3D52"/>
<path d="M45.04 70V60.64H46.197V68.9015H50.539V70H45.04ZM54.6805 70.195C53.9915 70.195 53.3892 70.0433 52.8735 69.74C52.3622 69.4323 51.9635 69.0055 51.6775 68.4595C51.3915 67.9092 51.2485 67.2678 51.2485 66.5355C51.2485 65.7685 51.3893 65.1055 51.671 64.5465C51.9527 63.9832 52.3448 63.5498 52.8475 63.2465C53.3545 62.9388 53.9482 62.785 54.6285 62.785C55.3348 62.785 55.935 62.9475 56.429 63.2725C56.9273 63.5975 57.3 64.0612 57.547 64.6635C57.7983 65.2658 57.9067 65.983 57.872 66.815H56.702V66.399C56.689 65.5367 56.5135 64.8932 56.1755 64.4685C55.8375 64.0395 55.3348 63.825 54.6675 63.825C53.9525 63.825 53.4087 64.0547 53.036 64.514C52.6633 64.9733 52.477 65.632 52.477 66.49C52.477 67.3177 52.6633 67.959 53.036 68.414C53.4087 68.869 53.9395 69.0965 54.6285 69.0965C55.0922 69.0965 55.4952 68.9903 55.8375 68.778C56.1798 68.5657 56.4485 68.2602 56.6435 67.8615L57.755 68.245C57.482 68.8647 57.0703 69.3457 56.52 69.688C55.974 70.026 55.3608 70.195 54.6805 70.195ZM52.087 66.815V65.8855H57.274V66.815H52.087ZM64.1273 70V66.4835C64.1273 66.1498 64.0969 65.8292 64.0363 65.5215C63.9799 65.2138 63.8781 64.9387 63.7308 64.696C63.5878 64.449 63.3928 64.254 63.1458 64.111C62.9031 63.968 62.5954 63.8965 62.2228 63.8965C61.9324 63.8965 61.6681 63.9463 61.4298 64.046C61.1958 64.1413 60.9943 64.2887 60.8253 64.488C60.6563 64.6873 60.5241 64.9387 60.4288 65.242C60.3378 65.541 60.2923 65.8942 60.2923 66.3015L59.5318 66.0675C59.5318 65.3872 59.6531 64.8043 59.8958 64.319C60.1428 63.8293 60.4873 63.4545 60.9293 63.1945C61.3756 62.9302 61.8999 62.798 62.5023 62.798C62.9573 62.798 63.3451 62.8695 63.6658 63.0125C63.9864 63.1555 64.2529 63.3462 64.4653 63.5845C64.6776 63.8185 64.8444 64.0828 64.9658 64.3775C65.0871 64.6678 65.1716 64.9647 65.2193 65.268C65.2713 65.567 65.2973 65.8508 65.2973 66.1195V70H64.1273ZM59.1223 70V62.98H60.1623V64.8585H60.2923V70H59.1223ZM69.8276 73.315C69.4593 73.315 69.0996 73.2587 68.7486 73.146C68.3976 73.0333 68.0748 72.8622 67.7801 72.6325C67.4898 72.4072 67.2471 72.1212 67.0521 71.7745L68.1116 71.2155C68.285 71.5578 68.5298 71.807 68.8461 71.963C69.1668 72.119 69.4961 72.197 69.8341 72.197C70.2805 72.197 70.651 72.1147 70.9456 71.95C71.2403 71.7897 71.457 71.5492 71.5956 71.2285C71.7386 70.9078 71.808 70.5092 71.8036 70.0325V68.115H71.9401V62.98H72.9671V70.0455C72.9671 70.2362 72.9606 70.4203 72.9476 70.598C72.939 70.7757 72.9173 70.9512 72.8826 71.1245C72.7916 71.6228 72.6118 72.0323 72.3431 72.353C72.0745 72.678 71.7278 72.9185 71.3031 73.0745C70.8785 73.2348 70.3866 73.315 69.8276 73.315ZM69.7431 70.195C69.0888 70.195 68.5276 70.0325 68.0596 69.7075C67.5916 69.3782 67.2298 68.934 66.9741 68.375C66.7228 67.816 66.5971 67.1855 66.5971 66.4835C66.5971 65.7815 66.7228 65.151 66.9741 64.592C67.2298 64.033 67.5916 63.5932 68.0596 63.2725C68.5276 62.9475 69.0866 62.785 69.7366 62.785C70.3996 62.785 70.9565 62.9453 71.4071 63.266C71.8578 63.5867 72.198 64.0265 72.4276 64.5855C72.6616 65.1445 72.7786 65.7772 72.7786 66.4835C72.7786 67.1812 72.6616 67.8117 72.4276 68.375C72.198 68.934 71.8578 69.3782 71.4071 69.7075C70.9565 70.0325 70.4018 70.195 69.7431 70.195ZM69.8861 69.1355C70.3585 69.1355 70.7463 69.0228 71.0496 68.7975C71.353 68.5678 71.5761 68.2537 71.7191 67.855C71.8665 67.452 71.9401 66.9948 71.9401 66.4835C71.9401 65.9635 71.8665 65.5063 71.7191 65.112C71.5761 64.7133 71.3551 64.4035 71.0561 64.1825C70.7571 63.9572 70.378 63.8445 69.9186 63.8445C69.442 63.8445 69.0476 63.9615 68.7356 64.1955C68.428 64.4295 68.1983 64.7458 68.0466 65.1445C67.8993 65.5432 67.8256 65.9895 67.8256 66.4835C67.8256 66.9818 67.9015 67.4325 68.0531 67.8355C68.2048 68.2342 68.4323 68.5505 68.7356 68.7845C69.0433 69.0185 69.4268 69.1355 69.8861 69.1355ZM78.7016 70C78.2856 70.0823 77.8739 70.1148 77.4666 70.0975C77.0636 70.0845 76.7039 70.0043 76.3876 69.857C76.0712 69.7053 75.8307 69.4713 75.6661 69.155C75.5274 68.8777 75.4516 68.5982 75.4386 68.3165C75.4299 68.0305 75.4256 67.7077 75.4256 67.348V61.03H76.5826V67.296C76.5826 67.582 76.5847 67.8268 76.5891 68.0305C76.5977 68.2342 76.6432 68.4097 76.7256 68.557C76.8816 68.8343 77.1286 68.9968 77.4666 69.0445C77.8089 69.0922 78.2206 69.0792 78.7016 69.0055V70ZM74.0021 63.9355V62.98H78.7016V63.9355H74.0021ZM85.1253 70V66.4835C85.1253 66.1498 85.095 65.8292 85.0343 65.5215C84.978 65.2138 84.8761 64.9387 84.7288 64.696C84.5858 64.449 84.3908 64.254 84.1438 64.111C83.9011 63.968 83.5935 63.8965 83.2208 63.8965C82.9305 63.8965 82.6661 63.9463 82.4278 64.046C82.1938 64.1413 81.9923 64.2887 81.8233 64.488C81.6543 64.6873 81.5221 64.9387 81.4268 65.242C81.3358 65.541 81.2903 65.8942 81.2903 66.3015L80.5298 66.0675C80.5298 65.3872 80.6511 64.8043 80.8938 64.319C81.1408 63.8293 81.4853 63.4545 81.9273 63.1945C82.3736 62.9302 82.898 62.798 83.5003 62.798C83.9553 62.798 84.3431 62.8695 84.6638 63.0125C84.9845 63.1555 85.251 63.3462 85.4633 63.5845C85.6756 63.8185 85.8425 64.0828 85.9638 64.3775C86.0851 64.6678 86.1696 64.9647 86.2173 65.268C86.2693 65.567 86.2953 65.8508 86.2953 66.1195V70H85.1253ZM80.1203 70V60.64H81.1603V65.8075H81.2903V70H80.1203Z" fill="#3D3D52"/>
<path d="M46.9055 118L44.195 108.64H45.404L47.484 116.043L49.5575 108.646L50.773 108.64L52.853 116.043L54.9265 108.64H56.142L53.4315 118H52.2745L50.1685 110.661L48.0625 118H46.9055ZM58.6614 118.195C58.137 118.195 57.6972 118.1 57.3419 117.909C56.9909 117.714 56.7244 117.458 56.5424 117.142C56.3647 116.826 56.2759 116.479 56.2759 116.102C56.2759 115.734 56.3452 115.415 56.4839 115.146C56.6269 114.873 56.8262 114.648 57.0819 114.47C57.3375 114.288 57.643 114.145 57.9984 114.041C58.332 113.95 58.7047 113.872 59.1164 113.807C59.5324 113.738 59.9527 113.675 60.3774 113.619C60.802 113.563 61.1985 113.508 61.5669 113.456L61.1509 113.697C61.1639 113.073 61.0382 112.611 60.7739 112.312C60.5139 112.013 60.0632 111.864 59.4219 111.864C58.9972 111.864 58.6245 111.961 58.3039 112.156C57.9875 112.347 57.7644 112.659 57.6344 113.092L56.5359 112.761C56.7049 112.146 57.032 111.662 57.5174 111.311C58.0027 110.96 58.6419 110.785 59.4349 110.785C60.0719 110.785 60.6179 110.9 61.0729 111.129C61.5322 111.355 61.8615 111.697 62.0609 112.156C62.1605 112.373 62.2234 112.609 62.2494 112.865C62.2754 113.116 62.2884 113.381 62.2884 113.658V118H61.2614V116.316L61.5019 116.472C61.2375 117.04 60.867 117.469 60.3904 117.759C59.918 118.05 59.3417 118.195 58.6614 118.195ZM58.8369 117.226C59.2529 117.226 59.6125 117.153 59.9159 117.005C60.2235 116.854 60.4705 116.657 60.6569 116.414C60.8432 116.167 60.9645 115.898 61.0209 115.608C61.0859 115.391 61.1205 115.151 61.1249 114.886C61.1335 114.618 61.1379 114.412 61.1379 114.269L61.5409 114.444C61.1639 114.496 60.7934 114.546 60.4294 114.594C60.0654 114.642 59.7209 114.694 59.3959 114.75C59.0709 114.802 58.7784 114.865 58.5184 114.938C58.3277 114.999 58.1479 115.077 57.9789 115.172C57.8142 115.268 57.6799 115.391 57.5759 115.543C57.4762 115.69 57.4264 115.874 57.4264 116.095C57.4264 116.286 57.474 116.468 57.5694 116.641C57.669 116.815 57.8207 116.956 58.0244 117.064C58.2324 117.172 58.5032 117.226 58.8369 117.226ZM64.1084 109.738V108.542H65.2654V109.738H64.1084ZM64.1084 118V110.98H65.2654V118H64.1084ZM69.8677 118.189C69.0313 118.189 68.3445 118.006 67.8072 117.642C67.2742 117.274 66.947 116.761 66.8257 116.102L68.0087 115.913C68.104 116.295 68.3228 116.598 68.6652 116.823C69.0075 117.044 69.4322 117.155 69.9392 117.155C70.4202 117.155 70.7972 117.055 71.0702 116.856C71.3432 116.657 71.4797 116.386 71.4797 116.043C71.4797 115.844 71.4342 115.684 71.3432 115.562C71.2522 115.437 71.0637 115.32 70.7777 115.211C70.496 115.103 70.0692 114.973 69.4972 114.821C68.8775 114.657 68.39 114.486 68.0347 114.308C67.6793 114.13 67.4258 113.924 67.2742 113.69C67.1225 113.456 67.0467 113.173 67.0467 112.839C67.0467 112.427 67.1593 112.068 67.3847 111.76C67.61 111.448 67.9242 111.207 68.3272 111.038C68.7345 110.869 69.2068 110.785 69.7442 110.785C70.2772 110.785 70.7538 110.869 71.1742 111.038C71.5945 111.207 71.9325 111.448 72.1882 111.76C72.4482 112.068 72.602 112.427 72.6497 112.839L71.4667 113.053C71.4103 112.676 71.2283 112.38 70.9207 112.163C70.6173 111.946 70.2252 111.831 69.7442 111.818C69.2892 111.801 68.9187 111.881 68.6327 112.059C68.351 112.237 68.2102 112.477 68.2102 112.78C68.2102 112.949 68.2622 113.095 68.3662 113.216C68.4745 113.337 68.6717 113.452 68.9577 113.56C69.248 113.669 69.6683 113.792 70.2187 113.931C70.8383 114.087 71.3258 114.258 71.6812 114.444C72.0408 114.626 72.2965 114.843 72.4482 115.094C72.5998 115.341 72.6757 115.647 72.6757 116.011C72.6757 116.687 72.4265 117.22 71.9282 117.61C71.4298 117.996 70.743 118.189 69.8677 118.189ZM78.0287 118C77.6127 118.082 77.2011 118.115 76.7937 118.098C76.3907 118.085 76.0311 118.004 75.7147 117.857C75.3984 117.705 75.1579 117.471 74.9932 117.155C74.8546 116.878 74.7787 116.598 74.7657 116.316C74.7571 116.03 74.7527 115.708 74.7527 115.348V109.03H75.9097V115.296C75.9097 115.582 75.9119 115.827 75.9162 116.03C75.9249 116.234 75.9704 116.41 76.0527 116.557C76.2087 116.834 76.4557 116.997 76.7937 117.045C77.1361 117.092 77.5477 117.079 78.0287 117.005V118ZM73.3292 111.935V110.98H78.0287V111.935H73.3292Z" fill="#3D3D52"/>
</svg>
