<svg width="40" height="40" viewBox="0 0 40 40" fill="none" xmlns="http://www.w3.org/2000/svg">
<path fill-rule="evenodd" clip-rule="evenodd" d="M6.44144 3.13407L6.22693 3L0.282814 5.64183C0.0587757 5.7414 -0.0530098 5.99484 0.0245195 6.22743C0.123174 6.52339 0.393469 7.45615 0.644106 8.70933C0.759655 9.28708 0.788405 10.3228 0.769818 11.4247C0.751491 12.5113 0.688567 13.6125 0.636263 14.2924L0.634861 14.3106V32.896H20.3195L20.3128 32.4133C20.2526 28.0798 20.1584 23.2437 20.0882 19.6418V19.6417L20.0882 19.6415L20.0882 19.6379C20.0348 16.9 19.9954 14.8758 19.9954 14.3289C19.9954 13.5141 19.9144 12.3838 19.8354 11.3183L19.8231 11.1525C19.7476 10.1341 19.678 9.19688 19.678 8.61597C19.678 7.70394 20.0675 6.67987 20.2626 6.28979C20.3224 6.16999 20.3291 6.03051 20.2809 5.90555C20.2327 5.78059 20.1341 5.68171 20.0093 5.63317L14.0901 3.33126L13.8957 3.43727L13.8948 3.43777L13.8905 3.4401L13.8723 3.44991C13.856 3.45867 13.8315 3.47173 13.7997 3.48849C13.736 3.52201 13.6431 3.57026 13.5278 3.62832C13.2968 3.74462 12.9777 3.89932 12.6242 4.0536C12.2695 4.20835 11.8867 4.35981 11.5273 4.47184C11.1599 4.58636 10.8509 4.64864 10.6325 4.64864C10.4437 4.64864 10.1415 4.59643 9.75286 4.49152C9.37372 4.38918 8.94449 4.24574 8.5151 4.08407C7.64761 3.75746 6.82496 3.37377 6.44144 3.13407ZM13.6977 4.60649C13.4962 4.70436 13.2595 4.81523 13.005 4.92629C12.6323 5.08893 12.215 5.25485 11.8107 5.38086C11.4144 5.50438 10.996 5.6008 10.6325 5.6008C10.3136 5.6008 9.91219 5.52076 9.50473 5.41078C9.08776 5.29822 8.62831 5.14411 8.1796 4.97516C7.68472 4.78884 7.18907 4.57921 6.76703 4.38005C6.85413 4.74145 6.99223 5.15747 7.1928 5.55107C7.51678 6.18685 7.96772 6.6966 8.56164 6.89457C9.36474 7.16227 10.3712 7.18868 11.2583 7.11509C12.1085 7.04456 12.8433 6.54138 13.2091 5.77496C13.3714 5.43469 13.5395 5.04231 13.6977 4.60649ZM5.76619 4.24674L1.05437 6.34088C1.19243 6.82125 1.39107 7.58909 1.57777 8.5226C1.71613 9.2144 1.74028 10.3475 1.72184 11.4408C1.7033 12.5399 1.64022 13.6505 1.58702 14.3471V31.9439H19.3539C19.2939 27.7597 19.2043 23.1544 19.1367 19.6816V19.6816L19.1367 19.6814L19.1366 19.6778C19.083 16.922 19.0433 14.8801 19.0433 14.3289C19.0433 13.5568 18.9656 12.4654 18.8859 11.3886L18.8718 11.1986L18.8718 11.1984C18.7979 10.2033 18.7259 9.23388 18.7259 8.61597C18.7259 7.78241 18.9793 6.91711 19.2029 6.3412L14.7104 4.59413C14.5084 5.19737 14.284 5.7332 14.0684 6.18505C13.5551 7.26067 12.5208 7.96578 11.337 8.06399C10.3985 8.14185 9.24242 8.12516 8.26054 7.79787C7.33101 7.48802 6.724 6.72822 6.34444 5.98338C6.03772 5.38146 5.85599 4.74509 5.76619 4.24674ZM27.8891 16.9922C27.7851 16.7584 27.5148 16.6485 27.2772 16.7436L23.5286 18.243L23.8038 14.6648V14.6465C23.8038 12.7525 24.8038 10.86 25.3021 10.1624L25.3908 10.0383V9.01617C28.4282 8.49477 33.6096 7.8227 35.3884 7.8227H35.8645V8.06073C35.8645 8.14838 35.9356 8.21943 36.0232 8.21943C36.1109 8.21943 36.1819 8.14838 36.1819 8.06073V7.8227H37.4514V9.1716L37.6419 9.31442C37.8144 9.4438 38.0943 9.70783 38.3273 10.0503C38.5616 10.3946 38.721 10.7775 38.721 11.1553V11.1609L39.0292 24.1048C38.6408 24.1894 38.1907 24.2851 37.7088 24.3846C37.6781 24.3529 37.6344 24.3341 37.5869 24.3365C37.522 24.3397 37.4683 24.3814 37.4465 24.4384C36.833 24.5637 36.1783 24.6926 35.5398 24.8108C34.0984 25.0778 32.7965 25.279 32.2146 25.279C31.2711 25.279 30.4476 25.1573 29.8803 25.0537C29.8958 23.8374 29.6434 22.4289 29.3035 21.1132C28.8868 19.5001 28.3226 17.9677 27.8891 16.9922ZM22.8517 14.6279L22.5433 18.6371L22.5164 18.6479C22.2954 18.7363 22.1736 18.9744 22.2314 19.2054C22.2744 19.3776 22.3706 19.661 22.5322 20.0443L22.1988 23.7119L22.3564 23.8696C22.5757 24.0888 23.0349 24.3711 23.5593 24.6212C23.9945 24.8288 24.5147 25.0333 25.0567 25.1764C25.2749 25.8655 25.47 26.6299 25.6399 27.4114C25.9989 29.0629 26.2324 30.7267 26.3395 31.7736C26.0972 33.2881 24.861 34.3459 24.0545 34.8562L24.0431 34.8633C24.029 34.8721 24.006 34.8864 23.9951 34.8934C23.89 34.9606 23.4433 35.255 23.1894 35.6548C23.058 35.8619 22.9337 36.1681 23.0262 36.5139C23.1143 36.843 23.3654 37.0842 23.6918 37.2593C23.8696 37.4032 24.0796 37.4532 24.252 37.471C24.4474 37.4912 24.661 37.4765 24.8601 37.4562C24.9775 37.4442 25.0943 37.43 25.212 37.4158L25.212 37.4157C25.523 37.378 25.8393 37.3396 26.1845 37.3396C26.88 37.3396 27.4977 36.9161 27.9312 36.4883C28.3037 36.1207 28.6125 35.6789 28.7807 35.3053L28.8523 35.2703C29.4267 34.9902 30.0885 34.6674 31.2427 33.7441C31.6314 33.4331 31.8679 33.068 31.9673 32.6732C32.0653 32.284 32.0202 31.9054 31.9142 31.5761C31.7197 30.9716 31.299 30.4635 30.9834 30.1923L30.9593 30.1557C30.9206 30.0962 30.8642 30.0064 30.7967 29.8902C30.6616 29.6572 30.4835 29.3198 30.3147 28.9073C29.994 28.1234 29.7185 27.0959 29.8104 26.0086C30.4039 26.1135 31.2497 26.2311 32.2146 26.2311C32.9021 26.2311 34.298 26.0091 35.7132 25.7471C37.1482 25.4813 38.6615 25.1627 39.6177 24.9502L39.9997 24.8653L39.6731 11.1492C39.6715 10.5138 39.4085 9.94674 39.1146 9.51479C38.8877 9.18124 38.6262 8.90415 38.4036 8.70828V6.87054H35.3884C33.4378 6.87054 27.7937 7.61844 24.831 8.1475L24.4386 8.21757V9.73728C23.8596 10.6005 22.8577 12.5753 22.8517 14.6279ZM23.1902 23.3231L23.3385 21.6922C23.5784 22.1319 23.8618 22.6197 24.1938 23.1509C24.3522 23.4043 24.5035 23.7074 24.6473 24.0482C24.4078 23.9597 24.1788 23.8618 23.9692 23.7618C23.6214 23.596 23.355 23.4378 23.1902 23.3231ZM30.2403 30.7923C30.2404 30.7924 30.2405 30.7925 30.6279 30.5158L30.2405 30.7925L30.2789 30.8463L30.3305 30.8876C30.5395 31.0548 30.8707 31.4416 31.0078 31.8677C31.0738 32.0726 31.0882 32.2653 31.044 32.4408C31.0012 32.6107 30.8939 32.8037 30.6479 33.0005C29.5755 33.8585 28.9869 34.1455 28.4314 34.4163L28.431 34.4165L28.4301 34.4169C28.3509 34.4555 28.2724 34.4938 28.1933 34.5334L28.0169 34.6216L27.9545 34.8087C27.8784 35.0369 27.6265 35.4513 27.2624 35.8106C26.8919 36.1762 26.5046 36.3875 26.1845 36.3875C25.7763 36.3875 25.3732 36.4365 25.0496 36.4758L25.0495 36.4758H25.0495C24.945 36.4885 24.8488 36.5002 24.7635 36.5089C24.5737 36.5283 24.4422 36.5334 24.35 36.5239C24.3152 36.5203 24.295 36.5155 24.285 36.5125L24.2448 36.4723L24.1757 36.4377C24.0013 36.3505 23.9562 36.2859 23.947 36.2689C23.9479 36.2582 23.9546 36.2262 23.9933 36.1652C24.0522 36.0724 24.15 35.9714 24.2611 35.878C24.3682 35.7878 24.467 35.7218 24.5083 35.6954L24.5193 35.6884L24.532 35.6806C24.5385 35.6765 24.5464 35.6716 24.5635 35.6608C25.4468 35.102 27.0091 33.8231 27.2905 31.8527L27.2987 31.7955L27.293 31.738C27.1856 30.6647 26.945 28.9327 26.5703 27.2091C26.1996 25.5036 25.6838 23.7383 25.0013 22.6462C24.0323 21.0959 23.5131 19.9651 23.2853 19.3658L27.1994 17.8002C27.582 18.7244 28.0349 20.009 28.3816 21.3514C28.788 22.9246 29.0331 24.5189 28.8859 25.696C28.7134 27.0762 29.0591 28.3527 29.4335 29.2678C29.6218 29.7282 29.8206 30.1049 29.9731 30.3679C30.0494 30.4995 30.1145 30.6032 30.1613 30.6751C30.1847 30.7111 30.2036 30.7392 30.2171 30.7589L30.2332 30.7822L30.2379 30.789L30.2395 30.7912L30.2401 30.792L30.2403 30.7923ZM36.1819 8.8542C36.1819 8.76656 36.1109 8.69551 36.0232 8.69551C35.9356 8.69551 35.8645 8.76656 35.8645 8.8542V9.31667L35.911 9.36315C35.9609 9.41301 36.0203 9.47745 36.0846 9.55393C36.141 9.62099 36.2411 9.62962 36.3082 9.5732C36.3753 9.51677 36.3839 9.41667 36.3275 9.3496C36.2762 9.28865 36.2271 9.23386 36.1819 9.18641V8.8542ZM36.662 9.80381C36.6147 9.73005 36.5165 9.70863 36.4427 9.75597C36.369 9.80331 36.3476 9.90148 36.3949 9.97524C36.4861 10.1174 36.5721 10.2716 36.6424 10.4312C36.6777 10.5114 36.7714 10.5478 36.8516 10.5124C36.9318 10.4771 36.9682 10.3835 36.9329 10.3032C36.8547 10.1258 36.7604 9.95705 36.662 9.80381ZM37.1069 10.8571C37.0916 10.7708 37.0092 10.7133 36.9229 10.7286C36.8366 10.7438 36.7791 10.8262 36.7943 10.9125C36.8089 10.9949 36.8167 11.076 36.8167 11.1553C36.8167 11.2161 36.8192 11.3221 36.8238 11.4658C36.8267 11.5534 36.8999 11.6221 36.9875 11.6193C37.0751 11.6165 37.1439 11.5432 37.1411 11.4556C37.1364 11.3115 37.1341 11.2103 37.1341 11.1553C37.1341 11.0553 37.1243 10.9556 37.1069 10.8571ZM37.1642 12.0778C37.1606 11.9902 37.0868 11.922 36.9992 11.9256C36.9117 11.9291 36.8435 12.0029 36.847 12.0905C36.8545 12.2758 36.8631 12.4839 36.8729 12.7118C36.8767 12.7994 36.9507 12.8673 37.0382 12.8636C37.1258 12.8598 37.1938 12.7858 37.19 12.6982C37.1802 12.4705 37.1716 12.2627 37.1642 12.0778ZM37.217 13.3182C37.2132 13.2306 37.139 13.1628 37.0515 13.1666C36.9639 13.1705 36.8961 13.2446 36.9 13.3322C36.9087 13.5293 36.918 13.7364 36.9278 13.9523C36.9317 14.0398 37.0059 14.1076 37.0935 14.1036C37.181 14.0996 37.2488 14.0255 37.2448 13.9379C37.2351 13.7222 37.2258 13.5152 37.217 13.3182ZM37.2732 14.5587C37.2691 14.4711 37.1949 14.4034 37.1073 14.4074C37.0198 14.4115 36.9521 14.4857 36.9561 14.5732L36.9849 15.1953C36.9889 15.2829 37.0632 15.3506 37.1508 15.3465C37.2383 15.3424 37.306 15.2681 37.3019 15.1806L37.2732 14.5587ZM37.3309 15.7998C37.3267 15.7122 37.2524 15.6446 37.1649 15.6487C37.0773 15.6528 37.0097 15.7271 37.0138 15.8147L37.0431 16.4351C37.0472 16.5226 37.1215 16.5903 37.2091 16.5861C37.2966 16.582 37.3642 16.5076 37.3601 16.4201L37.3309 15.7998ZM37.3896 17.0409C37.3854 16.9533 37.311 16.8857 37.2235 16.8899C37.136 16.8941 37.0684 16.9684 37.0725 17.056L37.1022 17.6769C37.1064 17.7644 37.1807 17.832 37.2683 17.8278C37.3558 17.8236 37.4234 17.7492 37.4192 17.6617L37.3896 17.0409ZM37.449 18.2823C37.4448 18.1948 37.3704 18.1272 37.2829 18.1314C37.1953 18.1356 37.1278 18.21 37.132 18.2976L37.1619 18.9179C37.1661 19.0054 37.2405 19.073 37.3281 19.0687C37.4156 19.0645 37.4832 18.9901 37.4789 18.9026L37.449 18.2823ZM37.509 19.5231C37.5047 19.4355 37.4303 19.368 37.3428 19.3723C37.2552 19.3765 37.1877 19.4509 37.192 19.5385L37.2221 20.1591C37.2264 20.2467 37.3008 20.3142 37.3884 20.3099C37.4759 20.3056 37.5434 20.2312 37.5392 20.1437L37.509 19.5231ZM37.5694 20.7642C37.5652 20.6767 37.4907 20.6092 37.4032 20.6134C37.3156 20.6177 37.2482 20.6922 37.2524 20.7797L37.2828 21.4C37.2871 21.4876 37.3616 21.5551 37.4491 21.5508C37.5366 21.5465 37.6041 21.472 37.5998 21.3845L37.5694 20.7642ZM37.6303 22.0042C37.626 21.9166 37.5515 21.8491 37.464 21.8535C37.3764 21.8578 37.309 21.9322 37.3133 22.0198L37.3439 22.6409C37.3482 22.7285 37.4227 22.7959 37.5102 22.7916C37.5977 22.7873 37.6652 22.7128 37.6609 22.6253L37.6303 22.0042ZM37.6916 23.2466C37.6873 23.1591 37.6128 23.0916 37.5253 23.096C37.4377 23.1003 37.3703 23.1748 37.3746 23.2623L37.4054 23.882C37.4097 23.9695 37.4842 24.0369 37.5717 24.0326C37.6593 24.0282 37.7267 23.9537 37.7224 23.8662L37.6916 23.2466Z" fill="#F4F4F5"/>
<path d="M6.84363 11.1553H8.19526L10.004 13.3524C11.1951 11.8877 11.7939 11.1553 11.8004 11.1553H13.1545C13.166 11.157 13.1717 11.1639 13.1717 11.1759V15.578C13.1717 15.5918 13.166 15.5987 13.1545 15.5987H11.8397C11.8266 15.5987 11.8201 15.5918 11.8201 15.578V12.9548L10.0114 15.1623H9.99415C9.98432 15.1589 9.37896 14.4231 8.17806 12.9548V15.578C8.17806 15.5918 8.1715 15.5987 8.1584 15.5987H6.84363C6.83053 15.5987 6.82397 15.5918 6.82397 15.578V11.1759C6.82561 11.1622 6.83217 11.1553 6.84363 11.1553Z" fill="#BFBFC4"/>
</svg>
