<svg width="40" height="40" viewBox="0 0 40 40" fill="none" xmlns="http://www.w3.org/2000/svg">
<path fill-rule="evenodd" clip-rule="evenodd" d="M13.1215 8.90712C12.8765 8.6855 12.501 8.69939 12.2727 8.94211L11.3816 9.88994L11.1815 10.1135C9.72631 11.8283 9.32971 14.3477 10.2268 16.588C11.6682 20.1874 13.415 23.056 15.4523 25.2191C17.4884 27.3811 20.1841 29.2305 23.5627 30.7549C25.7123 31.7248 28.1461 31.2438 29.749 29.5389L30.7477 28.4767C30.9732 28.2368 30.9731 27.8594 30.7475 27.6196C30.7474 27.6195 30.7475 27.6197 30.7475 27.6196L26.7481 23.3759C26.5031 23.1543 26.1276 23.1682 25.8994 23.4109L24.0592 25.3681C23.8499 25.5907 23.5264 25.6641 23.2414 25.5535L22.8426 25.3987C19.1735 23.9015 16.2972 20.7448 15.0133 16.8196C14.9281 16.5589 14.9919 16.2725 15.1798 16.0727L17.121 14.0079C17.3466 13.7681 17.3465 13.3906 17.1209 13.1508C17.1208 13.1508 17.1209 13.1509 17.1209 13.1508L13.1215 8.90712ZM11.1799 7.91463C11.9817 7.06188 13.3207 7.02462 14.1682 7.83232C14.1779 7.84158 14.1874 7.85109 14.1966 7.86085L18.2125 12.122C18.982 12.9391 18.9827 14.2177 18.2139 15.0354L16.5831 16.7699C17.7861 20.0678 20.2465 22.686 23.3143 23.9705L24.8065 22.3834C25.6083 21.5307 26.9474 21.4934 27.7948 22.3011C27.8045 22.3104 27.814 22.3199 27.8232 22.3296L31.8391 26.5908C32.6086 27.4079 32.6093 28.6865 31.8405 29.5042L30.8418 30.5664C28.7969 32.7413 25.6753 33.3537 22.9458 32.1222C19.4274 30.5347 16.5577 28.5807 14.3603 26.2475C12.164 23.9155 10.327 20.873 8.83435 17.1456C7.74002 14.4129 8.20546 11.2953 10.0452 9.13433L10.0573 9.12041L10.2699 8.88285L10.2824 8.8692L11.1799 7.91463Z"/>
</svg>
