<svg viewBox="0 0 40 40" fill="none" xmlns="http://www.w3.org/2000/svg">
<path fill-rule="evenodd" clip-rule="evenodd" d="M11.843 10.2763L8.86646 9.73802L9.13339 8.26196L12.6071 8.89015C12.9076 8.9445 13.1451 9.17564 13.2077 9.47455L15.7847 21.7884H28.0966L30.06 13.8281L15.7108 12.7093L15.8275 11.2138L31.0582 12.4014C31.2779 12.4186 31.4789 12.5314 31.6079 12.71C31.7369 12.8886 31.7809 13.1149 31.7281 13.3288L29.4123 22.718C29.3297 23.053 29.0292 23.2884 28.6841 23.2884H15.1754C14.8204 23.2884 14.514 23.0395 14.4413 22.6921L11.843 10.2763Z" fill="black"/>
<path fill-rule="evenodd" clip-rule="evenodd" d="M14.6754 25.5877L16.3677 22.2031L17.7093 22.8739L16.5597 25.1732H29.3077V26.6732H15.3462C15.0863 26.6732 14.8449 26.5386 14.7082 26.3174C14.5715 26.0963 14.5591 25.8202 14.6754 25.5877Z" fill="black"/>
<path fill-rule="evenodd" clip-rule="evenodd" d="M17.8844 30.346C18.2243 30.346 18.4998 30.0705 18.4998 29.7306C18.4998 29.3908 18.2243 29.1152 17.8844 29.1152C17.5446 29.1152 17.269 29.3908 17.269 29.7306C17.269 30.0705 17.5446 30.346 17.8844 30.346ZM17.8844 31.846C19.0527 31.846 19.9998 30.8989 19.9998 29.7306C19.9998 28.5623 19.0527 27.6152 17.8844 27.6152C16.7161 27.6152 15.769 28.5623 15.769 29.7306C15.769 30.8989 16.7161 31.846 17.8844 31.846Z" fill="black"/>
<path fill-rule="evenodd" clip-rule="evenodd" d="M27.1923 30.346C27.5322 30.346 27.8077 30.0705 27.8077 29.7306C27.8077 29.3908 27.5322 29.1152 27.1923 29.1152C26.8524 29.1152 26.5769 29.3908 26.5769 29.7306C26.5769 30.0705 26.8524 30.346 27.1923 30.346ZM27.1923 31.846C28.3606 31.846 29.3077 30.8989 29.3077 29.7306C29.3077 28.5623 28.3606 27.6152 27.1923 27.6152C26.024 27.6152 25.0769 28.5623 25.0769 29.7306C25.0769 30.8989 26.024 31.846 27.1923 31.846Z" fill="black"/>
</svg>
