<svg width="40" height="40" viewBox="0 0 40 40" fill="none" xmlns="http://www.w3.org/2000/svg">
<path fill-rule="evenodd" clip-rule="evenodd" d="M7.25 8.25H29C31.0711 8.25 32.75 9.92893 32.75 12V27.4919H27.95V34C27.95 34.3119 27.7569 34.5913 27.4651 34.7016C27.1733 34.8118 26.8438 34.73 26.6375 34.496L20.4614 27.4919H7.25V8.25ZM8.75 9.75V25.9919H21.1386L26.45 32.0155V25.9919H31.25V12C31.25 10.7574 30.2426 9.75 29 9.75H8.75Z" fill="#2C2C3A"/>
<path class="chaticon-indicator" d="M35 10C35 12.2091 33.2091 14 31 14C28.7909 14 27 12.2091 27 10C27 7.79086 28.7909 6 31 6C33.2091 6 35 7.79086 35 10Z" fill="#61616B"/>
</svg>
