<svg width="32" height="13" viewBox="0 0 32 13" xmlns="http://www.w3.org/2000/svg">
<path d="M1.13157 13H5.60481L6.7187 11.9224V9.71579L7.00159 8.89474H4.19034L4.49092 9.71579V10.5539L4.24339 10.8105H2.49299L2.22778 10.5539V2.39474L2.49299 2.13816H4.24339L4.49092 2.39474V3.25L4.19034 4.07105H7.00159L6.7187 3.25V1.06053L5.60481 0H1.13157L0 1.06053V11.9224L1.13157 13Z" />
<path d="M15.4272 10.5882L14.5078 10.8276H11.0777L10.8125 10.5882V0.838158L11.0777 0H8.30182L8.58471 0.838158V12.1789L8.30182 13H15.0205L15.4272 10.5882Z" />
<path d="M23.6497 0H20.8385L21.1213 0.838158V10.5882L20.8561 10.8276H19.1234L18.8582 10.5882V0.838158L19.1411 0H16.3652L16.6481 0.838158V11.9224L17.7443 13H22.2352L23.3668 11.9224V0.838158L23.6497 0Z" />
<path d="M25.2813 0.821053V12.1618L24.9984 13H30.8684L32 11.9224V7.475L30.8508 6.38026L32 5.30263V1.06053L30.8684 0H24.9984L25.2813 0.821053ZM27.5091 2.39474L27.7743 2.13816H29.4893L29.7545 2.39474V5.06316L29.4893 5.30263H27.7743L27.5091 5.06316V2.39474ZM29.7545 7.73158V10.5539L29.4893 10.8105H27.7743L27.5091 10.5539V7.73158L27.7743 7.475H29.4893L29.7545 7.73158Z" />
</svg>
