<svg viewBox="0 0 284 62" fill="none" xmlns="http://www.w3.org/2000/svg">
<path d="M82.4591 31V8.68H91.4801C91.6971 8.68 91.9657 8.69033 92.2861 8.711C92.6064 8.72133 92.9112 8.75233 93.2006 8.804C94.4406 9.00033 95.4739 9.424 96.3006 10.075C97.1376 10.726 97.7627 11.5475 98.1761 12.5395C98.5894 13.5315 98.7961 14.6268 98.7961 15.8255C98.7961 17.6028 98.3414 19.1373 97.4321 20.429C96.5227 21.7103 95.1587 22.5112 93.3401 22.8315L92.0226 22.9865H85.6986V31H82.4591ZM95.5101 31L91.1081 21.917L94.3786 21.08L99.2146 31H95.5101ZM85.6986 19.9175H91.3561C91.5627 19.9175 91.7901 19.9072 92.0381 19.8865C92.2964 19.8658 92.5392 19.8297 92.7666 19.778C93.4279 19.623 93.9601 19.3388 94.3631 18.9255C94.7661 18.5018 95.0554 18.0162 95.2311 17.4685C95.4067 16.9208 95.4946 16.3732 95.4946 15.8255C95.4946 15.2778 95.4067 14.7353 95.2311 14.198C95.0554 13.6503 94.7661 13.1698 94.3631 12.7565C93.9601 12.3328 93.4279 12.0435 92.7666 11.8885C92.5392 11.8265 92.2964 11.7852 92.0381 11.7645C91.7901 11.7438 91.5627 11.7335 91.3561 11.7335H85.6986V19.9175ZM110.046 31.465C108.382 31.465 106.92 31.1033 105.659 30.38C104.409 29.6463 103.432 28.6285 102.73 27.3265C102.037 26.0142 101.691 24.4952 101.691 22.7695C101.691 20.9405 102.032 19.3543 102.714 18.011C103.407 16.6677 104.368 15.6292 105.597 14.8955C106.827 14.1618 108.258 13.795 109.891 13.795C111.596 13.795 113.048 14.1928 114.246 14.9885C115.445 15.7738 116.339 16.895 116.928 18.352C117.527 19.809 117.765 21.5398 117.641 23.5445H114.401V22.3665C114.381 20.4238 114.009 18.9875 113.285 18.0575C112.572 17.1275 111.482 16.6625 110.015 16.6625C108.392 16.6625 107.173 17.174 106.357 18.197C105.54 19.22 105.132 20.6977 105.132 22.63C105.132 24.4693 105.54 25.8953 106.357 26.908C107.173 27.9103 108.351 28.4115 109.891 28.4115C110.903 28.4115 111.777 28.1842 112.51 27.7295C113.254 27.2645 113.833 26.6032 114.246 25.7455L117.424 26.753C116.773 28.2513 115.786 29.4138 114.463 30.2405C113.141 31.0568 111.668 31.465 110.046 31.465ZM104.078 23.5445V21.018H116.029V23.5445H104.078ZM124.078 31L118.963 14.2445L122.171 14.26L125.674 25.7455L129.208 14.26H131.998L135.532 25.7455L139.035 14.26H142.228L137.113 31H134.509L130.603 18.879L126.682 31H124.078ZM148.793 31.465C147.553 31.465 146.515 31.2377 145.678 30.783C144.841 30.318 144.205 29.7083 143.771 28.954C143.347 28.1893 143.136 27.3523 143.136 26.443C143.136 25.5957 143.285 24.8517 143.585 24.211C143.885 23.5703 144.329 23.0278 144.918 22.5835C145.507 22.1288 146.23 21.762 147.088 21.483C147.832 21.266 148.674 21.0748 149.615 20.9095C150.555 20.7442 151.542 20.5892 152.575 20.4445C153.619 20.2998 154.652 20.1552 155.675 20.0105L154.497 20.6615C154.518 19.3492 154.239 18.3778 153.66 17.7475C153.092 17.1068 152.11 16.7865 150.715 16.7865C149.837 16.7865 149.031 16.9932 148.297 17.4065C147.563 17.8095 147.052 18.4812 146.763 19.4215L143.74 18.4915C144.153 17.0552 144.939 15.9133 146.096 15.066C147.264 14.2187 148.814 13.795 150.746 13.795C152.244 13.795 153.546 14.0533 154.652 14.57C155.768 15.0763 156.584 15.8823 157.101 16.988C157.37 17.5357 157.535 18.1143 157.597 18.724C157.659 19.3337 157.69 19.9898 157.69 20.6925V31H154.823V27.1715L155.381 27.6675C154.688 28.9488 153.805 29.9047 152.73 30.535C151.666 31.155 150.353 31.465 148.793 31.465ZM149.367 28.8145C150.286 28.8145 151.077 28.6543 151.738 28.334C152.399 28.0033 152.932 27.5848 153.335 27.0785C153.738 26.5722 154.001 26.0452 154.125 25.4975C154.301 25.0015 154.399 24.4435 154.42 23.8235C154.451 23.2035 154.466 22.7075 154.466 22.3355L155.52 22.723C154.497 22.878 153.567 23.0175 152.73 23.1415C151.893 23.2655 151.134 23.3895 150.452 23.5135C149.78 23.6272 149.181 23.7667 148.654 23.932C148.209 24.087 147.811 24.273 147.46 24.49C147.119 24.707 146.845 24.9705 146.639 25.2805C146.442 25.5905 146.344 25.9677 146.344 26.412C146.344 26.846 146.453 27.249 146.67 27.621C146.887 27.9827 147.217 28.272 147.662 28.489C148.106 28.706 148.674 28.8145 149.367 28.8145ZM161.715 31V14.26H164.598V18.321L164.195 17.794C164.402 17.2567 164.67 16.7658 165.001 16.3215C165.332 15.8668 165.714 15.4948 166.148 15.2055C166.572 14.8955 167.042 14.6578 167.558 14.4925C168.085 14.3168 168.623 14.2135 169.17 14.1825C169.718 14.1412 170.245 14.167 170.751 14.26V17.298C170.204 17.1533 169.594 17.112 168.922 17.174C168.261 17.236 167.651 17.4478 167.093 17.8095C166.566 18.1505 166.148 18.5638 165.838 19.0495C165.538 19.5352 165.321 20.0777 165.187 20.677C165.053 21.266 164.985 21.8912 164.985 22.5525V31H161.715ZM180.05 31.465C178.49 31.465 177.141 31.0775 176.004 30.3025C174.878 29.5275 174.005 28.4735 173.385 27.1405C172.775 25.7972 172.47 24.2885 172.47 22.6145C172.47 20.9302 172.78 19.4267 173.4 18.104C174.02 16.771 174.899 15.7222 176.035 14.9575C177.182 14.1825 178.541 13.795 180.112 13.795C181.693 13.795 183.021 14.1825 184.095 14.9575C185.18 15.7222 185.997 16.771 186.544 18.104C187.102 19.437 187.381 20.9405 187.381 22.6145C187.381 24.2885 187.102 25.792 186.544 27.125C185.986 28.458 185.165 29.5172 184.08 30.3025C182.995 31.0775 181.652 31.465 180.05 31.465ZM180.499 28.5355C181.564 28.5355 182.432 28.2823 183.103 27.776C183.775 27.2697 184.266 26.5722 184.576 25.6835C184.886 24.7948 185.041 23.7718 185.041 22.6145C185.041 21.4572 184.881 20.4342 184.56 19.5455C184.25 18.6568 183.765 17.9645 183.103 17.4685C182.452 16.9725 181.621 16.7245 180.608 16.7245C179.533 16.7245 178.65 16.988 177.957 17.515C177.265 18.042 176.748 18.7498 176.407 19.6385C176.077 20.5272 175.911 21.5192 175.911 22.6145C175.911 23.7202 176.077 24.7225 176.407 25.6215C176.748 26.5102 177.255 27.218 177.926 27.745C178.608 28.272 179.466 28.5355 180.499 28.5355ZM185.041 31V18.9565H184.669V8.68H187.924V31H185.041ZM198.662 31.4495C196.627 31.4495 194.968 31 193.687 30.101C192.405 29.202 191.62 27.9362 191.331 26.3035L194.648 25.792C194.854 26.66 195.33 27.3472 196.074 27.8535C196.828 28.3495 197.763 28.5975 198.879 28.5975C199.892 28.5975 200.682 28.3908 201.251 27.9775C201.829 27.5642 202.119 26.9958 202.119 26.2725C202.119 25.8488 202.015 25.5078 201.809 25.2495C201.612 24.9808 201.194 24.7277 200.553 24.49C199.913 24.2523 198.936 23.9578 197.624 23.6065C196.187 23.2345 195.046 22.8367 194.198 22.413C193.361 21.979 192.762 21.4778 192.4 20.9095C192.049 20.3308 191.873 19.6333 191.873 18.817C191.873 17.8043 192.142 16.9208 192.679 16.1665C193.217 15.4122 193.971 14.8283 194.942 14.415C195.924 14.0017 197.071 13.795 198.383 13.795C199.665 13.795 200.806 13.9965 201.809 14.3995C202.811 14.8025 203.622 15.376 204.242 16.12C204.862 16.8537 205.234 17.7165 205.358 18.7085L202.041 19.313C201.928 18.507 201.55 17.8715 200.91 17.4065C200.269 16.9415 199.437 16.6883 198.414 16.647C197.433 16.6057 196.637 16.771 196.027 17.143C195.418 17.5047 195.113 18.0058 195.113 18.6465C195.113 19.0185 195.226 19.3337 195.454 19.592C195.691 19.8503 196.146 20.0983 196.818 20.336C197.489 20.5737 198.481 20.8578 199.794 21.1885C201.199 21.5502 202.315 21.9532 203.142 22.3975C203.968 22.8315 204.557 23.3533 204.909 23.963C205.27 24.5623 205.451 25.2908 205.451 26.1485C205.451 27.8018 204.847 29.0987 203.638 30.039C202.439 30.9793 200.781 31.4495 198.662 31.4495Z" fill="white"/>
<path d="M2.56 34.4H12.68L15.2 31.88V26.72L15.84 24.8H9.48L10.16 26.72V28.68L9.6 29.28H5.64L5.04 28.68V9.6L5.64 9H9.6L10.16 9.6V11.6L9.48 13.52H15.84L15.2 11.6V6.48L12.68 4H2.56L0 6.48V31.88L2.56 34.4Z" fill="white"/>
<path d="M34.9016 28.76L32.8216 29.32H25.0616L24.4616 28.76V5.96L25.0616 4H18.7816L19.4216 5.96V32.48L18.7816 34.4H33.9816L34.9016 28.76Z" fill="white"/>
<path d="M53.5037 4H47.1437L47.7837 5.96V28.76L47.1838 29.32H43.2637L42.6637 28.76V5.96L43.3037 4H37.0238L37.6637 5.96V31.88L40.1437 34.4H50.3037L52.8638 31.88V5.96L53.5037 4Z" fill="white"/>
<path d="M57.195 5.92V32.44L56.555 34.4H69.835L72.395 31.88V21.48L69.795 18.92L72.395 16.4V6.48L69.835 4H56.555L57.195 5.92ZM62.235 9.6L62.835 9H66.715L67.315 9.6V15.84L66.715 16.4H62.835L62.235 15.84V9.6ZM67.315 22.08V28.68L66.715 29.28H62.835L62.235 28.68V22.08L62.835 21.48H66.715L67.315 22.08Z" fill="white"/>
<path d="M4.2315 57.195C3.5685 57.195 2.9705 57.0823 2.4375 56.857C1.90883 56.6317 1.47117 56.311 1.1245 55.895C0.782167 55.4747 0.559 54.9785 0.455 54.4065L1.651 54.218C1.80267 54.8073 2.11683 55.2688 2.5935 55.6025C3.0745 55.9318 3.64 56.0965 4.29 56.0965C4.71033 56.0965 5.0895 56.0315 5.4275 55.9015C5.76983 55.7672 6.04067 55.5765 6.24 55.3295C6.43933 55.0825 6.539 54.79 6.539 54.452C6.539 54.244 6.50217 54.0663 6.4285 53.919C6.35917 53.7673 6.26167 53.6395 6.136 53.5355C6.01467 53.4272 5.876 53.3362 5.72 53.2625C5.564 53.1888 5.4015 53.1282 5.2325 53.0805L2.847 52.372C2.587 52.294 2.33567 52.1965 2.093 52.0795C1.85033 51.9582 1.63367 51.8087 1.443 51.631C1.25233 51.449 1.10067 51.2323 0.988 50.981C0.875333 50.7253 0.819 50.4242 0.819 50.0775C0.819 49.5228 0.962 49.0505 1.248 48.6605C1.53833 48.2662 1.9305 47.965 2.4245 47.757C2.9185 47.549 3.47533 47.4472 4.095 47.4515C4.72333 47.4558 5.2845 47.5685 5.7785 47.7895C6.27683 48.0062 6.6885 48.3182 7.0135 48.7255C7.34283 49.1328 7.56383 49.6203 7.6765 50.188L6.448 50.4025C6.383 50.0212 6.23783 49.694 6.0125 49.421C5.7915 49.1437 5.51417 48.9313 5.1805 48.784C4.84683 48.6323 4.48067 48.5543 4.082 48.55C3.70067 48.5457 3.35617 48.6063 3.0485 48.732C2.74083 48.8577 2.496 49.0332 2.314 49.2585C2.132 49.4795 2.041 49.7352 2.041 50.0255C2.041 50.3115 2.12333 50.5433 2.288 50.721C2.45267 50.8943 2.65417 51.033 2.8925 51.137C3.13517 51.2367 3.37133 51.319 3.601 51.384L5.382 51.8975C5.58567 51.9538 5.81967 52.0318 6.084 52.1315C6.35267 52.2312 6.61267 52.372 6.864 52.554C7.11533 52.7317 7.32333 52.97 7.488 53.269C7.65267 53.5637 7.735 53.9363 7.735 54.387C7.735 54.8377 7.644 55.2385 7.462 55.5895C7.28433 55.9405 7.03517 56.2352 6.7145 56.4735C6.39383 56.7075 6.02117 56.8852 5.5965 57.0065C5.17183 57.1322 4.71683 57.195 4.2315 57.195ZM9.22848 48.7385V47.5425H10.3855V48.7385H9.22848ZM9.22848 57V49.98H10.3855V57H9.22848ZM15.1763 60.315C14.8079 60.315 14.4483 60.2587 14.0973 60.146C13.7463 60.0333 13.4234 59.8622 13.1288 59.6325C12.8384 59.4072 12.5958 59.1212 12.4008 58.7745L13.4603 58.2155C13.6336 58.5578 13.8784 58.807 14.1948 58.963C14.5154 59.119 14.8448 59.197 15.1828 59.197C15.6291 59.197 15.9996 59.1147 16.2943 58.95C16.5889 58.7897 16.8056 58.5492 16.9443 58.2285C17.0873 57.9078 17.1566 57.5092 17.1523 57.0325V55.115H17.2888V49.98H18.3158V57.0455C18.3158 57.2362 18.3093 57.4203 18.2963 57.598C18.2876 57.7757 18.2659 57.9512 18.2313 58.1245C18.1403 58.6228 17.9604 59.0323 17.6918 59.353C17.4231 59.678 17.0764 59.9185 16.6518 60.0745C16.2271 60.2348 15.7353 60.315 15.1763 60.315ZM15.0918 57.195C14.4374 57.195 13.8763 57.0325 13.4083 56.7075C12.9403 56.3782 12.5784 55.934 12.3228 55.375C12.0714 54.816 11.9458 54.1855 11.9458 53.4835C11.9458 52.7815 12.0714 52.151 12.3228 51.592C12.5784 51.033 12.9403 50.5932 13.4083 50.2725C13.8763 49.9475 14.4353 49.785 15.0853 49.785C15.7483 49.785 16.3051 49.9453 16.7558 50.266C17.2064 50.5867 17.5466 51.0265 17.7763 51.5855C18.0103 52.1445 18.1273 52.7772 18.1273 53.4835C18.1273 54.1812 18.0103 54.8117 17.7763 55.375C17.5466 55.934 17.2064 56.3782 16.7558 56.7075C16.3051 57.0325 15.7504 57.195 15.0918 57.195ZM15.2348 56.1355C15.7071 56.1355 16.0949 56.0228 16.3983 55.7975C16.7016 55.5678 16.9248 55.2537 17.0678 54.855C17.2151 54.452 17.2888 53.9948 17.2888 53.4835C17.2888 52.9635 17.2151 52.5063 17.0678 52.112C16.9248 51.7133 16.7038 51.4035 16.4048 51.1825C16.1058 50.9572 15.7266 50.8445 15.2673 50.8445C14.7906 50.8445 14.3963 50.9615 14.0843 51.1955C13.7766 51.4295 13.5469 51.7458 13.3953 52.1445C13.2479 52.5432 13.1743 52.9895 13.1743 53.4835C13.1743 53.9818 13.2501 54.4325 13.4018 54.8355C13.5534 55.2342 13.7809 55.5505 14.0843 55.7845C14.3919 56.0185 14.7754 56.1355 15.2348 56.1355ZM25.1292 57V53.4835C25.1292 53.1498 25.0989 52.8292 25.0382 52.5215C24.9819 52.2138 24.88 51.9387 24.7327 51.696C24.5897 51.449 24.3947 51.254 24.1477 51.111C23.905 50.968 23.5974 50.8965 23.2247 50.8965C22.9344 50.8965 22.67 50.9463 22.4317 51.046C22.1977 51.1413 21.9962 51.2887 21.8272 51.488C21.6582 51.6873 21.526 51.9387 21.4307 52.242C21.3397 52.541 21.2942 52.8942 21.2942 53.3015L20.5337 53.0675C20.5337 52.3872 20.655 51.8043 20.8977 51.319C21.1447 50.8293 21.4892 50.4545 21.9312 50.1945C22.3775 49.9302 22.9019 49.798 23.5042 49.798C23.9592 49.798 24.347 49.8695 24.6677 50.0125C24.9884 50.1555 25.2549 50.3462 25.4672 50.5845C25.6795 50.8185 25.8464 51.0828 25.9677 51.3775C26.089 51.6678 26.1735 51.9647 26.2212 52.268C26.2732 52.567 26.2992 52.8508 26.2992 53.1195V57H25.1292ZM20.1242 57V49.98H21.1642V51.8585H21.2942V57H20.1242ZM33.2566 57.182C32.806 57.182 32.4181 57.1105 32.0931 56.9675C31.7725 56.8245 31.506 56.6338 31.2936 56.3955C31.0813 56.1572 30.9145 55.8928 30.7931 55.6025C30.6718 55.3122 30.5851 55.0153 30.5331 54.712C30.4855 54.4087 30.4616 54.1248 30.4616 53.8605V49.98H31.6316V53.4965C31.6316 53.8258 31.662 54.1443 31.7226 54.452C31.7833 54.7597 31.8851 55.037 32.0281 55.284C32.1755 55.531 32.3705 55.726 32.6131 55.869C32.8601 56.012 33.1678 56.0835 33.5361 56.0835C33.8265 56.0835 34.0908 56.0337 34.3291 55.934C34.5675 55.8343 34.7711 55.687 34.9401 55.492C35.1091 55.2927 35.2391 55.0413 35.3301 54.738C35.4211 54.4347 35.4666 54.0815 35.4666 53.6785L36.2271 53.9125C36.2271 54.5885 36.1036 55.1713 35.8566 55.661C35.614 56.1507 35.2695 56.5277 34.8231 56.792C34.3811 57.052 33.859 57.182 33.2566 57.182ZM35.5966 57V55.1215H35.4666V49.98H36.6301V57H35.5966ZM41.674 57.195C41.0154 57.195 40.4607 57.0325 40.01 56.7075C39.5594 56.3782 39.217 55.934 38.983 55.375C38.7534 54.8117 38.6385 54.1812 38.6385 53.4835C38.6385 52.7772 38.7534 52.1445 38.983 51.5855C39.217 51.0265 39.5594 50.5867 40.01 50.266C40.465 49.9453 41.0219 49.785 41.6805 49.785C42.3305 49.785 42.8895 49.9475 43.3575 50.2725C43.8299 50.5932 44.1917 51.033 44.443 51.592C44.6944 52.151 44.82 52.7815 44.82 53.4835C44.82 54.1855 44.6944 54.816 44.443 55.375C44.1917 55.934 43.8299 56.3782 43.3575 56.7075C42.8895 57.0325 42.3284 57.195 41.674 57.195ZM38.4435 60.12V49.98H39.477V55.1475H39.607V60.12H38.4435ZM41.531 56.1355C41.9947 56.1355 42.3782 56.0185 42.6815 55.7845C42.9849 55.5505 43.2124 55.2342 43.364 54.8355C43.5157 54.4325 43.5915 53.9818 43.5915 53.4835C43.5915 52.9895 43.5157 52.5432 43.364 52.1445C43.2167 51.7458 42.987 51.4295 42.675 51.1955C42.3674 50.9615 41.9752 50.8445 41.4985 50.8445C41.0435 50.8445 40.6665 50.9572 40.3675 51.1825C40.0685 51.4035 39.8454 51.7133 39.698 52.112C39.5507 52.5063 39.477 52.9635 39.477 53.4835C39.477 53.9948 39.5485 54.452 39.6915 54.855C39.8389 55.2537 40.0642 55.5678 40.3675 55.7975C40.6709 56.0228 41.0587 56.1355 41.531 56.1355ZM52.767 57C52.351 57.0823 51.9393 57.1148 51.532 57.0975C51.129 57.0845 50.7693 57.0043 50.453 56.857C50.1367 56.7053 49.8962 56.4713 49.7315 56.155C49.5928 55.8777 49.517 55.5982 49.504 55.3165C49.4953 55.0305 49.491 54.7077 49.491 54.348V48.03H50.648V54.296C50.648 54.582 50.6502 54.8268 50.6545 55.0305C50.6632 55.2342 50.7087 55.4097 50.791 55.557C50.947 55.8343 51.194 55.9968 51.532 56.0445C51.8743 56.0922 52.286 56.0792 52.767 56.0055V57ZM48.0675 50.9355V49.98H52.767V50.9355H48.0675ZM56.8902 57.195C56.1926 57.195 55.5902 57.0368 55.0832 56.7205C54.5806 56.4042 54.1927 55.9665 53.9197 55.4075C53.6467 54.8485 53.5102 54.2072 53.5102 53.4835C53.5102 52.7468 53.6489 52.1012 53.9262 51.5465C54.2036 50.9918 54.5957 50.5607 55.1027 50.253C55.6097 49.941 56.2056 49.785 56.8902 49.785C57.5922 49.785 58.1967 49.9432 58.7037 50.2595C59.2107 50.5715 59.5986 51.007 59.8672 51.566C60.1402 52.1207 60.2767 52.7598 60.2767 53.4835C60.2767 54.2158 60.1402 54.8615 59.8672 55.4205C59.5942 55.9752 59.2042 56.4107 58.6972 56.727C58.1902 57.039 57.5879 57.195 56.8902 57.195ZM56.8902 56.0965C57.6182 56.0965 58.1599 55.8538 58.5152 55.3685C58.8706 54.8832 59.0482 54.2548 59.0482 53.4835C59.0482 52.6905 58.8684 52.06 58.5087 51.592C58.1491 51.1197 57.6096 50.8835 56.8902 50.8835C56.4006 50.8835 55.9976 50.994 55.6812 51.215C55.3649 51.436 55.1287 51.7415 54.9727 52.1315C54.8167 52.5215 54.7387 52.9722 54.7387 53.4835C54.7387 54.2722 54.9207 54.9048 55.2847 55.3815C55.6487 55.8582 56.1839 56.0965 56.8902 56.0965ZM64.3104 57V47.64H65.3634L68.8994 55.0955L72.4159 47.64H73.4819V56.9935H72.3834V50.1815L69.2049 57H68.5874L65.4089 50.1815V57H64.3104ZM77.3 57.195C76.7757 57.195 76.3359 57.0997 75.9805 56.909C75.6295 56.714 75.363 56.4583 75.181 56.142C75.0034 55.8257 74.9145 55.479 74.9145 55.102C74.9145 54.7337 74.9839 54.4152 75.1225 54.1465C75.2655 53.8735 75.4649 53.6482 75.7205 53.4705C75.9762 53.2885 76.2817 53.1455 76.637 53.0415C76.9707 52.9505 77.3434 52.8725 77.755 52.8075C78.171 52.7382 78.5914 52.6753 79.016 52.619C79.4407 52.5627 79.8372 52.5085 80.2055 52.4565L79.7895 52.697C79.8025 52.073 79.6769 51.6115 79.4125 51.3125C79.1525 51.0135 78.7019 50.864 78.0605 50.864C77.6359 50.864 77.2632 50.9615 76.9425 51.1565C76.6262 51.3472 76.403 51.6592 76.273 52.0925L75.1745 51.761C75.3435 51.1457 75.6707 50.6625 76.156 50.3115C76.6414 49.9605 77.2805 49.785 78.0735 49.785C78.7105 49.785 79.2565 49.8998 79.7115 50.1295C80.1709 50.3548 80.5002 50.6972 80.6995 51.1565C80.7992 51.3732 80.862 51.6093 80.888 51.865C80.914 52.1163 80.927 52.3807 80.927 52.658V57H79.9V55.3165L80.1405 55.4725C79.8762 56.0402 79.5057 56.4692 79.029 56.7595C78.5567 57.0498 77.9804 57.195 77.3 57.195ZM77.4755 56.2265C77.8915 56.2265 78.2512 56.1528 78.5545 56.0055C78.8622 55.8538 79.1092 55.6567 79.2955 55.414C79.4819 55.167 79.6032 54.8983 79.6595 54.608C79.7245 54.3913 79.7592 54.1508 79.7635 53.8865C79.7722 53.6178 79.7765 53.412 79.7765 53.269L80.1795 53.4445C79.8025 53.4965 79.432 53.5463 79.068 53.594C78.704 53.6417 78.3595 53.6937 78.0345 53.75C77.7095 53.802 77.417 53.8648 77.157 53.9385C76.9664 53.9992 76.7865 54.0772 76.6175 54.1725C76.4529 54.2678 76.3185 54.3913 76.2145 54.543C76.1149 54.6903 76.065 54.8745 76.065 55.0955C76.065 55.2862 76.1127 55.4682 76.208 55.6415C76.3077 55.8148 76.4594 55.9557 76.663 56.064C76.871 56.1723 77.1419 56.2265 77.4755 56.2265ZM82.617 57V49.98H83.6505V51.6765L83.4815 51.4555C83.5639 51.2388 83.67 51.0395 83.8 50.8575C83.9344 50.6755 84.0839 50.526 84.2485 50.409C84.4305 50.2617 84.6364 50.149 84.866 50.071C85.0957 49.993 85.3297 49.9475 85.568 49.9345C85.8064 49.9172 86.0295 49.9323 86.2375 49.98V51.0655C85.9949 51.0005 85.7284 50.9832 85.438 51.0135C85.1477 51.0438 84.879 51.15 84.632 51.332C84.4067 51.4923 84.2312 51.6873 84.1055 51.917C83.9842 52.1467 83.8997 52.3958 83.852 52.6645C83.8044 52.9288 83.7805 53.1997 83.7805 53.477V57H82.617ZM87.4601 57L87.4666 47.64H88.6366V53.36L91.5811 49.98H93.0826L89.9821 53.49L93.4466 57H91.8281L88.6366 53.62V57H87.4601ZM97.0086 57.195C96.3196 57.195 95.7173 57.0433 95.2016 56.74C94.6903 56.4323 94.2916 56.0055 94.0056 55.4595C93.7196 54.9092 93.5766 54.2678 93.5766 53.5355C93.5766 52.7685 93.7175 52.1055 93.9991 51.5465C94.2808 50.9832 94.673 50.5498 95.1756 50.2465C95.6826 49.9388 96.2763 49.785 96.9566 49.785C97.663 49.785 98.2631 49.9475 98.7571 50.2725C99.2555 50.5975 99.6281 51.0612 99.8751 51.6635C100.126 52.2658 100.235 52.983 100.2 53.815H99.0301V53.399C99.0171 52.5367 98.8416 51.8932 98.5036 51.4685C98.1656 51.0395 97.663 50.825 96.9956 50.825C96.2806 50.825 95.7368 51.0547 95.3641 51.514C94.9915 51.9733 94.8051 52.632 94.8051 53.49C94.8051 54.3177 94.9915 54.959 95.3641 55.414C95.7368 55.869 96.2676 56.0965 96.9566 56.0965C97.4203 56.0965 97.8233 55.9903 98.1656 55.778C98.508 55.5657 98.7766 55.2602 98.9716 54.8615L100.083 55.245C99.8101 55.8647 99.3985 56.3457 98.8481 56.688C98.3021 57.026 97.689 57.195 97.0086 57.195ZM94.4151 53.815V52.8855H99.6021V53.815H94.4151ZM105.567 57C105.151 57.0823 104.739 57.1148 104.332 57.0975C103.929 57.0845 103.569 57.0043 103.253 56.857C102.936 56.7053 102.696 56.4713 102.531 56.155C102.393 55.8777 102.317 55.5982 102.304 55.3165C102.295 55.0305 102.291 54.7077 102.291 54.348V48.03H103.448V54.296C103.448 54.582 103.45 54.8268 103.454 55.0305C103.463 55.2342 103.508 55.4097 103.591 55.557C103.747 55.8343 103.994 55.9968 104.332 56.0445C104.674 56.0922 105.086 56.0792 105.567 56.0055V57ZM100.867 50.9355V49.98H105.567V50.9355H100.867ZM112.916 57.195C112.253 57.195 111.655 57.0823 111.122 56.857C110.593 56.6317 110.156 56.311 109.809 55.895C109.467 55.4747 109.244 54.9785 109.14 54.4065L110.336 54.218C110.487 54.8073 110.801 55.2688 111.278 55.6025C111.759 55.9318 112.325 56.0965 112.975 56.0965C113.395 56.0965 113.774 56.0315 114.112 55.9015C114.454 55.7672 114.725 55.5765 114.925 55.3295C115.124 55.0825 115.224 54.79 115.224 54.452C115.224 54.244 115.187 54.0663 115.113 53.919C115.044 53.7673 114.946 53.6395 114.821 53.5355C114.699 53.4272 114.561 53.3362 114.405 53.2625C114.249 53.1888 114.086 53.1282 113.917 53.0805L111.532 52.372C111.272 52.294 111.02 52.1965 110.778 52.0795C110.535 51.9582 110.318 51.8087 110.128 51.631C109.937 51.449 109.785 51.2323 109.673 50.981C109.56 50.7253 109.504 50.4242 109.504 50.0775C109.504 49.5228 109.647 49.0505 109.933 48.6605C110.223 48.2662 110.615 47.965 111.109 47.757C111.603 47.549 112.16 47.4472 112.78 47.4515C113.408 47.4558 113.969 47.5685 114.463 47.7895C114.961 48.0062 115.373 48.3182 115.698 48.7255C116.027 49.1328 116.248 49.6203 116.361 50.188L115.133 50.4025C115.068 50.0212 114.922 49.694 114.697 49.421C114.476 49.1437 114.199 48.9313 113.865 48.784C113.531 48.6323 113.165 48.5543 112.767 48.55C112.385 48.5457 112.041 48.6063 111.733 48.732C111.425 48.8577 111.181 49.0332 110.999 49.2585C110.817 49.4795 110.726 49.7352 110.726 50.0255C110.726 50.3115 110.808 50.5433 110.973 50.721C111.137 50.8943 111.339 51.033 111.577 51.137C111.82 51.2367 112.056 51.319 112.286 51.384L114.067 51.8975C114.27 51.9538 114.504 52.0318 114.769 52.1315C115.037 52.2312 115.297 52.372 115.549 52.554C115.8 52.7317 116.008 52.97 116.173 53.269C116.337 53.5637 116.42 53.9363 116.42 54.387C116.42 54.8377 116.329 55.2385 116.147 55.5895C115.969 55.9405 115.72 56.2352 115.399 56.4735C115.078 56.7075 114.706 56.8852 114.281 57.0065C113.856 57.1322 113.401 57.195 112.916 57.195ZM121.007 57.195C120.348 57.195 119.794 57.0325 119.343 56.7075C118.892 56.3782 118.55 55.934 118.316 55.375C118.086 54.8117 117.972 54.1812 117.972 53.4835C117.972 52.7772 118.086 52.1445 118.316 51.5855C118.55 51.0265 118.892 50.5867 119.343 50.266C119.798 49.9453 120.355 49.785 121.014 49.785C121.664 49.785 122.223 49.9475 122.691 50.2725C123.163 50.5932 123.525 51.033 123.776 51.592C124.027 52.151 124.153 52.7815 124.153 53.4835C124.153 54.1855 124.027 54.816 123.776 55.375C123.525 55.934 123.163 56.3782 122.691 56.7075C122.223 57.0325 121.661 57.195 121.007 57.195ZM117.777 60.12V49.98H118.81V55.1475H118.94V60.12H117.777ZM120.864 56.1355C121.328 56.1355 121.711 56.0185 122.015 55.7845C122.318 55.5505 122.545 55.2342 122.697 54.8355C122.849 54.4325 122.925 53.9818 122.925 53.4835C122.925 52.9895 122.849 52.5432 122.697 52.1445C122.55 51.7458 122.32 51.4295 122.008 51.1955C121.7 50.9615 121.308 50.8445 120.832 50.8445C120.377 50.8445 120 50.9572 119.701 51.1825C119.402 51.4035 119.178 51.7133 119.031 52.112C118.884 52.5063 118.81 52.9635 118.81 53.4835C118.81 53.9948 118.882 54.452 119.025 54.855C119.172 55.2537 119.397 55.5678 119.701 55.7975C120.004 56.0228 120.392 56.1355 120.864 56.1355ZM128.568 57.195C127.87 57.195 127.268 57.0368 126.761 56.7205C126.258 56.4042 125.87 55.9665 125.597 55.4075C125.324 54.8485 125.188 54.2072 125.188 53.4835C125.188 52.7468 125.327 52.1012 125.604 51.5465C125.881 50.9918 126.273 50.5607 126.78 50.253C127.287 49.941 127.883 49.785 128.568 49.785C129.27 49.785 129.874 49.9432 130.381 50.2595C130.888 50.5715 131.276 51.007 131.545 51.566C131.818 52.1207 131.954 52.7598 131.954 53.4835C131.954 54.2158 131.818 54.8615 131.545 55.4205C131.272 55.9752 130.882 56.4107 130.375 56.727C129.868 57.039 129.266 57.195 128.568 57.195ZM128.568 56.0965C129.296 56.0965 129.838 55.8538 130.193 55.3685C130.548 54.8832 130.726 54.2548 130.726 53.4835C130.726 52.6905 130.546 52.06 130.186 51.592C129.827 51.1197 129.287 50.8835 128.568 50.8835C128.078 50.8835 127.675 50.994 127.359 51.215C127.043 51.436 126.806 51.7415 126.65 52.1315C126.494 52.5215 126.416 52.9722 126.416 53.4835C126.416 54.2722 126.598 54.9048 126.962 55.3815C127.326 55.8582 127.862 56.0965 128.568 56.0965ZM133.386 57V49.98H134.419V51.6765L134.25 51.4555C134.332 51.2388 134.439 51.0395 134.569 50.8575C134.703 50.6755 134.852 50.526 135.017 50.409C135.199 50.2617 135.405 50.149 135.635 50.071C135.864 49.993 136.098 49.9475 136.337 49.9345C136.575 49.9172 136.798 49.9323 137.006 49.98V51.0655C136.763 51.0005 136.497 50.9832 136.207 51.0135C135.916 51.0438 135.648 51.15 135.401 51.332C135.175 51.4923 135 51.6873 134.874 51.917C134.753 52.1467 134.668 52.3958 134.621 52.6645C134.573 52.9288 134.549 53.1997 134.549 53.477V57H133.386ZM142.155 57C141.739 57.0823 141.327 57.1148 140.92 57.0975C140.517 57.0845 140.157 57.0043 139.841 56.857C139.524 56.7053 139.284 56.4713 139.119 56.155C138.981 55.8777 138.905 55.5982 138.892 55.3165C138.883 55.0305 138.879 54.7077 138.879 54.348V48.03H140.036V54.296C140.036 54.582 140.038 54.8268 140.042 55.0305C140.051 55.2342 140.096 55.4097 140.179 55.557C140.335 55.8343 140.582 55.9968 140.92 56.0445C141.262 56.0922 141.674 56.0792 142.155 56.0055V57ZM137.455 50.9355V49.98H142.155V50.9355H137.455ZM146.232 57.1885C145.396 57.1885 144.709 57.0065 144.171 56.6425C143.638 56.2742 143.311 55.7607 143.19 55.102L144.373 54.9135C144.468 55.2948 144.687 55.5982 145.029 55.8235C145.372 56.0445 145.796 56.155 146.303 56.155C146.784 56.155 147.161 56.0553 147.434 55.856C147.707 55.6567 147.844 55.3858 147.844 55.0435C147.844 54.8442 147.798 54.6838 147.707 54.5625C147.616 54.4368 147.428 54.3198 147.142 54.2115C146.86 54.1032 146.433 53.9732 145.861 53.8215C145.242 53.6568 144.754 53.4857 144.399 53.308C144.044 53.1303 143.79 52.9245 143.638 52.6905C143.487 52.4565 143.411 52.1727 143.411 51.839C143.411 51.4273 143.524 51.0677 143.749 50.76C143.974 50.448 144.288 50.2075 144.691 50.0385C145.099 49.8695 145.571 49.785 146.108 49.785C146.641 49.785 147.118 49.8695 147.538 50.0385C147.959 50.2075 148.297 50.448 148.552 50.76C148.812 51.0677 148.966 51.4273 149.014 51.839L147.831 52.0535C147.775 51.6765 147.593 51.3797 147.285 51.163C146.982 50.9463 146.589 50.8315 146.108 50.8185C145.653 50.8012 145.283 50.8813 144.997 51.059C144.715 51.2367 144.574 51.4772 144.574 51.7805C144.574 51.9495 144.626 52.0947 144.73 52.216C144.839 52.3373 145.036 52.4522 145.322 52.5605C145.612 52.6688 146.033 52.7923 146.583 52.931C147.203 53.087 147.69 53.2582 148.045 53.4445C148.405 53.6265 148.661 53.8432 148.812 54.0945C148.964 54.3415 149.04 54.647 149.04 55.011C149.04 55.687 148.791 56.22 148.292 56.61C147.794 56.9957 147.107 57.1885 146.232 57.1885ZM156.996 57C156.58 57.0823 156.168 57.1148 155.761 57.0975C155.358 57.0845 154.998 57.0043 154.682 56.857C154.365 56.7053 154.125 56.4713 153.96 56.155C153.821 55.8777 153.746 55.5982 153.733 55.3165C153.724 55.0305 153.72 54.7077 153.72 54.348V48.03H154.877V54.296C154.877 54.582 154.879 54.8268 154.883 55.0305C154.892 55.2342 154.937 55.4097 155.02 55.557C155.176 55.8343 155.423 55.9968 155.761 56.0445C156.103 56.0922 156.515 56.0792 156.996 56.0055V57ZM152.296 50.9355V49.98H156.996V50.9355H152.296ZM161.119 57.195C160.421 57.195 159.819 57.0368 159.312 56.7205C158.809 56.4042 158.421 55.9665 158.148 55.4075C157.875 54.8485 157.739 54.2072 157.739 53.4835C157.739 52.7468 157.877 52.1012 158.155 51.5465C158.432 50.9918 158.824 50.5607 159.331 50.253C159.838 49.941 160.434 49.785 161.119 49.785C161.821 49.785 162.425 49.9432 162.932 50.2595C163.439 50.5715 163.827 51.007 164.096 51.566C164.369 52.1207 164.505 52.7598 164.505 53.4835C164.505 54.2158 164.369 54.8615 164.096 55.4205C163.823 55.9752 163.433 56.4107 162.926 56.727C162.419 57.039 161.816 57.195 161.119 57.195ZM161.119 56.0965C161.847 56.0965 162.388 55.8538 162.744 55.3685C163.099 54.8832 163.277 54.2548 163.277 53.4835C163.277 52.6905 163.097 52.06 162.737 51.592C162.378 51.1197 161.838 50.8835 161.119 50.8835C160.629 50.8835 160.226 50.994 159.91 51.215C159.593 51.436 159.357 51.7415 159.201 52.1315C159.045 52.5215 158.967 52.9722 158.967 53.4835C158.967 54.2722 159.149 54.9048 159.513 55.3815C159.877 55.8582 160.412 56.0965 161.119 56.0965ZM171.581 57.195C170.892 57.195 170.29 57.0433 169.774 56.74C169.263 56.4323 168.864 56.0055 168.578 55.4595C168.292 54.9092 168.149 54.2678 168.149 53.5355C168.149 52.7685 168.29 52.1055 168.571 51.5465C168.853 50.9832 169.245 50.5498 169.748 50.2465C170.255 49.9388 170.849 49.785 171.529 49.785C172.235 49.785 172.835 49.9475 173.329 50.2725C173.828 50.5975 174.2 51.0612 174.447 51.6635C174.699 52.2658 174.807 52.983 174.772 53.815H173.602V53.399C173.589 52.5367 173.414 51.8932 173.076 51.4685C172.738 51.0395 172.235 50.825 171.568 50.825C170.853 50.825 170.309 51.0547 169.936 51.514C169.564 51.9733 169.377 52.632 169.377 53.49C169.377 54.3177 169.564 54.959 169.936 55.414C170.309 55.869 170.84 56.0965 171.529 56.0965C171.993 56.0965 172.396 55.9903 172.738 55.778C173.08 55.5657 173.349 55.2602 173.544 54.8615L174.655 55.245C174.382 55.8647 173.971 56.3457 173.42 56.688C172.874 57.026 172.261 57.195 171.581 57.195ZM168.987 53.815V52.8855H174.174V53.815H168.987ZM178.088 57.195C177.564 57.195 177.124 57.0997 176.769 56.909C176.418 56.714 176.151 56.4583 175.969 56.142C175.791 55.8257 175.703 55.479 175.703 55.102C175.703 54.7337 175.772 54.4152 175.911 54.1465C176.054 53.8735 176.253 53.6482 176.509 53.4705C176.764 53.2885 177.07 53.1455 177.425 53.0415C177.759 52.9505 178.131 52.8725 178.543 52.8075C178.959 52.7382 179.379 52.6753 179.804 52.619C180.229 52.5627 180.625 52.5085 180.994 52.4565L180.578 52.697C180.591 52.073 180.465 51.6115 180.201 51.3125C179.941 51.0135 179.49 50.864 178.849 50.864C178.424 50.864 178.051 50.9615 177.731 51.1565C177.414 51.3472 177.191 51.6592 177.061 52.0925L175.963 51.761C176.132 51.1457 176.459 50.6625 176.944 50.3115C177.429 49.9605 178.069 49.785 178.862 49.785C179.499 49.785 180.045 49.8998 180.5 50.1295C180.959 50.3548 181.288 50.6972 181.488 51.1565C181.587 51.3732 181.65 51.6093 181.676 51.865C181.702 52.1163 181.715 52.3807 181.715 52.658V57H180.688V55.3165L180.929 55.4725C180.664 56.0402 180.294 56.4692 179.817 56.7595C179.345 57.0498 178.768 57.195 178.088 57.195ZM178.264 56.2265C178.68 56.2265 179.039 56.1528 179.343 56.0055C179.65 55.8538 179.897 55.6567 180.084 55.414C180.27 55.167 180.391 54.8983 180.448 54.608C180.513 54.3913 180.547 54.1508 180.552 53.8865C180.56 53.6178 180.565 53.412 180.565 53.269L180.968 53.4445C180.591 53.4965 180.22 53.5463 179.856 53.594C179.492 53.6417 179.148 53.6937 178.823 53.75C178.498 53.802 178.205 53.8648 177.945 53.9385C177.754 53.9992 177.575 54.0772 177.406 54.1725C177.241 54.2678 177.107 54.3913 177.003 54.543C176.903 54.6903 176.853 54.8745 176.853 55.0955C176.853 55.2862 176.901 55.4682 176.996 55.6415C177.096 55.8148 177.247 55.9557 177.451 56.064C177.659 56.1723 177.93 56.2265 178.264 56.2265ZM183.405 57V49.98H184.439V51.6765L184.27 51.4555C184.352 51.2388 184.458 51.0395 184.588 50.8575C184.722 50.6755 184.872 50.526 185.037 50.409C185.219 50.2617 185.424 50.149 185.654 50.071C185.884 49.993 186.118 49.9475 186.356 49.9345C186.594 49.9172 186.818 49.9323 187.026 49.98V51.0655C186.783 51.0005 186.516 50.9832 186.226 51.0135C185.936 51.0438 185.667 51.15 185.42 51.332C185.195 51.4923 185.019 51.6873 184.894 51.917C184.772 52.1467 184.688 52.3958 184.64 52.6645C184.592 52.9288 184.569 53.1997 184.569 53.477V57H183.405ZM193.253 57V53.4835C193.253 53.1498 193.223 52.8292 193.162 52.5215C193.106 52.2138 193.004 51.9387 192.857 51.696C192.714 51.449 192.519 51.254 192.272 51.111C192.029 50.968 191.721 50.8965 191.349 50.8965C191.058 50.8965 190.794 50.9463 190.556 51.046C190.322 51.1413 190.12 51.2887 189.951 51.488C189.782 51.6873 189.65 51.9387 189.555 52.242C189.464 52.541 189.418 52.8942 189.418 53.3015L188.658 53.0675C188.658 52.3872 188.779 51.8043 189.022 51.319C189.269 50.8293 189.613 50.4545 190.055 50.1945C190.502 49.9302 191.026 49.798 191.628 49.798C192.083 49.798 192.471 49.8695 192.792 50.0125C193.112 50.1555 193.379 50.3462 193.591 50.5845C193.804 50.8185 193.97 51.0828 194.092 51.3775C194.213 51.6678 194.298 51.9647 194.345 52.268C194.397 52.567 194.423 52.8508 194.423 53.1195V57H193.253ZM188.248 57V49.98H189.288V51.8585H189.418V57H188.248ZM198.716 57V49.98H199.749V51.6765L199.58 51.4555C199.662 51.2388 199.769 51.0395 199.899 50.8575C200.033 50.6755 200.182 50.526 200.347 50.409C200.529 50.2617 200.735 50.149 200.965 50.071C201.194 49.993 201.428 49.9475 201.667 49.9345C201.905 49.9172 202.128 49.9323 202.336 49.98V51.0655C202.093 51.0005 201.827 50.9832 201.537 51.0135C201.246 51.0438 200.978 51.15 200.731 51.332C200.505 51.4923 200.33 51.6873 200.204 51.917C200.083 52.1467 199.998 52.3958 199.951 52.6645C199.903 52.9288 199.879 53.1997 199.879 53.477V57H198.716ZM206.48 57.195C205.791 57.195 205.189 57.0433 204.673 56.74C204.162 56.4323 203.763 56.0055 203.477 55.4595C203.191 54.9092 203.048 54.2678 203.048 53.5355C203.048 52.7685 203.189 52.1055 203.471 51.5465C203.752 50.9832 204.145 50.5498 204.647 50.2465C205.154 49.9388 205.748 49.785 206.428 49.785C207.135 49.785 207.735 49.9475 208.229 50.2725C208.727 50.5975 209.1 51.0612 209.347 51.6635C209.598 52.2658 209.706 52.983 209.672 53.815H208.502V53.399C208.489 52.5367 208.313 51.8932 207.975 51.4685C207.637 51.0395 207.135 50.825 206.467 50.825C205.752 50.825 205.208 51.0547 204.836 51.514C204.463 51.9733 204.277 52.632 204.277 53.49C204.277 54.3177 204.463 54.959 204.836 55.414C205.208 55.869 205.739 56.0965 206.428 56.0965C206.892 56.0965 207.295 55.9903 207.637 55.778C207.98 55.5657 208.248 55.2602 208.443 54.8615L209.555 55.245C209.282 55.8647 208.87 56.3457 208.32 56.688C207.774 57.026 207.161 57.195 206.48 57.195ZM203.887 53.815V52.8855H209.074V53.815H203.887ZM212.36 57L210.215 49.9735L211.366 49.98L212.932 55.115L214.512 49.98H215.532L217.105 55.115L218.678 49.98H219.822L217.677 57H216.715L215.019 51.6635L213.322 57H212.36ZM222.598 57.195C222.074 57.195 221.634 57.0997 221.278 56.909C220.927 56.714 220.661 56.4583 220.479 56.142C220.301 55.8257 220.212 55.479 220.212 55.102C220.212 54.7337 220.282 54.4152 220.42 54.1465C220.563 53.8735 220.763 53.6482 221.018 53.4705C221.274 53.2885 221.58 53.1455 221.935 53.0415C222.269 52.9505 222.641 52.8725 223.053 52.8075C223.469 52.7382 223.889 52.6753 224.314 52.619C224.739 52.5627 225.135 52.5085 225.503 52.4565L225.087 52.697C225.1 52.073 224.975 51.6115 224.71 51.3125C224.45 51.0135 224 50.864 223.358 50.864C222.934 50.864 222.561 50.9615 222.24 51.1565C221.924 51.3472 221.701 51.6592 221.571 52.0925L220.472 51.761C220.641 51.1457 220.969 50.6625 221.454 50.3115C221.939 49.9605 222.578 49.785 223.371 49.785C224.008 49.785 224.554 49.8998 225.009 50.1295C225.469 50.3548 225.798 50.6972 225.997 51.1565C226.097 51.3732 226.16 51.6093 226.186 51.865C226.212 52.1163 226.225 52.3807 226.225 52.658V57H225.198V55.3165L225.438 55.4725C225.174 56.0402 224.804 56.4692 224.327 56.7595C223.855 57.0498 223.278 57.195 222.598 57.195ZM222.773 56.2265C223.189 56.2265 223.549 56.1528 223.852 56.0055C224.16 55.8538 224.407 55.6567 224.593 55.414C224.78 55.167 224.901 54.8983 224.957 54.608C225.022 54.3913 225.057 54.1508 225.061 53.8865C225.07 53.6178 225.074 53.412 225.074 53.269L225.477 53.4445C225.1 53.4965 224.73 53.5463 224.366 53.594C224.002 53.6417 223.657 53.6937 223.332 53.75C223.007 53.802 222.715 53.8648 222.455 53.9385C222.264 53.9992 222.084 54.0772 221.915 54.1725C221.751 54.2678 221.616 54.3913 221.512 54.543C221.413 54.6903 221.363 54.8745 221.363 55.0955C221.363 55.2862 221.411 55.4682 221.506 55.6415C221.606 55.8148 221.757 55.9557 221.961 56.064C222.169 56.1723 222.44 56.2265 222.773 56.2265ZM227.915 57V49.98H228.948V51.6765L228.779 51.4555C228.862 51.2388 228.968 51.0395 229.098 50.8575C229.232 50.6755 229.382 50.526 229.546 50.409C229.728 50.2617 229.934 50.149 230.164 50.071C230.394 49.993 230.628 49.9475 230.866 49.9345C231.104 49.9172 231.327 49.9323 231.535 49.98V51.0655C231.293 51.0005 231.026 50.9832 230.736 51.0135C230.446 51.0438 230.177 51.15 229.93 51.332C229.705 51.4923 229.529 51.6873 229.403 51.917C229.282 52.1467 229.198 52.3958 229.15 52.6645C229.102 52.9288 229.078 53.1997 229.078 53.477V57H227.915ZM235.394 57.195C234.739 57.195 234.178 57.0325 233.71 56.7075C233.242 56.3782 232.88 55.934 232.625 55.375C232.373 54.816 232.248 54.1855 232.248 53.4835C232.248 52.7815 232.373 52.151 232.625 51.592C232.88 51.033 233.242 50.5932 233.71 50.2725C234.178 49.9475 234.737 49.785 235.387 49.785C236.05 49.785 236.607 49.9453 237.058 50.266C237.508 50.5867 237.848 51.0265 238.078 51.5855C238.312 52.1445 238.429 52.7772 238.429 53.4835C238.429 54.1812 238.312 54.8117 238.078 55.375C237.848 55.934 237.508 56.3782 237.058 56.7075C236.607 57.0325 236.052 57.195 235.394 57.195ZM235.537 56.1355C236.009 56.1355 236.397 56.0228 236.7 55.7975C237.003 55.5678 237.227 55.2537 237.37 54.855C237.517 54.452 237.591 53.9948 237.591 53.4835C237.591 52.9635 237.517 52.5063 237.37 52.112C237.227 51.7133 237.006 51.4035 236.707 51.1825C236.408 50.9572 236.028 50.8445 235.569 50.8445C235.092 50.8445 234.698 50.9615 234.386 51.1955C234.078 51.4295 233.849 51.7458 233.697 52.1445C233.55 52.5432 233.476 52.9895 233.476 53.4835C233.476 53.9818 233.552 54.4325 233.704 54.8355C233.855 55.2342 234.083 55.5505 234.386 55.7845C234.694 56.0185 235.077 56.1355 235.537 56.1355ZM237.591 57V51.8325H237.461V47.64H238.624V57H237.591ZM243.097 57.1885C242.261 57.1885 241.574 57.0065 241.037 56.6425C240.504 56.2742 240.176 55.7607 240.055 55.102L241.238 54.9135C241.333 55.2948 241.552 55.5982 241.895 55.8235C242.237 56.0445 242.662 56.155 243.169 56.155C243.65 56.155 244.027 56.0553 244.3 55.856C244.573 55.6567 244.709 55.3858 244.709 55.0435C244.709 54.8442 244.664 54.6838 244.573 54.5625C244.482 54.4368 244.293 54.3198 244.007 54.2115C243.725 54.1032 243.299 53.9732 242.727 53.8215C242.107 53.6568 241.619 53.4857 241.264 53.308C240.909 53.1303 240.655 52.9245 240.504 52.6905C240.352 52.4565 240.276 52.1727 240.276 51.839C240.276 51.4273 240.389 51.0677 240.614 50.76C240.839 50.448 241.154 50.2075 241.557 50.0385C241.964 49.8695 242.436 49.785 242.974 49.785C243.507 49.785 243.983 49.8695 244.404 50.0385C244.824 50.2075 245.162 50.448 245.418 50.76C245.678 51.0677 245.831 51.4273 245.879 51.839L244.696 52.0535C244.64 51.6765 244.458 51.3797 244.15 51.163C243.847 50.9463 243.455 50.8315 242.974 50.8185C242.519 50.8012 242.148 50.8813 241.862 51.059C241.58 51.2367 241.44 51.4772 241.44 51.7805C241.44 51.9495 241.492 52.0947 241.596 52.216C241.704 52.3373 241.901 52.4522 242.187 52.5605C242.477 52.6688 242.898 52.7923 243.448 52.931C244.068 53.087 244.555 53.2582 244.911 53.4445C245.27 53.6265 245.526 53.8432 245.678 54.0945C245.829 54.3415 245.905 54.647 245.905 55.011C245.905 55.687 245.656 56.22 245.158 56.61C244.659 56.9957 243.972 57.1885 243.097 57.1885ZM253.861 57C253.445 57.0823 253.033 57.1148 252.626 57.0975C252.223 57.0845 251.863 57.0043 251.547 56.857C251.23 56.7053 250.99 56.4713 250.825 56.155C250.687 55.8777 250.611 55.5982 250.598 55.3165C250.589 55.0305 250.585 54.7077 250.585 54.348V48.03H251.742V54.296C251.742 54.582 251.744 54.8268 251.748 55.0305C251.757 55.2342 251.802 55.4097 251.885 55.557C252.041 55.8343 252.288 55.9968 252.626 56.0445C252.968 56.0922 253.38 56.0792 253.861 56.0055V57ZM249.161 50.9355V49.98H253.861V50.9355H249.161ZM257.984 57.195C257.286 57.195 256.684 57.0368 256.177 56.7205C255.674 56.4042 255.286 55.9665 255.013 55.4075C254.74 54.8485 254.604 54.2072 254.604 53.4835C254.604 52.7468 254.743 52.1012 255.02 51.5465C255.297 50.9918 255.689 50.5607 256.196 50.253C256.703 49.941 257.299 49.785 257.984 49.785C258.686 49.785 259.29 49.9432 259.797 50.2595C260.304 50.5715 260.692 51.007 260.961 51.566C261.234 52.1207 261.37 52.7598 261.37 53.4835C261.37 54.2158 261.234 54.8615 260.961 55.4205C260.688 55.9752 260.298 56.4107 259.791 56.727C259.284 57.039 258.682 57.195 257.984 57.195ZM257.984 56.0965C258.712 56.0965 259.254 55.8538 259.609 55.3685C259.964 54.8832 260.142 54.2548 260.142 53.4835C260.142 52.6905 259.962 52.06 259.602 51.592C259.243 51.1197 258.703 50.8835 257.984 50.8835C257.494 50.8835 257.091 50.994 256.775 51.215C256.459 51.436 256.222 51.7415 256.066 52.1315C255.91 52.5215 255.832 52.9722 255.832 53.4835C255.832 54.2722 256.014 54.9048 256.378 55.3815C256.742 55.8582 257.278 56.0965 257.984 56.0965ZM265.558 57.195C264.903 57.195 264.342 57.0325 263.874 56.7075C263.406 56.3782 263.044 55.934 262.789 55.375C262.537 54.816 262.412 54.1855 262.412 53.4835C262.412 52.7815 262.537 52.151 262.789 51.592C263.044 51.033 263.406 50.5932 263.874 50.2725C264.342 49.9475 264.901 49.785 265.551 49.785C266.214 49.785 266.771 49.9453 267.222 50.266C267.672 50.5867 268.012 51.0265 268.242 51.5855C268.476 52.1445 268.593 52.7772 268.593 53.4835C268.593 54.1812 268.476 54.8117 268.242 55.375C268.012 55.934 267.672 56.3782 267.222 56.7075C266.771 57.0325 266.216 57.195 265.558 57.195ZM265.701 56.1355C266.173 56.1355 266.561 56.0228 266.864 55.7975C267.167 55.5678 267.391 55.2537 267.534 54.855C267.681 54.452 267.755 53.9948 267.755 53.4835C267.755 52.9635 267.681 52.5063 267.534 52.112C267.391 51.7133 267.17 51.4035 266.871 51.1825C266.572 50.9572 266.192 50.8445 265.733 50.8445C265.256 50.8445 264.862 50.9615 264.55 51.1955C264.242 51.4295 264.013 51.7458 263.861 52.1445C263.714 52.5432 263.64 52.9895 263.64 53.4835C263.64 53.9818 263.716 54.4325 263.868 54.8355C264.019 55.2342 264.247 55.5505 264.55 55.7845C264.858 56.0185 265.241 56.1355 265.701 56.1355ZM267.755 57V51.8325H267.625V47.64H268.788V57H267.755ZM272.605 57.195C272.08 57.195 271.641 57.0997 271.285 56.909C270.934 56.714 270.668 56.4583 270.486 56.142C270.308 55.8257 270.219 55.479 270.219 55.102C270.219 54.7337 270.289 54.4152 270.427 54.1465C270.57 53.8735 270.77 53.6482 271.025 53.4705C271.281 53.2885 271.586 53.1455 271.942 53.0415C272.275 52.9505 272.648 52.8725 273.06 52.8075C273.476 52.7382 273.896 52.6753 274.321 52.619C274.745 52.5627 275.142 52.5085 275.51 52.4565L275.094 52.697C275.107 52.073 274.982 51.6115 274.717 51.3125C274.457 51.0135 274.007 50.864 273.365 50.864C272.941 50.864 272.568 50.9615 272.247 51.1565C271.931 51.3472 271.708 51.6592 271.578 52.0925L270.479 51.761C270.648 51.1457 270.975 50.6625 271.461 50.3115C271.946 49.9605 272.585 49.785 273.378 49.785C274.015 49.785 274.561 49.8998 275.016 50.1295C275.476 50.3548 275.805 50.6972 276.004 51.1565C276.104 51.3732 276.167 51.6093 276.193 51.865C276.219 52.1163 276.232 52.3807 276.232 52.658V57H275.205V55.3165L275.445 55.4725C275.181 56.0402 274.81 56.4692 274.334 56.7595C273.861 57.0498 273.285 57.195 272.605 57.195ZM272.78 56.2265C273.196 56.2265 273.556 56.1528 273.859 56.0055C274.167 55.8538 274.414 55.6567 274.6 55.414C274.787 55.167 274.908 54.8983 274.964 54.608C275.029 54.3913 275.064 54.1508 275.068 53.8865C275.077 53.6178 275.081 53.412 275.081 53.269L275.484 53.4445C275.107 53.4965 274.737 53.5463 274.373 53.594C274.009 53.6417 273.664 53.6937 273.339 53.75C273.014 53.802 272.722 53.8648 272.462 53.9385C272.271 53.9992 272.091 54.0772 271.922 54.1725C271.758 54.2678 271.623 54.3913 271.519 54.543C271.42 54.6903 271.37 54.8745 271.37 55.0955C271.37 55.2862 271.417 55.4682 271.513 55.6415C271.612 55.8148 271.764 55.9557 271.968 56.064C272.176 56.1723 272.447 56.2265 272.78 56.2265ZM278.503 60.12L279.862 56.428L279.881 57.52L276.813 49.98H278.029L280.434 56.0445H280.018L282.273 49.98H283.45L279.628 60.12H278.503Z" fill="white"/>
</svg>
