<svg width="40" height="40" viewBox="0 0 40 40" fill="none" xmlns="http://www.w3.org/2000/svg">
<path fill-rule="evenodd" clip-rule="evenodd" d="M21.7567 7.75C16.8982 7.75 12.769 10.7913 11.2178 15.0331L9.80905 14.5179C11.5738 9.69215 16.2606 6.25 21.7567 6.25C28.7572 6.25 34.4526 11.839 34.4526 18.7583C34.4526 24.6621 30.3048 29.5981 24.7407 30.9189L24.3943 29.4595C29.3127 28.2919 32.9526 23.9363 32.9526 18.7583C32.9526 12.6897 27.9513 7.75 21.7567 7.75Z" fill="#2C2C3A"/>
<path fill-rule="evenodd" clip-rule="evenodd" d="M4.25 16.25H19.28C21.3511 16.25 23.03 17.9289 23.03 20V30.5242H19.574V35C19.574 35.3119 19.3809 35.5913 19.0891 35.7016C18.7973 35.8118 18.4678 35.73 18.2615 35.496L13.8774 30.5242H4.25V16.25ZM5.75 17.75V29.0242H14.5546L18.074 33.0155V29.0242H21.53V20C21.53 18.7574 20.5226 17.75 19.28 17.75H5.75Z" fill="#2C2C3A"/>
<path fill-rule="evenodd" clip-rule="evenodd" d="M25.3536 17.3536L22.0297 20.6774L19.6788 18.7067L20.3212 17.9403L21.9703 19.3226L24.6464 16.6464L25.3536 17.3536Z" fill="white"/>
<circle cx="22.5" cy="18.5" r="4.5" fill="#A30800"/>
<path fill-rule="evenodd" clip-rule="evenodd" d="M25.3535 17.3536L22.0297 20.6774L19.6787 18.7068L20.3211 17.9404L21.9702 19.3227L24.6464 16.6465L25.3535 17.3536Z" fill="white"/>
</svg>
