<svg  viewBox="0 0 32 32" fill="none" xmlns="http://www.w3.org/2000/svg">
<path fill-rule="evenodd" clip-rule="evenodd" d="M25.5764 8.80005H11.5438V11.0756H8.05836L3.20001 16.7436V22.0741H5.46026C5.84195 23.0721 6.8086 23.7808 7.94077 23.7808C9.07294 23.7808 10.0396 23.0721 10.4213 22.0741H11.5438V22.0741H16.838C17.2197 23.0721 18.1863 23.7808 19.3185 23.7808C20.4507 23.7808 21.4173 23.0721 21.799 22.0741H25.5763V16.7645H26.5244V15.6268H21.9733V16.7645H24.4385V20.9364H21.9667C21.8694 19.5586 20.721 18.4711 19.3185 18.4711C17.916 18.4711 16.7676 19.5586 16.6704 20.9363H12.6816V9.93783H24.4386V11.0756H19.6978V12.2133H28.8V11.0756H25.5764V8.80005ZM7.94077 18.4711C6.53832 18.4711 5.38987 19.5586 5.29262 20.9363H4.33779V17.1645L8.58166 12.2133H11.5437V20.9363H10.5889C10.4917 19.5586 9.34321 18.4711 7.94077 18.4711ZM28.0415 14.489H20.4563V13.3512H28.0415V14.489ZM7.94077 22.643C8.7786 22.643 9.45781 21.9638 9.45781 21.126C9.45781 20.2881 8.7786 19.6089 7.94077 19.6089C7.10293 19.6089 6.42373 20.2881 6.42373 21.126C6.42373 21.9638 7.10293 22.643 7.94077 22.643ZM20.8355 21.126C20.8355 21.9638 20.1563 22.643 19.3185 22.643C18.4807 22.643 17.8015 21.9638 17.8015 21.126C17.8015 20.2881 18.4807 19.6089 19.3185 19.6089C20.1563 19.6089 20.8355 20.2881 20.8355 21.126Z" fill="#09090C"/>
</svg>
