<svg viewBox="0 0 32 32" fill="none" xmlns="http://www.w3.org/2000/svg">
<g clip-path="url(#clip0_118_4754)">
<path fill-rule="evenodd" clip-rule="evenodd" d="M16 8.7998L23.2 12.3548V19.6448L16 23.1998L8.79999 19.6448V12.3548L12.7898 10.3848C12.7948 10.3823 12.7998 10.3798 12.8048 10.3774L16 8.7998ZM13.1428 11.914L11.2964 12.8257L16 15.1481L17.8464 14.2364L13.1428 11.914ZM19.5714 13.3847L14.8678 11.0622L16 10.5032L20.7036 12.8257L19.5714 13.3847ZM18.8 15.469V16.7052C18.8 17.1259 19.1454 17.467 19.5714 17.467C19.9975 17.467 20.3428 17.1259 20.3428 16.7052V14.7072L21.6571 14.0583V18.7031L16.7714 21.1155V16.4706L18.8 15.469ZM15.2286 16.4706L10.3428 14.0583V18.7031L15.2286 21.1155V16.4706Z" fill="#09090C"/>
<path fill-rule="evenodd" clip-rule="evenodd" d="M15.9999 4.42173C9.60548 4.42173 4.42182 9.60539 4.42182 15.9998H2.98398C2.98398 8.8113 8.81139 2.98389 15.9999 2.98389V4.42173Z" fill="#09090C"/>
<path fill-rule="evenodd" clip-rule="evenodd" d="M15.6117 3.65417L13.0146 1.7481L13.8654 0.588946L17.4904 3.24944L15.2075 7.29949L13.9549 6.59346L15.6117 3.65417Z" fill="#09090C"/>
<path fill-rule="evenodd" clip-rule="evenodd" d="M16.0001 27.578C22.3945 27.578 27.5782 22.3944 27.5782 15.9999L29.016 15.9999C29.016 23.1885 23.1886 29.0159 16.0001 29.0159L16.0001 27.578Z" fill="#09090C"/>
<path fill-rule="evenodd" clip-rule="evenodd" d="M16.3885 28.3456L18.9856 30.2517L18.1349 31.4108L14.5099 28.7503L16.7928 24.7003L18.0453 25.4063L16.3885 28.3456Z" fill="#09090C"/>
</g>
<defs>
<clipPath id="clip0_118_4754">
<rect fill="white"/>
</clipPath>
</defs>
</svg>
