<svg viewBox="0 0 32 32" fill="none" xmlns="http://www.w3.org/2000/svg">
<path fill-rule="evenodd" clip-rule="evenodd" d="M4.7998 10.1151H14.184V11.3255H6.01022V14.1599H14.184V15.3703H4.7998V10.1151Z" />
<path fill-rule="evenodd" clip-rule="evenodd" d="M8.21517 6.97178C9.02935 6.08088 10.2938 5.79776 11.4111 6.18068L11.4112 6.18071C12.7297 6.63271 14.1487 7.58966 14.8408 8.08821L14.1334 9.07037C13.4486 8.57712 12.1542 7.71503 11.0187 7.32573M8.21503 6.97194C7.84778 7.37362 7.55 7.92283 7.51432 8.63511C7.47907 9.33871 7.70282 10.1352 8.25109 11.0352L9.28479 10.4055C8.82222 9.64616 8.70351 9.08909 8.72322 8.69567C8.74249 8.31103 8.89699 8.01985 9.10845 7.78859L9.10859 7.78843C9.58046 7.27202 10.3324 7.09056 11.0187 7.32571" />
<path fill-rule="evenodd" clip-rule="evenodd" d="M27.1997 10.1151H17.8155V11.3255H25.9893V14.1599H17.8155V15.3703H27.1997V10.1151Z" />
<path fill-rule="evenodd" clip-rule="evenodd" d="M23.7848 6.97178C22.9707 6.08088 21.7062 5.79776 20.5889 6.18068L20.5888 6.18071C19.2703 6.63271 17.8513 7.58966 17.1592 8.08821L17.8666 9.07037C18.5514 8.57712 19.8458 7.71503 20.9813 7.32573M23.785 6.97194C24.1522 7.37362 24.45 7.92283 24.4857 8.63511C24.5209 9.33871 24.2972 10.1352 23.7489 11.0352L22.7152 10.4055C23.1778 9.64616 23.2965 9.08909 23.2768 8.69567C23.2575 8.31103 23.103 8.01985 22.8916 7.78859L22.8914 7.78843C22.4195 7.27202 21.6676 7.09056 20.9813 7.32571" />
<path fill-rule="evenodd" clip-rule="evenodd" d="M7.45749 24.1369V14.7651H6.24707V25.3473L14.2134 25.3473V24.1369L7.45749 24.1369Z" />
<path fill-rule="evenodd" clip-rule="evenodd" d="M24.8867 24.1369V14.7651H26.0972V25.3473L18.1308 25.3473V24.1369L24.8867 24.1369Z" />
<path fill-rule="evenodd" clip-rule="evenodd" d="M17.0049 9.08255H14.8642V24.7755H17.0049V9.08255ZM13.6538 7.87213V25.9859H18.2153V7.87213H13.6538Z" />
</svg>
