<svg width="40" height="40" viewBox="0 0 40 40" fill="none" xmlns="http://www.w3.org/2000/svg">
<path d="M21.6126 20.3653C21.8545 18.9575 22.5154 18.1764 23.1874 17.3826C23.9593 16.4703 24.7486 15.5374 24.7486 13.355C24.7486 12.0988 24.2403 10.9629 23.4196 10.1427C22.5968 9.31991 21.4609 8.81171 20.2053 8.81171C18.9492 8.81171 17.8133 9.32002 16.9925 10.1407C16.1696 10.9635 15.6615 12.0994 15.6615 13.355C15.6615 15.5378 16.4506 16.4707 17.2227 17.3826C17.8946 18.1766 18.5555 18.9576 18.7974 20.3653H17.878C17.6438 19.2675 17.0959 18.6201 16.539 17.9622C15.661 16.9255 14.7631 15.8644 14.7631 13.3548C14.7631 11.8543 15.3727 10.4936 16.3575 9.50805L16.3601 9.50538C17.3456 8.52058 18.7064 7.91182 20.2061 7.91182C21.7066 7.91182 23.0673 8.52138 24.0529 9.50619L24.0555 9.50885C25.0403 10.4943 25.6491 11.8543 25.6491 13.3548C25.6491 15.8632 24.7523 16.9237 23.8752 17.9607L23.8739 17.9623C23.3172 18.6201 22.7692 19.2677 22.535 20.3653H21.6126Z" fill="#2C2C3A"/>
<path d="M20.4372 10.9541C20.2246 10.8273 19.9493 10.8961 19.8223 11.1087L18.5008 13.3065C18.374 13.5192 18.4427 13.7944 18.6554 13.9214C18.7277 13.9639 18.8073 13.9848 18.8856 13.9862H20.6094L19.296 15.6777C19.1435 15.8741 19.1792 16.1562 19.3749 16.3088C19.5713 16.4613 19.8534 16.4256 20.006 16.2298L21.8736 13.8255C21.9392 13.7472 21.9782 13.6466 21.9782 13.5366C21.9782 13.2875 21.7764 13.0863 21.528 13.0863H19.6792L20.5918 11.569C20.7186 11.3564 20.6499 11.0811 20.4372 10.9541Z" fill="#2C2C3A"/>
<path d="M13.9757 10.2147C14.0998 10.0001 14.027 9.72531 13.8123 9.60117L13.1921 9.24272C12.9775 9.11859 12.7027 9.1914 12.5786 9.4061C12.4545 9.62065 12.5273 9.89545 12.742 10.0196L13.3622 10.378C13.5768 10.5022 13.8516 10.4294 13.9757 10.2147Z" fill="#2C2C3A"/>
<path d="M16.6107 7.57965C16.8254 7.45551 16.8982 7.18085 16.7741 6.96616L16.4157 6.34515C16.2915 6.13046 16.0169 6.05764 15.8022 6.18178C15.5875 6.30592 15.5147 6.58058 15.6388 6.79527L15.9972 7.41628C16.1214 7.63097 16.396 7.70379 16.6107 7.57965Z" fill="#2C2C3A"/>
<path d="M26.4398 10.2148C26.5639 10.4295 26.8386 10.5023 27.0533 10.3782L27.6743 10.0197C27.889 9.89559 27.9618 9.62093 27.8377 9.40624C27.7135 9.19155 27.4388 9.11873 27.2242 9.24287L26.6031 9.60132C26.3885 9.72546 26.3156 10.0001 26.4398 10.2148Z" fill="#2C2C3A"/>
<path d="M23.8073 7.57978C24.0214 7.70251 24.296 7.62906 24.4189 7.41437L24.7773 6.79336C24.9001 6.57928 24.8266 6.30464 24.6119 6.18175C24.3979 6.05902 24.1232 6.13247 24.0003 6.34717L23.6419 6.96817C23.5191 7.18225 23.5926 7.4569 23.8073 7.57978Z" fill="#2C2C3A"/>
<path d="M20.2078 6.61726C20.4568 6.61726 20.658 6.41544 20.658 6.16701V5.45026C20.658 5.2012 20.4562 5 20.2078 5C19.9587 5 19.7575 5.20182 19.7575 5.45026V6.16701C19.7575 6.41607 19.9593 6.61726 20.2078 6.61726Z" fill="#2C2C3A"/>
<path d="M21.6126 20.3653C21.8545 18.9575 22.5154 18.1764 23.1874 17.3826C23.9593 16.4703 24.7486 15.5374 24.7486 13.355C24.7486 12.0988 24.2403 10.9629 23.4196 10.1427C22.5968 9.31991 21.4609 8.81171 20.2053 8.81171C18.9492 8.81171 17.8133 9.32002 16.9925 10.1407C16.1696 10.9635 15.6615 12.0994 15.6615 13.355C15.6615 15.5378 16.4506 16.4707 17.2227 17.3826C17.8946 18.1766 18.5555 18.9576 18.7974 20.3653H17.878C17.6438 19.2675 17.0959 18.6201 16.539 17.9622C15.661 16.9255 14.7631 15.8644 14.7631 13.3548C14.7631 11.8543 15.3727 10.4936 16.3575 9.50805L16.3601 9.50538C17.3456 8.52058 18.7064 7.91182 20.2061 7.91182C21.7066 7.91182 23.0673 8.52138 24.0529 9.50619L24.0555 9.50885C25.0403 10.4943 25.6491 11.8543 25.6491 13.3548C25.6491 15.8632 24.7523 16.9237 23.8752 17.9607L23.8739 17.9623C23.3172 18.6201 22.7692 19.2677 22.535 20.3653H21.6126Z" stroke="#2C2C3A" stroke-width="0.2"/>
<path d="M20.4372 10.9541C20.2246 10.8273 19.9493 10.8961 19.8223 11.1087L18.5008 13.3065C18.374 13.5192 18.4427 13.7944 18.6554 13.9214C18.7277 13.9639 18.8073 13.9848 18.8856 13.9862H20.6094L19.296 15.6777C19.1435 15.8741 19.1792 16.1562 19.3749 16.3088C19.5713 16.4613 19.8534 16.4256 20.006 16.2298L21.8736 13.8255C21.9392 13.7472 21.9782 13.6466 21.9782 13.5366C21.9782 13.2875 21.7764 13.0863 21.528 13.0863H19.6792L20.5918 11.569C20.7186 11.3564 20.6499 11.0811 20.4372 10.9541Z" stroke="#2C2C3A" stroke-width="0.2"/>
<path d="M13.9757 10.2147C14.0998 10.0001 14.027 9.72531 13.8123 9.60117L13.1921 9.24272C12.9775 9.11859 12.7027 9.1914 12.5786 9.4061C12.4545 9.62065 12.5273 9.89545 12.742 10.0196L13.3622 10.378C13.5768 10.5022 13.8516 10.4294 13.9757 10.2147Z" stroke="#2C2C3A" stroke-width="0.2"/>
<path d="M16.6107 7.57965C16.8254 7.45551 16.8982 7.18085 16.7741 6.96616L16.4157 6.34515C16.2915 6.13046 16.0169 6.05764 15.8022 6.18178C15.5875 6.30592 15.5147 6.58058 15.6388 6.79527L15.9972 7.41628C16.1214 7.63097 16.396 7.70379 16.6107 7.57965Z" stroke="#2C2C3A" stroke-width="0.2"/>
<path d="M26.4398 10.2148C26.5639 10.4295 26.8386 10.5023 27.0533 10.3782L27.6743 10.0197C27.889 9.89559 27.9618 9.62093 27.8377 9.40624C27.7135 9.19155 27.4388 9.11873 27.2242 9.24287L26.6031 9.60132C26.3885 9.72546 26.3156 10.0001 26.4398 10.2148Z" stroke="#2C2C3A" stroke-width="0.2"/>
<path d="M23.8073 7.57978C24.0214 7.70251 24.296 7.62906 24.4189 7.41437L24.7773 6.79336C24.9001 6.57928 24.8266 6.30464 24.6119 6.18175C24.3979 6.05902 24.1232 6.13247 24.0003 6.34717L23.6419 6.96817C23.5191 7.18225 23.5926 7.4569 23.8073 7.57978Z" stroke="#2C2C3A" stroke-width="0.2"/>
<path d="M20.2078 6.61726C20.4568 6.61726 20.658 6.41544 20.658 6.16701V5.45026C20.658 5.2012 20.4562 5 20.2078 5C19.9587 5 19.7575 5.20182 19.7575 5.45026V6.16701C19.7575 6.41607 19.9593 6.61726 20.2078 6.61726Z" stroke="#2C2C3A" stroke-width="0.2"/>
<path fill-rule="evenodd" clip-rule="evenodd" d="M13.8194 15.4016L9.86252 16.5963C9.71952 16.6394 9.5967 16.7324 9.51633 16.8583L6.00588 22.3585C5.9119 22.5058 5.88383 22.6856 5.92848 22.8545C5.97312 23.0234 6.08641 23.1659 6.24089 23.2475L9.49878 24.9677V28.8246C9.49878 29.0598 9.63084 29.2751 9.84051 29.3817L19.1016 34.0905C19.2266 34.1541 19.3692 34.1738 19.5067 34.1464L31.1949 31.8234C31.4874 31.7653 31.698 31.5086 31.698 31.2104V26.2628L33.5864 25.8967C33.7763 25.8599 33.9384 25.7373 34.0255 25.5646C34.1126 25.392 34.1149 25.1888 34.0317 25.0142L31.2871 19.2552C31.2297 19.1347 31.1352 19.0358 31.0175 18.9729L26.2946 16.4487L25.7054 17.5512L29.3274 19.4869L19.4893 21.5045L11.534 17.3974L14.1806 16.5983L13.8194 15.4016ZM20.1231 22.6506L30.5058 20.5213L32.556 24.8232L22.1413 26.8426L20.1231 22.6506ZM10.1977 18.1142L18.3098 22.3024L15.5051 26.7256L7.42467 22.459L10.1977 18.1142ZM30.448 26.5052L21.9062 28.1615C21.6274 28.2155 21.3473 28.0749 21.2241 27.819L19.7273 24.71V32.8281L30.448 30.6974V26.5052ZM18.4773 32.3708V24.3725L16.2516 27.8826C16.077 28.1579 15.7202 28.2528 15.4319 28.1006L10.7488 25.6278V28.4412L18.4773 32.3708Z" fill="#2C2C3A"/>
<path d="M20.4373 10.9542C20.2246 10.8274 19.9493 10.8961 19.8224 11.1088L18.5008 13.3066C18.374 13.5192 18.4427 13.7945 18.6554 13.9215C18.7277 13.964 18.8073 13.9849 18.8856 13.9863H20.6094L19.296 15.6778C19.1435 15.8741 19.1793 16.1563 19.375 16.3088C19.5713 16.4614 19.8535 16.4256 20.006 16.2299L21.8736 13.8256C21.9392 13.7473 21.9783 13.6467 21.9783 13.5366C21.9783 13.2876 21.7764 13.0864 21.528 13.0864H19.6793L20.5919 11.5691C20.7187 11.3564 20.6499 11.0811 20.4373 10.9542Z" fill="#A30800" stroke="#A30800" stroke-width="0.2"/>
</svg>
