<svg viewBox="0 0 432 244" fill="none" xmlns="http://www.w3.org/2000/svg">
<path d="M216 14.5L156 30L166.5 91.5H210.5V243H376L373.5 91.5H420.5L429.5 30L367 14.5L329 6L321.887 1.5542C321.331 1.20703 320.643 1.15398 320.005 1.30375C315.729 2.30787 303.232 2.848 297 3H286.5C281.15 3 270.812 1.7832 265.684 1.09322C265.238 1.03319 264.789 1.12413 264.401 1.35232L256.5 6L216 14.5Z" fill="white"/>
<path d="M162.91 30.9599C163.182 30.9145 163.44 31.0985 163.485 31.3709L163.814 33.3397C163.859 33.612 163.675 33.8697 163.403 33.9151C163.13 33.9605 162.873 33.7764 162.827 33.5041L162.499 31.5353C162.454 31.2629 162.638 31.0053 162.91 30.9599Z" fill="#09090C"/>
<path d="M163.566 34.8974C163.839 34.852 164.096 35.036 164.142 35.3084L164.47 37.2772C164.515 37.5495 164.331 37.8072 164.059 37.8526C163.786 37.898 163.529 37.7139 163.483 37.4416L163.155 35.4728C163.11 35.2004 163.294 34.9428 163.566 34.8974Z" fill="#09090C"/>
<path d="M164.223 38.8349C164.495 38.7895 164.753 38.9735 164.798 39.2459L165.126 41.2147C165.171 41.487 164.987 41.7447 164.715 41.7901C164.443 41.8355 164.185 41.6514 164.14 41.3791L163.812 39.4103C163.766 39.1379 163.95 38.8803 164.223 38.8349Z" fill="#09090C"/>
<path d="M164.879 42.7724C165.151 42.727 165.409 42.911 165.454 43.1834L165.782 45.1522C165.828 45.4245 165.644 45.6822 165.371 45.7276C165.099 45.773 164.841 45.5889 164.796 45.3166L164.468 43.3478C164.422 43.0754 164.606 42.8178 164.879 42.7724Z" fill="#09090C"/>
<path d="M165.535 46.7099C165.807 46.6645 166.065 46.8485 166.11 47.1209L166.439 49.0897C166.484 49.362 166.3 49.6197 166.028 49.6651C165.755 49.7105 165.498 49.5264 165.452 49.2541L165.124 47.2853C165.079 47.0129 165.263 46.7553 165.535 46.7099Z" fill="#09090C"/>
<path d="M166.191 50.6474C166.464 50.602 166.721 50.786 166.767 51.0584L167.095 53.0272C167.14 53.2995 166.956 53.5572 166.684 53.6026C166.411 53.648 166.154 53.4639 166.108 53.1916L165.78 51.2228C165.735 50.9504 165.919 50.6928 166.191 50.6474Z" fill="#09090C"/>
<path d="M166.848 54.5849C167.12 54.5395 167.378 54.7235 167.423 54.9959L167.751 56.9647C167.796 57.237 167.612 57.4947 167.34 57.5401C167.068 57.5855 166.81 57.4014 166.765 57.1291L166.437 55.1603C166.391 54.8879 166.575 54.6303 166.848 54.5849Z" fill="#09090C"/>
<path d="M167.504 58.5224C167.776 58.477 168.034 58.661 168.079 58.9334L168.407 60.9022C168.453 61.1745 168.269 61.4322 167.996 61.4776C167.724 61.523 167.466 61.3389 167.421 61.0666L167.093 59.0978C167.047 58.8254 167.231 58.5678 167.504 58.5224Z" fill="#09090C"/>
<path d="M168.16 62.4599C168.432 62.4145 168.69 62.5985 168.735 62.8709L169.064 64.8397C169.109 65.112 168.925 65.3697 168.653 65.4151C168.38 65.4605 168.123 65.2764 168.077 65.0041L167.749 63.0353C167.704 62.7629 167.888 62.5053 168.16 62.4599Z" fill="#09090C"/>
<path d="M168.816 66.3974C169.089 66.352 169.346 66.536 169.392 66.8084L169.72 68.7772C169.765 69.0495 169.581 69.3072 169.309 69.3526C169.036 69.398 168.779 69.2139 168.733 68.9416L168.405 66.9728C168.36 66.7004 168.544 66.4428 168.816 66.3974Z" fill="#09090C"/>
<path d="M169.473 70.3349C169.745 70.2895 170.003 70.4735 170.048 70.7459L170.376 72.7147C170.421 72.9871 170.237 73.2447 169.965 73.2901C169.693 73.3355 169.435 73.1515 169.39 72.8791L169.062 70.9103C169.016 70.6379 169.2 70.3803 169.473 70.3349Z" fill="#09090C"/>
<path d="M170.129 74.2724C170.401 74.227 170.659 74.411 170.704 74.6834L171.032 76.6522C171.078 76.9246 170.894 77.1822 170.621 77.2276C170.349 77.273 170.091 77.089 170.046 76.8166L169.718 74.8478C169.672 74.5754 169.856 74.3178 170.129 74.2724Z" fill="#09090C"/>
<path d="M170.785 78.2099C171.057 78.1645 171.315 78.3485 171.36 78.6209L171.689 80.5897C171.734 80.8621 171.55 81.1197 171.278 81.1651C171.005 81.2105 170.748 81.0265 170.702 80.7541L170.374 78.7853C170.329 78.5129 170.513 78.2553 170.785 78.2099Z" fill="#09090C"/>
<path d="M171.441 82.1474C171.714 82.102 171.971 82.286 172.017 82.5584L172.345 84.5272C172.39 84.7996 172.206 85.0572 171.934 85.1026C171.661 85.148 171.404 84.964 171.358 84.6916L171.03 82.7228C170.985 82.4504 171.169 82.1928 171.441 82.1474Z" fill="#09090C"/>
<path d="M172.098 86.0849C172.37 86.0395 172.628 86.2235 172.673 86.4959L173.001 88.4647C173.046 88.7371 172.862 88.9947 172.59 89.0401C172.318 89.0855 172.06 88.9015 172.015 88.6291L171.687 86.6603C171.641 86.3879 171.825 86.1303 172.098 86.0849Z" fill="#09090C"/>
<path d="M424.06 31.3786C424.101 31.1055 424.356 30.9175 424.629 30.9587C424.902 30.9999 425.09 31.2546 425.049 31.5277L424.752 33.4964C424.711 33.7695 424.456 33.9574 424.183 33.9163C423.91 33.8751 423.722 33.6204 423.763 33.3473L424.06 31.3786Z" fill="#09090C"/>
<path d="M423.466 35.3161C423.508 35.043 423.762 34.855 424.035 34.8962C424.309 34.9374 424.496 35.1921 424.455 35.4652L424.158 37.4339C424.117 37.707 423.863 37.8949 423.589 37.8538C423.316 37.8126 423.128 37.5579 423.17 37.2848L423.466 35.3161Z" fill="#09090C"/>
<path d="M422.873 39.2536C422.914 38.9805 423.169 38.7925 423.442 38.8337C423.715 38.8749 423.903 39.1296 423.862 39.4027L423.565 41.3714C423.524 41.6445 423.269 41.8324 422.996 41.7913C422.723 41.7501 422.535 41.4954 422.576 41.2223L422.873 39.2536Z" fill="#09090C"/>
<path d="M422.279 43.1911C422.32 42.918 422.575 42.73 422.848 42.7712C423.121 42.8124 423.309 43.0671 423.268 43.3402L422.971 45.3089C422.93 45.582 422.675 45.7699 422.402 45.7288C422.129 45.6876 421.941 45.4329 421.982 45.1598L422.279 43.1911Z" fill="#09090C"/>
<path d="M421.685 47.1286C421.726 46.8555 421.981 46.6675 422.254 46.7087C422.527 46.7499 422.715 47.0046 422.674 47.2777L422.377 49.2464C422.336 49.5195 422.081 49.7074 421.808 49.6663C421.535 49.6251 421.347 49.3704 421.388 49.0973L421.685 47.1286Z" fill="#09090C"/>
<path d="M421.091 51.0661C421.133 50.793 421.387 50.605 421.66 50.6462C421.934 50.6874 422.121 50.9421 422.08 51.2152L421.783 53.1839C421.742 53.457 421.488 53.6449 421.214 53.6038C420.941 53.5626 420.753 53.3079 420.795 53.0348L421.091 51.0661Z" fill="#09090C"/>
<path d="M420.498 55.0036C420.539 54.7305 420.794 54.5425 421.067 54.5837C421.34 54.6249 421.528 54.8796 421.487 55.1527L421.19 57.1214C421.149 57.3945 420.894 57.5824 420.621 57.5413C420.348 57.5001 420.16 57.2454 420.201 56.9723L420.498 55.0036Z" fill="#09090C"/>
<path d="M419.904 58.9411C419.945 58.668 420.2 58.48 420.473 58.5212C420.746 58.5624 420.934 58.8171 420.893 59.0902L420.596 61.0589C420.555 61.332 420.3 61.5199 420.027 61.4788C419.754 61.4376 419.566 61.1829 419.607 60.9098L419.904 58.9411Z" fill="#09090C"/>
<path d="M419.31 62.8786C419.351 62.6055 419.606 62.4175 419.879 62.4587C420.152 62.4999 420.34 62.7546 420.299 63.0277L420.002 64.9964C419.961 65.2695 419.706 65.4574 419.433 65.4163C419.16 65.3751 418.972 65.1204 419.013 64.8473L419.31 62.8786Z" fill="#09090C"/>
<path d="M418.716 66.8161C418.758 66.543 419.012 66.355 419.285 66.3962C419.559 66.4374 419.746 66.6921 419.705 66.9652L419.408 68.9339C419.367 69.207 419.113 69.3949 418.839 69.3538C418.566 69.3126 418.378 69.0579 418.42 68.7848L418.716 66.8161Z" fill="#09090C"/>
<path d="M418.123 70.7536C418.164 70.4805 418.419 70.2925 418.692 70.3337C418.965 70.3749 419.153 70.6296 419.112 70.9027L418.815 72.8714C418.774 73.1445 418.519 73.3325 418.246 73.2913C417.973 73.2501 417.785 72.9954 417.826 72.7223L418.123 70.7536Z" fill="#09090C"/>
<path d="M417.529 74.6911C417.57 74.418 417.825 74.23 418.098 74.2712C418.371 74.3124 418.559 74.5671 418.518 74.8402L418.221 76.8089C418.18 77.082 417.925 77.27 417.652 77.2288C417.379 77.1876 417.191 76.9329 417.232 76.6598L417.529 74.6911Z" fill="#09090C"/>
<path d="M416.935 78.6286C416.976 78.3555 417.231 78.1675 417.504 78.2087C417.777 78.2499 417.965 78.5046 417.924 78.7777L417.627 80.7464C417.586 81.0195 417.331 81.2075 417.058 81.1663C416.785 81.1251 416.597 80.8704 416.638 80.5973L416.935 78.6286Z" fill="#09090C"/>
<path d="M416.341 82.5661C416.383 82.293 416.637 82.105 416.91 82.1462C417.184 82.1874 417.371 82.4421 417.33 82.7152L417.033 84.6839C416.992 84.957 416.738 85.145 416.464 85.1038C416.191 85.0626 416.003 84.8079 416.045 84.5348L416.341 82.5661Z" fill="#09090C"/>
<path d="M415.748 86.5036C415.789 86.2305 416.044 86.0425 416.317 86.0837C416.59 86.1249 416.778 86.3796 416.737 86.6527L416.44 88.6214C416.399 88.8945 416.144 89.0825 415.871 89.0413C415.598 89.0001 415.41 88.7454 415.451 88.4723L415.748 86.5036Z" fill="#09090C"/>
<path fill-rule="evenodd" clip-rule="evenodd" d="M265.147 0.921343C265.632 0.636515 266.194 0.522685 266.751 0.597672C271.884 1.28835 282.189 2.49999 287.5 2.49999H297.993C301.104 2.42403 305.777 2.25127 310.205 1.9724C314.651 1.69232 318.801 1.30773 320.891 0.816979C321.624 0.64483 322.456 0.695604 323.152 1.13019L330.192 5.5307L368.12 14.0146L431.06 29.6238L421.932 92H375.008L377.508 243.5H211V92H167.078L156.43 29.6309L216.886 14.013L257.317 5.52748L265.147 0.921343ZM266.618 1.58874C266.283 1.54368 265.946 1.61172 265.655 1.78328L265.245 2.02391C268.914 17.1188 280.229 28 293.5 28C307.162 28 318.621 17.462 321.939 1.74183C321.677 1.70781 321.398 1.72501 321.119 1.79049C318.933 2.30387 314.697 2.6914 310.268 2.97042C305.822 3.25046 301.133 3.42372 298.012 3.49984L298 3.49999H287.5C282.111 3.49999 271.74 2.27803 266.618 1.58874ZM322.877 2.13802C319.432 18.1063 307.684 29 293.5 29C279.721 29 268.165 17.8034 264.346 2.55297L257.683 6.4725L257.346 6.54326C259.802 24.3147 275.053 38 293.5 38C312.001 38 327.288 24.2345 329.676 6.38706L322.877 2.13802ZM217.114 14.987L218.506 14.6949C218.833 25.6895 218.853 42.6213 217.851 57.9173C217.347 65.6082 216.587 72.8733 215.48 78.7576C214.927 81.7 214.29 84.2867 213.559 86.404C212.865 88.4139 212.099 89.9668 211.266 91H173.424L173.329 90.4334C173.284 90.161 173.026 89.977 172.754 90.0224C172.481 90.0678 172.297 90.3254 172.343 90.5978L172.41 91H167.922L157.57 30.3691L162.109 29.1965L162.171 29.5666C162.216 29.8389 162.474 30.023 162.746 29.9776C163.019 29.9322 163.203 29.6745 163.157 29.4022L163.081 28.9454L217.114 14.987ZM218.849 57.9827C219.859 42.5629 219.833 25.497 219.5 14.4862L256.365 6.74915C258.918 24.975 274.571 39 293.5 39C312.461 39 328.135 24.9279 330.648 6.65738L367.197 14.8325C366.873 25.8527 366.859 42.7237 367.858 57.9827C368.363 65.6918 369.127 73.0017 370.244 78.9424C370.802 81.9125 371.45 84.5508 372.203 86.7303C372.792 88.4387 373.454 89.889 374.201 91H373.992L376.492 242.5H212V91.6824C212.959 90.5139 213.785 88.8142 214.504 86.7303C215.257 84.5508 215.905 81.9125 216.463 78.9424C217.58 73.0017 218.344 65.6918 218.849 57.9827ZM416.081 91H421.068L429.94 30.3762L425.393 29.2485L425.346 29.5589C425.305 29.832 425.05 30.0199 424.777 29.9788C424.504 29.9376 424.316 29.6829 424.357 29.4098L424.418 29.0068L368.19 15.0622C367.873 26.0642 367.865 42.7906 368.856 57.9173C369.359 65.6082 370.12 72.8733 371.226 78.7576C371.779 81.7 372.417 84.2867 373.148 86.404C373.842 88.4139 374.608 89.9668 375.441 91H415.07L415.154 90.4411C415.195 90.168 415.45 89.98 415.723 90.0212C415.996 90.0624 416.184 90.3171 416.143 90.5902L416.081 91Z" fill="#09090C"/>
<rect x="212" y="91" width="162" height="2" fill="#E31B23"/>
<rect x="212" y="203" width="164" height="2" fill="#E31B23"/>
<rect x="241" y="9" width="235" height="1.99999" transform="rotate(90 241 9)" fill="#E31B23"/>
<circle cx="294" cy="90" r="16" fill="#E31B23"/>
<path d="M289.453 96L293.085 84.48H295.909L299.541 96H297.557L294.261 85.664H294.693L291.437 96H289.453ZM291.477 93.504V91.704H297.525V93.504H291.477Z" fill="white"/>
<circle cx="241" cy="147" r="16" fill="#E31B23"/>
<path d="M237.573 153V141.48H242.141C242.92 141.48 243.557 141.637 244.053 141.952C244.555 142.261 244.925 142.659 245.165 143.144C245.411 143.629 245.533 144.131 245.533 144.648C245.533 145.283 245.381 145.821 245.077 146.264C244.779 146.707 244.371 147.005 243.853 147.16V146.76C244.579 146.925 245.128 147.269 245.501 147.792C245.88 148.315 246.069 148.909 246.069 149.576C246.069 150.259 245.939 150.856 245.677 151.368C245.416 151.88 245.027 152.28 244.509 152.568C243.997 152.856 243.363 153 242.605 153H237.573ZM239.525 151.184H242.365C242.701 151.184 243.003 151.117 243.269 150.984C243.536 150.845 243.744 150.653 243.893 150.408C244.048 150.157 244.125 149.861 244.125 149.52C244.125 149.211 244.059 148.933 243.925 148.688C243.792 148.443 243.597 148.248 243.341 148.104C243.085 147.955 242.779 147.88 242.421 147.88H239.525V151.184ZM239.525 146.08H242.117C242.395 146.08 242.643 146.027 242.861 145.92C243.08 145.813 243.253 145.656 243.381 145.448C243.509 145.24 243.573 144.984 243.573 144.68C243.573 144.28 243.445 143.947 243.189 143.68C242.933 143.413 242.576 143.28 242.117 143.28H239.525V146.08Z" fill="white"/>
<circle cx="294" cy="199" r="16" fill="#E31B23"/>
<path d="M294.086 205.24C292.934 205.24 291.947 204.989 291.126 204.488C290.304 203.981 289.672 203.277 289.23 202.376C288.792 201.475 288.574 200.429 288.574 199.24C288.574 198.051 288.792 197.005 289.23 196.104C289.672 195.203 290.304 194.501 291.126 194C291.947 193.493 292.934 193.24 294.086 193.24C295.414 193.24 296.52 193.573 297.406 194.24C298.291 194.901 298.912 195.795 299.27 196.92L297.326 197.456C297.102 196.704 296.72 196.117 296.182 195.696C295.643 195.269 294.944 195.056 294.086 195.056C293.312 195.056 292.667 195.229 292.15 195.576C291.638 195.923 291.251 196.411 290.99 197.04C290.734 197.664 290.603 198.397 290.598 199.24C290.598 200.083 290.726 200.819 290.982 201.448C291.243 202.072 291.632 202.557 292.15 202.904C292.667 203.251 293.312 203.424 294.086 203.424C294.944 203.424 295.643 203.211 296.182 202.784C296.72 202.357 297.102 201.771 297.326 201.024L299.27 201.56C298.912 202.685 298.291 203.581 297.406 204.248C296.52 204.909 295.414 205.24 294.086 205.24Z" fill="white"/>
<circle cx="16" cy="17" r="16" fill="#E31B23"/>
<path d="M11.4529 23L15.0849 11.48H17.9089L21.5409 23H19.5569L16.2609 12.664H16.6929L13.4369 23H11.4529ZM13.4769 20.504V18.704H19.5249V20.504H13.4769Z" fill="white"/>
<circle cx="16" cy="65" r="16" fill="#E31B23"/>
<path d="M12.5732 71V59.48H17.1412C17.9199 59.48 18.5572 59.6373 19.0532 59.952C19.5546 60.2613 19.9252 60.6587 20.1652 61.144C20.4106 61.6293 20.5332 62.1307 20.5332 62.648C20.5332 63.2827 20.3812 63.8213 20.0772 64.264C19.7786 64.7067 19.3706 65.0053 18.8532 65.16V64.76C19.5786 64.9253 20.1279 65.2693 20.5012 65.792C20.8799 66.3147 21.0692 66.9093 21.0692 67.576C21.0692 68.2587 20.9386 68.856 20.6772 69.368C20.4159 69.88 20.0266 70.28 19.5092 70.568C18.9972 70.856 18.3626 71 17.6052 71H12.5732ZM14.5252 69.184H17.3652C17.7012 69.184 18.0026 69.1173 18.2692 68.984C18.5359 68.8453 18.7439 68.6533 18.8932 68.408C19.0479 68.1573 19.1252 67.8613 19.1252 67.52C19.1252 67.2107 19.0586 66.9333 18.9252 66.688C18.7919 66.4427 18.5972 66.248 18.3412 66.104C18.0852 65.9547 17.7786 65.88 17.4212 65.88H14.5252V69.184ZM14.5252 64.08H17.1172C17.3946 64.08 17.6426 64.0267 17.8612 63.92C18.0799 63.8133 18.2532 63.656 18.3812 63.448C18.5092 63.24 18.5732 62.984 18.5732 62.68C18.5732 62.28 18.4452 61.9467 18.1892 61.68C17.9332 61.4133 17.5759 61.28 17.1172 61.28H14.5252V64.08Z" fill="white"/>
<circle cx="16" cy="113" r="16" fill="#E31B23"/>
<path d="M16.0857 119.24C14.9337 119.24 13.9471 118.989 13.1257 118.488C12.3044 117.981 11.6724 117.277 11.2297 116.376C10.7924 115.475 10.5737 114.429 10.5737 113.24C10.5737 112.051 10.7924 111.005 11.2297 110.104C11.6724 109.203 12.3044 108.501 13.1257 108C13.9471 107.493 14.9337 107.24 16.0857 107.24C17.4137 107.24 18.5204 107.573 19.4057 108.24C20.2911 108.901 20.9124 109.795 21.2697 110.92L19.3257 111.456C19.1017 110.704 18.7204 110.117 18.1817 109.696C17.6431 109.269 16.9444 109.056 16.0857 109.056C15.3124 109.056 14.6671 109.229 14.1497 109.576C13.6377 109.923 13.2511 110.411 12.9897 111.04C12.7337 111.664 12.6031 112.397 12.5977 113.24C12.5977 114.083 12.7257 114.819 12.9817 115.448C13.2431 116.072 13.6324 116.557 14.1497 116.904C14.6671 117.251 15.3124 117.424 16.0857 117.424C16.9444 117.424 17.6431 117.211 18.1817 116.784C18.7204 116.357 19.1017 115.771 19.3257 115.024L21.2697 115.56C20.9124 116.685 20.2911 117.581 19.4057 118.248C18.5204 118.909 17.4137 119.24 16.0857 119.24Z" fill="white"/>
<path d="M48.7579 22.1949C47.8262 22.1949 47.0354 21.9891 46.3854 21.5774C45.7354 21.1658 45.2392 20.5938 44.8969 19.8614C44.5589 19.1291 44.3899 18.2819 44.3899 17.3199C44.3899 16.3579 44.5589 15.5108 44.8969 14.7784C45.2392 14.0461 45.7354 13.4741 46.3854 13.0624C47.0354 12.6508 47.8262 12.4449 48.7579 12.4449C49.8412 12.4449 50.7317 12.7201 51.4294 13.2704C52.1314 13.8208 52.6146 14.5618 52.8789 15.4934L51.7024 15.8054C51.5117 15.1078 51.1716 14.5574 50.6819 14.1544C50.1922 13.7514 49.5509 13.5499 48.7579 13.5499C48.0602 13.5499 47.4796 13.7081 47.0159 14.0244C46.5522 14.3408 46.2034 14.7828 45.9694 15.3504C45.7354 15.9138 45.6162 16.5703 45.6119 17.3199C45.6076 18.0653 45.7224 18.7218 45.9564 19.2894C46.1904 19.8528 46.5414 20.2948 47.0094 20.6154C47.4774 20.9318 48.0602 21.0899 48.7579 21.0899C49.5509 21.0899 50.1922 20.8884 50.6819 20.4854C51.1716 20.0781 51.5117 19.5278 51.7024 18.8344L52.8789 19.1464C52.6146 20.0738 52.1314 20.8148 51.4294 21.3694C50.7317 21.9198 49.8412 22.1949 48.7579 22.1949Z" fill="#3D3D52"/>
<path d="M59.3029 21.9999V18.4834C59.3029 18.1498 59.2726 17.8291 59.2119 17.5214C59.1556 17.2138 59.0538 16.9386 58.9064 16.6959C58.7634 16.4489 58.5684 16.2539 58.3214 16.1109C58.0788 15.9679 57.7711 15.8964 57.3984 15.8964C57.1081 15.8964 56.8438 15.9463 56.6054 16.0459C56.3714 16.1413 56.1699 16.2886 56.0009 16.4879C55.8319 16.6873 55.6998 16.9386 55.6044 17.2419C55.5134 17.5409 55.4679 17.8941 55.4679 18.3014L54.7074 18.0674C54.7074 17.3871 54.8288 16.8043 55.0714 16.3189C55.3184 15.8293 55.6629 15.4544 56.1049 15.1944C56.5513 14.9301 57.0756 14.7979 57.6779 14.7979C58.1329 14.7979 58.5208 14.8694 58.8414 15.0124C59.1621 15.1554 59.4286 15.3461 59.6409 15.5844C59.8533 15.8184 60.0201 16.0828 60.1414 16.3774C60.2628 16.6678 60.3473 16.9646 60.3949 17.2679C60.4469 17.5669 60.4729 17.8508 60.4729 18.1194V21.9999H59.3029ZM54.2979 21.9999V12.6399H55.3379V17.8074H55.4679V21.9999H54.2979Z" fill="#3D3D52"/>
<path d="M65.2048 22.1949C64.5158 22.1949 63.9135 22.0433 63.3978 21.7399C62.8865 21.4323 62.4878 21.0054 62.2018 20.4594C61.9158 19.9091 61.7728 19.2678 61.7728 18.5354C61.7728 17.7684 61.9137 17.1054 62.1953 16.5464C62.477 15.9831 62.8692 15.5498 63.3718 15.2464C63.8788 14.9388 64.4725 14.7849 65.1528 14.7849C65.8592 14.7849 66.4593 14.9474 66.9533 15.2724C67.4517 15.5974 67.8243 16.0611 68.0713 16.6634C68.3227 17.2658 68.431 17.9829 68.3963 18.8149H67.2263V18.3989C67.2133 17.5366 67.0378 16.8931 66.6998 16.4684C66.3618 16.0394 65.8592 15.8249 65.1918 15.8249C64.4768 15.8249 63.933 16.0546 63.5603 16.5139C63.1877 16.9733 63.0013 17.6319 63.0013 18.4899C63.0013 19.3176 63.1877 19.9589 63.5603 20.4139C63.933 20.8689 64.4638 21.0964 65.1528 21.0964C65.6165 21.0964 66.0195 20.9903 66.3618 20.7779C66.7042 20.5656 66.9728 20.2601 67.1678 19.8614L68.2793 20.2449C68.0063 20.8646 67.5947 21.3456 67.0443 21.6879C66.4983 22.0259 65.8852 22.1949 65.2048 22.1949ZM62.6113 18.8149V17.8854H67.7983V18.8149H62.6113Z" fill="#3D3D52"/>
<path d="M72.4955 22.1884C71.6592 22.1884 70.9723 22.0064 70.435 21.6424C69.902 21.2741 69.5748 20.7606 69.4535 20.1019L70.6365 19.9134C70.7318 20.2948 70.9507 20.5981 71.293 20.8234C71.6353 21.0444 72.06 21.1549 72.567 21.1549C73.048 21.1549 73.425 21.0553 73.698 20.8559C73.971 20.6566 74.1075 20.3858 74.1075 20.0434C74.1075 19.8441 74.062 19.6838 73.971 19.5624C73.88 19.4368 73.6915 19.3198 73.4055 19.2114C73.1238 19.1031 72.697 18.9731 72.125 18.8214C71.5053 18.6568 71.0178 18.4856 70.6625 18.3079C70.3072 18.1303 70.0537 17.9244 69.902 17.6904C69.7503 17.4564 69.6745 17.1726 69.6745 16.8389C69.6745 16.4273 69.7872 16.0676 70.0125 15.7599C70.2378 15.4479 70.552 15.2074 70.955 15.0384C71.3623 14.8694 71.8347 14.7849 72.372 14.7849C72.905 14.7849 73.3817 14.8694 73.802 15.0384C74.2223 15.2074 74.5603 15.4479 74.816 15.7599C75.076 16.0676 75.2298 16.4273 75.2775 16.8389L74.0945 17.0534C74.0382 16.6764 73.8562 16.3796 73.5485 16.1629C73.2452 15.9463 72.853 15.8314 72.372 15.8184C71.917 15.8011 71.5465 15.8813 71.2605 16.0589C70.9788 16.2366 70.838 16.4771 70.838 16.7804C70.838 16.9494 70.89 17.0946 70.994 17.2159C71.1023 17.3373 71.2995 17.4521 71.5855 17.5604C71.8758 17.6688 72.2962 17.7923 72.8465 17.9309C73.4662 18.0869 73.9537 18.2581 74.309 18.4444C74.6687 18.6264 74.9243 18.8431 75.076 19.0944C75.2277 19.3414 75.3035 19.6469 75.3035 20.0109C75.3035 20.6869 75.0543 21.2199 74.556 21.6099C74.0577 21.9956 73.3708 22.1884 72.4955 22.1884Z" fill="#3D3D52"/>
<path d="M80.6565 21.9999C80.2405 22.0823 79.8289 22.1148 79.4215 22.0974C79.0185 22.0844 78.6589 22.0043 78.3425 21.8569C78.0262 21.7053 77.7857 21.4713 77.621 21.1549C77.4824 20.8776 77.4065 20.5981 77.3935 20.3164C77.3849 20.0304 77.3805 19.7076 77.3805 19.3479V13.0299H78.5375V19.2959C78.5375 19.5819 78.5397 19.8268 78.544 20.0304C78.5527 20.2341 78.5982 20.4096 78.6805 20.5569C78.8365 20.8343 79.0835 20.9968 79.4215 21.0444C79.7639 21.0921 80.1755 21.0791 80.6565 21.0054V21.9999ZM75.957 15.9354V14.9799H80.6565V15.9354H75.957Z" fill="#3D3D52"/>
<path d="M45.04 70V60.64H46.197V68.9015H50.539V70H45.04Z" fill="#3D3D52"/>
<path d="M54.6806 70.195C53.9916 70.195 53.3892 70.0433 52.8736 69.74C52.3622 69.4323 51.9636 69.0055 51.6776 68.4595C51.3916 67.9092 51.2486 67.2678 51.2486 66.5355C51.2486 65.7685 51.3894 65.1055 51.6711 64.5465C51.9527 63.9832 52.3449 63.5498 52.8476 63.2465C53.3546 62.9388 53.9482 62.785 54.6286 62.785C55.3349 62.785 55.9351 62.9475 56.4291 63.2725C56.9274 63.5975 57.3001 64.0612 57.5471 64.6635C57.7984 65.2658 57.9067 65.983 57.8721 66.815H56.7021V66.399C56.6891 65.5367 56.5136 64.8932 56.1756 64.4685C55.8376 64.0395 55.3349 63.825 54.6676 63.825C53.9526 63.825 53.4087 64.0547 53.0361 64.514C52.6634 64.9733 52.4771 65.632 52.4771 66.49C52.4771 67.3177 52.6634 67.959 53.0361 68.414C53.4087 68.869 53.9396 69.0965 54.6286 69.0965C55.0922 69.0965 55.4952 68.9903 55.8376 68.778C56.1799 68.5657 56.4486 68.2602 56.6436 67.8615L57.7551 68.245C57.4821 68.8647 57.0704 69.3457 56.5201 69.688C55.9741 70.026 55.3609 70.195 54.6806 70.195ZM52.0871 66.815V65.8855H57.2741V66.815H52.0871Z" fill="#3D3D52"/>
<path d="M64.1273 70V66.4835C64.1273 66.1498 64.097 65.8292 64.0363 65.5215C63.98 65.2138 63.8781 64.9387 63.7308 64.696C63.5878 64.449 63.3928 64.254 63.1458 64.111C62.9031 63.968 62.5955 63.8965 62.2228 63.8965C61.9325 63.8965 61.6681 63.9463 61.4298 64.046C61.1958 64.1413 60.9943 64.2887 60.8253 64.488C60.6563 64.6873 60.5241 64.9387 60.4288 65.242C60.3378 65.541 60.2923 65.8942 60.2923 66.3015L59.5318 66.0675C59.5318 65.3872 59.6531 64.8043 59.8958 64.319C60.1428 63.8293 60.4873 63.4545 60.9293 63.1945C61.3756 62.9302 61.9 62.798 62.5023 62.798C62.9573 62.798 63.3451 62.8695 63.6658 63.0125C63.9865 63.1555 64.253 63.3462 64.4653 63.5845C64.6776 63.8185 64.8445 64.0828 64.9658 64.3775C65.0871 64.6678 65.1716 64.9647 65.2193 65.268C65.2713 65.567 65.2973 65.8508 65.2973 66.1195V70H64.1273ZM59.1223 70V62.98H60.1623V64.8585H60.2923V70H59.1223Z" fill="#3D3D52"/>
<path d="M69.8277 73.315C69.4594 73.315 69.0997 73.2587 68.7487 73.146C68.3977 73.0333 68.0749 72.8622 67.7802 72.6325C67.4899 72.4072 67.2472 72.1212 67.0522 71.7745L68.1117 71.2155C68.285 71.5578 68.5299 71.807 68.8462 71.963C69.1669 72.119 69.4962 72.197 69.8342 72.197C70.2805 72.197 70.651 72.1147 70.9457 71.95C71.2404 71.7897 71.457 71.5492 71.5957 71.2285C71.7387 70.9078 71.808 70.5092 71.8037 70.0325V68.115H71.9402V62.98H72.9672V70.0455C72.9672 70.2362 72.9607 70.4203 72.9477 70.598C72.939 70.7757 72.9174 70.9512 72.8827 71.1245C72.7917 71.6228 72.6119 72.0323 72.3432 72.353C72.0745 72.678 71.7279 72.9185 71.3032 73.0745C70.8785 73.2348 70.3867 73.315 69.8277 73.315ZM69.7432 70.195C69.0889 70.195 68.5277 70.0325 68.0597 69.7075C67.5917 69.3782 67.2299 68.934 66.9742 68.375C66.7229 67.816 66.5972 67.1855 66.5972 66.4835C66.5972 65.7815 66.7229 65.151 66.9742 64.592C67.2299 64.033 67.5917 63.5932 68.0597 63.2725C68.5277 62.9475 69.0867 62.785 69.7367 62.785C70.3997 62.785 70.9565 62.9453 71.4072 63.266C71.8579 63.5867 72.198 64.0265 72.4277 64.5855C72.6617 65.1445 72.7787 65.7772 72.7787 66.4835C72.7787 67.1812 72.6617 67.8117 72.4277 68.375C72.198 68.934 71.8579 69.3782 71.4072 69.7075C70.9565 70.0325 70.4019 70.195 69.7432 70.195ZM69.8862 69.1355C70.3585 69.1355 70.7464 69.0228 71.0497 68.7975C71.353 68.5678 71.5762 68.2537 71.7192 67.855C71.8665 67.452 71.9402 66.9948 71.9402 66.4835C71.9402 65.9635 71.8665 65.5063 71.7192 65.112C71.5762 64.7133 71.3552 64.4035 71.0562 64.1825C70.7572 63.9572 70.378 63.8445 69.9187 63.8445C69.442 63.8445 69.0477 63.9615 68.7357 64.1955C68.428 64.4295 68.1984 64.7458 68.0467 65.1445C67.8994 65.5432 67.8257 65.9895 67.8257 66.4835C67.8257 66.9818 67.9015 67.4325 68.0532 67.8355C68.2049 68.2342 68.4324 68.5505 68.7357 68.7845C69.0434 69.0185 69.4269 69.1355 69.8862 69.1355Z" fill="#3D3D52"/>
<path d="M78.7016 70C78.2856 70.0823 77.8739 70.1148 77.4666 70.0975C77.0636 70.0845 76.7039 70.0043 76.3876 69.857C76.0713 69.7053 75.8308 69.4713 75.6661 69.155C75.5274 68.8777 75.4516 68.5982 75.4386 68.3165C75.4299 68.0305 75.4256 67.7077 75.4256 67.348V61.03H76.5826V67.296C76.5826 67.582 76.5848 67.8268 76.5891 68.0305C76.5978 68.2342 76.6433 68.4097 76.7256 68.557C76.8816 68.8343 77.1286 68.9968 77.4666 69.0445C77.8089 69.0922 78.2206 69.0792 78.7016 69.0055V70ZM74.0021 63.9355V62.98H78.7016V63.9355H74.0021Z" fill="#3D3D52"/>
<path d="M85.1253 70V66.4835C85.1253 66.1498 85.095 65.8292 85.0343 65.5215C84.978 65.2138 84.8762 64.9387 84.7288 64.696C84.5858 64.449 84.3908 64.254 84.1438 64.111C83.9012 63.968 83.5935 63.8965 83.2208 63.8965C82.9305 63.8965 82.6662 63.9463 82.4278 64.046C82.1938 64.1413 81.9923 64.2887 81.8233 64.488C81.6543 64.6873 81.5222 64.9387 81.4268 65.242C81.3358 65.541 81.2903 65.8942 81.2903 66.3015L80.5298 66.0675C80.5298 65.3872 80.6512 64.8043 80.8938 64.319C81.1408 63.8293 81.4853 63.4545 81.9273 63.1945C82.3737 62.9302 82.898 62.798 83.5003 62.798C83.9553 62.798 84.3432 62.8695 84.6638 63.0125C84.9845 63.1555 85.251 63.3462 85.4633 63.5845C85.6757 63.8185 85.8425 64.0828 85.9638 64.3775C86.0852 64.6678 86.1697 64.9647 86.2173 65.268C86.2693 65.567 86.2953 65.8508 86.2953 66.1195V70H85.1253ZM80.1203 70V60.64H81.1603V65.8075H81.2903V70H80.1203Z" fill="#3D3D52"/>
<path d="M46.9056 118L44.1951 108.64H45.4041L47.4841 116.043L49.5576 108.646L50.7731 108.64L52.8531 116.043L54.9266 108.64H56.1421L53.4316 118H52.2746L50.1686 110.661L48.0626 118H46.9056Z" fill="#3D3D52"/>
<path d="M58.6614 118.195C58.1371 118.195 57.6973 118.1 57.3419 117.909C56.9909 117.714 56.7244 117.458 56.5424 117.142C56.3648 116.826 56.2759 116.479 56.2759 116.102C56.2759 115.734 56.3453 115.415 56.4839 115.146C56.6269 114.873 56.8263 114.648 57.0819 114.47C57.3376 114.288 57.6431 114.145 57.9984 114.041C58.3321 113.95 58.7048 113.872 59.1164 113.807C59.5324 113.738 59.9528 113.675 60.3774 113.619C60.8021 113.563 61.1986 113.508 61.5669 113.456L61.1509 113.697C61.1639 113.073 61.0383 112.611 60.7739 112.312C60.5139 112.013 60.0633 111.864 59.4219 111.864C58.9973 111.864 58.6246 111.961 58.3039 112.156C57.9876 112.347 57.7644 112.659 57.6344 113.092L56.5359 112.761C56.7049 112.146 57.0321 111.662 57.5174 111.311C58.0028 110.96 58.6419 110.785 59.4349 110.785C60.0719 110.785 60.6179 110.9 61.0729 111.129C61.5323 111.355 61.8616 111.697 62.0609 112.156C62.1606 112.373 62.2234 112.609 62.2494 112.865C62.2754 113.116 62.2884 113.381 62.2884 113.658V118H61.2614V116.316L61.5019 116.472C61.2376 117.04 60.8671 117.469 60.3904 117.759C59.9181 118.05 59.3418 118.195 58.6614 118.195ZM58.8369 117.226C59.2529 117.226 59.6126 117.153 59.9159 117.005C60.2236 116.854 60.4706 116.657 60.6569 116.414C60.8433 116.167 60.9646 115.898 61.0209 115.608C61.0859 115.391 61.1206 115.151 61.1249 114.886C61.1336 114.618 61.1379 114.412 61.1379 114.269L61.5409 114.444C61.1639 114.496 60.7934 114.546 60.4294 114.594C60.0654 114.642 59.7209 114.694 59.3959 114.75C59.0709 114.802 58.7784 114.865 58.5184 114.938C58.3278 114.999 58.1479 115.077 57.9789 115.172C57.8143 115.268 57.6799 115.391 57.5759 115.543C57.4763 115.69 57.4264 115.874 57.4264 116.095C57.4264 116.286 57.4741 116.468 57.5694 116.641C57.6691 116.815 57.8208 116.956 58.0244 117.064C58.2324 117.172 58.5033 117.226 58.8369 117.226Z" fill="#3D3D52"/>
<path d="M64.1084 109.738V108.542H65.2654V109.738H64.1084ZM64.1084 118V110.98H65.2654V118H64.1084Z" fill="#3D3D52"/>
<path d="M69.8677 118.188C69.0314 118.188 68.3446 118.006 67.8072 117.642C67.2742 117.274 66.9471 116.761 66.8257 116.102L68.0087 115.913C68.1041 116.295 68.3229 116.598 68.6652 116.823C69.0076 117.044 69.4322 117.155 69.9392 117.155C70.4202 117.155 70.7972 117.055 71.0702 116.856C71.3432 116.657 71.4797 116.386 71.4797 116.043C71.4797 115.844 71.4342 115.684 71.3432 115.562C71.2522 115.437 71.0637 115.32 70.7777 115.211C70.4961 115.103 70.0692 114.973 69.4972 114.821C68.8776 114.657 68.3901 114.486 68.0347 114.308C67.6794 114.13 67.4259 113.924 67.2742 113.69C67.1226 113.456 67.0467 113.173 67.0467 112.839C67.0467 112.427 67.1594 112.068 67.3847 111.76C67.6101 111.448 67.9242 111.207 68.3272 111.038C68.7346 110.869 69.2069 110.785 69.7442 110.785C70.2772 110.785 70.7539 110.869 71.1742 111.038C71.5946 111.207 71.9326 111.448 72.1882 111.76C72.4482 112.068 72.6021 112.427 72.6497 112.839L71.4667 113.053C71.4104 112.676 71.2284 112.38 70.9207 112.163C70.6174 111.946 70.2252 111.831 69.7442 111.818C69.2892 111.801 68.9187 111.881 68.6327 112.059C68.3511 112.237 68.2102 112.477 68.2102 112.78C68.2102 112.949 68.2622 113.095 68.3662 113.216C68.4746 113.337 68.6717 113.452 68.9577 113.56C69.2481 113.669 69.6684 113.792 70.2187 113.931C70.8384 114.087 71.3259 114.258 71.6812 114.444C72.0409 114.626 72.2966 114.843 72.4482 115.094C72.5999 115.341 72.6757 115.647 72.6757 116.011C72.6757 116.687 72.4266 117.22 71.9282 117.61C71.4299 117.996 70.7431 118.188 69.8677 118.188Z" fill="#3D3D52"/>
<path d="M78.0288 118C77.6128 118.082 77.2011 118.115 76.7938 118.097C76.3908 118.084 76.0311 118.004 75.7148 117.857C75.3985 117.705 75.158 117.471 74.9933 117.155C74.8546 116.878 74.7788 116.598 74.7658 116.316C74.7571 116.03 74.7528 115.708 74.7528 115.348V109.03H75.9098V115.296C75.9098 115.582 75.912 115.827 75.9163 116.03C75.925 116.234 75.9705 116.41 76.0528 116.557C76.2088 116.834 76.4558 116.997 76.7938 117.044C77.1361 117.092 77.5478 117.079 78.0288 117.005V118ZM73.3293 111.935V110.98H78.0288V111.935H73.3293Z" fill="#3D3D52"/>
</svg>
