<?xml version="1.0" encoding="utf-8"?>
<!-- Generator: Adobe Illustrator 24.1.0, SVG Export Plug-In . SVG Version: 6.00 Build 0)  -->
<svg version="1.1" id="Layer_1" xmlns="http://www.w3.org/2000/svg" xmlns:xlink="http://www.w3.org/1999/xlink" x="0px" y="0px"
	 viewBox="0 0 40 40" style="enable-background:new 0 0 40 40;" xml:space="preserve">
<path class="st0" d="M14.6,10.8c-2.7,0-4.9,2.2-4.9,4.9c0,3.5,2.6,6.9,5.4,9.5c1.4,1.3,2.7,2.3,3.8,3.1c0.5,0.4,0.9,0.6,1.2,0.8
	c0,0,0.1,0,0.1,0c0,0,0,0,0.1,0c0.3-0.2,0.7-0.5,1.2-0.8c1-0.7,2.4-1.8,3.8-3c2.8-2.6,5.4-6,5.4-9.6c0-2.7-2.2-4.9-4.9-4.9
	c-1.3,0-2.5,0.8-3.5,1.7c-0.5,0.4-0.9,0.9-1.1,1.2c-0.1,0.2-0.2,0.3-0.3,0.4c0,0-0.1,0.1-0.1,0.1l0,0l0,0c-0.1,0.2-0.4,0.3-0.6,0.3
	c-0.3,0-0.5-0.1-0.6-0.3l0,0l0,0c0,0,0-0.1-0.1-0.1c-0.1-0.1-0.2-0.2-0.3-0.4c-0.3-0.3-0.6-0.8-1.1-1.2
	C17.1,11.5,15.9,10.8,14.6,10.8z M20.2,12.5c-0.3-0.3-0.7-0.8-1.1-1.2c-1.1-1-2.6-2.1-4.5-2.1c-3.5,0-6.4,2.8-6.4,6.4
	c0,4.2,3,8,5.8,10.6c1.4,1.3,2.9,2.4,3.9,3.2c0.5,0.4,1,0.7,1.3,0.9c0.2,0.1,0.3,0.2,0.4,0.2c0,0,0.1,0,0.1,0.1l0,0l0,0l0,0
	c0,0,0,0,0.4-0.6l-0.4,0.6c0.2,0.1,0.5,0.1,0.8,0L20.2,30c0.4,0.6,0.4,0.6,0.4,0.6l0,0l0,0l0,0c0,0,0.1,0,0.1-0.1
	c0.1-0.1,0.2-0.1,0.4-0.2c0.3-0.2,0.8-0.5,1.3-0.9c1.1-0.8,2.5-1.8,3.9-3.2c2.8-2.6,5.8-6.4,5.8-10.7c0-3.5-2.8-6.4-6.4-6.4
	c-1.8,0-3.4,1.1-4.5,2.1C20.9,11.7,20.5,12.2,20.2,12.5z"/>
</svg>
