<svg viewBox="0 0 40 40" fill="none" xmlns="http://www.w3.org/2000/svg">
<path fill-rule="evenodd" clip-rule="evenodd" d="M14.6 10.75C11.9076 10.75 9.75 12.9097 9.75 15.6408C9.75 19.1503 12.3325 22.5479 15.1135 25.1583C16.4819 26.4427 17.8535 27.4949 18.8845 28.2265C19.3992 28.5918 19.8274 28.876 20.1254 29.068C20.1524 29.0854 20.1783 29.102 20.2031 29.1179C20.2273 29.1026 20.2527 29.0865 20.279 29.0697C20.5768 28.8802 21.0047 28.5995 21.5192 28.2379C22.5495 27.5138 23.9204 26.4705 25.288 25.1917C28.0655 22.5945 30.65 19.1923 30.65 15.625C30.65 12.9111 28.4937 10.75 25.8 10.75C24.5341 10.75 23.3132 11.5257 22.3433 12.425C21.8714 12.8624 21.4881 13.3023 21.2226 13.6333C21.0903 13.7982 20.9885 13.9347 20.9208 14.0283C20.887 14.0751 20.8618 14.111 20.8456 14.1344L20.8283 14.1597L20.8249 14.1647C20.6859 14.3739 20.4512 14.5 20.2 14.5C19.949 14.5 19.7146 14.3744 19.5756 14.1655L19.5717 14.1597L19.5544 14.1344C19.5382 14.111 19.513 14.0751 19.4792 14.0283C19.4115 13.9347 19.3097 13.7982 19.1774 13.6333C18.9119 13.3023 18.5285 12.8624 18.0567 12.425C17.0868 11.5257 15.8659 10.75 14.6 10.75ZM20.2 12.5142C19.913 12.1692 19.5327 11.7479 19.0766 11.325C18.0243 10.3493 16.4452 9.25 14.6 9.25C11.0702 9.25 8.25 12.0903 8.25 15.6408C8.25 19.8238 11.2678 23.6058 14.087 26.2519C15.5187 27.5958 16.9472 28.691 18.0163 29.4498C18.5516 29.8296 18.9985 30.1264 19.313 30.329C19.4703 30.4303 19.5946 30.5082 19.6803 30.5612C19.7232 30.5877 19.7565 30.608 19.7795 30.622L19.8062 30.6381L19.8135 30.6425L19.8157 30.6438C19.816 30.6439 19.8169 30.6445 20.2005 30L19.8169 30.6445C20.0518 30.7843 20.3441 30.7852 20.5799 30.6469L20.2005 30C20.5799 30.6469 20.5797 30.6471 20.5799 30.6469L20.5833 30.6449L20.5907 30.6406L20.6174 30.6246C20.6405 30.6109 20.6738 30.5908 20.7167 30.5646C20.8026 30.5123 20.927 30.4354 21.0844 30.3352C21.399 30.135 21.8461 29.8415 22.3816 29.4652C23.4512 28.7135 24.8802 27.6266 26.3125 26.2874C29.1347 23.6484 32.15 19.8631 32.15 15.625C32.15 12.0889 29.3285 9.25 25.8 9.25C23.9548 9.25 22.3757 10.3493 21.3234 11.325C20.8673 11.7479 20.487 12.1692 20.2 12.5142Z" fill="#111433"/>
</svg>
