<svg width="40" height="40" viewBox="0 0 40 40" fill="none" xmlns="http://www.w3.org/2000/svg">
<path fill-rule="evenodd" clip-rule="evenodd" d="M19.9117 7.76266C19.4517 8.43837 18.5666 9.73204 18.2902 10.1098C18.0198 10.4793 17.6562 10.6772 17.362 10.7793C16.7364 10.9965 16.2006 10.6717 15.9367 10.4598C15.7658 10.3225 15.5753 10.1913 15.4122 10.1129C15.4082 10.1125 15.402 10.1119 15.3933 10.1117C15.3602 10.1108 15.309 10.115 15.2401 10.13C15.1012 10.1602 14.9525 10.2205 14.8422 10.2772C14.84 10.279 14.836 10.2823 14.83 10.2879C12.8004 12.183 8.75304 15.9709 8.10278 16.6127C7.90614 16.8068 7.80791 17.0449 7.76928 17.2863C7.73286 17.5138 7.75505 17.7132 7.77817 17.8148L10.1098 23.7101C10.1136 23.7196 10.1165 23.726 10.1185 23.73C10.3246 23.9543 10.6294 24.0587 11.0229 24.0565C11.4058 24.0544 11.7875 23.948 12.0264 23.8466L16.5121 21.1059C16.5376 21.0903 16.5639 21.0763 16.591 21.0639C18.256 20.3018 20.0736 20.3891 21.204 21.5047L24.6815 24.9369C25.1668 25.4159 25.8137 25.6338 26.491 25.6883C27.1717 25.743 27.8206 25.6259 28.2123 25.5015C28.2133 25.5012 28.214 25.5009 28.2143 25.5008C28.9995 25.0351 29.8306 23.9292 30.5464 22.6728C31.2435 21.4495 31.7525 20.2267 31.9373 19.6918C32.1616 19.0423 32.2349 18.4119 32.2478 18.0396C32.2477 18.0429 32.2491 18.0204 32.2188 17.977L27.553 11.2718C27.5251 11.2317 27.5015 11.2212 27.4864 11.2165C27.4655 11.2101 27.4346 11.2084 27.3997 11.2194C27.3648 11.2303 27.3404 11.2493 27.3269 11.2665C27.3172 11.279 27.3038 11.3012 27.3038 11.3499C27.3038 11.4613 27.2935 11.6046 27.2478 11.759C27.0335 12.4819 26.5168 12.8649 25.9524 12.9817C25.451 13.0855 24.9569 12.9754 24.6343 12.8556C24.492 12.8027 24.3753 12.7318 24.2857 12.6684C23.8441 12.3558 23.2073 11.9006 22.6561 11.4968C22.3808 11.2951 22.1237 11.1039 21.9217 10.9485C21.7488 10.8156 21.5461 10.6568 21.4439 10.5448C21.2565 10.3393 21.1655 10.1014 21.1186 9.92033C21.0702 9.73359 21.055 9.55372 21.0536 9.41334C21.0512 9.18767 21.1102 8.99626 21.1642 8.86121L21.4282 8.20126C21.4901 8.04642 21.3861 7.87719 21.2223 7.86111C20.7602 7.81578 20.3246 7.77369 20.0979 7.75335C20.0053 7.74504 19.9451 7.75415 19.9117 7.76266ZM18.7525 6.80089C19.01 6.45139 19.5516 6.1983 20.232 6.25935C20.466 6.28035 20.9079 6.32307 21.3687 6.36828C22.5292 6.48212 23.2532 7.67756 22.8209 8.75829L22.557 9.41824C22.5559 9.42082 22.555 9.42313 22.5543 9.42518C22.5563 9.46834 22.562 9.51087 22.5707 9.54426C22.5712 9.54628 22.5717 9.54818 22.5722 9.54996C22.6071 9.57885 22.6888 9.6462 22.8361 9.75947C23.0245 9.90439 23.271 10.0878 23.5426 10.2868C24.085 10.6841 24.7146 11.1343 25.1523 11.444C25.1582 11.4482 25.1623 11.4509 25.1649 11.4525C25.3358 11.5145 25.5241 11.5386 25.6484 11.5128C25.7005 11.502 25.7237 11.4864 25.7356 11.4759C25.7446 11.4678 25.7753 11.4384 25.8038 11.3513C25.8038 11.3508 25.8038 11.3504 25.8038 11.3499C25.8038 9.74724 27.8688 9.09948 28.7842 10.415L33.4501 17.1202C33.6312 17.3805 33.7599 17.7157 33.7469 18.0913C33.7301 18.5762 33.6389 19.36 33.3551 20.1816C33.1406 20.8026 32.5934 22.1101 31.8497 23.4154C31.125 24.6874 30.131 26.1082 28.9789 26.7913C28.8782 26.851 28.7737 26.897 28.6663 26.9311C28.1172 27.1055 27.2726 27.256 26.3707 27.1835C25.4652 27.1106 24.4402 26.8063 23.6278 26.0045L20.1503 22.5723C19.6148 22.0438 18.548 21.832 17.2546 22.4101L12.7653 25.1529C12.739 25.169 12.7116 25.1835 12.6834 25.1962C12.2948 25.372 11.684 25.5528 11.0313 25.5565C10.3734 25.5602 9.58091 25.3801 8.99104 24.7196C8.85312 24.5651 8.769 24.3985 8.71496 24.2618L6.36632 18.3235C6.35702 18.3 6.34892 18.2761 6.34205 18.2518C6.19386 17.7277 6.11079 16.4712 7.0491 15.5451C7.71874 14.8842 11.7897 11.0744 13.8063 9.1915C13.8947 9.10895 14.0057 9.02138 14.1454 8.94885C14.3394 8.84805 14.6174 8.73044 14.9211 8.66433C15.2058 8.60236 15.6312 8.55945 16.0347 8.74805C16.3562 8.89836 16.659 9.11598 16.876 9.29029C16.8994 9.30911 16.9204 9.32363 16.9381 9.33431C17.0032 9.30277 17.0501 9.26433 17.0796 9.22402C17.3503 8.85415 18.2916 7.47759 18.7361 6.82403C18.7414 6.81621 18.7469 6.8085 18.7525 6.80089ZM24.4343 30.8956C24.2269 29.7835 25.2101 29.084 26.0525 29.084H28.5461C29.4478 29.084 30.4307 29.8679 30.1591 31.0001C29.9809 31.743 29.6371 32.4055 29.186 32.8955C28.7425 33.3774 28.136 33.7501 27.4434 33.7501C26.1721 33.7501 24.7584 32.6337 24.4343 30.8956ZM25.9111 30.6327C26.1246 31.7477 26.989 32.2501 27.4434 32.2501C27.5817 32.2501 27.8164 32.1686 28.0824 31.8796C28.3409 31.5988 28.5748 31.1739 28.7005 30.6502C28.7007 30.6492 28.7009 30.6483 28.7011 30.6475C28.6997 30.6455 28.6975 30.6426 28.6941 30.6389C28.6721 30.6153 28.62 30.584 28.5461 30.584H26.0525C25.9829 30.584 25.9323 30.6122 25.9111 30.6327Z" fill="#2C2C3A"/>
<circle cx="29.5" cy="14.5" r="2.5" fill="#A30800"/>
</svg>
