<svg id="Layer_1" data-name="Layer 1" xmlns="http://www.w3.org/2000/svg" viewBox="0 0 172.37 48"><path d="M74.5,35.16h-9a1.91,1.91,0,0,1-1-.22,4.36,4.36,0,0,0-1-.29,4.42,4.42,0,0,1-1-.32,6.67,6.67,0,0,1-1.08-.84,5.79,5.79,0,0,1-1.15-1.17,6.26,6.26,0,0,1-.9-1.81A14.05,14.05,0,0,1,59.22,27c0-2.79,0-5.58,0-8.37a5.2,5.2,0,0,1,.35-2,4.75,4.75,0,0,1,1.59-2.15c.44-.33.84-.71,1.3-1A5.24,5.24,0,0,1,63.6,13a11,11,0,0,1,1.13-.28,5.25,5.25,0,0,1,1-.16h17.7a5.15,5.15,0,0,1,1.56.31c.25.07.49.15.74.21a3.78,3.78,0,0,1,1.67.93c.4.35,1,.55,1.1,1.15.31.14.43.45.59.73A6.23,6.23,0,0,1,90,19.08c0,3.18,0,6.37,0,9.55a10.87,10.87,0,0,1-.29,2.19,3.36,3.36,0,0,1-.56,1c-.24.37-.51.72-.77,1.08a.31.31,0,0,1-.07.09l-1.73,1.31a.7.7,0,0,1-.2.08,9.73,9.73,0,0,0-1.64.49,3.65,3.65,0,0,1-1.78.28Zm.24-17.23c-1.37,0-2.75-.06-4.13,0-1.1.06-2.29-.05-3.14.94-.51.17-.67.69-.89,1.07a3.46,3.46,0,0,0-.32,1.5c0,1.51-.05,3,0,4.52a10.88,10.88,0,0,0,.3,1.69.79.79,0,0,0,.17.29A3.66,3.66,0,0,0,68,29.09c.21.11.39.34.6.38a12.54,12.54,0,0,0,1.93.22c2.73,0,5.47,0,8.2,0a20.18,20.18,0,0,0,2-.22.38.38,0,0,0,.16,0,4.32,4.32,0,0,0,2-2.73,1.84,1.84,0,0,0,0-.33c0-1.7,0-3.39,0-5.08a3.65,3.65,0,0,0-.84-2.16.58.58,0,0,0-.17-.14l-.81-.57a.75.75,0,0,0-.26-.19,11.83,11.83,0,0,0-1.75-.29C77.65,17.9,76.19,17.93,74.74,17.93Z" transform="translate(-1.78 0)" style="fill:#fff"/><path d="M146.07,35.14a2.06,2.06,0,0,1-.28-1.11c0-1.12,0-2.24,0-3.35,0-.85.12-1,1-1h9.77c2.65,0,5.29,0,7.93,0a4.94,4.94,0,0,0,1.59-.24,1.47,1.47,0,0,0,.81-1,1.73,1.73,0,0,0-.34-1.62.49.49,0,0,0-.23-.14c-.1-.05-.23-.05-.31-.11a2.44,2.44,0,0,0-1.74-.42H152.79a10.6,10.6,0,0,1-2.86-.32,2.34,2.34,0,0,1-.66-.39c-.38-.27-.91-.33-1.14-.81-.53-.09-.71-.61-1-.92a3.71,3.71,0,0,1-.82-1.35,9.14,9.14,0,0,1-.39-4.55,4.27,4.27,0,0,1,.43-1.59,5.15,5.15,0,0,1,1.44-1.78c.47-.31.87-.73,1.34-1a5,5,0,0,1,1.18-.48c.35-.11.71-.19,1.07-.27a4.13,4.13,0,0,1,.92-.16q10.56,0,21.11,0h.45a1.17,1.17,0,0,1,.33.91c0,1.21,0,2.42,0,3.63,0,.59-.21.85-.86.84q-8.55,0-17.09,0c-.79,0-1.59.14-2.31.21l-.56.61a1.31,1.31,0,0,0,0,1.77,2.49,2.49,0,0,0,1.93.91h11.89a12.64,12.64,0,0,1,2.37.26c.78.15,1.28.71,2,.93.27.41.75.61,1.06,1s.48.66.76,1a1.52,1.52,0,0,1,.43.95.49.49,0,0,0,.05.27,2.52,2.52,0,0,1,.36,1.65c0,.46,0,.93,0,1.39a3.13,3.13,0,0,1-.33,1.78,1,1,0,0,0-.06.16,4.61,4.61,0,0,1-1.56,2.4c-.34.32-.8.51-1.1.81-.47.46-1.05.46-1.57.68a11.06,11.06,0,0,1-1.27.41,1.57,1.57,0,0,1-.49.07H146.49Z" transform="translate(-1.78 0)" style="fill:#fff"/><path d="M29.94,12.55a5.18,5.18,0,0,1,.16.9c0,1.22,0,2.45,0,3.68a1.72,1.72,0,0,1,0,.39.45.45,0,0,1-.5.41,5.23,5.23,0,0,0-.56,0c-5.66,0-11.32,0-17,0a17.72,17.72,0,0,0-2,.24c-.4.05-.56.37-.69.65a1.93,1.93,0,0,0-.06,1.58c.11.27.24.55.6.58H9.9c.54.55,1.23.43,1.89.43H22.9a7.19,7.19,0,0,1,2.65.3,2.51,2.51,0,0,0,.55.07c.09,0,.21,0,.26.07.55.55,1.33.78,1.85,1.35a6.54,6.54,0,0,1,1.52,2.19A9.09,9.09,0,0,1,30.08,29c0,.26-.07.52-.06.77a3.38,3.38,0,0,1-.46,1.64c-.12.23-.17.53-.35.68-.36.31-.57.74-.94,1a14.18,14.18,0,0,1-1.37,1,2.17,2.17,0,0,1-.53.26L24.58,35a4.85,4.85,0,0,1-.63.16,3.47,3.47,0,0,1-.56,0q-10.29,0-20.6,0c-.88,0-1,.25-1-1s0-2.49,0-3.74c0-.56.08-.65.63-.69.22,0,.45,0,.67,0H20.4A15.32,15.32,0,0,0,22,29.48l.11,0A2,2,0,0,0,23,27.5a2.22,2.22,0,0,0-.65-.79,1.82,1.82,0,0,0-.69-.32,3.74,3.74,0,0,0-1-.19c-4,0-8,0-11.95,0a9.38,9.38,0,0,1-1.06,0,5.11,5.11,0,0,1-2.51-.76,7.63,7.63,0,0,1-1.92-1.62,9.73,9.73,0,0,1-1-1.78,5.76,5.76,0,0,1-.38-2.34c0-.26,0-.52,0-.78a5.52,5.52,0,0,1,1.31-3.66,9.4,9.4,0,0,1,1.79-1.55,7.79,7.79,0,0,1,2.22-.92A5.1,5.1,0,0,1,9,12.55h21Z" transform="translate(-1.78 0)" style="fill:#fff"/><path d="M113.78,28.53c.44.67.86,1.28,1.26,1.91a6.13,6.13,0,0,0,.33.68,12.68,12.68,0,0,0,1,1.44,1.49,1.49,0,0,1,.25.54c.17.45.59.73.74,1.2a1.3,1.3,0,0,1,.05.83h-8.28a4.35,4.35,0,0,1-.49-.57c-.17-.27-.27-.57-.41-.84s-.23-.38-.34-.57a.71.71,0,0,1-.14-.29,2.85,2.85,0,0,0-.56-1.24,1.18,1.18,0,0,1-.13-.18l-.84-2a1,1,0,0,0-.78-.56,1.63,1.63,0,0,0-.44,0H99.07c-.26,0-.56,0-.7.23a1.52,1.52,0,0,0-.14.63c0,1.45,0,2.91,0,4.36a1.52,1.52,0,0,1-.33,1.08H91.3A11,11,0,0,1,91.21,34q0-9.31,0-18.64c0-.62,0-1.23,0-1.84a3.38,3.38,0,0,1,0-.45c.07-.46.14-.52.61-.53H92q9.69,0,19.38,0a3.23,3.23,0,0,1,.87.14c.64.18,1.27.39,1.9.58.06,0,.12,0,.16.05a10.3,10.3,0,0,1,2.35,2.06,5.22,5.22,0,0,1,.94,2.37c.06.59.13,1.18.15,1.77,0,.82,0,1.64,0,2.46a8.77,8.77,0,0,1-.54,3.17,1.33,1.33,0,0,1-.16.34c-.22.34-.43.69-.67,1a3.2,3.2,0,0,1-.63.59c-.55.4-1.12.76-1.68,1.15A2.72,2.72,0,0,0,113.78,28.53ZM103.69,23.4h4.19l.72,0a2.16,2.16,0,0,0,1.42-.67,3,3,0,0,0,.73-1.91,2.1,2.1,0,0,0-.08-.66,5,5,0,0,0-.19-.69,2,2,0,0,0-1.22-1.22,6.59,6.59,0,0,0-2-.29c-2.77,0-5.55,0-8.32,0-.55,0-.74.2-.74.74v4c0,.11,0,.23,0,.34a.38.38,0,0,0,.37.35,3.39,3.39,0,0,0,.45,0Z" transform="translate(-1.78 0)" style="fill:#fff"/><path d="M38.24,35.13H31.65A2,2,0,0,1,31.34,34c0-6.77,0-13.55,0-20.32a3.64,3.64,0,0,1,.16-.85.4.4,0,0,1,.43-.29H51.48a6.34,6.34,0,0,1,1.63.3c.45.12.87.29,1.31.43.07,0,.17,0,.21.07.46.54,1.18.76,1.65,1.3.27.31.51.66.77,1A4.8,4.8,0,0,1,57.71,17,3.79,3.79,0,0,1,58,18.13c0,1.75,0,3.5,0,5.25a2.82,2.82,0,0,1-.33,1.27c-.13.24-.16.54-.31.77a4.33,4.33,0,0,1-1.12,1.37c-.42.29-.76.69-1.17,1a4.56,4.56,0,0,1-.88.45c-.06,0-.15,0-.21.07a4.86,4.86,0,0,1-2.85.52c-2.79,0-5.58,0-8.38,0H39.44a3.38,3.38,0,0,0-.45,0,.62.62,0,0,0-.65.68c0,.33,0,.67,0,1,0,1.17,0,2.34,0,3.52C38.32,34.39,38.27,34.74,38.24,35.13ZM43.91,23.4h4.63a2.15,2.15,0,0,0,1.85-.84,4,4,0,0,0,.42-.88,2.86,2.86,0,0,0,0-1.85c-.15-.67-.68-1-1-1.53a.43.43,0,0,0-.25-.1c-.81-.09-1.63-.25-2.44-.26-2.53,0-5.06,0-7.59,0h-.39c-.53.06-.83.27-.81.83,0,1.27,0,2.53,0,3.8a2.62,2.62,0,0,0,0,.28c0,.41.13.51.55.55a3.2,3.2,0,0,0,.44,0Z" transform="translate(-1.78 0)" style="fill:#fff"/><path d="M135.08,35.13H128.3c0-.37-.09-.71-.09-1.05,0-5,0-10.08,0-15.12,0-1,0-1-1-1h-7.53a.63.63,0,0,1-.69-.69c0-1.29,0-2.57,0-3.85a3,3,0,0,1,.27-.83h24.51c.57,0,.75.1.87.49a1.68,1.68,0,0,1,0,.45c0,1.2,0,2.41,0,3.62,0,.62-.17.8-.78.81h-7.43a4.21,4.21,0,0,0-.5,0c-.58.08-.72.24-.72.83V34.11A1.87,1.87,0,0,1,135.08,35.13Z" transform="translate(-1.78 0)" style="fill:#fff"/><path d="M23.89,3.7h.45l1.05-1.24c.48-.57,1-1.12,1.43-1.72a1.46,1.46,0,0,1,1-.69,6,6,0,0,1,2.1.09A5.93,5.93,0,0,1,30,.73q0,3.38,0,6.75a5,5,0,0,1-.06.6c-.72,0-1.4,0-2.09,0-.3,0-.37-.26-.37-.52V5.94c0-.48,0-1,0-1.45,0-.21,0-.44-.24-.5s-.32.12-.45.26a24.67,24.67,0,0,1-2.2,2.59,1.2,1.2,0,0,0-.2.37A.47.47,0,0,1,23.77,7a14.45,14.45,0,0,0-1.11-1.37L21.52,4.28A6.22,6.22,0,0,0,21,3.84c0,.35-.08.56-.09.77V7.35c0,.64-.1.73-.75.75H18.32c0-.25-.06-.43-.06-.61V.74c0-.61,0-.68.65-.71s1,0,1.45,0a1.29,1.29,0,0,1,1,.57c.41.49.76,1,1.21,1.49s.59.88,1.07,1.16C23.77,3.33,23.81,3.54,23.89,3.7Z" transform="translate(-1.78 0)" style="fill:#fff"/><path d="M56.87,40c1.11,0,2.25.08,3.38.1a1.24,1.24,0,0,1,.8.32,2.52,2.52,0,0,1,1,2.08q0,1.59,0,3.18A2.23,2.23,0,0,1,59.93,48l-.39,0c-2.1,0-4.2,0-6.31,0a2.8,2.8,0,0,1-1.81-.7.31.31,0,0,1-.13-.17,4.7,4.7,0,0,1-.5-2.09c0-.7,0-1.41,0-2.12A3,3,0,0,1,51.27,41a1.8,1.8,0,0,1,1.45-1C54.1,40.06,55.47,40,56.87,40ZM56.45,46h1.73a1,1,0,0,0,.76-.27,1.41,1.41,0,0,0,.5-1V43.16a1.15,1.15,0,0,0-.6-1,2,2,0,0,0-.9-.24,24,24,0,0,0-3.06,0c-.87.08-1.29.34-1.4,1.21a7.61,7.61,0,0,0,0,1.72A1.24,1.24,0,0,0,54.78,46Z" transform="translate(-1.78 0)" style="fill:#fff"/><path d="M79.59,8.1l-1-2a2.35,2.35,0,0,0-.39,0c-.61,0-1.23,0-1.84,0-.4,0-.49.1-.52.49s0,.67,0,1-.12.56-.57.57-1.08,0-1.62,0c-.28,0-.4-.14-.4-.42a2.61,2.61,0,0,0,0-.28V.85c0-.67.08-.75.76-.82a2.55,2.55,0,0,1,.39,0c1.91,0,3.83,0,5.75,0a11.49,11.49,0,0,1,1.78.39A.2.2,0,0,1,82,.46c.29.51.87.87.85,1.57s0,1.22,0,1.84a2,2,0,0,1-1,1.65c-.31.21-.33.28-.11.6a16.62,16.62,0,0,0,.92,1.49c.16.18.07.39-.17.46a.47.47,0,0,1-.17,0ZM76.05,1.94a2.47,2.47,0,0,0-.22,1.7.37.37,0,0,0,.42.35c1.06,0,2.12,0,3.17,0,.57,0,.82-.4.81-1.05a1,1,0,0,0-.86-1C78.26,1.93,77.15,1.94,76.05,1.94Z" transform="translate(-1.78 0)" style="fill:#fff"/><path d="M69,43a6.2,6.2,0,0,0-.08.74c0,1.1,0,2.2,0,3.29,0,.76-.15.91-.91,1a8.34,8.34,0,0,1-1,0c-.65,0-.74-.14-.75-.78V40.11c.31,0,.56-.09.81-.1s.74,0,1.12,0a1.57,1.57,0,0,1,1.43.65A14.85,14.85,0,0,0,71,42.08c.75.76,1.48,1.53,2.22,2.28a7.49,7.49,0,0,0,.6.49c.33-.09.31-.37.31-.62V40.88c0-.15,0-.3,0-.45a.32.32,0,0,1,.32-.37,10.66,10.66,0,0,1,2.26,0v7.08c0,.13,0,.26,0,.39s-.12.43-.39.42c-.71,0-1.41,0-2.12,0a.85.85,0,0,1-.43-.22c-.44-.42-.86-.85-1.29-1.28-.89-.88-1.79-1.77-2.67-2.67-.25-.25-.49-.52-.74-.78Z" transform="translate(-1.78 0)" style="fill:#fff"/><path d="M100.23,40.1a9,9,0,0,1,2.54,0,.28.28,0,0,1,.16,0,16.72,16.72,0,0,1,1.22,1.16,14.19,14.19,0,0,0,1,1,3.2,3.2,0,0,0,1,.86c.12.53.71.65,1,1.1.14.26.51.39.84.63,0-.07.17-.15.21-.27a2,2,0,0,0,0-.5v-3.4c0-.2,0-.4,0-.65a8.42,8.42,0,0,1,2.24,0,.36.36,0,0,1,.33.43c0,.37,0,.75,0,1.12v5.3c0,.17,0,.33,0,.5a.5.5,0,0,1-.44.51,5.49,5.49,0,0,1-2.21,0c-.18,0-.37-.07-.42-.3a.16.16,0,0,0-.07-.09c-.52-.14-.68-.68-1.09-1a7.19,7.19,0,0,1-.91-.92L105,45c-.21-.2-.32-.45-.61-.6a2.53,2.53,0,0,1-.85-.84c-.18-.31-.47-.38-.78-.67,0,.29-.06.48-.06.67V47c0,.15,0,.3,0,.45s-.11.42-.34.43c-.59,0-1.18,0-1.78,0-.22,0-.34-.19-.35-.43a2.44,2.44,0,0,1,0-.27q0-3.33,0-6.64C100.2,40.42,100.22,40.29,100.23,40.1Z" transform="translate(-1.78 0)" style="fill:#fff"/><path d="M132.72,1.88c-.32,0-.56.05-.79.05h-4.8c-.46,0-.61.15-.63.58s.12.67.64.67h4.63c.95,0,1,0,1,1,0,.6-.23.84-.84.84h-4.35A3.44,3.44,0,0,0,127,5a.57.57,0,0,0-.49.58c0,.33.09.43.43.45s.63,0,.94,0h4.08a.68.68,0,0,1,.78.73,5.77,5.77,0,0,1,0,.72c0,.4-.15.53-.54.56h-7.31a2.54,2.54,0,0,1-.39,0c-.35,0-.45-.12-.49-.48,0-.11,0-.22,0-.34V1a2.54,2.54,0,0,1,0-.39.59.59,0,0,1,.59-.56h7.14a2.55,2.55,0,0,1,.39,0,.61.61,0,0,1,.6.61C132.74,1,132.72,1.42,132.72,1.88Z" transform="translate(-1.78 0)" style="fill:#fff"/><path d="M123.68,40.12c0,.41,0,.72,0,1,0,.56-.17.73-.73.73-1.51,0-3,0-4.52,0a2.15,2.15,0,0,0-.74.17c-.27.09-.23.34-.23.56s.19.33.37.37a3.35,3.35,0,0,0,.71.07h4.3c.72,0,.84.13.84.85a3.2,3.2,0,0,1,0,.44.52.52,0,0,1-.55.52c-.27,0-.55,0-.83,0h-3.74c-.21,0-.41,0-.61,0-.4.06-.46.12-.48.48s.07.61.61.61h5.07c.31,0,.51.17.53.46a6,6,0,0,1,0,1,.5.5,0,0,1-.51.49c-.3,0-.6,0-.89,0h-6.36c-.77,0-1-.18-1-1V40.71c0-.61.08-.7.71-.7H123A4,4,0,0,1,123.68,40.12Z" transform="translate(-1.78 0)" style="fill:#fff"/><path d="M101.21,2.06l.55-.14c.08,0,.22,0,.25-.09.31-.58,1-.76,1.39-1.22A1.73,1.73,0,0,1,104.65,0c.84,0,1.68,0,2.51,0a2.78,2.78,0,0,1,.55.1,1.34,1.34,0,0,1-.86,1,1.61,1.61,0,0,0-.48.41c-.16.2-.3.42-.61.42a.29.29,0,0,0-.21.16c-.09.24-.32.29-.48.43a9.31,9.31,0,0,0-.64.72,7.92,7.92,0,0,0,.74,1c.34.35.58.78.94,1.12A8.4,8.4,0,0,1,107,6.66c.17.23.39.42.58.64a1.6,1.6,0,0,1,.21.32c.14.24.08.39-.17.46a.82.82,0,0,1-.22,0h-2.07a.62.62,0,0,1-.51-.26c-.54-.65-1.11-1.27-1.66-1.92-.21-.26-.37-.55-.58-.81s-.36-.31-.66,0-.35.29-.54.43a1,1,0,0,0-.37.89c0,.41,0,.82,0,1.22s-.07.48-.5.49c-.59,0-1.18,0-1.81,0a6.5,6.5,0,0,1-.07-.66c0-2.23,0-4.47,0-6.7,0-.11,0-.22,0-.33A.39.39,0,0,1,99.08,0c.5,0,1,0,1.5,0s.44.15.46.51,0,.63,0,1A3.43,3.43,0,0,0,101.21,2.06Z" transform="translate(-1.78 0)" style="fill:#fff"/><path d="M130.26,43.72l.69,0h40.69c.43,0,.49.07.51.41s-.1.6-.49.65a2.9,2.9,0,0,1-.51,0H130.86c-.58,0-.73-.2-.68-.76A2.27,2.27,0,0,1,130.26,43.72Z" transform="translate(-1.78 0)" style="fill:#fff"/><path d="M23.11,43.69H43.59c.38,0,.45.08.49.39a.51.51,0,0,1-.39.64,3.44,3.44,0,0,1-.72.05H3.34c-.22,0-.44,0-.67,0a.56.56,0,0,1-.56-.56c0-.36.16-.5.57-.51H23.11Z" transform="translate(-1.78 0)" style="fill:#fff"/><path d="M48.39,8.09c-.69,0-1.37,0-2.06,0-.38,0-.45-.22-.25-.58.36-.62.71-1.25,1.06-1.88s.77-1.38,1.14-2.08.69-1.4,1.06-2.09A6.7,6.7,0,0,1,50,.34a.87.87,0,0,1,.57-.28c.7,0,1.41,0,2.12,0,.34,0,.48.28.65.54a15,15,0,0,0,1.27,2.15c.08.65.57,1.1.84,1.66s.66,1.22,1,1.82.54,1,.82,1.44a.26.26,0,0,1-.14.4.4.4,0,0,1-.22.05h-2.1l-3-5.35h-.39C50.42,4.54,49.42,6.29,48.39,8.09Z" transform="translate(-1.78 0)" style="fill:#fff"/><path d="M154.39,8.08c-.8,0-1.52,0-2.25,0-.37,0-.4-.09-.4-.58,0-1.56,0-3.12,0-4.68,0-.28,0-.55,0-.89h-3.22c0-.52,0-1,0-1.4a.51.51,0,0,1,.47-.47,3.52,3.52,0,0,1,.56,0h7.26a3.17,3.17,0,0,1,.44,0,.5.5,0,0,1,.49.52c0,.42,0,.85,0,1.32-1.07.14-2.1,0-3.18.1,0,.3-.06.57-.06.85,0,1.5,0,3,0,4.52C154.44,7.56,154.41,7.77,154.39,8.08Z" transform="translate(-1.78 0)" style="fill:#fff"/><path d="M81.1,40.08a8.12,8.12,0,0,1,2.41,0,6.41,6.41,0,0,1,.07.73v4.23c0,.3,0,.59.09.93.27,0,.51.06.74.06h4c.57,0,.68.12.72.67C89.16,47.79,89,48,88,48,86,48,84,48,82,48a3.15,3.15,0,0,1-.44,0c-.44-.05-.57-.17-.57-.6,0-2.36,0-4.72,0-7.08A1,1,0,0,1,81.1,40.08Z" transform="translate(-1.78 0)" style="fill:#fff"/><path d="M93.3,40.11a8,8,0,0,1,2.67,0v7a2.62,2.62,0,0,0,0,.28c0,.29-.11.47-.4.49a8.52,8.52,0,0,1-1.67,0c-.57-.08-.66-.23-.66-.72V40.47A2.06,2.06,0,0,1,93.3,40.11Z" transform="translate(-1.78 0)" style="fill:#fff"/></svg>
