<svg  viewBox="0 0 32 32" fill="none" xmlns="http://www.w3.org/2000/svg">
<g clip-path="url(#clip0_223_9364)">
<path d="M20.6632 11.1146H22.5092L22.3235 10.5573V9.07124L21.5804 8.32821H20.9999L20.8258 8.15407V7.79416L21.0115 7.22528H19.1772L19.3629 7.79416V8.15407L19.1888 8.32821H18.6315L17.8885 9.07124V12.7167L18.6315 13.4714H20.6632L20.8258 13.6339V15.4915L20.6632 15.6656H19.5255L19.3629 15.4915V14.9226L19.5487 14.3653H17.7144L17.8885 14.9226V16.4086L18.6315 17.1517H19.1888L19.3629 17.3258V17.6741L19.1772 18.2314H21.0115L20.8258 17.6741V17.3258L20.9999 17.1517H21.5804L22.3235 16.4086V12.7167L21.5804 11.9969H19.5255L19.3629 11.8228V9.97681L19.5255 9.81427H20.6632L20.8258 9.97681V10.5573L20.6632 11.1146Z" />
<path fill-rule="evenodd" clip-rule="evenodd" d="M11.0606 12.6774C11.0606 14.4676 11.5914 16.2176 12.586 17.7061C13.5806 19.1946 14.9942 20.3547 16.6481 21.0398C18.302 21.7249 20.122 21.9041 21.8778 21.5549C23.6335 21.2056 25.2463 20.3436 26.5122 19.0777C27.7781 17.8119 28.6401 16.1991 28.9894 14.4433C29.3386 12.6875 29.1594 10.8676 28.4743 9.21363C27.7892 7.55971 26.6291 6.14608 25.1406 5.1515C23.6521 4.15693 21.9021 3.62607 20.1119 3.62607L20.1119 2.25302C22.1737 2.25302 24.1891 2.8644 25.9034 4.00985C27.6177 5.1553 28.9538 6.78338 29.7428 8.68819C30.5318 10.593 30.7383 12.689 30.336 14.7111C29.9338 16.7333 28.941 18.5907 27.4831 20.0486C26.0252 21.5065 24.1678 22.4993 22.1456 22.9016C20.1235 23.3038 18.0275 23.0974 16.1227 22.3084C14.2179 21.5194 12.5898 20.1832 11.4443 18.4689C10.2989 16.7547 9.6875 14.7392 9.6875 12.6774L11.0606 12.6774Z" />
<path fill-rule="evenodd" clip-rule="evenodd" d="M20.405 3.01022L22.2026 4.96839L21.1911 5.89691L18.5701 3.04177L21.1754 8.52627e-05L22.2183 0.893289L20.405 3.01022Z" />
<path fill-rule="evenodd" clip-rule="evenodd" d="M6.4585 29.5398L14.8617 31.9999L23.0332 29.4317V28.9813C23.0332 28.1522 22.8407 27.4606 22.4337 26.9282C22.0158 26.3818 21.4197 26.1148 20.6776 26.1148H17.4925C17.4602 25.5522 17.3049 25.0679 17.0139 24.6743C16.6978 24.2454 16.308 23.9411 15.8452 23.7728L8.93973 21.2332H1.46338V30.9396H6.4585V29.5398ZM9.96881 26.4855L12.3731 27.2661C12.8059 27.4231 13.2799 27.5347 13.7942 27.6022C14.3053 27.6702 14.8212 27.7041 15.3419 27.7041H20.6776C20.8848 27.7041 21.0415 27.7722 21.1657 27.9036C21.2615 28.0045 21.3305 28.1366 21.3652 28.3096L14.8011 30.3335L6.4585 27.8749V22.8225H8.68861L15.2903 25.2488C15.4905 25.3261 15.6389 25.4498 15.744 25.6222C15.8215 25.7498 15.875 25.9117 15.8975 26.114C15.1459 26.1092 14.5593 26.0812 14.1344 26.0312C13.6647 25.9759 13.2508 25.8845 12.8909 25.7585L10.5208 24.9477L9.96881 26.4855ZM3.05274 22.8225H4.86915V29.3502H3.05274V22.8225Z" />
</g>
<defs>
<clipPath id="clip0_223_9364">
<rect width="32" height="32" />
</clipPath>
</defs>
</svg>
