<svg viewBox="0 0 40 40" fill="none" xmlns="http://www.w3.org/2000/svg">
<path d="M5.13157 27H9.60481L10.7187 25.9224V23.7158L11.0016 22.8947H8.19034L8.49092 23.7158V24.5539L8.24339 24.8105H6.49299L6.22778 24.5539V16.3947L6.49299 16.1382H8.24339L8.49092 16.3947V17.25L8.19034 18.0711H11.0016L10.7187 17.25V15.0605L9.60481 14H5.13157L4 15.0605V25.9224L5.13157 27Z" fill="#A30800"/>
<path d="M19.4272 24.5882L18.5078 24.8276H15.0777L14.8125 24.5882V14.8382L15.0777 14H12.3018L12.5847 14.8382V26.1789L12.3018 27H19.0205L19.4272 24.5882Z" fill="#A30800"/>
<path d="M27.6497 14H24.8385L25.1213 14.8382V24.5882L24.8561 24.8276H23.1234L22.8582 24.5882V14.8382L23.1411 14H20.3652L20.6481 14.8382V25.9224L21.7443 27H26.2352L27.3668 25.9224V14.8382L27.6497 14Z" fill="#A30800"/>
<path d="M29.2813 14.8211V26.1618L28.9984 27H34.8684L36 25.9224V21.475L34.8508 20.3803L36 19.3026V15.0605L34.8684 14H28.9984L29.2813 14.8211ZM31.5091 16.3947L31.7743 16.1382H33.4893L33.7545 16.3947V19.0632L33.4893 19.3026H31.7743L31.5091 19.0632V16.3947ZM33.7545 21.7316V24.5539L33.4893 24.8105H31.7743L31.5091 24.5539V21.7316L31.7743 21.475H33.4893L33.7545 21.7316Z" fill="#A30800"/>
</svg>
