<svg xmlns="http://www.w3.org/2000/svg" viewBox="0 0 47.69 15.6"><path d="M.24,15.69h5l6.67,7.71c4.4-5.15,6.61-7.71,6.63-7.71h5s.06,0,.06.06V31.22s0,.07-.06.07H18.68s-.07,0-.07-.07V22l-6.67,7.75h-.07S9.59,27.16,5.15,22v9.21s0,.07-.07.07H.22s-.06,0-.06-.07V15.75s0-.06.06-.06Z" transform="translate(-0.16 -15.69)" style="fill:#fff;fill-rule:evenodd"/><path d="M32.32,15.69H47.77a.06.06,0,0,1,.07.07v3.55c0,.05,0,.07-.07.07H34a1.23,1.23,0,0,0-1.24.81,3,3,0,0,0-.07.42c0,.57.35,1,1.08,1.19H43a5,5,0,0,1,4.26,2.26,4.13,4.13,0,0,1,.56,2v.87q0,3-3.45,4.22a6.57,6.57,0,0,1-1.43.18H27.58s-.07,0-.07-.07V27.66a.07.07,0,0,1,.07-.07h13.8a1.21,1.21,0,0,0,1.19-.7,1.23,1.23,0,0,0,.14-.52c0-.56-.33-.95-1-1.15a2.61,2.61,0,0,0-.42,0h-9a5,5,0,0,1-4.25-2.26,4.07,4.07,0,0,1-.56-2v-1a4.07,4.07,0,0,1,2.3-3.56,5.15,5.15,0,0,1,2.51-.66Z" transform="translate(-0.16 -15.69)" style="fill:#fff;fill-rule:evenodd"/></svg>
