<svg width="48" height="32" viewBox="0 0 48 32" fill="none" xmlns="http://www.w3.org/2000/svg">
<path d="M21.3333 22.7587H18.093L20.1197 10.2271H23.3598L21.3333 22.7587Z" fill="#00579F"/>
<path d="M33.0796 10.5335C32.4405 10.28 31.4268 10 30.1733 10C26.9734 10 24.7201 11.7063 24.7063 14.1459C24.6797 15.9458 26.3196 16.9455 27.5461 17.5457C28.7997 18.1589 29.2259 18.5592 29.2259 19.1058C29.2131 19.9453 28.2129 20.3323 27.28 20.3323C25.9863 20.3323 25.2931 20.1328 24.2397 19.6657L23.813 19.4655L23.3596 22.2786C24.1196 22.6248 25.5197 22.9321 26.9734 22.9455C30.3734 22.9455 32.5868 21.2656 32.613 18.6659C32.626 17.2393 31.76 16.1462 29.8932 15.253C28.7599 14.6796 28.0658 14.293 28.0658 13.7063C28.0791 13.1729 28.6528 12.6267 29.9321 12.6267C30.9855 12.5999 31.7595 12.8531 32.3458 13.1065L32.6389 13.2396L33.0796 10.5335Z" fill="#00579F"/>
<path d="M37.3862 18.3192C37.653 17.5992 38.6798 14.8129 38.6798 14.8129C38.6664 14.8397 38.9461 14.0797 39.1061 13.6132L39.3326 14.693C39.3326 14.693 39.9462 17.6926 40.0795 18.3192C39.573 18.3192 38.0262 18.3192 37.3862 18.3192ZM41.3859 10.2271H38.8795C38.1066 10.2271 37.5194 10.4535 37.1859 11.2668L32.3729 22.7585H35.7728C35.7728 22.7585 36.3326 21.2118 36.4529 20.8787C36.8259 20.8787 40.1333 20.8787 40.6131 20.8787C40.7062 21.3186 40.9998 22.7585 40.9998 22.7585H44L41.3859 10.2271Z" fill="#00579F"/>
<path d="M15.3866 10.2271L12.2133 18.7724L11.8665 17.0393C11.2798 15.0395 9.43988 12.8668 7.3866 11.7865L10.2932 22.7454H13.7197L18.8129 10.2271H15.3866Z" fill="#00579F"/>
<path d="M9.26663 10.2271H4.05333L4 10.4803C8.0667 11.5202 10.76 14.0269 11.8665 17.0398L10.7332 11.2804C10.5467 10.4801 9.97326 10.2535 9.26663 10.2271Z" fill="#FAA61A"/>
</svg>
