<svg width="56" height="32" viewBox="0 0 56 32" fill="none" xmlns="http://www.w3.org/2000/svg">
<g clip-path="url(#clip0_25_5231)">
<path d="M55.1422 13.2035L53.4559 12.2246L51.7452 11.2308C50.6144 10.5732 49.201 11.3989 49.201 12.7239V12.9464C49.201 13.07 49.2644 13.1837 49.3716 13.2431L50.1661 13.7029C50.3854 13.8314 50.6583 13.6683 50.6583 13.4112V12.8821C50.6583 12.6201 50.9361 12.4569 51.1603 12.5855L52.7199 13.4952L54.2747 14.4C54.4989 14.5286 54.4989 14.8598 54.2747 14.9884L52.7199 15.8932L51.1603 16.8029C50.9361 16.9315 50.6583 16.7683 50.6583 16.5063V16.2442C50.6583 14.9192 49.2449 14.0885 48.1142 14.7511L46.4035 15.7449L44.7171 16.7238C43.5815 17.3864 43.5815 19.0526 44.7171 19.7151L46.4035 20.6941L48.1142 21.6879C49.2449 22.3455 50.6583 21.5198 50.6583 20.1947V19.9722C50.6583 19.8486 50.5949 19.7349 50.4877 19.6756L49.6933 19.2157C49.474 19.0872 49.201 19.2504 49.201 19.5075V20.0365C49.201 20.2985 48.9232 20.4617 48.699 20.3332L47.1394 19.4234L45.5847 18.5186C45.3605 18.3901 45.3605 18.0588 45.5847 17.9302L47.1394 17.0254L48.699 16.1157C48.9232 15.9871 49.201 16.1503 49.201 16.4123V16.6744C49.201 17.9995 50.6144 18.8301 51.7452 18.1676L53.4559 17.1738L55.1422 16.1948C56.2778 15.5273 56.2778 13.8661 55.1422 13.2035ZM44.0787 13.5298L40.1309 21.8016H38.4933L39.9701 18.7114L37.6453 13.5298H39.3267L40.8181 17.0007L42.4459 13.5298H44.0787ZM4.60574 16.4667C4.60574 15.4779 3.89904 14.7857 3.03151 14.7857C2.16397 14.7857 1.45727 15.4927 1.45727 16.4667C1.45727 17.4309 2.16397 18.1478 3.03151 18.1478C3.89904 18.1478 4.60574 17.4556 4.60574 16.4667ZM4.62037 19.4036V18.6422C4.19147 19.1712 3.553 19.4976 2.79269 19.4976C1.20383 19.4976 0 18.2071 0 16.4667C0 14.7412 1.25257 13.426 2.82681 13.426C3.56762 13.426 4.19147 13.7573 4.62037 14.2715V13.5298H6.04352V19.4036H4.62037ZM12.9643 18.0983C12.4672 18.0983 12.3258 17.9105 12.3258 17.416V14.8104H13.2421V13.5298H12.3258V12.096H10.8686V13.5298H8.98729V12.9464C8.98729 12.452 9.1725 12.2641 9.68425 12.2641H10.0059V11.1269H9.30409C8.10026 11.1269 7.53003 11.5274 7.53003 12.7486V13.5348H6.72097V14.8104H7.53003V19.4036H8.98729V14.8104H10.8686V17.688C10.8686 18.8845 11.3218 19.4036 12.5013 19.4036H13.2519V18.0983H12.9643ZM18.1988 15.9377C18.0964 15.1763 17.4823 14.7165 16.761 14.7165C16.0446 14.7165 15.45 15.1614 15.3037 15.9377H18.1988ZM15.2891 16.8524C15.3915 17.7226 16.0056 18.217 16.7854 18.217C17.3995 18.217 17.8722 17.9253 18.15 17.4556H19.6463C19.3003 18.7015 18.1988 19.4976 16.7513 19.4976C15.0016 19.4976 13.7734 18.2516 13.7734 16.4766C13.7734 14.7016 15.0698 13.4211 16.7854 13.4211C18.5107 13.4211 19.7633 14.7115 19.7633 16.4766C19.7633 16.6052 19.7535 16.7337 19.7292 16.8524H15.2891ZM29.043 16.4667C29.043 15.5174 28.3363 14.7857 27.4688 14.7857C26.6012 14.7857 25.8945 15.4927 25.8945 16.4667C25.8945 17.4309 26.6012 18.1478 27.4688 18.1478C28.3363 18.1478 29.043 17.421 29.043 16.4667ZM24.4567 21.8016V13.5298H25.8799V14.2913C26.3088 13.7523 26.9473 13.4211 27.7076 13.4211C29.2721 13.4211 30.5003 14.7264 30.5003 16.4519C30.5003 18.1775 29.2477 19.4926 27.6735 19.4926C26.9424 19.4926 26.3429 19.2009 25.9238 18.7065V21.7967H24.4567V21.8016ZM35.6324 16.4667C35.6324 15.4779 34.9257 14.7857 34.0581 14.7857C33.1906 14.7857 32.4839 15.4927 32.4839 16.4667C32.4839 17.4309 33.1906 18.1478 34.0581 18.1478C34.9257 18.1478 35.6324 17.4556 35.6324 16.4667ZM35.647 19.4036V18.6422C35.2181 19.1712 34.5796 19.4976 33.8193 19.4976C32.2305 19.4976 31.0266 18.2071 31.0266 16.4667C31.0266 14.7412 32.2792 13.426 33.8534 13.426C34.5943 13.426 35.2181 13.7573 35.647 14.2715V13.5298H37.0701V19.4036H35.647ZM21.8882 14.1034C21.8882 14.1034 22.2489 13.4211 23.1408 13.4211C23.521 13.4211 23.7647 13.5546 23.7647 13.5546V15.0527C23.7647 15.0527 23.2285 14.7165 22.7363 14.7857C22.244 14.8549 21.9321 15.3098 21.9321 15.9229V19.3987H20.4602V13.5298H21.8834V14.1034H21.8882Z" fill="black"/>
</g>
<defs>
<clipPath id="clip0_25_5231">
<rect width="56" height="10.9268" fill="white" transform="translate(0 11)"/>
</clipPath>
</defs>
</svg>
