<svg width="48" height="32" viewBox="0 0 48 32" fill="none" xmlns="http://www.w3.org/2000/svg">
<path d="M22.8803 15.7574V20.4358H21.4099V8.87354H25.3531C26.2888 8.87354 27.2245 9.2077 27.8928 9.87604C28.5611 10.4776 28.9622 11.4132 28.9622 12.2821C28.9622 13.2177 28.628 14.0866 27.8928 14.7549C27.2245 15.4233 26.3556 15.7574 25.3531 15.7574H22.8803ZM22.8803 10.3439V14.3539H25.3531C25.8878 14.3539 26.4225 14.1534 26.8235 13.7524C27.6255 13.0172 27.6255 11.7474 26.8903 10.9454C26.8903 10.9454 26.8903 10.9454 26.8235 10.8786C26.4225 10.4776 25.8878 10.277 25.3531 10.277L22.8803 10.3439ZM32.3707 12.2821C33.44 12.2821 34.3089 12.5494 34.9772 13.1509C35.5787 13.7524 35.9129 14.5544 35.9129 15.5569V20.4358H34.5094V19.2996H34.4425C33.841 20.1685 33.039 20.6363 31.9697 20.6363C31.1008 20.6363 30.3657 20.369 29.7642 19.8343C29.2295 19.3665 28.8953 18.6313 28.8953 17.8961C28.8953 17.0941 29.2295 16.4258 29.831 15.9579C30.4325 15.4901 31.3013 15.2228 32.3038 15.2228C33.1727 15.2228 33.9079 15.3564 34.4425 15.6906V15.3564C34.4425 14.8218 34.242 14.3539 33.841 14.0198C33.44 13.6856 32.9722 13.4851 32.4375 13.4851C31.6355 13.4851 30.9672 13.8192 30.4993 14.5544L29.2295 13.7524C29.8978 12.8167 30.9672 12.2821 32.3707 12.2821ZM30.4325 17.963C30.4325 18.364 30.633 18.6981 30.9003 18.8986C31.2345 19.166 31.6355 19.2996 32.0365 19.2996C32.638 19.2996 33.2395 19.0323 33.7074 18.6313C34.1752 18.1635 34.4425 17.6288 34.4425 17.0273C33.9747 16.6931 33.3064 16.4926 32.5044 16.4926C31.9028 16.4926 31.435 16.6263 31.034 16.8936C30.633 17.2278 30.4325 17.562 30.4325 17.963ZM43.9998 12.5494L39.0541 23.9112H37.5169L39.3214 19.968L36.0466 12.6162H37.6506L39.9898 18.2971L42.2621 12.6162H43.9998V12.5494Z" fill="#5F6368"/>
<path d="M16.9326 14.7549C16.9326 14.2871 16.8658 13.8861 16.7989 13.4182H10.5834V15.9579H14.1256C13.9919 16.7599 13.5241 17.4951 12.7889 17.9629V19.6338H14.9276C16.1974 18.4308 16.9326 16.7599 16.9326 14.7549Z" fill="#4285F4"/>
<path d="M10.5829 21.1711C12.3874 21.1711 13.8578 20.5696 14.994 19.567L12.8553 17.963C12.2538 18.364 11.5186 18.5645 10.5829 18.5645C8.84524 18.5645 7.3749 17.4284 6.84023 15.8243H4.70154V17.4952C5.77088 19.7675 8.11007 21.1711 10.5829 21.1711Z" fill="#34A853"/>
<path d="M6.84044 15.8243C6.57311 15.0223 6.57311 14.0866 6.84044 13.2846V11.6138H4.70176C3.76608 13.4851 3.76608 15.6906 4.70176 17.562L6.84044 15.8243Z" fill="#FBBC04"/>
<path d="M10.5829 10.6112C11.5186 10.6112 12.4543 10.9454 13.1226 11.6137L14.994 9.74239C13.791 8.60621 12.1869 7.93787 10.5829 8.0047C8.11007 8.0047 5.77088 9.40822 4.70154 11.6806L6.90706 13.3514C7.3749 11.7474 8.84524 10.6112 10.5829 10.6112Z" fill="#EA4335"/>
</svg>
