<svg width="48" height="32" viewBox="0 0 48 32" fill="none" xmlns="http://www.w3.org/2000/svg">
<path d="M11.4874 9.21515C11.9876 8.6435 12.3448 7.78602 12.2019 7C11.4874 7 10.7013 7.5002 10.2011 8.07185C9.70095 8.57205 9.34367 9.35807 9.48658 10.2155C10.3441 10.2155 11.0586 9.85826 11.4874 9.21515ZM12.2019 10.287C11.0586 10.1441 10.0582 10.8587 9.62949 10.8587C9.20075 10.8587 8.34327 10.287 7.41434 10.287C6.27103 10.287 5.19918 11.0016 4.55607 12.0734C3.41277 14.2171 4.19879 17.2183 5.41355 18.8618C5.9852 19.7193 6.69977 20.6482 7.55725 20.6482C8.41473 20.6482 8.70056 20.0766 9.7724 20.0766C10.8443 20.0766 11.0586 20.6482 11.9876 20.6482C12.9165 20.6482 13.4881 19.7907 14.1313 19.0047C14.8458 18.0758 15.0602 17.1468 15.0602 17.1468C15.0602 17.1468 13.2023 16.4323 13.2023 14.4315C13.2023 12.6451 14.6315 11.859 14.6315 11.859C13.9883 10.5728 12.7021 10.287 12.2019 10.287Z" fill="black"/>
<path d="M21.9913 7.92896C24.4923 7.92896 26.1358 9.57246 26.1358 12.0734C26.1358 14.5744 24.3494 16.2179 21.9199 16.2179H19.2045V20.4339H17.2037V7.92896H21.9913ZM19.276 14.6459H21.4911C23.1346 14.6459 24.2065 13.7169 24.2065 12.1449C24.2065 10.5014 23.2775 9.64391 21.4911 9.64391H19.276V14.6459ZM26.7075 17.9329C26.7075 16.2894 27.8508 15.3604 30.1374 15.2175L32.6384 15.0746V14.3601C32.6384 13.2882 31.9238 12.7165 30.7805 12.7165C29.7086 12.7165 28.9941 13.2882 28.9226 14.0028H27.1362C27.2791 12.3593 28.6368 11.073 30.9234 11.073C33.21 11.073 34.5677 12.2164 34.5677 14.1457V20.5053H32.7813V19.0047C32.2096 20.0766 31.1378 20.6482 29.8516 20.6482C27.9937 20.7911 26.7075 19.5764 26.7075 17.9329ZM32.7098 17.1469V16.4323L30.4947 16.5752C29.3514 16.7181 28.7083 17.1469 28.7083 18.0043C28.7083 18.8618 29.4228 19.2906 30.3518 19.2906C31.638 19.2191 32.7098 18.2902 32.7098 17.1469ZM36.2112 23.9352V22.4346C36.3541 22.4346 36.7114 22.4346 36.7828 22.4346C37.6403 22.4346 38.0691 22.0774 38.4263 21.1484L38.5693 20.5768L35.2823 11.3589H37.283L39.6411 18.8618L41.9992 11.3589H44L40.57 21.1484C39.7126 23.3636 38.9265 24.0781 36.9258 24.0781C36.7828 23.9352 36.3541 23.9352 36.2112 23.9352Z" fill="black"/>
</svg>
