<svg width="48" height="32" viewBox="0 0 48 32" fill="none" xmlns="http://www.w3.org/2000/svg">
<path d="M7.48949 13.28H10.2235C11.6909 13.28 12.2436 14.0234 12.1583 15.1174C12.0176 16.9195 10.9276 17.9155 9.4822 17.9155H8.75218C8.55418 17.9155 8.42084 18.0468 8.36684 18.4022L8.0535 20.4689C8.0335 20.6029 7.96216 20.6809 7.85683 20.6902H6.14279C5.98145 20.6902 5.92412 20.5676 5.96545 20.2996L7.01281 13.6734C7.05548 13.4081 7.20081 13.28 7.48949 13.28Z" fill="#009EE3"/>
<path d="M19.3565 13.1581C20.2785 13.1581 21.1298 13.6581 21.0132 14.9055C20.8752 16.3848 20.0785 17.2075 18.8251 17.2115H17.7317C17.5744 17.2115 17.4984 17.3389 17.4571 17.6022L17.2464 18.9489C17.2151 19.1522 17.1104 19.2522 16.9564 19.2522H15.9384C15.7757 19.2522 15.719 19.1482 15.7557 18.9162L16.5977 13.5228C16.6391 13.2574 16.7404 13.1581 16.9204 13.1581H19.3565ZM17.6984 16.0462H18.5278C19.0464 16.0255 19.3905 15.6675 19.4258 15.0188C19.4478 14.6188 19.1771 14.3328 18.7464 14.3354L17.9658 14.3381L17.6984 16.0462ZM23.7806 18.8375C23.8739 18.7529 23.9679 18.7102 23.9546 18.8142L23.9219 19.0642C23.9046 19.1942 23.9559 19.2636 24.0779 19.2636H24.9826C25.1346 19.2636 25.2092 19.2022 25.2466 18.9669L25.8033 15.4682C25.8319 15.2935 25.7893 15.2061 25.6559 15.2061H24.6619C24.5719 15.2061 24.5279 15.2568 24.5046 15.3935L24.4679 15.6081C24.4486 15.7215 24.3972 15.7408 24.3499 15.6275C24.1806 15.2274 23.7505 15.0481 23.1465 15.0608C21.7512 15.0895 20.8112 16.1482 20.7105 17.5062C20.6331 18.5556 21.3858 19.3816 22.3772 19.3816C23.0965 19.3822 23.4185 19.1669 23.7806 18.8375ZM23.0245 18.3015C22.4239 18.3015 22.0052 17.8222 22.0925 17.2348C22.1805 16.6475 22.7412 16.1682 23.3419 16.1682C23.9426 16.1682 24.3612 16.6475 24.2746 17.2348C24.1852 17.8222 23.6245 18.3015 23.0245 18.3015ZM27.5746 15.1955H26.6613C26.4719 15.1955 26.3946 15.3334 26.4553 15.5095L27.5933 18.8442L26.4719 20.4316C26.3779 20.5629 26.4499 20.6842 26.5826 20.6842H27.6133C27.7673 20.6842 27.8426 20.6449 27.92 20.5343L31.4221 15.5095C31.5301 15.3548 31.4794 15.1928 31.3027 15.1928L30.3274 15.1915C30.1607 15.1915 30.0927 15.2581 29.9967 15.3975L28.536 17.5175L27.8853 15.3935C27.8466 15.2635 27.7506 15.1955 27.5746 15.1955Z" fill="#113984"/>
<path d="M35.0676 13.1581C35.9896 13.1581 36.8409 13.6581 36.7243 14.9055C36.5863 16.3848 35.7889 17.2075 34.5362 17.2115H33.4428C33.2855 17.2115 33.2095 17.3389 33.1682 17.6022L32.9568 18.9489C32.9255 19.1522 32.8208 19.2522 32.6668 19.2522H31.6488C31.4861 19.2522 31.4295 19.1482 31.4655 18.9162L32.3075 13.5228C32.3488 13.2574 32.4502 13.1581 32.6295 13.1581H35.0676ZM33.4095 16.0462H34.2389C34.7569 16.0255 35.1022 15.6675 35.1362 15.0188C35.1582 14.6188 34.8875 14.3328 34.4569 14.3354L33.6769 14.3381L33.4095 16.0462ZM39.4917 18.8375C39.585 18.7529 39.6797 18.7102 39.6663 18.8142L39.633 19.0642C39.6157 19.1942 39.6677 19.2636 39.789 19.2636H40.693C40.845 19.2636 40.9197 19.2022 40.957 18.9669L41.5144 15.4682C41.543 15.2935 41.5004 15.2061 41.3664 15.2061H40.3717C40.2823 15.2061 40.2383 15.2568 40.2157 15.3935L40.179 15.6081C40.159 15.7215 40.1083 15.7408 40.0603 15.6275C39.8917 15.2274 39.461 15.0481 38.8576 15.0608C37.4629 15.0895 36.5223 16.1482 36.4216 17.5062C36.3436 18.5556 37.0963 19.3816 38.0876 19.3816C38.8076 19.3822 39.129 19.1669 39.4917 18.8375ZM38.7343 18.3015C38.1343 18.3015 37.7156 17.8222 37.8029 17.2348C37.8909 16.6475 38.4516 16.1682 39.053 16.1682C39.653 16.1682 40.071 16.6475 39.9843 17.2348C39.8977 17.8222 39.335 18.3015 38.7343 18.3015ZM42.9064 19.2702H41.863C41.7797 19.2702 41.7217 19.2049 41.7344 19.1269L42.6524 13.3154C42.6651 13.2361 42.7437 13.1707 42.8271 13.1707H43.8704C43.9538 13.1707 44.0111 13.2361 43.9984 13.3154L43.0804 19.1269C43.0677 19.2049 42.9904 19.2702 42.9064 19.2702Z" fill="#009EE3"/>
<path d="M5.78006 11H8.51679C9.28748 11 10.2015 11.0247 10.8128 11.564C11.2215 11.9247 11.4362 12.4987 11.3862 13.1147C11.2189 15.2048 9.96882 16.3741 8.29279 16.3741H6.94342C6.71409 16.3741 6.56141 16.5268 6.49741 16.9395L6.12007 19.3342C6.09607 19.4902 6.02807 19.5815 5.9054 19.5935H4.22003C4.03336 19.5935 3.96669 19.4502 4.01536 19.1402L5.22938 11.4553C5.27739 11.146 5.44539 11 5.78006 11Z" fill="#113984"/>
<path d="M6.53613 16.6968L7.01414 13.6734C7.05614 13.4081 7.20148 13.28 7.49015 13.28H10.2242C10.6769 13.28 11.0422 13.3514 11.3289 13.4821C11.0536 15.3414 9.85154 16.3741 8.27617 16.3741H6.92614C6.7488 16.3741 6.61547 16.4654 6.53613 16.6968Z" fill="#172C70"/>
</svg>
