<svg id="Layer_1" data-name="Layer 1" xmlns="http://www.w3.org/2000/svg" viewBox="0 0 39.84 10.87"><path d="M4.08,15.27c.18-.33.31-.67.46-1l1.55-3.53a.18.18,0,0,1,.19-.13H7.67a.16.16,0,0,1,.17.12l2,4.44c.05.12.05.16-.1.16H8.58a.15.15,0,0,1-.17-.12c-.1-.24-.21-.49-.3-.73A.14.14,0,0,0,8,14.36H6a.14.14,0,0,0-.16.11l-.31.75s0,.1-.11.09c-.45,0-.89,0-1.33,0Z" transform="translate(-4.08 -10.56)" style="fill:#006fce"/><path d="M11.38,12c0,1.05,0,2.09,0,3.14,0,.11,0,.16-.16.16h-.94c-.11,0-.15,0-.15-.14q0-2.22,0-4.44c0-.11,0-.14.14-.14h1.67a.2.2,0,0,1,.22.16l1,2.64s0,.07.05.13c.35-.94.68-1.85,1-2.77a.18.18,0,0,1,.2-.16h1.7c.12,0,.16,0,.16.16,0,1.46,0,2.93,0,4.4,0,.13,0,.16-.16.16h-1c-.15,0-.18-.05-.17-.18V12.05h0l-.24.66-.9,2.47a.18.18,0,0,1-.2.15h-.85c-.11,0-.15,0-.19-.14l-1.11-3.07S11.42,12.05,11.38,12Z" transform="translate(-4.08 -10.56)" style="fill:#006fce"/><path d="M39.66,12.36v1.41c0,.46,0,.93,0,1.39,0,.13,0,.16-.16.16h-1c-.09,0-.13,0-.13-.12q0-2.23,0-4.47c0-.09,0-.13.12-.13h1.38a.2.2,0,0,1,.19.11l1.79,2.64,0,.07c0-.05,0-.1,0-.14V10.77c0-.13,0-.17.16-.17h1c.11,0,.13,0,.13.15v4.41c0,.14,0,.16-.16.16H41.79a.26.26,0,0,1-.24-.13c-.6-.91-1.2-1.81-1.81-2.71A.58.58,0,0,0,39.66,12.36Z" transform="translate(-4.08 -10.56)" style="fill:#006fce"/><path d="M28.46,19.71,30,21.42c-.52,0-1,0-1.48,0-.06,0-.09-.05-.13-.09-.42-.48-.85-1-1.27-1.45a.8.8,0,0,0-.52-.09c-.06,0,0,.09,0,.14,0,.44,0,.89,0,1.33,0,.12,0,.16-.15.16q-.51,0-1,0c-.09,0-.12,0-.12-.12V16.79c0-.1,0-.13.13-.12.92,0,1.83,0,2.74,0a1.51,1.51,0,0,1,.54,2.95Z" transform="translate(-4.08 -10.56)" style="fill:#006fce"/><path d="M25.19,13.61l1.55,1.67c0,.05-.08,0-.11,0h-1.3a.25.25,0,0,1-.21-.1l-1.26-1.43a.71.71,0,0,0-.53-.1s0,.09,0,.14V15.2c0,.12,0,.17-.15.16h-1c-.1,0-.13,0-.13-.13v-4.5c0-.09,0-.13.12-.12.94,0,1.89,0,2.83,0a1.49,1.49,0,0,1,1.25,2.31,1.46,1.46,0,0,1-.82.62Z" transform="translate(-4.08 -10.56)" style="fill:#006fce"/><path d="M30.35,19V16.81c0-.12,0-.15.15-.15,1.23,0,2.47,0,3.7,0,.12,0,.15,0,.15.15,0,.27,0,.54,0,.8s0,.15-.15.15H31.81c-.13,0-.18,0-.17.16a3.38,3.38,0,0,1,0,.45c0,.11,0,.14.14.14h2.36c.14,0,.18,0,.17.18s0,.52,0,.78,0,.14-.15.14H31.8c-.13,0-.17,0-.16.17a2.8,2.8,0,0,1,0,.41c0,.14,0,.18.17.18h2.33c.18,0,.22.06.21.22s0,.49,0,.73,0,.14-.12.14c-1.26,0-2.51,0-3.76,0-.12,0-.12-.05-.12-.14Z" transform="translate(-4.08 -10.56)" style="fill:#006fce"/><path d="M10.14,19c0-.73,0-1.47,0-2.2,0-.12,0-.18.16-.18q1.85,0,3.69,0c.12,0,.15,0,.15.15,0,.27,0,.53,0,.8,0,.11,0,.15-.15.15H11.56c-.15,0-.2,0-.19.18a1.78,1.78,0,0,1,0,.4c0,.13,0,.17.17.17h2.34c.15,0,.19,0,.18.19s0,.49,0,.74-.05.17-.18.17H11.54c-.13,0-.18,0-.17.17a1.27,1.27,0,0,1,0,.39c0,.15,0,.2.19.2H14c.14,0,.19,0,.18.18s0,.53,0,.79c0,.09,0,.12-.11.12-1.26,0-2.52,0-3.77,0-.13,0-.11-.07-.11-.15Z" transform="translate(-4.08 -10.56)" style="fill:#006fce"/><path d="M17.2,13v-2.2c0-.12,0-.16.15-.16H21c.12,0,.15,0,.15.15s0,.5,0,.75,0,.15-.15.15H18.65c-.14,0-.19,0-.17.18a3.38,3.38,0,0,1,0,.45c0,.11,0,.14.14.13h2.32c.14,0,.18,0,.17.17s0,.49,0,.73,0,.19-.17.19h-2.3c-.13,0-.18,0-.16.17a3.23,3.23,0,0,1,0,.44c0,.13,0,.15.14.15H21c.14,0,.18,0,.17.18s0,.51,0,.76c0,.1,0,.15-.14.15H17.33c-.12,0-.13-.06-.13-.15Z" transform="translate(-4.08 -10.56)" style="fill:#006fce"/><path d="M38.17,15.36H36.82c-.1,0-.11-.06-.14-.13-.1-.24-.21-.48-.3-.73a.14.14,0,0,0-.15-.1h-2a.13.13,0,0,0-.14.1l-.31.75c0,.05,0,.11-.12.11H32.35l.34-.79c.56-1.28,1.12-2.55,1.67-3.83a.19.19,0,0,1,.21-.14H36a.15.15,0,0,1,.16.09l2,4.59S38.16,15.32,38.17,15.36Z" transform="translate(-4.08 -10.56)" style="fill:#006fce"/><path d="M36.44,21.38H35.18c-.13,0-.16,0-.16-.16s0-.52,0-.78,0-.16.16-.16h2.41c.26,0,.42-.15.42-.35a.4.4,0,0,0-.43-.35H36.46a2,2,0,0,1-.49-.05,1.35,1.35,0,0,1-1-1.76,1.45,1.45,0,0,1,1.31-1.05c.49-.05,1,0,1.49,0s.85,0,1.28,0c.14,0,.14,0,.09.14-.13.28-.25.56-.37.84a.15.15,0,0,1-.18.11h-2c-.27,0-.44.14-.45.35s.19.35.45.35h1.13a2.42,2.42,0,0,1,.47,0A1.2,1.2,0,0,1,39.25,20a1.47,1.47,0,0,1-1.55,1.39c-.42,0-.84,0-1.26,0Z" transform="translate(-4.08 -10.56)" style="fill:#006fce"/><path d="M20.08,16.67,18.85,18c-.25.28-.49.56-.75.83-.08.08-.09.13,0,.22l2,2.23.08.1h-1c-.21,0-.45.06-.62,0s-.3-.31-.44-.48l-.8-.95a.1.1,0,0,0,0,0c-.39.47-.79.94-1.19,1.4,0,.05-.06.1-.14.1-.51,0-1,0-1.58,0,.24-.28.47-.53.69-.77.46-.51.91-1,1.37-1.52.07-.08.08-.13,0-.21l-1.91-2.13-.11-.12h1.53a.27.27,0,0,1,.26.11c.34.4.69.8,1,1.21.09.1.12.08.19,0l1-1.23c0-.05.08-.1.16-.09Z" transform="translate(-4.08 -10.56)" style="fill:#006fce"/><path d="M41.11,21.38H39.83c-.1,0-.14,0-.14-.13q0-.41,0-.81c0-.12,0-.15.15-.15h2.41c.26,0,.42-.14.42-.34s-.18-.36-.44-.36H41.09a1.88,1.88,0,0,1-.84-.19,1.28,1.28,0,0,1-.68-1.33,1.34,1.34,0,0,1,.93-1.24,2.17,2.17,0,0,1,.76-.13h2.43c.13,0,.15,0,.1.14-.13.28-.26.56-.37.84,0,.09-.09.11-.19.11h-2c-.26,0-.43.15-.43.35a.4.4,0,0,0,.43.35h1.14a2.42,2.42,0,0,1,.47,0,1.25,1.25,0,0,1,1,1.55,1.46,1.46,0,0,1-1.53,1.29c-.42,0-.84,0-1.26,0Z" transform="translate(-4.08 -10.56)" style="fill:#006fce"/><path d="M20.31,19c0-.73,0-1.47,0-2.21,0-.11,0-.15.15-.15.9,0,1.8,0,2.69,0a1.5,1.5,0,0,1,1.49.93,1.57,1.57,0,0,1-.26,1.76,1.62,1.62,0,0,1-1.21.5c-.47,0-.93,0-1.4,0-.15,0-.18,0-.18.19,0,.42,0,.83,0,1.25,0,.1,0,.13-.13.13-.33,0-.67,0-1,0-.12,0-.16,0-.16-.15C20.31,20.52,20.31,19.77,20.31,19Z" transform="translate(-4.08 -10.56)" style="fill:#006fce"/><path d="M32.28,14.2l-.49,1a.1.1,0,0,1-.1.07,2.92,2.92,0,0,1-1.78-.38A2,2,0,0,1,29,13.4a2.85,2.85,0,0,1,.23-1.7,2,2,0,0,1,1.55-1.08,16.37,16.37,0,0,1,2,0c.07,0,.09,0,.09.1,0,.32,0,.64,0,1,0,.12-.06.11-.14.11H31.46a1.08,1.08,0,0,0-1.18,1.17,2.07,2.07,0,0,0,0,.5,1,1,0,0,0,1,.79Z" transform="translate(-4.08 -10.56)" style="fill:#006fce"/><path d="M28.37,13v2.18c0,.13,0,.17-.16.17h-1c-.11,0-.16,0-.16-.16,0-1.47,0-2.94,0-4.42,0-.1,0-.14.14-.14h1c.11,0,.13,0,.13.15Z" transform="translate(-4.08 -10.56)" style="fill:#006fce"/><path d="M7,11.74l.63,1.49c0,.08,0,.09-.07.09H6.42c-.07,0-.1,0-.06-.09C6.56,12.74,6.77,12.26,7,11.74Z" transform="translate(-4.08 -10.56)" style="fill:#fdfefe"/><path d="M27.33,18.69H26.7c-.08,0-.13,0-.13-.12s0-.47,0-.71,0-.12.12-.12h1.24a.49.49,0,0,1,.51.48.47.47,0,0,1-.53.45Z" transform="translate(-4.08 -10.56)" style="fill:#fefefe"/><path d="M24,12.6h-.62c-.08,0-.11,0-.11-.11v-.73c0-.08,0-.12.11-.11h1.21a.53.53,0,0,1,.44.19.44.44,0,0,1,.07.48.48.48,0,0,1-.46.28Z" transform="translate(-4.08 -10.56)" style="fill:#fefefe"/><path d="M35.26,11.74l.41.95.21.51c0,.08,0,.13-.07.12H34.7c-.06,0-.11,0-.07-.09C34.84,12.75,35,12.26,35.26,11.74Z" transform="translate(-4.08 -10.56)" style="fill:#fdfefe"/><path d="M22.31,17.75h.62a.5.5,0,0,1,.53.48.48.48,0,0,1-.46.53c-.46,0-.92,0-1.38,0-.06,0-.08,0-.08-.08,0-.29,0-.57,0-.86,0-.08.05-.09.11-.09Z" transform="translate(-4.08 -10.56)" style="fill:#fefefe"/></svg>
