<svg width="48" height="32" viewBox="0 0 48 32" fill="none" xmlns="http://www.w3.org/2000/svg">
<path d="M28.3268 8.1311H19.6738V23.8048H28.3268V8.1311Z" fill="#FF5F00"/>
<path d="M20.2232 15.968C20.2218 14.4585 20.5612 12.9685 21.2156 11.6107C21.8699 10.253 22.8222 9.06311 24.0002 8.13116C22.5414 6.97533 20.7894 6.25653 18.9444 6.05693C17.0995 5.85733 15.236 6.18497 13.567 7.00242C11.8981 7.81986 10.491 9.09413 9.50651 10.6796C8.52205 12.265 8 14.0976 8 15.968C8 17.8384 8.52205 19.671 9.50651 21.2564C10.491 22.8419 11.8981 24.1161 13.567 24.9336C15.236 25.751 17.0995 26.0787 18.9444 25.8791C20.7894 25.6795 22.5414 24.9607 24.0002 23.8048C22.8222 22.8729 21.87 21.683 21.2156 20.3253C20.5612 18.9675 20.2218 17.4775 20.2232 15.968V15.968Z" fill="#EB001B"/>
<path d="M40 15.968C40.0001 17.8383 39.4781 19.671 38.4937 21.2564C37.5093 22.8418 36.1022 24.1161 34.4333 24.9336C32.7643 25.751 30.9009 26.0787 29.056 25.8791C27.211 25.6795 25.459 24.9607 24.0002 23.8048C25.1773 22.8719 26.1288 21.6819 26.783 20.3243C27.4373 18.9668 27.7773 17.4772 27.7773 15.968C27.7773 14.4588 27.4373 12.9692 26.783 11.6117C26.1288 10.2541 25.1773 9.06405 24.0002 8.13116C25.459 6.97532 27.211 6.25653 29.056 6.05693C30.9009 5.85733 32.7643 6.18498 34.4333 7.00244C36.1022 7.81989 37.5093 9.09416 38.4937 10.6796C39.4781 12.265 40.0001 14.0977 40 15.968V15.968Z" fill="#F79E1B"/>
<path d="M39.0566 22.1447V21.8238H39.1849V21.7584H38.858V21.8238H38.9865V22.1447H39.0566ZM39.6913 22.1447V21.7578H39.5911L39.4758 22.0239L39.3605 21.7578H39.2602V22.1447H39.331V21.8529L39.4391 22.1045H39.5125L39.6206 21.8522V22.1447H39.6913Z" fill="#F79E1B"/>
</svg>
