<svg  viewBox="0 0 48 48" fill="none" xmlns="http://www.w3.org/2000/svg">
<path fill-rule="evenodd" clip-rule="evenodd" d="M9.65437 19.2H12.7275L16.834 23.9456C19.5399 20.7773 20.8997 19.2 20.9133 19.2H23.9864C23.9864 19.2 24.0272 19.2136 24.0272 19.2408V28.7592C24.0272 28.7592 24.0272 28.8 23.9864 28.8H20.9949C20.9949 28.8 20.9541 28.7864 20.9541 28.7592V23.089L16.8476 27.8618H16.8068C16.8068 27.8618 15.4062 26.2572 12.6731 23.089V28.7592C12.6731 28.7592 12.6595 28.8 12.6323 28.8H9.64077C9.64077 28.8 9.59998 28.7864 9.59998 28.7592V19.2408C9.59998 19.2408 9.61357 19.2 9.64077 19.2H9.65437Z" fill="#ED1C24"/>
<path fill-rule="evenodd" clip-rule="evenodd" d="M29.3897 19.2H38.897C38.9263 19.2 38.9409 19.2195 38.9409 19.2439V21.4304C38.9409 21.4597 38.9263 21.4743 38.897 21.4743H30.3951C30.0242 21.4743 29.7655 21.6403 29.6289 21.9722C29.5996 22.1186 29.5849 22.2015 29.5849 22.2308C29.5849 22.5822 29.8046 22.8262 30.2487 22.9629H35.954C37.0326 22.9629 37.9062 23.4266 38.5749 24.3539C38.8043 24.7687 38.9214 25.1738 38.9214 25.5593V26.0962C38.9214 27.331 38.2137 28.1997 36.7984 28.6926C36.4714 28.761 36.1785 28.8 35.9199 28.8H26.4712C26.4419 28.8 26.4272 28.7854 26.4272 28.7561V26.5696C26.4272 26.5403 26.4468 26.5257 26.4712 26.5257H34.9633C35.3147 26.5257 35.5587 26.3793 35.6954 26.0962C35.7539 25.9791 35.7832 25.8717 35.7832 25.7741C35.7832 25.4276 35.5782 25.1884 35.1585 25.0664C35.0853 25.0518 34.9975 25.042 34.8998 25.042H29.3897C28.316 25.042 27.4424 24.5784 26.7738 23.6511C26.5444 23.2362 26.4272 22.8311 26.4272 22.4456V21.8062C26.4272 20.9131 26.9007 20.181 27.8426 19.6149C28.3355 19.3415 28.8529 19.2098 29.3897 19.2098V19.2Z" fill="black"/>
</svg>
