<svg width="20" height="20" viewBox="0 0 20 20" fill="none" xmlns="http://www.w3.org/2000/svg">
<path d="M10.3463 1.0257L11.5691 2.19984C11.9218 2.53846 12.4173 2.68396 12.8971 2.58976L14.5605 2.26311C14.8238 2.21142 15.0809 2.37666 15.1432 2.63756L15.5371 4.28642C15.6507 4.76194 15.9889 5.15226 16.4434 5.33238L18.0195 5.95693C18.2688 6.05576 18.3958 6.33376 18.3072 6.58695L17.7471 8.18702C17.5856 8.64847 17.6591 9.15968 17.9441 9.55693L18.9322 10.9344C19.0886 11.1524 19.0451 11.4549 18.8337 11.62L17.4975 12.6632C17.1121 12.9641 16.8975 13.4339 16.9225 13.9222L17.0091 15.6152C17.0228 15.8831 16.8227 16.1141 16.5555 16.1386L14.8674 16.2939C14.3806 16.3386 13.9461 16.6179 13.7031 17.0421L12.8606 18.5132C12.7273 18.746 12.4341 18.8321 12.1961 18.7083L10.692 17.9263C10.2582 17.7007 9.74177 17.7007 9.308 17.9263L7.80392 18.7083C7.56593 18.8321 7.27268 18.746 7.13937 18.5132L6.29688 17.0421C6.05392 16.6179 5.61944 16.3386 5.13259 16.2939L3.44445 16.1386C3.17734 16.1141 2.97719 15.8831 2.99089 15.6152L3.07748 13.9222C3.10245 13.4339 2.8879 12.9641 2.50255 12.6632L1.16633 11.62C0.954892 11.4549 0.911397 11.1524 1.06776 10.9344L2.05593 9.55693C2.34091 9.15968 2.41441 8.64847 2.25289 8.18702L1.69283 6.58695C1.60421 6.33376 1.73117 6.05576 1.98055 5.95693L3.55656 5.33238C4.01108 5.15226 4.34929 4.76194 4.46289 4.28642L4.8568 2.63756C4.91913 2.37666 5.17623 2.21142 5.43945 2.26311L7.10294 2.58976C7.58268 2.68397 8.07823 2.53846 8.43088 2.19984L9.6537 1.0257C9.84719 0.839908 10.1528 0.839908 10.3463 1.0257Z" fill="none"/>
<path fill-rule="evenodd" clip-rule="evenodd" d="M15 7.81513L9.09343 13.7217L5 10.2905L5.74054 9.407L9.02484 12.16L14.1849 7L15 7.81513Z" stroke="none"/>
</svg>
