<svg width="32" height="32" viewBox="0 0 32 32" fill="none" xmlns="http://www.w3.org/2000/svg">
<g clip-path="url(#clip0_223_9367)">
<path fill-rule="evenodd" clip-rule="evenodd" d="M15.9998 10.5644L21.3677 13.2484V18.7521L15.9998 21.436L10.6318 18.7521V13.2484L13.6064 11.7611C13.6101 11.7592 13.6139 11.7573 13.6176 11.7555L15.9998 10.5644ZM13.8696 12.9155L12.493 13.6038L15.9998 15.3572L17.3764 14.6689L13.8696 12.9155ZM18.6624 14.0259L15.1557 12.2725L15.9998 11.8504L19.5065 13.6038L18.6624 14.0259ZM18.0873 15.5995V16.5327C18.0873 16.8504 18.3448 17.1079 18.6624 17.1079C18.9801 17.1079 19.2376 16.8504 19.2376 16.5327V15.0243L20.2174 14.5344V18.0412L16.5749 19.8624V16.3557L18.0873 15.5995ZM15.4246 16.3557L11.7821 14.5344V18.0412L15.4246 19.8624V16.3557Z" />
<path fill-rule="evenodd" clip-rule="evenodd" d="M15.9998 4.42197C9.60539 4.42197 4.42173 9.60564 4.42173 16.0001H2.98389C2.98389 8.81154 8.81129 2.98413 15.9998 2.98413V4.42197Z" />
<path fill-rule="evenodd" clip-rule="evenodd" d="M15.6116 3.65447L13.0146 1.7484L13.8653 0.589251L17.4903 3.24975L15.2074 7.2998L13.9548 6.59377L15.6116 3.65447Z" />
<path fill-rule="evenodd" clip-rule="evenodd" d="M16.0002 27.5783C22.3946 27.5783 27.5783 22.3946 27.5783 16.0002L29.0161 16.0002C29.0161 23.1887 23.1887 29.0161 16.0002 29.0161L16.0002 27.5783Z" />
<path fill-rule="evenodd" clip-rule="evenodd" d="M16.3889 28.3458L18.9859 30.2518L18.1352 31.411L14.5102 28.7505L16.7931 24.7004L18.0457 25.4065L16.3889 28.3458Z" />
</g>
<defs>
<clipPath id="clip0_223_9367">
<rect width="32" height="32" />
</clipPath>
</defs>
</svg>
