<svg  viewBox="0 0 24 24" fill="none" xmlns="http://www.w3.org/2000/svg">
    <path fill-rule="evenodd" clip-rule="evenodd" d="M10.8 15.9C13.6167 15.9 15.9 13.6166 15.9 10.8C15.9 7.98334 13.6167 5.69999 10.8 5.69999C7.9834 5.69999 5.70005 7.98334 5.70005 10.8C5.70005 13.6166 7.9834 15.9 10.8 15.9ZM10.8 16.8C14.1138 16.8 16.8 14.1137 16.8 10.8C16.8 7.48628 14.1138 4.79999 10.8 4.79999C7.48634 4.79999 4.80005 7.48628 4.80005 10.8C4.80005 14.1137 7.48634 16.8 10.8 16.8Z" fill="#2C2C3A"/>
    <path fill-rule="evenodd" clip-rule="evenodd" d="M18.9038 19.5386L14.1038 15.3386L14.6964 14.6613L19.4964 18.8613L18.9038 19.5386Z" fill="#2C2C3A"/>
</svg>
