<svg width="42" height="25" viewBox="0 0 42 25" fill="none" xmlns="http://www.w3.org/2000/svg">
<path fill-rule="evenodd" clip-rule="evenodd" d="M36.0981 0.25H13.6171V3.89557H8.03335L0.25 12.9761V21.5158H3.87104C4.48254 23.1146 6.03115 24.25 7.84494 24.25C9.65873 24.25 11.2073 23.1146 11.8188 21.5158L13.6171 21.5158L15.4399 21.5158L22.0989 21.5158C22.7104 23.1146 24.259 24.25 26.0728 24.25C27.8866 24.25 29.4352 23.1146 30.0467 21.5158H36.0981V13.0095H37.6171V11.1867H30.3259V13.0095H34.2753V19.693H30.3153C30.1595 17.4859 28.3196 15.7437 26.0728 15.7437C23.826 15.7437 21.9861 17.4859 21.8303 19.693H15.4399L15.4399 3.89557L15.4399 2.07278H34.2753V3.89557H26.6804V5.71835H41.2627V3.89557H36.0981V0.25ZM7.84494 15.7437C5.59813 15.7437 3.75823 17.4859 3.60245 19.693H2.07278V13.6504L8.87171 5.71835H13.6171V19.693H12.0874C11.9316 17.4859 10.0917 15.7437 7.84494 15.7437ZM40.0475 9.36392H27.8956V7.54114H40.0475V9.36392ZM7.84494 22.4272C9.1872 22.4272 10.2753 21.3391 10.2753 19.9968C10.2753 18.6546 9.1872 17.5665 7.84494 17.5665C6.50268 17.5665 5.41456 18.6546 5.41456 19.9968C5.41456 21.3391 6.50268 22.4272 7.84494 22.4272ZM28.5032 19.9968C28.5032 21.3391 27.415 22.4272 26.0728 22.4272C24.7305 22.4272 23.6424 21.3391 23.6424 19.9968C23.6424 18.6546 24.7305 17.5665 26.0728 17.5665C27.415 17.5665 28.5032 18.6546 28.5032 19.9968Z" />
</svg>
