<svg width="284" height="244" viewBox="0 0 284 244" fill="none" xmlns="http://www.w3.org/2000/svg">
<path d="M65 14.5L5 30L15.5 91.5H59.5V243H225L222.5 91.5H269.5L278.5 30L216 14.5L178 6L170.887 1.5542C170.331 1.20703 169.643 1.15398 169.005 1.30375C164.729 2.30787 152.232 2.848 146 3H135.5C130.15 3 119.812 1.7832 114.684 1.09322C114.238 1.03319 113.789 1.12413 113.401 1.35232L105.5 6L65 14.5Z" stroke="black"/>
<path d="M178.229 6C176.009 24.3122 160.411 38.5 141.5 38.5C122.589 38.5 106.991 24.3122 104.771 6" stroke="black"/>
<path d="M170.5 1.5C167.241 17.585 155.552 28.5 141.5 28.5C127.741 28.5 116.146 17.0764 112.609 1.5" stroke="black"/>
<path d="M67 14.5C67.6667 36.5 67.1 82.7 59.5 91.5" stroke="black"/>
<path d="M215.707 14.5C215.04 36.5 215.607 82.7 223.207 91.5" stroke="black"/>
<path d="M10.5 28.5L21 91.5" stroke="black" stroke-dasharray="2 2"/>
<path d="M273 28.5L263.5 91.5" stroke="black" stroke-dasharray="2 2"/>
<rect x="60" y="91" width="162" height="2" fill="#E31B23"/>
<rect x="60" y="203" width="164" height="2" fill="#E31B23"/>
<rect x="89" y="9" width="235" height="1.99999" transform="rotate(90 89 9)" fill="#E31B23"/>
<circle cx="142" cy="90" r="16" fill="#E31B23"/>
<path d="M137.453 96L141.085 84.48H143.909L147.541 96H145.557L142.261 85.664H142.693L139.437 96H137.453ZM139.477 93.504V91.704H145.525V93.504H139.477Z" fill="white"/>
<circle cx="89" cy="147" r="16" fill="#E31B23"/>
<path d="M85.5731 153V141.48H90.1411C90.9198 141.48 91.5571 141.637 92.0531 141.952C92.5545 142.261 92.9251 142.659 93.1651 143.144C93.4105 143.629 93.5331 144.131 93.5331 144.648C93.5331 145.283 93.3811 145.821 93.0771 146.264C92.7785 146.707 92.3705 147.005 91.8531 147.16V146.76C92.5785 146.925 93.1278 147.269 93.5011 147.792C93.8798 148.315 94.0691 148.909 94.0691 149.576C94.0691 150.259 93.9385 150.856 93.6771 151.368C93.4158 151.88 93.0265 152.28 92.5091 152.568C91.9971 152.856 91.3625 153 90.6051 153H85.5731ZM87.5251 151.184H90.3651C90.7011 151.184 91.0025 151.117 91.2691 150.984C91.5358 150.845 91.7438 150.653 91.8931 150.408C92.0478 150.157 92.1251 149.861 92.1251 149.52C92.1251 149.211 92.0585 148.933 91.9251 148.688C91.7918 148.443 91.5971 148.248 91.3411 148.104C91.0851 147.955 90.7785 147.88 90.4211 147.88H87.5251V151.184ZM87.5251 146.08H90.1171C90.3945 146.08 90.6425 146.027 90.8611 145.92C91.0798 145.813 91.2531 145.656 91.3811 145.448C91.5091 145.24 91.5731 144.984 91.5731 144.68C91.5731 144.28 91.4451 143.947 91.1891 143.68C90.9331 143.413 90.5758 143.28 90.1171 143.28H87.5251V146.08Z" fill="white"/>
<circle cx="142" cy="199" r="16" fill="#E31B23"/>
<path d="M142.086 205.24C140.934 205.24 139.947 204.989 139.126 204.488C138.304 203.981 137.672 203.277 137.23 202.376C136.792 201.475 136.574 200.429 136.574 199.24C136.574 198.051 136.792 197.005 137.23 196.104C137.672 195.203 138.304 194.501 139.126 194C139.947 193.493 140.934 193.24 142.086 193.24C143.414 193.24 144.52 193.573 145.406 194.24C146.291 194.901 146.912 195.795 147.27 196.92L145.326 197.456C145.102 196.704 144.72 196.117 144.182 195.696C143.643 195.269 142.944 195.056 142.086 195.056C141.312 195.056 140.667 195.229 140.15 195.576C139.638 195.923 139.251 196.411 138.99 197.04C138.734 197.664 138.603 198.397 138.598 199.24C138.598 200.083 138.726 200.819 138.982 201.448C139.243 202.072 139.632 202.557 140.15 202.904C140.667 203.251 141.312 203.424 142.086 203.424C142.944 203.424 143.643 203.211 144.182 202.784C144.72 202.357 145.102 201.771 145.326 201.024L147.27 201.56C146.912 202.685 146.291 203.581 145.406 204.248C144.52 204.909 143.414 205.24 142.086 205.24Z" fill="white"/>
</svg>
