<svg viewBox="0 0 32 32" fill="none" xmlns="http://www.w3.org/2000/svg">
    <path fill-rule="evenodd" clip-rule="evenodd" d="M16 6.39999C10.7008 6.39999 6.40002 10.7008 6.40002 16C6.40002 21.2992 10.7008 25.6 16 25.6C21.2992 25.6 25.6 21.2992 25.6 16C25.6 10.7008 21.2992 6.39999 16 6.39999ZM22.1056 20.6368C20.7328 18.9664 17.4016 18.4 16 18.4C14.5984 18.4 11.2672 18.9664 9.89442 20.6368C8.91522 19.3504 8.32002 17.7472 8.32002 16C8.32002 11.7664 11.7664 8.31999 16 8.31999C20.2336 8.31999 23.68 11.7664 23.68 16C23.68 17.7472 23.0848 19.3504 22.1056 20.6368ZM12.64 13.6C12.64 11.7376 14.1376 10.24 16 10.24C17.8624 10.24 19.36 11.7376 19.36 13.6C19.36 15.4624 17.8624 16.96 16 16.96C14.1376 16.96 12.64 15.4624 12.64 13.6Z" fill="white"/>
</svg>
