<svg width="56" height="56" viewBox="0 0 56 56" fill="none" xmlns="http://www.w3.org/2000/svg">
<path fill-rule="evenodd" clip-rule="evenodd" d="M15.3893 41.7552L27.1473 45.1975L38.5811 41.6041V40.9738C38.5811 39.8137 38.3117 38.846 37.7421 38.101C37.1574 37.3366 36.3234 36.9629 35.285 36.9629H30.8283C30.7831 36.1758 30.5658 35.4981 30.1587 34.9473C29.7163 34.3473 29.1709 33.9215 28.5234 33.6859L18.8611 30.1324H8.40002V43.7139H15.3893V41.7552ZM37.4897 38.294V38.294ZM20.301 37.4816L23.6652 38.5739C24.2707 38.7935 24.934 38.9498 25.6537 39.0442C26.3687 39.1393 27.0905 39.1868 27.8191 39.1868H35.285C35.575 39.1868 35.7941 39.282 35.9679 39.4659C36.102 39.607 36.1986 39.7919 36.2472 40.0339L27.0625 42.8658L15.3893 39.4257V32.3563H18.5097L27.7469 35.7512C28.0271 35.8594 28.2348 36.0325 28.3818 36.2737C28.4903 36.4523 28.5651 36.6788 28.5966 36.9618C27.545 36.9551 26.7241 36.9159 26.1296 36.8459C25.4723 36.7687 24.8932 36.6407 24.3897 36.4645L21.0734 35.3299L20.301 37.4816ZM10.6239 32.3563H13.1655V41.49H10.6239V32.3563Z" fill="#09090C"/>
<path fill-rule="evenodd" clip-rule="evenodd" d="M32.5499 12.6H34.6499V17.2264L37.0999 14.9991L39.5499 17.2264V12.6H41.6499V21.9736L37.0999 17.8372L32.5499 21.9736V12.6Z" fill="#A30800"/>
<path fill-rule="evenodd" clip-rule="evenodd" d="M45.5 13.3H28.7V30.1H45.5V13.3ZM26.6 11.2V32.2H47.6V11.2H26.6Z" fill="#2C2C3A"/>
</svg>
