<svg width="80" height="80" viewBox="0 0 80 80" fill="none" xmlns="http://www.w3.org/2000/svg">
<path fill-rule="evenodd" clip-rule="evenodd" d="M40.0436 70.1329C54.504 70.5476 71.3355 64.3168 77.3642 58.6178L72.6752 50.0159C72.6752 50.0159 59.8097 60.7762 40.0436 59.9894V55.9064C44.5731 55.949 53.7491 55.7363 61.0643 53.5566V46.4646C61.0643 46.4646 49.4641 49.1866 40.0436 48.3147V46.6029H45.6683V37.916H40.0436V35.4811C43.8713 35.0771 49.815 35.3323 58.9059 37.4375L58.9591 30.218C58.9591 30.218 47.7948 27.9001 40.0436 28.3998V24.4232C44.4987 24.1786 48.975 24.2531 53.4195 24.6358V27.7831H60.5965V25.5715C63.3503 26.0606 66.168 26.7305 68.9325 27.613L71.4843 15.513C71.4843 15.513 67.1462 14.3753 60.5859 13.6629V9.71824V0H51.9734V3.15789H38.5976V0H32.7815L32.8028 3.15789V15.0771C20.0968 18.235 7.76289 25.8373 2 42.4242C2 42.4242 8.87932 64.3062 32.8028 69.2823V72.589H26.4125V80H47.9649V72.589H40.0436V70.1329ZM32.8028 46.5178C30.974 45.614 29.5598 44.3487 28.7943 42.5944C28.7943 42.5944 29.8044 40.0532 32.8028 38.1393V46.5178ZM40.0436 9.63317H53.4195V13.1419C49.2834 12.9931 44.722 13.11 40.0436 13.7161V9.63317ZM15.6736 42.5199C15.6736 42.5199 16.2158 32.0574 32.8028 25.7523V29.899C29.177 31.2281 23.4354 34.5136 20.32 42.4455C20.32 42.4455 22.8719 50.8347 32.8028 54.5986V58.8304C27.4652 57.1717 18.9165 52.9718 15.6736 42.5199Z" fill="white"/>
</svg>
