<svg width="80" height="80" viewBox="0 0 80 80" fill="none" xmlns="http://www.w3.org/2000/svg">
<g clip-path="url(#clip0_413_1287)">
<path fill-rule="evenodd" clip-rule="evenodd" d="M64.6661 67.678C66.9678 67.678 68.6374 66.1467 68.9239 64.6649C69.0523 63.9931 69.1017 63.4893 69.1017 63.1633L69.7142 62.3335L73.7942 62.3038C74.0115 62.3038 74.2091 62.1655 74.2683 61.9581L76.3824 55.0132L77.232 57.4632C77.3011 57.641 77.4691 57.7793 77.6667 57.7892C77.8642 57.809 78.0519 57.7003 78.1409 57.5225C85.1351 43.8896 70.2279 33.5267 69.0325 32.7265C39.9985 -4.36871 0.601534 22.1857 0.206379 22.4623C0.0186801 22.6006 -0.050472 22.8476 0.0384379 23.0649C0.127348 23.2823 0.364441 23.4008 0.591655 23.3514C10.5199 21.2373 22.7697 22.6797 28.3612 23.549C21.9848 25.2782 18.0805 29.5968 17.8535 29.848L17.8501 29.8517C17.7118 29.9999 17.6821 30.2271 17.7809 30.4049C17.8698 30.5828 18.0674 30.6816 18.2748 30.6618C26.0594 29.6838 32.3918 30.8594 35.0294 31.5015C26.257 35.7198 20.7446 45.8259 20.5075 46.2704C20.4087 46.4581 20.4383 46.6952 20.5964 46.8533C20.7544 47.0113 20.9915 47.041 21.1792 46.9422C27.3239 43.6328 33.5476 42.6844 36.4026 42.4177C33.4883 44.9763 32.7869 48.2166 32.7573 48.3746C32.7178 48.5722 32.7968 48.7797 32.9647 48.8883C33.1327 49.0069 33.35 48.997 33.518 48.8883C35.9877 47.199 38.6747 46.1815 40.2257 45.6777C39.386 47.2287 39.0007 49.1057 38.8427 50.0935H34.2885C34.1403 50.0935 34.0119 50.1627 33.923 50.2615C33.3303 50.1528 32.5992 50.1034 31.7101 50.1034H21.9498C17.9785 50.1034 14.7678 53.887 14.6295 54.055C14.4912 54.213 14.4814 54.4501 14.59 54.628C14.6987 54.8058 14.916 54.8947 15.1235 54.8453L16.2892 54.5588L15.7656 55.1318C15.6174 55.2898 15.5878 55.5171 15.6965 55.7048C15.7952 55.8826 16.0126 55.9814 16.22 55.9418L16.7436 55.8332L12.7723 61.5333C12.6735 61.6914 12.6538 61.8791 12.7427 62.047C12.8217 62.2149 12.9896 62.3137 13.1773 62.3137H30.0406C30.3864 62.3137 30.742 62.2347 31.0482 62.126C31.1371 62.2544 31.2853 62.3236 31.4434 62.3236H39.2675C39.2477 62.3434 39.2279 62.3606 39.2082 62.3779C39.1884 62.3952 39.1687 62.4125 39.1489 62.4323C38.9711 62.5903 38.9316 62.8472 39.0501 63.0546C39.1687 63.2621 39.4156 63.3411 39.6429 63.2621C39.6429 63.2621 39.8207 63.2028 40.1467 63.1337C40.1467 63.1485 40.1516 63.1608 40.1566 63.1732C40.1615 63.1855 40.1664 63.1979 40.1664 63.2127C40.2455 63.4202 40.4529 63.5486 40.6801 63.5387C40.6801 63.5387 40.6924 63.5379 40.7107 63.5364C40.801 63.5293 41.0776 63.5074 41.3815 63.4992C41.1148 64.3883 40.9568 65.5738 41.5692 66.4925C42.0928 67.2828 43.061 67.678 44.444 67.678H64.6661ZM61.1788 50.0837H40.4924C41.7767 48.9575 44.2563 47.7325 46.1333 46.9224C45.5307 47.9992 45.422 48.9278 45.422 48.9871C45.4022 49.1551 45.4714 49.323 45.6097 49.4317C45.748 49.5403 45.9258 49.5601 46.0839 49.5008C46.153 49.4712 53.0485 46.8928 61.1097 50.0639C61.1294 50.0837 61.1788 50.0837 61.1788 50.0837Z" fill="white"/>
<path d="M69.4869 61.8396L68.6175 63.025C68.6175 63.025 68.7163 63.272 68.4594 64.576C68.2125 65.8701 66.6615 67.1939 64.666 67.184C61.5739 67.184 48.84 67.184 44.4439 67.184C40.6504 67.184 41.6679 64.003 42.073 63.025C41.5099 62.9657 40.6306 63.0547 40.6306 63.0547C41.3913 62.5508 41.5889 62.5113 41.6383 62.5014C40.2355 62.5212 39.4649 62.8077 39.4649 62.8077C39.9391 62.3928 40.3738 62.0766 40.7788 61.8396H31.4334L31.6705 61.3061C31.6705 61.3061 30.8209 61.8297 30.0306 61.8297H13.1772L17.8598 55.1219L16.131 55.4677L17.7512 53.6895L15.0048 54.3612C15.0048 54.3612 18.1957 50.548 22.009 50.5875C22.8585 50.5875 29.2107 50.5875 31.7199 50.5875C35.0096 50.5875 35.1578 51.3383 35.1676 51.4371C35.1676 50.6468 34.2983 50.5776 34.2983 50.5776H48.9882H65.4958L76.8269 51.8816L73.8138 61.8L69.477 61.8297L69.4869 61.8396Z" fill="#0D2240"/>
<path d="M0.503043 22.8673C0.503043 22.8673 39.6234 -4.15148 68.7068 33.0919C68.7068 33.0919 84.839 43.4054 77.7164 57.2951L76.2148 52.9781C76.2148 52.9781 69.6453 52.8793 61.2977 49.5995C52.95 46.3098 45.9064 49.0364 45.9064 49.0364C45.9064 49.0364 46.0941 47.1594 47.6944 45.7467C47.6944 45.7467 40.1964 48.5622 39.248 50.8047C39.248 50.8047 39.6234 46.8631 41.4115 44.7984C41.4115 44.7984 37.0944 45.8258 33.2515 48.4536C33.2515 48.4536 34.1011 44.3242 38.0329 41.7952C38.0329 41.7952 29.4976 41.894 20.9523 46.4778C20.9523 46.4778 27.0476 35.1269 36.5214 31.373C36.5214 31.373 28.727 28.8341 18.2258 30.1579C18.2258 30.1579 23.2047 24.5269 31.0782 23.4896C31.0782 23.4896 13.721 20.032 0.493164 22.8475L0.503043 22.8673Z" fill="#0D2240"/>
<path d="M31.8784 56.2086C32.2538 54.9935 31.6808 54.4896 30.4756 54.4798H30.278L29.2506 57.8089H29.4482C30.5447 57.8089 31.5326 57.3348 31.8784 56.2086ZM21.6439 57.2854H22.9578L23.0467 55.764C23.0664 55.3985 23.1257 55.0231 23.1751 54.6576L21.6439 57.2755V57.2854ZM21.881 51.7927H25.7831L26.1486 57.2755L27.6206 52.504C27.6502 52.3459 27.6601 52.178 27.6008 52.0496C27.4823 51.7828 27.1958 51.7729 27.1958 51.7729H28.7468H31.1869C33.9233 51.7729 35.7707 52.8102 35.3755 55.3491L36.2448 52.5139C36.2745 52.3558 36.2844 52.178 36.2251 52.0496C36.0967 51.7828 35.8201 51.7729 35.8201 51.7729H37.3809H42.5476L41.8264 54.1241H39.0603L38.8134 54.9539H41.3423L40.6508 57.1965H38.1218L37.865 58.046H40.7299L40.0087 60.3972H33.8443L34.8914 57.0088C33.8937 59.1031 31.7302 60.3972 29.3691 60.3972H22.9084L22.938 59.3204H20.4584L19.8657 60.3972H16.3784L20.3201 54.539L20.3398 54.5094C20.488 54.2229 20.5572 53.9858 20.5868 53.7784C19.7175 53.7191 18.4629 54.1834 18.4629 54.1834C19.0556 53.7487 19.6977 53.3832 20.3596 53.1264C19.6483 52.6127 17.6429 53.3536 17.6429 53.3536C18.9568 52.3953 20.4386 51.7828 21.9106 51.7828L21.881 51.7927ZM48.6824 54.6576L48.7515 54.5094C48.8997 54.2229 48.9688 53.9858 48.9985 53.7784C48.1291 53.7191 46.8745 54.1834 46.8745 54.1834C47.4672 53.7487 48.1094 53.3832 48.7713 53.1264C48.06 52.6127 46.0546 53.3536 46.0546 53.3536C47.5957 52.2175 49.0874 51.7828 51.1718 51.7828H54.2343L54.7183 59.1525L56.9707 51.7927H64.0835C66.6422 51.7927 68.4204 52.6917 68.3314 54.8749L68.934 52.8991L69.0328 52.5929C69.0724 52.425 69.102 52.2076 69.0328 52.0693C68.9044 51.8026 68.6278 51.7927 68.6278 51.7927H70.1788H75.3553L74.6342 54.1439H71.8681L71.6211 54.9737H74.1501L73.4586 57.2162H70.9296L70.6727 58.0658H73.5376L72.8164 60.417H66.652L67.551 57.4731C66.4742 59.3105 64.4589 60.417 62.2658 60.417H58.1068L60.5666 52.4052C60.5666 52.2867 60.5666 52.1681 60.5271 52.0693C60.458 51.9113 60.3493 51.852 60.2505 51.8223L57.6129 60.417H51.32L51.3496 59.3402H48.87L48.2773 60.417H40.1371L42.7847 51.8125H46.0743L44.2764 57.6608H46.6572L48.6824 54.6675V54.6576ZM64.8146 56.2283C65.19 55.0132 64.617 54.4995 63.4118 54.4995H63.2339L62.1868 57.8287H62.3844C63.4809 57.8287 64.4589 57.3545 64.8146 56.2283ZM50.0852 57.2952H51.399L51.488 55.7739C51.5077 55.4084 51.567 55.033 51.6164 54.6675L50.0852 57.2854V57.2952Z" fill="#CF0A2C"/>
<path d="M11.3105 19.7059C11.3105 19.7059 45.2939 4.25533 67.0571 34.6625C67.0571 34.6625 80.354 44.0475 77.6077 52.4445C77.6077 52.4445 77.2718 50.449 76.6099 48.7103C75.948 46.9617 65.9803 38.6536 55.9236 36.9149L57.4943 41.7358L57.8302 38.8215C57.8302 38.8215 62.819 45.47 74.6934 50.1131C74.6934 50.1131 73.7846 51.7727 65.8815 49.0363C57.9882 46.2998 54.9159 45.1242 51.2607 45.717C51.2607 45.717 53.9181 43.5535 57.9092 44.1462C57.9092 44.1462 53.2563 41.8247 44.1183 44.9761C44.1183 44.9761 46.5287 42.3977 49.443 42.0618C49.443 42.0618 45.3729 40.985 37.4007 44.7982C37.4007 44.7982 41.8857 40.4021 46.0447 39.8094C46.0447 39.8094 36.5708 38.1498 26.692 41.884C26.692 41.884 30.3471 35.1466 43.6441 30.4146C43.6441 30.4146 34.7531 27.5892 23.4517 28.0931C23.4517 28.0931 30.683 23.7661 38.9912 24.2699C38.9912 24.2699 29.6754 18.4612 11.3105 19.7059Z" fill="#002D73"/>
<path d="M49.7985 21.3558C50.0553 21.4448 43.9798 17.4142 35.9384 16.8214C27.897 16.2287 18.6504 17.7599 18.6504 17.7599C18.6504 17.7599 34.7431 16.0509 49.7985 21.3558Z" fill="#002D73"/>
<path d="M76.9259 46.5964C76.9259 46.5964 73.6659 41.0346 69.9909 38.0413L66.316 35.048L66.7506 37.1917C66.7506 37.1917 72.9151 41.815 76.9358 46.6063L76.9259 46.5964ZM49.7985 21.3558C50.0553 21.4448 43.9798 17.4142 35.9384 16.8214C27.897 16.2287 18.6504 17.7599 18.6504 17.7599C18.6504 17.7599 34.7431 16.0509 49.7985 21.3558ZM31.9572 26.0977C32.5302 25.8804 38.5563 23.2131 45.5605 26.5521C45.5605 26.5521 39.4158 25.2778 31.9572 26.0977Z" fill="#3C518E"/>
<path d="M57.3456 28.4487C57.2666 28.4784 54.5005 29.6144 55.5971 31.8075C56.5553 33.7339 60.171 33.24 60.3389 30.7406" fill="#FFCE00"/>
<path d="M58.2451 29.012C58.2451 29.012 53.8095 28.2118 51.0928 28.1821C51.0928 28.1821 54.4714 29.1305 55.3703 30.5432C55.3703 30.5432 55.5975 28.3797 58.255 29.0021L58.2451 29.012ZM60.8531 30.8889C60.8531 30.8889 61.3866 32.5091 60.2999 33.3093C59.2033 34.1095 55.726 34.8603 55.1036 31.2841C55.1036 31.2841 56.2693 33.7242 58.8576 32.756C61.4557 31.7879 58.9366 29.0811 58.9366 29.0811L60.8531 30.8988V30.8889Z" fill="#0D2240"/>
<path d="M59.233 29.7528L57.9487 28.2117L56.9016 29.7133C56.9016 29.7133 56.378 30.385 56.8225 30.9778C57.277 31.5705 57.7116 31.9459 58.6995 31.5013C59.6775 31.0469 59.233 29.7429 59.233 29.7429V29.7528Z" fill="#0D2240"/>
<path d="M57.7309 28.7057C57.6716 28.7254 55.7156 29.5355 56.4861 31.1161C57.2567 32.7066 59.6276 32.1238 59.8845 30.3456C60.1413 28.5674 59.4893 29.8417 59.4893 29.8417C59.4893 29.8417 58.8077 32.0744 57.4642 31.2446C56.2589 30.5036 57.4345 28.9625 58.4224 29.2194C59.4202 29.4861 57.7309 28.6958 57.7309 28.6958V28.7057Z" fill="#CF0A2C"/>
<path d="M62.9178 34.2181C62.9178 34.2181 63.4512 27.6091 50.7964 25.5444C50.7964 25.5444 60.1813 29.901 62.9178 34.2181Z" fill="#0D2240"/>
<path d="M51.7146 62.9362C52.1888 61.6816 51.3689 61.1975 50.1834 61.1975H47.6149C47.6149 61.1975 47.7335 61.1975 47.773 61.2963C47.8026 61.3753 47.773 61.484 47.7532 61.5729L46.0244 66.1962H47.8816L48.4744 64.5958H48.5139L48.7411 66.1962H50.9342L50.4106 64.586C50.3612 64.4378 50.2723 64.3587 50.2032 64.2896L50.2229 64.2501C51.0132 64.0229 51.438 63.7067 51.7245 62.9461L51.7146 62.9362ZM49.8278 62.9955C49.6895 63.3709 49.3536 63.4104 49.0473 63.4104H48.909L49.2252 62.5608H49.3734C49.6994 62.5608 49.9661 62.6102 49.8278 62.9955Z" fill="#FFCE00"/>
<path d="M55.1037 61.1282C53.5231 61.1282 51.8338 62.1457 51.2509 63.7164C50.6582 65.3168 51.5868 66.2849 53.1773 66.2948C54.7678 66.2948 56.4275 65.3465 57.0202 63.7362C57.6129 62.1655 56.6942 61.1381 55.1037 61.1381V61.1282ZM54.5011 62.7681C55.1037 62.7681 55.3112 63.2126 55.1136 63.7461C54.9061 64.3092 54.3529 64.7043 53.7799 64.7043C53.207 64.7043 52.9501 64.3092 53.1675 63.7461C53.3551 63.2126 53.8985 62.7681 54.5011 62.7681Z" fill="#FFCE00"/>
<path d="M57.0298 61.2073L56.9902 66.2159H58.6005L59.8255 64.25C59.9835 64.003 60.112 63.756 60.2305 63.4992H60.2898L59.865 66.2159H61.5148L65.2292 61.2073H63.2633L61.9396 63.3214C61.7716 63.6078 61.6136 63.9042 61.4752 64.2006H61.4357L61.8408 61.2073H60.3886L59.0549 63.2818C58.8672 63.5782 58.6993 63.8943 58.5511 64.2006H58.5116L58.966 61.2172H57.0199L57.0298 61.2073Z" fill="#FFCE00"/>
<path d="M62.7296 65.8503C63.2137 66.1368 63.9151 66.3146 64.5671 66.3146C65.7031 66.3146 67.0565 65.7317 67.5011 64.5364C67.8172 63.6868 67.3825 63.2818 66.6416 63.104L66.2465 63.0052C66.1082 62.9755 65.8908 62.9459 65.96 62.7582C66.039 62.5606 66.3057 62.4915 66.4737 62.4915C66.8787 62.4915 67.185 62.6594 67.4319 62.8767L68.4198 61.6024C68.0148 61.306 67.5307 61.1578 66.9281 61.1578C65.792 61.1578 64.409 61.8098 63.9743 63.0052C63.6878 63.7856 64.1521 64.2104 64.8437 64.3289L65.1993 64.3981C65.3673 64.4277 65.6043 64.4574 65.5154 64.6747C65.4265 64.892 65.1005 64.9711 64.9227 64.9711C64.488 64.9711 64.1522 64.7636 63.9151 64.5068L63.8459 64.4277L62.7296 65.8503ZM51.2009 54.1438C51.2009 54.1438 49.6006 56.9198 49.4425 57.1766C49.324 57.3544 49.1955 57.9274 49.9167 57.9274H51.764L51.3985 57.4236H49.8179L51.5171 54.5291L51.2108 54.1339L51.2009 54.1438ZM62.7197 54.1438L63.0655 54.4501L61.9887 57.9669C61.9887 57.9669 62.4332 58.1052 63.836 57.7298C63.836 57.7298 61.0996 59.1524 61.5639 57.6607C62.0183 56.2381 62.1072 55.9418 62.7296 54.1438H62.7197ZM71.3637 53.5313C71.3637 53.5313 70.9587 54.865 70.9093 55.0625C70.8698 55.191 70.7414 55.5565 71.3045 55.5565H73.3691L73.0234 56.742L73.3494 57.1371L73.9421 55.1613H71.4032L71.7391 54.045L71.3539 53.5412L71.3637 53.5313ZM70.4055 56.6432C70.4055 56.6432 70.0202 57.9472 69.9609 58.1349C69.9214 58.2633 69.793 58.6288 70.3561 58.6288H72.7468L72.401 59.8143L72.6974 60.1996L73.2901 58.2238H70.445L70.771 57.1371L70.3956 56.653L70.4055 56.6432ZM51.2207 51.9705H54.0164C54.0164 51.9705 54.5301 59.5278 54.5301 59.5772C54.5499 59.7353 54.6783 59.8736 54.8462 59.8933C54.8462 59.8933 54.0164 60.1205 53.967 59.2314C53.8979 58.3325 53.562 52.4446 53.562 52.4446H50.9441L51.2306 51.9705H51.2207ZM42.8829 51.9705L43.1101 52.4348H45.1156C45.1156 52.4348 43.5349 57.4236 43.4559 57.6508C43.3769 57.8681 43.5646 58.3522 44.0388 58.3522H46.7357L46.4294 57.8681H43.9992L45.817 51.9705H42.873H42.8829Z" fill="#FFCE00"/>
<path d="M47.8717 61.2466L48.0298 61.4639H50.5489C51.2108 61.4639 51.8727 62.1456 51.4775 63.1334C51.4775 63.1334 51.9319 62.4617 51.6949 61.9183C51.4775 61.3948 50.9737 61.296 50.5588 61.2762C50.055 61.2466 47.8717 61.2466 47.8717 61.2466ZM44.5524 63.0643C44.5524 63.0643 44.0091 63.8348 44.2067 64.4177C44.4042 65.0006 45.3427 65.1487 46.0046 64.8425L45.4909 66.0477L45.7675 65.9786L46.38 64.4078C46.38 64.4078 45.8466 64.8129 45.2242 64.7437C44.6117 64.6746 44.177 64.1806 44.6117 63.4693L44.5425 63.0742L44.5524 63.0643ZM43.5151 62.1357C43.4164 62.1357 42.8335 62.4024 42.8335 62.4024C42.8335 62.4024 43.6238 62.274 44.0486 62.274" fill="#FFE692"/>
<path d="M49.1463 53.2053C48.9685 53.2053 48.0991 53.6894 48.0991 53.6894C48.0991 53.6894 49.3142 53.4029 50.0551 53.4029" fill="#FFCE00"/>
<path d="M48.4351 64.4771L48.2968 64.1313L47.6646 65.8503L47.8325 66.0874L48.4252 64.4771H48.4351Z" fill="#FFE692"/>
<path d="M49.897 64.1709L50.5095 65.9096L50.8552 66.1269C50.8552 66.1269 50.3514 64.6056 50.3119 64.5167C50.223 64.329 49.897 64.1709 49.897 64.1709Z" fill="#FFE592"/>
<path d="M49.0178 62.2148C49.0178 62.2148 48.6128 63.2422 48.6128 63.4201C48.6128 63.5979 48.6326 63.6967 49.0376 63.6967C49.3833 63.6967 49.5908 63.4596 49.5908 63.4596C49.5908 63.4596 49.0277 63.5287 48.8301 63.4596L49.166 62.4618L49.0079 62.2247L49.0178 62.2148ZM53.3744 62.7779C53.3744 62.7779 52.5347 63.3904 52.673 64.3092C52.8113 65.218 53.7696 65.06 54.6389 64.7241C54.6389 64.7241 53.9375 64.7735 53.7103 64.7537C53.4831 64.734 52.8113 64.6352 53.0286 63.7559C53.078 63.5584 53.3349 63.2521 53.3349 63.2521L53.3744 62.7779ZM52.7916 61.9185C52.7916 61.9185 53.4732 61.3554 54.3524 61.2368C55.2316 61.1183 56.5752 61.0985 57.1185 62.2148L56.8221 62.284C56.8221 62.284 56.2788 61.4048 54.8069 61.4048C53.3349 61.4048 52.7916 61.9284 52.7916 61.9284V61.9185ZM57.079 61.2467L57.1679 61.464H58.6399C58.6399 61.464 58.2249 64.2104 58.2151 64.3684C58.2151 64.7636 58.6102 64.2499 58.6102 64.2499C58.6102 64.2499 58.4324 64.3981 58.4818 64.082C58.5015 63.9535 58.9263 61.2368 58.9263 61.2368H57.079V61.2467ZM60.4477 61.2467L60.5267 61.464H61.5047C61.5047 61.464 61.1392 64.2104 61.1392 64.3684C61.1392 64.7636 61.5344 64.2499 61.5344 64.2499C61.5344 64.2499 61.3565 64.3981 61.4059 64.082C61.4257 63.9535 61.7912 61.2368 61.7912 61.2368H60.4477V61.2467ZM58.5806 66.1466L58.4324 65.8898L60.0822 63.2225L60.2106 63.4398L58.5806 66.1466ZM61.5146 66.1269L61.3961 65.9589L63.9942 62.4519L63.9646 62.8372L61.5047 66.1269H61.5146ZM63.3224 61.2566H65.1797C65.1797 61.2566 64.5277 62.0271 64.6561 62.037C64.7944 62.0568 64.9722 61.9679 64.9722 61.9679C64.9722 61.9679 64.3004 62.3729 64.419 62.0173C64.5474 61.6616 64.7549 61.4838 64.7549 61.4838H63.4509L63.3224 61.2665V61.2566ZM65.1698 61.8098C65.1698 61.8098 65.5156 61.4344 66.3948 61.2665C67.1752 61.1084 68.0248 61.385 68.3014 61.6221L67.4518 62.7285L67.3629 62.4322L67.8865 61.7308C67.8865 61.7308 66.8492 61.1282 65.1599 61.8197L65.1698 61.8098ZM65.7527 62.6298C65.7527 62.6298 65.4069 62.9558 65.7823 63.1237C66.1379 63.2818 66.4343 63.3509 66.8196 63.4596C67.4222 63.6275 67.4913 64.487 66.5232 65.5144C66.5232 65.5144 67.2246 65.2279 67.4716 64.3289C67.6692 63.5979 67.1357 63.2916 66.6516 63.1731C66.3355 63.0941 65.7724 63.0052 65.8712 62.7878L65.7428 62.6199L65.7527 62.6298Z" fill="#FFE692"/>
<path d="M57.0597 51.9703H60.053L57.4845 60.1896L57.0498 59.824L59.3121 52.4248H57.2177L57.0498 51.9604L57.0597 51.9703Z" fill="#FFCE00"/>
<path d="M58.2453 29.8417C58.2453 29.8417 57.4748 30.148 57.4451 30.6221C57.4451 30.6221 57.0401 29.98 57.7217 29.4663L58.2453 29.8417Z" fill="white"/>
<path d="M47.279 52.8298C47.279 52.8298 48.6324 51.9604 51.2207 51.9604L51.5763 52.4346C51.5763 52.4346 48.7015 52.3754 47.279 52.8298ZM22.6905 54.1338C22.6905 54.1338 21.0901 56.9098 20.932 57.1666C20.8135 57.3444 20.685 57.9174 21.4062 57.9174H23.2536L22.888 57.4136H21.3074L23.0066 54.5191L22.7003 54.1239L22.6905 54.1338ZM22.7102 51.9604H25.5059C25.5059 51.9604 26.0196 59.5178 26.0196 59.5672C26.0394 59.7252 26.1678 59.8636 26.3358 59.8833C26.3358 59.8833 25.5059 60.1105 25.4565 59.2214C25.3874 58.3224 25.0515 52.4346 25.0515 52.4346H22.4336L22.7201 51.9604H22.7102ZM20.6258 53.1953C20.4578 53.1953 19.5786 53.6794 19.5786 53.6794C19.5786 53.6794 20.7937 53.3929 21.5346 53.3929" fill="#FFCE00"/>
<path d="M18.7593 52.8299C18.7593 52.8299 20.1127 51.9605 22.7009 51.9605L23.0566 52.4347C23.0566 52.4347 20.1818 52.3755 18.7593 52.8299ZM69.1811 51.9605C69.2601 52.0396 69.3293 52.1779 69.2897 52.4249H74.5552L74.1897 53.5807L74.5453 54.0647L75.1874 51.9704H69.1811V51.9605ZM38.4973 53.5214C38.4973 53.5214 38.0922 54.8551 38.0428 55.0526C38.0033 55.1811 37.8749 55.5466 38.438 55.5466H40.5027L40.1569 56.732L40.4829 57.1272L41.0757 55.1514H38.5368L38.8727 54.0351L38.4874 53.5313L38.4973 53.5214ZM37.5291 56.6333C37.5291 56.6333 37.1439 57.9373 37.0846 58.125C37.0451 58.2534 36.9167 58.6189 37.4798 58.6189H39.8704L39.5247 59.8044L39.821 60.1897L40.4138 58.2139H37.5687L37.8947 57.1272L37.5193 56.6431L37.5291 56.6333ZM36.314 51.9507C36.3931 52.0297 36.4622 52.168 36.4227 52.415H41.6882L41.3226 53.5708L41.6783 54.0549L42.3204 51.9605H36.314V51.9507ZM67.9265 53.5708C67.2843 52.2668 65.7235 51.9507 64.3799 51.9507H60.626C60.705 52.0297 60.784 52.168 60.7445 52.415H64.6862C66.4347 52.415 68.2426 53.5016 67.8771 56.2875C67.8771 56.2875 68.4402 54.6081 67.9363 53.5807L67.9265 53.5708ZM29.8137 54.0944L30.1595 54.4006L29.0827 57.9175C29.0827 57.9175 29.5273 58.0558 30.9301 57.6804C30.9301 57.6804 28.1936 59.103 28.6579 57.6113C29.1123 56.1986 29.2013 55.8923 29.8236 54.0944H29.8137ZM35.0002 53.551C34.358 52.247 32.7972 51.9309 31.4536 51.9309H27.6997C27.7787 52.0099 27.8577 52.1482 27.8182 52.3952H31.7698C33.5183 52.3952 35.3262 53.4819 34.9606 56.2677C34.9606 56.2677 35.5139 54.5784 35.01 53.5609L35.0002 53.551ZM47.6155 61.306L46.9635 63.2126C46.7659 62.9459 46.4597 62.6989 46.0349 62.6989C45.4718 62.6989 44.8395 63.1336 44.6419 63.667C44.4444 64.2104 44.7704 64.645 45.3335 64.645C45.7681 64.645 46.183 64.4771 46.5881 64.1807L45.8373 66.0577C45.4816 66.196 44.7506 66.2454 44.4147 66.2454C42.923 66.2454 42.1722 65.1291 42.7057 63.7065C42.8736 63.262 43.1404 62.8372 43.4762 62.4816C42.9329 62.5013 42.2216 62.5705 42.2216 62.5705C43.17 62.0074 43.7133 61.9185 43.9109 61.9086C42.518 61.8789 41.7771 62.0963 41.7771 62.0963C43.6639 61.1973 45.3038 60.8219 46.9042 61.1183C47.1512 61.1578 47.408 61.2269 47.6155 61.2961V61.306Z" fill="#FFCE00"/>
<path d="M46.9136 63.0053L46.716 62.62L47.1111 61.5234C47.1111 61.5234 46.4295 61.3357 45.2539 61.4246C43.9104 61.5432 42.5273 61.8988 42.5273 61.8988C42.5273 61.8988 45.0366 60.6245 47.4865 61.3753L46.9234 62.9954L46.9136 63.0053Z" fill="#FFE692"/>
</g>
<defs>
<clipPath id="clip0_413_1287">
<rect width="80" height="80" fill="white"/>
</clipPath>
</defs>
</svg>
