<svg width="80" height="80" viewBox="0 0 80 80" fill="none" xmlns="http://www.w3.org/2000/svg">
<path d="M70.7057 3.10989C70.7057 3.10989 61.6278 0 39.5419 0C20.0632 0 8.38316 2.99537 8.38316 2.99537L8 52.1575C8.00012 52.6421 8.02824 53.1262 8.08421 53.6076C8.25138 55.0041 8.63017 56.3671 9.20758 57.6497L9.36 58.0042L10.0328 59.2413C12.1777 62.7874 15.9571 65.3516 21.1284 68.8598C21.8989 69.3827 24.8211 71.3069 24.8211 71.3069L25.4509 71.6943C26.512 72.3444 27.9587 73.2269 29.5032 74.1634C32.3166 75.8661 36.0303 78.0926 37.7423 79.0223L39.5427 80L41.344 79.0223C42.4236 78.4362 50.7251 73.5234 54.2712 71.3002L55.5192 70.5187C56.3663 69.9385 57.9604 68.8564 57.9604 68.8564C63.5074 65.0939 67.2034 62.5869 69.2952 58.8211L69.3406 58.7301L69.611 58.2232C70.3367 56.7713 70.8076 55.2055 71.003 53.5941C71.0257 53.3827 71.0451 53.1697 71.0627 52.9095C71.0771 52.6383 71.0838 52.3916 71.0838 52.1575L70.7057 3.10989Z" fill="#043673"/>
<path fill-rule="evenodd" clip-rule="evenodd" d="M10.1229 57.2469L10.2605 57.5669L10.9001 58.7429C12.9096 62.0519 16.4663 64.4887 21.6898 68.0322C22.0688 68.2894 22.986 68.8974 23.815 69.4452C24.2281 69.7182 24.6171 69.9748 24.9029 70.1633L25.358 70.4632L25.9734 70.8416C27.0329 71.4908 28.4781 72.3724 30.0209 73.3078C32.8423 75.0153 36.5328 77.2276 38.2195 78.1435L39.5429 78.8621L40.8669 78.1435C40.8669 78.1435 40.8669 78.1435 40.8669 78.1435C41.9201 77.5716 50.2012 72.6715 53.74 70.4529L54.971 69.6821C55.3953 69.3916 55.9973 68.9816 56.4951 68.6431L57.3942 68.0322L57.3976 68.0298L57.3985 68.0292L57.9604 68.8564C57.9604 68.8564 56.3663 69.9385 55.5192 70.5187L54.2712 71.3002C50.7251 73.5234 42.4236 78.4362 41.344 79.0223L39.5427 80L37.7423 79.0223C36.0303 78.0926 32.3166 75.8661 29.5032 74.1634C27.9587 73.227 26.512 72.3444 25.4509 71.6943L24.8211 71.3069C24.8211 71.3069 21.8989 69.3827 21.1284 68.8598C15.9571 65.3516 12.1777 62.7874 10.0328 59.2413L9.36 58.0042L9.20758 57.6497C8.63017 56.3671 8.25138 55.0041 8.08421 53.6076C8.02824 53.1262 8.00012 52.6421 8 52.1575L8.38316 2.99537C8.38316 2.99537 20.0632 0 39.5419 0C61.6278 0 70.7057 3.10989 70.7057 3.10989L71.0838 52.1575C71.0838 52.3916 71.0771 52.6383 71.0627 52.9095C71.0451 53.1697 71.0257 53.3827 71.003 53.5941C70.8076 55.2055 70.3367 56.7713 69.611 58.2232L69.3406 58.7301L69.2952 58.8211C67.2034 62.5868 63.5071 65.0941 57.9604 68.8564L57.3985 68.0292C63.001 64.229 66.457 61.8576 68.4106 58.3541L68.4521 58.2712L68.7222 57.7645C69.3925 56.4203 69.8279 54.9714 70.0094 53.4804C70.0303 53.2857 70.0481 53.0896 70.0645 52.8493C70.0777 52.5982 70.0837 52.3726 70.0838 52.1611C70.0838 52.1599 70.0838 52.1587 70.0838 52.1575L69.7114 3.85634C69.4531 3.78465 69.1187 3.69627 68.7054 3.59553C67.5379 3.31097 65.7411 2.92773 63.2533 2.54321C58.2776 1.77418 50.538 1 39.5419 1C29.8536 1 22.1104 1.74493 16.7965 2.48805C14.1396 2.85959 12.0904 3.23064 10.7093 3.5078C10.157 3.61861 9.71166 3.71442 9.377 3.78923L9 52.1572C9 52.1585 9 52.1598 9 52.1612C9.00026 52.6053 9.02608 53.0491 9.07732 53.4904C9.23252 54.7856 9.58391 56.0497 10.1194 57.2392L10.1229 57.2469Z" fill="white"/>
<path d="M68.6261 4.7226C68.6261 4.7226 59.6206 2.12134 39.5423 2.12134C21.368 2.12134 10.4627 4.68976 10.4627 4.68976L10.0796 52.1575C10.0802 52.5636 10.1035 52.9693 10.1495 53.3727C10.2935 54.5601 10.6169 55.7188 11.1086 56.8085L11.2206 57.062L11.5533 57.7382L11.8118 58.1651C13.7209 61.3213 17.3175 63.7618 22.2969 67.1403C23.0682 67.6632 23.8834 68.2157 24.7246 68.7933L24.963 68.9525L26.5385 69.9218C27.5962 70.5719 29.0396 71.4519 30.5798 72.3841C34.5907 74.8127 37.4101 76.4775 38.7347 77.195L39.5432 77.6338L40.3507 77.195C41.363 76.646 49.5693 71.7929 53.1676 69.5386L56.7954 67.1361C62.1141 63.5277 65.6265 61.1445 67.4783 57.8123L67.6198 57.558L67.7444 57.3045C68.3642 56.0698 68.7676 54.7379 68.9369 53.3668C68.9821 52.9653 69.0052 52.5616 69.0059 52.1575L68.6261 4.7226Z" fill="white"/>
<path d="M66.9329 6.00262C66.9329 6.00262 59.6049 3.81567 39.5417 3.81567C21.3565 3.81567 12.1565 6.03631 12.1565 6.03631L11.7725 52.1576C11.7725 52.3386 11.7784 52.5205 11.7901 52.7033C11.7994 52.8616 11.8129 53.0207 11.8322 53.1807C11.9775 54.3572 12.3254 55.4997 12.8605 56.5576C14.6592 60.2131 18.7586 62.763 25.6992 67.4072C25.6941 67.4334 36.4436 74.0237 39.5417 75.7062C42.6407 74.0237 53.2445 67.4931 53.3851 67.4072C60.3855 62.7285 64.4217 60.2174 66.2221 56.5601L66.2247 56.5576C66.759 55.4995 67.1069 54.3571 67.2529 53.1807C67.2706 53.0207 67.284 52.8624 67.2941 52.7033C67.3059 52.5205 67.311 52.3395 67.311 52.1576L66.9329 6.00262ZM33.0449 65.1125C31.8878 64.7807 39.7683 65.6237 35.1426 65.4334C34.4338 65.4025 33.7305 65.295 33.0449 65.1125Z" fill="#043673"/>
<path d="M42.866 68.1221C52.4937 68.1221 60.2984 60.6468 60.2984 51.4257C60.2984 42.2045 52.4937 34.7292 42.866 34.7292C33.2384 34.7292 25.4336 42.2045 25.4336 51.4257C25.4336 60.6468 33.2384 68.1221 42.866 68.1221Z" fill="white"/>
<path fill-rule="evenodd" clip-rule="evenodd" d="M67.2726 46.1567L67.2558 44.1364L54.8751 51.1941C55.3789 50.093 55.7956 48.9541 56.1215 47.7878C57.628 42.6889 55.9539 36.6779 45.7063 39.2918C44.8538 39.1024 43.9799 39.0273 43.1076 39.0687C42.236 39.1091 43.7779 39.248 44.6865 39.5706C43.9042 39.8055 43.0722 40.1002 42.1905 40.4632C41.2646 40.3014 40.3212 40.2645 39.3854 40.3537C38.4507 40.4421 40.1467 40.5381 41.2078 40.8851C40.2816 41.3054 39.3723 41.7619 38.4819 42.2535C37.4745 42.1414 36.4568 42.1609 35.4545 42.3116C34.4516 42.4623 36.2882 42.4901 37.473 42.8261C37.1488 43.0156 36.8204 43.211 36.4861 43.419C31.7004 46.3706 28.8861 49.7659 27.2633 52.6089C27.4168 51.6188 27.7017 50.6537 28.1105 49.739C30.273 45.1748 34.6377 39.0973 46.3067 37.8004C49.6086 37.4333 52.2393 38.1432 54.449 39.8164L67.1606 32.5811L11.9463 32.5659L31.3029 43.5958C28.7116 45.8483 26.7132 48.7027 25.4831 51.9082L24.94 53.6303C23.6364 58.6922 25.1311 63.3558 30.9981 64.0564C30.9981 64.0564 28.9349 63.376 28.7311 59.9562C28.5248 56.5339 31.4629 50.5423 36.8187 46.2392C37.9202 45.3501 39.0637 44.5144 40.2452 43.7348C41.5009 44.181 42.6964 44.7815 43.804 45.5225C44.9122 46.2636 45.345 44.5339 41.4292 42.9895C42.1393 42.5622 42.8666 42.1644 43.6094 41.7971C44.5627 42.1988 45.4621 42.7158 46.289 43.3364C47.116 43.9571 47.8638 42.7276 44.7353 41.275C45.187 41.0807 45.6442 40.8996 46.1063 40.7318C46.364 40.6493 46.6233 40.5684 46.8861 40.4927C47.5328 40.8009 48.14 41.1866 48.6941 41.6413C49.2473 42.0969 49.7863 41.2691 47.9859 40.2148C53.0174 38.6282 55.3358 41.4139 55.1783 44.9785C54.8448 49.68 50.9223 56.5238 43.4402 59.4914C38.508 61.4484 36.3732 60.2308 37.3164 55.4602C37.6684 53.8131 38.2974 52.2376 39.1766 50.8009C39.4419 50.3697 39.6928 49.9815 39.9294 49.6362C40.5573 48.723 41.2661 47.8682 42.0473 47.0821C38.5593 46.1407 35.3762 49.8628 33.3349 52.8775C31.2894 55.8939 29.82 60.5701 31.5572 62.8531C34.2065 66.3301 43.8528 63.1857 49.4873 58.2333C50.8496 57.0467 52.0667 55.7032 53.1134 54.2308L67.2726 46.1567Z" fill="#043673"/>
<path fill-rule="evenodd" clip-rule="evenodd" d="M39.5528 71.3946L66.4918 56.0144C66.4093 56.2064 66.3293 56.3992 66.2341 56.5929L66.2316 56.5962C65.6609 57.7192 64.914 58.7436 64.0194 59.6304L39.5528 73.6017L15.0973 59.6371C14.1967 58.7481 13.4446 57.7203 12.8699 56.5929L12.8682 56.5887C12.773 56.395 12.693 56.2021 12.6105 56.0093L39.5528 71.3946ZM26.2754 50.1541L11.8678 41.9403L11.8501 44.1365L25.5065 51.9226C25.7314 51.3196 25.9874 50.7293 26.2754 50.1541ZM55.8509 48.432C55.5655 49.3919 55.2126 50.3303 54.7949 51.2405L67.2556 44.1365L67.237 41.9403L55.8509 48.432ZM30.1617 23.0476L30.16 23.0535C32.1312 23.7666 34.2103 24.1357 36.3065 24.1449C39.7549 24.1466 41.6244 22.5019 41.9074 20.3024C41.9402 20.5424 41.957 20.784 41.9579 21.0257C41.957 23.5167 40.0674 25.4628 36.3141 25.4611C34.2179 25.452 32.1388 25.0829 30.1676 24.3697L30.1701 24.3613H30.1566V23.0476H30.1617ZM64.0143 10.7175L60.0295 24.6965C59.9234 25.1175 59.5166 25.3971 59.0855 25.3449L55.2867 25.344L53.0813 15.9436L50.4741 25.3415L45.9848 25.3398L42.5676 10.7125L42.5667 10.7091L42.5617 10.6864H42.5659L42.549 9.37183H42.5533L45.9773 24.0228L50.4665 24.0253L53.0728 14.6282L55.2792 24.0278L59.0779 24.0287C59.509 24.0809 59.9158 23.8013 60.0227 23.3802L64.0135 9.37856L63.3137 9.37772H64.0202V10.6956V10.6981V10.7175H64.0143ZM28.6636 23.3668C28.6627 23.8485 28.4556 24.016 27.9486 24.016L24.5415 24.0135L19.9865 14.9491L20.0101 16.2948L24.549 25.3306L27.957 25.3322C28.4632 25.3322 28.6712 25.1655 28.6712 24.683L28.6636 23.3668ZM16.1221 24.0101L20.128 24.0127L20.1516 25.3289L16.1221 25.3272V24.0101ZM37.6194 20.4405C37.7178 20.2017 37.7654 19.945 37.7592 19.6868C37.7608 17.2413 31.0636 18.2847 30.3781 14.3293C30.3604 14.464 30.3402 14.5971 30.3335 14.7411C30.1196 19.3567 36.5693 18.571 37.6194 20.4405ZM41.5419 11.5175L40.4194 14.0346C39.1501 13.6767 37.8455 13.4584 36.5288 13.3836C35.744 13.3836 35.1166 13.5824 34.7907 13.984C34.6287 13.8185 34.5383 13.5959 34.5389 13.3642C34.5389 12.4851 35.3684 12.0666 36.5204 12.0674C37.8366 12.1424 39.1419 12.3605 40.4109 12.7175L41.5394 10.1887H41.5453V11.5007L41.5486 11.5024L41.5453 11.5091V11.5175H41.5419Z" fill="#000022"/>
<path fill-rule="evenodd" clip-rule="evenodd" d="M53.4266 30.4167H52.8472V29.6209H54.6005V32.042C54.5993 32.0912 54.583 32.1388 54.554 32.1786C54.525 32.2183 54.4845 32.2482 54.438 32.2643C53.9785 32.4247 53.4948 32.5048 53.0081 32.5009C51.6936 32.5009 50.918 31.8601 50.918 30.106C50.918 28.5355 51.7272 27.7254 53.0898 27.6917C53.5564 27.6741 54.0219 27.7497 54.459 27.914L54.2569 28.751C53.916 28.6271 53.554 28.5719 53.1917 28.5885C52.5163 28.623 52.0851 29.007 52.0851 30.0866C52.0851 31.0913 52.3546 31.5906 53.1302 31.5965C53.2296 31.5965 53.3289 31.5873 53.4266 31.5696V30.4167ZM27.1925 30.4167H26.6123V29.6209H28.3664V32.042C28.3653 32.0912 28.3491 32.1389 28.32 32.1787C28.291 32.2184 28.2504 32.2483 28.2039 32.2643C27.7444 32.4247 27.2607 32.5048 26.774 32.5009C25.4586 32.5009 24.6839 31.8601 24.6839 30.106C24.6839 28.5355 25.4931 27.7254 26.8548 27.6917C27.3215 27.674 27.787 27.7496 28.2241 27.914L28.0228 28.751C27.6817 28.6268 27.3193 28.5715 26.9567 28.5885C26.2822 28.623 25.8502 29.007 25.8502 30.0866C25.8502 31.0913 26.1197 31.5906 26.8952 31.5974C26.9955 31.5965 27.0948 31.5873 27.1925 31.5696V30.4167ZM21.4763 30.815C21.4763 31.2664 21.6178 31.5974 22.171 31.5974C22.7235 31.5974 22.8253 31.2395 22.8253 30.8555V27.7388H23.9992V30.6121C23.9992 31.887 23.4056 32.5009 22.123 32.5009C20.8498 32.5009 20.3024 31.8264 20.3024 30.5784V27.7388H21.4763V30.815ZM29.243 27.8205C29.7797 27.7469 30.32 27.7038 30.8616 27.6917C32.1432 27.6917 32.6426 28.1035 32.6426 28.9936C32.642 29.1858 32.588 29.3741 32.4866 29.5373C32.3852 29.7006 32.2403 29.8325 32.0683 29.9182C32.5719 30.074 32.9104 30.5515 32.8919 31.0778C32.8919 32.09 32.1904 32.5009 30.8885 32.5009C30.3379 32.4872 29.7885 32.4422 29.243 32.3662V27.8205ZM56.5955 30.815C56.5955 31.2664 56.7361 31.5974 57.2893 31.5974C57.8426 31.5974 57.9437 31.2395 57.9437 30.8555V27.7388H59.1176V30.6121C59.1176 31.887 58.5239 32.5009 57.2422 32.5009C55.9672 32.5009 55.4216 31.8264 55.4216 30.5784V27.7388H56.5955V30.815ZM45.798 28.5355H44.0102V29.6209H45.6355V30.4167H44.0102V31.631H45.8317V32.2449C45.8317 32.3999 45.7643 32.4605 45.6018 32.4605H42.8363V27.7388H45.798V28.5355ZM62.971 28.5355H61.1832V29.6209H62.8093V30.4167H61.1832V31.631H63.0047V32.2449C63.0047 32.3999 62.9373 32.4605 62.7757 32.4605H60.0093V27.7388H62.971V28.5355ZM17.3315 32.4605H16.1576V27.7995C16.6856 27.7358 17.2165 27.6998 17.7483 27.6917C19.0847 27.6917 19.6312 28.1835 19.6312 29.2024C19.6312 29.7414 19.3744 30.3965 18.8346 30.5986C18.9298 30.7266 19.307 31.4146 19.7323 32.2171C19.8131 32.3662 19.7323 32.4605 19.5698 32.4605H18.5988C18.5988 32.4605 17.9041 30.9902 17.8771 30.943C17.8647 30.9077 17.8406 30.8776 17.8087 30.8578C17.7769 30.8381 17.7392 30.8298 17.702 30.8344H17.3315V32.4605ZM35.3483 32.4605H34.3908V30.9161L33.1024 27.7388H34.3369L34.9904 29.8769L35.7053 27.7388H36.9062L35.5639 30.9026V32.2517C35.5639 32.3999 35.4965 32.4605 35.3483 32.4605ZM40.4136 31.631H42.2342V32.2449C42.2342 32.3999 42.1668 32.4605 42.0051 32.4605H39.2397V27.7388H40.4136V31.631ZM47.6329 32.4605H46.3706L47.9024 27.7388H49.2312C49.2312 27.7388 50.6679 32.2449 50.6679 32.2517C50.7083 32.3999 50.6409 32.4605 50.4784 32.4605H49.3929L49.1302 31.4087H47.9361L47.6329 32.4605ZM31.0039 30.4033C30.8078 30.3994 30.6117 30.4039 30.4161 30.4167V31.6176C30.4161 31.6176 30.5988 31.6369 30.9567 31.6369C31.5698 31.6369 31.7247 31.3338 31.7247 31.0096C31.7247 30.6256 31.483 30.4167 31.0039 30.4033ZM48.1256 30.6054H48.9744L48.5441 28.8782L48.1256 30.6054ZM18.4439 29.2428C18.4439 28.7915 18.2889 28.575 17.7559 28.575C17.5672 28.575 17.3247 28.602 17.3247 28.602V29.9106H17.8637C18.2005 29.9106 18.4439 29.6816 18.4439 29.2428ZM30.8009 28.5144C30.6384 28.5144 30.4161 28.5355 30.4161 28.5355V29.6277C30.4161 29.6277 30.7133 29.6344 30.8952 29.6277C31.2464 29.6142 31.4889 29.466 31.4889 29.0812C31.4889 28.7039 31.3205 28.5144 30.8009 28.5144ZM40.411 12.7174C39.1416 12.3603 37.8371 12.1423 36.5205 12.0673C35.3685 12.0664 34.539 12.4849 34.539 13.3641C34.5382 15.6243 41.9529 14.1212 41.9504 19.7094C41.9479 22.2003 40.0599 24.1464 36.3066 24.1447C34.2104 24.1356 32.1313 23.7664 30.1601 23.0534L30.8742 20.458C32.3391 20.8081 33.8228 21.0746 35.318 21.2563C36.8607 21.4028 37.7592 20.9843 37.7592 19.6866C37.7609 17.0702 30.0927 18.4479 30.3251 13.4247C30.4885 10.0344 33.6894 9.21842 36.4986 9.2201C38.2258 9.21252 39.9386 9.5401 41.5411 10.1852L40.411 12.7174ZM55.2792 24.0277L53.0738 14.6281L50.4666 24.0252L45.9773 24.0235L42.5533 9.36999L46.6755 9.37168L48.4885 19.7338L51.3037 9.37336L54.9407 9.37505L57.6068 19.7372L59.7289 9.37673L64.0136 9.37841L60.0228 23.3801C59.9159 23.8012 59.5091 24.0807 59.078 24.0285L55.2792 24.0277ZM28.6704 9.3641L28.6637 23.3666C28.6628 23.8483 28.4557 24.0159 27.9487 24.0159L24.5416 24.0134L19.9866 14.9489L20.1432 24.0125L16.1138 24.01L16.1222 9.3582L20.6115 9.35989L24.7757 17.6925L24.6182 9.36157L28.6704 9.3641Z" fill="white"/>
<path d="M55.32 40.646L67.1709 33.8923L67.2374 41.9403L55.9448 48.3791C56.0088 48.1677 56.0694 47.9664 56.1216 47.7879C56.8753 45.238 56.8324 42.4591 55.32 40.646ZM30.4105 44.4212L11.9347 33.8932L11.8682 41.9403L26.2513 50.1408C27.3084 48.0152 28.7142 46.0819 30.4105 44.4212Z" fill="url(#paint0_linear_413_1693)"/>
<path fill-rule="evenodd" clip-rule="evenodd" d="M42.0651 47.0813C42.0188 47.1453 39.9843 50.971 39.6668 52.5735C38.7952 56.9794 41.5085 58.3714 46.0651 56.5642C49.1123 55.3572 51.7076 53.2306 53.49 50.48C51.3205 54.5851 47.7567 57.7807 43.4403 59.4914C38.5081 61.4484 36.3734 60.2308 37.3165 55.4602C37.6685 53.8131 38.2975 52.2376 39.1767 50.8009C39.4428 50.3697 39.6929 49.9815 39.9296 49.6362C40.5506 48.7358 41.2491 47.8913 42.0171 47.1124C42.0334 47.1025 42.0494 47.0921 42.0651 47.0813ZM51.0319 56.7503C51.7875 55.9635 52.4834 55.1213 53.1136 54.2308L67.2727 46.1567L67.2828 47.483L51.0319 56.7503ZM24.9401 53.6303L11.8336 46.1575L11.8218 47.4838L24.6849 54.8185C24.7531 54.4261 24.8374 54.0303 24.9401 53.6303ZM31.303 43.5958L11.9464 32.5659L11.9346 33.8931L30.4079 44.4194C30.6983 44.1364 30.9969 43.8617 31.303 43.5958ZM54.4492 39.8164L54.4466 39.8156C54.4828 39.8468 54.5131 39.8813 54.5485 39.9124C54.8323 40.128 55.0908 40.3739 55.3199 40.6459L67.1708 33.8922L67.1607 32.5811L54.4492 39.8164Z" fill="#5EAEE0"/>
<path d="M67.2825 47.4829L51.0307 56.7511C50.5376 57.267 50.0226 57.7615 49.4871 58.2332C43.8526 63.1856 34.2063 66.3301 31.557 62.853C31.5267 62.8143 31.5048 62.7688 31.4779 62.7275L31.4787 62.7301C31.477 62.7082 30.0867 61.1789 30.1945 58.149C30.2257 54.1616 32.9137 50.2871 32.9903 50.1633C33.0055 50.1406 33.2859 49.68 33.2884 49.6968C33.2892 49.7027 33.2951 49.6859 33.2985 49.68C30.2021 53.3515 28.576 57.381 28.7309 59.9562C28.9347 63.376 30.9979 64.0564 30.9979 64.0564C25.5924 63.4113 23.8956 59.4012 24.6812 54.816L11.8215 47.4829L11.7827 52.1936C11.7827 52.3751 11.7886 52.5565 11.8004 52.7376C11.8756 53.8622 12.1436 54.9654 12.5928 55.9991L39.5528 71.3945L66.5078 56.005C66.8943 55.1166 67.1486 54.1768 67.2631 53.2151C67.28 53.0568 67.2943 52.8976 67.3052 52.7376C67.3153 52.5558 67.3221 52.3739 67.3221 52.1936L67.2825 47.4829Z" fill="url(#paint1_linear_413_1693)"/>
<defs>
<linearGradient id="paint0_linear_413_1693" x1="8.37511" y1="42.0161" x2="70.7295" y2="42.0161" gradientUnits="userSpaceOnUse">
<stop stop-color="#0076BE"/>
<stop offset="0.5" stop-color="#5EAEE0"/>
<stop offset="1" stop-color="#0076BE"/>
</linearGradient>
<linearGradient id="paint1_linear_413_1693" x1="11.7827" y1="59.4391" x2="67.3216" y2="59.4391" gradientUnits="userSpaceOnUse">
<stop stop-color="#0076BE"/>
<stop offset="0.5" stop-color="#5EAEE0"/>
<stop offset="1" stop-color="#0076BE"/>
</linearGradient>
</defs>
</svg>
