<svg width="80" height="80" viewBox="0 0 80 80" fill="none" xmlns="http://www.w3.org/2000/svg">
<path d="M49.1824 47.3648C49.1952 47.3744 49.7272 47.7552 50.4864 47.7552C50.6184 47.7552 50.7512 47.7432 50.8832 47.7208C51.3592 47.6328 51.8424 47.5856 52.3264 47.5792C53.4984 47.5792 54.4376 47.9312 55.3728 48.7192C55.7856 49.0672 56.9736 49.8152 60.2968 50.9224C62.2072 51.5592 62.9392 51.924 63.2728 52.1512C63.9808 52.3848 64.9768 53.0264 65.0816 54.2856C65.1192 54.4776 65.1328 54.652 65.1336 54.7992C65.7904 56.176 65.5904 57.9304 65.5624 58.14L65.1904 61.0256L63.5976 58.5904C63.4741 58.3994 63.3419 58.2142 63.2016 58.0352C63.232 58.3008 63.2448 58.5944 63.2288 58.9128L63.1776 59.936L62.1456 59.9448C61.6712 59.9448 61.4504 59.7552 60.644 58.9768L60.6568 59.1024L60.7672 60.236L59.5792 60.2816C59.304 60.2816 58.84 60.2816 57.6008 59.1176L57.7288 60.752L56.3016 60.4232C55.1976 60.168 54.4024 59.2888 53.9904 58.7216C53.4056 58.5376 52.8912 58.0672 52.7152 57.5296C52.619 57.4232 52.5161 57.323 52.4072 57.2296L52.3776 57.2032C51.896 56.76 50.572 55.5576 50.1024 55.1784C49.8856 55.0872 49.1112 54.9656 47.976 54.9656L47.9016 54.9664C46.7664 54.9984 43.6312 55.0992 42.9584 55.168C42.416 55.224 42.16 55.1968 41.9504 55.1696C41.8032 55.1496 41.6224 55.124 41.0992 55.124L40.8272 55.1248C39.44 55.1248 39.1208 54.7104 37.9296 53.1696C37.4528 52.5544 36.8024 51.7112 35.8232 50.5248C35.42 50.0336 35.0336 49.668 34.6256 49.2816C34.3768 49.048 34.1336 48.8096 33.8944 48.5656C33.6816 49.7576 33.2016 51.1432 32.1216 51.66C32.0129 51.7142 31.9 51.7594 31.784 51.7952L31.7096 51.8168C31.5481 51.8583 31.382 51.8793 31.2152 51.8792C30.1712 51.8792 29.0464 51.1056 27.7456 50.2088C26.6512 49.456 25.2888 48.5184 24.476 48.5184C24.4439 48.5175 24.4118 48.5193 24.38 48.524C22.7904 48.72 22.6464 50.1728 22.6344 50.4632L22.6304 50.5136C22.5744 51.2 22.1152 51.7384 21.5176 51.864C21.2263 51.9954 20.9108 52.0646 20.5912 52.0672C20.2424 52.0672 19.9 51.9832 19.572 51.8152C19.4648 51.8082 19.3584 51.791 19.2544 51.764C18.9416 51.8504 18.4768 51.9616 17.9792 51.9616C17.8016 51.9616 17.6296 51.9472 17.4688 51.9184L17.2968 51.8872L17.0976 52.0776C16.7736 52.3888 16.4472 52.6976 16.116 53.0016C15.5152 53.5416 14.8232 53.8144 14.0584 53.8144C13.7248 53.8144 13.4464 53.7624 13.2624 53.7272L13.16 53.7088C12.9184 53.672 12.7008 53.588 12.4712 53.5008C12.1464 53.376 11.8104 53.2472 11.3968 53.2472C10.7968 53.2472 10.3632 53.1344 10.0528 52.984C9.796 53.06 9.4256 53.2224 9.1456 53.5648C8.2056 54.7136 6.3592 55.0456 5.8072 55.1216C5.5439 55.2115 5.26781 55.2582 4.9896 55.26C3.696 55.26 2.9992 54.2272 2.7912 53.616L2.7256 53.424C2.39756 53.2896 2.10887 53.0744 1.8864 52.7984C1.85147 52.7544 1.81863 52.7087 1.788 52.6616C0.6576 52.1712 0.2448 50.9872 0.188 50.3392L0 48.1704L1.836 49.3392C1.9088 49.3848 2.16 49.4696 2.6152 49.4816C3.0928 48.9944 3.6352 48.7648 4.2896 48.7648C4.5088 48.7648 4.708 48.7896 4.9016 48.8136C5.0032 48.8264 5.1096 48.8392 5.2216 48.848C5.3888 48.86 5.5168 48.8776 5.612 48.8928L5.8664 48.7744L6.26 48.5896C6.9072 48.2888 7.5728 47.2648 7.9704 46.6528C8.188 46.3192 8.3592 46.056 8.5368 45.8664C9.3624 44.9816 10.1824 44.7952 10.7256 44.7952C10.9952 44.7952 11.2664 44.84 11.5288 44.9272C11.696 44.9832 11.8472 45.052 11.9856 45.1288C12.8264 43.7368 13.1984 42.5624 13.0624 41.6976C12.8136 40.124 13.5808 38.7472 13.736 38.4872C13.8712 38.2616 14.32 37.7072 14.8416 37.1744C14.376 36.8304 13.9952 36.4712 13.9872 36.464C13.9211 36.4003 13.8557 36.3357 13.7912 36.2704L13.7568 36.2336C13.5246 35.9876 13.3091 35.7262 13.112 35.4512L13.0752 35.396C12.9138 35.1628 12.7704 34.9175 12.6464 34.6624L12.6192 34.6016C12.1222 33.5584 12.0224 32.3699 12.3384 31.2584C13.3832 27.4592 18.1256 27.3376 18.3264 27.3336H18.3528L18.5216 27.3352C19.9984 27.3352 22.0072 26.996 22.8104 26.0384C22.9904 25.824 23.1032 25.5848 23.1544 25.3104L23.1736 25.196C23.1957 25.0424 23.2032 24.887 23.196 24.732C23.1841 24.4509 23.1135 24.1754 22.9888 23.9232C22.4576 22.868 20.908 22.1904 18.508 21.9624C17.7944 21.9504 16.1792 21.816 15.5056 20.8888C15.3541 20.6816 15.2545 20.4412 15.2151 20.1875C15.1757 19.9339 15.1977 19.6746 15.2792 19.4312C15.3856 19.0928 15.6904 18.4936 16.5488 18.1936C16.6616 18.1416 16.7792 18.1008 16.9 18.0728C17.1048 18.0232 17.3688 18 17.7072 18C19.3704 18 23.0568 18.58 25.1104 20.7744C25.8302 21.5315 26.3365 22.4659 26.5776 23.4824C26.788 24.7024 26.5776 26.0032 26.5776 26.0032C26.3841 26.8352 26.0157 27.6166 25.4968 28.2952C25.4696 28.3344 25.4408 28.3736 25.4112 28.412C23.9144 29.9896 22.0504 30.436 22.0504 30.436C22.0416 30.4392 20.5576 30.6792 19.8392 30.7488C17.892 30.936 16.6688 31.1128 16.0864 32.3256C16.0256 32.4568 15.9896 32.5976 15.98 32.7424C15.9856 33.572 17.5136 34.5304 18.5448 34.9176L19.6368 35.3288H19.6496L19.9432 35.3448C20.0664 35.3504 20.1792 35.3536 20.284 35.3536C20.9912 35.3536 21.5304 35.2312 23.0328 34.7304C23.8576 34.456 26.42 31.9368 28.1168 30.2704C28.8768 29.5224 29.5968 28.8152 30.2528 28.2008C30.2784 28.1744 30.3608 28.0912 30.524 27.9288C30.9935 27.4631 31.5041 27.0409 32.0496 26.6672L32.0968 26.6352C33.5496 25.644 35.388 24.8088 38.6608 23.6528C38.9224 23.56 39.1872 23.4768 39.4712 23.3968C39.6534 23.3416 39.8378 23.2941 40.024 23.2544L40.0448 23.2512C40.7231 23.0926 41.417 23.0102 42.1136 23.0056C44.0448 23.0056 45.3472 23.688 46.2992 24.1864L46.5296 24.3056C46.6248 24.348 46.7184 24.3888 46.8104 24.4272L46.8408 24.44C46.9512 24.484 47.0456 24.5224 47.14 24.556L47.16 24.5632C47.2512 24.596 47.3408 24.6256 47.432 24.6536L47.4624 24.6624C47.5416 24.6872 47.6216 24.7088 47.704 24.7296L47.7616 24.744C47.9491 24.7905 48.139 24.8266 48.3304 24.852L48.3928 24.86C48.4768 24.8704 48.56 24.88 48.6432 24.888L48.7264 24.896C48.8288 24.9048 48.9328 24.912 49.0416 24.9176H49.0624L49.1664 24.9168C49.264 24.9136 49.3392 24.9128 49.4128 24.9128C51.6568 24.9128 53.2224 25.656 53.8912 25.9744L54.356 26.1808L57.1216 27.3496L57.2888 27.4024L58.5936 27.9144C59.0157 27.9037 59.4378 27.8995 59.86 27.9016C60.6944 27.9016 61.3456 28.0128 61.8528 28.2416C62.4504 28.512 62.6304 28.9536 62.684 29.192C62.7792 29.6096 62.66 30.0176 62.3328 30.4072L62.304 30.4504L62.2112 30.548C62.1826 30.5807 62.153 30.6124 62.1224 30.6432L62.0856 30.6816L61.62 31.1712L62.2272 32C64.0904 34.5472 65.2992 35.9864 67.1288 37.2808C67.7644 37.7351 68.4356 38.1372 69.136 38.4832C69.6872 38.7656 70.164 39.0088 70.6208 39.5072C70.8792 39.7896 71.0688 39.8824 71.1296 39.9072C73.4008 40.0824 74.2264 42.0056 74.58 42.8336C74.9584 43.7168 76.4544 45.8496 77.508 46.448C78.236 46.8616 80.3872 48.084 79.9392 49.7264C80.1712 51.7904 78.6968 53.2144 77.7456 53.7464L75.164 55.1936L76.216 52.4272L76.2416 52.3584C75.8787 52.8728 75.4288 53.3198 74.912 53.6792L72.9768 54.9712L73.248 52.66C73.2488 52.652 73.3448 51.8208 73.352 51.1576L73.3528 51.148C73.3136 51.1096 73.1376 50.9704 72.5368 50.8168C71.5368 50.5616 71.032 50.1696 70.7768 49.8488C69.9424 49.2216 68.7184 49.1512 68.2168 49.1512C67.9224 49.1512 67.6712 49.1728 67.4832 49.1984C67.492 49.3136 67.508 49.4368 67.5272 49.5256L67.9392 51.3952L66.128 50.772C65.1208 50.4264 63.5024 49.468 63.9808 46.9456L63.996 46.8648C64.0528 46.44 64.2688 45.8832 64.9664 45.6096C65.0176 45.5672 65.0904 45.504 65.1608 45.4408C64.8 45.268 64.0088 45.0544 62.3288 44.8448C62.1576 44.8232 62.0088 44.804 61.8904 44.7872C60.7264 44.6192 60.2088 44.244 59.8224 43.8624L59.7936 43.8344C59.7104 43.7696 59.4944 43.5816 58.6736 42.7336L58.6536 42.788L58.3568 43.7584L58.3136 43.8824C58.2968 43.9272 58.2784 43.98 58.2584 44.028L58.2056 44.156L58.1912 44.188C58.1298 44.3262 58.06 44.4606 57.9824 44.5904C57.8971 44.7311 57.7989 44.8634 57.6888 44.9856L57.6536 45.0264C57.6056 45.084 57.5568 45.14 57.5064 45.1952L57.4896 45.2128C57.1301 45.6153 56.7001 45.9488 56.2208 46.1968C56.1944 46.2128 56.1664 46.2272 56.1384 46.2408L56.1376 46.2392C55.5384 46.539 54.8772 46.6939 54.2072 46.6912C52.9688 46.6912 51.892 46.1968 51.2368 45.8072C50.3192 46.3392 49.3688 46.684 48.5536 46.908C48.7344 47.0488 48.9232 47.1856 49.1176 47.3176L49.1824 47.3648Z" fill="white"/>
<path d="M78.0735 51.0951L78.2423 48.7335L74.8855 45.9199L72.4999 41.8415C72.4999 41.8415 65.1423 38.6527 61.6863 33.2911C61.6863 33.2911 61.9151 35.6999 62.1046 37.5135L58.9687 41.2903L62.1111 43.6423L66.4471 43.7727L66.5847 46.2071L65.1543 46.9823L66.6559 48.2271L69.2407 47.6223L73.2374 49.5519L75.0391 50.8615L76.0439 50.1471L78.0735 51.0951ZM22.2214 46.8343L19.8222 49.4351L21.111 50.4303L22.4502 47.9423L24.779 47.0079L31.431 50.7567L32.9718 46.8343H22.2214ZM63.8991 55.0847L62.9063 56.3159C62.5287 56.5383 62.2575 56.2359 61.9478 55.9719C61.9095 56.0087 61.8686 56.0439 61.827 56.0783L61.7983 56.3855L61.2999 56.9671L59.4118 56.9631L57.3791 57.2775L54.635 57.6743C54.1374 57.7975 53.8046 57.0375 53.8046 57.0375L50.3462 53.5367L42.9358 53.9287L39.6806 53.2599L33.3974 45.7767C29.1678 45.9751 21.8166 45.8167 21.8166 45.8167L15.3862 52.1415L11.4902 51.8703L9.35825 51.6863L8.26625 52.8207L4.98145 52.6615L5.24944 50.8351L9.79025 47.2911L11.6974 48.4199L14.6534 43.4279L14.8686 39.5223L16.6342 37.1327L23.7854 36.4743L32.9102 27.4679L41.3318 24.4631L48.8806 26.7767L53.2279 26.9535L58.3863 29.2359L61.5374 29.5327L60.1942 30.9551L60.8791 36.4263L57.9991 40.6551L56.5479 44.6399L54.1486 45.4423L51.0934 44.3247L48.5886 45.5375L45.799 45.7143L47.9302 49.0719L53.8503 49.2751L59.6167 52.1847L63.7679 54.2655L63.8991 55.0847ZM13.3742 31.5431L18.3438 28.4079L23.6374 28.6055L24.211 25.5063L24.5574 23.7255L22.4222 21.3943L18.5654 20.8887L16.3046 19.7527L19.3518 19.2671L24.539 21.7503L25.4854 25.7343L21.7846 29.3951L16.315 29.9631L14.715 31.9079L14.8918 34.1415L17.4078 35.8807L16.1254 36.7263L14.2566 34.5663L13.3742 31.5431Z" fill="black"/>
<path d="M56.2865 35.8392C56.2865 35.8392 57.5113 35.484 56.9193 38.7736C56.9193 38.7736 57.8969 35.0688 56.2865 35.8392ZM54.9649 36.3264C54.4097 36.4824 53.6849 36.1 53.6849 36.1C52.8057 35.9496 53.1577 36.3504 53.1577 36.3504C53.1265 36.332 53.4841 36.3752 53.4841 36.3752C54.6041 36.5112 54.5489 36.9736 54.5257 37.2352C54.5553 36.9712 54.7409 36.496 55.5665 36.4512C55.9881 36.428 56.0937 36.4008 56.0937 36.4008C56.4449 35.924 55.4289 36.1944 54.9649 36.3264ZM53.1841 35.8592C53.1793 35.8576 53.1737 35.856 53.1697 35.8528L53.1841 35.8592ZM51.8201 38.596C51.5393 35.1984 53.0137 35.7816 53.1697 35.8528C51.1121 34.8496 51.8201 38.596 51.8201 38.596ZM54.7993 34.9424C54.5865 35.0344 54.3993 34.972 54.3993 34.972C53.3697 34.5496 52.8721 34.8832 52.8721 34.8832L53.0057 34.8384C54.1257 34.7272 54.5257 35.2312 54.5257 35.2312C55.0441 34.6904 56.2961 34.972 56.2961 34.972C55.3625 34.72 54.9553 34.876 54.7993 34.9424ZM57.6249 35.6384C57.6249 35.6384 56.8153 34.7696 56.1833 35.6C56.1833 35.6 56.8353 35.2048 57.6249 35.6384ZM52.9217 35.4416C52.2897 34.612 51.4793 35.4808 51.4793 35.4808C52.2697 35.0456 52.9217 35.4416 52.9217 35.4416ZM54.9849 33.3416C55.2121 33.4088 55.7481 31.7856 55.7481 31.7856C55.7481 31.7856 54.7097 33.2608 54.9849 33.3416ZM55.0417 34.3768C54.8561 34.4288 54.6761 34.2088 54.6857 33.9816C54.6857 33.9816 54.6289 33.3936 54.5625 33.3568C54.5625 33.3568 54.7241 34.1112 54.1225 34.3272C53.7289 34.4696 52.6625 33.3424 52.6897 33.3784C53.1345 33.9816 53.5553 34.2904 53.5401 34.3664C53.5201 34.4656 53.0449 34.476 52.8873 34.3864C52.8873 34.3864 53.3417 34.7424 54.2801 34.584C54.2801 34.584 54.7257 34.5352 54.9721 34.6232C55.2193 34.7128 55.4665 34.8128 56.0297 34.5264C56.3729 34.3512 55.8369 34.5888 55.4665 34.416C55.1881 34.2864 56.3273 32.928 56.2881 32.964C55.8585 33.3712 55.0977 34.3616 55.0417 34.3768ZM22.7705 47.5552C22.7705 47.5552 21.6145 47.9112 21.1097 49.5264C21.1097 49.5264 21.4065 49.304 21.5105 49.4824C21.5105 49.4824 21.3921 48.4 22.7705 47.5552ZM20.6801 49.6896C20.6801 49.6896 21.0217 48.2512 22.2073 47.6288C22.2073 47.6288 21.0657 47.8816 20.1313 49.556C20.1313 49.556 20.8729 48.948 20.6801 49.6896ZM31.8585 46.8328L32.9721 46.8344C32.9721 46.8344 32.9425 50.3808 31.4409 50.7768C29.9393 51.172 26.4809 47.1808 24.2473 47.4568C21.6273 47.7816 21.5593 50.4264 21.5593 50.4264C21.5393 50.6776 21.3825 50.8224 21.2441 50.816C21.1601 50.8128 20.6801 51.2016 20.0177 50.836C20.0177 50.836 20.6409 50.6064 20.5809 50.4504C20.5809 50.4504 20.5233 50.3848 20.5321 50.3688C20.3073 50.6136 19.7721 50.9096 19.3169 50.6392C19.2673 50.6088 18.3777 50.9896 17.6569 50.8608L22.2217 46.8344H25.9417C26.2313 47.0176 28.2321 48.5544 28.6745 48.9584L28.5553 47.9312C28.5553 47.9312 30.1361 50.54 31.4009 50.184C31.4009 50.184 32.6649 49.6912 31.8585 46.8328ZM77.6633 48.4456C77.6633 48.4456 76.2329 47.6352 75.2889 46.6256C74.3873 45.6624 73.2145 43.532 72.7657 42.6536C72.2489 41.6392 71.6697 41.7824 70.4009 41.36C68.7785 40.8192 64.1713 38.8656 63.6561 37.9232C63.6561 37.9232 64.5953 38.7424 67.6537 39.3328C67.6537 39.3328 64.5553 37.9704 63.1337 35.8232C63.1337 35.8232 62.6609 36.7496 62.8985 37.8376C63.1665 39.0616 62.0185 40.2808 62.0185 40.2808L61.3449 40.7616C61.3449 40.7616 60.0729 41.268 60.1161 41.6376C60.1593 42.0056 61.8737 43.588 63.7121 43.2104C63.7121 43.2104 64.9457 43.0152 65.5449 43.192C66.1449 43.3696 66.0217 43.0024 66.1089 42.7552C66.1969 42.5024 66.6713 41.58 67.3665 41.2656C67.3665 41.2656 65.3673 43.9608 67.3633 43.652C67.3633 43.652 68.8945 43.344 68.8257 43.6744C68.5105 45.168 70.5041 46.3312 70.9265 46.7888C70.9265 46.7888 69.0689 45.8488 68.6577 44.8848C68.2473 43.92 67.1753 43.728 67.0201 44.4592C66.9345 44.8488 66.9425 45.2544 67.0433 45.6408C67.1449 46.0272 66.6833 46.6448 66.1881 46.7344C65.9801 46.772 66.0769 46.8496 66.0769 46.8496C66.0769 46.8496 66.8353 47.3472 66.8185 47.628C66.8185 47.628 68.0185 47.6632 68.0265 46.612C68.0265 46.612 68.1929 47.6008 69.1129 47.62C70.0321 47.6384 70.3969 47.6296 70.7697 47.972C71.1433 48.3144 71.8713 47.884 71.8713 47.884C71.8713 47.884 71.3585 49.0056 75.0705 50.1496C75.0705 50.1496 76.1793 48.584 74.4585 47.6992C74.4585 47.6992 73.5265 47.3888 72.4937 43.8408C72.4937 43.8408 73.6961 46.6984 75.4881 47.6024C75.9201 47.82 76.3825 48.7936 76.1721 49.316C76.1721 49.316 75.9657 49.9936 75.9089 50.0352C75.9089 50.0352 76.7777 50.0064 77.2377 50.6288C77.2377 50.6288 78.7017 49.4392 77.6633 48.4456ZM77.2209 52.8088C78.1481 50.3704 75.8745 50.2776 75.8745 50.2776C75.8529 51.7584 74.3153 52.7856 74.3153 52.7856C74.3153 52.7856 74.4193 51.9 74.4265 51.1688C74.4345 50.4376 73.8601 50.0464 72.8025 49.776C71.7449 49.5056 71.5713 49.108 71.5713 49.108C69.9417 47.7344 67.1473 48.0432 66.6809 48.2976C66.2129 48.5512 66.4777 49.756 66.4777 49.756C64.4777 49.068 65.0097 47.3912 65.0609 47.0112C65.1113 46.6304 65.3425 46.628 65.4689 46.568C65.5953 46.5072 66.0025 46.128 66.0025 46.128C67.7009 44.2344 63.2409 43.896 62.0449 43.724C60.8473 43.5512 60.6641 43.1408 60.4577 42.9896C60.2601 42.8448 58.8009 41.3152 58.8009 41.3152C58.8009 41.3152 59.1273 40.5008 59.8185 39.8288C60.6393 39.0312 61.4233 37.304 61.5377 36.528C61.9033 34.0672 61.3601 32.6352 61.3601 32.6352C64.8033 38.0072 68.4097 39.1608 69.8857 40.4392C71.3617 41.7168 72.1089 40.2 73.5817 43.2592C75.0561 46.3184 76.8369 47.3264 78.0033 48.1176C79.1689 48.908 78.8361 49.6112 78.8361 49.6112C79.2337 51.6808 77.2209 52.8088 77.2209 52.8088ZM63.8105 54.8248C63.8105 54.8248 63.4841 54.0552 62.8473 54.5288C62.3089 54.9296 62.6545 55.9072 62.7737 55.9368C62.7737 55.9368 62.6545 53.9656 63.8105 54.8248ZM61.6521 53.4976C61.6521 53.4976 57.9465 51.6336 55.3177 50.5712C52.0369 49.2472 60.0513 54.2976 61.6521 53.4976ZM53.9241 51.4616C52.9185 51.1512 51.0481 50.28 49.9425 50.2072C46.8305 49.9992 44.7361 50.6904 43.4609 49.6232C42.3257 48.6728 40.0521 42.212 40.3681 38.6944C40.6377 35.7008 49.1313 32.4952 44.9169 29.0864C44.9169 29.0864 45.8169 29.7072 46.1009 30.1248C46.4169 30.5896 46.8625 31.7224 46.5657 32.5224C46.1281 33.6968 43.7225 36.9296 44.0241 41.0568C44.2033 43.5008 45.1209 47.6072 51.0497 44.1496C51.0497 44.1496 50.8825 43.5952 50.3961 42.7104C50.3121 42.5592 47.5617 43.3584 45.3481 41.1056C45.3481 41.1056 47.6553 42.9248 49.5673 42.0936C49.9553 41.9248 50.1009 41.204 49.0337 40.2256C46.1265 37.5608 46.5041 34.664 47.8089 31.9368L47.9209 31.7184C47.9209 31.7184 47.5129 31.0976 46.8409 30.0072C46.3953 29.284 46.1345 28.3112 49.8841 29.1008C49.8841 29.1008 50.5945 28.508 52.4329 28.8936C54.2705 29.2792 54.7057 28.8144 55.0217 28.8544C55.0217 28.8544 51.8201 26.5024 49.3497 27.1344L50.3777 28.3808C50.3777 28.3808 42.6905 22.8464 37.1769 26.404C37.1769 26.404 40.5113 25.9176 42.8825 27.8744C42.8825 27.8744 35.4865 23.7744 32.0481 32.312C32.0481 32.312 32.3441 30.4744 33.0561 28.2808C33.0561 28.2808 27.7801 33.8528 24.7569 36.284C21.6673 38.7664 18.9361 38.5872 18.9361 38.5872C18.9361 38.5872 20.1817 37.8456 20.5665 37.1936C20.5665 37.1936 18.4225 36.6008 16.8217 37.9448C15.2209 39.2888 14.6081 41.1072 15.8337 40.5928C17.0585 40.0792 17.3761 39.9208 18.1457 39.8224C18.1457 39.8224 15.8729 40.4744 15.0433 43.5568C14.2137 46.64 12.1185 49.0112 10.8337 48.8536C10.8337 48.8536 10.6961 51.6592 12.9481 51.8968C15.2009 52.1336 16.3681 50.2176 17.0385 49.6232C17.7113 49.0304 20.2105 45.3144 20.9625 45.2168C20.9625 45.2168 18.8673 44.228 18.0769 42.4888C18.0769 42.4888 19.6977 44.7024 23.4521 44.7816C28.8193 44.8952 33.0161 45.5128 33.0161 45.5128C33.0161 45.5128 30.6457 41.6696 32.3353 34.288C32.3353 34.288 30.8825 43.9816 35.5657 47.9248C35.5657 47.9248 37.1369 49.3176 38.7673 51.4512C40.3977 53.5864 40.7145 53.1904 41.1585 53.2792C41.1585 53.2792 39.5681 50.5704 38.7361 46.6592C39.1345 48.4512 40.2321 52.1744 42.5913 52.9048C44.5697 53.516 50.1209 52.6664 51.0401 53.556C51.9517 54.4425 52.8605 55.3318 53.7665 56.224C54.6729 57.116 53.7969 57.588 54.4785 57.6472C54.4785 57.6472 54.2705 55.6312 55.8121 56.876C55.8121 56.876 56.2169 57.5088 56.4145 57.3896C56.4145 57.3896 57.3633 56.0064 55.5449 55.0384C55.5449 55.0384 55.3081 55.0088 55.1601 54.7424C55.1241 54.6784 54.4561 54.0216 54.7561 54.0096C55.8809 53.9656 56.9337 56.2784 57.1417 55.9808C57.8721 54.9368 57.9913 54.86 57.2001 53.8024C57.1281 53.7056 55.2729 51.876 53.9241 51.4616ZM58.1041 56.0064C57.2345 56.1952 57.1113 57.3472 57.2057 57.1816C58.3017 55.2552 59.1921 56.9848 59.1921 56.9848C59.2505 56.7176 58.7865 55.8576 58.1041 56.0064ZM49.3001 29.6728C48.5305 29.2432 47.3137 29.496 47.3137 29.496C47.4329 30.0288 48.2633 30.948 48.2633 30.948C48.8265 30.0584 49.3001 29.6728 49.3001 29.6728ZM54.3401 29.6136C54.3401 29.6136 54.8145 30.2656 54.9521 30.672C54.9521 30.672 51.6329 27.7264 49.5369 30.7904C49.5369 30.7904 50.3681 30.5624 51.5833 32.104C51.5833 32.104 47.7985 28.8928 48.9841 34.1888L48.3121 33.7544C48.3121 33.7544 45.7825 36.9952 50.0713 39.8712C51.0329 40.5152 49.7353 36.7184 49.7353 36.7184C49.7353 36.7184 51.4441 39.2576 51.1977 42.4192C51.1977 42.4192 51.0785 44.7912 52.7881 44.2488C52.7881 44.2488 54.4193 44.2192 55.7833 44.3968C55.7833 44.3968 56.4441 44.7616 56.8001 43.9024C56.8953 43.672 57.0057 43.1368 57.1409 42.456C57.5089 40.5976 58.0633 37.6592 59.0033 36.936C59.0033 36.936 57.6161 41.0768 58.7569 39.3664C61.2465 35.6312 60.8017 34.308 59.8145 34.308C59.8145 34.308 61.3057 29.0208 57.0369 32.0752C57.0369 32.0752 57.4025 31.3832 58.3913 30.7616C58.3913 30.7616 57.3329 29.1992 54.3401 29.6136ZM58.6969 29.5552C58.6969 29.5552 59.5865 30.2656 59.8825 30.5624C60.0505 30.7296 60.3873 30.2072 60.7137 29.7328C61.0425 29.2536 58.6969 29.5552 58.6969 29.5552ZM55.3281 45.0184C54.2505 44.228 52.8577 44.9096 52.8577 44.9096C54.4785 44.5832 55.3281 45.0184 55.3281 45.0184ZM44.0441 36.1656C44.0441 36.1656 41.6521 42.0936 44.3201 46.8664C44.3201 46.8664 45.4761 48.812 43.9945 48.7928C43.9945 48.7928 46.0985 50.5128 47.5817 48.8824C48.4289 47.9496 41.3569 46.9552 44.0441 36.1656ZM60.1993 56.9448C60.1993 56.9448 60.1105 56.0456 60.6241 55.9664C61.1377 55.8872 61.5433 56.392 61.5433 56.392C61.5433 56.392 61.4345 55.6504 60.5649 55.6704C59.6953 55.6896 60.1993 56.9448 60.1993 56.9448ZM9.52968 48.1216C8.81848 49.7424 6.13048 51.1648 6.13048 51.1648C8.24568 50.572 9.17448 49.644 9.17448 49.644L9.23368 50.4144C8.08728 51.4824 5.83368 52.0352 5.83368 52.0352C6.80248 52.6672 8.87688 51.7584 9.27288 51.5208C9.66808 51.284 9.82648 51.5608 9.82648 51.5608C9.13448 50.0192 9.84648 47.8848 9.84648 47.8848C9.86568 47.332 9.52968 48.1216 9.52968 48.1216ZM64.0425 55.0376C64.7345 56.1648 64.4969 58.0024 64.4969 58.0024C63.4897 56.4608 62.8769 56.3816 62.8769 56.3816C62.2745 56.7368 61.7801 55.828 61.7201 55.3136C61.6617 54.8 61.1377 53.9904 60.5841 53.9904C60.0313 53.9904 59.2113 53.5856 59.2113 53.5856L56.2769 52.2312C56.9289 52.7264 59.3393 54.248 59.3393 54.248C61.1769 53.9312 61.9481 56.0544 61.8689 56.3904C61.8521 56.4632 61.8417 56.6352 61.7009 56.6776C61.6073 56.7048 62.2241 57.4576 62.1553 58.8608C62.1473 59.0192 60.3761 57.1384 60.2089 57.1512C60.0697 57.1632 59.9625 57.1728 59.8433 57.1808C59.5961 57.1976 59.4177 56.9656 59.4089 56.9936C59.3793 57.0824 59.5865 59.2072 59.5865 59.2072C59.0929 59.2264 57.3329 57.3096 57.3329 57.3096C57.1361 57.5072 56.3945 57.4784 56.3945 57.4784L56.5433 59.3752C55.3873 59.1088 54.6161 57.716 54.6161 57.716C54.2305 57.804 53.7569 57.3896 53.7273 57.152C53.6977 56.9152 53.1049 56.4112 53.1049 56.4112C53.1049 56.4112 51.2969 54.7512 50.7329 54.3064C50.1697 53.8624 47.8881 53.892 47.8881 53.892C47.8881 53.892 43.7081 54.0096 42.8481 54.0992C41.9889 54.188 42.3505 54.0496 41.0993 54.0496C39.5377 54.0496 40.2457 54.1984 36.6529 49.8408C35.5569 48.5112 34.6177 48.0424 33.4321 46.3032H22.1081C20.2409 47.4592 16.2585 51.4312 15.3993 52.2016C14.5393 52.9728 13.7097 52.7064 13.3241 52.6472C12.9385 52.5872 12.3161 52.172 11.3969 52.172C10.4777 52.172 10.3001 51.8456 10.3001 51.8456C10.3001 51.8456 9.11528 51.9056 8.31448 52.884C7.51448 53.8624 5.55768 54.0696 5.55768 54.0696C4.25288 54.5736 3.80888 53.2696 3.80888 53.2696C4.22328 53.2696 4.87528 52.7064 4.87528 52.7064C2.41528 52.6768 2.62248 51.7864 2.62248 51.7864C1.37768 51.6088 1.25928 50.2448 1.25928 50.2448C1.91208 50.6608 3.12728 50.5416 3.12728 50.5416C3.80888 49.5928 4.34248 49.8608 5.14248 49.9192C5.94328 49.9784 5.43848 50.1568 6.71288 49.564C7.98808 48.9712 8.90648 47.0448 9.32248 46.5992C9.73688 46.1552 10.3889 45.6808 11.1897 45.9472C11.9897 46.2136 12.0785 46.9256 12.0785 46.9256C13.9465 44.3464 14.3017 42.6576 14.1249 41.5304C13.9465 40.404 14.4793 39.3368 14.6577 39.04C14.8353 38.744 15.9921 37.4104 16.6441 37.0552C17.5486 36.5567 18.5778 36.33 19.6081 36.4024C20.9129 36.4912 21.5057 36.3728 23.3729 35.7504C25.2401 35.128 30.9521 28.5912 32.8585 27.42C34.6121 26.344 38.9353 24.5744 40.2393 24.308C41.5441 24.0408 43.4409 23.9224 45.1305 24.812C46.8201 25.7016 47.7785 26.008 49.6961 26.008C51.6129 26.008 53.2721 26.8768 53.2721 26.8768C53.2721 26.8768 56.2025 28.176 57.2849 28.5912C58.3665 29.0064 58.3369 29.1192 58.3369 29.1192C59.4641 28.9112 62.3633 28.8824 61.3657 29.8816C60.4753 30.7704 60.2337 31.0512 60.2337 31.0512C60.2337 31.0512 60.3945 31.5624 60.8689 33.776C61.1649 35.1568 61.1313 37.4544 59.3497 39.4256C57.3929 41.5896 57.6665 43.3024 56.9489 44.1984C54.5473 47.192 51.2569 44.5248 51.2569 44.5248C49.0337 46.0664 46.2913 46.236 46.2913 46.236C46.2321 46.4432 48.1145 48.4968 49.8049 48.8528C50.7401 49.0496 53.0753 48.4072 54.0233 49.1488C54.9721 49.8904 57.5217 51.3224 59.7545 51.9352C61.9873 52.548 62.8177 53.18 62.8177 53.18C64.2993 53.7536 64.0425 55.0376 64.0425 55.0376ZM53.7913 33.3272C54.0657 33.1936 52.6057 31.9928 52.6057 31.9928C52.6057 31.9928 53.6121 33.4144 53.7913 33.3272ZM15.8193 35.076C15.8193 35.076 13.8625 33.8304 14.6041 31.8152C15.3441 29.7992 17.6569 29.5328 17.6569 29.5328C17.6569 29.5328 14.8409 29.7104 14.1889 31.9336C13.5361 34.1568 15.8193 35.076 15.8193 35.076ZM24.3553 26.48C24.3553 26.48 27.0537 21.44 19.0201 19.6912C19.0201 19.6912 17.9833 19.4536 17.7161 19.7208C17.7161 19.7208 17.0049 20.136 18.7833 20.3728C21.2577 20.7032 25.9865 21.8256 24.3553 26.48ZM13.3745 31.5432C14.2185 28.476 18.3441 28.408 18.3441 28.408C18.3441 28.408 23.6353 28.5984 24.2113 25.5064C24.5225 23.836 23.8249 21.3744 18.5657 20.8888C18.5657 20.8888 15.9569 20.8608 16.3049 19.7528C16.6625 18.6136 19.3521 19.2672 19.3521 19.2672C19.3521 19.2672 23.5761 19.8 25.1481 22.7832C26.0953 24.5816 25.7153 28.5 21.7849 29.3952C19.3425 29.9504 16.3129 29.3712 15.1185 31.8592C13.9225 34.3488 18.1689 35.9248 18.1689 35.9248C18.1689 35.9248 17.1473 35.9568 16.1257 36.7264C16.1257 36.7264 12.4753 34.8128 13.3745 31.5432Z" fill="#55565B"/>
<path d="M54.6686 39.3048C54.479 39.3064 54.427 41.1896 54.223 41.1872C54.0478 41.184 54.0022 39.2896 53.823 39.2824L52.1318 39.1328C52.1318 39.1328 54.2062 40.4808 52.235 43.668L54.0822 43.4864L55.8366 43.8016C55.8366 43.8016 54.2454 41.5272 56.2958 39.2512L54.6686 39.3048Z" fill="#E22726"/>
<path d="M57.3587 34.6712C56.8387 34.6512 56.6819 34.4384 56.4795 34.4C56.4067 34.3856 56.3107 34.4384 56.3107 34.4384C56.3107 34.4384 56.5091 34.2456 56.9827 33.9496C56.9827 33.9496 57.1427 33.8472 57.3499 33.7784C57.2915 33.98 57.2435 34.3112 57.4099 34.6352C57.4099 34.6352 57.6491 34.2136 57.4915 33.7408C57.7459 33.6872 58.0307 33.7184 58.1787 34.0384C58.1787 34.0384 58.4059 34.7096 57.3587 34.6712ZM52.1811 33.8704C52.1811 33.8704 51.9547 33.6912 51.6707 33.5912C51.8499 34.0768 51.6003 34.516 51.6003 34.516C51.4019 34.1304 51.5067 33.7376 51.5731 33.56C51.3531 33.5016 51.1115 33.5016 50.9155 33.6728C50.9155 33.6728 50.6099 34.0384 50.9755 34.3552C51.1979 34.5472 51.5787 34.6648 52.3587 34.3264C52.3587 34.3264 52.6155 34.2864 52.6947 34.424C52.6947 34.424 52.7251 34.2952 52.1811 33.8704Z" fill="#FAE01A"/>
<path d="M54.6951 57.508C54.6951 57.508 54.5079 56.8856 54.8527 56.7472L56.3943 59.1784C56.3943 59.1784 55.1495 58.7624 54.6951 57.508ZM59.4183 59.0096C59.4183 59.0096 57.7487 57.6864 57.5111 57.044C57.5111 57.044 57.8175 56.4808 58.1935 56.4608C58.1935 56.4608 58.4503 58.0816 59.4183 59.0096ZM61.9975 58.536C61.9975 58.536 60.8719 57.3504 60.3279 56.9944C60.3279 56.9944 60.3471 56.1944 60.5943 56.1648C60.5943 56.1648 61.8791 58.0816 61.9975 58.536ZM64.3391 57.4976C64.3391 57.4976 63.7167 56.4904 62.9655 56.204C62.9655 56.204 62.9063 55.6104 63.0447 55.0376C63.0447 55.0376 64.1519 56.5096 64.3391 57.4976ZM4.09513 53.388C4.45033 53.388 4.90953 53.0168 4.90953 53.0168C4.70233 53.4024 5.29513 53.9512 5.29513 53.9512C4.41113 54.188 4.09513 53.388 4.09513 53.388ZM77.5935 52.2136C77.5935 52.2136 77.9752 51.2928 77.452 50.7928C77.452 50.7928 78.3823 50.5448 78.5855 50.3072C78.5855 50.3072 78.6543 51.3568 77.5935 52.2136ZM74.5959 52.2024C74.5959 52.2024 74.9807 51.0624 74.5407 50.6184C74.5407 50.6184 75.3735 50.7192 75.5607 50.5176C75.5607 50.5176 75.6143 51.2064 74.5959 52.2024ZM2.62793 51.476C2.62793 51.476 1.81273 51.5352 1.59033 50.6008C1.59033 50.6008 2.38953 50.8832 2.96793 50.7792C2.96793 50.7792 2.67193 51.2384 2.62793 51.476ZM20.7791 50.5104C20.7791 50.5104 20.5711 50.7568 20.3239 50.816C20.3239 50.816 20.5607 50.984 21.0951 50.7272C21.0951 50.7272 20.8135 50.628 20.7791 50.5104ZM18.0623 50.7272C18.5559 50.7272 19.1783 50.4408 19.1783 50.4408C19.0303 50.292 18.9311 50.0352 18.9311 50.0352C18.7927 50.1936 18.0623 50.7272 18.0623 50.7272ZM66.2319 49.1904C66.2319 49.1904 65.0583 48.8248 65.5103 46.9616C65.5103 46.9616 66.3423 47.276 66.4983 47.892C66.4983 47.892 65.8111 48.3824 66.2319 49.1904ZM52.2007 43.8512C52.2791 43.9304 52.3143 44.108 52.7879 43.8112C53.2631 43.5152 55.3271 43.664 55.5407 43.92C55.8167 44.2512 56.0439 43.9896 56.0439 43.9896C56.4591 42.9912 55.7175 42.3592 55.7175 42.3592C55.7927 43.6336 55.1151 43.2584 55.1151 43.2584C53.9151 42.9024 53.1095 43.2184 53.1095 43.2184C52.4479 43.4952 52.5471 42.2504 52.5471 42.2504C51.8295 42.912 52.2007 43.8512 52.2007 43.8512ZM51.9431 39.3152C51.9927 38.9888 52.8023 39.0184 52.8023 39.0184C53.1303 39.0152 53.5943 39.0328 54.0975 39.0328C54.2431 39.0328 54.3471 38.6592 54.3471 38.6592C54.3471 38.6592 54.3919 39.0328 54.5551 39.0472C55.2519 39.1112 55.9311 39.0872 55.9311 39.0872C56.8151 39.0872 56.6071 39.4728 56.6071 39.4728C56.4095 40.6784 56.0415 41.048 56.0415 41.048C56.1783 39.94 55.9447 39.3736 55.9447 39.3736C55.9119 39.5216 55.6199 39.9672 55.6199 39.9672C55.5735 39.7744 55.5599 39.552 55.4311 39.3648C55.4087 39.3304 53.3127 39.2728 53.2679 39.3248C53.1007 39.5136 53.0303 40.0256 53.0303 40.0256C52.9407 40.0528 52.7639 39.2456 52.7639 39.2456C52.4575 39.2656 52.3879 40.9544 52.3879 40.9544C51.8943 40.2736 51.9431 39.3152 51.9431 39.3152Z" fill="white"/>
<path d="M59.3051 54.2096L55.3923 51.6456C55.3923 51.6456 58.4603 54.3288 58.6531 54.6552C58.8459 54.9808 58.2083 55.8848 59.4827 55.144C60.7579 54.4024 61.7947 55.9528 61.7947 55.9528C61.0403 53.8672 59.3051 54.2096 59.3051 54.2096ZM62.7739 53.128C62.4763 52.8312 61.1131 52.328 59.9579 51.9424C58.8011 51.5568 55.8715 50.544 54.6803 49.5416C53.5699 48.6048 52.5659 48.524 51.0643 48.78C49.5627 49.0368 48.5147 48.2072 48.5147 48.2072C41.6019 43.528 44.6811 35.2032 46.6179 33.0304C47.8963 31.596 46.2451 29.7184 44.9419 29.0984C44.9195 29.0832 44.8747 29.0672 44.8539 29.0576C44.8539 29.0576 46.8067 30.3624 45.5515 32.5432C45.2675 32.992 44.8835 33.4376 44.4515 33.8784C44.3177 34.0051 44.1801 34.1275 44.0387 34.2456C41.6235 36.2656 40.7619 37.3032 40.4731 38.2312C40.4191 38.3807 40.3839 38.5363 40.3683 38.6944L40.3715 38.6896C40.3243 39.0288 40.3331 39.372 40.3491 39.764C40.3491 39.764 40.7675 36.8528 43.9203 34.9568L44.5651 34.5672C41.3491 43.6496 45.6211 46.9928 46.9739 48C48.3675 49.0368 46.8259 49.304 45.8475 49.2456C44.8691 49.1856 43.9947 48.7928 43.9947 48.7928C46.1587 50.5416 49.5227 49.1264 51.8939 49.1856C54.2659 49.2456 54.0579 50.1048 55.0067 50.4608C55.9555 50.816 61.5875 53.484 61.5875 53.484C60.4611 53.9288 56.1707 51.564 56.1707 51.564C60.4387 54.38 61.4691 53.8696 62.5659 53.6912C63.6627 53.5136 64.0171 54.4584 64.0171 54.4584C63.9875 53.3624 62.7739 53.128 62.7739 53.128ZM31.5491 50.184C31.0355 51.0136 31.5787 50.7272 31.5787 50.7272C32.9227 50.2232 32.9859 46.8344 32.9859 46.8344L31.8555 46.8336C32.0003 47.1032 32.0635 49.3536 31.5491 50.184ZM76.9779 47.3824C75.6731 46.6408 74.0371 44.2952 73.5931 43.2576C73.1483 42.2192 72.5259 41.064 70.9843 40.9744C70.9843 40.9744 70.4803 40.9448 69.8283 40.2328C69.1763 39.5224 68.4355 39.5224 66.5091 38.1584C64.5819 36.7944 63.3267 35.3224 61.3603 32.6352C61.3603 32.6352 62.0323 34.3936 63.1195 35.8752C64.2059 37.3584 66.3603 38.9 67.5651 39.2944C67.5651 39.2944 64.6595 38.74 63.6563 37.9232C63.6563 37.9232 64.0475 38.9392 69.8187 41.152C69.8187 41.152 70.4507 41.4096 71.3003 41.6264C72.1507 41.844 72.4275 42.0416 72.7235 42.6344C73.0203 43.2272 74.9371 46.8688 76.5083 47.7576C78.0795 48.6472 78.5723 49.1768 77.2379 50.6288C77.2379 50.6288 78.6027 50.1936 78.8691 49.5416C79.1363 48.8896 78.2811 48.124 76.9779 47.3824ZM75.2827 47.4888C73.8203 46.6592 72.4867 43.84 72.4867 43.84C73.0795 45.6976 73.8027 47.7624 74.8899 47.8816C75.9771 48 76.2227 49.0888 76.2227 49.0888C76.3779 48.3104 76.0675 47.9344 75.2827 47.4888ZM61.4611 29.7768C61.5363 29.6656 61.8515 29.4208 61.4099 29.2208C60.4739 28.7976 58.7107 29.04 58.3595 29.0896C58.0683 28.8736 57.5787 28.6096 56.7563 28.3616C56.7563 28.3616 54.1915 27.28 53.6731 27.0568C53.1547 26.8344 51.6227 25.9384 49.2115 25.9904C49.2115 25.9904 49.1379 25.9928 49.0123 25.992C47.8619 25.9376 47.0515 25.7248 46.0603 25.2728C44.6883 24.5688 42.7643 23.344 39.0203 24.6664C34.9979 26.0856 32.8723 27.1104 31.2819 28.6912C31.0843 28.8864 31.0123 28.9616 31.0123 28.9616C31.0123 28.9616 36.5547 24.8392 42.8827 27.8744C42.8827 27.8744 41.2427 26.1536 37.2707 26.3512C37.2707 26.3512 42.1267 22.9224 50.3779 28.3856C50.3779 28.3856 49.8099 27.6304 49.4243 27.1264C49.4243 27.1264 51.8875 26.6992 54.9443 28.8544C54.6619 28.9528 54.0243 29.2528 55.7779 29.5328C57.9115 29.8728 58.3715 30.748 58.3715 30.748C57.1563 31.652 57.0411 32.0736 57.0411 32.0736C61.2947 29.0064 59.8091 34.3048 59.8091 34.3048C61.5731 34.5712 59.9331 37.5136 58.7715 39.3296C57.6147 41.1376 59.0035 36.936 59.0035 36.936C58.2611 37.5072 57.7611 39.4544 57.4011 41.1648C57.2731 41.7288 57.1587 42.296 57.0587 42.8656C56.9827 43.2344 56.9163 43.5376 56.8555 43.7408C56.6036 44.3505 56.1921 44.8811 55.6643 45.2768C56.0559 45.085 56.4058 44.8178 56.6939 44.4904C56.7795 44.4 56.8635 44.3064 56.9459 44.2032C57.2795 43.7872 57.4011 43.192 57.6299 42.4608C58.7667 39.2184 59.8651 39.5424 60.5899 37.4768C61.3803 35.2232 61.0795 34.4976 60.6683 32.6896C60.4595 31.768 60.4115 31.3264 60.2643 31.0304L60.2683 31.0368L61.4611 29.7768ZM53.4947 36.2016C53.8907 36.38 54.6387 36.7 55.5011 36.3304C56.2611 36.0048 56.0939 36.42 56.0939 36.42C56.0939 36.42 56.4499 35.9448 55.5211 36.1728C54.5923 36.4 54.2363 36.3104 53.9595 36.192C53.5403 36.0128 52.8723 35.9848 53.1395 36.3504C53.1395 36.3504 53.1003 36.024 53.4947 36.2016ZM53.8907 29.2664C53.5147 29.0384 51.3907 28.2088 49.8635 29.088C49.8635 29.088 48.8067 29.9328 51.1635 29.5032C52.0523 29.3408 53.3019 29.384 54.9483 30.6584C54.9483 30.6584 54.7123 29.7624 53.8907 29.2664ZM60.1355 30.3552C60.0594 30.4309 59.9781 30.5012 59.8923 30.5656C59.6955 30.3832 59.4235 30.1608 59.0235 29.7696C58.9416 29.6891 58.8539 29.6148 58.7611 29.5472C59.3675 29.4904 60.6987 29.3784 60.7403 29.6312C60.7475 29.6744 60.7283 29.696 60.7283 29.696C60.7283 29.696 60.3947 30.1104 60.1355 30.3552ZM17.1523 19.1176C16.5187 19.272 17.4299 19.4344 18.4171 19.5928C19.4059 19.7504 20.6707 20.1456 20.6707 20.1456C27.2515 22.3792 24.5675 27.7464 24.5675 27.7464C25.9723 25.9752 26.1227 23.4272 24.3259 21.5088C22.2371 19.2768 17.9235 18.9312 17.1523 19.1176Z" fill="#898B8E"/>
</svg>
