<svg width="80" height="80" viewBox="0 0 80 80" fill="none" xmlns="http://www.w3.org/2000/svg">
<path d="M70.7823 3.10821C70.7823 3.10821 61.6918 0 39.5655 0C20.0766 0 8.37137 2.99705 8.37137 2.99705L8 52.1566C8 52.4126 8 52.6829 8.02189 52.9238C8.04463 53.1655 8.05895 53.4029 8.08168 53.6067C8.24547 55.0032 8.62115 56.3665 9.19579 57.6497L9.34737 58.0202L10.0202 59.2589C12.1667 62.8051 15.9621 65.3676 21.1309 68.8766C21.9032 69.3996 24.8446 71.3246 24.8446 71.3246L25.4762 71.6952C26.5381 72.3444 27.9865 73.2269 29.5309 74.1659C32.3503 75.8678 36.0674 78.0935 37.7794 79.0248L39.5655 80L41.3853 79.0021C42.4657 78.416 50.7773 73.5015 54.3276 71.28L58.0185 68.8362C63.5891 65.0712 67.2733 62.5642 69.3676 58.7992L69.4122 58.7065L69.6834 58.1987C70.4093 56.7469 70.8804 55.1811 71.0762 53.5697C71.0981 53.3583 71.1166 53.1469 71.1352 52.8867C71.1537 52.6274 71.1579 52.368 71.1579 52.1448L70.7823 3.10821Z" fill="#4B0532"/>
<path fill-rule="evenodd" clip-rule="evenodd" d="M41.3853 79.0021C42.4657 78.416 50.7773 73.5015 54.3276 71.28L58.0185 68.8362C63.5891 65.0712 67.2733 62.5642 69.3676 58.7992L69.4122 58.7065L69.6834 58.1987C70.4093 56.7469 70.8804 55.1811 71.0762 53.5697C71.0981 53.3583 71.1166 53.1469 71.1352 52.8867C71.1537 52.6274 71.1579 52.368 71.1579 52.1448L70.7823 3.10821C70.7823 3.10821 61.6918 0 39.5655 0C20.0766 0 8.37137 2.99705 8.37137 2.99705L8 52.1566C8 52.4126 8 52.6829 8.02189 52.9238C8.03147 53.0256 8.03955 53.1266 8.04739 53.2246C8.05818 53.3595 8.06852 53.4888 8.08168 53.6067C8.24547 55.0032 8.62115 56.3665 9.19579 57.6497L9.34737 58.0202L10.0202 59.2589C12.1524 62.7814 15.9115 65.3333 21.0277 68.8065L21.1309 68.8766C21.9032 69.3996 24.8446 71.3246 24.8446 71.3246L25.4762 71.6952C26.5381 72.3444 27.9865 73.2269 29.5309 74.1659C32.3503 75.8678 36.0674 78.0935 37.7794 79.0248L39.5655 80L41.3853 79.0021ZM39.5644 78.8601L40.9084 78.1231C41.9611 77.552 50.2367 72.6595 53.7863 70.4391L57.4585 68.0077C57.4599 68.0068 57.4613 68.0059 57.4626 68.0049C63.0805 64.2078 66.5235 61.8366 68.4797 58.3382L68.5203 58.2538L68.7948 57.7397C69.4649 56.3963 69.9004 54.9482 70.0824 53.458C70.1027 53.2611 70.1201 53.0626 70.1377 52.8157C70.1537 52.5916 70.1578 52.36 70.1579 52.1485C70.1579 52.1473 70.1579 52.146 70.1579 52.1448L69.788 3.85506C69.5292 3.78337 69.1941 3.69498 68.7798 3.59422C67.6105 3.30979 65.8108 2.92674 63.3188 2.54242C58.3349 1.77377 50.5819 1 39.5655 1C29.8721 1 22.12 1.74535 16.7985 2.48891C14.1378 2.86067 12.085 3.23194 10.7013 3.50926C10.1475 3.62027 9.70086 3.71622 9.3654 3.79112L9 52.1566C9 52.1579 9 52.1591 9 52.1604C9.00001 52.4247 9.00085 52.6458 9.01765 52.8317C9.03053 52.9687 9.03891 53.0758 9.04637 53.1712C9.05527 53.2849 9.06286 53.3819 9.07521 53.4931C9.22733 54.7876 9.57574 56.0514 10.1085 57.241L10.1151 57.2559L10.2522 57.591L10.8876 58.7607C12.8984 62.069 16.4692 64.5032 21.6917 68.0486C22.0707 68.3053 22.9922 68.9128 23.8265 69.461C24.242 69.734 24.6335 69.9908 24.9211 70.1793L25.3717 70.4745L25.9901 70.8372L25.9979 70.842C27.0586 71.4906 28.5061 72.3725 30.0499 73.3111C32.877 75.0176 36.5701 77.2286 38.2573 78.1464L39.5644 78.8601Z" fill="white"/>
<path d="M68.6989 4.7217C68.6989 4.7217 59.6824 2.12549 39.5806 2.12549C21.3835 2.12549 10.4656 4.69222 10.4656 4.69222L10.0942 52.1676C10.0942 52.379 10.0942 52.6055 10.1128 52.8126C10.1313 53.0206 10.1422 53.2059 10.165 53.3844C10.3081 54.571 10.6307 55.7289 11.1224 56.8185L11.2344 57.0712L11.5688 57.7457L11.8281 58.1726C13.7406 61.3289 17.3397 63.7693 22.3267 67.1486C23.0989 67.6716 23.9166 68.224 24.7595 68.8025L24.997 68.9617L26.5675 69.9192C27.626 70.5676 29.0711 71.4468 30.6121 72.3815C34.6264 74.811 37.4526 76.4615 38.7822 77.2034L39.5654 77.6337L40.3755 77.1958C41.3886 76.6468 49.6033 71.7954 53.2058 69.5402L56.8378 67.1369C62.1633 63.5284 65.6799 61.147 67.5325 57.8122L67.674 57.5571L67.8003 57.3044C68.42 56.0694 68.8234 54.7373 68.9928 53.3659C69.0113 53.1798 69.0298 52.9945 69.0408 52.7941C69.0517 52.5937 69.0593 52.3529 69.0593 52.1566L68.6989 4.7217Z" fill="white"/>
<path d="M67.232 33.2178H11.9402L11.9326 34.379H67.2438L67.232 33.2178Z" fill="#B80C4B"/>
<path d="M11.8208 47.4753C16.1442 46.1995 26.193 43.7667 39.7256 43.7667C53.0949 43.7667 63.0991 46.3073 67.3509 47.6126L67.244 34.3865H11.9328L11.8208 47.4753Z" fill="url(#paint0_linear_413_1738)"/>
<path d="M45.4291 46.3074L49.1428 44.1853C52.9314 44.5246 56.6973 45.0821 60.4211 45.8543L51.6421 50.8547C51.5866 49.4526 51.0594 48.0766 49.5478 47.205C48.6056 46.6898 47.5631 46.3847 46.4918 46.3107C46.1381 46.2905 45.7836 46.2897 45.4291 46.3074ZM37.1781 49.5377C37.4996 49.287 37.8302 49.0482 38.1693 48.8219L30.0177 44.1819C26.2039 44.5129 22.4114 45.0552 18.6577 45.8063L33.0072 53.9663C34.1532 52.2777 35.5612 50.7827 37.1781 49.5377Z" fill="url(#paint1_linear_413_1738)"/>
<path fill-rule="evenodd" clip-rule="evenodd" d="M64.0529 59.6429C64.2744 59.4349 64.3013 59.4088 64.0756 59.6303L64.0529 59.6429L64.0268 59.6674C61.78 61.9478 58.3375 64.1591 53.4474 67.4265C53.3059 67.5158 42.6887 74.0429 39.588 75.7271C36.4984 74.0429 25.7287 67.4526 25.7287 67.4265C20.8411 64.1735 17.3649 61.9444 15.1038 59.637L39.5653 73.6017L64.0529 59.6429ZM36.6466 65.3794H35.919C38.3489 65.2297 40.6931 64.426 42.7038 63.0535C43.0752 62.7756 43.4466 62.4825 43.7843 62.1819C43.9687 62.2493 44.148 62.3284 44.3224 62.4194C42.7866 63.5962 41.0394 64.4675 39.1754 64.9861C38.5312 65.1714 37.871 65.2951 37.2032 65.3566C36.5363 65.4181 37.0213 65.3566 36.6466 65.3794ZM37.5005 64.192C34.5556 64.3848 31.5847 63.0198 33.679 56.9111C35.7624 50.832 41.9156 47.3238 45.0095 47.6387H44.8722C41.0432 47.9688 37.7683 51.6741 36.0781 55.4055C32.2432 63.8695 37.0878 64.1836 37.6335 64.192H37.5005ZM46.4504 60.9575C44.3527 60.3907 40.5977 60.1271 35.8483 62.2897C36.4749 61.8945 37.1318 61.5496 37.8129 61.2581C42.4883 59.2514 47.8398 59.7339 49.1805 60.5465C49.2285 60.576 49.2689 60.6055 49.3059 60.6316C48.2112 60.4345 47.4053 60.4573 46.4504 60.9575ZM45.3624 46.9861C46.8529 46.849 48.3391 47.2897 49.5139 48.2173C50.9699 49.3819 51.1443 51.6404 50.4908 53.6623C50.4689 53.7364 50.4015 54.0328 50.3796 54.1112C49.8642 55.5873 49.1494 56.9861 48.255 58.2686C47.9544 58.7065 47.6386 59.1141 47.3194 59.5116C46.9488 59.4787 46.5772 59.4577 46.2053 59.4484C47.1035 58.1532 47.8652 56.7684 48.4781 55.3162C51.3523 48.8741 48.5228 47.3053 45.359 46.9861H45.3624ZM32.0234 55.6354L15.8575 46.4151C15.0297 46.6088 14.2052 46.8163 13.3843 47.0375L31.2807 57.2303C31.4996 56.6855 31.7472 56.1533 32.0234 55.6354ZM51.3598 53.3246C51.1358 54.165 50.8352 54.9836 50.4613 55.7693L65.6647 47.1048C64.9219 46.9044 64.1236 46.6888 63.2175 46.4665L51.3893 53.2025L51.3598 53.3246ZM41.7935 47.0493L47.1266 44.0185C44.6706 43.8457 42.2093 43.7592 39.7472 43.7591C37.055 43.7591 34.5034 43.8551 32.1009 44.0227L39.3203 48.1322C40.1083 47.6933 40.9365 47.3307 41.7935 47.0493ZM67.2285 33.2295L67.0129 6.03789C67.0129 6.03789 59.6782 3.8501 39.5914 3.8501C21.3944 3.8501 12.1699 6.07578 12.1699 6.07578L11.9468 33.2253L67.2285 33.2295Z" fill="#83003F"/>
<path fill-rule="evenodd" clip-rule="evenodd" d="M12.8717 56.5885C13.4468 57.7162 14.1991 58.7443 15.0999 59.6336L39.5841 73.5982L64.0945 59.626C64.9946 58.7402 65.7469 57.7158 66.3227 56.5919C66.4187 56.399 66.497 56.2213 66.5829 56.0133L39.5917 71.3952L12.6157 56.0058C12.6974 56.1994 12.7791 56.3771 12.8717 56.5885ZM32.6174 54.5784C32.7404 54.3813 32.8667 54.207 32.9888 53.9999L18.6393 45.8399C17.7012 46.027 16.7666 46.2311 15.8359 46.4521L32.0237 55.6352C32.2124 55.2647 32.4094 54.9161 32.6174 54.5784ZM51.3862 53.21L63.2145 46.474C62.3639 46.266 61.4393 46.0588 60.4397 45.8474L51.6608 50.847C51.6801 51.6437 51.5875 52.4386 51.3862 53.21ZM32.6098 29.1788C32.7178 29.0949 32.7895 28.9729 32.8102 28.8378V30.0908C32.8139 30.1699 32.7983 30.2488 32.7647 30.3205C32.7311 30.3923 32.6805 30.4547 32.6174 30.5026L30.9281 31.9864L29.1673 30.303C28.0598 30.8311 26.8436 31.0913 25.617 31.0626C20.6637 31.0626 18.8321 28.9009 18.8321 23.274V22.7064C18.9955 27.7658 20.8751 29.754 25.5985 29.754C26.832 29.7829 28.0549 29.5198 29.1673 28.986L30.9206 30.6626C30.9206 30.6626 32.3757 29.3902 32.6098 29.1788ZM51.6684 29.7759C48.326 29.7759 45.894 29.583 45.894 29.583V30.8959C45.894 30.8959 48.3336 31.0887 51.6684 31.0887C56.1509 31.0887 59.014 28.8933 59.014 23.4373C59.014 23.1999 59.014 22.9809 58.9921 22.7544C58.7766 27.743 55.9724 29.7759 51.6684 29.7759ZM43.8999 30.9632H34.2738V29.6496H43.8999C44.4599 29.6496 44.6982 29.4567 44.6982 28.9674V30.2803C44.6982 30.7696 44.4641 30.9624 43.8999 30.9632ZM32.8035 28.7485C32.8052 28.7732 32.8052 28.7979 32.8035 28.8226V28.7485ZM31.745 27.7506C32.3826 26.4582 32.6948 25.0295 32.6545 23.5889V22.8479C32.5694 24.7022 32.0675 26.186 31.2178 27.2984L31.745 27.7506ZM25.6919 26.9388H25.3576V25.7481L26.7244 26.8091C26.3862 26.8909 26.0398 26.9344 25.6919 26.9388ZM25.8957 17.3733C23.5715 17.3733 22.8911 18.5447 22.8911 22.1691V22.8512C22.9694 19.7211 23.7046 18.6862 25.8881 18.6862C27.6119 18.6862 28.5433 19.3346 28.625 22.9287V22.1464C28.6444 18.074 27.7004 17.3733 25.8957 17.3733ZM51.8545 17.2024C50.9854 17.2024 49.9749 17.2656 49.9749 17.2656V18.5784C49.9749 18.5784 50.9854 18.5152 51.8545 18.5152C53.3399 18.5152 54.7437 19.0904 54.8919 22.666V21.9982C54.9071 17.8399 53.4284 17.2024 51.8545 17.2024Z" fill="#4B0532"/>
<path d="M67.3551 47.4753V47.5941L67.2178 47.5537L49.4073 57.7052C49.0035 58.3514 48.567 58.9765 48.0995 59.5781C49.4216 59.76 50.6174 60.1196 51.4418 60.9061C50.3277 60.9541 47.7281 61.1174 46.3024 64.5111C45.945 63.8533 45.4704 63.2662 44.902 62.7789C42.5921 64.5036 39.009 66.2433 35.6515 66.117C35.1371 66.0942 34.6266 66.016 34.129 65.8838C33.2895 65.6428 32.5177 65.2098 31.8746 64.6189C30.2443 63.0829 30.1887 60.7208 30.8978 58.3545L11.825 47.4753L11.7837 52.1861V52.7309C11.7837 52.9145 11.798 53.0737 11.825 53.2101C11.9344 54.1684 12.1845 55.1057 12.5677 55.9916L39.5622 71.3878L66.5786 56.0059C67.0239 54.9693 67.289 53.8643 67.3626 52.7385V52.1937L67.3551 47.4753Z" fill="url(#paint2_linear_413_1738)"/>
<path d="M48.1069 59.5783C48.3595 59.2515 48.7199 58.7589 48.965 58.3951C50.0451 56.852 50.8573 55.1379 51.3675 53.3248C51.8913 51.3037 52.0058 48.6031 49.5772 47.1976C48.6351 46.6823 47.5925 46.3772 46.5212 46.3033C46.1193 46.2797 45.7164 46.2797 45.3145 46.3033C44.8294 46.3353 44.3477 46.4035 43.8736 46.508C41.4268 46.9402 39.1281 47.981 37.189 49.5345C35.388 50.9229 33.8488 52.621 32.6433 54.5492C30.6265 57.8351 29.3675 62.1972 31.9006 64.5635C32.5437 65.1544 33.3155 65.5874 34.1549 65.8284C34.6526 65.9606 35.1629 66.0389 35.6774 66.0616C39.0197 66.1989 42.618 64.4633 44.9279 62.7235C45.4963 63.2108 45.9709 63.7979 46.3284 64.4557C47.7616 61.0621 50.346 60.8987 51.4677 60.8507C50.6172 60.1164 49.4214 59.7602 48.1069 59.5783ZM39.194 64.9863C38.5498 65.1715 37.8896 65.2953 37.2218 65.3568C36.5549 65.4183 37.0399 65.3568 36.6652 65.3795H35.9376C35.5296 65.3567 35.1249 65.2921 34.73 65.1867C34.0803 65.0147 33.4742 64.7074 32.9515 64.2848C30.8833 62.5711 31.1503 59.3374 32.458 56.4962C33.6716 53.9218 35.4695 51.6662 37.7086 49.9092C39.4532 48.5059 41.526 47.569 43.7321 47.1867H43.7583C44.1716 47.0958 44.5914 47.0375 45.0138 47.0124C45.1511 47.0124 45.2328 46.9939 45.3658 46.9896C46.8547 46.853 48.3393 47.2925 49.514 48.2174C50.97 49.3821 51.1444 51.6406 50.4909 53.6625C50.469 53.7366 50.4016 54.033 50.3797 54.1113C49.8643 55.5875 49.1495 56.9863 48.2551 58.2688C47.9545 58.7067 47.6387 59.1143 47.3195 59.5117C46.9489 59.4789 46.5774 59.4578 46.2054 59.4486H44.3932C44.7907 58.8625 45.1881 58.2208 45.5856 57.5126C46.4427 56.0189 47.077 54.4081 47.4686 52.7311C48.1625 49.3265 47.1932 47.4385 44.869 47.628C41.0399 47.9581 37.7641 51.6633 36.0749 55.3947C32.0159 64.3522 37.6791 64.1812 37.6791 64.1812C39.2746 63.9495 40.776 63.2848 42.0201 62.2595C42.1759 62.1223 42.325 61.9783 42.4774 61.8259C42.9216 61.8956 43.358 62.0087 43.7801 62.1635C43.9646 62.2309 44.1448 62.3101 44.3191 62.401C42.7858 63.5839 41.0397 64.4615 39.1755 64.9863H39.194ZM43.6505 59.5303C41.6008 59.708 38.2728 60.3016 35.5924 62.0153L35.4281 62.1223C35.3236 61.8203 35.2563 61.5067 35.2277 61.1884C35.1983 60.5416 35.2361 59.8941 35.3397 59.2557C35.552 57.9093 35.9754 56.6049 36.5945 55.3905C36.6989 55.1606 37.1738 54.2334 37.2892 54.0187C38.7747 51.3627 40.8134 49.5901 42.5178 48.7219C43.1485 48.3753 43.8441 48.1632 44.5608 48.0987C44.8734 48.0709 45.1881 48.1207 45.4769 48.2436C45.7657 48.3666 46.0197 48.5589 46.2164 48.8035C46.8513 49.612 47.082 51.0553 46.7107 52.8835C46.3188 54.5165 45.6934 56.0843 44.8538 57.5387C44.4907 58.2248 44.0889 58.8897 43.6505 59.5303ZM35.6926 62.7126L35.8559 62.6604C38.4033 61.8301 40.3376 61.6482 41.7978 61.7736C41.466 62.0936 41.1081 62.385 40.7275 62.6452C40.4458 62.8372 40.149 63.0059 39.8399 63.1496L39.6656 63.2313C39.512 63.3041 39.3546 63.3685 39.194 63.4242C38.8715 63.5286 38.5397 63.601 38.2029 63.6397C37.683 63.7098 37.1545 63.6784 36.6467 63.5471C36.4169 63.4808 36.21 63.3523 36.0488 63.1758C35.9183 63.0353 35.805 62.8798 35.7111 62.7126H35.6926ZM46.042 63.02C44.8833 61.7854 41.957 60.3016 35.8298 62.2781C36.4567 61.8835 37.1136 61.5388 37.7945 61.2473C42.4698 59.2406 47.8206 59.7231 49.1612 60.5349L49.2951 60.6275C47.9359 60.9021 46.5103 62.2157 46.0606 63.02H46.042Z" fill="#231F20"/>
<path fill-rule="evenodd" clip-rule="evenodd" d="M43.7554 47.1823C44.168 47.0922 44.5882 47.0332 45.0101 47.008C45.1474 46.9861 45.2291 46.9861 45.363 46.9861C48.531 47.3052 51.3571 48.8699 48.4788 55.3162C47.8658 56.7684 47.1041 58.1532 46.2059 59.4484C45.7006 59.4189 45.1398 59.4223 44.5091 59.4484H44.3937C44.7912 58.8623 45.1886 58.2206 45.5861 57.5124C46.4432 56.0187 47.0775 54.4079 47.4691 52.7309C48.1444 49.4113 47.2383 47.5351 45.0472 47.6168H45.0101C41.9171 47.301 35.7781 50.7806 33.6796 56.8892C31.5819 62.9979 34.5562 64.3629 37.5011 64.1996H37.683C39.2787 63.9678 40.7804 63.3032 42.0249 62.2779C42.1806 62.1406 42.3289 61.9966 42.4813 61.8442C42.9258 61.914 43.3624 62.0271 43.7849 62.1819C43.4472 62.4825 43.0758 62.7756 42.7044 63.0535C40.6887 64.4136 38.3432 65.2043 35.9154 65.3423C35.5076 65.3195 35.1032 65.2548 34.7086 65.1495C34.0587 64.9778 33.4526 64.6704 32.9301 64.2476C30.8611 62.549 31.1289 59.3145 32.4358 56.4589C33.6606 53.8955 35.4662 51.6529 37.7091 49.909C39.4523 48.5047 41.5239 47.5664 43.7293 47.1823H43.7554ZM49.3065 60.6316C48.2118 60.4345 47.4093 60.4497 46.4552 60.9575C44.3566 60.3907 40.6025 60.1271 35.8522 62.2897C41.9726 60.3015 44.9023 61.7852 46.0653 63.0316C46.5183 62.2265 47.9406 60.9137 49.3217 60.6501L49.3065 60.6316Z" fill="#60003B"/>
<path fill-rule="evenodd" clip-rule="evenodd" d="M35.711 62.7123L35.8744 62.6601C38.4218 61.8298 40.3561 61.6479 41.8163 61.7733C41.4845 62.0933 41.1266 62.3847 40.7468 62.6449C40.4649 62.8365 40.1681 63.0052 39.8592 63.1493L39.6841 63.231C39.5241 63.3043 39.3607 63.3683 39.194 63.4239C38.8714 63.5283 38.5397 63.6007 38.2028 63.6394C37.683 63.7095 37.1545 63.6781 36.6466 63.5468C36.4169 63.4805 36.21 63.352 36.0487 63.1754C35.9182 63.035 35.8049 62.8795 35.711 62.7123ZM46.2205 48.7999C46.0238 48.555 45.7697 48.3626 45.4807 48.2396C45.1917 48.1167 44.8769 48.067 44.5641 48.095C43.8473 48.1591 43.1516 48.3713 42.5211 48.7182C40.8167 49.5856 38.7855 51.359 37.2925 54.0142C37.0546 54.4684 36.8233 54.926 36.5986 55.3868C35.9825 56.6027 35.5624 57.9084 35.354 59.2554C35.2505 59.8941 35.2132 60.5418 35.2428 61.1881C35.2706 61.5064 35.338 61.8205 35.4432 62.122L35.6066 62.015C38.2879 60.3013 41.6192 59.7043 43.6656 59.53C44.1447 58.8142 44.5413 58.1169 44.8613 57.5418C45.701 56.0875 46.3264 54.5196 46.7182 52.8866C47.0853 51.0508 46.8512 49.6083 46.2205 48.7999ZM46.2205 52.6794C46.2205 50.8731 45.4483 49.7902 44.2929 49.786C42.5144 49.786 40.6719 51.2251 38.7224 53.7843L42.5405 52.5346C42.0858 52.8041 41.6765 53.1451 41.3295 53.5434L38.1615 54.5784C38.1615 54.5784 37.9578 54.9009 37.8719 55.0458L40.8917 54.063C40.6946 54.3148 40.4942 54.586 40.3005 54.8748L37.4559 55.7944C37.3784 55.9502 37.2967 56.1102 37.226 56.266L39.9738 55.3834C39.8255 55.6302 39.6782 55.8778 39.5317 56.1245L36.9329 56.9557C36.8655 57.1224 36.81 57.2891 36.7544 57.4525L39.2832 56.6037C39.1603 56.8369 39.0491 57.0778 38.9338 57.3228C38.3662 57.5199 37.1662 57.9165 36.5127 58.1388C36.4757 58.1388 36.1413 59.0997 35.9931 59.5375C35.8483 58.3207 37.0289 55.2757 37.9721 53.7514C40.074 50.3687 43.5982 48.0133 45.2917 49.0483C46.2946 49.6563 46.6693 51.0323 46.2314 52.6677L46.2205 52.6794ZM31.2807 57.2302L13.3843 47.0373C12.8625 47.1764 12.3426 47.3224 11.8247 47.4752L30.8942 58.3426C31.0053 57.9679 31.1359 57.5973 31.2807 57.2302ZM49.407 57.7051C49.7961 57.082 50.1481 56.4369 50.4613 55.7725L65.6647 47.1157C66.2407 47.2748 66.7569 47.4272 67.2133 47.5645L49.407 57.7051ZM39.2984 48.1279L32.0824 44.0226C31.3818 44.0689 30.6946 44.1228 30.0218 44.1818L38.1725 48.8218C38.5413 48.5717 38.9169 48.3409 39.2984 48.1279ZM43.8618 46.5144C44.3366 46.4108 44.8185 46.3427 45.3034 46.3106H45.4289L49.1426 44.1893C48.459 44.1263 47.7746 44.0718 47.0896 44.026L41.7599 47.0601C42.4487 46.8327 43.1502 46.6508 43.8618 46.5144ZM32.6095 29.1788C32.3754 29.3902 30.9203 30.6626 30.9203 30.6626L29.167 28.986C28.0546 29.5198 26.8317 29.7829 25.5982 29.754C20.6441 29.754 18.8133 27.5805 18.8133 21.9645C18.8133 17.0618 20.9489 14.591 25.7363 14.591C30.7123 14.591 32.6618 17.0432 32.6618 22.2837C32.6618 24.394 32.1455 26.0782 31.2058 27.3136C31.6779 27.704 32.156 28.0872 32.6399 28.463C32.6936 28.5071 32.7364 28.563 32.7648 28.6265C32.7932 28.6899 32.8064 28.7591 32.8035 28.8285C32.8006 28.8979 32.7815 28.9657 32.7478 29.0265C32.7142 29.0873 32.6668 29.1395 32.6095 29.1788ZM59.0138 22.1245C59.0138 27.5805 56.1506 29.7759 51.6681 29.7759C48.3258 29.7759 45.8938 29.583 45.8938 29.583V14.8133C45.8938 14.8133 48.6382 14.5801 51.7834 14.5801C56.362 14.5801 59.0138 16.6458 59.0138 22.1245ZM38.3586 27.0272H44.698V28.9674C44.698 29.4567 44.4639 29.6496 43.8997 29.6496H34.2736V14.7283H38.3586V27.0272ZM54.9068 21.9982C54.9068 17.8399 53.4213 17.2024 51.8542 17.2024C50.9851 17.2024 49.9746 17.2656 49.9746 17.2656V26.9422C49.9746 26.9422 50.8664 27.0272 51.6647 27.0272C53.4988 27.0272 54.9068 26.111 54.9068 21.9982ZM22.8908 22.1691C22.8908 25.77 23.4298 26.9422 25.6841 26.9422C26.032 26.9382 26.3784 26.8947 26.7165 26.8125L25.3531 25.7481L27.418 23.7674C27.418 23.7674 27.8634 24.2382 28.5321 24.8538C28.6171 23.9544 28.6567 23.0508 28.6508 22.1464C28.6508 18.0664 27.7119 17.3733 25.903 17.3733C23.5712 17.3733 22.8908 18.5447 22.8908 22.1691Z" fill="#B79257"/>
<path fill-rule="evenodd" clip-rule="evenodd" d="M45.3071 49.0594C46.2949 49.6598 46.6696 51.0358 46.2317 52.683C46.2317 50.8767 45.4595 49.7937 44.3042 49.7903C42.5256 49.7903 40.6839 51.2295 38.7336 53.7887L42.5517 52.5381C42.0972 52.8082 41.6885 53.1487 41.3408 53.547L38.1728 54.5819C38.1728 54.5819 37.969 54.9045 37.8831 55.0493L40.9029 54.0666C40.6958 54.3298 40.4989 54.6009 40.3126 54.8792L37.4679 55.7988C37.3896 55.9546 37.3079 56.1137 37.2372 56.2695L39.985 55.387C39.8368 55.6346 39.6894 55.8813 39.5437 56.1289L36.9442 56.9592C36.8768 57.1268 36.8212 57.2935 36.7656 57.4569L39.2945 56.6072C39.1724 56.8405 39.0604 57.0821 38.9458 57.3263C38.3774 57.5234 37.1783 57.92 36.5239 58.1423C36.4869 58.1423 36.1526 59.1032 36.0044 59.5411C35.8595 58.3242 37.0402 55.2792 37.9842 53.755C40.0894 50.3765 43.6136 48.0245 45.3071 49.0594ZM58.609 37.4838C58.1604 37.3448 57.6967 37.2599 57.2279 37.2312C56.8195 37.2312 56.5256 37.3946 56.5256 37.7356C56.5256 38.6181 59.1555 38.0287 59.1555 40.2097C59.1555 41.1815 58.4869 41.9377 57.1538 41.9377C56.4071 41.9341 55.6676 41.7907 54.9736 41.515L55.2263 40.5028C55.7454 40.639 56.2724 40.7431 56.8044 40.8143C57.35 40.8699 57.67 40.7066 57.67 40.2021C57.67 39.1824 54.9475 39.7196 55.0292 37.7617C55.0848 36.4413 56.2216 36.1221 57.2204 36.1221C57.8366 36.1186 58.4467 36.2452 59.0107 36.4935L58.609 37.4838ZM48.6343 39.067C48.6343 41.1074 47.8915 41.931 46.1762 41.931C44.4599 41.931 43.814 41.0965 43.814 38.9449C43.814 37.0678 44.5568 36.1221 46.2242 36.1221C47.9547 36.1221 48.6343 37.0602 48.6343 39.067ZM43.0865 39.067C43.0865 41.1074 42.3437 41.931 40.6275 41.931C38.9122 41.931 38.2663 41.0998 38.2663 38.9449C38.2663 37.0678 39.009 36.1221 40.6764 36.1221C42.4103 36.1221 43.0865 37.0602 43.0865 39.067ZM28.9635 41.8931H27.441L29.2978 36.1819H30.9054C30.9054 36.1819 32.6469 41.6337 32.6469 41.6413C32.6957 41.819 32.614 41.8931 32.417 41.8931H31.1025L30.7833 40.6215H29.3349L28.9635 41.8931ZM21.6953 41.8931H20.2545V36.1777H22.3378L23.4006 40.0312L24.47 36.1777H26.5677V41.6379C26.5677 41.8156 26.4936 41.8897 26.3084 41.8897H25.1193L25.1682 37.9251L23.9682 41.8931H22.7766L21.6397 37.9175L21.6953 41.8931ZM51.0225 41.8897H49.5926V36.1777H51.1858L52.6713 39.4274L52.6157 36.1777H54.049V41.6379C54.049 41.8266 53.9749 41.8897 53.7964 41.8897H52.5854L50.9669 38.3554L51.0225 41.8897ZM34.7606 41.8712H33.3383V36.2518C33.9778 36.1749 34.6209 36.1316 35.265 36.1221C36.8844 36.1221 37.5454 36.7192 37.5454 37.9512C37.5454 38.6038 37.2338 39.3937 36.5804 39.6388C36.6991 39.7946 37.1555 40.6291 37.6717 41.5967C37.7686 41.7743 37.6717 41.8897 37.4747 41.8897H36.2974C36.2974 41.8897 35.4545 40.1095 35.425 40.0354C35.4101 39.9928 35.3809 39.9566 35.3424 39.9329C35.3039 39.9093 35.2584 39.8997 35.2136 39.9057H34.7606V41.8712ZM45.2439 38.9853C45.2439 40.347 45.4225 40.8405 46.2098 40.8405C46.9964 40.8405 47.238 40.4986 47.238 38.9853C47.238 37.472 46.9113 37.1908 46.2797 37.1908C45.4705 37.1832 45.2439 37.6245 45.2439 38.9853ZM39.6962 38.9853C39.6962 40.347 39.8738 40.8405 40.6612 40.8405C41.4486 40.8405 41.6903 40.4986 41.6903 38.9853C41.6903 37.472 41.3635 37.1908 40.7319 37.1908C39.937 37.1832 39.6962 37.6245 39.6962 38.9853ZM29.5648 39.6497H30.5938L30.07 37.5613L29.5648 39.6497ZM36.1122 37.9992C36.1122 37.4535 35.9227 37.1908 35.2802 37.1908C35.0503 37.1908 34.7564 37.2236 34.7564 37.2236V38.8076H35.4065C35.8149 38.8076 36.1079 38.5297 36.1079 37.9992H36.1122ZM54.5576 10.4817H54.049V9.79203H55.5749V11.899C55.5734 11.9415 55.5592 11.9826 55.5341 12.0169C55.509 12.0513 55.4743 12.0774 55.4343 12.0918C55.0328 12.23 54.6108 12.2989 54.1863 12.2956C53.0427 12.2956 52.3665 11.739 52.3665 10.2114C52.3665 8.84214 53.0722 8.14151 54.257 8.11203C54.6629 8.09519 55.0688 8.16087 55.4494 8.30487L55.2743 9.04677C54.9772 8.93903 54.6619 8.89095 54.3463 8.9053C53.7593 8.93477 53.3846 9.27666 53.3846 10.2072C53.3846 11.083 53.6178 11.5167 54.2941 11.52C54.3799 11.52 54.4658 11.5125 54.55 11.4981L54.5576 10.4817ZM19.958 9.09056C19.636 8.98879 19.303 8.92548 18.966 8.90193C18.673 8.90193 18.4608 9.02066 18.4608 9.27245C18.4608 9.90656 20.3547 9.48382 20.3547 11.0493C20.3547 11.7466 19.8722 12.2914 18.9138 12.2914C18.3771 12.2886 17.8456 12.1855 17.3467 11.9874L17.5294 11.2455C17.9016 11.3432 18.2797 11.4181 18.662 11.4687C19.0553 11.5091 19.2852 11.3903 19.2852 11.0266C19.2852 10.2855 17.3282 10.6821 17.3879 9.27245C17.4284 8.3234 18.246 8.09351 18.9627 8.09351C19.409 8.09687 19.8494 8.1954 20.2545 8.38235L19.958 9.09056ZM46.5585 10.2299C46.5585 11.7129 46.0128 12.288 44.7909 12.288C43.569 12.288 43.094 11.691 43.094 10.1407C43.094 8.79077 43.6288 8.11203 44.8279 8.11203C46.0271 8.11203 46.5585 8.78656 46.5585 10.2299ZM38.4962 10.2299C38.4962 11.7129 37.9505 12.288 36.7286 12.288C35.5067 12.288 35.0317 11.691 35.0317 10.1407C35.0317 8.79077 35.5665 8.11203 36.7656 8.11203C37.9648 8.11203 38.4962 8.78656 38.4962 10.2299ZM59.1218 12.2619H58.0928V8.16003H59.2482L60.3101 10.4969L60.2696 8.16003H61.2945V12.08C61.2945 12.2139 61.2423 12.2619 61.1126 12.2619H60.2435L59.0806 9.72129L59.1218 12.2619ZM57.142 12.2619H56.3067V8.16003H57.3282V12.08C57.3282 12.2097 57.2684 12.2619 57.142 12.2619ZM51.5976 12.2619H50.7623V8.16003H51.7837V12.08C51.7837 12.2097 51.7239 12.2619 51.5976 12.2619ZM48.1736 12.2619H47.153V8.20803C47.6128 8.15317 48.0752 8.12225 48.5383 8.1154C49.7004 8.1154 50.1753 8.54151 50.1753 9.42824C50.1901 9.67651 50.1324 9.92372 50.0092 10.1398C49.886 10.3558 49.7026 10.5314 49.4814 10.6451C49.5665 10.7562 49.8932 11.3499 50.2646 12.0506C50.3353 12.1802 50.2646 12.2619 50.1239 12.2619H49.2768C49.2768 12.2619 48.6713 10.9828 48.6494 10.9415C48.6377 10.9114 48.6165 10.8861 48.5889 10.8693C48.5614 10.8526 48.5291 10.8454 48.497 10.8489H48.1736V12.2619ZM30.1551 8.85308H29.1227V12.08C29.1227 12.2097 29.0637 12.2619 28.9332 12.2619H28.102V8.84635H27.0696V8.16003H30.1551V8.85308ZM24.6629 12.2619H23.5488L24.9122 8.16003H26.07C26.07 8.16003 27.3105 12.0733 27.3105 12.08C27.3551 12.2097 27.3105 12.2619 27.1547 12.2619H26.1964L25.9665 11.3457H24.9265L24.6629 12.2619ZM23.7644 8.85308H22.7395V12.08C22.7395 12.2097 22.6797 12.2619 22.55 12.2619H21.7147V8.84635H20.6823V8.16003H23.7644V8.85308ZM41.6456 8.85308H40.1155V9.83245H41.5042V10.5263H40.1155V12.0733C40.1155 12.2063 40.0557 12.2586 39.9151 12.2586H39.094V8.16003H41.6456V8.85308ZM33.2044 8.85308H31.6448V9.79203H33.0595V10.4851H31.6448V11.5428H33.2305V12.0733C33.2305 12.2063 33.1707 12.2586 33.03 12.2586H30.6233V8.16003H33.2044V8.85308ZM36.0566 10.1701C36.0566 11.1495 36.1863 11.5015 36.7505 11.5015C37.3155 11.5015 37.4932 11.2573 37.4932 10.1626C37.4932 9.06866 37.2599 8.87161 36.8069 8.87161C36.2233 8.87582 36.0566 9.19077 36.0566 10.1701ZM44.1189 10.1701C44.1189 11.1495 44.2486 11.5015 44.8128 11.5015C45.3778 11.5015 45.5555 11.2573 45.5555 10.1626C45.5555 9.06866 45.3223 8.87161 44.8692 8.87161C44.2823 8.87582 44.1189 9.19077 44.1189 10.1701ZM25.105 10.6485H25.8477L25.4764 9.14614L25.105 10.6485ZM48.6494 10.0362C48.9315 10.0438 49.1429 9.8434 49.1429 9.46193L49.1505 9.45435C49.1505 9.06108 49.0132 8.87582 48.5526 8.87582C48.3892 8.87582 48.1812 8.89772 48.1812 8.89772V10.0362H48.6494Z" fill="white"/>
<defs>
<linearGradient id="paint0_linear_413_1738" x1="9.47806" y1="40.9919" x2="69.6056" y2="40.9919" gradientUnits="userSpaceOnUse">
<stop stop-color="#4B0532"/>
<stop offset="0.17" stop-color="#71023B"/>
<stop offset="0.27" stop-color="#83003F"/>
<stop offset="0.33" stop-color="#880140"/>
<stop offset="0.4" stop-color="#970544"/>
<stop offset="0.48" stop-color="#B00A49"/>
<stop offset="0.5" stop-color="#B80C4B"/>
<stop offset="0.73" stop-color="#83003F"/>
<stop offset="0.8" stop-color="#7A013D"/>
<stop offset="0.92" stop-color="#600337"/>
<stop offset="1" stop-color="#4B0532"/>
</linearGradient>
<linearGradient id="paint1_linear_413_1738" x1="8.37477" y1="49.0779" x2="70.8048" y2="49.0779" gradientUnits="userSpaceOnUse">
<stop stop-color="#7C4C0F"/>
<stop offset="0.09" stop-color="#885B1E"/>
<stop offset="0.36" stop-color="#AA8347"/>
<stop offset="0.5" stop-color="#B79257"/>
<stop offset="0.61" stop-color="#B28D51"/>
<stop offset="0.74" stop-color="#A67D42"/>
<stop offset="0.89" stop-color="#906428"/>
<stop offset="1" stop-color="#7C4C0F"/>
</linearGradient>
<linearGradient id="paint2_linear_413_1738" x1="8.37485" y1="59.4374" x2="70.8049" y2="59.4374" gradientUnits="userSpaceOnUse">
<stop stop-color="#7C4C0F"/>
<stop offset="0.09" stop-color="#885B1E"/>
<stop offset="0.36" stop-color="#AA8347"/>
<stop offset="0.5" stop-color="#B79257"/>
<stop offset="0.61" stop-color="#B28D51"/>
<stop offset="0.74" stop-color="#A67D42"/>
<stop offset="0.89" stop-color="#906428"/>
<stop offset="1" stop-color="#7C4C0F"/>
</linearGradient>
</defs>
</svg>
