<svg width="80" height="80" viewBox="0 0 80 80" fill="none" xmlns="http://www.w3.org/2000/svg">
<path d="M31.8723 69.0213L31.3617 71.4894H28.2979C27.8723 71.4894 27.3617 71.4894 27.1915 71.6596C26.9362 71.8298 26.8511 72 26.8511 72.2553C26.766 73.4468 31.5319 72.8511 31.3617 76.0851C31.2766 77.2766 30.766 78.4681 30 79.0638C28.8936 79.7447 27.5319 80 26.1702 80H22.4255L22.9362 77.617H26C26.3404 77.617 27.1915 77.617 27.5319 77.4468C27.7872 77.2766 28.0426 76.9362 28.0426 76.6809C28.0426 76.4255 27.8723 76.2553 27.5319 76.0851C26.3404 75.4894 23.4468 75.234 23.617 72.5957C23.7021 71.4043 24.1277 70.4681 24.8936 69.8723C25.7447 69.2766 27.0213 69.0213 28.2979 68.9362C28.2979 69.0213 31.8723 69.0213 31.8723 69.0213ZM39.7872 74.8936C40.383 71.5745 42.5957 68.6809 46.6809 68.9362C47.9574 69.0213 48.8085 69.5319 49.4043 70.1277C50.1702 70.9787 50.5106 72.1702 50.2553 73.617C49.9149 75.6596 48.9787 77.617 47.3617 78.7234C46.3404 79.4043 44.9787 79.7447 43.3617 79.6596C40.2979 79.4894 39.3617 77.4468 39.7872 74.8936ZM62.4255 79.4043H59.3617L61.5745 68.9362H65.6596L66.6809 73.7021L69.3191 68.9362H73.3191L71.1064 79.4043H68.0426L69.1489 74.2128L69.4043 73.3617L65.8298 78.8936H64.8936L63.7872 73.3617L63.617 74.2979L62.4255 79.4043ZM56.6383 69.0213C58.766 69.0213 60.0426 70.1277 59.9574 72.0851C59.8723 73.5319 59.1915 74.6383 57.6596 75.3192L58.5106 79.4894H55.3617L54.1702 73.617H55.2766C55.9574 73.617 56.6383 73.3617 56.7234 72.4255C56.8085 71.7447 56.2979 71.4894 55.7872 71.4894H53.7447L54.1702 73.617L52.8936 79.4894H49.8298L52.0426 69.0213H56.6383ZM40.9787 69.0213L40.4681 71.4894H37.1489L37.6596 73.7021L36.4681 79.4894H33.4043L35.1064 71.4894H32.2979L32.8085 69.0213C32.7234 69.0213 40.9787 69.0213 40.9787 69.0213ZM47.1064 73.617C47.3617 72.1702 46.9362 71.4894 45.9149 71.4043C44.2979 71.3192 43.2766 72.6809 42.9362 74.8936C42.6809 76.2553 43.1064 77.0213 44.1277 77.1064C45.7447 77.2766 46.6809 75.9149 47.1064 73.617ZM62.0851 66.383C62.2553 65.7021 62.5957 65.1915 63.3617 65.1915C64.1277 65.1915 64.2979 65.7021 64.1277 66.383C63.9574 67.0638 63.5319 67.5745 62.8511 67.5745C62.0851 67.5745 61.9149 67.0638 62.0851 66.383ZM65.1489 66.7234C65.0638 66.8936 65.1489 67.1489 65.4894 67.1489C65.8298 67.1489 65.9149 66.8936 66 66.7234L66.3404 65.2766H66.8511L66.5106 66.7234C66.3404 67.3192 65.9149 67.5745 65.4043 67.5745C64.8085 67.5745 64.5532 67.3192 64.6383 66.7234L64.9787 65.2766H65.4894L65.1489 66.7234ZM52.5532 67.5745H52.0426L52.5532 65.2766H53.234L53.4894 66.5532L54.2553 65.2766H55.0213L54.5106 67.5745H54L54.2553 66.383L54.3404 66.0426L53.4043 67.4894H53.234L52.8936 66.0426L52.8085 66.383L52.5532 67.5745ZM69.8298 67.5745H69.3191L69.8298 65.2766H70.3404L71.0213 66.7234L71.1064 66.1277L71.2766 65.2766H71.7872L71.2766 67.5745H70.766L70.1702 66.2128L70.0851 66.7234C70 66.7234 69.8298 67.5745 69.8298 67.5745ZM58.8511 67.5745H57.3191L57.8298 65.2766H58.3404L57.9149 67.1489H58.9362L58.8511 67.5745ZM73.4894 67.5745H71.8723L72.383 65.2766H74L73.9149 65.7021H72.8936L72.8085 66.1277H73.7447L73.6596 66.5532H72.7234L72.6383 67.0638H73.7447C73.6596 67.1489 73.4894 67.5745 73.4894 67.5745ZM56.7234 67.5745H55.1064L55.617 65.2766H57.234L57.1489 65.7021H56.1277L56.0426 66.1277H56.9787L56.8936 66.5532H55.9574L55.8723 67.0638H56.9787C56.8085 67.1489 56.7234 67.5745 56.7234 67.5745ZM60.5532 67.5745H59.5319L60.0426 65.2766H61.0638C61.5745 65.2766 61.7447 65.5319 61.6596 65.8723C61.5745 66.1277 61.4043 66.2979 61.1489 66.383C61.4043 66.4681 61.5745 66.6383 61.4894 66.8936C61.4043 67.3191 61.0638 67.5745 60.5532 67.5745ZM68.4681 65.2766C68.9787 65.2766 69.234 65.5319 69.1489 66.0426C69.0638 66.383 68.8936 66.6383 68.5532 66.7234L68.7234 67.5745H68.2128L67.9574 66.2979H68.2128C68.383 66.2979 68.5532 66.2128 68.6383 65.9574C68.7234 65.7021 68.5532 65.617 68.383 65.617H67.9574L67.5319 67.4894H67.0213L67.5319 65.1915H68.4681V65.2766ZM63.617 66.383C63.7021 65.9574 63.617 65.617 63.2766 65.617C62.9362 65.617 62.6808 65.8723 62.5957 66.383C62.5106 66.8085 62.5957 67.1489 62.9362 67.1489C63.2766 67.1489 63.5319 66.8085 63.617 66.383ZM60.2128 66.5532L60.1277 67.0638H60.5532C60.7234 67.0638 60.8936 66.9787 60.8936 66.8085C60.8936 66.6383 60.8085 66.5532 60.6383 66.5532C60.6383 66.5532 60.2128 66.5532 60.2128 66.5532ZM60.7234 66.1277C60.8936 66.1277 60.9787 66.0426 61.0638 65.8723C61.0638 65.7021 60.9787 65.617 60.8085 65.617H60.383L60.2979 66.1277H60.7234ZM42.766 65.2766H25.6596L34.3404 51.234L33.5745 50.7234C29.5745 48.2553 26.5106 44.766 24.7234 40.6809L24.5532 40.3404L6 54.4681L23.1064 35.4043V35.3191C23.1064 33.1915 24.0426 30.5532 24.8085 29.1915C26 27.0638 29.1489 23.4043 34.2553 19.6596C36.6383 17.9574 39.1064 16.6809 39.2766 16.6809C39.2766 16.6809 40.5532 16.1702 41.7447 16.1702C43.1064 16.1702 44.6383 16.6809 45.9149 17.1915C45.9149 17.1915 53.5745 10.5532 55.4468 8.93617C59.3617 5.53192 66.1702 0 66.1702 0C66.1702 0 62.6808 4.34043 59.1915 8.42553C57.3191 10.6383 48.8085 20 48.8085 20L48.5532 21.9574C48.5532 22.2979 47.7021 22.8085 47.7021 22.6383C47.7021 22.383 47.7021 20 47.7021 19.3191C47.7021 19.234 47.617 19.1489 47.617 19.1489C47.5319 19.1489 44.2979 17.3617 44.2979 17.3617C44.2979 17.3617 46.766 19.4043 46.8511 19.4894C46.9362 19.5745 46.9362 19.6596 46.9362 19.7447C46.9362 20.1702 47.0213 22.8936 47.0213 23.234C47.0213 23.5745 46 24.1702 46 23.9149C46 23.6596 45.8298 21.1064 45.8298 20.5106C45.8298 20.4255 45.7447 20.3404 45.7447 20.3404C45.6596 20.3404 42.6809 18.6383 42.6809 18.6383C42.6809 18.6383 44.8936 20.5957 44.9787 20.6809C45.0638 20.6809 45.0638 20.766 45.0638 20.8511C45.0638 21.4468 45.3191 24.3404 45.3191 24.5106C45.3191 24.8511 44.1277 25.617 44.1277 25.3617L43.8723 22.1277C43.8723 22.0426 43.7872 21.9574 43.7021 21.8723C43.617 21.7872 40.6383 19.8298 40.6383 19.8298C40.6383 19.8298 42.766 21.8723 42.8511 21.9574C42.9362 22.0426 43.0213 22.1277 43.0213 22.2979C43.1064 23.0638 43.5319 26.0426 43.5319 26.1277C43.5319 26.2979 43.1064 26.7234 42.5957 26.8936C42.5106 26.9787 42.3404 27.1489 42.1702 27.4043L36.4681 33.5319C36.7234 33.7021 36.9787 33.9574 36.9787 33.9574C38.9362 35.7447 40.7234 38.2128 41.7447 39.7447C42.1702 39.8298 51.1915 41.2766 51.3617 41.2766C52.7234 31.234 57.4894 26.6383 57.4894 26.6383C58 26.1277 58.3404 25.8723 58.4255 25.7872C59.1064 26.0426 59.617 26.2979 59.617 26.2979C64.1277 28.4255 69.5745 33.3617 69.8298 33.5319L70.2553 33.9574L68.8936 41.3617L67.617 41.2766L67.3617 44.766L65.9149 45.2766L65.234 47.3191C65.234 47.3191 63.3617 49.8723 62.766 50.5532L62.3404 50.9787L67.4468 55.6596L66.5957 56.5106C60.383 62.2128 52.2128 65.2766 42.766 65.2766ZM67.4468 57.1915C65.9149 58.5532 62.5957 61.3617 56.8936 63.6596C62.9362 62.7234 66.5957 60.3404 68.9787 58.6383L69.8298 57.9574L68.2128 56.5106L67.4468 57.1915Z" fill="#092340"/>
<path d="M39.9573 61.1063C39.9573 61.1063 49.4892 52.5957 51.0211 42.7233L51.1062 42.2978L41.5743 40.7659V51.8297L30.6807 64.1701H42.8509C46.5105 64.1701 57.1488 63.7446 65.8296 55.6595L61.6594 51.8297C55.5317 59.1488 39.9573 61.1063 39.9573 61.1063Z" fill="#512D82"/>
<path d="M34.5106 28.8512L33.6595 25.7874L12.0425 48.7661L32.7233 32.3406L33.4893 34.8938L41.4893 26.298L40.5531 23.5746C40.3829 23.5746 34.5106 28.8512 34.5106 28.8512ZM60.9786 5.19165L47.1063 17.6172C47.1063 17.6172 48.2978 18.0427 48.6382 18.4682L60.9786 5.19165Z" fill="white"/>
<path d="M38.5954 44.5957L29.6593 37.1063L27.9571 38.468C30.5954 43.0638 35.9571 46.7233 35.9571 46.7233V50.7233L27.7018 64.1701L38.6805 51.1489C38.5954 51.1489 38.5954 44.5957 38.5954 44.5957ZM58.8508 27.234C60.2976 28.851 64.5529 33.1914 64.5529 33.1914L64.8933 38.6382L65.4891 39.4042L63.7018 40.5106L61.0635 36.2552C61.0635 36.2552 57.9997 39.0638 56.1273 43.5744L53.4891 43.1489C53.4891 43.1489 52.8933 47.6595 49.5742 53.1063L49.6593 53.0212C53.7444 50.0425 55.1912 45.9574 55.1912 45.9574C55.1912 45.9574 58.8508 49.2765 59.1061 49.5318C59.1912 49.6169 59.4465 49.7872 59.7869 49.9574C60.1274 50.1276 60.4678 50.1276 60.8933 50.1276C61.2337 50.1276 61.5742 50.1276 61.8295 49.8723C62.4252 49.1914 62.8508 48.5106 62.8508 48.5106L61.5742 47.0638L61.8295 46.3829L63.4465 47.4042L64.0422 46.8084L61.4891 45.1914L60.0422 45.6169L60.3827 44.7659L61.4891 44.1701L63.6167 45.7021L64.2976 46.1276L64.7231 44.9361L63.7869 44.085V43.4893L65.5742 44.3403L66.255 44.085L66.5103 40.1701L67.872 40.2552L68.7231 34.3829C68.8082 34.2978 63.2763 29.2765 58.8508 27.234ZM64.0422 33.5318C62.8508 34.3829 61.4891 35.7446 61.4891 35.7446L63.7869 37.7872L64.0422 33.5318ZM41.4039 23.4042C41.4039 23.234 41.3188 23.1489 41.2337 23.1489C40.3827 22.7233 36.4678 21.0212 36.8082 20.5957C37.2337 20.085 39.7869 17.6169 39.7869 17.6169C39.7869 17.6169 37.2337 18.8084 34.9359 20.5106C29.6593 24.4255 26.7656 27.9148 25.7444 29.7021C25.0635 30.9786 24.4678 33.0212 24.4678 33.0212L35.1061 21.8723C35.1061 21.8723 37.4039 22.2978 40.3827 23.5744L41.3188 26.2978L41.7444 26.2127C41.7444 26.2127 41.8295 26.2127 41.8295 26.0425C41.8295 25.6169 41.4891 23.9999 41.4039 23.4042Z" fill="#C6C9C8"/>
</svg>
