<svg width="80" height="80" viewBox="0 0 80 80" fill="none" xmlns="http://www.w3.org/2000/svg">
<path fill-rule="evenodd" clip-rule="evenodd" d="M34.7812 18.0008L34.8332 18C35.3492 18.0022 35.8435 18.2082 36.2083 18.573C36.5732 18.9379 36.7792 19.4321 36.7814 19.9481C36.7814 20.6266 36.427 21.2581 35.8476 21.6116C35.0658 22.1277 34.3144 22.6885 33.5971 23.2911C34.9323 23.2155 36.1331 23.1651 36.7545 23.1651C37.1874 23.1672 37.6075 23.3125 37.9493 23.5783C38.291 23.8441 38.5353 24.2155 38.6439 24.6346C38.68 24.7891 38.6993 24.9462 38.7026 25.1049C38.6944 25.4511 38.5944 25.789 38.413 26.084C38.2315 26.3791 37.9751 26.6207 37.6698 26.7843C36.3812 27.4951 35.171 28.3395 34.059 29.3035C33.6559 29.6393 33.2277 29.9836 32.7742 30.3363C35.3102 30.5513 37.8327 30.8989 40.3317 31.3776C40.6556 31.0327 41.0636 30.7781 41.5157 30.6386C44.883 29.5218 53.1962 28.3378 58.4696 31.2012C59.2259 30.3955 60.2228 29.8561 61.311 29.6639C62.3993 29.4717 63.5206 29.6369 64.5072 30.1348C65.2064 30.4703 65.8063 30.9819 66.248 31.6194C66.6896 32.2568 66.9579 32.9983 67.0263 33.7708C67.065 34.0487 67.0843 34.3292 67.0851 34.6105C67.1196 35.2609 67.0237 35.9117 66.803 36.5246C66.5824 37.1374 66.2415 37.7 65.8004 38.1793C65.2434 38.6613 64.6216 39.0627 63.953 39.3717L64.6919 41.0511C65.1129 42.2985 65.7278 43.4717 66.5141 44.5276C66.9625 45.1257 67.5932 45.5619 68.3111 45.7703C69.1733 45.999 69.937 46.5032 70.486 47.2063C71.0378 48.0345 71.5128 48.9115 71.9051 49.8262C72.3633 50.9296 72.9257 51.9868 73.5845 52.9835C74.3967 53.4952 75.2574 53.9256 76.1541 54.2683C78.0099 55.108 79.7649 55.805 79.9244 57.6272C79.9547 57.7153 79.9798 57.8052 80 57.8959C80.0003 58.3417 79.9009 58.7819 79.7091 59.1844C79.5173 59.5868 79.238 59.9413 78.8916 60.2219C76.9602 61.8174 73.2403 61.2967 72.0815 60.9776C70.4944 60.5326 66.4805 58.4585 64.8011 56.779C64.5156 57.5012 63.7179 58.4585 61.5262 58.4585H61.2995C58.5956 58.4585 58.2849 58.4333 56.1604 57.5012L55.3207 57.1149C53.675 56.3249 52.1667 55.2759 50.8534 54.008C50.4947 53.678 50.1191 53.3669 49.7281 53.0759L48.7373 52.9919C47.6374 52.9718 46.545 52.8081 45.4876 52.5049C45.186 52.4186 44.9114 52.2567 44.6898 52.0346C41.4821 52.824 36.2171 53.6637 32.6903 52.824C31.9815 53.6812 31.0785 54.3569 30.0561 54.795C29.0338 55.2331 27.9217 55.4211 26.8122 55.3431C25.1832 55.3431 23.9152 55.4187 22.6136 55.4943C21.3121 55.5699 19.9433 55.6622 18.1883 55.6622C17.357 56.0317 16.786 56.3256 16.2654 56.6111L14.8042 57.3501C14.2133 57.6115 13.5775 57.7569 12.9317 57.7783C12.6663 57.7642 12.4045 57.8445 12.1927 58.005C11.7225 58.2821 7.91855 60.2303 5.92842 59.6845L4.4757 58.5425C4.21593 58.1063 4.06608 57.6135 4.03905 57.1065C4.06088 56.4037 4.30776 55.726 4.74441 55.1752C4.13021 55.2455 3.50805 55.1795 2.92222 54.9821C2.36673 54.7887 1.88459 54.4283 1.54186 53.9502C1.19912 53.4722 1.01254 52.8999 1.00767 52.3117C1.00767 50.9178 2.0909 49.5995 4.11463 48.5246C3.51335 48.3525 2.96082 48.0418 2.50143 47.6174C2.04204 47.193 1.6886 46.6668 1.46951 46.081C1.37604 45.8198 1.29754 45.5535 1.23439 45.2833C0.699903 44.8581 0.321825 44.2673 0.15955 43.6039C0.0533679 43.2872 -0.00052011 42.9554 3.78339e-06 42.6214C3.78339e-06 40.7068 1.67944 38.6243 3.35888 36.6258L3.43445 36.5418C3.85515 35.9616 4.22631 35.3461 4.54288 34.7028C5.15528 33.4333 5.94091 32.2548 6.8773 31.2012C8.29216 29.7896 10.0175 28.7285 11.9156 28.1027C12.6378 27.9028 13.3063 27.5442 13.8722 27.053L15.1905 25.5331C16.786 23.6521 18.9692 21.0826 22.0762 19.8062C25.8549 18.2444 27.7695 18.1856 34.0926 18.0008H34.7812Z" fill="#231F20"/>
<path fill-rule="evenodd" clip-rule="evenodd" d="M11.3194 51.4047C10.4209 51.497 14.863 50.4306 14.8882 50.4222C17.9951 49.6581 15.7867 49.6581 14.4851 49.3642C13.629 49.1777 12.7871 48.9308 11.9659 48.6252C11.3992 48.4354 10.7861 48.4354 10.2193 48.6252C9.73228 48.9527 7.91009 48.9947 6.28104 49.6497C4.87031 50.2039 2.67025 51.4047 3.04812 52.5551C3.426 53.7055 5.76041 53.2521 7.53222 52.1268C8.76529 51.752 10.0349 51.5099 11.3194 51.4047ZM61.1818 54.5116C60.0146 54.1673 58.0077 53.7307 56.2191 53.0841C54.7989 52.5021 53.4938 51.6718 52.3648 50.6321C51.5251 49.9856 50.1227 49.7924 49.1571 49.4481C48.1914 49.1038 48.3174 48.9611 47.696 49.4481C47.115 49.8897 46.5064 50.2936 45.8738 50.6573C47.9479 51.2283 48.6113 50.968 50.0724 51.1947C51.1304 51.3543 53.1961 54.1757 55.9504 55.3933C58.7047 56.6109 58.2764 56.5857 61.4338 56.5857C64.0201 56.5438 62.8865 55.0407 61.1818 54.5452V54.5116ZM72.3837 54.5116C71.2501 53.6719 69.705 49.4061 68.9324 48.3817C68.1599 47.3572 66.9507 48.0206 65.0362 45.8038C63.5247 44.0655 62.9033 41.4708 62.0803 39.9257C60.9383 37.7928 59.1497 37.4653 59.7207 36.9027C62.1139 38.3219 63.0796 37.9608 64.5491 36.6928C65.1705 36.1722 65.7751 32.7965 63.7094 31.8308C60.594 30.4117 58.9818 33.7706 58.9062 33.7706C54.9259 30.4117 46.2097 31.1087 42.179 32.4606C41.1965 32.7881 42.1034 32.9057 42.9096 32.998C43.447 33.0484 44.2783 33.9133 41.2889 33.4851C40.1217 33.3171 34.7055 32.2171 31.6237 32.2171C28.9702 32.2171 26.9969 32.427 25.6953 33.0568C24.3938 33.6866 21.4967 34.6355 20.4135 35.0134C19.7333 35.2317 19.5234 34.6439 20.254 34.4004C31.6825 30.5377 31.8841 27.6238 36.7796 25.0039C35.159 25.0039 29.0206 25.407 27.7275 25.407C24.3771 25.7704 21.2951 27.4091 19.1203 29.9835C18.7761 30.4369 18.2302 30.0506 18.6417 29.4964C20.7326 26.5994 24.7884 24.7856 28.7855 24.5505C29.2725 24.3909 32.8497 21.0824 34.8819 19.8564C28.0633 20.0664 26.4343 20.0664 22.8571 21.5359C19.2799 23.0054 17.0546 26.5742 15.2996 28.3544C13.5446 30.1346 11.2858 29.5804 8.32155 32.553C6.9948 33.863 5.98714 36.6088 4.96268 37.7844C3.93822 38.96 1.60381 41.6303 2.08245 42.9739C2.40994 43.948 2.40994 43.5869 3.21607 43.7464C2.96415 44.0655 3.21607 44.9472 3.37561 45.3755C3.55787 45.7724 3.84839 46.1098 4.2138 46.3489C4.57922 46.5881 5.00468 46.7193 5.44132 46.7274C6.45738 48.1214 9.26204 47.5672 11.1682 47.8275C12.7049 48.0374 14.5271 48.9779 17.9867 48.9779C18.9277 48.9457 19.8398 48.6447 20.6151 48.1105C21.3904 47.5763 21.9965 46.8311 22.3617 45.9633C22.7647 44.9808 22.9327 45.0648 22.2357 46.9038C21.8767 47.7958 21.2293 48.5418 20.3967 49.0228C19.5642 49.5038 18.5945 49.6919 17.6424 49.5573C17.2897 50.5062 14.9385 50.7665 12.7301 51.5978C10.7349 52.4588 8.90497 53.6608 7.32229 55.1498C6.54135 56.0987 5.64285 56.6109 6.15508 57.669C6.50776 58.3575 9.9758 57.0728 11.1094 56.359C12.4026 55.5193 12.7889 56.0735 13.9477 55.5865C15.1065 55.0994 15.7279 54.562 17.676 53.7475C21.4128 53.7475 23.2853 53.42 26.6946 53.42C29.4993 53.42 30.7588 52.4039 31.9344 50.397C33.2024 48.2305 33.1017 49.8932 32.665 50.9344C37.0567 52.1772 45.6806 49.9184 46.1845 49.5909C47.1082 48.9695 48.1074 49.0954 46.344 47.9114C45.3699 47.2565 45.2608 46.0641 46.344 46.971C47.3287 47.7854 48.4226 48.4581 49.5937 48.9695C50.2403 49.297 52.7595 49.868 53.1625 50.313C55.1107 52.3704 59.3848 53.5628 61.8284 53.9238C64.272 54.2849 64.9186 54.0834 66.027 55.3849C67.1355 56.6865 71.0653 58.7438 72.5264 59.1469C74.315 59.6423 78.1274 59.6423 77.9678 57.8369C77.8839 56.6613 74.4242 56.0147 72.3837 54.5452V54.5116ZM13.1751 35.408C13.2171 35.5088 13.2423 35.5424 13.2759 35.6348C13.425 35.9767 13.4565 36.3584 13.3653 36.7201C13.2741 37.0818 13.0655 37.403 12.7721 37.6333C12.5369 37.8197 12.2456 37.9222 11.9458 37.9222C11.6884 37.9217 11.4367 37.8465 11.2211 37.7058C11.0056 37.5651 10.8355 37.3649 10.7315 37.1295C10.3285 37.2722 10.1018 37.6081 9.79106 38.0951C9.65671 38.3135 9.53075 38.2883 9.44678 38.2295C9.36281 38.1707 9.30403 37.9272 9.44678 37.5157C9.79986 36.8228 10.3011 36.2161 10.915 35.7387C11.5289 35.2612 12.2403 34.9247 12.9988 34.7531C13.2003 34.7027 13.4354 34.7027 13.511 34.8538C13.7209 35.2905 13.1247 35.3241 13.1751 35.408ZM12.285 35.7607C12.1627 35.7612 12.0455 35.81 11.9589 35.8965C11.8724 35.983 11.8236 36.1002 11.8232 36.2226C11.8232 36.4762 12.0314 36.6844 12.285 36.6844C12.5386 36.6844 12.7469 36.4762 12.7469 36.2226C12.7464 36.1002 12.6976 35.983 12.6111 35.8965C12.5246 35.81 12.4074 35.7612 12.285 35.7607Z" fill="white"/>
</svg>
