<svg width="80" height="80" viewBox="0 0 80 80" fill="none" xmlns="http://www.w3.org/2000/svg">
<path d="M66.1682 31.936C66.7442 28.688 67.2402 25.424 67.6242 22.16C49.6562 17.952 26.7282 22.864 12.2322 29.648C8.10421 52.592 18.6482 71.392 33.7042 80C34.1202 79.84 34.5202 79.664 34.9202 79.504L35.3682 79.312C44.0722 75.488 50.5842 69.616 55.4802 62M61.6562 49.248C61.9762 48.368 62.2802 47.488 62.5682 46.576ZM62.5682 46.576C64.0402 42.048 65.2242 37.152 66.1682 31.936ZM55.5122 61.952C57.9442 58.144 59.9762 53.904 61.6562 49.264Z" fill="white"/>
<path d="M55.48 26.864C55.496 26.88 55.496 26.88 55.48 26.864Z" fill="white"/>
<path d="M22.3761 65.104C24.6801 69.104 27.8321 72.928 31.3521 76.096C32.5841 77.2 33.9281 78.272 35.3681 79.296C44.0721 75.472 50.6001 69.584 55.4961 61.952C49.1601 61.92 42.8081 62.256 36.5361 62.944C31.7521 63.456 27.0161 64.192 22.3761 65.104ZM17.1441 50.752C17.2881 51.616 17.4961 52.48 17.6721 53.312C31.7521 50.272 46.8881 48.752 61.6721 49.216C61.9921 48.336 62.2961 47.456 62.5841 46.544C47.4001 45.936 31.5601 47.392 17.1441 50.752ZM12.1841 29.6C8.07206 52.56 18.6161 71.392 33.6881 80C34.1041 79.84 34.5041 79.664 34.9041 79.488C20.6481 71.344 10.9041 53.536 14.8081 31.824C27.6561 25.808 47.4001 21.408 63.8161 24.144C51.5921 22.896 32.3281 26.08 19.5121 31.104C18.7441 31.392 17.9441 31.696 17.1281 32.016C17.1281 32.016 16.5681 34.352 16.3441 38.096L17.2401 37.856C33.1761 33.536 49.6561 31.52 66.1841 31.904C66.7601 28.752 67.2401 25.488 67.6401 22.112C49.6561 17.888 26.7121 22.816 12.1841 29.6Z" fill="#0039A6"/>
<path d="M31.464 34.6239C26.376 35.5519 21.336 36.7039 16.344 38.0959C16.088 42.3359 16.36 46.5759 17.128 50.7519C23.896 49.1839 30.744 48.0479 37.64 47.3439C45.864 46.4959 54.216 46.2239 62.568 46.5599C64.04 42.0159 65.224 37.1199 66.168 31.9039C54.376 31.6319 42.76 32.5759 31.464 34.6239Z" fill="#C60C30"/>
<path d="M49.0643 60.4L49.0323 60.464C48.7923 60.848 48.2803 61.504 47.7363 62.096C50.3123 61.984 52.9043 61.936 55.5123 61.952C57.9603 58.128 59.9923 53.872 61.6883 49.216C51.0963 48.88 40.6323 49.52 30.3443 51.024C30.3443 51.04 30.3443 51.024 30.3603 51.04C30.7283 51.648 31.0963 52.16 31.3203 52.512C31.8163 53.248 31.4323 53.76 31.4963 54.128C31.5603 54.464 31.3683 55.472 31.6403 56.56C31.3363 56.96 30.6963 57.44 30.3763 58.176C29.8003 59.456 29.6883 60.528 30.0563 62.144C29.9763 62.688 29.9603 63.248 30.0083 63.792C33.8803 63.216 37.7843 62.768 41.6883 62.48L41.7043 62.464C42.7123 61.248 42.8403 60.544 43.2403 58.864C43.5283 57.328 43.8003 57.632 44.5043 56.784C45.0163 56.16 45.0803 55.568 44.9043 54.56C44.9363 54.56 44.9683 54.56 44.9843 54.56C48.2323 54.272 49.1763 53.728 50.0563 53.552C51.9123 53.168 51.7523 54.336 51.7683 54.64C51.7363 55.152 51.3683 56.176 50.6803 57.44C50.6803 57.408 50.2163 58.672 49.0643 60.4Z" fill="#BBC1DB"/>
<path d="M63.9442 41.1199C63.7682 39.7599 63.5442 38.5119 63.0962 37.5039C62.2642 35.6319 60.2002 33.4399 58.4402 31.9039C47.3522 32.1439 36.3122 33.4559 25.4802 35.8399C25.3522 36.3039 25.2402 36.7839 25.1602 37.2639C25.2082 37.4239 25.3202 37.6639 25.4482 37.9039C25.3842 38.5919 25.6882 40.2239 25.9442 40.9759C25.8162 41.2479 25.7842 41.5519 25.8642 41.8239C25.9922 42.1919 26.6482 42.7519 27.0482 42.9439C27.0482 42.9439 27.1762 45.9519 29.5762 47.3119C29.4642 47.6639 29.3682 48.0159 29.3042 48.3839C40.3122 46.7039 51.4482 46.0799 62.5682 46.5279C63.1282 44.8159 63.6242 43.0879 64.0882 41.3439L63.9442 41.1199Z" fill="#9F0A2B"/>
<path d="M38.1361 20.448C37.2561 19.952 36.2961 19.648 35.3041 19.504C34.0241 19.936 32.7601 20.688 31.9281 21.184C31.4641 22.176 30.6161 24.496 30.6001 24.944C30.8721 24.944 31.3201 24.928 31.8641 24.752C31.6241 24.976 31.4001 25.248 31.1441 25.616C30.1841 25.968 28.8401 26.496 27.4801 27.232C27.1121 27.536 26.7121 28.048 26.5681 28.592C26.4881 28.848 26.5201 29.12 26.7281 29.28C26.8561 29.392 27.0641 29.488 27.2561 29.536L27.2881 29.552C27.1441 30.368 27.4161 31.504 27.7361 32.032C27.6241 32.192 27.5121 32.448 27.4001 32.752C27.0641 33.648 26.8081 34.592 26.6481 35.536C26.6961 35.696 26.8081 35.936 26.9361 36.176C26.8721 36.864 27.1761 38.496 27.4321 39.248C27.3041 39.52 27.2721 39.824 27.3521 40.096C27.4801 40.464 28.1361 41.024 28.5361 41.216C28.5361 41.216 28.6641 44.224 31.0641 45.584C30.8561 46.288 30.7601 46.72 30.7441 47.168C30.7601 47.2 30.7761 47.248 30.7921 47.28C31.0001 47.888 31.4001 48.592 31.8001 49.248C32.1681 49.856 32.5521 50.4 32.7921 50.752C33.2881 51.488 33.0801 52.096 33.0321 52.464C32.9841 52.848 32.8401 53.712 33.1121 54.784C32.8081 55.184 32.1681 55.664 31.8481 56.4C31.2721 57.68 31.1601 58.752 31.5281 60.368C31.2081 62.48 31.8961 64.512 33.5921 65.152C34.5201 65.488 35.2561 65.52 35.6241 65.392C36.6161 65.504 37.4481 65.12 37.9921 64.736C38.8241 64.208 39.8481 64.032 40.9201 62.704C41.3361 62.192 42.1681 61.904 43.1761 60.688C44.1841 59.472 44.3121 58.768 44.7121 57.088C45.0001 55.552 45.2721 55.856 45.9761 55.008C46.4881 54.384 46.5521 53.792 46.3761 52.784H46.4721C49.7201 52.496 50.6641 51.952 51.5441 51.776C53.4001 51.392 53.2401 52.56 53.2561 52.864C53.2241 53.376 52.8561 54.4 52.1681 55.664C52.1681 55.664 51.6881 56.928 50.5521 58.672L50.5201 58.736C49.9921 59.6 48.0881 61.744 47.5761 61.76C45.6081 61.84 44.1201 62.688 43.1761 64.64C41.9761 64.992 40.4401 66.272 40.2001 68.288C40.2001 68.304 40.0401 69.44 40.7281 70.24C40.9201 70.496 41.3201 70.72 41.5601 71.008C41.8641 71.376 42.3761 71.456 42.6801 71.568C43.2721 71.728 43.9281 71.584 44.6961 71.296C45.6561 70.912 47.3841 72.144 49.7041 72.128C52.2321 72.112 54.2481 72.064 54.7601 72.56C56.1361 73.936 58.0561 72.528 58.0561 72.528C59.0961 71.744 59.4161 70.528 59.5281 70C59.9921 67.648 59.6401 67.536 59.4801 65.792C59.3201 64.064 60.0561 62.608 60.3601 62C61.8481 58.912 65.0961 56.64 66.7121 51.328C68.2481 46.288 67.6881 41.264 65.3201 38.384C65.1441 37.024 65.0481 36.784 64.6001 35.792C63.5281 33.392 60.4401 30.464 58.5681 29.088C57.7201 27.856 56.4081 26.624 55.4321 25.984C55.4001 25.888 55.3681 25.776 55.3521 25.68L55.0161 24.992C54.7921 24.64 54.4721 24.352 53.9921 23.936C53.6401 23.68 52.9201 23.232 52.3761 23.168C52.5681 22.88 52.7281 22.384 52.7281 22.064C51.3361 20.528 49.0001 19.744 47.4961 18.384C45.7521 18.384 44.0081 18.528 42.2961 18.8C41.6561 19.12 41.0641 19.552 40.5521 20.048C39.8961 20.08 38.7601 20.288 38.1361 20.448Z" fill="#06357A"/>
<path d="M38.9198 37.536C39.4158 37.584 40.9678 37.792 42.1678 38C41.7678 37.728 41.2398 36.928 40.9838 36.56C40.7598 36.848 40.5678 37.12 40.2638 37.392C40.1038 37.056 39.6078 36.464 39.0478 36.176C38.9358 36.512 38.7278 36.864 38.5678 37.152C38.0398 36.976 37.5278 36.736 37.0478 36.432C36.9518 36.464 36.8558 36.512 36.7598 36.576C37.2238 36.8 37.9598 37.184 38.5678 37.792C38.5838 37.776 38.9198 37.536 38.9198 37.536ZM39.0638 35.232C39.4478 35.472 40.0238 35.952 40.3918 36.448C40.4398 36.368 40.5518 36.272 40.5998 36.128C40.3278 35.904 39.7038 35.2 39.4638 34.832C38.9838 34.912 38.0398 35.072 37.2878 35.296C37.0798 35.392 36.8878 35.488 36.6958 35.616C36.9678 35.856 37.6238 36.24 38.4398 36.432C38.7598 35.968 38.9358 35.52 39.0638 35.232ZM56.8398 70.752C56.4398 70.544 55.9598 70.896 55.9918 71.376C56.0078 71.648 55.9278 72.112 56.1038 72.272C56.1038 72.272 56.4558 72.512 57.0478 71.792C57.3198 71.472 57.1918 70.944 56.8398 70.752ZM56.2158 67.824C55.6558 67.472 55.1278 67.344 54.7918 67.376V67.168C54.7598 66.048 53.7838 63.792 51.3198 63.808C50.2638 63.808 49.9598 64.784 49.8478 65.52C49.7038 66.576 49.6718 67.792 49.7198 68.096C49.7678 68.448 49.7038 69.008 50.0558 69.296C50.2318 69.44 50.4878 69.536 50.5198 69.328C50.5518 68.928 50.6318 68.432 50.8558 68.16C51.0958 67.888 51.4158 67.68 51.7518 67.68C51.8478 67.68 51.9598 67.696 52.0718 67.712C52.5198 67.824 52.9198 68.144 53.1278 68.56C53.3358 68.96 53.3518 69.504 53.1758 69.92C53.0958 70.112 52.9998 70.288 52.9038 70.448C52.9038 70.512 52.9198 70.544 52.9518 70.544C53.3678 70.608 54.0078 70.288 54.2798 69.888C54.5838 69.408 54.7438 68.816 54.7918 68.144C55.1918 68.608 55.0478 69.744 54.9838 70.112C54.9358 70.384 54.8558 70.912 54.9998 71.216C55.1278 71.472 55.3998 71.552 55.5278 71.472V71.44C55.4638 71.12 55.5278 70.784 55.7198 70.512C55.9118 70.24 56.1838 70.08 56.5038 70.032C56.6638 70.016 56.8238 70.032 56.9838 70.08C57.3198 70.208 57.5278 70.496 57.6558 70.848C57.7198 71.024 57.7358 71.184 57.7198 71.36C57.8318 71.424 57.9118 71.312 57.9758 71.088C58.3918 69.568 57.1438 68.416 56.2158 67.824ZM52.0238 68.48C51.3518 68.256 50.9518 68.992 50.9838 69.616C50.9998 69.984 50.7438 70.736 51.2398 70.928C51.2398 70.928 51.9438 71.072 52.5838 69.856C52.8238 69.376 52.6478 68.8 52.1678 68.544C52.1198 68.512 52.0718 68.496 52.0238 68.48ZM66.1038 45.792C66.0878 44.768 66.1038 44.464 65.7838 43.104C65.0638 40.032 62.8718 36.944 60.5838 34.576C61.8798 35.216 62.7758 35.872 63.7838 37.36C63.5918 35.248 61.2878 32.08 59.2238 30.592C59.7518 31.648 59.9278 32.752 59.9598 33.728C59.9758 34.624 59.8158 35.744 59.6558 36.4C59.3038 37.712 58.9358 39.168 57.8318 40.24C56.9838 40.88 56.0718 41.728 55.2558 42.256L53.9118 43.296C53.0478 44.016 52.4238 44.608 52.1198 45.344C52.9518 44.624 54.6478 43.024 56.4078 42.592C56.0398 42.928 55.5118 43.488 54.4078 44.368C54.8398 44.48 55.1918 44.768 55.5118 45.296C56.0558 46.176 56.1998 47.472 56.0078 48.704C56.9358 48.24 58.3278 46.016 58.5518 44.24C58.6638 43.344 58.7758 42.768 58.7758 42.768C58.7758 42.768 58.8718 43.136 58.9518 44.128C59.0958 46.128 58.3438 48.32 57.5118 49.68C57.0798 50.384 56.2958 50.672 55.9598 51.136C55.6078 51.616 55.7198 51.952 55.6238 52.752C55.4638 54.016 54.2958 54.976 54.9358 54.944C55.3678 54.912 56.2798 54.944 56.6638 55.344C55.8638 55.104 53.9278 55.68 52.9518 57.184C52.6798 57.6 52.0558 58.688 52.0558 58.688C52.0558 58.688 51.3198 60.064 49.9118 61.328C48.9518 62.192 49.1278 62.256 49.3358 62.304C49.3678 62.304 49.3998 62.32 49.4318 62.336C50.6478 61.744 51.5438 61.024 52.0238 60.464C52.2958 60.144 52.4718 60 52.4718 60C52.4718 60 52.3918 60.224 52.1678 60.592C51.7198 61.296 51.3678 61.936 50.2158 62.864C53.4958 62.224 55.8958 64.64 56.2318 66.976C56.9358 67.168 57.6078 67.472 57.9918 68.08C58.7758 66.512 58.3438 64.656 58.2478 63.216C58.1678 62.032 58.5038 60.336 59.3678 58.576C59.1438 59.52 59.0158 60.448 58.9838 61.248C59.4958 59.632 61.3678 57.856 62.7118 56.416C64.1678 54.96 65.1598 52.608 65.4798 50.8C65.8958 48.512 65.9598 46.352 64.6638 42.72C65.3358 43.584 65.8478 44.656 66.1038 45.792ZM42.9998 58.352C43.2078 57.04 44.6638 54.304 42.9998 56.08C42.0398 57.104 41.1278 57.392 40.0238 58.144C38.4718 59.184 39.4638 60.384 39.1918 61.168C39.0798 61.504 39.1598 61.328 38.7598 61.856C38.0558 62.768 36.8718 62.976 37.4158 63.312C37.9758 63.648 38.0718 63.312 38.5518 63.216C38.8718 63.152 39.2718 62.896 39.3838 62.544C39.5918 61.968 39.9598 61.04 41.0638 60.704C42.1838 60.384 42.8078 59.648 42.9998 58.352ZM42.2478 69.232C41.9118 69.456 41.8158 69.984 42.1198 70.288C42.7758 70.944 43.0958 70.688 43.0958 70.688C43.2718 70.512 43.1438 70.048 43.1438 69.776C43.1278 69.296 42.6158 68.992 42.2478 69.232ZM46.4398 67.6C45.8958 67.584 45.4478 68 45.4318 68.544C45.4318 68.592 45.4318 68.656 45.4318 68.704C45.6238 70.064 46.3438 70.176 46.3438 70.176C46.8878 70.176 46.8878 69.376 47.0318 69.024C47.2718 68.448 47.1438 67.632 46.4398 67.6ZM46.9358 63.088C46.9358 63.088 45.1278 63.12 44.1998 64.88C44.1998 64.88 44.1038 65.088 44.0078 65.408C43.9598 65.424 43.8958 65.424 43.8478 65.44C41.9918 65.904 41.0958 67.52 41.0638 68.512C41.0638 69.024 41.1118 69.664 41.4158 69.904C41.3838 69.728 41.3838 69.552 41.4318 69.376C41.5118 69.008 41.7518 68.704 42.0878 68.544C42.2318 68.48 42.3918 68.432 42.5358 68.432C42.8558 68.432 43.1598 68.576 43.3678 68.816C43.4798 68.944 43.5598 69.088 43.6078 69.248C43.7518 69.216 43.8158 69.024 43.7518 68.752C43.5598 68.016 43.4798 67.392 43.7998 66.448C43.7358 67.296 43.7998 68.432 44.6638 69.136C44.6638 69.136 44.9358 69.312 45.0638 69.216C44.9838 68.992 44.9358 68.752 44.9038 68.512C44.7918 67.664 45.3838 66.896 46.2318 66.784C46.2958 66.768 46.3598 66.768 46.4238 66.768H46.4718C46.8878 66.784 47.2398 66.976 47.4638 67.312C47.7518 67.744 47.7838 68.4 47.5598 68.976C47.5278 69.04 47.5118 69.152 47.4798 69.264V69.28C47.7998 69.328 48.1358 69.232 48.3918 69.04C48.3918 69.04 49.6398 68.272 49.3998 64.848C49.3678 64.864 49.1278 62.736 46.9358 63.088ZM43.4318 51.904C43.7038 51.696 44.0398 51.6 44.3758 51.648C43.0478 50.592 40.9198 50.656 40.3278 51.168C40.2638 51.136 40.1998 51.12 40.1358 51.088C39.7198 50.96 37.9278 50.672 36.8398 51.6C35.7038 52.592 34.9198 54.16 36.3918 55.296C37.3838 56.064 38.3438 56.576 39.4318 55.648C39.5118 55.584 39.1118 55.28 38.8078 54.832C38.4878 54.48 38.2798 54.048 38.2958 53.632C38.2958 53.232 38.5038 52.864 38.8558 52.64C39.4798 52.224 40.3118 52.304 40.8238 52.848C40.9038 52.912 40.9998 52.992 41.0638 53.088C42.0878 54.32 41.7998 52.928 41.4958 52.272C41.3518 51.968 41.1438 51.696 40.8878 51.472C41.2238 51.52 41.6558 51.792 41.8958 52.128C42.1358 52.48 42.3278 52.928 42.6638 53.248C43.0318 53.6 43.1918 53.52 43.2398 53.28C43.1598 53.152 43.1118 53.024 43.0958 52.896C42.9838 52.56 43.1278 52.16 43.4318 51.904ZM39.2878 53.312C38.6958 53.712 39.0318 54.464 39.5438 54.832C39.8478 55.04 40.2798 55.712 40.7438 55.44C40.7438 55.44 41.2878 54.976 40.7278 53.712C40.5038 53.216 39.9278 53.008 39.4318 53.232C39.3838 53.264 39.3358 53.296 39.2878 53.312ZM44.0558 53.328C44.2958 53.456 44.6478 53.792 44.8718 53.712C44.8718 53.712 45.2558 53.552 44.9838 52.656C44.8558 52.256 44.3438 52.08 43.9918 52.272C43.5918 52.512 43.6398 53.104 44.0558 53.328ZM34.6958 62.256C34.7598 62.256 34.8398 62.256 34.9038 62.272C34.9358 62.192 34.7918 62.064 34.4558 62.048C33.6078 62 32.8558 61.392 32.5038 60.4C32.0718 61.264 32.3438 63.072 33.0158 63.808C33.4478 64.288 34.0718 64.464 34.1518 64.368C33.8158 64.16 33.5918 63.824 33.5438 63.44C33.5118 63.136 33.6078 62.848 33.8158 62.624C34.0558 62.4 34.3758 62.256 34.6958 62.256ZM54.5358 49.248C54.8238 49.168 55.0638 49.072 55.2718 49.008C55.2558 47.216 54.5678 46.096 53.1918 45.184C51.7998 46.384 50.8398 47.2 49.7198 47.808C49.1278 48.128 48.4718 48.384 47.5918 48.608C47.1118 48.736 46.6798 48.816 46.2478 48.896C47.1758 48.624 48.1038 48.016 48.8078 47.344C49.0638 47.088 49.3038 46.816 49.5118 46.528C49.2238 46.816 48.8718 47.04 48.4558 47.168C48.2318 47.248 47.9918 47.296 47.7358 47.328C47.8958 47.232 48.0398 47.136 48.1678 47.04C48.8398 46.544 49.2718 45.808 49.3998 44.992C48.8078 45.968 47.9438 46.528 47.2398 46.544L47.2078 46.56C46.5838 46.992 45.7038 47.232 45.0638 47.248C43.2878 47.312 42.7118 47.392 42.7118 47.392C42.9198 47.664 43.7678 49.2 43.8798 49.856C44.8078 50.224 45.6238 51.2 46.0078 51.728C48.2478 51.584 50.6158 50.96 52.5198 50.416C51.3678 50.24 50.3758 50.72 48.9358 50.528C49.8318 50.432 50.7118 50.24 51.5598 49.968C52.4238 49.664 52.4878 48.848 51.1438 47.808C52.7918 48 53.9438 48.464 54.5358 49.248ZM29.6078 32.032C30.5678 31.536 31.6398 31.344 32.7118 31.472L32.8398 31.696C32.2798 32.096 31.3358 33.408 31.1918 33.728C30.9198 33.84 30.0398 34 29.8318 33.968C29.7038 33.504 29.5278 32.496 29.6078 32.032ZM46.2798 24.384C48.3918 24.912 49.7518 25.424 50.5678 25.92C51.3678 27.072 52.0238 28.256 52.3918 29.456C50.7918 27.344 49.0478 25.616 46.2798 24.384ZM41.3678 24.208L41.2558 24.24L41.7038 24.464C39.0798 24.608 37.1118 25.84 37.1118 25.84C37.9758 25.056 38.8398 24.528 39.6558 24.208C39.6558 24.208 41.6718 23.68 43.6078 23.888C42.6638 23.936 42.1838 24 41.3678 24.208ZM32.1998 37.872C32.1998 37.872 32.0078 37.968 31.7358 38.128C30.9198 38.544 30.3918 39.024 30.0558 39.744L29.9918 39.872C29.9918 39.872 31.0958 46.864 35.9758 44.656C37.1118 44.384 39.1438 44.56 40.3918 43.776C40.2158 44.288 39.9118 44.32 39.5918 44.592C40.3918 44.768 40.6478 45.056 41.2398 44.64C41.9278 44.16 41.7998 44.352 42.5038 44.704C43.2078 45.072 44.4878 45.744 45.5758 45.648C46.1358 45.536 46.5518 45.216 46.8718 44.912C46.4558 44.816 46.0718 44.64 45.7358 44.384C45.1278 43.92 45.2558 43.248 44.8238 42.352L44.4078 41.888C43.4318 42.656 42.6318 42.992 41.3678 43.36C41.8478 42.736 42.2638 42.432 42.8878 42.048C43.2398 41.824 43.7198 41.376 44.1358 40.976L43.7518 39.68C43.5278 39.504 43.3038 39.312 43.0958 39.104C41.6398 38.576 40.2958 38.352 38.8558 38.112L38.2798 38.688C37.7998 38.032 36.8238 37.2 35.7518 36.64C35.3358 36.512 34.8398 36.32 34.3758 36.256C34.3118 35.744 33.9758 34.736 33.6398 34.112C33.4478 34.48 33.0318 35.264 32.8238 36.176C32.0558 36.224 31.2878 36.352 30.5358 36.56C30.3278 36.608 30.1198 36.672 29.9278 36.752C29.8638 36.544 29.4478 35.968 29.0638 35.52C28.9518 35.376 28.8558 35.232 28.7438 35.104L30.2958 35.776C30.9518 35.568 31.5438 35.44 31.9758 35.36C32.1998 35.328 32.4078 35.296 32.6318 35.28C32.9358 34.576 33.7518 33.424 33.7518 33.424C34.4398 33.952 34.9518 34.704 35.3358 35.792C35.7838 35.296 36.4238 34.832 37.0318 34.56C38.1358 34.08 40.1998 33.616 41.0958 33.904C41.3358 35.248 42.4078 36.608 43.0158 37.84C43.3518 38.368 43.6558 39.344 43.6558 39.344L43.3678 35.568L44.7278 40.304C44.7278 40.304 46.6158 43.488 48.0558 43.808C48.4878 43.68 48.8878 43.552 49.1438 43.408C49.7038 43.072 50.4878 42.208 50.9678 41.328C51.0318 41.168 51.1118 40.768 51.1758 40.336C51.2238 40.016 51.2558 39.696 51.2558 39.376C51.5438 40 51.6878 40.576 51.8318 41.456C51.7038 42.208 51.3678 43.136 50.9678 44C51.7358 43.616 52.4398 41.664 52.7758 41.008C53.1438 40.32 53.8798 38.96 54.2318 37.552C54.2318 37.344 54.1998 37.152 54.1518 36.96C53.8158 35.84 53.2878 34.336 52.9198 33.328C53.3038 33.856 53.6078 34.336 53.8958 34.816C54.2958 35.488 54.6158 36.192 54.9678 37.12C54.9838 38.336 54.9518 39.68 54.7118 41.008C54.7438 40.976 56.6318 39.472 58.0078 37.216C58.7918 35.952 59.7038 34.112 59.0798 31.44C58.7758 30.192 56.9198 28.144 55.8798 27.456C55.8318 27.424 55.7678 27.392 55.7198 27.36L55.5118 26.864C55.4638 26.8 54.6638 25.632 53.8478 25.072C53.4478 24.784 52.2798 24.192 51.5598 24.064L50.8878 24.096C50.1038 24.096 49.3358 24.144 48.5518 24.24C46.3438 22.992 44.5038 22.32 42.8078 21.936C42.5678 22.064 42.3758 22.144 42.1838 22.24C42.2958 21.776 42.4718 21.392 42.8238 21.088C42.8238 21.088 45.2718 21.968 46.7438 22.768C47.3038 22.816 49.5278 22.816 50.5518 22.56C50.6958 22.432 50.7598 22.176 50.7758 21.968C50.5198 21.552 49.5918 21.152 48.1518 20.32C47.3838 19.856 46.6318 19.264 46.6318 19.264C46.6318 19.264 46.0718 19.216 45.5118 19.232C45.0958 19.248 42.7118 19.44 42.2638 19.616C42.1678 19.648 41.8478 19.776 41.8158 19.792C41.3038 19.968 40.7918 20.304 40.2158 20.832C39.9278 21.008 39.6238 21.136 39.3038 21.248C38.1678 21.632 36.4718 22.064 35.9758 22.256C35.2078 22.576 33.8638 23.376 33.8638 23.376L32.2638 25.392C31.9278 25.808 31.6398 26.208 31.4638 26.528C30.3758 26.88 28.8878 27.536 28.1838 28.016C28.0078 28.144 27.7678 28.48 27.8798 28.624C28.0078 28.736 28.1518 28.832 28.2958 28.88C28.5838 28.912 28.8078 28.928 28.9838 28.912C29.0478 28.912 29.0958 28.896 29.1438 28.896C29.3038 29.136 29.4958 29.504 29.8958 29.616C29.8958 29.616 30.2478 29.632 30.6478 29.616C30.7918 29.616 30.9518 29.6 31.0958 29.584C31.4478 29.408 31.9758 28.848 32.1198 28.656C32.3278 28.4 32.5998 27.968 32.9838 27.408C33.4158 26.864 34.2958 26.144 35.1118 25.536C35.4478 25.344 36.3918 24.832 37.6238 24.384C36.9518 24.688 34.9518 26.4 34.3438 27.2C33.9918 27.696 33.9438 28.144 33.8798 28.496C33.8958 28.608 34.0718 28.912 34.4238 29.216C34.9838 29.2 36.4078 28.752 36.9518 28.656C37.9918 28.288 38.7438 27.312 39.2398 26.64C39.8958 26.624 42.2158 26.576 43.3038 26.32C43.6878 26.496 44.6158 27.184 45.3838 28.048C44.9038 27.728 44.1838 27.424 43.5278 27.264C43.2718 27.296 42.4398 27.36 42.1198 27.456C42.1838 28.336 41.8318 28.864 41.3838 29.376C41.8478 29.328 42.6638 29.408 43.6238 29.376C45.1758 29.712 46.3918 31.136 46.3918 31.136C45.2078 30.08 43.2398 30 43.2398 30C41.8478 29.872 39.6398 30.048 38.1038 30.256C38.4558 30.608 39.0318 31.6 39.4798 32.448C38.4398 31.328 37.7518 31.024 36.6158 30.528C35.4958 30.128 34.1358 30.096 33.5438 30.112C33.1278 30.128 32.7118 30.176 32.2958 30.24C29.6238 31.008 28.0078 32.64 27.5918 34.096C27.6238 34.464 27.8798 34.816 28.1678 35.072C28.1838 35.648 28.4078 36.864 28.6958 37.536C28.6958 37.536 28.6318 37.6 28.5358 37.696C28.4238 37.792 28.3278 37.888 28.2638 37.984C28.1518 38.144 28.1518 38.464 28.2158 38.688C28.2478 38.784 28.2958 38.88 28.3598 38.96C28.3598 38.96 28.6478 39.312 29.2718 39.104C29.2718 39.104 30.1038 38.64 30.9518 38.304C31.3038 38.08 31.7518 37.952 32.1998 37.872ZM28.1518 29.712C28.0238 30.304 28.3278 30.96 28.6798 31.232C28.9838 31.008 29.4638 30.736 29.8318 30.56C29.7198 30.496 29.6078 30.4 29.5118 30.304C29.4638 30.544 29.3198 30.736 29.1278 30.768C28.8558 30.816 28.5838 30.528 28.5198 30.144C28.5038 30.016 28.5038 29.872 28.5518 29.744C28.4238 29.744 28.2798 29.744 28.1518 29.712ZM39.3838 29.344C39.0798 29.36 38.8078 29.152 38.6638 28.848C38.3118 29.152 37.9438 29.44 37.6558 29.6C38.1358 29.568 39.1918 29.552 39.7038 29.504C40.7438 29.376 41.0318 28.8 41.0478 28.56C41.0638 28.336 41.0798 27.952 40.7918 27.536C40.4078 27.584 40.2638 27.584 39.8318 27.616C39.8158 27.632 39.8158 27.648 39.7998 27.648C39.9438 27.808 40.0398 28.048 40.0558 28.304C40.1198 28.864 39.7998 29.312 39.3838 29.344ZM37.3518 58.992C37.9918 57.152 37.6238 56.816 36.1838 55.776C34.9038 54.848 33.6078 55.584 32.8718 57.008C32.3118 58.08 32.4398 59.136 32.9198 60.08C33.1758 60.592 33.7838 61.152 34.5038 61.264C35.1918 61.376 36.2158 61.376 35.3038 60.784C35.1118 60.704 34.9198 60.608 34.7438 60.496C34.0238 60.048 33.8158 59.104 34.2638 58.384C34.3118 58.304 34.3598 58.24 34.4238 58.176C34.6478 57.904 34.9838 57.76 35.3358 57.76C35.9118 57.76 36.4078 58.16 36.7118 58.592C36.7758 58.656 36.8238 58.736 36.8718 58.816C37.2078 59.312 37.3518 58.992 37.3518 58.992ZM32.5998 22.544C32.0398 23.136 31.8318 23.456 31.6238 23.984C32.2798 23.76 32.8878 23.456 33.4638 23.072C33.1918 22.864 32.8878 22.624 32.5998 22.544ZM35.1278 64.208C36.0078 63.936 35.9278 63.52 35.9278 63.52C35.8478 63.28 35.3838 63.184 35.1438 63.072C34.7118 62.864 34.1998 63.168 34.2478 63.616C34.2958 64.016 34.7278 64.336 35.1278 64.208ZM36.9038 60.416C37.2558 60 36.6318 59.488 36.4718 59.152C36.1838 58.608 35.4638 58.16 34.9998 58.688C34.6478 59.088 34.6798 59.712 35.0798 60.064C35.1118 60.096 35.1598 60.128 35.2078 60.16C36.3598 60.896 36.9038 60.416 36.9038 60.416ZM39.4958 48.24C39.7198 48.256 40.9518 48.384 41.6878 48.576C41.3998 48.032 40.9838 47.312 39.0958 46.832C38.6798 46.752 38.4238 46.816 38.0558 46.72C36.6638 46.368 35.7518 46.592 35.7518 46.592C34.0878 46.928 32.8078 46.352 31.8318 46C31.9118 46.368 31.9918 46.832 32.1678 47.216C33.1758 48.336 33.7998 49.328 34.1358 49.552C34.7918 50.016 35.2078 50.864 35.2718 51.152C34.8238 50.672 34.4558 50.48 33.8478 50.208C33.8798 51.008 33.9278 51.44 34.0718 51.984C34.1678 52.48 33.7518 53.456 33.6718 54.224C34.0878 53.872 34.4238 53.808 34.5038 53.392C34.7278 52.016 35.3678 51.088 37.0958 50.432C38.1998 50.016 39.4318 50.016 40.0718 50.224C40.3118 50.368 41.1918 49.936 42.0398 50.128C42.0398 50.128 41.4958 49.376 40.0718 48.928C39.2558 48.672 37.7198 48.448 36.6958 48.48C37.4478 48.224 38.7278 48.176 39.4958 48.24ZM34.0558 22.64C34.4718 22.368 36.0238 21.424 37.0638 20.992C36.6958 20.784 35.3998 20.512 34.5998 20.464C34.0878 20.608 33.1918 21.024 32.5838 21.424C32.9998 21.648 33.8638 22.336 34.0558 22.64Z" fill="white"/>
<path d="M36.664 2.464C36.12 2.304 35.624 2.336 35.624 1.968C35.624 1.696 35.88 1.568 36.248 1.568C36.664 1.568 37.096 1.728 37.448 1.936L37.688 0.464C37.16 0.16 36.6 0 36.008 0C34.92 0 33.672 0.544001 33.672 2.048C33.672 3.136 34.312 3.712 34.968 3.936C35.544 4.128 36.152 4.064 36.152 4.448C36.152 4.704 35.896 4.88 35.512 4.88C35.016 4.88 34.488 4.64 34.04 4.336L33.624 5.84C34.184 6.176 34.872 6.464 35.656 6.464C36.888 6.464 38.104 5.76 38.104 4.32C38.104 3.168 37.32 2.672 36.664 2.464ZM41.48 15.008C41.32 15.04 41.16 15.056 41 15.04V10.096C41.144 10.08 41.272 10.064 41.432 10.08C42.184 10.16 43.032 10.752 43.032 12.544C43.016 14.208 42.232 14.864 41.48 15.008ZM40.872 7.648C39.768 7.632 38.824 7.664 38.024 7.696V17.408C38.664 17.456 39.192 17.472 39.832 17.472C44.056 17.472 45.96 15.792 45.96 12.576C45.976 9.28 44.12 7.696 40.872 7.648ZM34.2 7.696H31.24V17.408H37.304V14.976H34.2V7.696ZM27.416 7.696H24.456V17.408H30.52V14.976H27.416V7.696ZM61.384 13.936H62.872V14.928C62.616 15.088 62.264 15.264 61.784 15.264C60.616 15.264 59.624 14.272 59.624 12.608C59.624 10.992 60.6 9.84 61.864 9.824C62.536 9.808 63.08 10.112 63.464 10.512L64.344 8.192C63.672 7.808 62.728 7.44 61.656 7.44C58.952 7.44 56.68 9.632 56.68 12.64C56.68 15.632 58.84 17.696 61.688 17.696C63.304 17.696 64.408 17.056 65.24 16.464V11.744L61.416 11.728V13.936H61.384ZM70.76 11.392C69.912 11.136 69.144 11.2 69.144 10.608C69.144 10.176 69.544 9.984 70.104 9.984C70.744 9.984 71.416 10.24 71.96 10.56L72.328 8.272C71.544 7.808 70.664 7.568 69.768 7.568C68.072 7.568 66.152 8.416 66.152 10.736C66.152 12.416 67.144 13.312 68.168 13.664C69.064 13.968 70.008 13.872 70.008 14.448C70.008 14.832 69.624 15.12 69.016 15.136C68.248 15.152 67.432 14.768 66.744 14.288L66.088 16.624C66.952 17.136 68.024 17.584 69.24 17.584C71.144 17.584 73.032 16.496 73.032 14.272C72.984 12.464 71.784 11.696 70.76 11.392ZM59.608 6.368V0.08H57.704V3.36L55.96 0.08H54.2V6.352H56.104V3.184L57.864 6.368C57.848 6.368 59.608 6.368 59.608 6.368ZM26.808 6.368L28.488 0.0959998H26.68L25.816 3.952L24.808 0.0959998H23.4L22.408 3.936L21.528 0.0959998H19.672L21.48 6.368H23.16L24.104 2.544L25.064 6.368H26.808ZM51.32 15.312C50.296 15.312 49.608 14.224 49.608 12.64C49.608 11.008 50.296 9.968 51.336 9.968C52.376 9.968 53.048 11.04 53.048 12.64C53.032 14.208 52.344 15.312 51.32 15.312ZM51.32 7.504C48.76 7.504 46.648 9.504 46.648 12.656C46.648 15.792 48.76 17.792 51.352 17.792C54.008 17.792 55.992 15.68 55.992 12.624C55.992 9.44 53.816 7.504 51.32 7.504ZM48.184 4.8H45.768V3.92H47.48V2.528H45.768V1.664H48.04V0.0959998H43.864V6.368H48.2L48.184 4.8ZM39.896 6.368H41.8V1.664H43.448V0.08H38.28V1.664H39.912L39.896 6.368ZM33.128 4.8H30.712V3.92H32.424V2.528H30.712V1.664H32.984V0.0959998H28.808V6.368H33.144L33.128 4.8ZM50.712 1.616C50.824 1.6 50.936 1.616 51.032 1.632C51.288 1.68 51.576 1.888 51.576 2.432C51.576 2.864 51.368 3.152 51.064 3.248C50.952 3.28 50.824 3.28 50.712 3.28V1.616ZM50.712 4.832C50.888 4.864 51.048 4.848 51.176 4.848L51.624 6.368H53.672L52.856 4.112C53.256 3.712 53.496 3.152 53.496 2.432C53.496 1.008 52.52 0.0960005 50.792 0.0480005C50.264 0.0320005 49.368 0.048 48.808 0.08V6.352H50.712C50.712 6.368 50.712 4.832 50.712 4.832ZM20.456 13.744C20.456 14.56 19.976 15.04 19.352 15.04C18.712 15.04 18.248 14.576 18.248 13.744V7.68H15.288V13.648C15.288 16.56 17.496 17.68 19.416 17.68C21.544 17.68 23.432 16.304 23.432 13.552V7.664H20.472C20.456 7.696 20.456 13.744 20.456 13.744ZM10.456 15.12C10.232 15.136 10.024 15.12 9.896 15.104V13.376C10.024 13.344 10.2 13.328 10.392 13.344C10.92 13.376 11.32 13.68 11.32 14.24C11.336 14.864 10.936 15.072 10.456 15.12ZM9.912 10.032C10.056 10 10.248 9.984 10.424 10.016C10.76 10.064 11.224 10.176 11.224 10.752C11.224 11.216 10.856 11.424 10.392 11.504C10.264 11.52 10.12 11.536 9.912 11.488V10.032ZM12.76 12.192C13.608 11.824 14.056 11.088 14.056 10.176C14.056 9.072 13.384 7.616 9.976 7.616C9.208 7.616 8.264 7.632 7 7.68V17.392C7.96 17.456 8.728 17.488 9.864 17.488C12.76 17.488 14.504 16.512 14.504 14.544C14.488 13.216 13.672 12.448 12.76 12.192Z" fill="#0039A6"/>
</svg>
