<svg width="80" height="80" viewBox="0 0 80 80" fill="none" xmlns="http://www.w3.org/2000/svg">
<g clip-path="url(#clip0_401_1680)">
<path d="M40.0017 7.83148e-07C17.9088 7.83148e-07 0 17.9088 0 40.0017C0 62.0945 17.9088 80 40.0017 80C62.0945 80 80.0034 62.0945 80.0034 40.0017C80.0034 17.9088 62.0945 7.83148e-07 40.0017 7.83148e-07Z" fill="#006EB5"/>
<path d="M70.2516 50.1636C65.8343 36.4422 51.9585 39.6904 48.4312 41.2964C44.9106 42.9024 38.9432 43.1815 38.9432 43.1815C41.0812 44.5083 45.3441 43.4901 45.3441 43.4901C39.6559 46.9189 35.6064 45.5592 35.6064 45.5592C36.0104 46.6134 35.3634 49.2999 32.7952 49.2999C30.2302 49.2999 29.8328 47.2605 29.8328 47.2605C28.3746 47.8812 26.8015 48.6824 26.368 46.8892C25.9344 45.096 24.2759 45.533 24.2759 45.533C21.4974 46.1997 21.4055 48.1504 21.4088 48.4952C21.4416 48.5971 21.7273 49.2178 23.4187 49.4937C23.8227 49.5594 24.3416 49.6447 24.9426 49.7366C24.9426 49.7366 35.4586 51.4149 37.8627 52.9782C33.1039 53.9076 27.3861 53.6056 27.3861 53.6056L26.9098 53.0044L26.6044 52.732L26.23 53.1163L25.6782 53.6811L25.1856 53.067L25.0345 52.8829L24.6995 53.2869L24.1609 53.9241L23.6224 53.2836L23.3005 52.8928L22.417 54.0686L21.5861 53.172C21.435 53.3231 21.4252 53.5726 21.4121 53.6186C21.5205 55.1261 24.266 56.0227 28.7917 56.0227C29.974 56.0227 30.8246 55.9571 30.8345 55.9538H30.864H30.8903C32.9528 55.9538 34.227 56.223 35.4521 56.4858C36.5391 56.7157 37.5605 56.9324 39.0943 56.9324C39.5048 56.9324 39.9482 56.9127 40.4112 56.8832C43.2291 56.6861 44.4442 55.5695 46.1257 54.0259C45.8761 53.8748 45.7021 53.6089 45.7021 53.2969C45.7021 52.8174 46.0929 52.4331 46.5658 52.4331C46.9172 52.4331 47.2161 52.6433 47.3507 52.9389C47.5379 52.7747 47.7383 52.6137 47.9386 52.4528C47.6825 52.3017 47.4953 52.0323 47.4953 51.7105C47.4953 51.2343 47.8828 50.8435 48.359 50.8435C48.7794 50.8435 49.1144 51.1489 49.1965 51.5495C49.4428 51.3853 49.7088 51.2245 49.9814 51.0668C49.7778 50.9092 49.6399 50.6727 49.6399 50.3935C49.6399 49.9173 50.0241 49.5266 50.5036 49.5266C50.9601 49.5266 51.3214 49.8812 51.3542 50.3312C52.5103 49.7959 53.6367 49.5003 54.7205 49.4478C54.3461 49.2704 54.0768 48.8893 54.0768 48.4459C54.0768 47.8318 54.576 47.3326 55.1902 47.3326C55.8043 47.3326 56.3002 47.8318 56.3002 48.4459C56.3002 48.909 56.0211 49.2999 55.6237 49.4706C57.2822 49.6053 58.4875 50.2852 59.2396 50.8961C59.3611 50.5512 59.6862 50.3015 60.0705 50.3015C60.5697 50.3015 60.9704 50.699 60.9704 51.1949C60.9704 51.612 60.6781 51.9503 60.2872 52.0489C60.9014 53.1688 61.1871 54.2887 61.1839 55.3889C61.6765 55.4907 62.0542 55.9078 62.0542 56.4299C62.0542 57.0277 61.5681 57.5105 60.9704 57.5105C60.9145 57.5105 60.8653 57.4875 60.8127 57.4809C60.8029 57.5105 60.7996 57.54 60.7865 57.5695C60.4909 58.2953 60.0574 58.9424 59.568 59.55C59.9161 59.7339 60.1592 60.082 60.1592 60.4991C60.1592 61.0968 59.6698 61.5829 59.0754 61.5829C58.6682 61.5829 58.3365 61.3529 58.1493 61.0245C57.7256 61.3891 57.2888 61.7241 56.8421 62.0263C57.4628 62.1412 57.9423 62.6601 57.9423 63.3104C57.9423 64.0427 57.3446 64.6372 56.6122 64.6372C55.8766 64.6372 55.2821 64.0427 55.2821 63.3104C55.2821 63.179 55.3215 63.0608 55.3577 62.9425C54.888 63.202 54.4414 63.4187 54.0079 63.6191C54.622 63.7997 55.0818 64.3481 55.0818 65.0181C55.0818 65.7604 54.5301 66.3482 53.8174 66.4599C53.7944 66.4763 53.7648 66.4895 53.7451 66.5092C53.9816 66.8048 54.1458 67.1661 54.1458 67.5766C54.1458 68.3188 53.6663 68.9362 53.0095 69.1792C53.3937 69.5043 53.6564 69.9707 53.6564 70.5093C53.6564 71.0676 53.3806 71.5438 52.9733 71.869L53.0226 72.2664C53.594 72.4634 54.0013 72.9856 54.0013 73.6227C54.0013 73.7311 53.9652 73.8264 53.9422 73.9282C54.5136 73.7016 55.0884 73.4684 55.627 73.2286C55.1573 72.9199 54.8322 72.4142 54.8322 71.8099C54.8322 70.8542 55.604 70.0824 56.5597 70.0824C57.5154 70.0824 58.2905 70.8542 58.2905 71.8099C58.2905 71.8559 58.2707 71.8953 58.2642 71.9412C59.256 71.4059 60.1658 70.8444 61.0295 70.2631C60.9573 70.2729 60.8981 70.3057 60.8226 70.3057C59.9359 70.3057 59.2166 69.5865 59.2166 68.6997C59.2166 67.813 59.9359 67.0905 60.8226 67.0905C61.7159 67.0905 62.4318 67.813 62.4318 68.6997C62.4318 68.9493 62.3662 69.1792 62.2611 69.3927C69.8016 63.7143 71.6047 56.3708 70.2516 50.1636ZM58.4383 50.1768C57.8175 50.1768 57.3249 49.681 57.3249 49.0635C57.3249 48.4494 57.8175 47.9534 58.4383 47.9534C59.0524 47.9534 59.5483 48.4494 59.5483 49.0635C59.5483 49.681 59.0524 50.1768 58.4383 50.1768Z" fill="#FFD327"/>
<path d="M20.0239 23.1305L20.1159 23.0188C20.3326 22.7561 20.7859 22.2307 21.423 21.5968C21.6102 21.4096 21.8072 21.2257 21.9977 21.0418C23.9321 19.2453 27.0522 16.9596 30.5728 16.8052C36.4154 16.5458 35.8243 21.8497 28.5563 21.6756C21.2884 21.4983 19.9648 23.2061 19.9648 23.2061C19.9648 23.2061 19.9845 23.1797 20.0239 23.1305Z" fill="white"/>
<path d="M20.709 48.5784C20.709 48.5784 20.7944 49.7739 23.3068 50.1844C25.8192 50.5982 28.9852 51.5539 30.0132 52.1122C29.1691 52.1319 27.4876 52.2469 27.4876 52.2469L26.5713 51.6064L25.7273 52.6277L25.0507 51.7838L24.1607 52.8314L23.2148 51.7016L22.3675 53.0581L21.7501 52.214C20.6762 52.7493 20.709 53.5933 20.709 53.5933C20.8338 57.4588 30.8901 56.6542 30.8901 56.6542C35.2154 56.6542 35.9773 57.8923 40.4603 57.5836C45.738 57.2191 46.0532 53.6886 51.4492 51.0514C56.8484 48.4142 59.3806 52.1975 59.4561 52.3289C62.274 57.5146 53.0913 62.5855 50.1717 64.0339C47.0451 65.3574 43.6065 66.093 39.9939 66.093C27.1099 66.093 16.4067 56.7626 14.2621 44.4928C13.9304 35.6583 21.0834 33.7337 26.9457 33.4086C29.5534 33.2641 31.9049 33.4316 33.2383 33.4579C38.0989 33.54 46.8349 32.3052 48.812 23.4838C49.7217 19.4212 48.4474 16.5999 46.8086 14.7411C57.2524 17.5556 65.1115 26.6825 66.0278 37.7798C59.2032 33.3232 50.5296 35.8389 48.2766 36.8373C45.022 38.2791 40.6146 38.5254 36.2893 38.8571C31.9574 39.1855 30.3514 40.9557 29.179 41.8819C28.0065 42.808 27.6945 43.9871 24.1114 44.8476C20.5251 45.7146 20.709 48.5784 20.709 48.5784Z" fill="white"/>
<path d="M21.4229 21.5989L22.0009 21.0438V21.0406L21.4229 21.5989Z" fill="#006EB5"/>
<path d="M5.16064 27.9195L6.41193 25.0393C7.08848 23.4825 8.27408 22.7206 9.93917 23.4398C11.647 24.1821 11.9984 25.4301 11.2857 27.0722L10.8259 28.1396L13.2267 29.1774L12.4056 31.0625L5.16064 27.9195ZM9.30532 27.4794L9.44325 27.1641C9.73883 26.481 10.0278 25.8078 9.14439 25.4268C8.23466 25.0294 7.95222 25.6501 7.63365 26.3792L7.499 26.6945L9.30532 27.4794Z" fill="white"/>
<path d="M14.7312 23.3271L15.5194 24.5751L14.2385 26.3354L9.64062 19.2284L10.9576 17.4188L19.0959 19.6652L17.8052 21.4354L16.3962 21.0413L14.7312 23.3271ZM12.2746 19.7605L12.2614 19.7769L13.7952 21.9445L14.7968 20.5651L12.2746 19.7605Z" fill="white"/>
<path d="M24.8003 15.1715L22.8101 16.7742L19.3913 15.6214L19.3781 15.6313L21.283 18.0025L19.6803 19.2866L14.731 13.132L17.1251 11.2075C18.337 10.2288 19.7262 10.0678 20.787 11.3848C21.4669 12.2321 21.5851 13.3455 20.8363 14.2092L24.8003 15.1715ZM18.5505 14.6066L18.7049 14.4785C19.227 14.0582 19.7361 13.49 19.1975 12.82C18.6589 12.15 17.9922 12.5244 17.47 12.9448L17.3156 13.0696L18.5505 14.6066Z" fill="white"/>
<path d="M31.3139 12.2051L28.9919 13.2691L25.9672 11.3216L25.9475 11.3282L27.2152 14.0869L25.3464 14.9441L22.0557 7.76809L24.844 6.48725C26.2627 5.83698 27.6454 6.01761 28.3515 7.55134C28.8014 8.53988 28.6438 9.64995 27.7111 10.3002L31.3139 12.2051ZM25.3957 10.1262L25.5763 10.0441C26.1872 9.76489 26.8178 9.33466 26.4631 8.5563C26.1051 7.77795 25.3661 7.975 24.7586 8.25744L24.5714 8.33955L25.3957 10.1262Z" fill="white"/>
<path d="M34.0913 10.2941L33.7564 11.7326L31.5986 12.0544L33.4378 3.79466L35.6513 3.45967L39.7632 10.8327L37.5989 11.1546L36.8895 9.87373L34.0913 10.2941ZM34.9058 6.04106L34.8828 6.04434L34.4165 8.65529L36.1079 8.4024L34.9058 6.04106Z" fill="white"/>
<path d="M43.1907 3.18274L45.1777 3.55057L45.9823 7.99739L48.4225 4.15487L50.4324 4.52927L50.1631 12.5132L48.1433 12.1388L48.4093 7.56388L48.3864 7.56059L45.6867 11.6823L44.892 11.5312L43.9362 6.73297L43.9165 6.72969L42.4386 11.078L40.4287 10.7036L43.1907 3.18274Z" fill="white"/>
<path d="M53.581 12.9325L52.4315 13.8619L50.5332 12.7913L57.0556 7.40189L59.013 8.5021L57.7256 16.844L55.8208 15.7701L56.0474 14.3217L53.581 12.9325ZM56.8356 10.0818L56.8192 10.0687L54.8454 11.8421L56.3331 12.6796L56.8356 10.0818Z" fill="white"/>
<path d="M59.9753 19.1367L58.4448 17.7705L62.5501 13.1759L61.2824 12.0461L62.4417 10.7488L66.5043 14.3779L65.3482 15.6752L64.0772 14.5454L59.9753 19.1367Z" fill="white"/>
<path d="M63.6086 23.3679L62.3672 21.7324L67.2771 18.0114L66.2491 16.655L67.6383 15.6073L70.9258 19.9458L69.5432 20.9934L68.5185 19.6436L63.6086 23.3679Z" fill="white"/>
<path d="M66.8642 26.0497L65.3863 26.1318L64.4766 24.1547L72.917 23.6095L73.8563 25.6425L67.9283 31.646L67.012 29.659L68.0465 28.618L66.8642 26.0497ZM71.1731 25.649L71.1632 25.6293L68.526 25.9085L69.242 27.4586L71.1731 25.649Z" fill="white"/>
<path d="M3.68799 34.8913V36.0243H4.42694V40.0508H5.77346V34.8913H3.68799Z" fill="#FFD327"/>
<path d="M7.72364 40.0522L9.19825 38.3116L9.18512 38.2985C8.94865 38.4036 8.7319 38.4561 8.45931 38.4561C7.4412 38.4561 6.80078 37.5858 6.80078 36.6334C6.80078 35.3657 7.84188 34.6826 9.01762 34.6826C9.52011 34.6826 10.0948 34.8074 10.4922 35.1259C10.9093 35.4609 11.1852 36.0094 11.1852 36.5513C11.1852 37.3001 10.8009 38.0193 10.3543 38.6072L9.2508 40.0522H7.72364ZM8.19985 36.594C8.19985 37.0669 8.55126 37.4413 9.02748 37.4413C9.49712 37.4413 9.88137 37.0669 9.88137 36.594C9.88137 36.1178 9.49712 35.7434 9.02748 35.7434C8.55126 35.7434 8.19985 36.1178 8.19985 36.594Z" fill="#FFD327"/>
<path d="M26.7275 45.3652C28.212 43.9234 28.3467 43.6673 28.9378 43.0662C29.1611 42.8396 29.368 42.6229 29.6111 42.4324C29.7556 42.3207 29.8968 42.1992 30.0544 42.0711C30.465 41.7296 30.9313 41.342 31.5258 40.9709C31.5258 40.9709 30.8788 42.2813 30.9379 43.1483C30.9379 43.1483 34.3699 40.8625 37.3979 40.8034C40.426 40.7377 42.9581 40.9249 48.0322 39.2566C53.0997 37.5849 69.974 33.8179 72.3846 52.1438C72.3846 52.1438 69.4157 38.8822 57.4875 38.6687C50.5643 38.5472 47.845 40.7082 43.5197 41.4504C39.1944 42.1959 37.3093 42.0383 36.3207 42.347C36.3207 42.347 36.7805 42.347 38.0811 44.1402C38.0811 44.1402 35.296 43.1483 33.0398 44.508C30.7868 45.8677 31.0627 46.6132 28.4386 46.6723C28.4386 46.6723 28.7145 45.6214 28.9608 44.7576L26.7275 45.3652Z" fill="#90C84B"/>
<path d="M60.2264 65.8028C60.2264 66.6238 59.5663 67.2839 58.7452 67.2839C57.9242 67.2839 57.2607 66.6238 57.2607 65.8028C57.2607 64.985 57.9242 64.3216 58.7452 64.3216C59.5663 64.3216 60.2264 64.985 60.2264 65.8028Z" fill="#006EB5"/>
<path d="M62.4544 62.7954C62.4544 63.6165 61.7877 64.2766 60.9699 64.2766C60.1489 64.2766 59.4888 63.6165 59.4888 62.7954C59.4888 61.9744 60.1489 61.311 60.9699 61.311C61.7877 61.311 62.4544 61.9744 62.4544 62.7954Z" fill="#006EB5"/>
<path d="M63.7756 59.0042C63.7756 59.8219 63.1089 60.4854 62.2878 60.4854C61.4701 60.4854 60.8066 59.8219 60.8066 59.0042C60.8066 58.1831 61.4701 57.523 62.2878 57.523C63.1089 57.523 63.7756 58.1831 63.7756 59.0042Z" fill="#006EB5"/>
<path d="M64.5861 54.5964C64.5861 55.3616 63.9621 55.9856 63.1936 55.9856C62.4283 55.9856 61.8076 55.3616 61.8076 54.5964C61.8076 53.8279 62.4283 53.2039 63.1936 53.2039C63.9621 53.2039 64.5861 53.8279 64.5861 54.5964Z" fill="#006EB5"/>
<path d="M64.3081 51.2862C64.3081 52.058 63.6874 52.6787 62.9189 52.6787C62.1471 52.6787 61.5264 52.058 61.5264 51.2862C61.5264 50.521 62.1471 49.897 62.9189 49.897C63.6874 49.897 64.3081 50.521 64.3081 51.2862Z" fill="#006EB5"/>
<path d="M62.8587 47.8887C62.8587 48.6573 62.2315 49.2812 61.4662 49.2812C60.6977 49.2812 60.0737 48.6573 60.0737 47.8887C60.0737 47.1202 60.6977 46.4995 61.4662 46.4995C62.2315 46.4995 62.8587 47.1202 62.8587 47.8887Z" fill="#006EB5"/>
<path d="M59.7638 46.0671C59.7638 46.8323 59.1431 47.4563 58.3713 47.4563C57.6061 47.4563 56.9854 46.8323 56.9854 46.0671C56.9854 45.2986 57.6061 44.6746 58.3713 44.6746C59.1431 44.6746 59.7638 45.2986 59.7638 46.0671Z" fill="#006EB5"/>
<path d="M56.0547 45.5103C56.0547 46.2755 55.434 46.9028 54.6655 46.9028C53.8969 46.9028 53.2729 46.2755 53.2729 45.5103C53.2729 44.7418 53.8969 44.1178 54.6655 44.1178C55.434 44.1178 56.0547 44.7418 56.0547 45.5103Z" fill="#006EB5"/>
<path d="M52.0663 46.1877C52.0663 46.8051 51.5704 47.301 50.9563 47.301C50.3421 47.301 49.8462 46.8051 49.8462 46.1877C49.8462 45.5735 50.3421 45.0743 50.9563 45.0743C51.5704 45.0743 52.0663 45.5735 52.0663 46.1877Z" fill="#006EB5"/>
<path d="M47.9898 47.0747C47.9898 47.6231 47.5464 48.0632 47.0012 48.0632C46.4528 48.0632 46.0127 47.6231 46.0127 47.0747C46.0127 46.5295 46.4528 46.0861 47.0012 46.0861C47.5464 46.0861 47.9898 46.5295 47.9898 47.0747Z" fill="#006EB5"/>
<path d="M50.4009 48.5996C50.4009 49.1481 49.9608 49.5881 49.4124 49.5881C48.8639 49.5881 48.4238 49.1481 48.4238 48.5996C48.4238 48.0544 48.8639 47.611 49.4124 47.611C49.9608 47.611 50.4009 48.0544 50.4009 48.5996Z" fill="#006EB5"/>
<path d="M45.9698 45.347C45.9698 45.8922 45.5264 46.3323 44.9812 46.3323C44.4328 46.3323 43.9927 45.8922 43.9927 45.347C43.9927 44.7985 44.4328 44.3552 44.9812 44.3552C45.5264 44.3552 45.9698 44.7985 45.9698 45.347Z" fill="#006EB5"/>
<path d="M43.4342 46.2907C43.4342 46.6191 43.1715 46.8884 42.8365 46.8884C42.5081 46.8884 42.2388 46.6191 42.2388 46.2907C42.2388 45.9623 42.5081 45.6963 42.8365 45.6963C43.1715 45.6963 43.4342 45.9623 43.4342 46.2907Z" fill="#006EB5"/>
<path d="M45.6237 47.7551C45.6237 48.2314 45.2329 48.6189 44.7567 48.6189C44.2772 48.6189 43.8896 48.2314 43.8896 47.7551C43.8896 47.2757 44.2772 46.8914 44.7567 46.8914C45.2329 46.8914 45.6237 47.2757 45.6237 47.7551Z" fill="#006EB5"/>
<path d="M47.9276 49.7129C47.9276 50.1924 47.5433 50.5767 47.0638 50.5767C46.5843 50.5767 46.1968 50.1924 46.1968 49.7129C46.1968 49.2334 46.5843 48.8459 47.0638 48.8459C47.5433 48.8459 47.9276 49.2334 47.9276 49.7129Z" fill="#006EB5"/>
<path d="M46.3421 51.4829C46.3421 51.9624 45.9546 52.3467 45.4784 52.3467C44.9956 52.3467 44.6113 51.9624 44.6113 51.4829C44.6113 51.0067 44.9956 50.6192 45.4784 50.6192C45.9546 50.6192 46.3421 51.0067 46.3421 51.4829Z" fill="#006EB5"/>
<path d="M44.7147 49.8765C44.7147 50.356 44.3271 50.7402 43.8509 50.7402C43.3714 50.7402 42.9839 50.356 42.9839 49.8765C42.9839 49.397 43.3714 49.0127 43.8509 49.0127C44.3271 49.0127 44.7147 49.397 44.7147 49.8765Z" fill="#006EB5"/>
<path d="M43.2532 48.2697C43.2532 48.7492 42.8657 49.1367 42.3862 49.1367C41.91 49.1367 41.5225 48.7492 41.5225 48.2697C41.5225 47.7902 41.91 47.4059 42.3862 47.4059C42.8657 47.4059 43.2532 47.7902 43.2532 48.2697Z" fill="#006EB5"/>
<path d="M42.3272 50.1455C42.3272 50.625 41.9364 51.0093 41.4602 51.0093C40.9807 51.0093 40.5898 50.625 40.5898 50.1455C40.5898 49.666 40.9807 49.2818 41.4602 49.2818C41.9364 49.2818 42.3272 49.666 42.3272 50.1455Z" fill="#006EB5"/>
<path d="M44.1566 52C44.1566 52.4795 43.7723 52.8638 43.2928 52.8638C42.8133 52.8638 42.4258 52.4795 42.4258 52C42.4258 51.5205 42.8133 51.133 43.2928 51.133C43.7723 51.133 44.1566 51.5205 44.1566 52Z" fill="#006EB5"/>
<path d="M45.1896 54.3484C45.1896 54.8279 44.8021 55.2122 44.3193 55.2122C43.8431 55.2122 43.4556 54.8279 43.4556 54.3484C43.4556 53.8689 43.8431 53.4814 44.3193 53.4814C44.8021 53.4814 45.1896 53.8689 45.1896 54.3484Z" fill="#006EB5"/>
<path d="M42.3449 53.7733C42.3449 54.2035 41.9935 54.5549 41.56 54.5549C41.1297 54.5549 40.7783 54.2035 40.7783 53.7733C40.7783 53.3398 41.1297 52.9851 41.56 52.9851C41.9935 52.9851 42.3449 53.3398 42.3449 53.7733Z" fill="#006EB5"/>
<path d="M53.3678 48.6086C53.3678 49.226 52.8686 49.7219 52.2545 49.7219C51.637 49.7219 51.1411 49.226 51.1411 48.6086C51.1411 47.9944 51.637 47.4985 52.2545 47.4985C52.8686 47.4985 53.3678 47.9944 53.3678 48.6086Z" fill="#006EB5"/>
<path d="M59.5476 49.0624C59.5476 49.6799 59.0517 50.1758 58.4376 50.1758C57.8201 50.1758 57.3242 49.6799 57.3242 49.0624C57.3242 48.4483 57.8201 47.9524 58.4376 47.9524C59.0517 47.9524 59.5476 48.4483 59.5476 49.0624Z" fill="#006EB5"/>
<path d="M58.2918 71.8085C58.2918 72.7642 57.5167 73.5393 56.561 73.5393C55.602 73.5393 54.8335 72.7642 54.8335 71.8085C54.8335 70.8528 55.602 70.081 56.561 70.081C57.5167 70.081 58.2918 70.8528 58.2918 71.8085Z" fill="#006EB5"/>
<path d="M62.4335 68.6985C62.4335 69.5885 61.7143 70.3044 60.8242 70.3044C59.9375 70.3044 59.2183 69.5885 59.2183 68.6985C59.2183 67.8117 59.9375 67.0925 60.8242 67.0925C61.7143 67.0925 62.4335 67.8117 62.4335 68.6985Z" fill="#006EB5"/>
<path d="M65.3791 65.4306C65.3791 66.4093 64.5876 67.2041 63.6056 67.2041C62.6302 67.2041 61.8354 66.4093 61.8354 65.4306C61.8354 64.4519 62.6302 63.6604 63.6056 63.6604C64.5876 63.6604 65.3791 64.4519 65.3791 65.4306Z" fill="#006EB5"/>
<path d="M67.892 61.1039C67.892 62.2435 66.9691 63.1631 65.8361 63.1631C64.6932 63.1631 63.7769 62.2435 63.7769 61.1039C63.7769 59.9675 64.6932 59.0447 65.8361 59.0447C66.9691 59.0447 67.892 59.9675 67.892 61.1039Z" fill="#006EB5"/>
<path d="M68.9221 56.2025C68.9221 57.3389 67.9992 58.2617 66.8662 58.2617C65.7233 58.2617 64.8037 57.3389 64.8037 56.2025C64.8037 55.0662 65.7233 54.1433 66.8662 54.1433C67.9992 54.1433 68.9221 55.0662 68.9221 56.2025Z" fill="#006EB5"/>
<path d="M68.8009 51.0504C68.8009 52.1868 67.878 53.1096 66.7417 53.1096C65.6021 53.1096 64.6792 52.1868 64.6792 51.0504C64.6792 49.9174 65.6021 48.9945 66.7417 48.9945C67.878 48.9945 68.8009 49.9174 68.8009 51.0504Z" fill="#006EB5"/>
<path d="M67.2746 46.3121C67.2746 47.4485 66.3518 48.3713 65.2154 48.3713C64.0758 48.3713 63.1562 47.4485 63.1562 46.3121C63.1562 45.1758 64.0758 44.2529 65.2154 44.2529C66.3518 44.2529 67.2746 45.1758 67.2746 46.3121Z" fill="#006EB5"/>
<path d="M63.4425 43.4681C63.4425 44.4238 62.6674 45.2021 61.7085 45.2021C60.7527 45.2021 59.981 44.4238 59.981 43.4681C59.981 42.5157 60.7527 41.7373 61.7085 41.7373C62.6674 41.7373 63.4425 42.5157 63.4425 43.4681Z" fill="#006EB5"/>
<path d="M58.5383 42.1523C58.5383 42.993 57.8552 43.6729 57.0112 43.6729C56.1704 43.6729 55.4873 42.993 55.4873 42.1523C55.4873 41.3082 56.1704 40.6284 57.0112 40.6284C57.8552 40.6284 58.5383 41.3082 58.5383 42.1523Z" fill="#006EB5"/>
<path d="M53.593 42.7691C53.593 43.6131 52.9099 44.293 52.0659 44.293C51.2251 44.293 50.542 43.6131 50.542 42.7691C50.542 41.9283 51.2251 41.2452 52.0659 41.2452C52.9099 41.2452 53.593 41.9283 53.593 42.7691Z" fill="#006EB5"/>
<path d="M49.2257 44.0461C49.2257 44.8212 48.5985 45.4485 47.8234 45.4485C47.0483 45.4485 46.4243 44.8212 46.4243 44.0461C46.4243 43.2711 47.0483 42.6438 47.8234 42.6438C48.5985 42.6438 49.2257 43.2711 49.2257 44.0461Z" fill="#006EB5"/>
<path d="M57.435 67.9055C57.435 68.6839 56.8012 69.3145 56.0261 69.3145C55.2445 69.3145 54.6172 68.6839 54.6172 67.9055C54.6172 67.1239 55.2445 66.4966 56.0261 66.4966C56.8012 66.4966 57.435 67.1239 57.435 67.9055Z" fill="#006EB5"/>
<path d="M34.2064 46.3121C34.2064 47.1792 33.5036 47.8787 32.6399 47.8787C32.0487 47.8787 31.5364 47.5536 31.2736 47.0708C31.0864 47.1824 30.8894 47.281 30.6792 47.3664C31.0536 48.0626 31.7925 48.5388 32.6399 48.5388C33.8715 48.5388 34.8633 47.5437 34.8633 46.3121C34.8633 45.8359 34.7122 45.3925 34.456 45.028C34.2327 45.1003 34.0192 45.1824 33.8156 45.2809C34.0587 45.5568 34.2064 45.9147 34.2064 46.3121Z" fill="white"/>
<path d="M72.4908 37.9738V38.9984H71.8668V40.0691H70.6253V38.9984H68.1162V38.1445L70.1064 34.9063H71.8668V37.9738H72.4908ZM70.6253 35.9901H70.6089L69.4036 37.9738H70.6253V35.9901Z" fill="#FFD327"/>
<path d="M73.1891 36.0435V34.9072H77.429L74.4601 40.0667H72.9888L75.3468 36.0435H73.1891Z" fill="#FFD327"/>
<path d="M31.5434 69.1823L31.1854 70.4402L33.3924 71.0642L32.9227 72.7227L30.719 72.0987L30.3446 73.3959L32.6764 74.0561L32.2068 75.7146L27.9209 74.5027L30.0491 66.9687L34.335 68.1806L33.8686 69.8424L31.5434 69.1823Z" fill="white"/>
<path d="M36.8777 70.2142L36.7529 71.5148L39.0387 71.7348L38.8712 73.4525L36.5887 73.2291L36.4606 74.5757L38.8679 74.8056L38.7037 76.5232L34.27 76.0962L35.0188 68.3028L39.4525 68.733L39.2883 70.4441L36.8777 70.2142Z" fill="white"/>
<path d="M42.7017 74.6497L45.1321 74.4724L45.2569 76.19L40.7936 76.5151L40.2222 68.7086L42.2518 68.5608L42.7017 74.6497Z" fill="white"/>
<path d="M49.4414 69.2342C48.998 69.024 48.4857 68.9451 48.0029 69.0699C47.6416 69.1652 47.2147 69.5035 47.3231 69.9239C47.4413 70.3672 48.0127 70.4001 48.3871 70.4198L48.9257 70.4427C50.0621 70.4821 51.0145 70.8007 51.3364 72.0257C51.5334 72.7811 51.5498 73.5989 51.0802 74.2689C50.6171 74.9257 49.8815 75.3428 49.113 75.5431C48.1573 75.7862 47.1424 75.7073 46.2294 75.3691L46.6596 73.5595C47.2639 73.8649 47.9372 74.0686 48.6105 73.8912C49.0768 73.7697 49.5103 73.4117 49.3658 72.8796C49.2246 72.3279 48.4003 72.3377 47.947 72.3279C46.6169 72.295 45.7203 72.1834 45.3427 70.7187C44.942 69.1784 45.7762 67.8909 47.2968 67.4968C48.0554 67.2965 49.0571 67.2965 49.8256 67.5034L49.4414 69.2342Z" fill="white"/>
<path d="M24.4491 47.4983C24.4491 47.4983 23.9926 46.8974 23.0501 47.367C22.1141 47.8334 22.6658 49.1996 23.6708 48.349C24.0287 47.9681 23.8021 47.6724 24.4491 47.4983Z" fill="#006EB5"/>
</g>
<defs>
<clipPath id="clip0_401_1680">
<rect width="80" height="80" fill="white"/>
</clipPath>
</defs>
</svg>
