<svg width="80" height="80" viewBox="0 0 80 80" fill="none" xmlns="http://www.w3.org/2000/svg">
<path d="M13.2344 30.2221C13.1455 29.2937 13.106 28.3653 13.106 27.4567V27.3776L13.1455 27.3184C13.1455 27.3184 16.5924 22.4097 24.1776 19.0616L24.543 18.9036L24.5232 19.2986C24.5035 19.6739 24.4936 20.0394 24.464 20.3949V20.4937L24.0689 20.8492C23.2985 21.6097 22.5874 22.4295 21.9455 23.2887C18.9924 25.3233 17.343 27.1801 17.0269 27.5455C17.0269 27.9801 17.0467 28.4344 17.0763 28.8986V29.0764L13.264 30.548L13.2344 30.2221Z" fill="black"/>
<path d="M24.2665 19.2888C24.2468 19.6542 24.2369 20.0197 24.2073 20.3752L23.8912 20.6715C23.1011 21.4518 22.3801 22.2814 21.7381 23.1406C18.4492 25.3925 16.7702 27.4567 16.7702 27.4567C16.7702 27.9308 16.79 28.4147 16.8196 28.9085C15.8912 29.2641 14.7357 29.7085 13.4616 30.2024C13.3727 29.2937 13.3332 28.3752 13.3332 27.4567C13.3332 27.4567 16.6517 22.6468 24.2566 19.2888M24.7801 18.5184L24.0591 18.8345C16.4147 22.2122 13.0665 26.9727 12.9282 27.1703L12.8394 27.2987V27.4567C12.8394 28.3752 12.8887 29.3135 12.9776 30.2518L13.0369 30.9036L13.6394 30.6666L14.7949 30.2221L16.9974 29.3727L17.3332 29.2443L17.3134 28.8789C17.2838 28.3752 17.264 27.99 17.264 27.6345C17.6887 27.1505 19.2986 25.4024 22.0147 23.5456L22.0838 23.4962L22.1332 23.4271C22.7653 22.5876 23.4764 21.7678 24.2369 21.0073L24.5431 20.7209L24.6813 20.5925L24.7011 20.4048C24.7307 20.0493 24.7505 19.674 24.7603 19.2987L24.79 18.5085L24.7801 18.5184Z" fill="white"/>
<path d="M39.8225 59.6741C33.5015 56.9976 28.1286 53.2939 24.2274 48.3951C22.4891 46.2124 20.9583 43.4569 19.7336 40.5235C19.2101 40.3556 18.6867 40.1976 18.1731 40.0593C17.4225 39.8519 16.662 39.6741 15.8916 39.5161C17.057 42.2025 18.6175 44.7803 20.5533 47.2198C24.8101 52.5828 30.6965 56.9285 37.6398 59.9013H18.4496C18.6669 60.2075 18.7854 60.5729 18.7854 61.0075H39.8225" fill="black"/>
<path d="M39.8225 59.6741C33.5015 56.9976 28.1286 53.2939 24.2274 48.3951C22.4891 46.2124 20.9583 43.4569 19.7336 40.5235C19.2101 40.3556 18.6867 40.1976 18.1731 40.0593C17.4225 39.8519 16.662 39.6741 15.8916 39.5161C17.057 42.2025 18.6175 44.7803 20.5533 47.2198C24.8101 52.5828 30.6965 56.9285 37.6398 59.9013H18.4496C18.6669 60.2075 18.7854 60.5729 18.7854 61.0075H39.8225" stroke="white" stroke-width="0.5" stroke-miterlimit="10"/>
<path d="M40.5728 61.2446V59.5162L40.7209 59.4569C44.3752 57.9063 47.6444 56.0396 50.4197 53.9063C51.6246 53.5014 52.6715 53.1656 52.8493 53.0964L53.4221 52.8792L53.1555 53.4322C52.9579 53.8471 52.7604 54.2717 52.5728 54.7063L52.5431 54.7656L52.4937 54.8051C49.9555 56.6619 47.1604 58.2915 44.1777 59.6545H62.0048L61.7283 60.0495C61.5308 60.3261 61.432 60.652 61.432 61.0075V61.2545H40.5728V61.2446Z" fill="black"/>
<path d="M52.9381 53.3137C52.7406 53.7285 52.5431 54.1631 52.3455 54.5878C49.5209 56.652 46.39 58.4297 43.0023 59.8816H61.5209C61.3036 60.1878 61.1752 60.5532 61.1752 60.9878H40.8097V59.6643C44.3949 58.1433 47.6838 56.2964 50.5678 54.0841C51.7036 53.7186 52.7505 53.3828 52.9283 53.3137M53.8962 52.4248L52.7604 52.8495C52.6023 52.9088 51.6147 53.2347 50.4196 53.61L50.3406 53.6396L50.2715 53.689C47.506 55.8125 44.2665 57.6692 40.6221 59.21L40.3159 59.3384V61.4816H61.669V60.9878C61.669 60.6717 61.748 60.4051 61.9159 60.168L62.4789 59.3878H45.2739C47.8912 58.1236 50.3604 56.6421 52.632 54.9828L52.7406 54.9038L52.79 54.7853C52.9776 54.3606 53.1752 53.926 53.3727 53.5211L53.8962 52.4248Z" fill="white"/>
<path d="M64.8395 37.3333L62.2321 36.0592L62.2914 35.8617C63.1507 32.8592 63.605 29.9852 63.6149 27.5457C62.9433 26.7654 56.2667 19.3185 44.1778 17.9852L43.605 17.9259L44.1877 17.4321C44.642 17.0765 45.1161 16.721 45.6198 16.3654L45.8667 16.1975H45.9556C60.9877 18.0938 67.4371 27.2197 67.4963 27.3086L67.5358 27.3679V27.4469C67.5358 30.8444 66.9531 34.2222 65.8074 37.4913L65.7186 37.758L64.8494 37.3234L64.8395 37.3333Z" fill="black"/>
<path d="M45.9262 16.4641C61.0175 18.3604 67.299 27.4567 67.299 27.4567C67.299 30.8641 66.7064 34.2123 65.5805 37.4221L64.9583 37.116L62.5385 35.9308C63.3879 32.9678 63.8718 30.0246 63.8718 27.4567C63.8718 27.4567 57.1657 19.1703 44.2175 17.7382L44.3657 17.6197C44.8101 17.2641 45.2842 16.9184 45.778 16.5728L45.936 16.4641M45.8175 15.9505L45.6595 16.0493L45.5015 16.1579C44.9978 16.5135 44.5138 16.869 44.0595 17.2246L43.9015 17.353L43.0225 18.0937L44.1681 18.2221C55.8718 19.516 62.4694 26.5777 63.3879 27.6246C63.3681 30.0246 62.9138 32.8394 62.0743 35.7728L61.9558 36.1678L62.3311 36.3456L64.7509 37.5308L65.3731 37.8369L65.8768 38.0839L66.0644 37.5604C67.22 34.2715 67.8126 30.8641 67.8126 27.4369V27.2789L67.7237 27.1505C67.4669 26.7752 61.1459 17.8468 46.0052 15.9407L45.8175 15.9209V15.9505Z" fill="white"/>
<path d="M41.4617 20.3851C41.2148 20.6814 40.9975 20.9777 40.8098 21.2641C40.5432 21.6691 40.3358 22.0641 40.1876 22.4394C40.0493 22.795 39.9802 23.1407 39.9604 23.4468V23.5851L39.9802 23.7925C40.5432 24.7012 40.9382 25.4222 41.1753 25.8271C41.4617 26.1036 41.7975 26.3703 42.1926 26.6271C42.9333 27.1209 43.8419 27.595 44.9086 28.0394L48.6222 29.5999L52.2074 31.1604L55.6444 32.7012L58.9333 34.2123L59.7827 34.6172C60.2567 32.6024 60.5234 30.637 60.5234 28.8789C60.5234 28.8789 54.0246 20.8296 41.4617 20.3752V20.3851Z" fill="#00A9D8"/>
<path d="M4.55324 68.2073C2.41003 68.2073 0.24707 67.5654 0.24707 66.1234V65.8765H13.3137V64.7012H4.39522C1.8767 64.7012 0.24707 63.8715 0.24707 62.5975V61.1357C0.24707 59.7036 1.80756 58.8542 4.41497 58.8542H13.7582C16.5434 58.8542 18.0742 59.6049 18.0742 60.9678V61.2147H5.11621V62.3604H13.7384C15.7434 62.3604 18.0841 62.8839 18.0841 64.3555V66.1036C18.0841 67.4666 16.5335 68.2172 13.7088 68.2172H4.55324V68.2073Z" fill="black"/>
<path d="M13.7679 59.1012C16.1975 59.1012 17.837 59.6642 17.837 60.9679H4.86914V62.6074H13.7383C15.7926 62.6074 17.837 63.1506 17.837 64.3556V66.1037C17.837 67.3778 16.1679 67.9704 13.7086 67.9704H4.55309C2.49877 67.9704 0.493827 67.3482 0.493827 66.1333H13.5605V64.4642H4.39506C2.33086 64.4642 0.493827 63.842 0.493827 62.6074V61.1457C0.493827 59.7037 2.33086 59.1111 4.41481 59.1111H13.758M13.758 58.6173H4.41481C1.64938 58.6173 0 59.5654 0 61.1457V62.6074C0 64.0395 1.72839 64.958 4.39506 64.958H13.0765V65.6395H0V66.1333C0 67.7432 2.29136 68.4642 4.55309 68.4642H13.6988C17.7185 68.4642 18.321 66.9827 18.321 66.1037V64.3556C18.321 62.6963 15.9506 62.1136 13.7284 62.1136H5.36296V61.4617H18.3309V60.9679C18.3309 60.0889 17.7383 58.6074 13.7679 58.6074L13.758 58.6173Z" fill="white"/>
<path d="M26.1037 68.1975V66.1926H21.5803V68.1975H21.0568C19.842 68.1975 18.6074 67.7432 18.6074 66.8839V63.8815C18.6074 63.0321 19.842 62.5876 21.0667 62.5876H21.5704V64.6321H26.1037V62.5876H26.5679C28.1284 62.5876 29.0568 63.0815 29.0568 63.9111V66.8741C29.0568 67.6938 28.1284 68.1876 26.5679 68.1876H26.0938L26.1037 68.1975Z" fill="black"/>
<path d="M26.5776 62.8444C27.9307 62.8444 28.8196 63.2197 28.8196 63.921V66.8938C28.8196 67.6247 27.8122 67.9506 26.5776 67.9506H26.3505V65.9456H21.3332V67.9506H21.0566C19.8715 67.9506 18.8542 67.5259 18.8542 66.8938V63.8913C18.8542 63.2889 19.8616 62.8444 21.0665 62.8444H21.3233V64.8889H26.3505V62.8444H26.5678M26.5678 62.3506H25.8566V64.395H21.8171V62.3506H21.0665C19.4962 62.3506 18.3604 63.0024 18.3604 63.8913V66.8938C18.3604 67.8123 19.4665 68.4444 21.0566 68.4444H21.827V66.4395H25.8566V68.4444H26.5776C28.2962 68.4444 29.3134 67.8617 29.3134 66.8938V63.921C29.3134 63.5555 29.1159 62.3506 26.5776 62.3506H26.5678Z" fill="white"/>
<path d="M48.0098 67.9604L44.474 64.8592H48.3259V63.911H43.2987V71.2987C43.2987 71.8024 43.1012 72.0987 42.6666 72.2764C42.2419 72.4345 41.6592 72.4839 41.0666 72.4839H40.8296V62.8345H48.5432C49.8963 62.8345 50.795 63.2098 50.795 63.911V64.869C50.795 65.5209 50.0246 65.8962 48.6518 65.9456L51.0222 67.9505" fill="black"/>
<path d="M48.0098 67.9604L44.474 64.8592H48.3259V63.911H43.2987V71.2987C43.2987 71.8024 43.1012 72.0987 42.6666 72.2764C42.2419 72.4345 41.6592 72.4839 41.0666 72.4839H40.8296V62.8345H48.5432C49.8963 62.8345 50.795 63.2098 50.795 63.911V64.869C50.795 65.5209 50.0246 65.8962 48.6518 65.9456L51.0222 67.9505" stroke="white" stroke-width="0.5" stroke-miterlimit="10"/>
<path d="M59.4965 67.9507C58.2718 67.9507 57.9162 67.6741 57.4224 67.447L54.2915 65.6V66.9729C54.2915 67.7037 53.2347 67.9507 52.0397 67.9507H51.8125V62.8445H54.2915V65.0963L57.5211 62.8445H60.2668L56.889 65.2445L61.3927 67.9507" fill="black"/>
<path d="M59.4965 67.9507C58.2718 67.9507 57.9162 67.6741 57.4224 67.447L54.2915 65.6V66.9729C54.2915 67.7037 53.2347 67.9507 52.0397 67.9507H51.8125V62.8445H54.2915V65.0963L57.5211 62.8445H60.2668L56.889 65.2445L61.3927 67.9507" stroke="white" stroke-width="0.5" stroke-miterlimit="10"/>
<path d="M66.2321 68.2073C64.0889 68.2073 61.9259 67.5654 61.9259 66.1234V65.8765H74.9926V64.7012H66.0642C63.5456 64.7012 61.916 63.8715 61.916 62.5975V61.1357C61.916 59.7036 63.4765 58.8542 66.0839 58.8542H75.4271C78.2123 58.8542 79.7432 59.6049 79.7432 60.9678V61.2147H66.7753V62.3604H75.3975C77.4024 62.3604 79.7432 62.8839 79.7432 64.3555V66.1036C79.7432 67.4666 78.1926 68.2172 75.3679 68.2172H66.2222L66.2321 68.2073Z" fill="black"/>
<path d="M75.4368 59.1012C77.8665 59.1012 79.506 59.6642 79.506 60.9679H66.5381V62.6074H75.4072C77.4615 62.6074 79.506 63.1506 79.506 64.3556V66.1037C79.506 67.3778 77.8368 67.9704 75.3776 67.9704H66.2319C64.1776 67.9704 62.1727 67.3482 62.1727 66.1333H75.2393V64.4642H66.064C63.9998 64.4642 62.1628 63.842 62.1628 62.6074V61.1457C62.1628 59.7037 63.9998 59.1111 66.0838 59.1111H75.427M75.427 58.6173H66.0838C63.3183 58.6173 61.6689 59.5654 61.6689 61.1457V62.6074C61.6689 64.0395 63.3973 64.958 66.064 64.958H74.7455V65.6395H61.6788V66.1333C61.6788 67.7432 63.9702 68.4642 66.2319 68.4642H75.3776C79.3973 68.4642 79.9998 66.9827 79.9998 66.1037V64.3556C79.9998 62.6963 77.6294 62.1136 75.4072 62.1136H67.0319V61.4617H79.9998V60.9679C79.9998 60.0889 79.4072 58.6074 75.4368 58.6074L75.427 58.6173Z" fill="white"/>
<path d="M32.2964 63.9209H37.3038V64.869H32.2964V63.9209ZM32.0594 62.8443C30.8643 62.8443 29.8174 63.19 29.8174 63.9703V67.9505H29.9655C30.5878 67.9505 31.2199 67.8518 31.6248 67.674C32.089 67.4764 32.2964 67.2295 32.2964 66.7456V65.9456H37.3038V71.3085C37.3038 71.8122 37.4915 72.1085 37.9458 72.2863C38.3705 72.4443 38.9927 72.4937 39.5754 72.4937H39.8223V62.8345" fill="black"/>
<path d="M32.0594 62.8443C30.8643 62.8443 29.8174 63.19 29.8174 63.9703V67.9505H29.9655C30.5878 67.9505 31.2199 67.8518 31.6248 67.674C32.089 67.4764 32.2964 67.2295 32.2964 66.7456V65.9456H37.3038V71.3085C37.3038 71.8122 37.4915 72.1085 37.9458 72.2863C38.3705 72.4443 38.9927 72.4937 39.5754 72.4937H39.8223V62.8345M32.2964 63.9209H37.3038V64.869H32.2964V63.9209Z" stroke="white" stroke-width="0.5" stroke-miterlimit="10"/>
<path d="M40.3162 56.9581C40.3162 56.9581 40.2569 56.9581 40.2174 56.9384C34.2915 54.489 29.61 51.1507 26.3112 47.0026C25.2248 45.6297 24.1976 43.9705 23.2594 42.0643C23.21 41.9754 23.2297 41.8569 23.2989 41.7878C23.3483 41.7384 23.4075 41.7087 23.4767 41.7087C23.5063 41.7087 23.5458 41.7087 23.5754 41.7285C24.5433 42.1532 25.5112 42.6174 26.4297 43.1013C27.4964 43.6643 28.5729 44.2668 29.61 44.9186C30.8347 45.6692 32.1285 46.3606 33.4421 46.9729C34.7359 47.5853 36.1285 48.1482 37.5705 48.6618C37.9853 48.81 38.4199 48.9482 38.8446 49.0766L38.9433 49.1063C39.0223 49.1359 39.0915 49.1952 39.1112 49.284C39.131 49.3631 39.1112 49.452 39.0421 49.5211L36.3557 52.2075C39.3285 51.7236 43.2297 51.0816 43.4668 51.0124C43.4865 51.0124 43.5162 51.0124 43.5359 51.0124C43.605 51.0124 43.6643 51.0421 43.7137 51.0915C43.7729 51.1606 43.8026 51.2594 43.7729 51.3384L42.8446 53.9952L48.4939 51.9013C48.4939 51.9013 48.5532 51.8816 48.5828 51.8816C48.6717 51.8816 48.7606 51.931 48.8001 52.01C48.8594 52.1186 48.8297 52.2569 48.731 52.326C46.2816 54.1236 43.4865 55.684 40.405 56.9482C40.3754 56.9581 40.3458 56.968 40.3063 56.968L40.3162 56.9581Z" fill="black"/>
<path d="M23.4866 41.9557C24.4249 42.3706 25.3829 42.8249 26.3311 43.3187C27.378 43.8619 28.4447 44.4743 29.4916 45.1261C30.7064 45.8669 32.0002 46.5681 33.3533 47.2002C34.657 47.8125 36.0595 48.3854 37.5014 48.899C37.9558 49.057 38.42 49.2051 38.8842 49.3533C37.057 51.1804 35.6545 52.5829 35.6545 52.5829C35.6545 52.5829 43.2496 51.3483 43.5558 51.2594C43.0817 52.6125 42.4496 54.4101 42.4496 54.4101C42.4496 54.4101 47.6052 52.5039 48.5928 52.1286C46.1335 53.9459 43.3582 55.4767 40.3163 56.7212C34.7064 54.4101 29.9459 51.1706 26.5089 46.8545C25.3928 45.452 24.3755 43.7631 23.4866 41.9557ZM23.4866 41.4619C23.3582 41.4619 23.2298 41.5113 23.1311 41.6101C22.9829 41.7582 22.9533 41.9854 23.0422 42.173C23.9805 44.0989 25.0175 45.778 26.1237 47.1607C29.4521 51.3385 34.1632 54.7064 40.1286 57.1755C40.1879 57.2051 40.257 57.215 40.3163 57.215C40.3755 57.215 40.4447 57.2051 40.5039 57.1755C43.5953 55.9014 46.42 54.3311 48.8792 52.5236C49.0768 52.3755 49.136 52.1088 49.0175 51.8915C48.9286 51.7236 48.7607 51.6348 48.5829 51.6348C48.5237 51.6348 48.4644 51.6446 48.415 51.6644L43.2595 53.5804L44.02 51.4273C44.0792 51.2496 44.0397 51.052 43.9113 50.9236C43.8126 50.8249 43.6842 50.7755 43.5558 50.7755C43.5064 50.7755 43.457 50.7755 43.4076 50.7952C43.1508 50.8644 39.8916 51.3977 37.0866 51.8619C37.6496 51.299 38.4002 50.5483 39.2298 49.7187C39.3484 49.6002 39.3977 49.4224 39.3582 49.2545C39.3187 49.0866 39.1903 48.9483 39.0323 48.899L38.9434 48.8693C38.5089 48.7311 38.0842 48.5928 37.6595 48.4446C36.2274 47.9409 34.8447 47.3681 33.5607 46.7656C32.2471 46.1533 30.9632 45.4619 29.7484 44.7212C28.7014 44.0693 27.6249 43.457 26.5582 42.9039C25.6298 42.4101 24.6619 41.9557 23.6842 41.5212C23.6249 41.4915 23.5558 41.4817 23.4866 41.4817V41.4619Z" fill="white"/>
<path d="M47.2395 43.3482L46.8149 43.2396C46.6865 43.2099 46.6074 43.0717 46.6371 42.9433C46.6667 42.8346 46.7655 42.7556 46.8741 42.7556C46.8939 42.7556 46.9136 42.7556 46.9334 42.7556L47.3581 42.8643C47.4865 42.8939 47.5655 43.0322 47.5358 43.1606C47.5062 43.2692 47.4074 43.3482 47.2988 43.3482C47.2791 43.3482 47.2593 43.3482 47.2395 43.3482Z" fill="black"/>
<path d="M46.8741 43.0025C46.8741 43.0025 46.9333 43.0222 46.963 43.0222L46.8741 43.0025ZM46.963 43.0222L47.1802 43.0716C47.1111 43.0519 47.0321 43.0321 46.963 43.0222ZM47.1802 43.0716C47.1802 43.0716 47.2593 43.0914 47.2988 43.1012L47.1802 43.0716ZM46.9926 42.5185C46.9926 42.5185 46.9728 42.5185 46.963 42.5185C46.7457 42.5185 46.5383 42.6667 46.4889 42.8938C46.4296 43.1309 46.5481 43.358 46.7556 43.4568L46.8444 43.4864L47.0321 43.5358C47.0321 43.5358 47.042 43.5358 47.0518 43.5358C47.0518 43.5358 47.0617 43.5358 47.0716 43.5358L47.1901 43.5654C47.1901 43.5654 47.2691 43.5753 47.3086 43.5753C47.5259 43.5753 47.7333 43.4272 47.7827 43.2C47.8519 42.9333 47.6839 42.6667 47.4272 42.5975L47.3086 42.5679L47.0914 42.5185L47.0025 42.4988L46.9926 42.5185Z" fill="white"/>
<path d="M50.9332 52.1088C50.8839 52.1088 50.8345 52.0891 50.795 52.0693C50.7258 52.0199 50.6863 51.9508 50.6863 51.8619V49.7582C50.3012 49.7187 49.9061 49.6693 49.5209 49.6199L46.2913 50.815C46.2913 50.815 46.232 50.8347 46.2024 50.8347C46.1431 50.8347 46.074 50.8051 46.0246 50.7656C45.9555 50.6965 45.9357 50.5977 45.9653 50.5088L46.4394 49.1557C45.8073 49.0471 45.2345 48.9286 44.6616 48.8101L42.2221 49.5508C42.2221 49.5508 42.1728 49.5607 42.153 49.5607C42.0641 49.5607 41.9851 49.5212 41.9456 49.4422C41.8863 49.3434 41.9061 49.2249 41.9851 49.1459L42.7555 48.3755L42.3604 48.2767C40.8987 47.9014 39.4962 47.4668 38.1826 47.0027C36.7999 46.5187 35.4666 45.9755 34.2123 45.3829C32.9579 44.8002 31.7333 44.1385 30.5579 43.4175C29.4913 42.7557 28.3851 42.1236 27.2691 41.5409C26.2715 41.0175 25.2444 40.5236 24.2172 40.0792C23.2691 39.6743 22.311 39.2989 21.3728 38.9631C20.474 38.6471 19.5752 38.3607 18.7061 38.1236C17.0863 37.6792 15.4468 37.3434 13.8468 37.136C12.4542 36.9483 11.0221 36.8397 9.59992 36.8199H9.03695C7.07152 36.8199 5.06658 36.9878 3.23942 37.3039C2.38016 37.452 1.71844 37.6002 1.3135 37.6989C1.29374 37.6989 1.27399 37.6989 1.25424 37.6989C1.19498 37.6989 1.1456 37.6792 1.10609 37.6496C1.04683 37.6002 1.00732 37.531 1.00732 37.4619C1.00732 37.3434 1.05671 37.2051 1.15547 37.1656L20.6715 29.6496C20.7505 29.3335 20.9777 28.5039 21.5604 27.3187C21.9555 26.5088 22.4394 25.6891 23.0123 24.8693C23.6839 23.9113 24.4641 23.0026 25.3332 22.1434C25.5999 21.8767 25.8765 21.6199 26.1728 21.3533C26.6666 17.5014 25.6789 12.0496 25.6691 12.0002C25.6493 11.9113 25.6888 11.8125 25.7579 11.7631C25.7974 11.7335 25.8567 11.7138 25.9061 11.7138C25.9456 11.7138 25.9752 11.7138 26.0147 11.7335C28.0987 12.7014 30.3209 14.5088 32.6024 17.1064L32.9382 16.9385C33.8172 16.5236 34.6666 16.1582 35.5357 15.8224C36.5135 15.4471 37.4715 15.1212 38.4493 14.815C39.5061 14.4891 40.5728 14.2026 41.7086 13.9261C42.795 13.6693 43.9308 13.4224 45.0765 13.2051L44.1086 9.29401C44.0789 9.17549 44.1382 9.06685 44.237 9.00759C44.2666 8.98783 44.3061 8.98783 44.3456 8.98783C44.4246 8.98783 44.4937 9.02734 44.5431 9.0866C44.5431 9.0866 44.9777 9.48166 47.0221 9.60018C47.437 9.62981 47.9209 9.63969 48.4839 9.63969C49.5407 9.63969 50.7456 9.58043 52.0888 9.46191C53.4024 9.34339 54.6765 9.20512 55.9802 9.02734C57.5999 8.80018 59.19 8.55327 60.8197 8.26685C60.8295 8.26685 60.8493 8.26685 60.8592 8.26685C60.9579 8.26685 61.0567 8.3261 61.0863 8.42487C61.1258 8.53351 61.0863 8.66191 60.9777 8.72117L54.5481 12.5335C54.5481 12.5335 54.4691 12.573 54.4197 12.573C54.4197 12.573 54.4098 12.573 54.3999 12.573C54.3999 12.573 53.3728 12.5039 52.0987 12.5039C49.7382 12.5039 48.0592 12.731 47.3678 13.136C46.3703 13.7286 45.432 14.331 44.5925 14.9236C44.0987 15.2693 43.595 15.6446 43.0913 16.0397C42.5382 16.4743 42.0641 16.8891 41.6098 17.294C41.116 17.7483 40.6616 18.2125 40.2468 18.6767C39.7925 19.1903 39.4172 19.6841 39.1012 20.1681C38.7456 20.7212 38.4789 21.2249 38.2913 21.7286C38.0839 22.2817 37.9653 22.8347 37.9357 23.3483C37.916 23.7928 37.9555 24.2372 38.0641 24.6619C38.7653 25.7878 39.2493 26.6668 39.4271 26.9928C39.8518 27.4372 40.395 27.8915 41.0567 28.336C41.8962 28.8989 42.9333 29.4323 44.1283 29.936C45.3925 30.4594 46.6172 30.9829 47.8221 31.4965C49.037 32.0199 50.232 32.5335 51.3876 33.0471C52.5629 33.5607 53.6987 34.0743 54.8049 34.578C55.9308 35.0915 57.0172 35.5952 58.074 36.0792C59.1407 36.573 60.1678 37.0668 61.1653 37.5409C62.1629 38.0249 63.1308 38.4891 64.0592 38.9434C64.9974 39.4076 65.8962 39.852 66.7456 40.2866C67.6049 40.7212 68.4246 41.1459 69.2049 41.5409C70.7851 42.3607 72.1678 43.1014 73.3629 43.7533C74.5777 44.415 75.595 44.9878 76.4147 45.4619C78.0839 46.4199 78.8937 46.9236 78.8937 46.9236C78.9629 46.973 79.0123 47.052 79.0123 47.131C79.0123 47.2397 78.953 47.3286 78.8444 47.3681C78.8246 47.3681 77.2938 47.9014 74.6172 48.494C73.0172 48.8496 71.3382 49.1557 69.6197 49.4026L68.9283 49.5014C67.0419 49.7582 65.0468 49.9557 63.0123 50.0743C61.7876 50.1434 60.5135 50.1829 59.2295 50.1928L56.4641 51.9706C56.4641 51.9706 56.3752 52.0101 56.3357 52.0101C56.2765 52.0101 56.2172 51.9903 56.1678 51.9508C56.0888 51.8817 56.0592 51.7631 56.1086 51.6644L56.8098 50.1928C56.6518 50.1928 56.4937 50.1928 56.3258 50.1829L51.032 52.1286C51.032 52.1286 50.9728 52.1385 50.953 52.1385L50.9332 52.1088ZM52.8789 45.5903C52.9514 45.6759 53.2575 45.7483 53.7974 45.8076L54.4691 45.8866C54.953 45.9459 55.4172 45.9755 55.8518 45.9952L52.7505 45.452C52.7999 45.5113 52.8394 45.5508 52.8789 45.5903ZM48.0197 43.0323C47.9209 42.7459 47.832 42.4298 47.753 42.1039L46.7851 41.7582C46.8641 42.1335 46.953 42.4792 47.0616 42.7952C47.3579 42.8743 47.6542 42.9434 47.9407 43.0125C47.9505 43.0125 48.0197 43.0323 48.0197 43.0323ZM45.1456 42.3212C45.0468 41.9261 44.9678 41.5212 44.9086 41.0866L43.9703 40.7508C44.0197 41.2051 44.0987 41.6594 44.2073 42.094L45.1061 42.3113C45.1061 42.3113 45.1357 42.3113 45.1456 42.3212ZM42.3407 41.6397C42.2518 41.1459 42.1925 40.6323 42.1629 40.0891L41.2542 39.7631C41.2641 40.3557 41.3234 40.9088 41.4123 41.4125C41.4913 41.4323 41.6394 41.4619 41.6394 41.4619L42.3505 41.6298L42.3407 41.6397Z" fill="black"/>
<path d="M60.8495 8.49394L54.4199 12.3063C54.4199 12.3063 53.3927 12.2371 52.0989 12.2371C50.3804 12.2371 48.168 12.3557 47.2396 12.9088C46.4001 13.4125 45.4322 14.0149 44.4446 14.7063C43.9507 15.0618 43.4372 15.4371 42.9335 15.8322C42.4199 16.2371 41.9261 16.6618 41.4421 17.0964C40.9582 17.5507 40.494 18.0149 40.0594 18.489C39.6248 18.9828 39.2298 19.4865 38.8841 20.01C38.5384 20.5433 38.252 21.0767 38.0446 21.6199C37.8372 22.1828 37.7088 22.7458 37.6693 23.3186C37.6495 23.7828 37.689 24.247 37.8075 24.7013C38.489 25.8075 38.973 26.6767 39.1903 27.0915C39.6446 27.5754 40.2075 28.0594 40.9088 28.5236C41.7581 29.0865 42.7853 29.6297 44.0199 30.1433C45.2841 30.6668 46.5088 31.1902 47.7038 31.7038C48.9186 32.2273 50.1137 32.7409 51.2693 33.2544C52.4446 33.768 53.5804 34.2816 54.6865 34.7853C55.8125 35.2989 56.8989 35.7927 57.9458 36.2865C59.0125 36.7804 60.0396 37.2643 61.0372 37.7483C62.0347 38.2322 63.0026 38.6964 63.9211 39.1507C64.8594 39.6149 65.7483 40.0594 66.6075 40.4939C67.4668 40.9285 68.2865 41.3532 69.0668 41.7483C70.6372 42.568 72.0199 43.3088 73.2248 43.9606C74.4396 44.6223 75.4569 45.1952 76.2767 45.6594C77.9359 46.6075 78.7458 47.1211 78.7458 47.1211C76.6125 47.3285 74.5581 47.4075 72.5828 47.4075C65.847 47.4075 60.1977 46.4001 56.8199 45.61C60.1977 46.4001 65.847 47.4075 72.5927 47.4075C74.5582 47.4075 76.6224 47.3186 78.7458 47.1211C78.7458 47.1211 77.2446 47.6446 74.5384 48.247C73.1754 48.5532 71.4964 48.8692 69.5606 49.1557L68.8693 49.2544C67.0915 49.4915 65.1162 49.6989 62.973 49.8273C61.7384 49.8964 60.4544 49.9359 59.131 49.9458L56.3063 51.7631L57.1656 49.9458C56.8791 49.9458 56.6026 49.9359 56.3063 49.926L50.9137 51.8816V49.5507C50.4298 49.5013 49.9557 49.4421 49.4717 49.3729L46.1828 50.5878L46.7557 48.9581L46.6668 48.9384C45.9853 48.8199 45.3236 48.6816 44.6421 48.5433L42.1433 49.2939L43.2199 48.2174L42.4001 48.0199C40.9977 47.6544 39.6051 47.2297 38.2421 46.7557C36.8989 46.2816 35.5754 45.7483 34.3014 45.1458C33.047 44.5532 31.8322 43.9013 30.6767 43.1902C29.5409 42.489 28.4347 41.8668 27.368 41.3038C26.3112 40.7507 25.294 40.2668 24.2964 39.8322C23.3186 39.4075 22.3606 39.0322 21.4322 38.7063C20.5137 38.3804 19.6149 38.1038 18.7458 37.8668C17.0174 37.3927 15.3878 37.0767 13.8569 36.8692C12.3359 36.6618 10.9038 36.573 9.58037 36.5433C9.39272 36.5433 9.19519 36.5433 9.00753 36.5433C6.62729 36.5433 4.62235 36.7804 3.1705 37.0273C2.31124 37.1754 1.64951 37.3236 1.22482 37.4322C4.45445 36.5532 7.79272 36.2668 10.8347 36.2668C16.0001 36.2668 20.3359 37.1162 21.847 37.452C20.3359 37.1162 16.0001 36.2668 10.8248 36.2668C7.78284 36.2668 4.44457 36.5631 1.22482 37.4322V37.373L14.4495 32.2767L20.8495 29.8075C21.2742 29.6199 21.6594 29.4125 22.0248 29.1754C21.6594 29.4125 21.2742 29.6199 20.8495 29.7976C20.8693 29.7088 21.0668 28.7902 21.7483 27.3976C22.094 26.6865 22.5582 25.8767 23.1804 24.9878C23.7828 24.1384 24.5335 23.2199 25.4717 22.2915C25.7582 22.0149 26.0446 21.7285 26.3705 21.452C26.9038 17.5112 25.8767 11.931 25.8767 11.931C28.2767 13.047 30.5779 15.1606 32.5828 17.4717C32.5631 17.4421 32.5335 17.4125 32.5137 17.3927L33.0174 17.1458C33.8174 16.7705 34.6767 16.3952 35.5952 16.0396C36.5038 15.6939 37.4619 15.3581 38.489 15.0421C39.5063 14.726 40.573 14.4297 41.7285 14.1631C42.8643 13.8865 44.0693 13.6297 45.3433 13.4026L44.3063 9.23468C44.3063 9.23468 44.6619 9.70875 46.973 9.84702C47.3977 9.87665 47.8816 9.88653 48.4446 9.88653C49.4223 9.88653 50.6075 9.83715 52.0693 9.70875C53.2051 9.60999 54.5088 9.47172 55.9705 9.27418C57.4223 9.07665 59.0421 8.82974 60.8199 8.50381M22.4495 37.5804L22.8149 37.6594L22.9335 37.6791C23.0421 37.6989 23.1606 37.7285 23.2693 37.7483C24.3458 37.9655 25.3927 38.1828 26.4298 38.3902C25.3927 38.173 24.3359 37.9655 23.2693 37.7483L22.9335 37.6791C22.7656 37.6495 22.6075 37.61 22.4495 37.5705M41.1952 41.6199C39.931 41.3236 38.6273 41.0273 37.2841 40.7211C37.2643 40.7211 37.2347 40.7112 37.2149 40.7013C37.2347 40.7013 37.2643 40.7112 37.2841 40.7211C38.7656 41.0569 40.1977 41.3927 41.5804 41.7186C41.61 41.7186 41.6495 41.7384 41.6791 41.7384C41.7483 41.7581 41.8273 41.7779 41.8964 41.7878C41.8174 41.768 41.7483 41.7483 41.6791 41.7384C41.6495 41.7384 41.61 41.7186 41.5804 41.7186C41.9458 41.7976 42.3014 41.8964 42.6668 41.9754C42.5186 41.3334 42.4298 40.6421 42.41 39.9211L41.0075 39.4174V39.447C41.0075 40.2174 41.0767 40.9483 41.2051 41.6297M34.7261 40.1581C34.2125 40.0396 33.7088 39.931 33.1853 39.8125C33.2149 39.8125 33.2446 39.8322 33.2841 39.8421C33.768 39.9507 34.252 40.0495 34.7261 40.1581ZM45.0075 42.5384C44.6125 42.4396 44.1878 42.3408 43.7828 42.2421C44.4149 42.4001 45.047 42.5483 45.6693 42.6964C46.9927 43.0223 48.2668 43.3384 49.4915 43.6544C50.7261 43.9705 51.9014 44.2767 53.0372 44.5729C54.0248 44.8297 54.9631 45.0865 55.8619 45.3334C54.9631 45.0865 54.0248 44.8297 53.0273 44.5729C51.9014 44.2767 50.7162 43.9705 49.4915 43.6544C48.9878 43.526 48.4742 43.3976 47.9507 43.2692L48.4446 43.3976C48.2668 42.9532 48.1186 42.4495 48.0001 41.9359L46.4989 41.3927C46.5977 41.9655 46.7261 42.5186 46.9038 43.0125C46.4989 42.9137 46.094 42.805 45.6693 42.7063L45.5211 42.6767C45.3532 42.1334 45.2347 41.5409 45.1557 40.9186L43.7038 40.3952C43.7532 41.0668 43.8619 41.7088 44.0199 42.3013C44.3557 42.3804 44.6816 42.4594 45.0075 42.5384ZM56.3754 46.252C57.4619 46.252 57.9656 46.1137 57.9656 46.1137L51.8915 45.047C53.4224 46.1137 52.0396 45.847 54.4594 46.1334C55.2298 46.2223 55.8717 46.252 56.3754 46.252ZM45.0075 42.5384C45.0075 42.5384 45.0372 42.5384 45.0569 42.5483C45.0372 42.5483 45.0273 42.5483 45.0075 42.5384ZM60.8495 8.00011C60.8495 8.00011 60.7903 8.00011 60.7606 8.00011C59.1409 8.28653 57.5211 8.54332 55.931 8.7606C54.6372 8.93838 53.3631 9.07665 52.0594 9.19517C50.7261 9.31369 49.5211 9.37295 48.4742 9.37295C47.9507 9.37295 47.4668 9.36307 47.0322 9.33344C45.2446 9.2248 44.7507 8.90875 44.6915 8.86925C44.5927 8.77048 44.4643 8.71122 44.3359 8.71122C44.2668 8.71122 44.1878 8.73098 44.1285 8.7606C43.9211 8.85937 43.8026 9.09641 43.8619 9.32357L44.7705 12.9878C43.7137 13.1952 42.6668 13.4125 41.6495 13.6594C40.5137 13.9359 39.4372 14.2223 38.3804 14.5483C37.3927 14.8544 36.4347 15.1804 35.4569 15.5557C34.5779 15.8915 33.7285 16.2569 32.8495 16.6717L32.6816 16.7606C30.41 14.2125 28.2174 12.4347 26.1335 11.4668C26.0643 11.4371 25.9952 11.4174 25.9261 11.4174C25.8174 11.4174 25.7088 11.4569 25.6199 11.5162C25.4717 11.6248 25.4026 11.8125 25.4322 12.0001C25.4421 12.0495 26.41 17.3828 25.9458 21.1853C25.6989 21.4125 25.452 21.6396 25.1656 21.9162C24.2964 22.7853 23.5063 23.7137 22.8248 24.6717C22.2421 25.5013 21.7483 26.331 21.3532 27.1507C20.8298 28.2075 20.5828 29.0075 20.4742 29.4026L14.3112 31.7828L1.05692 36.8989C0.829757 36.9878 0.701362 37.2248 0.750745 37.452V37.4816C0.770498 37.61 0.839633 37.7285 0.938399 37.8075C1.02729 37.8767 1.13593 37.9162 1.24457 37.9162C1.28408 37.9162 1.32358 37.9162 1.36309 37.9063C1.76803 37.8075 2.42976 37.6594 3.26926 37.5112C4.54334 37.2939 6.56803 37.0273 9.02729 37.0273C9.21494 37.0273 9.4026 37.0273 9.59025 37.0273C11.0026 37.047 12.4149 37.1557 13.8075 37.3433C15.3977 37.5507 17.0174 37.8865 18.6372 38.331C19.5063 38.568 20.3952 38.8446 21.2841 39.1606C22.2223 39.4964 23.1705 39.8717 24.1186 40.2767C25.1359 40.7211 26.1631 41.2149 27.1507 41.7384C28.2569 42.3211 29.3631 42.9532 30.4199 43.605C31.6051 44.326 32.8396 44.9976 34.094 45.5804C35.3483 46.1729 36.6915 46.7162 38.0841 47.21C39.4075 47.6742 40.81 48.0989 42.2619 48.4841L41.8075 48.9384C41.6495 49.0964 41.6199 49.3433 41.7285 49.5409C41.8174 49.689 41.9853 49.7779 42.1532 49.7779C42.2026 49.7779 42.252 49.7779 42.2915 49.7581L44.6717 49.0371C45.1063 49.126 45.5903 49.2248 46.1038 49.3236L45.7186 50.41C45.6594 50.5878 45.6989 50.7952 45.8372 50.9236C45.9359 51.0125 46.0544 51.0618 46.1828 51.0618C46.2421 51.0618 46.3014 51.052 46.3507 51.0322L49.5211 49.8569C49.8174 49.8964 50.1137 49.9359 50.41 49.9655V51.852C50.41 52.01 50.489 52.168 50.6174 52.2569C50.7063 52.3162 50.8051 52.3458 50.9038 52.3458C50.9631 52.3458 51.0223 52.3458 51.0717 52.3162L56.3656 50.3902L55.8322 51.526C55.7335 51.7236 55.7828 51.9606 55.9507 52.1088C56.0396 52.1878 56.1582 52.2273 56.2767 52.2273C56.3656 52.2273 56.4643 52.1976 56.5433 52.1483L59.2495 50.41C60.5038 50.41 61.7582 50.3606 62.973 50.2915C65.0174 50.1729 67.0125 49.9754 68.9088 49.7186L69.6001 49.6199C71.3285 49.3631 73.0174 49.0569 74.6174 48.7112C77.3137 48.1088 78.8149 47.5952 78.8742 47.5754C79.0619 47.5063 79.1902 47.3384 79.21 47.1409C79.2199 46.9631 79.131 46.7853 78.9828 46.6865C78.9532 46.6668 78.1433 46.1631 76.494 45.2149C75.5853 44.6915 74.5582 44.1186 73.4421 43.5063C72.0396 42.7458 70.6767 42.0149 69.2742 41.2939C68.5038 40.889 67.6742 40.4742 66.8149 40.0396C65.9557 39.605 65.0668 39.1606 64.1285 38.6964C63.2001 38.2421 62.2421 37.7779 61.2347 37.2939C60.2372 36.8199 59.21 36.3359 58.1433 35.8322C57.0865 35.3483 56.0001 34.8446 54.8742 34.331C53.7582 33.8273 52.6322 33.3137 51.447 32.8001C50.2915 32.2865 49.0964 31.773 47.8816 31.2495C46.6767 30.7359 45.452 30.2125 44.1878 29.689C43.0026 29.1952 41.9853 28.6717 41.1557 28.1186C40.5335 27.7038 40.0001 27.2692 39.5656 26.8051C39.368 26.4495 38.9038 25.6199 38.2421 24.5137C38.1532 24.1384 38.1236 23.7433 38.1433 23.3384C38.173 22.8446 38.2915 22.3211 38.489 21.7878C38.6767 21.3038 38.9335 20.81 39.2791 20.2767C39.5853 19.8026 39.9705 19.3186 40.4051 18.8149C40.81 18.3606 41.2643 17.9063 41.7483 17.452C42.1927 17.047 42.6668 16.6322 43.21 16.2075C43.6841 15.8322 44.1779 15.4668 44.7014 15.1013C45.5409 14.5088 46.4693 13.9162 47.4569 13.3236C48.1088 12.9384 49.7483 12.7211 52.0594 12.7211C53.3236 12.7211 54.3409 12.7902 54.3507 12.7902C54.3606 12.7902 54.3705 12.7902 54.3804 12.7902C54.4693 12.7902 54.5582 12.7705 54.6372 12.7211L61.0668 8.90875C61.2742 8.79023 61.3631 8.53344 61.2742 8.31616C61.2051 8.11863 61.0174 7.99023 60.81 7.99023L60.8495 8.00011ZM41.6199 41.2248C41.5606 40.8791 41.5211 40.5038 41.5014 40.1285L41.9162 40.2767C41.9359 40.6322 41.9754 40.9779 42.0248 41.3236C41.9063 41.2939 41.7878 41.2643 41.6791 41.2446C41.6594 41.2446 41.6396 41.2446 41.6199 41.2347V41.2248ZM44.4051 41.8865C44.3458 41.6297 44.2964 41.3729 44.2668 41.1162L44.6915 41.2643C44.731 41.5112 44.7705 41.7483 44.8199 41.9853L44.7409 41.9655C44.6322 41.9359 44.5236 41.9162 44.4149 41.8865H44.4051ZM47.2495 42.5878C47.21 42.4495 47.1606 42.3013 47.1211 42.1433L47.5359 42.2915C47.5656 42.4297 47.6051 42.5581 47.6446 42.6865C47.5162 42.6569 47.3779 42.6174 47.2495 42.5878Z" fill="white"/>
<path d="M42.4493 54.3901C42.4493 54.3901 43.0814 52.5926 43.5555 51.2395C43.2493 51.3383 35.6542 52.5629 35.6542 52.5629C35.6542 52.5629 37.0666 51.1605 38.8839 49.3333C38.4197 49.1852 37.9555 49.037 37.5011 48.879C36.0592 48.3654 34.6567 47.8025 33.353 47.1802C31.9999 46.5481 30.7061 45.8469 29.4913 45.1062C28.4345 44.4543 27.3678 43.842 26.3308 43.2988C25.3826 42.8049 24.4345 42.3506 23.4863 41.9358C24.3653 43.7432 25.3925 45.4321 26.5085 46.8346C29.9456 51.1506 34.7061 54.3802 40.316 56.7012C43.3481 55.4469 46.1234 53.916 48.5925 52.1086C47.6048 52.4741 42.4493 54.3901 42.4493 54.3901Z" fill="#00A9D8"/>
<path d="M37.8268 24.7209C37.7083 24.2567 37.6688 23.7926 37.6885 23.3284C37.7182 22.7555 37.8564 22.1926 38.0638 21.6296C38.2713 21.0864 38.5577 20.5432 38.9034 20.0197C39.2392 19.4963 39.6441 18.9926 40.0787 18.4987C40.5034 18.0148 40.9675 17.5506 41.4614 17.1061C41.9453 16.6617 42.4392 16.237 42.9527 15.8419C43.4564 15.4469 43.9601 15.0716 44.4638 14.716C45.4416 14.0247 46.4095 13.4123 47.2589 12.9185C48.8885 11.9605 54.4392 12.316 54.4392 12.316L60.8688 8.50366C59.091 8.81971 57.4713 9.06663 56.0194 9.27403C54.5577 9.47156 53.254 9.60984 52.1182 9.7086C49.8169 9.90613 48.1675 9.91601 47.012 9.837C44.7009 9.68885 44.3453 9.22465 44.3453 9.22465L45.3824 13.3926C44.1083 13.6296 42.9034 13.8864 41.7676 14.153C40.612 14.4296 39.5453 14.7259 38.528 15.0321C37.5009 15.3481 36.5429 15.6839 35.6342 16.0296C34.7157 16.3851 33.8564 16.7506 33.0564 17.1358L32.5527 17.3827C34.775 19.9308 36.6317 22.7358 37.8466 24.7209H37.8268Z" fill="black"/>
<path d="M26.3901 21.4419C26.0741 21.7184 25.7778 22.0049 25.4914 22.2814C24.563 23.2098 23.8025 24.1184 23.2 24.9777C22.5778 25.8666 22.1136 26.6863 21.7679 27.3876C21.0864 28.7802 20.8889 29.6987 20.8691 29.7876C24.3358 28.3061 25.837 24.9382 26.3901 21.4419Z" fill="black"/>
<path d="M76.2862 45.6593C75.4665 45.1951 74.4591 44.6222 73.2344 43.9605C72.0393 43.3087 70.6566 42.5679 69.0764 41.7482C68.306 41.3432 67.4862 40.9284 66.6171 40.4939C65.7677 40.0593 64.8689 39.6148 63.9307 39.1506C63.0023 38.6963 62.0443 38.2321 61.0467 37.7482C60.0492 37.2741 59.022 36.7901 57.9554 36.2864C56.9084 35.8025 55.8122 35.2988 54.6961 34.7852C53.5899 34.2815 52.4541 33.7778 51.2788 33.2543C50.1233 32.7408 48.9381 32.2272 47.7134 31.7037C46.5085 31.1901 45.2936 30.6766 44.0294 30.1432C42.7949 29.6297 41.7578 29.0864 40.9183 28.5235C40.2171 28.0593 39.6541 27.5852 39.1998 27.0914C38.2122 25.2741 32.385 14.9235 25.8862 11.9111C25.8862 11.9111 26.9134 17.4914 26.3801 21.4321C25.827 24.9284 24.3257 28.2963 20.8591 29.7778L14.4591 32.2568L1.23438 37.363V37.4222C9.94549 35.0716 19.4665 36.9087 21.8665 37.442L22.3899 37.5704H22.4393C22.706 37.6297 22.9825 37.6889 23.2689 37.7482C24.9183 38.0741 26.5282 38.4099 28.0986 38.7358C29.6986 39.0716 31.2591 39.3976 32.7801 39.7334C34.3208 40.0692 35.8122 40.405 37.2739 40.7309C38.6171 41.0371 39.9208 41.3432 41.185 41.6297C41.0566 40.9482 40.9875 40.2173 40.9875 39.4469V39.4173L42.3899 39.921C42.4196 40.642 42.4986 41.3334 42.6467 41.9753C42.2813 41.8963 41.9257 41.7976 41.5603 41.7185C42.7455 42.005 43.901 42.2815 45.027 42.5482C44.6813 42.4692 44.3356 42.3803 43.9899 42.2914C43.8418 41.6988 43.7331 41.0568 43.6739 40.3852L45.1257 40.9087C45.2047 41.5309 45.3233 42.1235 45.4912 42.6667L45.6393 42.6963C46.2023 42.8346 46.7455 42.9729 47.2986 43.1111L46.8739 43.0025C46.6961 42.5087 46.5677 41.9556 46.4689 41.3827L47.9702 41.9259C48.0887 42.4494 48.2368 42.9432 48.4146 43.3877L47.9208 43.2593C48.4443 43.3877 48.9578 43.5259 49.4615 43.6445C50.6961 43.9605 51.8714 44.2667 52.9973 44.563C54.143 44.8593 55.2294 45.1556 56.2467 45.442L56.7504 45.5803C61.0961 46.5976 69.2936 48.0099 78.7455 47.1013C78.7455 47.1013 77.9356 46.5976 76.2764 45.6395L76.2862 45.6593Z" fill="#00A9D8"/>
<path d="M54.4395 46.1332C52.0197 45.8468 53.4024 46.1135 51.8716 45.0468L57.9456 46.1135C57.9456 46.1135 56.8691 46.4197 54.4395 46.1332ZM56.7605 45.59L56.2666 45.4518C55.2395 45.1752 54.1531 44.8789 53.0173 44.5826C51.8814 44.2863 50.7061 43.9703 49.4716 43.6641C48.2469 43.3579 46.9728 43.032 45.6494 42.7061C44.3358 42.39 42.9827 42.0542 41.5802 41.7283C40.1975 41.4024 38.7654 41.0666 37.2839 40.7308C35.9802 40.4444 34.637 40.1382 33.274 39.8419C27.9407 38.6073 25.2938 36.0295 25.2938 36.0295C25.5605 36.9579 25.9851 37.7382 26.4493 38.3999C25.4024 38.1925 24.3555 37.9752 23.2889 37.7579L22.8247 37.669L22.4592 37.59H22.4098V37.5802L21.8864 37.4518C19.4864 36.9184 9.9654 35.0814 1.26416 37.432C1.68885 37.3332 2.35058 37.1752 3.20984 37.0369C4.78021 36.7604 6.99256 36.5135 9.61972 36.553C10.9432 36.5728 12.3753 36.6715 13.8963 36.8789C15.4271 37.0863 17.0568 37.4024 18.7851 37.8765C19.6543 38.1135 20.553 38.39 21.4716 38.716C22.4 39.0419 23.3481 39.4172 24.3358 39.8419C25.3333 40.2765 26.3506 40.7604 27.4074 41.3135C28.474 41.8765 29.5703 42.4987 30.716 43.1999C31.8716 43.911 33.0864 44.5629 34.3407 45.1555C35.6247 45.7579 36.9382 46.2913 38.2814 46.7653C39.6444 47.2493 41.037 47.6641 42.4395 48.0295L43.2592 48.2271L42.1827 49.3036L44.6814 48.553C45.3531 48.7011 46.0247 48.8295 46.7061 48.9481L46.795 48.9678L46.2222 50.5974L49.5111 49.3826C49.995 49.4518 50.4691 49.5011 50.9531 49.5604V51.8913L56.3456 49.9357C56.6321 49.9456 56.9185 49.9555 57.2049 49.9555L56.3456 51.7728L59.1703 49.9555C60.5037 49.9555 61.7777 49.9061 63.0123 49.837C65.1555 49.7086 67.1407 49.511 68.9086 49.2641L69.6 49.1653C71.5358 48.8789 73.2148 48.5629 74.5777 48.2567C77.274 47.6542 78.7852 47.1308 78.7852 47.1308C69.3333 48.0295 61.1358 46.6271 56.7901 45.5999L56.7605 45.59Z" fill="black"/>
<path d="M48.6221 45.6494L50.2221 45.7778C49.5011 45.3333 48.869 44.4839 48.4245 43.3876C47.9208 43.2592 47.4072 43.1308 46.8838 43.0024C47.2887 44.1876 47.9011 45.116 48.6221 45.6494Z" fill="#00A9D8"/>
<path d="M44.2664 45.284C43.5454 44.5432 42.9726 43.3778 42.6664 41.9753C42.301 41.8963 41.9356 41.8074 41.58 41.7185L41.1948 41.6296C41.4714 43.1111 42.0343 44.3556 42.7553 45.1556" fill="#00A9D8"/>
<path d="M45.6591 45.4025L47.1999 45.5309C46.4789 44.9284 45.8863 43.9309 45.5011 42.6667C45.0073 42.5482 44.5036 42.4297 44.0098 42.3013C44.3554 43.6346 44.9382 44.7309 45.6591 45.4025Z" fill="#00A9D8"/>
<path d="M48.5037 71.6445C48.1975 71.6445 48.0889 71.6445 47.921 71.5852C47.516 71.4766 47.4074 71.1704 47.3778 70.8346L47.2296 71.2889C46.9629 71.6247 46.7555 71.6445 45.9457 71.6445C45.0667 71.6445 44.6025 71.605 44.6025 70.8247V70.5778L44.6913 70.5383C44.6222 70.4198 44.6025 70.2519 44.6025 70.0544C44.6025 69.6791 44.6815 69.2939 45.2543 69.2346C45.3234 69.2346 45.3926 69.2346 45.4716 69.2346H45.995C46.8247 69.2346 47.2889 69.2741 47.2889 70.0149V70.2618L47.2296 70.2815L47.3679 70.6963V69.2445H48.4346V70.5383C48.4346 70.6371 48.4346 70.6667 48.4444 70.6865C48.4642 70.6865 48.721 70.6865 48.8592 70.6865C49.0271 70.6865 49.116 70.6865 49.1654 70.6766L49.2346 70.3112V69.2544H53.9259V69.926H54.716V69.2544H55.8321V71.6544H54.716V70.9828H53.9259V71.6544H52.8099V70.2223H52.0592V71.6544H50.9926V70.2223H50.2913V70.5976C50.2716 71.5062 49.9555 71.6544 48.9975 71.6544H48.5136L48.5037 71.6445ZM26.5383 71.6445C26.1629 71.6445 26.0247 71.6445 25.837 71.5852C25.3333 71.447 25.3333 71.0124 25.3234 70.5877V69.2346H26.3901V70.5284C26.3901 70.5284 26.3901 70.6667 26.3901 70.6963C26.3901 70.6667 26.6173 70.6667 26.7555 70.6667C26.9531 70.6667 27.0518 70.6667 27.1111 70.647L27.1802 70.2914V69.2346H28.2469V70.5778C28.237 71.4865 27.9111 71.6346 26.9531 71.6346H26.5383V71.6445ZM69.7383 71.6445V69.2445H71.3679C71.8222 69.2445 71.8913 69.2445 72.0296 69.284L72.1284 69.3038L72.4148 69.4223L72.4543 69.4618C72.642 69.6494 72.721 69.926 72.721 70.4001C72.721 70.8741 72.721 71.1803 72.5037 71.3877C72.2864 71.605 72.0197 71.6445 71.3778 71.6445H69.7481H69.7383ZM71.3679 70.6766C71.5358 70.6766 71.6346 70.6766 71.6741 70.6568C71.6741 70.6568 71.6543 70.5383 71.6543 70.4297L71.6247 70.2223H70.8049V70.6865H71.3679V70.6766ZM68.3259 71.6445L67.6543 70.6766V71.6445H65.7383L65.5506 71.3087H64.6123L64.4642 71.6445H60.237C60.237 71.6445 60.237 71.1902 60.237 71.1704H59.5358V71.6445H58.4691V69.2445H60.4346C60.9778 69.2445 61.2247 69.3926 61.2839 69.8075V69.2445H62.4V70.6766H63.7333L64.4839 69.2445H65.6889L66.5778 71.0223V69.2445H67.9605L68.6123 70.2124L68.5827 69.2445H69.7086V71.6445H68.3358H68.3259ZM61.2938 70.9531V70.3803C61.2741 70.5087 61.2247 70.6371 61.1259 70.7359L61.2938 70.9531ZM65.0864 70.3803L65.0666 70.3507L65.0469 70.3803H65.0864ZM55.8518 71.6346V69.2346H58.4395V70.1531H58.3407V70.6568H58.4395V71.6247H55.8518V71.6346ZM35.0123 71.6346L34.8247 71.2988H33.8864L33.7481 71.6346H28.2765V69.2346H29.3432V70.6667H30.5679V69.2346H31.6839V70.6667H33.0173L33.7679 69.2346H34.9728L36.1778 71.6346H35.0123ZM34.3605 70.3803L34.3407 70.3507L34.321 70.3803H34.3605ZM23.9111 71.6346L23.2395 70.6766V71.6346H22.1728V69.2346H23.5555L24.1975 70.2025L24.1679 69.2346H25.2938V71.6346H23.921H23.9111ZM20.7012 71.6346C20.1975 71.6346 19.8815 71.6346 19.6543 71.5852C19.1012 71.4766 19.0716 71.1112 19.0716 70.5284C19.0716 70.4692 19.0716 70.4099 19.0716 70.3605C19.0518 70.4988 19.0123 70.6371 18.9037 70.726L19.0815 70.9729V71.6346H18.0148C18.0148 71.6346 18.0148 71.1803 18.0148 71.1605H17.3629V71.6346H16.2469V71.042C16.1481 71.605 15.6642 71.6346 14.9234 71.6346C14.3704 71.6346 14.1728 71.6346 13.9654 71.5852C13.4913 71.4963 13.3926 71.1902 13.3926 70.726V70.4396C13.3926 69.7778 13.3926 69.4124 13.916 69.2939C14.1333 69.2445 14.4395 69.2445 14.9728 69.2445C15.8123 69.2445 16.2173 69.284 16.2173 70.0642V70.3112L16.0197 70.3902H16.2568V69.2445H18.2222C18.8642 69.2445 19.0815 69.442 19.0913 70.0346C19.1308 69.5704 19.2691 69.3136 19.7136 69.2445C19.7827 69.2346 19.8518 69.2346 19.9308 69.2346C19.9308 69.2346 20.3555 69.2445 20.5136 69.2445C21.037 69.2445 21.3728 69.2643 21.5605 69.2939C22.1037 69.3926 22.1432 69.7581 22.1432 70.3507C22.1432 70.9828 22.1432 71.2494 21.916 71.447C21.7086 71.6346 21.3827 71.6544 20.7012 71.6544V71.6346ZM20.1086 70.2025C20.1086 70.2025 20.1383 70.3408 20.1383 70.4396C20.1383 70.5284 20.1383 70.647 20.1481 70.6865C20.158 70.6667 20.3852 70.6667 20.5136 70.6667H20.9383C21.0469 70.6667 21.0864 70.6667 21.0864 70.6568C21.0667 70.6568 21.0667 70.4593 21.0667 70.3408L21.0469 70.1926C20.9679 70.1926 20.8099 70.1926 20.6815 70.1926H20.1086V70.2025ZM14.4592 70.6568C14.5481 70.6568 14.6765 70.6568 14.7852 70.6568H15.0716C15.2197 70.6568 15.2592 70.647 15.2592 70.6371V70.3902H15.3086H15.279L15.1308 70.2025C15.1308 70.2025 14.5481 70.2025 14.479 70.2025L14.4494 70.4099C14.4494 70.4099 14.4494 70.6075 14.4494 70.6568H14.4592Z" fill="black"/>
<path d="M19.9311 69.4716C20.0693 69.4716 20.2372 69.4815 20.5138 69.4815C20.978 69.4815 21.3335 69.4913 21.5113 69.5308C21.8274 69.5901 21.8965 69.7185 21.8965 70.3407C21.8965 70.9629 21.8768 71.1407 21.7582 71.2494C21.62 71.3679 21.373 71.3876 20.7113 71.3876C20.2471 71.3876 19.9311 71.3876 19.7138 71.3383C19.378 71.2691 19.3286 71.1407 19.3286 70.5284V70.4296C19.3286 69.6987 19.3977 69.5308 19.7533 69.4716C19.8126 69.4716 19.8718 69.4617 19.9409 69.4617M20.5237 70.9037H20.9484C21.3138 70.9037 21.3335 70.8346 21.3335 70.3308L21.2842 69.995C21.2842 69.995 21.0274 69.9457 20.6718 69.9457C20.6521 69.9457 20.6323 69.9457 20.6126 69.9457H20.0891C19.9113 69.9654 19.9113 70.0543 19.9014 70.4197V70.4691C19.9014 70.8741 19.9212 70.8938 20.5237 70.8938M45.4718 69.4617C45.62 69.4617 45.7977 69.4617 45.9953 69.4617C46.894 69.4617 47.0422 69.5308 47.0422 69.9852V70.0839H46.5187L46.1829 69.8963H45.8965C45.7286 69.8963 45.62 69.8963 45.5409 69.8963C45.3928 69.8963 45.373 69.9062 45.373 69.995L45.5113 70.1333C45.5903 70.1531 45.7187 70.1728 46.0842 70.1827C46.7755 70.2123 46.8743 70.2123 46.9928 70.321L47.1311 70.7457L46.9928 71.1704C46.8644 71.3284 46.7558 71.358 45.9459 71.358C44.9681 71.358 44.8496 71.279 44.8496 70.7852V70.6864H45.373C45.373 70.8839 45.3928 70.9234 45.7088 70.9234H46.2323L46.5681 70.7852L46.2817 70.6469L45.8965 70.5975H45.4224C44.9582 70.5778 44.8496 70.4296 44.8496 70.0247C44.8496 69.6197 44.9484 69.4815 45.2743 69.4518C45.3335 69.4518 45.3928 69.4518 45.4619 69.4518M71.3681 69.4518C71.8817 69.4518 71.8619 69.4617 72.0397 69.5012L72.2768 69.6C72.4051 69.7284 72.4644 69.9654 72.4644 70.3605C72.4644 70.8543 72.4545 71.042 72.3261 71.1704C72.1879 71.3086 72.02 71.358 71.3681 71.358H69.9854V69.4518H71.3681ZM70.5582 70.8839H71.3681C71.9014 70.8839 71.8916 70.8345 71.8916 70.3605L71.8422 69.9753C71.8422 69.9753 71.7237 69.9259 71.5064 69.9259C71.4669 69.9259 71.4175 69.9259 71.3681 69.9259H70.5582V70.8839ZM69.4619 69.4518V71.358H68.4644L67.4669 69.9259H67.4175V71.358H66.8447V69.4518H67.8422L68.8002 70.8839H68.899L68.8496 69.4518H69.4718M65.5607 69.4518L66.5187 71.358H65.8965L65.7088 71.0222H64.4644L64.3261 71.358H63.6545L64.6521 69.4518H65.5607ZM64.6521 70.5975H65.5113L65.1261 69.8864H65.0274L64.6422 70.5975M62.1632 69.4518V70.8839H63.4965V71.358H61.5409V69.4518H62.1632ZM60.4447 69.4518C60.9484 69.4518 61.0669 69.5506 61.0669 70.0247C61.0669 70.4296 61.0175 70.5679 60.7805 70.5975V70.6469L61.0669 71.0321V71.3679H60.494V71.2296C60.494 70.9037 60.4644 70.9037 60.257 70.8938H59.299V71.3679H58.7261V69.4617H60.4447M59.299 70.4197H60.257L60.494 70.1827L60.4447 69.995L60.1088 69.9457H59.299V70.4197ZM58.2027 69.4617V69.8864H56.6718V70.1728H58.1039V70.5975H56.6718V70.8839H58.2027V71.358H56.099V69.4518H58.2027M55.5755 69.4518V71.358H54.9533V70.6864H53.6693V71.358H53.0471V69.4518H53.6693V70.1234H54.9533V69.4518H55.5755ZM52.6619 69.4518V69.9259H51.8027V71.358H51.2298V69.9259H50.3706V69.4518H52.6619ZM50.0348 69.4518V70.5481C50.015 71.2592 49.8669 71.358 48.9879 71.358C48.7706 71.358 48.6126 71.358 48.494 71.358C48.2076 71.358 48.1286 71.358 47.9805 71.3086C47.694 71.2296 47.6051 71.0518 47.5953 70.5481V69.4518H48.1681V70.4987C48.1681 70.8543 48.2274 70.8839 48.8397 70.8839C49.2249 70.8839 49.3039 70.8642 49.3632 70.7852L49.4619 70.3111V69.4518H50.0348ZM34.815 69.4518L35.773 71.358H35.1508L34.9632 71.0222H33.7187L33.5805 71.358H32.9088L33.9064 69.4518H34.815ZM33.9064 70.5975H34.7656L34.3805 69.8864H34.2817L33.8965 70.5975M31.4175 69.4518V70.8839H32.7508V71.358H30.7953V69.4518H31.4175ZM29.0768 69.4518V70.8839H30.4101V71.358H28.5039V69.4518H29.0768ZM27.9805 69.4518V70.5481C27.9706 71.2592 27.8126 71.358 26.9335 71.358C26.7656 71.358 26.6175 71.358 26.5088 71.358C26.1533 71.358 26.0348 71.358 25.8866 71.3086C25.6002 71.2296 25.5607 71.042 25.5508 70.5481V69.4518H26.1237V70.4987C26.1237 70.8642 26.1434 70.8839 26.7459 70.8839C27.1311 70.8839 27.2496 70.8543 27.3187 70.7852L27.4175 70.3111V69.4518H27.9903M25.0372 69.4518V71.358H24.0397L23.0422 69.9259H22.9928V71.358H22.42V69.4518H23.4175L24.3755 70.8839H24.4743L24.4249 69.4518H25.0471M18.2224 69.4518C18.736 69.4518 18.8447 69.5506 18.8447 70.0247C18.8447 70.4296 18.7953 70.5679 18.5582 70.5975V70.6469L18.8447 71.0321V71.3679H18.2718V71.2296C18.2718 70.9037 18.2422 70.9037 18.0348 70.8938H17.1261V71.3679H16.5039V69.4617H18.2224M17.1261 70.4197H18.0348L18.3212 70.1827L18.2718 69.995L17.8866 69.9457H17.1261V70.4197ZM14.9829 69.4617C15.8817 69.4617 15.9805 69.521 15.9805 70.0346V70.1333H15.4076L15.2693 69.9457H14.7953C14.7953 69.9457 14.7558 69.9457 14.736 69.9457C14.4101 69.9457 14.3212 69.9457 14.2718 69.995L14.2224 70.3802C14.2224 70.6864 14.2126 70.8148 14.2718 70.8543C14.3212 70.9037 14.4792 70.9037 14.7953 70.9037H15.0817C15.3977 70.9037 15.457 70.8444 15.4669 70.716V70.6173H16.0397V70.8049C16.0397 71.2889 15.8817 71.3778 14.9434 71.3778C14.4002 71.3778 14.2224 71.3778 14.0348 71.3284C13.7385 71.2691 13.6595 71.1308 13.6496 70.7062V70.321C13.6496 69.6987 13.6792 69.5802 13.9854 69.5111C14.173 69.4716 14.4496 69.4617 14.9829 69.4617ZM19.9409 68.958C19.8422 68.958 19.7632 68.958 19.6842 68.9778C19.4175 69.0173 19.2397 69.116 19.1113 69.2543C18.9335 69.0666 18.6471 68.9778 18.2323 68.9778H16.02V69.116C15.7335 68.9778 15.3582 68.9778 14.9829 68.9778C14.4397 68.9778 14.1237 68.9778 13.8866 69.037C13.1558 69.2049 13.1558 69.7778 13.1558 70.3308V70.716C13.1558 71.0025 13.1558 71.6741 13.936 71.8222C14.173 71.8716 14.4002 71.8815 14.9335 71.8815C15.3088 71.8815 15.7039 71.8815 16.0101 71.7432V71.8815H17.62V71.4074H17.778V71.8815H19.3385V71.7432C19.4175 71.7827 19.5064 71.8025 19.6051 71.8222C19.8619 71.8716 20.178 71.8815 20.7014 71.8815C21.2743 71.8815 21.6496 71.8815 21.9261 71.7234V71.8815H23.4866V71.4568L23.6348 71.6741L23.7829 71.8815H25.5311V71.7234C25.6002 71.7629 25.6792 71.7926 25.7681 71.8123C25.9854 71.8716 26.1434 71.8815 26.5187 71.8815H26.6866H26.9434C27.4076 71.8815 27.773 71.842 28.02 71.6839V71.8815H33.8965L34.0249 71.5852L34.0447 71.5457H34.6768L34.7261 71.6346L34.8644 71.8815H36.573L36.2175 71.1704L35.2595 69.2642L35.1212 68.9876H33.6101L33.4718 69.2543L32.8595 70.4197H31.9212V68.9876H30.3113V70.4197H29.5805V68.9876H26.9237V70.2913L26.894 70.4197C26.894 70.4197 26.8051 70.4197 26.7459 70.4197C26.7163 70.4197 26.6669 70.4197 26.6175 70.4197V68.9876H23.8916V69.3432L23.8126 69.2049L23.6644 68.9876H21.9064V69.1555C21.8175 69.1062 21.7088 69.0765 21.5903 69.0469C21.3829 69.0074 21.0372 68.9876 20.494 68.9876C20.3459 68.9876 20.2274 68.9876 20.1286 68.9876C20.0496 68.9876 19.9805 68.9876 19.9212 68.9876L19.9409 68.958ZM45.4718 68.958C45.3829 68.958 45.3138 68.958 45.2447 68.958C44.6521 69.0173 44.3558 69.3728 44.3558 70.0247C44.3558 70.0839 44.3558 70.1432 44.3558 70.2025V70.795C44.3558 71.8617 45.1656 71.8617 45.9459 71.8617C46.7261 71.8617 47.0718 71.8518 47.3681 71.4963C47.4767 71.6247 47.6348 71.7333 47.8619 71.7926C48.0693 71.8518 48.2076 71.8617 48.5039 71.8617H48.6817H48.9977C50.0051 71.8617 50.5187 71.6642 50.5385 70.5679V70.4296H50.7459V71.8617H52.3064V70.4296H52.5632V71.8617H54.173V71.1901H54.4693V71.8617H59.8027V71.3876H60.0101V71.8617H64.6422L64.7706 71.5654L64.7903 71.5259H65.4224L65.4718 71.6148L65.6101 71.8617H67.9212V71.437L68.0693 71.6543L68.2175 71.8617H71.3879C72.0693 71.8617 72.4051 71.8123 72.6916 71.5259C72.978 71.2494 72.978 70.8741 72.978 70.3704C72.978 69.9852 72.9385 69.5506 72.6422 69.2543L72.573 69.1852L72.4743 69.1457L72.2372 69.0469L72.1977 69.0271H72.1582L72.1089 69.0074C71.9409 68.9679 71.8422 68.958 71.3977 68.958H68.3558V69.3136L68.2767 69.1753L68.1286 68.958H66.3706V69.9358L66.015 69.2345L65.8767 68.958H64.3656L64.2274 69.2247L63.615 70.3901H62.6767V68.958H61.0669V69.0469C60.8891 68.9679 60.6718 68.958 60.4644 68.958H54.4891V69.6296H54.1928V68.958H49.0076V70.2617L48.978 70.3901C48.978 70.3901 48.9187 70.3901 48.8792 70.3901C48.8397 70.3901 48.7706 70.3901 48.7014 70.3901V69.4518V68.958H47.1409V69.1259C46.8348 68.958 46.4101 68.958 46.015 68.958H45.7187H45.4916H45.4718Z" fill="white"/>
</svg>
