<svg width="80" height="80" viewBox="0 0 80 80" fill="none" xmlns="http://www.w3.org/2000/svg">
<g clip-path="url(#clip0_401_986)">
<path d="M71.7764 38.1804C71.4692 37.8513 71.0743 37.6319 70.6354 37.588C71.0743 36.7104 71.3595 35.7669 71.5131 34.8015C71.6228 34.0994 71.3376 33.3973 70.7671 32.9804C70.6793 32.9146 70.5696 32.8488 70.4599 32.8049C70.5916 32.2783 70.6793 31.7078 70.7232 31.0935C70.7671 30.3914 70.3941 29.7112 69.7798 29.3601C69.7578 29.3382 69.7359 29.3382 69.7139 29.3382C69.8236 28.8335 69.8675 28.285 69.8675 27.6926C69.8675 26.793 69.2312 26.0251 68.3536 25.8715C68.3316 25.5643 68.3097 25.2791 68.2439 24.9719C68.1122 24.1601 67.454 23.5458 66.6422 23.4361C66.5983 22.8656 66.4886 22.2732 66.2911 21.7247C66.0717 21.0884 65.5451 20.6057 64.8869 20.496V19.5525C63.8118 18.5871 54.3772 10.5128 40.1594 10.5128C25.8319 10.5128 16.5728 18.5213 15.4319 19.5525V20.474C14.7298 20.5837 14.1593 21.0664 13.9399 21.7247C13.7424 22.3171 13.6327 22.8875 13.6108 23.4361C12.799 23.5458 12.1408 24.1601 12.0091 24.9719C11.9652 25.2791 11.9213 25.5643 11.8994 25.8715C11.0218 26.0251 10.3855 26.793 10.3855 27.6926C10.3855 28.2631 10.4294 28.8116 10.5391 29.3382L10.4732 29.3601C9.85889 29.7112 9.4859 30.3914 9.52978 31.0935C9.57366 31.7078 9.66142 32.2783 9.79307 32.8049C9.68336 32.8488 9.57366 32.9146 9.48589 32.9804C8.91543 33.3973 8.60825 34.0994 8.7399 34.8015C8.89349 35.7669 9.17872 36.7104 9.61754 37.588C8.58631 37.7197 7.8842 38.6631 8.01585 39.6724C8.03779 39.826 8.08167 39.9796 8.12555 40.1332C8.43273 40.8792 8.76184 41.5154 9.13484 42.064C8.2572 42.5686 7.95003 43.6437 8.38885 44.5433C8.84961 45.4429 9.35425 46.1889 9.88083 46.8032C9.72724 46.9349 9.5956 47.0665 9.48589 47.242C9.09096 47.8345 9.06902 48.6024 9.44201 49.2167C9.9686 50.1163 10.6049 50.9501 11.3289 51.6961C11.1973 51.8277 11.0656 52.0032 10.9779 52.1788C10.6707 52.8151 10.7585 53.583 11.1754 54.1315C12.1627 55.3822 13.172 56.3037 14.1593 56.94C13.3695 57.5982 13.2597 58.7611 13.896 59.5509C13.9619 59.6387 14.0496 59.7265 14.1374 59.7923C15.2125 60.6919 16.2657 61.3282 17.253 61.767C16.4412 62.4033 16.3095 63.5881 16.9458 64.378C17.0994 64.5754 17.2749 64.729 17.4944 64.8387C19.1399 65.7822 20.6319 66.2649 21.9703 66.4624C21.334 67.2742 21.4437 68.4371 22.2556 69.0953C22.4311 69.2269 22.6066 69.3366 22.8041 69.4025C24.4497 69.9729 25.9197 70.2143 27.1923 70.2143C28.2235 70.2143 29.145 70.0607 29.9568 69.8193C30.1104 70.0168 30.264 70.1923 30.4615 70.2801C33.3577 71.7721 36.4294 72.4742 40.1813 72.4742C43.9113 72.4742 47.005 71.7721 49.9012 70.2801C50.0767 70.1923 50.2303 70.0387 50.3839 69.8413C51.2615 70.0826 52.1611 70.2143 53.0607 70.2143C54.3333 70.2143 55.8033 69.9729 57.4489 69.4025C58.4143 69.0514 58.9409 67.9982 58.5898 67.0328C58.524 66.8354 58.4143 66.6379 58.2827 66.4843C59.6211 66.2649 61.1131 65.7822 62.7586 64.8607C63.6582 64.356 63.9654 63.2151 63.4607 62.3155C63.351 62.118 63.1755 61.9206 63 61.767C63.9873 61.3282 65.0405 60.6919 66.1156 59.7923C66.9055 59.1341 67.0152 57.9492 66.357 57.1813C66.2911 57.0936 66.2034 57.0058 66.1156 56.94C67.1029 56.3037 68.1122 55.4041 69.0996 54.1315C69.5384 53.5611 69.6262 52.8151 69.297 52.1788C69.2093 52.0032 69.0996 51.8277 68.946 51.6961C69.692 50.9501 70.3283 50.1163 70.8329 49.2167C71.184 48.6024 71.162 47.8345 70.789 47.242C70.6793 47.0665 70.5477 46.9349 70.3722 46.8032C70.8987 46.1889 71.4034 45.4429 71.8861 44.5433C72.3468 43.6657 72.0177 42.5686 71.1401 42.064C71.5131 41.5154 71.8422 40.8792 72.1274 40.1332C72.3907 39.453 72.2591 38.707 71.7764 38.1804Z" fill="white"/>
<path d="M28.9918 65.497C28.9918 65.4531 29.0137 64.4877 29.1673 63.4126C29.2331 62.9518 29.3428 62.5569 29.4525 62.2058C22.7605 57.4665 15.4322 50.226 15.4322 41.1644V20.9128C14.9276 21.0006 14.5107 21.3736 14.3571 21.8563C14.1158 22.5584 14.028 23.2166 14.028 23.8529C13.2601 23.7432 12.558 24.2698 12.4263 25.0377C12.3605 25.4546 12.3166 25.8496 12.3386 26.2664C11.5487 26.2226 10.8685 26.815 10.8246 27.5829C10.8246 27.6048 10.8246 27.6487 10.8246 27.6707C10.8246 28.3947 10.9124 29.031 11.044 29.5795C10.3858 29.7551 9.92505 30.3694 9.96893 31.0496C10.0128 31.8175 10.1445 32.4977 10.32 33.0901C9.55205 33.2217 9.02546 33.9458 9.15711 34.7357C9.39846 36.1838 9.85922 37.3028 10.4297 38.1365C9.70563 37.8074 8.87188 38.1365 8.54276 38.8386C8.38917 39.1897 8.36723 39.6066 8.52082 39.9576C8.89382 40.9011 9.33264 41.6471 9.7934 42.2834C9.02546 42.415 8.49888 43.1391 8.60859 43.9289C8.63053 44.0825 8.67441 44.2142 8.74023 44.3458C9.28876 45.4209 9.9031 46.2766 10.5613 46.9349C9.81534 47.1762 9.4204 47.988 9.66175 48.734C9.68369 48.8218 9.72758 48.9096 9.7934 48.9973C10.4736 50.1821 11.2415 51.0598 11.9875 51.7399C11.2854 52.091 11.0221 52.9686 11.3732 53.6707C11.417 53.7585 11.4609 53.8243 11.5048 53.8902C12.5799 55.2724 13.7867 56.3037 15.0812 56.9838C15.0592 56.9838 15.0373 56.9838 15.0154 57.0058C14.2474 57.1813 13.7647 57.9492 13.9402 58.7172C14.0061 59.0244 14.1816 59.2876 14.4229 59.5071C15.7394 60.6041 17.0998 61.372 18.4601 61.8109C18.2626 61.8328 18.0432 61.8986 17.8457 61.9644C17.1217 62.2716 16.7706 63.1054 17.0998 63.8294C17.2314 64.1147 17.4289 64.356 17.7141 64.5096C19.8424 65.7164 21.7074 66.1552 23.3091 66.1991C23.0677 66.2868 22.8483 66.3746 22.6289 66.5062C21.9707 66.9451 21.7951 67.8227 22.212 68.4809C22.3875 68.7442 22.6289 68.9417 22.9361 69.0514C24.5377 69.5999 25.942 69.8193 27.1707 69.8193C28.1141 69.8193 28.9479 69.6877 29.6939 69.4902C29.4745 69.0294 29.277 68.3932 29.1454 67.6252C29.0576 66.8792 29.0137 66.1771 28.9918 65.497ZM71.4476 38.4656C71.0307 38.0049 70.3505 37.8513 69.802 38.1146C70.3725 37.2808 70.8333 36.1618 71.0746 34.7137C71.2062 33.9458 70.6797 33.2217 69.9117 33.0901C70.0873 32.4977 70.2189 31.8395 70.2628 31.0496C70.3067 30.3694 69.8459 29.7551 69.1877 29.5795C69.3413 29.031 69.429 28.3947 69.4071 27.6707C69.4071 26.8808 68.7489 26.2445 67.959 26.2445C67.937 26.2445 67.9151 26.2445 67.8712 26.2445C67.8712 25.8276 67.8493 25.4107 67.7835 25.0158C67.6518 24.2479 66.9497 23.7432 66.1818 23.831C66.1818 23.1508 66.0721 22.4707 65.8526 21.8344C65.6991 21.3736 65.3261 21.0225 64.8653 20.9128V41.1424C64.8653 50.2041 57.537 57.4665 50.845 62.1839C50.9547 62.5349 51.0425 62.9299 51.1302 63.3906C51.3058 64.4657 51.3058 65.4311 51.3277 65.475C51.3277 65.5189 51.3058 66.4843 51.1302 67.5594C50.9986 68.3493 50.8231 68.9856 50.5817 69.4463C51.3058 69.6438 52.1176 69.7535 53.0391 69.7535C54.2678 69.7535 55.672 69.5341 57.2737 68.9636C58.0197 68.7003 58.4147 67.8885 58.1514 67.1425C58.0417 66.8573 57.8442 66.594 57.5809 66.4185C57.3615 66.2868 57.1421 66.1771 56.9007 66.1113C58.5024 66.0674 60.3674 65.6286 62.4957 64.4218C63.1758 64.0269 63.4172 63.1712 63.0223 62.4691C62.8687 62.2058 62.6273 61.9864 62.3421 61.8547C62.1446 61.767 61.9252 61.7231 61.7277 61.7012C62.9784 61.3062 64.3387 60.6041 65.7868 59.3973C66.4012 58.8927 66.467 57.9931 65.9623 57.3788C65.7649 57.1374 65.4797 56.9619 65.1725 56.8961C65.1505 56.8961 65.1286 56.8961 65.1066 56.8961C66.2695 56.2817 67.4982 55.3163 68.683 53.8024C69.1657 53.188 69.056 52.2885 68.4197 51.8058C68.3539 51.7619 68.2881 51.6961 68.2003 51.6741C68.9683 50.994 69.7143 50.1163 70.3944 48.9315C70.7894 48.2513 70.57 47.3737 69.8898 46.9787C69.802 46.9349 69.7143 46.891 69.6265 46.869C70.2628 46.2108 70.8771 45.3771 71.4476 44.28C71.7987 43.5779 71.5354 42.7222 70.8333 42.3711C70.7016 42.3053 70.57 42.2614 70.4164 42.2395C70.943 41.5374 71.3818 40.7475 71.6889 39.9137C71.9084 39.453 71.8206 38.8825 71.4476 38.4656Z" fill="black"/>
<path d="M24.6032 59.8801C25.1517 59.6388 25.6344 59.573 25.9855 59.551C25.2176 58.9147 24.4716 58.2346 23.7475 57.5544C22.1458 57.1814 20.5661 57.7738 19.0741 58.081C16.6825 58.5637 15.7171 58.2784 15.3222 58.3443C19.864 62.1401 23.3745 60.3848 24.6032 59.8801ZM20.9829 56.2599C21.5973 56.1502 22.1019 56.1721 22.431 56.2599C21.6631 55.47 20.961 54.6362 20.2808 53.7805C18.9644 53.2978 17.5163 53.4953 16.1998 53.4953C13.8741 53.4734 13.0184 52.9907 12.6454 52.9907C16.0901 57.4008 19.7323 56.4793 20.9829 56.2599ZM18.2623 52.2666C18.6572 52.2447 18.9644 52.2885 19.2496 52.3324C18.6791 51.5206 18.1526 50.6649 17.6918 49.7873C16.5947 49.3046 15.3441 49.3046 14.2251 49.129C12.0968 48.8219 11.3728 48.2733 11.0437 48.2514C13.6546 52.7274 17.0994 52.3324 18.2623 52.2666ZM16.6386 47.8345C16.6825 47.8345 16.7264 47.8345 16.7922 47.8345C16.4631 47.0227 16.1998 46.1889 15.9804 45.3552C15.0369 44.9383 13.9618 44.8725 12.9964 44.675C10.9998 44.2801 10.3635 43.7316 10.0563 43.6657C12.2724 48.032 15.5196 47.8345 16.6386 47.8345ZM15.388 43.7096C15.4758 43.7096 15.5416 43.7316 15.6293 43.7535C15.5196 43.0733 15.4538 42.4151 15.4319 41.7349C14.5323 41.0767 13.3914 40.9012 12.3821 40.594C10.6487 40.0674 10.1002 39.5189 9.83691 39.4531C11.4825 43.5121 14.4006 43.5999 15.388 43.7096ZM14.7736 39.4969C15.0369 39.5847 15.2563 39.6944 15.4319 39.8041V37.9611C14.7517 36.9737 13.6108 36.5568 12.6673 36.0303C11.1753 35.1965 10.8023 34.6041 10.561 34.4725C11.2411 38.5315 13.896 39.2117 14.7736 39.4969ZM14.6859 35.8109C15.0369 35.9644 15.2783 36.1619 15.4319 36.3155V34.5822C14.9272 33.6168 13.9399 33.1341 13.1281 32.5636C11.8774 31.6859 11.5922 31.1155 11.3947 30.9838C11.6141 34.626 13.9179 35.4817 14.6859 35.8109ZM14.642 31.7957C15.2344 32.1028 15.4319 32.5197 15.4319 32.5197V31.1155C15.1466 30.1062 14.2471 29.6016 13.5449 29.053C12.5795 28.2851 12.3821 27.8024 12.2285 27.6707C12.2285 30.6767 14.0496 31.4885 14.642 31.7957ZM15.366 29.2066C15.388 29.2286 15.4099 29.2505 15.4538 29.2724V27.3416C15.2344 27.1003 15.015 26.8809 14.8175 26.6615C14.0935 25.8496 13.9838 25.4108 13.8741 25.2792C13.3914 27.8682 14.8833 28.8336 15.366 29.2066ZM61.135 58.081C59.6869 57.7957 58.151 57.2253 56.5932 57.5324C55.8691 58.2346 55.1012 58.9147 54.3113 59.551C54.6624 59.573 55.1012 59.6607 55.6058 59.8582C56.8345 60.3848 60.367 62.1181 64.8649 58.3443C64.5139 58.2784 63.5265 58.5856 61.135 58.081ZM60.0818 53.7147C59.4016 54.5923 58.6776 55.4261 57.9096 56.216C58.2388 56.1502 58.6995 56.1282 59.248 56.2379C60.4987 56.4793 64.1409 57.4008 67.5856 52.9687C67.2126 52.9687 66.3789 53.4295 64.0531 53.4734C62.7586 53.4953 61.3763 53.3198 60.0818 53.7147ZM62.6708 49.7434C62.2101 50.643 61.6835 51.4987 61.113 52.3324C61.3983 52.2885 61.6835 52.2666 61.9687 52.2666C63.1535 52.3324 66.5983 52.7274 69.2093 48.2514C68.8801 48.2953 68.1561 48.8219 66.0278 49.129C64.9308 49.3046 63.7459 49.3265 62.6708 49.7434ZM64.3822 45.3113C64.1628 46.167 63.8995 47.0008 63.5704 47.8345H63.6143C64.7114 47.8345 67.9806 48.032 70.1966 43.6877C69.8894 43.7535 69.2312 44.2801 67.2565 44.697C66.313 44.8725 65.3038 44.9383 64.3822 45.3113ZM70.3941 39.4311C70.1088 39.5189 69.5823 40.0455 67.8489 40.5721C66.8835 40.8573 65.7865 41.0328 64.9088 41.6472C64.8869 42.3493 64.8211 43.0294 64.7114 43.7316C64.7552 43.7316 64.7991 43.7096 64.8649 43.7096C65.8303 43.5999 68.7704 43.5121 70.3941 39.4311ZM69.67 34.4944C69.4287 34.626 69.0557 35.2184 67.5637 36.0522C66.6641 36.5568 65.567 36.9518 64.8869 37.8514V39.7602C65.0405 39.6725 65.2379 39.5847 65.4573 39.5189C66.3569 39.2117 69.0118 38.5315 69.67 34.4944ZM68.8363 30.9619C68.6388 31.0935 68.3536 31.664 67.1029 32.5416C66.335 33.0682 65.4135 33.529 64.8869 34.4066V36.2277C65.0405 36.0961 65.2599 35.9425 65.5451 35.8109C66.313 35.4817 68.6168 34.626 68.8363 30.9619ZM65.589 31.7957C66.1814 31.4885 68.0244 30.6767 68.0025 27.6927C67.8489 27.8024 67.6514 28.2851 66.686 29.075C66.0498 29.5796 65.2599 30.0404 64.9088 30.8741V32.3881C64.9966 32.2345 65.216 31.9931 65.589 31.7957ZM66.4008 25.2792C66.2911 25.4108 66.1814 25.8496 65.4354 26.6615C65.2599 26.8589 65.0624 27.0345 64.8869 27.2319V29.1847C65.3915 28.8336 66.8396 27.8463 66.4008 25.2792ZM53.1923 65.9797C52.556 65.5848 51.9417 65.124 51.3054 64.6852C51.3493 65.146 51.3493 65.4531 51.3493 65.4751C51.3493 65.519 51.3273 66.4844 51.1518 67.5595C51.1299 67.735 51.086 67.9105 51.0421 68.0861C52.5122 68.4591 54.3991 68.481 56.8126 67.6253C56.4835 67.4278 55.3864 67.362 53.1923 65.9797ZM57.9535 62.2278C56.3299 61.5915 54.6624 60.5603 52.7535 60.8236C52.1392 61.3063 51.5029 61.7671 50.8885 62.1839C50.9324 62.3156 50.9763 62.4692 50.9982 62.6008C51.2615 62.7105 51.5248 62.8422 51.832 63.0396C53.0168 63.8076 56.3738 66.3088 61.8151 63.2152C61.4421 63.0616 60.367 63.1932 57.9535 62.2278ZM29.1669 67.5595C29.0572 66.8793 28.9914 66.1772 28.9914 65.4751C28.9914 65.4531 28.9914 65.1021 29.0353 64.6194C28.3551 65.0582 27.6969 65.5628 27.0606 65.9578C24.8665 67.3401 23.7694 67.4059 23.4403 67.6253C25.8977 68.481 27.8066 68.4591 29.2766 68.0641C29.2328 67.9105 29.2108 67.735 29.1669 67.5595ZM29.4522 62.1839C28.8378 61.7451 28.2235 61.3063 27.6311 60.8455C25.6564 60.5164 23.945 61.5696 22.2994 62.2278C19.8859 63.1932 18.8108 63.0616 18.4378 63.2152C23.8792 66.3088 27.2361 63.8295 28.4209 63.0396C28.7501 62.8202 29.0792 62.6666 29.3644 62.5789C29.3863 62.4472 29.4083 62.3156 29.4522 62.1839Z" fill="#AB9767"/>
<path d="M37.153 58.6734V16.7881C35.1125 16.9855 33.1159 17.4024 31.1632 18.0167V56.9401C32.2383 57.73 33.3573 58.4759 34.4982 59.1561C35.3758 58.9367 36.2535 58.7612 37.153 58.6734ZM55.1666 51.4987C58.1286 48.032 59.6206 44.4776 59.6206 40.8134V23.7214C59.1599 23.3045 57.6021 22.01 55.1666 20.6497C55.1666 20.6277 55.1666 51.4987 55.1666 51.4987ZM20.7192 23.6995V40.7915C20.7192 44.4337 22.2112 48.0101 25.1733 51.4768V20.6058C22.7159 21.9881 21.1581 23.3045 20.7192 23.6995ZM45.8417 59.1561C46.9826 58.454 48.0797 57.73 49.1548 56.9401V18.0167C47.202 17.4024 45.2054 16.9855 43.1649 16.7661V58.6515C44.0864 58.7831 44.986 58.9367 45.8417 59.1561Z" fill="black"/>
<path d="M40.1594 11.0614C26.1171 11.0614 17.0335 18.9163 15.9146 19.9256V41.1206C15.9146 49.9847 23.0673 57.0717 29.6277 61.7232C29.8471 61.2185 30.1323 60.8455 30.4395 60.67C31.5585 60.0995 32.6994 59.6388 33.9062 59.2877C32.4142 58.3662 30.988 57.3569 29.6277 56.2818C23.4184 51.389 20.2808 46.167 20.2808 40.7695V23.48L20.3466 23.4142C21.1584 22.6682 28.6403 16.1517 40.1594 16.1517C51.5687 16.1517 59.1603 22.6682 59.9721 23.4142L60.0379 23.48V40.7695C60.0379 46.167 56.9003 51.389 50.691 56.2818C49.3087 57.3569 47.8826 58.3662 46.4125 59.2877C47.6193 59.6388 48.7602 60.0776 49.8573 60.6481C50.1864 60.8236 50.4497 61.1746 50.691 61.7012C57.2514 57.0717 64.4042 49.9628 64.4042 41.0986V19.9036C63.351 18.9821 54.1138 11.0614 40.1594 11.0614Z" fill="black"/>
<path d="M67.432 63.3907C67.2784 62.3594 66.8396 61.3282 66.4447 60.4286L66.4008 60.3409L66.0497 59.7924C65.589 59.0683 65.0404 58.2565 64.2067 57.8396L63.5046 56.5231C63.4826 56.5012 63.4826 56.4793 63.4607 56.4573C62.5392 55.3164 61.486 54.2632 60.4767 53.2539L60.0598 52.8371C59.9501 52.1788 59.5552 51.7181 59.2041 51.3012C58.9628 51.0379 58.7434 50.7746 58.6117 50.4894C58.5678 50.4235 58.524 50.3577 58.4362 50.3138C57.756 49.9408 56.9881 48.8438 56.5712 47.9662L55.891 46.8252C56.1105 46.913 56.3079 47.0227 56.5054 47.1105L56.9442 47.3299C58.7434 48.0759 60.2792 48.8877 62.0565 49.8311L62.5831 50.1164L63.0877 50.4235C63.3949 50.621 63.6801 50.8185 64.1189 50.9282C64.47 51.0379 65.1282 50.9282 65.3696 50.3358L65.3915 50.248C65.5012 49.4581 64.9527 48.6463 64.5139 48.01L64.3822 47.8126L63.8556 47.0666C62.8025 45.5526 61.7054 43.9729 60.2134 42.7223L59.3577 41.8446C59.3358 41.8227 59.3138 41.8227 59.2919 41.8007C56.9223 40.0893 55.2328 37.9611 53.4556 35.7011C51.9417 33.7923 50.3839 31.8176 48.3872 30.1501L48.3653 30.1281C45.9079 28.4387 43.7357 26.1568 41.6513 23.9188L39.1281 21.3078C37.9872 20.3205 36.956 19.4867 35.815 18.8285L34.9813 18.0386C33.5771 16.7222 32.2167 15.4715 32.2167 13.804C32.2167 13.4749 32.2606 13.1239 32.3922 12.7509L32.4361 12.6192C32.9408 11.0395 33.4673 9.41582 34.9155 8.40654C34.9593 8.38459 34.9813 8.36265 35.0032 8.31877L36.4733 6.47573C38.2724 5.13733 40.7079 3.53564 43.5163 2.83352C43.5163 2.83352 43.5383 2.83352 43.5383 2.81158L43.8674 2.46052C43.9332 2.21917 43.8235 2.02171 43.7577 1.93394L43.7357 1.89006C43.6919 1.82424 43.6699 1.78036 43.6041 1.73647C42.6387 1.03436 41.4758 0.858832 40.4665 0.727187C38.448 0.485836 36.3855 0.463895 34.3669 0.727187C32.9627 0.310308 28.5306 -0.786742 25.1517 0.946596C23.945 1.58289 23.5281 2.72382 23.177 3.66728C23.0015 4.14998 22.826 4.61074 22.5846 4.87403C19.8639 7.44113 18.723 10.3812 17.5382 13.4968L16.9897 14.8791L16.7702 15.3618C16.0901 16.8538 15.1905 18.8943 14.1373 20.2108C14.1154 20.2327 14.0276 20.3863 14.0057 20.4302C13.8521 20.8032 13.4352 21.9222 13.3913 22.4268C13.2597 23.5239 13.4791 24.5771 13.8082 25.3011C14.2032 26.1129 14.8833 26.815 15.2344 27.3416C16.2437 28.9214 17.0994 29.9745 17.9989 31.5982C19.7762 34.7138 21.5314 37.8733 23.9669 40.7914L23.9888 40.8134C26.1171 42.9417 28.8159 44.4337 31.7779 45.0699C32.9846 46.3425 33.8184 48.2953 34.7399 49.7434C34.7399 49.7434 35.7273 51.4548 35.7712 51.5206C35.8809 51.7181 35.8589 51.9155 35.8589 52.1349C35.8589 52.3982 35.9247 52.7054 35.837 53.0784C35.7273 53.4514 35.6176 53.8463 35.6176 54.2852V54.3071C35.6176 54.4607 35.6395 54.6143 35.6395 54.7459C35.6395 55.6674 35.9906 56.5012 35.5956 57.5544C35.4201 57.9932 35.2007 58.5198 34.9374 59.0683C35.7273 58.8928 36.5391 58.7611 37.3948 58.6734L38.0969 57.313C38.426 56.6548 38.8868 56.1282 39.3037 55.6674C39.8083 55.097 40.2691 54.5923 40.3129 53.9999C40.3568 53.0565 40.4446 51.8717 40.7956 50.7746C40.9492 50.6649 41.1248 50.5552 41.3222 50.3138C41.4319 50.1603 41.4978 49.9408 41.4978 49.7434C41.4978 49.5459 41.4539 49.3265 41.41 49.151C41.3661 49.0193 41.3442 48.8877 41.3442 48.756C41.3442 48.6902 41.3661 48.6683 41.41 48.6463C41.9805 48.4708 42.6606 48.5366 43.1214 48.8438C43.3847 49.129 43.5602 49.4801 43.7357 49.8531C43.8893 50.1822 44.0649 50.5333 44.3281 50.8624C44.4598 51.3451 44.4817 51.8497 44.5256 52.3982C44.5914 53.4075 44.6792 54.4607 45.3374 55.3164C45.4032 55.5139 45.4252 55.7113 45.4252 55.9088C45.4252 56.567 45.14 57.2253 44.8986 57.7957L44.767 58.1248C44.6573 58.3881 44.5256 58.6734 44.394 58.9366C45.0961 59.0683 45.7982 59.2219 46.4564 59.4194C46.8952 58.6514 47.3121 57.8835 47.6851 57.0497C47.8826 56.5231 47.9484 55.9746 47.9923 55.4261C48.1239 55.6455 48.2556 55.843 48.3872 56.0624C48.8261 56.8303 49.3087 57.6202 49.945 58.3442C50.5155 59.3316 51.2396 60.7577 51.5906 61.8987C51.6126 61.9645 51.6345 62.0084 51.6784 62.0523C52.2927 62.6886 53.2142 62.9738 54.3332 62.886C56.0666 62.6447 56.4176 62.9519 56.659 63.1493C56.7906 63.259 56.9442 63.3907 57.1856 63.4346L61.1569 63.5004C62.3417 63.4346 63.5704 63.3687 64.843 63.5004L66.9054 63.9611C67.1248 64.005 67.3662 63.8734 67.4101 63.632C67.432 63.5004 67.432 63.4565 67.432 63.3907Z" fill="white"/>
<path d="M58.7649 53.8025C58.0189 53.627 57.5362 52.8371 56.9218 52.3764C56.5927 52.0034 56.3514 51.5865 56.0442 51.1916C55.8687 51.1038 55.759 51.1916 55.759 51.411C55.4518 52.4861 57.5142 54.4169 58.2822 55.9747C58.4358 56.3916 58.6991 56.8523 58.5455 57.2692C58.1286 57.5106 56.878 57.2253 56.5708 57.0937C55.8467 56.6549 55.4079 54.8118 54.4864 53.6489C54.2889 53.5612 54.3109 53.276 54.0695 53.3198C53.7623 53.6051 54.0914 53.9122 54.1134 54.1975C54.3767 54.8557 54.9691 55.4262 54.9033 56.1722L54.5303 56.1283C53.7404 55.0312 53.0383 53.8684 52.1387 52.8591C51.7657 53.1443 52.1387 53.5392 52.1387 53.8684C52.4678 54.7021 53.0822 55.4262 53.1919 56.3477C53.1919 56.6329 52.7969 56.5013 52.6433 56.4793C51.1294 55.0751 50.6687 53.0785 49.418 51.4768C49.2205 51.4768 49.1547 51.6523 49.0889 51.762C49.3303 53.1882 50.3176 54.3072 50.186 55.8869C50.1201 55.9308 50.0762 56.0625 49.9665 56.0186C49.0231 54.6363 47.553 53.1224 48.4965 51.3232C48.9792 49.7873 47.7286 48.3612 48.4526 46.8692C48.9353 46.3645 49.6155 46.4523 50.2518 46.5401C50.5809 46.1012 50.4054 45.4211 51.0417 45.1578C51.5902 44.7848 52.4459 44.9384 52.9725 45.2455C55.0349 47.8126 56.7463 50.5114 58.7649 53.1004C58.7429 53.3418 59.0721 53.627 58.7649 53.8025ZM47.3556 39.4092C46.9167 39.0582 46.5437 38.5755 46.0172 38.4438C45.7978 38.4658 45.8197 38.6413 45.8197 38.7291C46.083 39.1021 47.0703 39.2557 46.7632 39.6945C46.083 40.1114 45.4906 39.3434 44.8762 39.0582C42.9893 37.6101 41.1901 35.8987 39.4129 34.3189C38.9522 33.8801 38.6011 33.3096 38.7328 33.178C38.8425 33.0463 39.5226 33.4632 39.764 33.5729C40.0053 33.6826 39.9834 33.4193 39.9834 33.4193C38.4036 31.7079 35.3977 30.4792 35.5732 27.8024C35.6391 27.5611 35.7927 27.3636 35.9901 27.2539C36.6045 26.7932 41.629 28.329 43.7134 29.5577C45.9733 30.7645 47.9919 32.805 49.4619 34.9772C49.4838 35.0869 49.5058 35.1966 49.5058 35.3063C49.3741 35.5257 49.045 35.3282 48.7598 35.0869C48.3868 34.8455 48.0577 34.4945 47.6627 34.3409L47.5311 34.4725C48.3868 35.5915 50.186 36.2936 50.186 37.8734L49.9227 37.8953C49.1767 37.3907 48.4526 36.7324 47.6627 36.4472C47.4653 36.535 47.6627 36.6886 47.7505 36.7763C48.5404 37.3248 49.3522 37.8953 50.0982 38.5316C50.2737 38.7729 50.3176 39.0801 50.2298 39.3654H49.9885C49.3522 38.9046 48.8256 38.5097 48.0138 38.1805C47.8383 38.5097 48.2332 38.6852 48.6062 38.9265C49.1986 39.2557 50.4931 39.6286 49.9446 40.3088C48.9134 41.1865 48.0577 39.9578 47.3556 39.4092ZM35.8804 21.4615L35.7488 21.0007C37.0214 21.7028 38.1842 22.5805 39.1935 23.6556C40.2906 24.6429 41.5412 26.2885 41.5412 26.464C41.3437 26.6176 40.51 25.6961 39.8079 25.7181C39.369 25.8278 39.9395 26.4421 39.5885 26.5518C39.1277 26.7273 36.9555 25.6961 36.1437 24.5771C36.2534 24.5332 36.5167 24.5332 36.4728 24.3577C36.5825 24.1822 35.6391 23.8531 35.7488 23.524C35.7488 23.524 35.9682 23.6995 36.1218 23.6556C36.5167 23.2826 35.3977 22.8657 36.034 22.5585C36.0559 22.1856 35.6391 21.9003 35.4855 21.637C35.6391 21.5712 35.7927 21.5493 35.8804 21.4615ZM30.2196 3.03106C29.8686 3.07494 29.1665 2.52642 28.8812 3.11882C28.7496 3.46988 29.0129 4.08423 28.5082 4.17199C28.223 4.19393 27.8061 4.19393 27.7842 3.88676C27.7184 3.46988 27.6964 3.00912 27.9597 2.68C28.223 2.13148 28.9471 1.73654 29.7369 1.89013C30.088 1.95595 30.4391 2.1973 30.5926 2.63612C30.6585 2.87747 30.461 2.96524 30.2196 3.03106ZM23.2863 8.2969C23.7032 8.91125 21.8601 9.21842 23.1108 9.48171C23.3521 10.4252 21.6407 10.6885 21.0044 11.3686C21.0264 11.4783 20.9825 11.6758 21.2238 11.6319C21.8162 11.588 22.6719 10.5788 22.8255 11.0834C22.9572 11.7636 22.1673 11.8294 21.7724 12.0927C21.2897 12.334 20.7192 12.5973 20.4778 13.1459C20.3901 13.4092 20.807 13.3214 20.9386 13.2775C21.4432 13.1239 22.1234 12.2902 22.3209 12.5535C22.4086 12.8167 22.2112 13.0581 22.0357 13.2775C21.3335 13.8041 20.2146 13.6944 19.8854 14.6598C19.8635 14.9011 20.3023 15.0328 20.5656 14.9231C21.0044 14.7256 21.5749 13.8041 21.8162 14.1771C21.9259 14.4843 21.6627 14.8134 21.3994 14.967C20.1926 16.0421 18.942 16.9417 17.4939 17.4024C17.3183 17.1611 17.4719 16.81 17.5378 16.5687C18.5909 13.4092 19.9951 10.3813 21.8162 7.55091C22.2112 7.09015 23.0449 6.78297 23.4618 7.3315C23.4399 7.94585 22.5842 7.79226 22.4964 8.34078C22.7378 8.47243 23.023 8.2969 23.2863 8.2969ZM31.9749 6.65133C32.8964 4.67664 33.05 4.98381 34.4104 5.1374C35.0028 5.04963 35.3538 4.67664 35.661 4.25976L35.5732 4.12811C34.8053 4.30364 34.0593 4.89604 33.2256 4.54499C32.8964 4.30364 32.8306 3.9087 32.9403 3.5357C33.6644 2.68001 35.288 3.426 36.1437 2.74583C36.4289 2.39477 35.7049 2.26312 35.5513 2.13148C35.3977 2.04371 35.0905 2.15342 35.0905 1.89013C35.3977 1.64878 35.8804 1.78042 36.2534 1.73654C36.8458 1.73654 37.6796 1.42937 37.7015 1.93401C37.7015 2.83359 36.1876 3.14076 36.3631 3.73317C36.5825 4.15005 36.9994 3.95258 37.3285 3.82094C38.1403 3.46988 38.8205 2.74583 39.6762 2.48254C39.8517 2.43865 39.9614 2.52642 39.9614 2.70195V2.83359C37.6357 4.04035 35.5074 5.70786 33.3353 7.28761C32.9403 7.52896 32.5454 7.74837 32.0627 7.61673C31.7116 7.39732 32.0188 6.98044 31.9749 6.65133ZM32.1505 2.28507C32.4137 1.99983 32.8526 1.95595 33.2036 1.99983V2.21924C33.0281 2.43865 32.6551 2.72389 32.2821 2.54836C32.2163 2.4606 32.1066 2.39477 32.1505 2.28507ZM66.0274 60.6042C65.4569 59.7924 64.8864 58.5857 63.8333 58.1688L63.0873 56.7426C62.056 55.4481 60.8493 54.2852 59.6425 53.1004C59.5548 52.0911 58.6113 51.5865 58.1944 50.7088C57.4045 50.27 56.5927 49.1072 56.1539 48.1856C55.8248 47.5932 55.3421 46.7814 54.991 46.189C55.6712 46.189 56.483 46.6936 57.1193 46.9789C59.094 47.7907 60.7615 48.6903 62.802 49.7654C63.3944 50.0945 63.6577 50.4017 64.2501 50.5553C64.4476 50.6211 64.8645 50.5553 64.9961 50.2262C65.1058 49.546 64.4476 48.6903 64.0527 48.0759C62.802 46.2987 61.6611 44.4995 59.9716 43.0514L59.094 42.1519C54.5961 38.9046 52.4239 34.0337 48.1674 30.4793C44.7007 28.1096 41.9142 24.621 38.8425 21.5712C37.7893 20.6716 36.7361 19.772 35.5732 19.1358C33.7302 17.2927 31.0753 15.4935 31.9969 12.5754C32.5234 10.9518 33.072 9.13066 34.6956 7.98973L36.2095 6.1028C38.4256 4.45723 40.7513 3.03106 43.3842 2.37283C43.5817 2.28507 43.4501 2.15342 43.3842 2.04372C42.5285 1.42937 41.5193 1.25384 40.4441 1.12219C38.4256 0.858902 36.3851 0.858902 34.3665 1.12219C31.6239 0.288436 28.0036 -0.0626191 25.3926 1.29772C23.7032 2.1973 23.7471 4.23782 22.9572 5.11546C19.8854 8.01167 18.8542 11.4345 17.45 14.9889C16.7698 16.4809 15.7166 18.9383 14.5318 20.4303C14.0272 21.6151 13.3909 22.9974 14.466 25.2354C14.7732 25.9155 15.1901 26.2885 15.5411 26.7932C19.1833 31.8396 20.7411 36.0742 24.4053 40.4624C26.5116 42.5907 29.2104 44.0388 32.1285 44.6531C34.4762 46.5401 34.7614 49.0413 36.3412 51.2354C36.9117 52.2228 36.1657 53.1882 36.1657 54.2194C36.2315 55.492 36.5167 56.5232 36.0998 57.6203C35.9682 57.9933 35.7707 58.4321 35.5513 58.8928C36.0121 58.8051 36.4948 58.7173 36.9775 58.6515C37.3505 57.9494 37.6576 57.357 37.8112 57.0498C38.5353 55.5798 39.9176 54.746 40.0053 53.8903C40.0492 52.6835 40.1809 51.5207 40.5539 50.4456C40.7513 50.3139 40.9269 50.2261 41.1024 49.9848C41.4754 49.5021 40.5758 48.5147 41.3437 48.1856C42.0458 47.9662 42.9015 48.032 43.4939 48.427C44.1302 49.0852 44.2619 49.9409 44.8324 50.6211C45.2273 52.0692 44.8104 53.8684 45.8416 55.0751C46.2366 56.1941 45.5783 57.4009 45.2492 58.1907C45.1615 58.4101 45.0518 58.6515 44.9201 58.9148C45.337 59.0025 45.7319 59.0903 46.1269 59.2C46.5657 58.4101 47.0045 57.6203 47.3995 56.7646C47.7066 55.9527 47.6408 54.9654 47.7724 54.0658C48.7159 55.3165 49.2864 56.7865 50.3834 57.9933C50.9978 59.0464 51.7218 60.4945 52.0729 61.6355C52.6872 62.2718 53.6307 62.4034 54.3767 62.3376C56.9438 61.9646 56.878 62.8203 57.3168 62.8861C59.7961 63.2591 62.2754 62.6448 64.9522 62.9519L67.0366 63.4346C66.8611 62.4692 66.4223 61.438 66.0274 60.6042Z" fill="black"/>
<path d="M51.1521 63.4127C50.9108 61.9207 50.4939 61.0211 49.8795 60.6701C46.9833 59.1781 43.9116 58.4979 40.1597 58.476C36.4297 58.476 33.336 59.1781 30.4398 60.6701C29.8474 60.9992 29.4086 61.9207 29.1672 63.4127C28.9917 64.4878 28.9917 65.4532 28.9917 65.4971C28.9917 65.541 29.0136 66.5064 29.1672 67.5815C29.4086 69.0735 29.8255 69.973 30.4398 70.3241C33.336 71.8161 36.4078 72.5182 40.1597 72.5182C43.8896 72.5182 46.9833 71.8161 49.8795 70.3241C50.4719 69.995 50.9108 69.0735 51.1521 67.5815C51.3276 66.5064 51.3276 65.541 51.3496 65.4971C51.3496 65.4532 51.3276 64.4878 51.1521 63.4127Z" fill="white"/>
<path d="M38.6452 65.7603H38.4917C38.3161 65.7603 38.1187 65.8919 38.1187 66.243V66.989C38.1187 67.34 38.3161 67.4717 38.4917 67.4717H38.6452C38.8208 67.4717 39.0182 67.34 39.0182 66.989V66.243C38.9963 65.8919 38.8208 65.7603 38.6452 65.7603ZM38.6452 63.5004H38.4917C38.3161 63.5004 38.1187 63.632 38.1187 63.9831V64.5535C38.1187 64.9046 38.3161 65.0362 38.4917 65.0362H38.6452C38.8208 65.0362 39.0182 64.9046 39.0182 64.5535V63.9831C38.9963 63.632 38.8208 63.5004 38.6452 63.5004ZM41.7389 63.5004C41.4756 63.5004 41.322 63.5881 41.322 63.9611V64.9704C41.322 65.3434 41.4756 65.4312 41.7389 65.4312C41.9583 65.4312 42.1558 65.3215 42.1558 64.9704V63.9611C42.1558 63.5881 42.0022 63.5004 41.7389 63.5004Z" fill="black"/>
<path d="M48.7821 69.0514L48.7382 69.0734C46.1931 70.3898 43.4724 70.9822 40.1593 70.9822C36.8462 70.9822 34.1255 70.3679 31.6023 69.0734L31.5584 69.0514C31.0538 68.6345 30.7685 66.7257 30.7685 65.497C30.7905 64.2683 31.0757 62.3594 31.5584 61.9425L31.6023 61.9206C34.1475 60.6041 36.8681 60.0117 40.1593 60.0117C43.4724 60.0117 46.1931 60.6261 48.7163 61.9206L48.7602 61.9425C49.2648 62.3594 49.55 64.2683 49.55 65.497C49.55 66.7037 49.2648 68.6345 48.7821 69.0514ZM49.6817 61.0429C46.8513 59.5948 43.8234 58.9147 40.1593 58.9147C36.4951 58.9147 33.4673 59.5948 30.6369 61.0429C29.6496 61.5915 29.4082 64.4438 29.4082 65.497C29.4082 66.5501 29.6496 69.4025 30.6369 69.929C33.4673 71.3772 36.4951 72.0573 40.1593 72.0573C43.8234 72.0573 46.8513 71.3772 49.6817 69.929C50.669 69.3805 50.9104 66.5501 50.9104 65.475C50.9104 64.4438 50.669 61.5915 49.6817 61.0429Z" fill="black"/>
<path d="M46.171 64.4877C46.171 65.146 45.7321 65.4531 45.2275 65.9358C44.7887 66.3527 44.5034 66.6599 44.5034 66.9451V67.4278H46.171V68.1519H43.6477V66.9232C43.6477 66.243 44.1963 65.8042 44.7448 65.2996C45.1397 64.9046 45.3372 64.751 45.3372 64.4658V63.9392C45.3372 63.5662 45.1617 63.4785 44.9203 63.4785C44.679 63.4785 44.5254 63.5662 44.5254 63.9392V64.7072H43.6916V63.8295C43.6916 63.0396 44.1304 62.7325 44.9423 62.7325H44.9642C45.776 62.7325 46.2148 63.0396 46.2148 63.8295L46.171 64.4877ZM43.0115 67.1207C43.0115 67.9105 42.5946 68.2177 41.7828 68.2177H41.7608C40.949 68.2177 40.5321 67.9105 40.5321 67.1207V66.616H41.3878V67.0329C41.3878 67.4059 41.5195 67.4937 41.7828 67.4937C42.046 67.4937 42.1777 67.4059 42.1777 67.0329V65.9358C42.046 66.0675 41.9144 66.1772 41.5633 66.1772C40.949 66.1772 40.5102 65.87 40.5102 65.0801V63.8734C40.5102 63.0835 40.949 62.7763 41.7608 62.7763H41.7828C42.5946 62.7763 43.0334 63.0835 43.0334 63.8734C43.0114 63.8734 43.0115 67.1207 43.0115 67.1207ZM39.8519 64.5536C39.8519 64.8827 39.7861 65.3215 39.3254 65.3873C39.7861 65.4751 39.8519 66.0236 39.8519 66.3088V67.0987C39.8519 67.8447 39.457 68.2177 38.6891 68.2177H38.4477C37.6798 68.2177 37.2848 67.8447 37.2848 67.0987V66.3088C37.2848 66.0236 37.3507 65.4751 37.8114 65.3873C37.3726 65.3215 37.2848 64.8827 37.2848 64.5536V63.8953C37.2848 63.1493 37.6798 62.7763 38.4477 62.7763H38.6891C39.457 62.7763 39.8519 63.1493 39.8519 63.8953V64.5536ZM36.6705 68.1519H34.1692V67.4059H35.0469V63.7417L34.1912 64.005V63.2152L35.2882 62.8422H35.9026V67.4278H36.6924C36.6705 67.4059 36.6705 68.1519 36.6705 68.1519ZM48.387 62.2936C45.9515 61.043 43.3406 60.4725 40.1591 60.4725C36.9996 60.4725 34.3886 61.043 31.9532 62.2936C31.668 62.5569 31.3388 64.027 31.3169 65.497C31.3388 66.9451 31.668 68.4591 31.9532 68.7004C34.3886 69.951 36.9996 70.5215 40.1591 70.5215C43.3186 70.5215 45.9296 69.951 48.3651 68.7004C48.6503 68.4371 48.9794 66.9671 49.0013 65.497C49.0013 64.0489 48.6503 62.535 48.387 62.2936Z" fill="black"/>
<path d="M13.6984 68.6346L11.263 66.5941C11.1972 66.5283 11.1971 66.4406 11.241 66.3747L11.263 66.3308C11.3288 66.265 11.4166 66.265 11.4824 66.3089L13.9178 68.3494C13.9837 68.4152 13.9837 68.503 13.9398 68.5688L13.9178 68.6127C13.852 68.7005 13.7642 68.7005 13.6984 68.6346Z" fill="#AB9767"/>
<path d="M17.0993 72.7596C16.6386 73.4617 16.0242 73.4398 15.3221 73.0009H15.3002C14.5981 72.5621 14.3128 72.0136 14.7736 71.2896L16.5289 68.5469C16.9677 67.8668 17.604 67.8668 18.3061 68.3056H18.328C19.0302 68.7444 19.2934 69.3368 18.8546 70.017L18.328 70.8507L17.5601 70.368L18.0209 69.644C18.2183 69.3149 18.1306 69.1174 17.8892 68.9638C17.6479 68.8102 17.4285 68.8102 17.231 69.1393L15.6293 71.6625C15.4318 71.9917 15.5196 72.1891 15.7609 72.3427C16.0023 72.4963 16.2217 72.4963 16.4192 72.1672L16.9458 71.3334L17.7137 71.8161L17.0993 72.7596ZM20.3466 74.8879C20.6099 75.0195 20.8513 74.9976 21.0048 74.6465L22.2994 71.9478C22.4749 71.5967 22.3432 71.4212 22.058 71.2896C21.7947 71.1579 21.5534 71.1798 21.3998 71.5309L20.1053 74.2296C19.9517 74.5588 20.0833 74.7562 20.3466 74.8879ZM22.3871 70.5655L22.453 70.5874C23.1989 70.9385 23.55 71.4651 23.1989 72.2111L21.7947 75.1512C21.4437 75.8972 20.8074 75.941 20.0614 75.59L19.9956 75.568C19.2496 75.217 18.8985 74.6904 19.2496 73.9444L20.6538 71.0043C21.0048 70.2583 21.6411 70.2144 22.3871 70.5655ZM25.8977 77.8718L23.7255 77.1259L25.5027 71.9917L26.3584 72.2769L24.8445 76.6432L26.161 77.1039L25.8977 77.8718ZM30.3956 79.0347L28.1576 78.5081L29.4082 73.2204L30.2859 73.4178L29.2327 77.9157L30.5931 78.2448L30.3956 79.0347ZM32.6775 79.4516L33.4673 74.0761L34.3669 74.2077L33.577 79.5832L32.6775 79.4516ZM36.21 79.8685L36.4732 74.4491L37.3728 74.4929L38.3382 77.8938L38.5138 74.5368L39.3256 74.5807L39.0623 80.0001L38.2066 79.9562L37.1973 76.3799L37.0218 79.9124L36.21 79.8685ZM44.4159 78.7495C44.4598 79.5832 43.9332 79.9343 43.1214 79.9782H43.0555C42.2437 80.0221 41.6733 79.7588 41.6294 78.9031L41.4319 75.6558C41.388 74.844 41.9146 74.471 42.7264 74.4271H42.7923C43.626 74.3832 44.1745 74.6904 44.2184 75.5022L44.2623 76.2702L43.3627 76.314L43.3188 75.6777C43.2969 75.2828 43.0775 75.195 42.7923 75.217C42.507 75.2389 42.3096 75.3486 42.3315 75.7436L42.507 78.7275C42.529 79.1225 42.7484 79.2102 43.0336 79.1883C43.3188 79.1664 43.5163 79.0567 43.4944 78.6617L43.4505 77.8499L42.9239 77.8718L42.88 77.1039L44.3062 77.0162L44.4159 78.7495ZM50.7349 78.8811L49.9011 79.0347L48.5189 75.5022V79.298L47.6632 79.4516L45.8201 74.2735L46.6978 74.098L47.8606 77.828L47.8167 73.8786L48.6066 73.725L50.0108 77.4111L49.7256 73.5056L50.5594 73.352L50.7349 78.8811ZM54.9037 76.9284C55.1889 76.8406 55.3425 76.6651 55.2109 76.2921L54.2674 73.4617C54.1358 73.0887 53.9163 73.0448 53.6311 73.1545C53.3459 73.2423 53.1923 73.4178 53.3239 73.7908L54.2674 76.6212C54.399 76.9942 54.6404 77.0381 54.9037 76.9284ZM53.3898 72.4305L53.4556 72.4085C54.2455 72.1453 54.8598 72.2988 55.1231 73.0668L56.1543 76.1604C56.4176 76.9503 56.0007 77.433 55.2109 77.6744L55.145 77.6963C54.3552 77.9596 53.7408 77.806 53.4995 77.0381L52.4682 73.9444C52.183 73.1545 52.5999 72.6718 53.3898 72.4305ZM59.8624 74.9756C60.1256 74.844 60.2573 74.6685 60.1037 74.3174L58.8311 71.6187C58.6556 71.2676 58.4362 71.2457 58.1729 71.3773C57.9096 71.509 57.778 71.6845 57.9315 72.0355L59.2041 74.7343C59.3577 75.0853 59.5771 75.0853 59.8624 74.9756ZM57.7999 70.6752L57.8657 70.6533C58.6117 70.3022 59.248 70.368 59.5991 71.114L60.9813 74.0541C61.3324 74.8001 60.9813 75.3267 60.2353 75.6777L60.1695 75.6997C59.4235 76.0507 58.7872 75.9849 58.4362 75.2389L57.0539 72.2769C56.7028 71.5309 57.0539 71.0263 57.7999 70.6752ZM62.4514 69.1174L62.0565 69.3587L64.097 72.628L64.4919 72.3866C64.7333 72.233 64.8649 72.0355 64.6455 71.7064L63.1316 69.2929C62.9341 68.9419 62.6927 68.9419 62.4514 69.1174ZM63.8117 68.6786L65.4792 71.3334C65.9181 72.0355 65.6328 72.606 64.9307 73.0229L63.7459 73.7689L60.8716 69.1613L62.0565 68.4153C62.7586 67.9765 63.3949 67.9765 63.8117 68.6786Z" fill="black"/>
<path d="M69.0774 66.7256L66.62 68.7442C66.5541 68.7881 66.4444 68.7881 66.4005 68.7223L66.3786 68.7003C66.3128 68.6345 66.3347 68.5248 66.4005 68.4809L68.8579 66.4623C68.9238 66.4185 69.0115 66.4185 69.0774 66.4843L69.0993 66.5062C69.1432 66.572 69.1432 66.6598 69.0774 66.7256Z" fill="#AB9767"/>
</g>
<defs>
<clipPath id="clip0_401_986">
<rect width="80" height="80" fill="white"/>
</clipPath>
</defs>
</svg>
