<svg width="80" height="80" viewBox="0 0 80 80" fill="none" xmlns="http://www.w3.org/2000/svg">
<g clip-path="url(#clip0_413_1270)">
<path d="M71.6093 38.0805C71.303 37.7522 70.9091 37.5334 70.4714 37.4896C70.9091 36.6143 71.1936 35.6733 71.3467 34.7104C71.4562 34.0101 71.1717 33.3099 70.6027 32.8941C70.5152 32.8284 70.4057 32.7628 70.2963 32.719C70.4276 32.1938 70.5152 31.6248 70.5589 31.0121C70.6027 30.3118 70.2307 29.6334 69.6179 29.2833C69.5961 29.2614 69.5742 29.2614 69.5523 29.2614C69.6617 28.7581 69.7055 28.211 69.7055 27.6202C69.7055 26.7229 69.0709 25.957 68.1955 25.8038C68.1736 25.4975 68.1518 25.213 68.0861 24.9066C67.9548 24.0969 67.2983 23.4842 66.4886 23.3748C66.4448 22.8058 66.3354 22.2149 66.1385 21.6678C65.9196 21.0332 65.3944 20.5518 64.7379 20.4424V19.5014C63.6656 18.5385 54.2557 10.4854 40.0752 10.4854C25.7852 10.4854 16.5504 18.4728 15.4124 19.5014V20.4205C14.7122 20.5299 14.1432 21.0113 13.9244 21.6678C13.7274 22.2587 13.618 22.8277 13.5961 23.3748C12.7864 23.4842 12.1299 24.0969 11.9986 24.9066C11.9548 25.213 11.9111 25.4975 11.8892 25.8038C11.0138 25.957 10.3792 26.7229 10.3792 27.6202C10.3792 28.1891 10.423 28.7362 10.5324 29.2614L10.4668 29.2833C9.85402 29.6334 9.482 30.3118 9.52577 31.0121C9.56954 31.6248 9.65707 32.1938 9.78837 32.719C9.67896 32.7628 9.56954 32.8284 9.482 32.8941C8.91303 33.3099 8.60666 34.0101 8.73796 34.7104C8.89115 35.6733 9.17563 36.6143 9.6133 37.4896C8.58478 37.6209 7.8845 38.5619 8.01581 39.5686C8.03769 39.7217 8.08146 39.8749 8.12522 40.0281C8.43159 40.7722 8.75985 41.4068 9.13187 41.9539C8.25653 42.4572 7.95016 43.5295 8.38783 44.4267C8.84738 45.3239 9.3507 46.068 9.87591 46.6807C9.72272 46.812 9.59142 46.9433 9.482 47.1184C9.0881 47.7092 9.06622 48.4752 9.43824 49.0879C9.96344 49.9851 10.5981 50.8167 11.3202 51.5607C11.1889 51.692 11.0576 51.8671 10.9701 52.0422C10.6637 52.6768 10.7512 53.4427 11.167 53.9898C12.1518 55.2372 13.1584 56.1563 14.1432 56.7909C13.3554 57.4474 13.246 58.6072 13.8806 59.395C13.9462 59.4826 14.0338 59.5701 14.1213 59.6358C15.1936 60.533 16.244 61.1676 17.2288 61.6053C16.4191 62.2399 16.2878 63.4216 16.9224 64.2094C17.0756 64.4064 17.2507 64.5596 17.4695 64.669C19.1108 65.61 20.5988 66.0914 21.9337 66.2884C21.2991 67.098 21.4085 68.2579 22.2182 68.9144C22.3933 69.0457 22.5684 69.1551 22.7653 69.2208C24.4066 69.7897 25.8728 70.0304 27.142 70.0304C28.1705 70.0304 29.0896 69.8773 29.8993 69.6365C30.0525 69.8335 30.2057 70.0086 30.4027 70.0961C33.2913 71.5842 36.355 72.2844 40.0971 72.2844C43.8173 72.2844 46.9028 71.5842 49.7915 70.0961C49.9665 70.0086 50.1197 69.8554 50.2729 69.6584C51.1482 69.8991 52.0455 70.0304 52.9427 70.0304C54.2119 70.0304 55.6781 69.7897 57.3194 69.2208C58.2823 68.8706 58.8075 67.8202 58.4573 66.8573C58.3917 66.6604 58.2823 66.4634 58.151 66.3102C59.4859 66.0914 60.974 65.61 62.6152 64.6909C63.5124 64.1875 63.8188 63.0496 63.3155 62.1524C63.2061 61.9554 63.031 61.7585 62.8559 61.6053C63.8407 61.1676 64.8911 60.533 65.9634 59.6358C66.7512 58.9793 66.8606 57.7975 66.2041 57.0316C66.1385 56.9441 66.0509 56.8566 65.9634 56.7909C66.9482 56.1563 67.9548 55.2591 68.9396 53.9898C69.3772 53.4208 69.4648 52.6768 69.1365 52.0422C69.049 51.8671 68.9396 51.692 68.7864 51.5607C69.5304 50.8167 70.165 49.9851 70.6684 49.0879C71.0185 48.4752 70.9966 47.7092 70.6246 47.1184C70.5152 46.9433 70.3839 46.812 70.2088 46.6807C70.734 46.068 71.2373 45.3239 71.7188 44.4267C72.1783 43.5514 71.8501 42.4572 70.9747 41.9539C71.3467 41.4068 71.675 40.7722 71.9595 40.0281C72.2221 39.3497 72.0908 38.6057 71.6093 38.0805Z" fill="white"/>
<path d="M28.9369 65.3255C28.9369 65.2817 28.9588 64.3189 29.112 63.2466C29.1776 62.787 29.287 62.3931 29.3965 62.043C22.722 57.3161 15.4129 50.0946 15.4129 41.0567V20.8582C14.9096 20.9457 14.4938 21.3177 14.3406 21.7991C14.0999 22.4994 14.0123 23.1559 14.0123 23.7905C13.2464 23.6811 12.5461 24.2063 12.4148 24.9723C12.3492 25.388 12.3054 25.7819 12.3273 26.1977C11.5395 26.154 10.8611 26.7448 10.8173 27.5107C10.8173 27.5326 10.8173 27.5764 10.8173 27.5983C10.8173 28.3204 10.9049 28.9551 11.0362 29.5021C10.3797 29.6772 9.92012 30.29 9.96388 30.9683C10.0077 31.7343 10.139 32.4127 10.314 33.0035C9.5481 33.1348 9.02289 33.857 9.15419 34.6448C9.39491 36.0891 9.85447 37.2052 10.4234 38.0367C9.70128 37.7085 8.86971 38.0367 8.54145 38.737C8.38827 39.0871 8.36639 39.5029 8.51957 39.8531C8.89159 40.794 9.32926 41.5381 9.78882 42.1727C9.02289 42.304 8.49769 43.0262 8.6071 43.814C8.62899 43.9672 8.67275 44.0985 8.73841 44.2298C9.28549 45.3021 9.89823 46.1555 10.5547 46.812C9.8107 47.0527 9.41679 47.8624 9.65751 48.6065C9.6794 48.694 9.72317 48.7815 9.78882 48.8691C10.4672 50.0508 11.2331 50.9261 11.9772 51.6045C11.2769 51.9547 11.0143 52.83 11.3644 53.5303C11.4082 53.6178 11.452 53.6835 11.4957 53.7491C12.568 55.1278 13.7716 56.1563 15.0627 56.8347C15.0409 56.8347 15.019 56.8347 14.9971 56.8566C14.2312 57.0316 13.7497 57.7976 13.9248 58.5635C13.9905 58.8698 14.1655 59.1325 14.4062 59.3513C15.7193 60.4455 17.076 61.2114 18.4328 61.6491C18.2359 61.6709 18.017 61.7366 17.8201 61.8022C17.0979 62.1086 16.7478 62.9402 17.076 63.6623C17.2073 63.9468 17.4043 64.1876 17.6888 64.3407C19.8115 65.5443 21.6716 65.982 23.2691 66.0258C23.0284 66.1133 22.8095 66.2008 22.5907 66.3321C21.9342 66.7698 21.7591 67.6451 22.1749 68.3016C22.35 68.5643 22.5907 68.7612 22.897 68.8706C24.4945 69.4177 25.8951 69.6365 27.1206 69.6365C28.0616 69.6365 28.8931 69.5052 29.6372 69.3083C29.4183 68.8487 29.2214 68.2141 29.0901 67.4482C29.0026 66.7042 28.9588 66.0039 28.9369 65.3255ZM71.2815 38.365C70.8657 37.9054 70.1874 37.7522 69.6403 38.0148C70.2092 37.1833 70.6688 36.0672 70.9095 34.6229C71.0408 33.857 70.5156 33.1348 69.7497 33.0035C69.9248 32.4127 70.0561 31.7562 70.0998 30.9683C70.1436 30.29 69.684 29.6772 69.0275 29.5021C69.1807 28.9551 69.2683 28.3204 69.2464 27.5983C69.2464 26.8105 68.5899 26.1758 67.8021 26.1758C67.7802 26.1758 67.7583 26.1758 67.7145 26.1758C67.7145 25.7601 67.6926 25.3443 67.627 24.9504C67.4957 24.1845 66.7954 23.6811 66.0295 23.7687C66.0295 23.0903 65.9201 22.4119 65.7012 21.7773C65.5481 21.3177 65.176 20.9676 64.7165 20.8582V41.0348C64.7165 50.0727 57.4074 57.3161 50.7329 62.0211C50.8423 62.3712 50.9299 62.7651 51.0174 63.2247C51.1925 64.297 51.1925 65.2598 51.2143 65.3036C51.2143 65.3474 51.1925 66.3103 51.0174 67.3825C50.8861 68.1704 50.711 68.805 50.4703 69.2645C51.1925 69.4615 52.0021 69.5709 52.9213 69.5709C54.1467 69.5709 55.5473 69.3521 57.1448 68.7831C57.8888 68.5205 58.2827 67.7108 58.0201 66.9668C57.9107 66.6823 57.7138 66.4197 57.4512 66.2446C57.2323 66.1133 57.0135 66.0039 56.7728 65.9382C58.3703 65.8945 60.2304 65.4568 62.3531 64.2532C63.0315 63.8593 63.2722 63.0058 62.8783 62.3056C62.7251 62.043 62.4844 61.8241 62.1999 61.6928C62.0029 61.6053 61.7841 61.5615 61.5871 61.5396C62.8345 61.1457 64.1913 60.4455 65.6356 59.2419C66.2483 58.7385 66.314 57.8413 65.8107 57.2286C65.6137 56.9879 65.3292 56.8128 65.0229 56.7471C65.001 56.7471 64.9791 56.7471 64.9572 56.7471C66.117 56.1344 67.3425 55.1715 68.5242 53.6616C69.0057 53.0488 68.8962 52.1516 68.2616 51.6702C68.196 51.6264 68.1303 51.5608 68.0428 51.5389C68.8087 50.8605 69.5527 49.9851 70.2311 48.8034C70.625 48.125 70.4062 47.2497 69.7278 46.8558C69.6403 46.812 69.5527 46.7683 69.4652 46.7464C70.0998 46.0899 70.7126 45.2583 71.2815 44.1641C71.6317 43.4638 71.3691 42.6104 70.6688 42.2602C70.5375 42.1946 70.4062 42.1508 70.253 42.129C70.7782 41.4287 71.2159 40.6409 71.5223 39.8093C71.7411 39.3497 71.6536 38.7808 71.2815 38.365Z" fill="black"/>
<path d="M24.5597 59.7235C25.1067 59.4827 25.5882 59.4171 25.9383 59.3952C25.1724 58.7606 24.4283 58.0822 23.7062 57.4038C22.1087 57.0318 20.5331 57.6226 19.045 57.929C16.6597 58.4105 15.6968 58.126 15.3029 58.1916C19.8328 61.9775 23.3342 60.2268 24.5597 59.7235ZM20.9489 56.1127C21.5616 56.0033 22.0649 56.0251 22.3932 56.1127C21.6273 55.3249 20.927 54.4933 20.2486 53.6398C18.9356 53.1584 17.4913 53.3554 16.1783 53.3554C13.8586 53.3335 13.0051 52.852 12.6331 52.852C16.0688 57.2506 19.7015 56.3315 20.9489 56.1127ZM18.2353 52.1299C18.6292 52.108 18.9356 52.1518 19.2201 52.1955C18.6511 51.3858 18.1259 50.5324 17.6663 49.657C16.5722 49.1756 15.3248 49.1756 14.2087 49.0005C12.086 48.6942 11.3639 48.1471 11.0356 48.1252C13.6398 52.5894 17.0755 52.1955 18.2353 52.1299ZM16.6159 47.7094C16.6597 47.7094 16.7035 47.7094 16.7691 47.7094C16.4409 46.8997 16.1783 46.0681 15.9594 45.2366C15.0184 44.8208 13.9461 44.7551 12.9833 44.5582C10.9919 44.1643 10.3572 43.6172 10.0509 43.5515C12.2611 47.9064 15.4999 47.7094 16.6159 47.7094ZM15.3686 43.5953C15.4561 43.5953 15.5217 43.6172 15.6093 43.6391C15.4999 42.9607 15.4342 42.3042 15.4123 41.6258C14.5151 40.9693 13.3772 40.7942 12.3705 40.4878C10.6417 39.9626 10.0946 39.4155 9.83203 39.3499C11.4733 43.3984 14.3838 43.4859 15.3686 43.5953ZM14.7558 39.3937C15.0184 39.4812 15.2373 39.5906 15.4123 39.7V37.8618C14.7339 36.8771 13.596 36.4613 12.655 35.9361C11.1669 35.1045 10.7949 34.5136 10.5542 34.3823C11.2326 38.4308 13.8805 39.1092 14.7558 39.3937ZM14.6683 35.7172C15.0184 35.8704 15.2591 36.0674 15.4123 36.2206V34.4918C14.909 33.5289 13.9243 33.0474 13.1146 32.4785C11.8672 31.6031 11.5827 31.0342 11.3858 30.9029C11.6046 34.5355 13.9024 35.389 14.6683 35.7172ZM14.6245 31.7125C15.2154 32.0189 15.4123 32.4347 15.4123 32.4347V31.0342C15.1278 30.0275 14.2306 29.5242 13.5303 28.9771C12.5675 28.2112 12.3705 27.7297 12.2173 27.5984C12.2173 30.5965 14.0337 31.4062 14.6245 31.7125ZM15.3467 29.1303C15.3686 29.1522 15.3905 29.1741 15.4342 29.1959V27.2702C15.2154 27.0295 14.9965 26.8106 14.7996 26.5918C14.0774 25.7821 13.968 25.3444 13.8586 25.2131C13.3772 27.7954 14.8652 28.7583 15.3467 29.1303ZM60.9957 57.929C59.5514 57.6445 58.0196 57.0756 56.4658 57.3819C55.7437 58.0822 54.9778 58.7606 54.19 59.3952C54.5401 59.4171 54.9778 59.5046 55.4811 59.7016C56.7066 60.2268 60.2298 61.9556 64.7159 58.1916C64.3658 58.126 63.381 58.4323 60.9957 57.929ZM59.9453 53.5742C59.2669 54.4495 58.5448 55.2811 57.7789 56.0689C58.1071 56.0033 58.5667 55.9814 59.1138 56.0908C60.3611 56.3315 63.9938 57.2506 67.4295 52.8302C67.0575 52.8302 66.2259 53.2897 63.9062 53.3335C62.6151 53.3554 61.2365 53.1803 59.9453 53.5742ZM62.5276 49.6133C62.068 50.5105 61.5428 51.364 60.9739 52.1955C61.2583 52.1518 61.5428 52.1299 61.8273 52.1299C63.009 52.1955 66.4447 52.5894 69.0489 48.1252C68.7206 48.169 67.9985 48.6942 65.8758 49.0005C64.7816 49.1756 63.5999 49.1975 62.5276 49.6133ZM64.2345 45.1928C64.0157 46.0463 63.7531 46.8778 63.4248 47.7094H63.4686C64.5628 47.7094 67.8234 47.9064 70.0336 43.5734C69.7273 43.6391 69.0708 44.1643 67.1012 44.5801C66.1603 44.7551 65.1536 44.8208 64.2345 45.1928ZM70.2306 39.328C69.9461 39.4155 69.4209 39.9408 67.6921 40.466C66.7292 40.7504 65.635 40.9255 64.7597 41.5383C64.7378 42.2385 64.6722 42.9169 64.5628 43.6172C64.6065 43.6172 64.6503 43.5953 64.7159 43.5953C65.6788 43.4859 68.6112 43.3983 70.2306 39.328ZM69.5084 34.4042C69.2677 34.5355 68.8957 35.1264 67.4076 35.9579C66.5104 36.4613 65.4162 36.8552 64.7378 37.7524V39.6563C64.891 39.5687 65.088 39.4812 65.3068 39.4155C66.204 39.1092 68.8519 38.4308 69.5084 34.4042ZM68.6769 30.881C68.4799 31.0123 68.1954 31.5812 66.9481 32.4566C66.1821 32.9818 65.263 33.4413 64.7378 34.3167V36.133C64.891 36.0017 65.1098 35.8485 65.3943 35.7172C66.1602 35.389 68.458 34.5355 68.6769 30.881ZM65.4381 31.7125C66.0289 31.4062 67.8672 30.5965 67.8453 27.6203C67.6921 27.7297 67.4951 28.2112 66.5323 28.999C65.8976 29.5023 65.1098 29.9619 64.7597 30.7934V32.3034C64.8472 32.1502 65.0661 31.9095 65.4381 31.7125ZM66.2478 25.2131C66.1384 25.3444 66.0289 25.7821 65.2849 26.5918C65.1098 26.7888 64.9129 26.9638 64.7378 27.1608V29.1084C65.2411 28.7583 66.6854 27.7735 66.2478 25.2131ZM53.0739 65.8071C52.4393 65.4132 51.8265 64.9536 51.1919 64.516C51.2357 64.9755 51.2357 65.2819 51.2357 65.3038C51.2357 65.3475 51.2138 66.3104 51.0387 67.3827C51.0168 67.5578 50.9731 67.7328 50.9293 67.9079C52.3955 68.2799 54.2775 68.3018 56.6847 67.4483C56.3564 67.2514 55.2622 67.1857 53.0739 65.8071ZM57.8226 62.065C56.2032 61.4304 54.5401 60.4019 52.6362 60.6645C52.0235 61.1459 51.3889 61.6054 50.7761 62.0212C50.8199 62.1525 50.8637 62.3057 50.8855 62.437C51.1481 62.5464 51.4107 62.6777 51.7171 62.8747C52.8988 63.6406 56.247 66.1353 61.6741 63.0498C61.3021 62.8966 60.2298 63.0279 57.8226 62.065ZM29.1114 67.3827C29.002 66.7043 28.9364 66.004 28.9364 65.3038C28.9364 65.2819 28.9364 64.9317 28.9801 64.4503C28.3017 64.888 27.6452 65.3913 27.0106 65.7852C24.8223 67.1639 23.7281 67.2295 23.3998 67.4483C25.8508 68.3018 27.7546 68.2799 29.2208 67.886C29.1771 67.7328 29.1552 67.5578 29.1114 67.3827ZM29.3959 62.0212C28.7832 61.5836 28.1704 61.1459 27.5796 60.6863C25.6101 60.3581 23.9031 61.4085 22.2619 62.065C19.8547 63.0279 18.7824 62.8966 18.4104 63.0498C23.8375 66.1353 27.1857 63.6625 28.3674 62.8747C28.6956 62.6559 29.0239 62.5027 29.3084 62.4151C29.3303 62.2838 29.3521 62.1525 29.3959 62.0212Z" fill="#AB9767"/>
<path d="M37.0768 58.5197V16.744C35.0416 16.941 33.0502 17.3568 31.1026 17.9695V56.7909C32.1749 57.5787 33.2909 58.3228 34.4289 59.0011C35.3042 58.7823 36.1796 58.6072 37.0768 58.5197ZM55.0432 51.3638C57.9975 47.9062 59.4855 44.3611 59.4855 40.7065V23.6592C59.026 23.2435 57.4723 21.9523 55.0432 20.5956C55.0432 20.5737 55.0432 51.3638 55.0432 51.3638ZM20.686 23.6374V40.6846C20.686 44.3173 22.1741 47.8843 25.1284 51.3419V20.5518C22.6774 21.9304 21.1237 23.2435 20.686 23.6374ZM45.7427 59.0011C46.8806 58.3009 47.9748 57.5787 49.0471 56.7909V17.9695C47.0995 17.3568 45.1081 16.941 43.0729 16.7222V58.4978C43.992 58.6291 44.8892 58.7823 45.7427 59.0011Z" fill="black"/>
<path d="M40.0753 11.0322C26.0699 11.0322 17.0101 18.8665 15.894 19.8732V41.0127C15.894 49.8536 23.0281 56.922 29.5712 61.5613C29.7901 61.058 30.0746 60.686 30.3809 60.5109C31.497 59.9419 32.6349 59.4824 33.8385 59.1322C32.3505 58.2131 30.928 57.2065 29.5712 56.1342C23.3782 51.2542 20.2489 46.0459 20.2489 40.6625V23.4183L20.3145 23.3527C21.1242 22.6086 28.5865 16.1092 40.0753 16.1092C51.4548 16.1092 59.0265 22.6086 59.8362 23.3527L59.9018 23.4183V40.6625C59.9018 46.0459 56.7725 51.2542 50.5794 56.1342C49.2008 57.2065 47.7784 58.2131 46.3122 59.1322C47.5157 59.4824 48.6537 59.92 49.7479 60.489C50.0761 60.6641 50.3387 61.0142 50.5794 61.5394C57.1226 56.922 64.2566 49.8317 64.2566 40.9908V19.8513C63.2062 18.9322 53.9933 11.0322 40.0753 11.0322Z" fill="black"/>
<path d="M67.2762 63.2246C67.123 62.1961 66.6854 61.1676 66.2915 60.2704L66.2477 60.1828L65.8976 59.6358C65.438 58.9136 64.8909 58.1039 64.0593 57.6881L63.3591 56.3751C63.3372 56.3532 63.3372 56.3313 63.3153 56.3095C62.3962 55.1715 61.3458 54.1211 60.3391 53.1145L59.9233 52.6987C59.8139 52.0422 59.42 51.5826 59.0699 51.1668C58.8292 50.9042 58.6103 50.6416 58.479 50.3571C58.4353 50.2915 58.3915 50.2258 58.304 50.1821C57.6256 49.81 56.8597 48.7159 56.4439 47.8405L55.7655 46.7026C55.9843 46.7901 56.1813 46.8995 56.3782 46.9871L56.8159 47.2059C58.6103 47.9499 60.1422 48.7596 61.9148 49.7006L62.44 49.9851L62.9433 50.2915C63.2497 50.4884 63.5341 50.6854 63.9718 50.7948C64.3219 50.9042 64.9784 50.7948 65.2192 50.204L65.2411 50.1164C65.3505 49.3286 64.8034 48.5189 64.3657 47.8843L64.2344 47.6873L63.7092 46.9433C62.6588 45.4333 61.5646 43.8577 60.0765 42.6104L59.2231 41.735C59.2012 41.7131 59.1793 41.7131 59.1574 41.6913C56.794 39.9843 55.109 37.8616 53.3364 35.6076C51.8264 33.7038 50.2727 31.7342 48.2813 30.0711L48.2594 30.0492C45.8085 28.3642 43.642 26.0883 41.5631 23.8562L39.0465 21.252C37.9085 20.2673 36.88 19.4357 35.742 18.7792L34.9105 17.9914C33.5099 16.6784 32.1531 15.431 32.1531 13.7679C32.1531 13.4396 32.1969 13.0895 32.3282 12.7175L32.372 12.5862C32.8753 11.0105 33.4005 9.39116 34.8448 8.38452C34.8886 8.36263 34.9105 8.34075 34.9324 8.29699L36.3986 6.45877C38.193 5.12387 40.6221 3.52638 43.4232 2.8261C43.4232 2.8261 43.445 2.8261 43.445 2.80422L43.7733 2.45408C43.839 2.21336 43.7295 2.01641 43.6639 1.92888L43.642 1.88511C43.5982 1.81946 43.5763 1.77569 43.5107 1.73193C42.5478 1.03165 41.388 0.856583 40.3814 0.725282C38.3681 0.484563 36.311 0.46268 34.2977 0.725282C32.8972 0.309495 28.4767 -0.784682 25.1066 0.944117C23.9031 1.57874 23.4873 2.71668 23.1371 3.65767C22.9621 4.13911 22.787 4.59867 22.5463 4.86127C19.8327 7.42164 18.6948 10.354 17.5131 13.4615L16.966 14.8402L16.7471 15.3216C16.0687 16.8097 15.1715 18.8448 14.1211 20.1579C14.0992 20.1797 14.0117 20.3329 13.9898 20.3767C13.8366 20.7487 13.4208 21.8648 13.3771 22.3681C13.2458 23.4623 13.4646 24.5127 13.7929 25.2348C14.1868 26.0445 14.8652 26.7448 15.2153 27.27C16.2219 28.8456 17.0754 29.896 17.9726 31.5154C19.7452 34.6229 21.4959 37.7741 23.9249 40.6846L23.9468 40.7065C26.0695 42.8292 28.7612 44.3173 31.7155 44.9519C32.9191 46.2211 33.7506 48.1688 34.6698 49.6131C34.6698 49.6131 35.6545 51.32 35.6983 51.3857C35.8077 51.5826 35.7858 51.7796 35.7858 51.9984C35.7858 52.261 35.8515 52.5674 35.7639 52.9394C35.6545 53.3114 35.5451 53.7053 35.5451 54.143V54.1649C35.5451 54.3181 35.567 54.4712 35.567 54.6025C35.567 55.5217 35.9171 56.3532 35.5232 57.4036C35.3481 57.8413 35.1293 58.3665 34.8667 58.9136C35.6545 58.7385 36.4642 58.6072 37.3177 58.5197L38.0179 57.1629C38.3462 56.5064 38.8057 55.9812 39.2215 55.5216C39.7248 54.9527 40.1844 54.4494 40.2282 53.8585C40.2719 52.9175 40.3595 51.7358 40.7096 50.6416C40.8628 50.5322 41.0379 50.4228 41.2348 50.1821C41.3442 50.0289 41.4099 49.81 41.4099 49.6131C41.4099 49.4161 41.3661 49.1973 41.3223 49.0222C41.2786 48.8909 41.2567 48.7596 41.2567 48.6283C41.2567 48.5627 41.2786 48.5408 41.3223 48.5189C41.8913 48.3438 42.5697 48.4095 43.0293 48.7159C43.2919 49.0004 43.4669 49.3505 43.642 49.7225C43.7952 50.0508 43.9703 50.4009 44.2329 50.7292C44.3642 51.2106 44.386 51.7139 44.4298 52.261C44.4955 53.2676 44.583 54.3181 45.2395 55.1715C45.3051 55.3685 45.327 55.5654 45.327 55.7624C45.327 56.4189 45.0425 57.0754 44.8018 57.6443L44.6705 57.9726C44.5611 58.2352 44.4298 58.5197 44.2985 58.7823C44.9988 58.9136 45.6991 59.0668 46.3556 59.2637C46.7932 58.4978 47.209 57.7319 47.581 56.9003C47.778 56.3751 47.8436 55.828 47.8874 55.2809C48.0187 55.4998 48.15 55.6967 48.2813 55.9156C48.719 56.6815 49.2004 57.4693 49.835 58.1914C50.404 59.1762 51.1262 60.5986 51.4763 61.7366C51.4982 61.8022 51.5201 61.846 51.5638 61.8898C52.1766 62.5244 53.0957 62.8089 54.2117 62.7213C55.9405 62.4806 56.2907 62.787 56.5314 62.9839C56.6627 63.0933 56.8159 63.2246 57.0566 63.2684L61.0175 63.3341C62.1992 63.2684 63.4247 63.2028 64.694 63.3341L66.751 63.7936C66.9698 63.8374 67.2106 63.7061 67.2543 63.4654C67.2762 63.3341 67.2762 63.2903 67.2762 63.2246Z" fill="white"/>
<path d="M58.6317 53.6615C57.8877 53.4865 57.4062 52.6987 56.7935 52.2391C56.4652 51.8671 56.2245 51.4513 55.9181 51.0574C55.7431 50.9699 55.6337 51.0574 55.6337 51.2762C55.3273 52.3485 57.3843 54.2743 58.1503 55.828C58.3034 56.2438 58.5661 56.7033 58.4129 57.1191C57.9971 57.3598 56.7497 57.0754 56.4434 56.9441C55.7212 56.5064 55.2835 54.6682 54.3644 53.5083C54.1675 53.4208 54.1893 53.1363 53.9486 53.1801C53.6423 53.4646 53.9705 53.7709 53.9924 54.0554C54.255 54.7119 54.8459 55.2809 54.7802 56.025L54.4082 55.9812C53.6204 54.887 52.9201 53.7272 52.0229 52.7205C51.6509 53.005 52.0229 53.3989 52.0229 53.7272C52.3511 54.5588 52.9639 55.2809 53.0733 56.2C53.0733 56.4845 52.6794 56.3532 52.5262 56.3313C51.0162 54.9308 50.5567 52.9394 49.3093 51.3419C49.1124 51.3419 49.0467 51.5169 48.9811 51.6264C49.2218 53.0488 50.2065 54.1648 50.0752 55.7405C50.0096 55.7842 49.9658 55.9155 49.8564 55.8718C48.9154 54.4931 47.4492 52.9831 48.3902 51.1887C48.8717 49.6568 47.6243 48.2344 48.3464 46.7463C48.8279 46.243 49.5063 46.3305 50.1409 46.4181C50.4691 45.9804 50.2941 45.302 50.9287 45.0394C51.4758 44.6674 52.3292 44.8206 52.8545 45.1269C54.9115 47.6873 56.6184 50.379 58.6317 52.9613C58.6098 53.202 58.9381 53.4865 58.6317 53.6615ZM47.2523 39.3059C46.8146 38.9558 46.4426 38.4744 45.9174 38.3431C45.6985 38.3649 45.7204 38.54 45.7204 38.6275C45.983 38.9996 46.9678 39.1527 46.6614 39.5904C45.983 40.0062 45.3922 39.2403 44.7794 38.9558C42.8974 37.5115 41.103 35.8046 39.3304 34.229C38.8709 33.7913 38.5207 33.2223 38.652 33.091C38.7615 32.9597 39.4398 33.3755 39.6806 33.4849C39.9213 33.5943 39.8994 33.3317 39.8994 33.3317C38.3238 31.6248 35.3257 30.3993 35.5008 27.7295C35.5665 27.4888 35.7196 27.2919 35.9166 27.1825C36.5293 26.7229 41.5407 28.2547 43.6196 29.4802C45.8736 30.6838 47.8869 32.719 49.3531 34.8855C49.375 34.9949 49.3969 35.1043 49.3969 35.2137C49.2655 35.4325 48.9373 35.2356 48.6528 34.9949C48.2808 34.7542 47.9525 34.404 47.5586 34.2508L47.4273 34.3821C48.2808 35.4982 50.0752 36.1985 50.0752 37.7741L49.8126 37.796C49.0686 37.2926 48.3464 36.6361 47.5586 36.3517C47.3617 36.4392 47.5586 36.5924 47.6462 36.6799C48.434 37.227 49.2437 37.796 49.9877 38.4306C50.1628 38.6713 50.2065 38.9777 50.119 39.2622H49.8783C49.2437 38.8026 48.7185 38.4087 47.9088 38.0805C47.7337 38.4087 48.1276 38.5838 48.4996 38.8245C49.0905 39.1527 50.3816 39.5248 49.8345 40.2032C48.806 41.0785 47.9525 39.853 47.2523 39.3059ZM35.8072 21.4052L35.6759 20.9456C36.9451 21.6459 38.1049 22.5213 39.1116 23.5936C40.2058 24.5783 41.4531 26.2196 41.4531 26.3946C41.2562 26.5478 40.4246 25.6287 39.7243 25.6506C39.2867 25.76 39.8556 26.3728 39.5055 26.4822C39.0459 26.6573 36.8795 25.6287 36.0698 24.5127C36.1792 24.4689 36.4418 24.4689 36.398 24.2938C36.5074 24.1188 35.5665 23.7905 35.6759 23.4623C35.6759 23.4623 35.8947 23.6373 36.0479 23.5936C36.4418 23.2215 35.3257 22.8057 35.9604 22.4994C35.9822 22.1274 35.5665 21.8429 35.4133 21.5803C35.5665 21.5146 35.7196 21.4927 35.8072 21.4052ZM30.1612 3.02303C29.8111 3.0668 29.1108 2.51971 28.8263 3.11057C28.695 3.4607 28.9576 4.07344 28.4543 4.16098C28.1698 4.18286 27.754 4.18286 27.7322 3.87649C27.6665 3.4607 27.6446 3.00115 27.9072 2.6729C28.1698 2.12581 28.892 1.73191 29.6798 1.88509C30.0299 1.95074 30.3801 2.19146 30.5332 2.62913C30.5989 2.86985 30.4019 2.95738 30.1612 3.02303ZM23.246 8.27508C23.6618 8.88782 21.8236 9.19419 23.071 9.45679C23.3117 10.3978 21.6048 10.6604 20.9701 11.3388C20.992 11.4482 20.9483 11.6451 21.189 11.6014C21.7798 11.5576 22.6333 10.551 22.7865 11.0543C22.9178 11.7327 22.13 11.7983 21.7361 12.0609C21.2546 12.3017 20.6857 12.5643 20.4449 13.1113C20.3574 13.3739 20.7732 13.2864 20.9045 13.2426C21.4078 13.0895 22.0862 12.2579 22.2832 12.5205C22.3707 12.7831 22.1737 13.0238 21.9987 13.2426C21.2984 13.7678 20.1823 13.6584 19.8541 14.6213C19.8322 14.862 20.2699 14.9933 20.5325 14.8839C20.9701 14.687 21.5391 13.7678 21.7798 14.1399C21.8893 14.4462 21.6266 14.7745 21.364 14.9277C20.1604 16 18.9131 16.8972 17.4688 17.3567C17.2937 17.116 17.4469 16.7659 17.5125 16.5252C18.563 13.3739 19.9635 10.354 21.7798 7.53104C22.1737 7.07149 23.0053 6.76512 23.4211 7.31221C23.3992 7.92495 22.5458 7.77176 22.4582 8.31885C22.6989 8.45015 22.9834 8.27508 23.246 8.27508ZM31.9119 6.63382C32.831 4.6643 32.9842 4.97067 34.341 5.12385C34.9318 5.03632 35.282 4.6643 35.5883 4.24851L35.5008 4.11721C34.7349 4.29228 33.9908 4.88313 33.1593 4.533C32.831 4.29228 32.7654 3.89838 32.8748 3.52636C33.5969 2.6729 35.2163 3.41694 36.0698 2.73855C36.3543 2.38841 35.6321 2.25711 35.4789 2.12581C35.3257 2.03827 35.0194 2.14769 35.0194 1.88509C35.3257 1.64437 35.8072 1.77567 36.1792 1.73191C36.7701 1.73191 37.6016 1.42554 37.6235 1.92886C37.6235 2.82608 36.1135 3.13245 36.2886 3.72331C36.5074 4.13909 36.9232 3.94214 37.2515 3.81084C38.0612 3.46071 38.7396 2.73855 39.593 2.47595C39.7681 2.43218 39.8775 2.51971 39.8775 2.69478V2.82608C37.5579 4.02968 35.4352 5.69282 33.2687 7.26844C32.8748 7.50916 32.4809 7.72799 31.9994 7.59669C31.6493 7.37785 31.9557 6.96207 31.9119 6.63382ZM32.087 2.27899C32.3496 1.99451 32.7872 1.95074 33.1374 1.99451V2.21334C32.9623 2.43218 32.5903 2.71666 32.2183 2.5416C32.1526 2.45406 32.0432 2.38841 32.087 2.27899ZM65.8752 60.4454C65.3062 59.6357 64.7372 58.4321 63.6868 58.0163L62.9428 56.5939C61.9142 55.3028 60.7106 54.143 59.507 52.9613C59.4195 51.9546 58.4785 51.4513 58.0627 50.5759C57.2749 50.1383 56.4652 48.9784 56.0276 48.0593C55.6993 47.4685 55.2179 46.6588 54.8677 46.0679C55.5461 46.0679 56.3558 46.5713 56.9904 46.8557C58.96 47.6654 60.6231 48.5627 62.6583 49.635C63.2491 49.9632 63.5117 50.2696 64.1026 50.4228C64.2995 50.4884 64.7153 50.4228 64.8466 50.0945C64.956 49.4161 64.2995 48.5627 63.9056 47.9499C62.6583 46.1774 61.5203 44.3829 59.8353 42.9386L58.96 42.0414C54.4738 38.8026 52.3074 33.9445 48.062 30.3993C44.6044 28.0359 41.8252 24.5564 38.7615 21.5146C37.711 20.6174 36.6606 19.7202 35.5008 19.0855C33.6626 17.2473 31.0147 15.4529 31.9338 12.5424C32.459 10.923 33.0061 9.10666 34.6255 7.96871L36.1354 6.08673C38.3457 4.44546 40.6653 3.02303 43.2913 2.36653C43.4883 2.27899 43.357 2.14769 43.2913 2.03827C42.4379 1.42554 41.4312 1.25047 40.359 1.11917C38.3457 0.856565 36.3105 0.856565 34.2972 1.11917C31.5618 0.287593 27.951 -0.0625431 25.3468 1.29424C23.6618 2.19146 23.7056 4.22663 22.9178 5.10197C19.8541 7.9906 18.8256 11.4044 17.425 14.9496C16.7466 16.4376 15.6962 18.8886 14.5145 20.3767C14.0112 21.5584 13.3766 22.937 14.4488 25.1692C14.7552 25.8476 15.171 26.2196 15.5211 26.7229C19.1538 31.7561 20.7075 35.9796 24.3621 40.3563C26.4629 42.479 29.1546 43.9234 32.0651 44.5361C34.4066 46.4181 34.6911 48.9128 36.2667 51.1012C36.8357 52.0859 36.0917 53.0488 36.0917 54.0773C36.1573 55.3466 36.4418 56.3751 36.026 57.4693C35.8947 57.8413 35.6978 58.279 35.4789 58.7385C35.9385 58.651 36.4199 58.5634 36.9014 58.4978C37.2734 57.7975 37.5797 57.2067 37.7329 56.9003C38.4551 55.4341 39.8337 54.6025 39.9213 53.7491C39.965 52.5455 40.0963 51.3856 40.4684 50.3133C40.6653 50.182 40.8404 50.0945 41.0155 49.8538C41.3875 49.3724 40.4903 48.3876 41.2562 48.0593C41.9565 47.8405 42.8099 47.9062 43.4008 48.3001C44.0354 48.9566 44.1667 49.81 44.7357 50.4884C45.1296 51.9327 44.7138 53.7272 45.7423 54.9308C46.1362 56.0468 45.4797 57.2504 45.1514 58.0382C45.0639 58.2571 44.9545 58.4978 44.8232 58.7604C45.239 58.8479 45.6329 58.9355 46.0268 59.0449C46.4645 58.2571 46.9021 57.4693 47.296 56.6158C47.6024 55.8061 47.5368 54.8214 47.6681 53.9241C48.609 55.1715 49.178 56.6377 50.2722 57.8413C50.8849 58.8917 51.6071 60.336 51.9572 61.4739C52.57 62.1086 53.511 62.2399 54.255 62.1742C56.8154 61.8022 56.7497 62.6557 57.1874 62.7213C59.6602 63.0933 62.1331 62.4806 64.8029 62.787L66.8818 63.2684C66.7067 62.3055 66.2691 61.277 65.8752 60.4454Z" fill="black"/>
<path d="M51.0389 63.2468C50.7982 61.7587 50.3824 60.8615 49.7696 60.5114C46.881 59.0233 43.8173 58.3449 40.0752 58.323C36.355 58.323 33.2695 59.0233 30.3808 60.5114C29.79 60.8396 29.3523 61.7587 29.1116 63.2468C28.9365 64.3191 28.9365 65.282 28.9365 65.3257C28.9365 65.3695 28.9584 66.3324 29.1116 67.4047C29.3523 68.8927 29.7681 69.79 30.3808 70.1401C33.2695 71.6282 36.3332 72.3285 40.0752 72.3285C43.7954 72.3285 46.881 71.6282 49.7696 70.1401C50.3605 69.8119 50.7982 68.8927 51.0389 67.4047C51.214 66.3324 51.214 65.3695 51.2358 65.3257C51.2358 65.282 51.214 64.3191 51.0389 63.2468Z" fill="white"/>
<path d="M38.5648 65.5882H38.4116C38.2365 65.5882 38.0396 65.7195 38.0396 66.0697V66.8137C38.0396 67.1638 38.2365 67.2951 38.4116 67.2951H38.5648C38.7398 67.2951 38.9368 67.1638 38.9368 66.8137V66.0697C38.9149 65.7195 38.7398 65.5882 38.5648 65.5882ZM38.5648 63.3342H38.4116C38.2365 63.3342 38.0396 63.4655 38.0396 63.8157V64.3846C38.0396 64.7348 38.2365 64.8661 38.4116 64.8661H38.5648C38.7398 64.8661 38.9368 64.7348 38.9368 64.3846V63.8157C38.9149 63.4655 38.7398 63.3342 38.5648 63.3342ZM41.6503 63.3342C41.3877 63.3342 41.2345 63.4218 41.2345 63.7938V64.8004C41.2345 65.1724 41.3877 65.26 41.6503 65.26C41.8692 65.26 42.0661 65.1506 42.0661 64.8004V63.7938C42.0661 63.4218 41.9129 63.3342 41.6503 63.3342Z" fill="black"/>
<path d="M48.6752 68.8707L48.6314 68.8926C46.093 70.2056 43.3794 70.7964 40.075 70.7964C36.7706 70.7964 34.057 70.1837 31.5404 68.8926L31.4966 68.8707C30.9933 68.4549 30.7088 66.551 30.7088 65.3256C30.7307 64.1001 31.0152 62.1962 31.4966 61.7804L31.5404 61.7585C34.0789 60.4455 36.7925 59.8547 40.075 59.8547C43.3794 59.8547 46.093 60.4674 48.6096 61.7585L48.6533 61.7804C49.1566 62.1962 49.4411 64.1001 49.4411 65.3256C49.4411 66.5292 49.1566 68.4549 48.6752 68.8707ZM49.5724 60.8832C46.7495 59.4389 43.7295 58.7605 40.075 58.7605C36.4204 58.7605 33.4005 59.4389 30.5775 60.8832C29.5928 61.4303 29.3521 64.2751 29.3521 65.3256C29.3521 66.376 29.5928 69.2208 30.5775 69.746C33.4005 71.1903 36.4204 71.8687 40.075 71.8687C43.7295 71.8687 46.7495 71.1903 49.5724 69.746C50.5572 69.1989 50.7979 66.376 50.7979 65.3037C50.7979 64.2751 50.5572 61.4303 49.5724 60.8832Z" fill="black"/>
<path d="M46.071 64.3187C46.071 64.9752 45.6333 65.2815 45.13 65.763C44.6923 66.1788 44.4079 66.4851 44.4079 66.7696V67.251H46.071V67.9732H43.5544V66.7477C43.5544 66.0693 44.1015 65.6317 44.6486 65.1283C45.0425 64.7344 45.2394 64.5813 45.2394 64.2968V63.7716C45.2394 63.3995 45.0644 63.312 44.8237 63.312C44.5829 63.312 44.4297 63.3995 44.4297 63.7716V64.5375H43.5982V63.6621C43.5982 62.8743 44.0358 62.568 44.8455 62.568H44.8674C45.6771 62.568 46.1148 62.8743 46.1148 63.6621L46.071 64.3187ZM42.9198 66.9447C42.9198 67.7325 42.504 68.0389 41.6943 68.0389H41.6724C40.8627 68.0389 40.4469 67.7325 40.4469 66.9447V66.4414H41.3004V66.8571C41.3004 67.2292 41.4317 67.3167 41.6943 67.3167C41.9569 67.3167 42.0882 67.2292 42.0882 66.8571V65.763C41.9569 65.8943 41.8256 66.0037 41.4755 66.0037C40.8627 66.0037 40.4251 65.6973 40.4251 64.9095V63.7059C40.4251 62.9181 40.8627 62.6117 41.6724 62.6117H41.6943C42.504 62.6117 42.9417 62.9181 42.9417 63.7059C42.9198 63.7059 42.9198 66.9447 42.9198 66.9447ZM39.7686 64.3843C39.7686 64.7126 39.7029 65.1502 39.2433 65.2159C39.7029 65.3034 39.7686 65.8505 39.7686 66.135V66.9228C39.7686 67.6668 39.3747 68.0389 38.6087 68.0389H38.368C37.6021 68.0389 37.2082 67.6668 37.2082 66.9228V66.135C37.2082 65.8505 37.2738 65.3034 37.7334 65.2159C37.2957 65.1502 37.2082 64.7126 37.2082 64.3843V63.7278C37.2082 62.9838 37.6021 62.6117 38.368 62.6117H38.6087C39.3747 62.6117 39.7686 62.9838 39.7686 63.7278V64.3843ZM36.5954 67.9732H34.1007V67.2292H34.9761V63.5746L34.1226 63.8372V63.0494L35.2168 62.6774H35.8295V67.251H36.6173C36.5954 67.2292 36.5954 67.9732 36.5954 67.9732ZM48.2813 62.1303C45.8522 60.8829 43.248 60.314 40.0749 60.314C36.9237 60.314 34.3196 60.8829 31.8905 62.1303C31.606 62.3929 31.2777 63.8591 31.2559 65.3253C31.2777 66.7696 31.606 68.2796 31.8905 68.5203C34.3196 69.7677 36.9237 70.3366 40.0749 70.3366C43.2262 70.3366 45.8303 69.7677 48.2594 68.5203C48.5439 68.2577 48.8721 66.7915 48.894 65.3253C48.894 63.881 48.5439 62.371 48.2813 62.1303Z" fill="black"/>
<path d="M13.6836 68.4549L11.2545 66.4197C11.1889 66.3541 11.1889 66.2665 11.2327 66.2009L11.2545 66.1571C11.3202 66.0915 11.4077 66.0915 11.4734 66.1352L13.9024 68.1704C13.9681 68.2361 13.9681 68.3236 13.9243 68.3892L13.9024 68.433C13.8368 68.5205 13.7493 68.5205 13.6836 68.4549Z" fill="white"/>
<path d="M17.0756 72.5692C16.616 73.2694 16.0033 73.2475 15.303 72.8099H15.2811C14.5809 72.3722 14.2964 71.8251 14.7559 71.103L16.5066 68.3675C16.9443 67.6891 17.5789 67.6891 18.2792 68.1268H18.3011C19.0013 68.5645 19.2639 69.1553 18.8263 69.8337L18.3011 70.6653L17.5351 70.1838L17.9947 69.4617C18.1916 69.1334 18.1041 68.9365 17.8634 68.7833C17.6227 68.6301 17.4038 68.6301 17.2069 68.9584L15.6094 71.475C15.4124 71.8032 15.5 72.0002 15.7407 72.1534C15.9814 72.3066 16.2002 72.3066 16.3972 71.9783L16.9224 71.1467L17.6883 71.6282L17.0756 72.5692ZM20.3143 74.6919C20.5769 74.8232 20.8177 74.8013 20.9708 74.4511L22.262 71.7595C22.437 71.4093 22.3057 71.2343 22.0213 71.103C21.7587 70.9717 21.5179 70.9935 21.3648 71.3437L20.0736 74.0354C19.9204 74.3636 20.0517 74.5606 20.3143 74.6919ZM22.3495 70.3808L22.4152 70.4027C23.1592 70.7528 23.5093 71.278 23.1592 72.0221L21.7587 74.9545C21.4085 75.6985 20.7739 75.7423 20.0299 75.3921L19.9642 75.3702C19.2202 75.0201 18.87 74.4949 19.2202 73.7509L20.6207 70.8185C20.9708 70.0744 21.6055 70.0307 22.3495 70.3808ZM25.8509 77.668L23.6844 76.924L25.457 71.8032L26.3104 72.0877L24.8005 76.4425L26.1135 76.9021L25.8509 77.668ZM30.337 78.8278L28.1049 78.3026L29.3522 73.0287L30.2276 73.2257L29.1772 77.7118L30.534 78.04L30.337 78.8278ZM32.6129 79.2436L33.4007 73.8822L34.2979 74.0135L33.5101 79.3749L32.6129 79.2436ZM36.1361 79.6594L36.3987 74.2542L37.296 74.298L38.2588 77.6899L38.4339 74.3417L39.2436 74.3855L38.981 79.7907L38.1275 79.747L37.1209 76.1799L36.9458 79.7032L36.1361 79.6594ZM44.3206 78.5434C44.3643 79.3749 43.8391 79.7251 43.0294 79.7688H42.9638C42.1541 79.8126 41.5851 79.55 41.5414 78.6965L41.3444 75.4578C41.3006 74.6481 41.8259 74.2761 42.6355 74.2323H42.7012C43.5328 74.1885 44.0799 74.4949 44.1236 75.3046L44.1674 76.0705L43.2702 76.1143L43.2264 75.4797C43.2045 75.0858 42.9857 74.9982 42.7012 75.0201C42.4167 75.042 42.2198 75.1514 42.2416 75.5453L42.4167 78.5215C42.4386 78.9154 42.6574 79.0029 42.9419 78.981C43.2264 78.9591 43.4233 78.8497 43.4015 78.4558L43.3577 77.6461L42.8325 77.668L42.7887 76.9021L44.2112 76.8146L44.3206 78.5434ZM50.623 78.6747L49.7915 78.8278L48.4128 75.3046V79.0904L47.5593 79.2436L45.7211 74.0791L46.5965 73.9041L47.7563 77.6243L47.7125 73.6852L48.5003 73.532L49.9009 77.2085L49.6164 73.3132L50.448 73.16L50.623 78.6747ZM54.7809 76.727C55.0654 76.6395 55.2186 76.4644 55.0873 76.0924L54.1463 73.2694C54.015 72.8974 53.7961 72.8536 53.5117 72.9631C53.2272 73.0506 53.074 73.2257 53.2053 73.5977L54.1463 76.4207C54.2776 76.7927 54.5183 76.8364 54.7809 76.727ZM53.2709 72.2409L53.3366 72.219C54.1244 71.9564 54.7371 72.1096 54.9997 72.8755L56.0283 75.9611C56.2909 76.7489 55.8751 77.2304 55.0873 77.4711L55.0216 77.4929C54.2338 77.7556 53.6211 77.6024 53.3804 76.8364L52.3518 73.7509C52.0673 72.9631 52.4831 72.4816 53.2709 72.2409ZM59.7266 74.7794C59.9892 74.6481 60.1205 74.473 59.9673 74.1229L58.6981 71.4312C58.523 71.0811 58.3041 71.0592 58.0415 71.1905C57.7789 71.3218 57.6476 71.4969 57.8008 71.847L59.0701 74.5387C59.2233 74.8888 59.4421 74.8888 59.7266 74.7794ZM57.6695 70.4902L57.7352 70.4683C58.4792 70.1182 59.1138 70.1838 59.464 70.9279L60.8426 73.8603C61.1928 74.6043 60.8426 75.1295 60.0986 75.4797L60.0329 75.5016C59.2889 75.8517 58.6543 75.786 58.3042 75.042L56.9255 72.0877C56.5754 71.3437 56.9255 70.8404 57.6695 70.4902ZM62.3088 68.9365L61.9149 69.1772L63.9501 72.4379L64.344 72.1971C64.5847 72.044 64.716 71.847 64.4972 71.5187L62.9872 69.1116C62.7903 68.7614 62.5496 68.7614 62.3088 68.9365ZM63.6656 68.4988L65.3288 71.1467C65.7664 71.847 65.482 72.416 64.7817 72.8318L63.6 73.5758L60.7332 68.9803L61.9149 68.2362C62.6152 67.7985 63.2498 67.7985 63.6656 68.4988Z" fill="black"/>
<path fill-rule="evenodd" clip-rule="evenodd" d="M17.2422 72.6786C16.988 73.0661 16.6708 73.2807 16.2977 73.3149C15.9529 73.3465 15.5969 73.2202 15.2466 73.0094H15.2238L15.1753 72.9791C14.8089 72.7501 14.5189 72.4735 14.3957 72.1306C14.2683 71.7759 14.3341 71.394 14.5875 70.9959L16.3385 68.26C16.5832 67.8807 16.9012 67.6675 17.2744 67.6302C17.6207 67.5956 17.9819 67.7154 18.3353 67.9274H18.3581L18.4067 67.9577C18.7778 68.1897 19.06 68.4784 19.179 68.8253C19.301 69.1813 19.2388 69.5617 18.9943 69.941L18.3633 70.9401L17.259 70.246L17.8248 69.3569C17.9082 69.2171 17.9088 69.1424 17.8995 69.1053C17.89 69.0671 17.8569 69.0158 17.7562 68.9516C17.654 68.8866 17.5935 68.8788 17.5577 68.8859C17.5255 68.8924 17.4615 68.9216 17.3778 69.061L17.3752 69.0653L15.7791 71.5797C15.6956 71.7196 15.695 71.7943 15.7043 71.8315C15.7138 71.8696 15.7469 71.921 15.8477 71.9851C15.9499 72.0502 16.0103 72.058 16.0461 72.0508C16.0783 72.0444 16.1423 72.0151 16.226 71.8757L16.2284 71.8718L16.8599 70.8719L17.966 71.5672L17.2422 72.6786ZM15.6093 71.475L17.2068 68.9584C17.4037 68.6301 17.6225 68.6301 17.8633 68.7833C18.104 68.9365 18.1915 69.1335 17.9946 69.4617L17.535 70.1839L18.3009 70.6653L18.8261 69.8337C19.2638 69.1554 19.0012 68.5645 18.3009 68.1268H18.279C17.5788 67.6892 16.9442 67.6892 16.5065 68.3675L14.7558 71.103C14.2962 71.8251 14.5807 72.3722 15.281 72.8099H15.3029C16.0032 73.2476 16.6159 73.2695 17.0755 72.5692L17.6882 71.6282L16.9223 71.1468L16.3971 71.9783C16.2001 72.3066 15.9813 72.3066 15.7406 72.1534C15.4998 72.0002 15.4123 71.8033 15.6093 71.475ZM20.7909 74.3649L22.0834 71.6703C22.1578 71.5215 22.1437 71.4573 22.1317 71.4306C22.1157 71.3947 22.0678 71.3442 21.9375 71.2841L21.9319 71.2815C21.8214 71.2263 21.7508 71.2217 21.7079 71.2343C21.6716 71.2449 21.6097 71.2811 21.5474 71.4237L21.5446 71.43L20.2538 74.1206C20.1935 74.2504 20.2041 74.3195 20.2208 74.3578C20.2406 74.4031 20.2915 74.4575 20.4034 74.5135C20.5139 74.5687 20.5845 74.5732 20.6275 74.5606C20.6637 74.55 20.7256 74.5138 20.788 74.3712L20.7909 74.3649ZM19.22 73.7509L20.6206 70.8185C20.9707 70.0745 21.6053 70.0307 22.3494 70.3808L22.415 70.4027C23.1591 70.7529 23.5092 71.2781 23.1591 72.0221L21.7585 74.9545C21.4084 75.6985 20.7738 75.7423 20.0297 75.3922L19.9641 75.3703C19.22 75.0201 18.8699 74.4949 19.22 73.7509ZM19.9556 75.5777L19.8898 75.5558L19.8791 75.5508C19.488 75.3667 19.1694 75.123 19.0041 74.799C18.8333 74.4644 18.8443 74.0809 19.0395 73.666L19.04 73.6649L20.4401 70.7336C20.4402 70.7334 20.44 70.7337 20.4401 70.7336C20.6363 70.317 20.9284 70.0691 21.2975 69.9939C21.6501 69.9221 22.0375 70.0153 22.4235 70.1953L22.4893 70.2172L22.5 70.2222C22.8911 70.4063 23.2097 70.65 23.3751 70.974C23.5458 71.3086 23.5348 71.6921 23.3396 72.107L23.3391 72.1081L21.939 75.0394C21.9389 75.0396 21.9391 75.0392 21.939 75.0394C21.7428 75.456 21.4507 75.7039 21.0817 75.7791C20.729 75.8509 20.3416 75.7577 19.9556 75.5777ZM25.9747 77.9215L23.4304 77.0477L25.3328 71.5517L26.5649 71.9624L25.054 76.32L26.3663 76.7793L25.9747 77.9215ZM24.8003 76.4426L26.3103 72.0878L25.4568 71.8033L23.6843 76.924L25.8507 77.668L26.1133 76.9021L24.8003 76.4426ZM30.4827 79.0671L27.8647 78.4511L29.2034 72.7908L30.4676 73.0752L29.4164 77.5645L30.7761 77.8934L30.4827 79.0671ZM29.177 77.7118L30.2275 73.2257L29.3521 73.0287L28.1048 78.3027L30.3369 78.8279L30.5338 78.0401L29.177 77.7118ZM32.3864 79.4121L33.2322 73.656L34.5242 73.845L33.6784 79.6012L32.3864 79.4121ZM35.9271 79.8479L36.2091 74.0453L37.4486 74.1057L38.1223 76.4789L38.245 74.1318L39.4523 74.197L39.1704 80.0002L37.9743 79.9389L37.2596 77.4062L37.135 79.9132L35.9271 79.8479ZM37.1208 76.18L38.1274 79.747L38.9807 79.7907L39.2435 74.3855L38.4339 74.3418L38.2587 77.6899L37.2958 74.298L36.3986 74.2542L36.136 79.6593L36.9457 79.7032L37.1208 76.18ZM44.5197 78.5329C44.544 78.9955 44.4091 79.3563 44.1256 79.6022C43.851 79.8405 43.466 79.945 43.0401 79.9681L43.0293 79.9686L42.969 79.9683C42.5484 79.9904 42.1543 79.936 41.8542 79.7349C41.5412 79.5251 41.3665 79.1808 41.3421 78.7077C41.3421 78.7074 41.3421 78.708 41.3421 78.7077L41.1451 75.4686C41.1206 75.0152 41.2565 74.6557 41.5381 74.4081C41.8118 74.1673 42.1962 74.0563 42.6246 74.0331L42.6354 74.0326L42.6959 74.0329C43.1312 74.0107 43.5255 74.0774 43.8221 74.285C44.1291 74.4999 44.2982 74.842 44.3227 75.2936C44.3227 75.2937 44.3227 75.2935 44.3227 75.2936L44.3779 76.26L43.0845 76.3231L43.0271 75.4908C43.0181 75.3282 42.9719 75.2752 42.944 75.2547C42.9084 75.2286 42.8414 75.2094 42.7164 75.219C42.5887 75.2288 42.5264 75.2564 42.495 75.2867C42.4702 75.3106 42.4315 75.3693 42.4407 75.5342C42.4407 75.5343 42.4407 75.5342 42.4407 75.5342L42.6157 78.5098C42.6247 78.6724 42.671 78.726 42.6989 78.7465C42.7344 78.7726 42.8015 78.7918 42.9265 78.7822C43.0541 78.7724 43.1165 78.7448 43.1478 78.7145C43.1726 78.6906 43.2113 78.6319 43.2022 78.4669L43.169 77.8537L42.6444 77.8755L42.5781 76.7152L44.3975 76.6033L44.5197 78.5329ZM43.3576 77.6462L43.4013 78.4559C43.4232 78.8498 43.2263 78.9592 42.9418 78.9811C42.6573 79.0029 42.4385 78.9154 42.4166 78.5215L42.2415 75.5453C42.2196 75.1514 42.4166 75.042 42.7011 75.0201C42.9856 74.9983 43.2044 75.0858 43.2263 75.4797L43.27 76.1143L44.1673 76.0705L44.1235 75.3046C44.0797 74.4949 43.5326 74.1886 42.7011 74.2323H42.6354C41.8257 74.2761 41.3005 74.6481 41.3443 75.4578L41.5412 78.6966C41.585 79.55 42.154 79.8126 42.9637 79.7689H43.0293C43.839 79.7251 44.3642 79.375 44.3205 78.5434L44.211 76.8146L42.7886 76.9021L42.8324 77.668L43.3576 77.6462ZM50.8277 78.8398L49.6656 79.0539L48.6121 76.3618V79.2573L47.428 79.4699L45.4557 73.9288L46.7333 73.6733L47.5416 76.2658L47.5111 73.5212L48.6269 73.3042L49.6027 75.8657L49.4043 73.1494L50.6399 72.9218L50.8277 78.8398ZM49.9008 77.2085L48.5002 73.5321L47.7124 73.6852L47.7562 77.6243L46.5963 73.9041L45.721 74.0792L47.5592 79.2437L48.4127 79.0905V75.3046L49.7913 78.8279L50.6229 78.6747L50.4478 73.16L49.6163 73.3132L49.9008 77.2085ZM54.7129 76.5392L54.7221 76.5364C54.8441 76.4989 54.8957 76.4545 54.9164 76.418C54.9344 76.3863 54.9543 76.3155 54.899 76.1588L54.8979 76.1555L53.9581 73.3358C53.9579 73.3353 53.9577 73.3349 53.9575 73.3344C53.9014 73.1762 53.8429 73.1335 53.8106 73.1203C53.7738 73.1052 53.7073 73.1015 53.5831 73.1493L53.5703 73.1542C53.4483 73.1917 53.3967 73.2356 53.3759 73.2722C53.3579 73.3039 53.338 73.3747 53.3933 73.5313L53.3944 73.5346L54.3343 76.3543C54.3345 76.3548 54.3347 76.3554 54.3348 76.356C54.3891 76.5088 54.451 76.5543 54.4883 76.5692C54.5297 76.5858 54.5972 76.5874 54.7041 76.5429L54.7129 76.5392ZM54.7808 76.7271C55.0653 76.6395 55.2184 76.4645 55.0871 76.0924L54.1462 73.2695C54.0149 72.8974 53.796 72.8537 53.5115 72.9631C53.227 73.0506 53.0739 73.2257 53.2052 73.5977L54.1462 76.4207C54.2775 76.7927 54.5182 76.8365 54.7808 76.7271ZM55.1883 72.8109L55.1889 72.8125L56.2174 75.898C56.3636 76.3367 56.3288 76.7219 56.1164 77.0336C55.9111 77.335 55.5619 77.5343 55.1479 77.6611L55.0846 77.6822C54.6698 77.8205 54.2694 77.8607 53.9283 77.7382C53.5764 77.6118 53.3255 77.3263 53.1905 76.898C53.1903 76.8975 53.1901 76.8969 53.1899 76.8963L52.1632 73.8163C52.0059 73.3788 52.0335 72.9929 52.2435 72.6797C52.4463 72.377 52.7965 72.1776 53.2101 72.0509L53.2734 72.0298C53.6885 71.8914 54.0885 71.8515 54.4319 71.9737C54.7854 72.0994 55.0417 72.3834 55.1883 72.8109ZM53.2708 72.2409L53.3365 72.2191C54.1243 71.9564 54.737 72.1096 54.9996 72.8756L56.0281 75.9611C56.2907 76.7489 55.875 77.2304 55.0871 77.4711L55.0215 77.493C54.2337 77.7556 53.6209 77.6024 53.3802 76.8365L52.3517 73.7509C52.0672 72.9631 52.483 72.4816 53.2708 72.2409ZM59.2527 74.4587C59.3158 74.603 59.3719 74.6308 59.4019 74.6391C59.4451 74.6509 59.5166 74.6454 59.6458 74.5967C59.7571 74.5398 59.803 74.4913 59.8207 74.4518C59.8355 74.4186 59.8485 74.3503 59.7855 74.2053L58.5195 71.5205C58.5192 71.5198 58.5188 71.5191 58.5185 71.5184C58.4437 71.3697 58.3803 71.3319 58.3452 71.3214C58.3071 71.31 58.2433 71.3126 58.1306 71.3689C58.0131 71.4277 57.9653 71.4777 57.9472 71.5182C57.9324 71.5514 57.9194 71.6196 57.9824 71.7646L59.2527 74.4587ZM57.8007 71.847C57.6475 71.4969 57.7788 71.3218 58.0414 71.1905C58.304 71.0592 58.5229 71.0811 58.6979 71.4312L59.9672 74.1229C60.1204 74.4731 59.9891 74.6481 59.7265 74.7794C59.442 74.8888 59.2231 74.8888 59.07 74.5387L57.8007 71.847ZM57.5951 70.3047L57.661 70.2828C58.0489 70.102 58.4373 70.0146 58.7904 70.0931C59.1583 70.1748 59.4488 70.4274 59.6443 70.843L61.023 73.7754C61.023 73.7754 61.023 73.7754 61.023 73.7754C61.2182 74.1903 61.2292 74.5738 61.0585 74.9084C60.8932 75.2324 60.5746 75.4761 60.1834 75.6602L60.1727 75.6652L60.1069 75.6872C59.719 75.868 59.3305 75.9553 58.9774 75.8768C58.6096 75.7951 58.3191 75.5425 58.1235 75.127L56.7449 72.1727C56.55 71.7586 56.538 71.3796 56.7102 71.0491C56.8761 70.7304 57.1954 70.4928 57.5845 70.3098L57.5951 70.3047ZM56.9254 72.0877L58.304 75.042C58.6542 75.7861 59.2888 75.8517 60.0328 75.5016L60.0985 75.4797C60.8425 75.1296 61.1927 74.6044 60.8425 73.8603L59.4639 70.9279C59.1137 70.1839 58.4791 70.1182 57.7351 70.4684L57.6694 70.4902C56.9254 70.8404 56.5752 71.3437 56.9254 72.0877ZM62.4196 69.1026L62.1907 69.2424L64.0146 72.1646L64.2368 72.0289C64.2373 72.0286 64.2378 72.0283 64.2382 72.028C64.3453 71.9596 64.3894 71.9042 64.4031 71.862C64.4132 71.831 64.4207 71.7638 64.3311 71.6294L64.328 71.6248L62.813 69.2095C62.7297 69.0613 62.6614 69.0296 62.627 69.0231C62.5894 69.0159 62.5254 69.0256 62.426 69.0978L62.4196 69.1026ZM64.3439 72.1972L63.95 72.4379L61.9148 69.1772L62.3087 68.9365C62.5494 68.7615 62.7902 68.7615 62.9871 69.1116L64.4971 71.5188C64.7159 71.847 64.5846 72.044 64.3439 72.1972ZM61.9148 68.2362C62.6151 67.7986 63.2497 67.7986 63.6655 68.4989L65.3286 71.1468C65.7663 71.847 65.4818 72.416 64.7816 72.8318L63.6001 73.5757L60.7333 68.9806L61.9148 68.2362ZM64.8857 73.002L63.5366 73.8514L60.4587 68.9173L61.8085 68.0674C62.1772 67.837 62.5574 67.7028 62.9187 67.7425C63.2912 67.7836 63.6032 68.0044 63.8357 68.3947L65.4976 71.0407C65.7413 71.4306 65.7989 71.8128 65.669 72.165C65.5431 72.5062 65.2546 72.7825 64.8857 73.002ZM32.6128 79.2437L33.51 79.375L34.2978 74.0135L33.4012 73.8823L32.6128 79.2437ZM20.9707 74.4512C20.8175 74.8013 20.5768 74.8232 20.3142 74.6919C20.0516 74.5606 19.9203 74.3636 20.0735 74.0354L21.3646 71.3437C21.5178 70.9936 21.7585 70.9717 22.0211 71.103C22.3056 71.2343 22.4369 71.4094 22.2619 71.7595L20.9707 74.4512Z" fill="white"/>
<path d="M68.9173 66.5509L66.4664 68.5642C66.4007 68.608 66.2913 68.608 66.2476 68.5423L66.2257 68.5204C66.16 68.4548 66.1819 68.3454 66.2476 68.3016L68.6985 66.2883C68.7642 66.2445 68.8517 66.2445 68.9173 66.3102L68.9392 66.3321C68.983 66.3977 68.983 66.4853 68.9173 66.5509Z" fill="white"/>
</g>
<defs>
<clipPath id="clip0_413_1270">
<rect width="80" height="80" fill="white"/>
</clipPath>
</defs>
</svg>
