<svg width="80" height="80" viewBox="0 0 80 80" fill="none" xmlns="http://www.w3.org/2000/svg">
<path d="M16.4862 27.201C16.4862 27.201 18.1837 25.1057 21.5177 22.8271C22.1677 21.959 22.898 21.1179 23.6932 20.3265L24.0106 20.0283C24.0411 19.6727 24.0564 19.3057 24.0717 18.9309C16.3715 22.33 13.0107 27.201 13.0107 27.201C13.0107 28.1301 13.0566 29.059 13.1446 29.9805C14.4254 29.4873 15.5992 29.0361 16.5397 28.6729C16.5091 28.1721 16.4862 27.6789 16.4862 27.201Z" fill="black"/>
<path d="M39.8203 59.8218C33.4161 57.1074 27.9793 53.3604 24.026 48.3977C22.2672 46.1839 20.7111 43.3967 19.4723 40.426C18.9447 40.2577 18.4133 40.0972 17.8895 39.9519C17.1286 39.7416 16.3563 39.5581 15.584 39.4014C16.7654 42.1197 18.3445 44.7272 20.3058 47.1972C24.6186 52.6225 30.5754 57.0308 37.6027 60.0359H18.1724C18.3942 60.3457 18.5165 60.7165 18.5165 61.1562H39.8203" fill="black"/>
<path d="M52.5023 54.6755C52.6973 54.2396 52.8999 53.8039 53.0988 53.3833C52.9152 53.4521 51.8562 53.7961 50.7053 54.1632C47.7919 56.4037 44.4618 58.281 40.8296 59.8179V61.1561H61.449C61.449 60.7164 61.5752 60.3456 61.7969 60.0358H43.0471C46.4767 58.5677 49.6463 56.7669 52.5023 54.6755Z" fill="black"/>
<path d="M45.9989 16.0671L45.8345 16.178C45.3336 16.5298 44.8557 16.8854 44.4046 17.2409L44.2593 17.3633C57.3772 18.8124 64.1637 27.2008 64.1637 27.2008C64.1637 29.7931 63.6667 32.7791 62.8102 35.7766L65.2648 36.9733L65.8957 37.2869C67.0389 34.037 67.6353 30.6532 67.6353 27.2008C67.6353 27.2008 61.2809 17.9827 45.9989 16.0671Z" fill="black"/>
<path d="M41.4797 20.0398C41.2312 20.3418 41.0094 20.64 40.8183 20.9268C40.5468 21.3397 40.3365 21.7411 40.1912 22.1196C40.0536 22.4829 39.9809 22.8271 39.9618 23.1405L39.958 23.2781L39.981 23.4923C40.5468 24.4137 40.9559 25.1402 41.1891 25.5569C41.4835 25.8322 41.8238 26.1074 42.2176 26.3713C42.967 26.8721 43.8922 27.3539 44.9704 27.805L48.7288 29.3879L52.361 30.9631L55.8441 32.523L59.1704 34.0486L60.0307 34.4577C60.5124 32.416 60.7762 30.424 60.7762 28.6462C60.7762 28.6462 54.1924 20.4985 41.4797 20.0398Z" fill="#00A9D8"/>
<path d="M42.4813 54.4729C42.4813 54.4729 43.1198 52.653 43.6015 51.2842C43.2918 51.3799 35.603 52.6263 35.603 52.6263C35.603 52.6263 37.0292 51.204 38.8758 49.3572C38.4056 49.2082 37.9315 49.0591 37.4727 48.8985C36.0121 48.3824 34.5975 47.8051 33.2746 47.1819C31.902 46.5434 30.5906 45.8359 29.3633 45.0827C28.2966 44.4213 27.2146 43.8058 26.1593 43.2553C25.2035 42.7543 24.2362 42.2917 23.2842 41.875C24.1788 43.7063 25.2112 45.4116 26.3429 46.8339C29.8221 51.204 34.6472 54.4768 40.3249 56.8204C43.3989 55.555 46.2091 54.0027 48.7019 52.1675C47.7002 52.5383 42.4813 54.4729 42.4813 54.4729Z" fill="#00A9D8"/>
<path d="M13.3779 68.214H4.11394C2.03021 68.214 0 67.5832 0 66.3558H13.2327V64.6659H3.94571C1.85815 64.6659 0 64.0389 0 62.781V61.2975C0 59.8409 1.85815 59.2368 3.97247 59.2368H13.4353C15.8937 59.2368 17.5531 59.8103 17.5531 61.1218H4.42745V62.781H13.4047C15.4884 62.781 17.5531 63.3277 17.5531 64.5551V66.3252C17.5531 67.6137 15.8631 68.214 13.3779 68.214Z" fill="black"/>
<path d="M26.4115 68.1989H26.1783V66.1687H21.1009V68.1989H20.8218C19.6174 68.1989 18.5928 67.7707 18.5928 67.1245V64.085C18.5928 63.4732 19.6174 63.0259 20.8371 63.0259H21.1009V65.0943H26.1936V63.0259H26.4115C27.7803 63.0259 28.6864 63.4083 28.6864 64.1194V67.1245C28.6864 67.8663 27.6656 68.1989 26.4115 68.1989Z" fill="black"/>
<path d="M48.1131 68.2142L44.5306 65.0753H48.4266V64.1156H43.3377V71.5941C43.3377 72.1063 43.1389 72.4008 42.6954 72.5881C42.2672 72.7487 41.6707 72.7985 41.0743 72.7985H40.8296V63.0259H48.6445C50.0171 63.0259 50.9233 63.4083 50.9233 64.1156V65.0906C50.9233 65.752 50.1471 66.1344 48.7554 66.184L51.1527 68.2142" fill="black"/>
<path d="M59.744 68.1989C58.5052 68.1989 58.142 67.9197 57.6488 67.6865L54.4754 65.8207V67.2086C54.4754 67.9503 53.401 68.1989 52.1967 68.1989H51.9673V63.0259H54.4754V65.3085L57.7444 63.0259H60.524L57.1021 65.4575L61.6633 68.1989" fill="black"/>
<path d="M75.8247 68.214H66.5607C64.477 68.214 62.4468 67.5832 62.4468 66.3558H75.6794V64.6659H66.3925C64.3049 64.6659 62.4468 64.0389 62.4468 62.781V61.2975C62.4468 59.8409 64.3049 59.2368 66.4192 59.2368H75.8821C78.3405 59.2368 79.9998 59.8103 79.9998 61.1218H66.8742V62.781H75.8515C77.9352 62.781 79.9998 63.3277 79.9998 64.5551V66.3252C79.9998 67.6137 78.3099 68.214 75.8247 68.214Z" fill="black"/>
<path d="M32.2043 64.1156H37.2779V65.0753H32.2043V64.1156ZM31.9596 63.0259C30.7515 63.0259 29.6924 63.3738 29.6924 64.1652V68.1989H29.8415C30.4685 68.1989 31.1147 68.0995 31.5238 67.9197C31.9902 67.7171 32.2043 67.4724 32.2043 66.9755V66.1687H37.2779V71.5941C37.2779 72.1063 37.4729 72.4046 37.9241 72.5881C38.3523 72.7487 38.9831 72.8022 39.5719 72.8022H39.8205V63.0259" fill="black"/>
<path d="M37.7979 24.4251C37.6794 23.9586 37.6374 23.4884 37.6603 23.0181C37.6947 22.4408 37.8285 21.8673 38.0388 21.3015C38.2491 20.7471 38.5397 20.2042 38.8876 19.6688C39.2317 19.1413 39.6331 18.6289 40.0728 18.132C40.5049 17.6463 40.9751 17.1723 41.4684 16.7172C41.9539 16.2699 42.4624 15.8417 42.9786 15.4326C43.4871 15.0312 44.0033 14.6488 44.5079 14.2932C45.502 13.5936 46.4808 12.9779 47.3334 12.4694C48.9851 11.4946 54.6016 11.8615 54.6016 11.8615L61.1128 8C59.3082 8.32119 57.6718 8.57344 56.1998 8.77608C54.7163 8.97871 53.4011 9.11643 52.2502 9.21582C49.918 9.41845 48.2548 9.42603 47.0849 9.34967C44.745 9.20438 44.3856 8.72646 44.3856 8.72646L45.4332 12.9473C44.1409 13.1844 42.9212 13.4444 41.7742 13.7197C40.6081 13.9989 39.5223 14.297 38.4938 14.6143C37.45 14.9355 36.4789 15.2759 35.5613 15.6275C34.6284 15.987 33.7643 16.3617 32.9499 16.7439L32.4414 16.9925C34.6895 19.5733 36.5745 22.414 37.7979 24.4251Z" fill="black"/>
<path d="M26.2246 21.1104C25.9034 21.3932 25.6052 21.6762 25.3185 21.9591C24.3741 22.8959 23.6132 23.8211 23.0015 24.6852C22.3707 25.5836 21.8966 26.4134 21.5486 27.1284C20.8566 28.5354 20.654 29.4682 20.6387 29.5561C24.1485 28.0575 25.6702 24.6508 26.2246 21.1104Z" fill="black"/>
<path d="M76.7389 45.6258C75.913 45.1517 74.8846 44.5744 73.6534 43.9014C72.4414 43.24 71.0421 42.4905 69.4477 41.6647C68.664 41.2594 67.8343 40.8351 66.9626 40.3915C66.0985 39.9557 65.1962 39.5045 64.2441 39.0343C63.3074 38.5755 62.3325 38.1013 61.3193 37.612C60.3137 37.1302 59.27 36.6408 58.1918 36.1362C57.1289 35.643 56.0239 35.1344 54.8884 34.6183C53.7643 34.1098 52.6173 33.5936 51.4282 33.0699C50.2583 32.5537 49.0539 32.0337 47.8228 31.5023C46.607 30.9823 45.3682 30.4585 44.0912 29.927C42.8372 29.407 41.7934 28.8603 40.9369 28.2869C40.2296 27.8165 39.6599 27.3347 39.2011 26.8415C38.2032 25.0064 32.3 14.5228 25.7238 11.4678C25.7238 11.4678 26.7676 17.1226 26.2246 21.1104C25.6664 24.6509 24.1486 28.0575 20.6387 29.5562L20.6349 29.5639L14.1505 32.0643L0.753418 37.2259L0.764888 37.2832C9.57391 34.9051 19.2126 36.767 21.6443 37.3061L22.1757 37.4361L22.2254 37.4475V37.4438C22.493 37.5049 22.7722 37.5661 23.0627 37.6197C24.7335 37.9523 26.3623 38.285 27.9566 38.6176C29.5739 38.9539 31.1568 39.2867 32.6938 39.623C34.2537 39.9634 35.7678 40.2999 37.2436 40.6325C38.6085 40.9421 39.9238 41.248 41.2084 41.5463C41.0746 40.858 41.0096 40.1163 41.0096 39.3402V39.3134L42.4319 39.822C42.4586 40.556 42.5466 41.2519 42.6957 41.9018C42.3286 41.8177 41.9616 41.7259 41.5946 41.6418C42.7989 41.9285 43.9689 42.2077 45.1044 42.483C44.7565 42.3989 44.4086 42.3109 44.053 42.2269C43.9 41.6265 43.7892 40.9766 43.7356 40.2922L45.2038 40.8198C45.2803 41.4468 45.4026 42.0471 45.5709 42.5977L45.7161 42.6321C46.2858 42.7697 46.8402 42.9111 47.3946 43.0488L46.9626 42.9417C46.7867 42.4371 46.6529 41.8865 46.5535 41.3015L48.0713 41.8483C48.1899 42.3759 48.339 42.8768 48.5225 43.3317L48.0216 43.2056C48.5493 43.3394 49.0731 43.4733 49.5816 43.5994C50.828 43.9206 52.0247 44.2302 53.1641 44.5322C54.3225 44.8344 55.4198 45.1325 56.456 45.4193L56.9645 45.557C61.369 46.5893 69.6657 48.0192 79.2394 47.1016C79.2394 47.1016 78.4212 46.5893 76.7389 45.6258Z" fill="#00A9D8"/>
<path d="M54.6167 46.1075C52.1621 45.8208 53.5691 46.0883 52.0168 45.0101L58.1648 46.0883C58.1648 46.0883 57.0713 46.3942 54.6167 46.1075ZM56.9642 45.5569L56.4595 45.4192C55.4196 45.1364 54.3223 44.8381 53.1715 44.536C52.0244 44.234 50.8316 43.9206 49.5813 43.6032C48.3426 43.2896 47.0541 42.9609 45.7159 42.6358C44.3854 42.3109 43.0128 41.9783 41.5943 41.6418C40.1911 41.3092 38.7421 40.9765 37.2433 40.6325C35.9281 40.338 34.567 40.036 33.1829 39.734C27.7805 38.4837 25.1003 35.8723 25.1003 35.8723C25.3718 36.8091 25.7962 37.6044 26.2665 38.2696C25.2112 38.0554 24.1483 37.8413 23.0625 37.6197L22.596 37.5279L22.2252 37.4475L22.1793 37.4361H22.1755L21.644 37.3099C19.2124 36.7669 9.57367 34.9089 0.764648 37.2871V37.2908C1.19286 37.1838 1.86578 37.0308 2.73368 36.8855C4.3242 36.6102 6.56086 36.3541 9.22192 36.3961C10.5601 36.419 12.0092 36.5147 13.55 36.7212C15.0984 36.9275 16.7539 37.2526 18.5012 37.7305C19.3806 37.9713 20.2867 38.2543 21.2196 38.5831C22.1564 38.9157 23.1237 39.2942 24.1177 39.7224C25.1233 40.1621 26.1594 40.6554 27.2261 41.2136C28.3043 41.7794 29.4207 42.4103 30.5716 43.1215C31.7453 43.8402 32.9726 44.5017 34.2458 45.098C35.5419 45.706 36.8725 46.2451 38.2374 46.7269C39.6176 47.2124 41.0246 47.6368 42.4469 48.0077L43.2804 48.2104L42.1869 49.3038L44.7218 48.5391C45.4062 48.6844 46.0829 48.822 46.7712 48.9406L46.8629 48.9559L46.2818 50.6075L49.6081 49.3764C50.0975 49.4415 50.583 49.4988 51.0686 49.5523V51.9113L56.5245 49.927C56.8189 49.9384 57.1019 49.9423 57.3924 49.95L56.5207 51.7928L59.3844 49.9576C60.7302 49.95 62.0264 49.9078 63.2766 49.8352C65.4444 49.7052 67.4517 49.5026 69.2487 49.2579L69.9445 49.1585C71.9059 48.8718 73.5997 48.5467 74.9837 48.241C77.7174 47.6329 79.2391 47.1054 79.2391 47.1054C69.6654 48.0192 61.3687 46.593 56.9642 45.5569Z" fill="black"/>
<path d="M48.7251 45.6218L50.3423 45.7557C49.6083 45.3045 48.9698 44.4481 48.5224 43.3316C48.0139 43.2016 47.4901 43.0755 46.9663 42.9417C47.3792 44.1422 47.9948 45.0866 48.7251 45.6218Z" fill="#00A9D8"/>
<path d="M44.3241 45.2509C43.5939 44.5053 43.0127 43.324 42.6992 41.9016C42.3322 41.8176 41.9613 41.7296 41.5981 41.6417L41.2119 41.5537C41.4948 43.0525 42.0569 44.3104 42.791 45.1248" fill="#00A9D8"/>
<path d="M45.7313 45.3695L47.2874 45.4995C46.5571 44.8916 45.953 43.8746 45.5707 42.5976C45.0698 42.4751 44.5651 42.3529 44.0566 42.2305C44.4046 43.584 45.001 44.6927 45.7313 45.3695Z" fill="#00A9D8"/>
<path d="M14.6606 69.756C14.1176 69.756 13.8336 69.7661 13.6462 69.8044C13.3403 69.8732 13.3081 69.9984 13.3081 70.6255V70.7221V71.0119C13.3119 71.4439 13.3963 71.5824 13.6945 71.6399C13.8857 71.6819 14.0655 71.6881 14.6123 71.6881C15.5681 71.6881 15.7232 71.5941 15.7232 71.1085V70.9153H15.1436V70.9637V71.0119C15.1398 71.1456 15.0745 71.2051 14.7572 71.2051H14.4673C14.1424 71.2051 13.9896 71.2028 13.936 71.1569C13.8749 71.111 13.8877 70.9797 13.8877 70.6738L13.936 70.2874C13.9896 70.2375 14.0888 70.239 14.4673 70.239H14.9504L15.0953 70.4323H15.6749V70.384V70.3356C15.6749 69.8194 15.5667 69.756 14.6606 69.756ZM16.2062 69.756V71.6881H16.8341V71.2051H17.7519C17.9622 71.2088 17.9934 71.2144 17.9934 71.5433V71.6881H18.573V71.4949V71.3501L18.2832 70.9637V70.9153C18.5241 70.8808 18.573 70.7409 18.573 70.3356C18.573 69.8577 18.4612 69.756 17.9451 69.756H16.2062ZM19.4907 69.756C19.1237 69.8134 19.0598 69.9803 19.056 70.7221V70.8187C19.056 71.4419 19.1022 71.5709 19.4424 71.6399C19.6642 71.6819 19.9865 71.6881 20.4568 71.6881C21.1297 71.6881 21.3818 71.6655 21.5194 71.5433C21.6456 71.4325 21.6643 71.2754 21.6643 70.6255C21.6643 69.9908 21.5991 69.8656 21.2779 69.8044C21.0906 69.7698 20.7377 69.756 20.2636 69.756C19.8545 69.756 19.6628 69.7293 19.4907 69.756ZM22.1956 69.756V71.6881H22.7753V70.239H22.8236L23.8379 71.6881H24.8522V69.756H24.2243L24.2726 71.2051H24.176L23.21 69.756H22.1956ZM25.3836 69.756V70.6255V70.8671C25.3912 71.3716 25.4311 71.5595 25.7217 71.6399C25.9243 71.6972 26.0579 71.6881 26.7843 71.6881C27.6752 71.6881 27.8355 71.5896 27.847 70.8671V70.6255V69.756H27.2673V70.6255L27.1707 71.1085C27.1057 71.1773 26.9811 71.2051 26.5911 71.2051C25.9794 71.2051 25.9632 71.1858 25.9632 70.8187V69.756H25.3836ZM28.3783 69.756V71.6881H30.3104V71.2051H28.9579V69.756H28.3783ZM30.6968 69.756V71.6881H32.6771V71.2051H31.3247V69.756H30.6968ZM33.8364 69.756L32.8221 71.6881H33.4983L33.6432 71.3501H34.899L35.0922 71.6881H35.7202L34.7541 69.756H33.8364ZM45.3322 69.756C44.9996 69.7905 44.8975 69.9342 44.8975 70.3356C44.8975 70.7448 45.0069 70.9 45.4771 70.9153H45.9602L46.3466 70.9637L46.6364 71.1085L46.2983 71.2535H46.0085H45.7669C45.4534 71.2496 45.4327 71.2145 45.4288 71.0119H44.8975V71.1085C44.8975 71.6056 45.0144 71.6881 46.0085 71.6881C46.8343 71.6881 46.9373 71.6516 47.0711 71.4949L47.216 71.0603L47.0711 70.6255C46.9526 70.5069 46.8492 70.5074 46.1534 70.4806C45.7825 70.4731 45.6579 70.4476 45.5737 70.4323L45.4288 70.2874C45.4288 70.1574 45.4708 70.1908 45.9602 70.1908H46.0085H46.25L46.5881 70.384H47.1194V70.2874C47.1194 69.8248 46.9667 69.756 46.0568 69.756C45.7509 69.756 45.5005 69.7446 45.3322 69.756ZM47.699 69.756V70.6255V70.8671C47.7067 71.3793 47.7949 71.5594 48.0854 71.6399C48.2919 71.7011 48.3733 71.6881 49.0998 71.6881C49.9906 71.6881 50.1471 71.5896 50.1624 70.8671V70.6255V69.756H49.5828V70.6255L49.4862 71.1085C49.4212 71.1811 49.3449 71.2051 48.9549 71.2051C48.3393 71.2051 48.2825 71.1819 48.2786 70.8187V69.756H47.699ZM50.5005 69.756V70.239H51.37V71.6881H51.9496V70.239H52.819V69.756H50.5005ZM53.2054 69.756V71.6881H53.8334V71.0119H55.1375V71.6881H55.7654V69.756H55.1375V70.4323H53.8334V69.756H53.2054ZM56.2968 69.756V71.6881H58.422V71.2051H56.8764V70.9153H58.3254V70.4806H56.8764V70.1908H58.422V69.756H56.2968ZM58.9534 69.756V71.6881H59.533V71.2051H60.499C60.7131 71.2089 60.7405 71.2107 60.7405 71.5433V71.6881H61.3201V71.4949V71.3501L61.0303 70.9637V70.9153C61.2712 70.881 61.3201 70.7448 61.3201 70.3356C61.3201 69.8577 61.2046 69.756 60.6922 69.756H60.3541H58.9534ZM61.8032 69.756V71.6881H63.7835V71.2051H62.4311V69.756H61.8032ZM64.9428 69.756L63.9284 71.6881H64.6047L64.7496 71.3501H66.0054L66.1986 71.6881H66.8266L65.8605 69.756H64.9428ZM67.1647 69.756V71.6881H67.7443V70.239H67.7926L68.8069 71.6881H69.8213V69.756H69.1933L69.2416 71.2051H69.145L68.179 69.756H67.1647ZM70.3526 69.756V71.6881H71.7533C72.411 71.6881 72.5779 71.6365 72.7194 71.4949C72.8532 71.3649 72.8643 71.1783 72.8643 70.6738C72.8643 70.2686 72.8049 70.0347 72.6711 69.901L72.4296 69.8044C72.2575 69.7698 72.2733 69.756 71.7533 69.756H70.3526ZM34.2228 70.1908H34.3194L34.7058 70.9153H33.8364L34.2228 70.1908ZM65.3292 70.1908H65.4258L65.8122 70.9153H64.9428L65.3292 70.1908ZM16.8341 70.239H17.607L17.9934 70.2874L18.0417 70.4806L17.7519 70.7221H17.607H16.8341V70.239ZM19.8289 70.239H20.3602C20.7502 70.239 20.9867 70.2377 21.0364 70.2874L21.0847 70.6255C21.0847 71.1378 21.0692 71.2014 20.6983 71.2051H20.3602H20.2636C19.6595 71.2051 19.6356 71.1833 19.6356 70.7704V70.7221C19.6471 70.3474 19.653 70.2619 19.8289 70.239ZM59.533 70.239H60.3541L60.6922 70.2874L60.7405 70.4806L60.499 70.7221H60.3541H59.533V70.239ZM70.9322 70.239H71.7533C72.086 70.239 72.179 70.2338 72.2364 70.2874L72.2847 70.6738C72.2847 71.1516 72.2963 71.2051 71.7533 71.2051H70.9322V70.239Z" fill="black"/>
</svg>
