<svg width="80" height="80" viewBox="0 0 80 80" fill="none" xmlns="http://www.w3.org/2000/svg">
<path d="M57.8716 20.8658C57.8716 20.8658 59.4822 20.8381 59.9404 21.0186C59.9404 21.0186 60.357 20.5187 61.2595 20.0744C61.2595 20.0744 59.5516 19.7828 57.8716 20.8658Z" fill="#003087"/>
<path d="M63.4949 33.2094C64.9251 29.155 59.6766 28.7662 59.6766 28.7662C56.9969 25.3506 39.3354 26.6141 39.3354 26.6141C45.7086 23.254 57.4273 19.4357 57.4273 19.4357C56.622 18.5471 54.5115 17.5751 54.5115 17.5751C55.1224 17.3669 55.6917 17.1725 56.2054 17.0058C56.2054 17.0058 53.2619 15.1592 48.5688 13.8679C48.5688 13.8679 49.8323 14.5205 52.4149 16.7143C52.4149 16.7143 46.8471 14.1317 36.3641 14.6454C36.3641 14.6454 38.7106 15.548 42.5706 17.8251C42.5706 17.8251 43.1676 17.2835 44.2645 17.0197C44.1673 18.4082 46.0279 19.6856 48.4161 19.8522C49.2492 19.9217 50.0961 19.8245 50.9015 19.5884C50.9015 19.5884 49.7074 20.9491 46.9721 20.9352C43.6675 20.9214 42.6956 19.1719 42.6956 19.1719C42.6956 19.1719 38.0858 20.5742 35.2533 22.0877C35.2533 22.0877 38.2247 21.8516 41.8069 22.0183C41.8069 22.0183 31.4767 25.8921 16.7172 39.7352C16.7172 39.7352 14.3706 32.4596 19.1748 26.864C19.1748 26.864 20.8409 25.545 27.7833 23.2123C27.7833 23.2123 17.6613 25.2951 11.6909 27.2945C11.6909 27.2945 13.1488 21.5045 20.5077 18.0056C20.5077 18.0056 22.8265 17.3113 29.3662 16.5615C29.3662 16.5615 22.8265 16.0895 14.5373 16.8115C14.5373 16.8115 18.8693 11.6602 25.6728 10.2717C25.6728 10.2717 26.4226 10.1745 30.6852 10.1884C30.6852 10.1884 26.7975 8.88326 21.077 7.60586C21.077 7.60586 44.4867 5.71754 59.1629 16.0895C59.1629 16.0895 58.427 16.3394 57.5939 16.6448C57.5939 16.6448 64.3003 19.0608 66.9245 22.5875C70.6178 27.3222 63.4949 33.2094 63.4949 33.2094ZM47.0276 30.724C49.2214 29.5021 51.5124 28.1414 51.5124 28.1414C56.2193 27.9609 58.1493 29.0023 58.1493 29.0023C52.3038 29.3078 47.0276 30.724 47.0276 30.724ZM37.3499 43.3314C33.6982 41.4847 32.8096 38.8744 32.8096 38.8744C37.7665 31.7376 45.2781 31.2794 45.2781 31.2794C39.6131 36.6667 37.3499 43.3314 37.3499 43.3314ZM26.1727 45.3585C26.1727 45.3585 22.521 41.8735 21.7712 37.6525C21.7712 37.6525 29.0746 28.5024 41.4182 29.4883C41.4182 29.4883 31.9765 34.098 26.1727 45.3585ZM61.3012 16.0478C61.3012 16.0478 62.1065 15.7701 62.8007 15.5896C62.8007 15.5896 46.139 1.67707 13.0516 5.74531C13.0516 5.74531 17.2726 7.49479 20.9242 9.43865C20.9242 9.43865 15.1343 11.1326 9.26105 19.0886C9.26105 19.0886 10.0525 19.0608 14.565 18.9219C14.565 18.9219 9.80255 22.3515 8.09473 30.8767C8.09473 30.8767 10.7745 29.9187 14.8983 28.8912C14.8983 28.8912 11.7325 34.4451 15.898 44.456C15.898 44.456 17.6613 42.3178 20.0495 40.124C20.0495 40.124 21.5352 45.5946 27.1169 49.3712C27.1169 49.3712 29.1718 44.581 31.435 41.443C31.435 41.443 33.2678 44.7615 38.6968 46.4138C43.8897 30.6268 57.5245 31.2794 57.5245 31.2794C64.4252 31.1128 60.1626 36.6945 60.1626 36.6945C60.1626 36.6945 68.7295 34.2091 70.2846 26.267C70.2707 26.2809 71.5342 20.6992 61.3012 16.0478ZM21.5352 68.199L20.9798 65.8247L20.716 64.3529L20.0773 65.8247L18.8832 68.199H21.5352ZM27.0197 73.8362C26.1033 74.0028 25.1452 74.1139 24.2705 74.1139C23.7706 74.1139 23.2847 74.0722 22.8542 74.0028L22.2988 71.6285H17.1198L15.9257 74.0028C15.3009 74.0722 14.6483 74.1 14.0235 74.1C13.2182 74.1 12.4684 74.0306 11.8992 73.8501L19.4247 59.2294C20.1328 59.1183 20.8687 59.0906 21.5629 59.0906C22.2711 59.0906 22.8959 59.1183 23.5624 59.2294L27.0197 73.8362ZM53.0119 72.17C52.9286 72.7948 52.7898 73.3919 52.5815 73.9889H42.6678L44.6672 59.2294C45.3614 59.1183 46.0557 59.0489 46.7638 59.0489C47.458 59.0489 48.1384 59.1183 48.8049 59.2294L47.3192 70.2678H53.0953C53.1369 70.9065 53.1091 71.5313 53.0119 72.17Z" fill="#003087"/>
<path d="M66.4902 72.5861C66.7679 71.156 67.6427 69.8508 68.7257 69.2538C69.6143 69.9619 71.2111 70.5589 72.9883 70.5589C74.349 70.5589 74.835 70.309 74.9044 69.823C74.9877 69.2538 74.7378 69.0177 72.3218 68.379C69.8365 67.7403 67.7815 66.7684 68.1703 63.7276C68.5591 60.673 71.2527 58.8263 74.8766 58.8263C77.5425 58.8263 79.2642 59.701 80.0001 60.3675C79.7363 61.6588 78.9449 63.0334 77.6814 63.7276C76.9593 63.1583 75.6681 62.6168 74.0297 62.6168C72.8772 62.6168 72.2663 62.8945 72.2108 63.3527C72.1413 63.8803 72.3079 64.047 75.0016 64.7134C77.5842 65.3521 79.2781 66.5462 79.0004 69.1288C78.6394 72.5306 76.0846 74.3495 72.3913 74.3495C69.2394 74.3634 67.3927 73.4192 66.4902 72.5861Z" fill="#003087"/>
<path d="M65.1751 70.3372H59.0519L59.3296 68.31H64.578C64.8002 67.713 64.9252 67.1159 65.0085 66.5189C65.0918 65.8941 65.1334 65.297 65.064 64.7H59.8156L60.0655 62.8811H65.9804C66.2026 62.2562 66.3275 61.6592 66.4108 61.0483C66.4941 60.4512 66.5219 59.8264 66.4664 59.2294H54.5949L56.1778 61.0622L54.4283 74.0028H64.6891C64.8974 73.4057 65.0501 72.7948 65.1196 72.1561C65.189 71.559 65.2306 70.9342 65.1751 70.3372ZM10.7468 70.3372H4.63751L4.91521 68.31H10.1636C10.3858 67.713 10.5108 67.1159 10.5941 66.5189C10.6774 65.8941 10.719 65.297 10.6496 64.7H5.38729L5.63721 62.8811H11.5521C11.7743 62.2562 11.8992 61.6592 11.9826 61.0483C12.0659 60.4512 12.0936 59.8403 12.0381 59.2294H0.166617L1.74948 61.0622L0 74.0028H10.2608C10.483 73.378 10.608 72.7809 10.6913 72.1561C10.7746 71.559 10.8023 70.9342 10.7468 70.3372Z" fill="#003087"/>
<path d="M35.3183 65.1785C34.7907 66.0949 34.624 67.2057 34.6379 68.2054H36.9567L36.5818 70.4825C36.2069 70.5241 35.7904 70.5519 35.3044 70.5519C33.1939 70.5519 32.0554 69.0385 32.3886 66.6225C32.7218 64.1649 34.2075 62.6931 36.443 62.6931C37.4565 62.6931 38.3591 62.943 39.0533 63.4568C40.3585 62.7903 41.3859 61.3185 41.7747 59.9995C40.7472 59.2914 39.1644 58.736 37.04 58.736C32.097 58.736 28.5009 62.0683 27.8761 66.6919C27.2512 71.3433 29.7505 74.4396 34.7907 74.4396C37.5676 74.4396 39.1227 73.8426 40.3585 73.2594L41.4415 65.1785H35.3183Z" fill="#003087"/>
<path d="M19.1612 51.4678C19.0223 51.4678 18.8974 51.4817 18.8002 51.4817H18.7308L18.7169 51.5511C18.4114 53.0507 17.9393 54.5086 17.3284 55.897C17.1479 54.8001 17.009 53.4394 16.898 51.7455V51.6761L16.8285 51.6622C16.6064 51.6205 16.3703 51.5928 16.1343 51.5928C15.8705 51.5928 15.6345 51.6066 15.4123 51.6622L15.3568 51.6761L15.3429 51.7316C15.1485 52.8979 14.6348 54.4253 13.9683 55.897C13.76 54.4669 13.6628 53.009 13.6767 51.565V51.4817L13.6073 51.4678C13.4684 51.4539 13.3157 51.44 13.1769 51.44C12.8297 51.44 12.4132 51.4817 12.0938 51.5511L12.0244 51.565V51.6344C12.1077 53.856 12.3854 55.7443 12.8714 57.3827L12.8853 57.4382L12.9408 57.4521C13.1907 57.4938 13.4268 57.5216 13.7184 57.5216C13.9405 57.5216 14.2043 57.4938 14.4542 57.4521H14.4959L14.5237 57.4244C14.8708 56.869 15.5095 55.786 15.8566 54.5224C15.926 55.3972 16.0232 56.3413 16.287 57.3966L16.3009 57.4521L16.3565 57.466C16.6064 57.5077 16.8285 57.5354 17.1062 57.5354C17.3839 57.5354 17.6339 57.5077 17.856 57.466L17.8977 57.4521L17.9116 57.4244C19.0362 55.6749 19.7166 53.6338 20.272 51.6761L20.2997 51.5928L20.2303 51.565C20.0637 51.5094 19.5361 51.4678 19.1612 51.4678ZM25.2844 51.5233H21.4522L20.6469 57.4938H24.5485L24.5762 57.4382C24.7567 57.0772 24.8123 56.7162 24.7567 56.1886L24.7429 56.1053H22.3686L22.5074 55.0917H24.5485L24.5762 55.0362C24.729 54.7168 24.7845 54.3281 24.7429 53.856L24.729 53.7727H22.6879L22.799 52.884H25.1039L25.1316 52.8285C25.326 52.412 25.3816 52.0648 25.3121 51.5789L25.2844 51.5233ZM28.7833 51.3706C27.9919 51.3706 27.3254 51.6205 26.895 52.0648C26.5479 52.4258 26.3813 52.8979 26.3951 53.4255C26.4507 54.6196 27.3949 54.9529 28.0752 55.175C28.5751 55.3416 28.8805 55.4666 28.8944 55.7304C28.8944 55.8693 28.8666 55.9665 28.7972 56.0359C28.6861 56.147 28.464 56.2025 28.1307 56.2025C27.5615 56.2025 26.9783 56.0081 26.6312 55.7027L26.5895 55.661L26.534 55.6888C26.1452 55.9109 25.8398 56.3414 25.7426 56.8273L25.7287 56.8829L25.7703 56.9106C26.048 57.1744 26.7284 57.6187 28.0197 57.6187C28.825 57.6187 29.4914 57.3827 29.908 56.9384C30.269 56.5635 30.4356 56.0637 30.4217 55.4944C30.3662 54.2448 29.3943 53.9115 28.6722 53.6755C28.2557 53.5366 27.9225 53.4255 27.9086 53.1895C27.9086 53.1062 27.9364 53.0229 27.9919 52.9673C28.103 52.8424 28.339 52.7868 28.6584 52.7868C29.3248 52.7868 29.783 53.0645 29.9496 53.1895L29.9913 53.2173L30.0468 53.1895C30.4217 52.9951 30.7272 52.5369 30.8244 52.051L30.8383 52.0093L30.7966 51.9676C30.6439 51.8427 30.033 51.3706 28.7833 51.3706ZM36.531 51.5233H31.9629L31.9352 51.5789C31.7963 51.926 31.7408 52.3286 31.7685 52.8146V52.8979H33.3098L32.6849 57.466L32.7683 57.4799C32.9765 57.5216 33.1987 57.5493 33.4486 57.5493C33.6846 57.5493 33.9207 57.5354 34.1428 57.4799L34.2123 57.466L34.8371 52.884H36.3644L36.3922 52.8285C36.531 52.4675 36.5866 52.0648 36.5588 51.5928C36.531 51.6066 36.531 51.5233 36.531 51.5233ZM42.8486 51.3151C41.9322 51.3151 41.0991 51.6622 40.5021 52.287C39.8356 52.9812 39.5024 53.9809 39.544 55.0917C39.6134 56.6607 40.6409 57.6465 42.2377 57.6465C43.0152 57.6465 43.6678 57.4521 44.1676 57.0495L44.2093 57.0217V56.98C44.1815 56.4663 43.9594 56.0775 43.5428 55.8415L43.4873 55.8137L43.4456 55.8554C43.1679 56.0637 42.9458 56.2164 42.4182 56.2164C41.6823 56.2164 41.2241 55.7304 41.1963 54.9112C41.1685 54.2031 41.349 53.6061 41.7239 53.2173C41.9877 52.9396 42.3487 52.7868 42.7236 52.7868C43.1124 52.7868 43.3762 52.8702 43.64 53.1062L43.6817 53.1479L43.7372 53.1201C44.1399 52.9118 44.5148 52.4536 44.6536 52.0093L44.6675 51.9538L44.6258 51.9121C44.3343 51.6344 43.7928 51.3151 42.8486 51.3151ZM48.3331 51.3289C47.4445 51.3289 46.6669 51.6483 46.1115 52.2315C45.4589 52.9118 45.1396 53.9115 45.1812 55.064C45.2507 56.6607 46.2781 57.6465 47.861 57.6465C48.7635 57.6465 49.5272 57.3272 50.0964 56.744C50.749 56.0637 51.0684 55.064 51.0267 53.9115C50.9573 52.3287 49.9298 51.3289 48.3331 51.3289ZM48.8746 55.8276C48.6385 56.0775 48.3053 56.2164 47.9582 56.2025C47.2639 56.2025 46.8474 55.7304 46.8196 54.9112C46.7919 54.1476 46.9585 53.5227 47.3195 53.1617C47.5555 52.9118 47.8888 52.7868 48.2359 52.7868C49.1384 52.7868 49.3467 53.495 49.3744 54.0781C49.4022 54.8418 49.2217 55.4666 48.8746 55.8276ZM55.4837 51.5233C55.2616 51.4817 55.0394 51.4678 54.8034 51.4678C54.609 51.4678 54.3452 51.4678 54.0814 51.5233L54.0397 51.5372L51.1378 57.3966L51.235 57.4244C51.4155 57.4938 51.6654 57.5354 51.9709 57.5354C52.2069 57.5354 52.4152 57.5216 52.6096 57.4938H52.6651L53.2066 56.3552H55.0533L55.2755 57.4938L55.331 57.5077C55.5115 57.5354 55.6781 57.5493 55.8309 57.5493C56.0947 57.5493 56.3862 57.5077 56.7334 57.4382L56.8167 57.4244L55.5254 51.5511L55.4837 51.5233ZM53.7898 55.0917L54.3868 53.8421L54.4979 53.5922L54.5396 53.8282L54.7895 55.1056H53.7898V55.0917ZM60.6627 51.3706C59.8713 51.3706 59.2048 51.6205 58.7744 52.0648C58.4273 52.4258 58.2607 52.8979 58.2746 53.4255C58.3301 54.6196 59.2743 54.9529 59.9546 55.175C60.4545 55.3416 60.7599 55.4666 60.7738 55.7304C60.7738 55.8693 60.7461 55.9665 60.6766 56.0359C60.5656 56.147 60.3434 56.2025 60.0102 56.2025C59.4409 56.2025 58.8577 56.0081 58.5106 55.7027L58.4551 55.661L58.3995 55.6888C58.0108 55.9109 57.7053 56.3414 57.6081 56.8273L57.5942 56.8829L57.6359 56.9106C57.9136 57.1744 58.5939 57.6187 59.8852 57.6187C60.6905 57.6187 61.357 57.3827 61.7874 56.9384C62.1484 56.5635 62.315 56.0637 62.3012 55.4944C62.2456 54.2448 61.2598 53.9115 60.5517 53.6755C60.1351 53.5366 59.8019 53.4255 59.788 53.1895C59.788 53.1062 59.8158 53.0229 59.8713 52.9673C59.9824 52.8424 60.2184 52.7868 60.5378 52.7868C61.2043 52.7868 61.6625 53.0645 61.8291 53.1895L61.8707 53.2173L61.9263 53.1895C62.3012 52.9951 62.6066 52.5369 62.7038 52.051L62.7177 52.0093L62.676 51.9676C62.5233 51.8427 61.9124 51.3706 60.6627 51.3706ZM68.4105 51.6066V51.5233H63.8424L63.8146 51.5789C63.6757 51.926 63.6202 52.3286 63.6341 52.8146V52.8979H65.1753L64.5505 57.466L64.6338 57.4799C64.8421 57.5216 65.0642 57.5493 65.3141 57.5493C65.5502 57.5493 65.7862 57.5354 66.0084 57.4799L66.0778 57.466L66.7026 52.884H68.23L68.2577 52.8285C68.3966 52.4814 68.4382 52.0787 68.4105 51.6066Z" fill="#003087"/>
<path d="M46.8473 17.714C46.0003 17.4641 45.917 16.756 45.917 16.756C45.917 16.756 47.0972 16.6588 48.805 16.9365C48.805 16.9365 47.5832 17.2697 46.8473 17.714Z" fill="white"/>
<path d="M66.9662 22.6014C70.6179 27.3222 63.495 33.2232 63.495 33.2232C64.9251 29.1689 59.6767 28.7801 59.6767 28.7801C56.9969 25.3506 39.3355 26.6141 39.3355 26.6141C45.7086 23.254 57.4273 19.4357 57.4273 19.4357C56.622 18.547 54.5115 17.5751 54.5115 17.5751C55.1225 17.3668 55.6917 17.1724 56.2055 17.0058C56.2055 17.0058 53.2619 15.1592 48.5689 13.8679C48.5689 13.8679 49.8324 14.5205 52.4149 16.7142C52.4149 16.7142 46.8471 14.1317 36.3641 14.6454C36.3641 14.6454 38.7107 15.5479 42.5706 17.825C42.5706 17.825 43.1677 17.2835 44.2646 17.0197C44.1674 18.4082 46.0279 19.6856 48.4161 19.8522C49.3325 19.9216 50.1795 19.8105 50.9015 19.5884C50.9015 19.5884 49.7074 20.9491 46.9721 20.9352C43.6675 20.9213 42.6956 19.1718 42.6956 19.1718C42.6956 19.1718 38.0859 20.5742 35.2534 22.0877C35.2534 22.0877 38.2247 21.8516 41.807 22.0182C41.807 22.0182 31.4767 25.8921 16.7172 39.7352C16.7172 39.7352 14.3707 32.4596 19.1748 26.864C19.1748 26.864 20.841 25.545 27.7834 23.2123C27.7834 23.2123 17.6614 25.295 11.6909 27.2944C11.6909 27.2944 13.1349 21.5045 20.5077 18.0055C20.5077 18.0055 22.8265 17.3113 29.3662 16.5615C29.3662 16.5615 22.8265 16.0894 14.5373 16.8114C14.5373 16.8114 18.8693 11.6602 25.6729 10.2717C25.6729 10.2717 26.4227 10.1745 30.6853 10.1884C30.6853 10.1884 26.7975 8.88324 21.0909 7.60584C21.0909 7.60584 44.5006 5.71751 59.1768 16.1033C59.1768 16.1033 58.4409 16.3532 57.6078 16.6587C57.6217 16.6448 64.3281 19.0608 66.9662 22.6014ZM59.9405 21.0185C59.9405 21.0185 60.357 20.5187 61.2595 20.0744C61.2595 20.0744 59.5517 19.7828 57.8716 20.8658C57.8716 20.8658 59.4823 20.838 59.9405 21.0185ZM47.0277 30.724C47.0277 30.724 52.3039 29.3216 58.1355 29.0161C58.1355 29.0161 56.2055 27.9748 51.4985 28.1553C51.5124 28.1414 49.2214 29.5021 47.0277 30.724ZM37.35 43.3313C37.35 43.3313 39.6132 36.6528 45.2782 31.2794C45.2782 31.2794 37.7665 31.7376 32.8096 38.8743C32.8096 38.8882 33.6983 41.4847 37.35 43.3313ZM21.7713 37.6525C21.7713 37.6525 29.0746 28.5024 41.4182 29.4882C41.4182 29.4882 31.9766 34.1119 26.1727 45.3585C26.1727 45.3585 22.521 41.8734 21.7713 37.6525Z" fill="#F2A900"/>
</svg>
