<svg width="80" height="80" viewBox="0 0 80 80" fill="none" xmlns="http://www.w3.org/2000/svg">
<path d="M72.7599 45.094L72.1073 35.1193C72.1073 35.1193 67.6482 50.6563 55.7002 62.3867C55.6847 62.3867 60.0661 69.4871 60.0661 69.4871C60.641 68.9278 72.5734 60.0406 79.8447 39.1589C79.8913 39.0501 72.7599 45.094 72.7599 45.094Z" fill="black"/>
<path d="M72.0448 35.663L72.6663 45.2959L72.8217 45.1561C74.4997 43.7578 78.5393 40.3396 79.6269 39.454C73.4897 56.8089 64.0588 66.0223 60.2678 69.1763L60.0969 69.3161C59.755 68.7723 56.0883 62.8372 55.8242 62.3866C66.4359 51.9458 71.1747 38.3975 72.0448 35.663ZM55.6377 62.309C55.5601 62.4488 59.957 69.5181 60.0192 69.5647L60.0813 69.6113L60.4076 69.3317C64.2452 66.1466 73.816 56.8089 79.9687 39.1744L79.9997 39.0967L79.9376 39.0501C79.9221 39.0345 79.891 39.0345 79.7822 39.0967C79.4404 39.3142 78.1664 40.3707 72.8683 44.8764L72.2313 35.1037L72.0293 35.0881C71.9671 35.2435 67.4148 50.7339 55.6377 62.309Z" fill="black"/>
<path d="M63.5306 62.4333L66.7778 68.4151L60.128 69.1609L55.9175 62.4955L63.5306 62.4333Z" fill="white"/>
<path d="M63.4842 62.511L66.6537 68.3374C66.4207 68.3684 60.1127 69.0676 60.1127 69.0676C60.1127 68.9899 56.4615 63.1946 56.0575 62.5576C56.3372 62.5576 63.391 62.511 63.4842 62.511ZM63.5308 62.3556L55.7778 62.4022L60.0505 69.1919C60.1282 69.223 66.778 68.4772 66.778 68.4772L66.9023 68.4617L63.5774 62.3401L63.5308 62.3556Z" fill="black"/>
<path d="M7.20912 45.094L7.86167 35.1193C7.86167 35.1193 12.5228 50.6718 24.4707 62.4022C24.4397 62.4022 19.5455 68.2752 19.5455 69.0831C19.5455 69.8911 7.39557 60.0406 0.124251 39.1433C0.0776399 39.0501 7.20912 45.094 7.20912 45.094Z" fill="#E00034"/>
<path d="M7.31793 45.094L7.93941 35.6475C8.84055 38.3354 13.7192 51.9302 24.3309 62.4022C23.9425 62.8527 19.4368 68.2441 19.4368 69.0831C18.5512 69.052 7.20917 58.9219 0.341813 39.4385C1.41387 40.3086 5.46902 43.7422 7.14702 45.1716L7.30239 45.2959L7.31793 45.094ZM7.7685 35.1037L7.13148 44.8764C1.81783 40.3863 0.559332 39.3297 0.217518 39.0967C0.108759 39.0345 0.0776852 39.0345 0.0621482 39.0501L0 39.0967L0.0310741 39.1744C7.08487 59.4501 18.7065 69.3627 19.5145 69.2229L19.5922 69.2074L19.6232 69.0831C19.6232 68.3839 24.2222 62.7595 24.5174 62.4799L24.5951 62.4022L24.5174 62.3245C12.7559 50.7494 8.01709 35.2435 7.97048 35.0881L7.7685 35.1037Z" fill="black"/>
<path d="M16.4849 62.5109H24.4243V62.309H16.4849V62.5109Z" fill="black"/>
<path d="M16.7491 62.4955L13.1445 68.4151L19.204 68.6481L24.2379 62.511L16.7491 62.4955Z" fill="white"/>
<path d="M39.9921 70.3261C39.9921 70.2484 28.6501 71.3205 16.5312 62.4955L12.041 68.7569C12.041 68.7569 21.5497 78.5763 39.9921 78.5763C58.4345 78.5763 67.9431 68.7569 67.9431 68.7569L63.4529 62.4955C51.3341 71.3205 39.9921 70.2329 39.9921 70.3261Z" fill="white"/>
<path d="M16.5626 62.6353C26.5528 69.8755 36.0926 70.497 39.7438 70.4193H40.2409C43.8921 70.497 53.4474 69.86 63.4221 62.6353L67.8036 68.7568C67.1666 69.3783 57.6424 78.483 39.9768 78.483C22.3112 78.483 12.7871 69.3783 12.15 68.7568C12.1811 68.7568 16.5626 62.6353 16.5626 62.6353ZM63.3911 62.4177C53.4163 69.6735 43.8766 70.295 40.2409 70.2329L39.9923 70.2484C39.9147 70.2484 39.8214 70.2329 39.7438 70.2329C36.1081 70.3105 26.5528 69.6891 16.5936 62.4177L16.5159 62.3556L11.917 68.7724L11.9791 68.8345C12.0724 68.9277 21.7208 78.685 40.0079 78.685C58.2949 78.685 67.9434 68.9277 68.0366 68.8345L68.0988 68.7724L63.4998 62.3556L63.3911 62.4177Z" fill="black"/>
<path d="M51.5826 74.8473C52.6391 74.521 52.5148 73.4645 52.2662 72.5012C52.0021 71.5224 51.536 70.5902 50.3086 70.963L49.2365 71.2893L50.4329 75.1891L51.5826 74.8473ZM41.7632 74.1326C41.8098 75.2668 41.9963 76.3544 43.1926 76.3078C44.389 76.2612 44.4977 75.1736 44.4511 74.0394C44.42 73.1072 44.2336 72.004 43.0528 72.0506C41.8254 72.0972 41.7166 73.2004 41.7632 74.1326ZM37.6304 75.7329C37.9256 75.3911 37.9877 74.3967 38.0033 74.1015C38.0343 73.1693 37.9256 72.0662 36.7137 72.0196C35.5173 71.973 35.3464 73.0761 35.3154 74.0083C35.2843 75.1425 35.393 76.2456 36.5739 76.2767C36.8691 76.2922 37.2264 76.1835 37.3973 76.0126L37.8479 76.401L38.0809 76.1213L37.6304 75.7329Z" fill="black"/>
<path d="M10.938 1.10876C10.938 1.10876 1.36721 34.7464 40.0077 64.5152C78.6327 34.7308 69.0619 1.10876 69.0619 1.10876H10.938Z" fill="white"/>
<path d="M68.9845 1.20198C69.0933 1.60594 69.9633 5.08623 69.9633 10.6174C69.9633 22.7363 65.7528 44.5036 40.008 64.3909C14.2632 44.5191 10.0527 22.7363 10.0527 10.6329C10.0527 5.10177 10.9228 1.63702 11.0315 1.21752L68.9845 1.20198ZM69.0622 1H10.8606L10.8451 1.07768C10.7518 1.4195 1.69378 35.1192 39.9459 64.5929L40.008 64.6395L40.0702 64.5929C78.3067 35.1192 69.2642 1.40396 69.1554 1.07768L69.1399 1H69.0622Z" fill="white"/>
<path d="M39.9924 64.3754C16.5471 46.2748 10.7674 26.8069 10.0682 13.6471L9.86621 13.6626C10.5809 26.8691 16.3762 46.4302 39.9458 64.5929L40.008 64.6395L40.0701 64.5929C63.6242 46.4457 69.4351 26.8846 70.1653 13.6626L69.9633 13.6471C69.2175 26.8069 63.4222 46.2903 39.9924 64.3754Z" fill="black"/>
<path d="M34.9272 13.6471H45.0884V60.3358L39.9923 64.5152L34.9272 60.3513V13.6471Z" fill="black"/>
<path d="M45.0884 13.6626L45.0728 60.3358C43.3793 61.7186 41.6702 63.1169 39.9767 64.4997C39.9767 64.4841 34.9272 60.3358 34.9272 60.3358V13.6626C34.9427 13.6626 45.0884 13.6626 45.0884 13.6626ZM34.9116 13.6471V60.3513C34.9116 60.3668 39.9922 64.5308 39.9922 64.5308C40.0078 64.5308 45.1039 60.3513 45.1039 60.3513V13.6626L34.9116 13.6471Z" fill="black"/>
<path d="M70.0408 13.6472C70.4603 5.97188 69.0619 1.09326 69.0619 1.09326H10.938C10.938 1.09326 9.55524 5.97188 9.9592 13.6472H70.0408Z" fill="#E00034"/>
<path d="M68.9844 1.20198C69.0931 1.59041 70.0098 5.17945 70.0098 10.8349C70.0098 11.6895 69.9788 12.6061 69.9321 13.5384H10.0526C10.0059 12.6372 9.97488 11.7361 9.97488 10.8194C9.97488 5.16391 10.8916 1.57487 11.0003 1.18644H68.9844V1.20198ZM10.9382 1H10.8605L10.8449 1.07768C10.8294 1.1243 9.46216 6.04952 9.86612 13.6627V13.7559H70.1341V13.6627C70.5381 6.04952 69.1708 1.1243 69.1553 1.07768L69.1398 1H10.9382ZM18.8465 68.5549C18.3493 69.5648 17.9764 70.6057 19.0329 71.1495C20.0895 71.6933 20.7265 70.7767 21.2392 69.7823C21.6742 68.9433 22.0471 67.9023 20.9751 67.3585C19.903 66.8147 19.2815 67.7159 18.8465 68.5549Z" fill="black"/>
<path d="M24.502 5.02406H25.6207V3.45483H21.6277V5.0396H22.6997V8.36452H24.502V5.02406ZM41.4374 9.31227C40.7537 9.31227 40.1944 9.85607 40.1944 10.5397C40.1944 11.2233 40.7537 11.7982 41.4374 11.7982C42.121 11.7982 42.6803 11.2233 42.6803 10.5397C42.6803 9.85607 42.121 9.31227 41.4374 9.31227ZM20.7421 3.88986C20.1361 3.31499 18.9087 2.95764 18.0386 2.95764C16.3607 2.95764 15.1488 4.0763 15.1488 5.47463C15.1488 6.77974 16.081 7.32354 17.355 7.77411C18.1319 8.03824 19.0796 8.27129 19.0796 9.14137C19.0796 9.79392 18.598 10.3533 17.8056 10.3533C16.9821 10.3533 16.283 9.77838 16.0188 9.12583L14.7759 10.1668C15.4595 11.1301 16.4539 11.7982 17.8211 11.7982C19.8409 11.7982 21.0839 10.6018 21.0839 8.92385C21.0839 6.11165 17.153 6.70206 17.153 5.28819C17.153 4.7444 17.7434 4.34043 18.3649 4.34043C19.0175 4.34043 19.4836 4.60456 19.8565 5.02406C19.8409 5.02406 20.7421 3.88986 20.7421 3.88986ZM33.933 7.0128L33.9019 3.53251H32.0375V11.7982H33.9019V8.08485L36.9938 11.7982H39.3865L35.5488 7.35461L39.1845 3.51697H36.885L33.933 7.0128ZM23.6164 9.31227C22.9328 9.31227 22.3735 9.85607 22.3735 10.5397C22.3735 11.2233 22.9328 11.7982 23.6164 11.7982C24.3001 11.7982 24.8594 11.2389 24.8594 10.5397C24.8594 9.85607 24.3001 9.31227 23.6164 9.31227ZM51.9714 9.31227C51.2878 9.31227 50.7285 9.85607 50.7285 10.5397C50.7285 11.2233 51.2878 11.7982 51.9714 11.7982C52.6551 11.7982 53.2144 11.2233 53.2144 10.5397C53.2144 9.85607 52.6551 9.31227 51.9714 9.31227ZM66.2499 9.31227C65.5663 9.31227 65.007 9.85607 65.007 10.5397C65.007 11.2233 65.5663 11.7982 66.2499 11.7982C66.9336 11.7982 67.4929 11.2233 67.4929 10.5397C67.4774 9.85607 66.9336 9.31227 66.2499 9.31227ZM63.6708 3.73449C63.0493 3.42375 62.3657 3.26838 61.6665 3.26838C59.0408 3.26838 57.2385 5.30373 57.2385 7.58767C57.2385 9.82499 59.1029 11.7827 61.6355 11.7827C62.3657 11.7827 63.0183 11.5807 63.6708 11.301V9.42103C63.1892 9.93375 62.4278 10.2756 61.6821 10.2756C60.0507 10.2756 59.0563 8.90831 59.0563 7.55659C59.0563 6.15826 60.0196 4.75993 61.6976 4.75993C62.4434 4.75993 63.1892 5.08621 63.6708 5.61447C63.6708 5.63 63.6708 3.73449 63.6708 3.73449ZM51.0392 4.88423V3.47036H46.2228V11.7982H48.1183V8.13146H50.8683V6.71759H48.1183V4.88423H51.0392Z" fill="white"/>
<path d="M16.3295 69.4094L17.386 67.7936L18.5358 68.5393L18.7533 68.1975L17.6191 67.4517L18.3493 66.3331L19.5768 67.1255L19.7943 66.7837L18.194 65.7427L15.9722 69.1764L16.3295 69.4094Z" fill="black"/>
<path d="M20.8197 69.5803C20.276 70.6368 19.8875 71.134 19.2194 70.7921C18.5513 70.4503 18.7223 69.8444 19.266 68.7879C19.67 67.9799 20.1672 67.4051 20.7731 67.7158C21.4257 68.0421 21.2392 68.7723 20.8197 69.5803Z" fill="white"/>
<path d="M22.0161 70.6057L22.7464 70.901C23.2435 71.1029 23.2591 71.4914 23.1037 71.8643C22.995 72.1128 22.8551 72.5945 22.8396 72.8742L23.3368 73.0761L23.3678 72.9829C23.2591 72.9363 23.3057 72.7654 23.3212 72.6877C23.3989 72.3925 23.4766 72.0973 23.5854 71.8176C23.7252 71.2894 23.663 71.0874 23.1969 70.8388V70.8233C23.663 70.9476 24.067 70.73 24.2535 70.295C24.6263 69.4249 24.2068 69.021 23.4145 68.6947L22.4356 68.3063L20.8975 72.0973L21.317 72.2682L22.0161 70.6057Z" fill="black"/>
<path d="M22.7151 68.8656L23.3055 69.0987C23.5852 69.2074 24.0979 69.4405 23.8338 70.093C23.5852 70.7611 23.0258 70.5747 22.8239 70.497L22.1558 70.2329C22.1713 70.2329 22.7151 68.8656 22.7151 68.8656Z" fill="white"/>
<path d="M24.9059 69.7512L25.8847 70.1396L24.502 73.5422L24.9215 73.7132L26.3042 70.3106L27.2831 70.699L27.4384 70.3261L25.0613 69.3628L24.9059 69.7512ZM26.9257 74.3968L28.1842 70.5125L27.7492 70.3727L26.4907 74.2569L26.9257 74.3968ZM28.0289 73.7598C27.8735 74.4745 28.2774 74.925 29.0077 75.0804C29.7379 75.2358 30.2817 74.9872 30.4371 74.2725L31.0896 71.2428L30.6391 71.1495L30.0331 74.0239C29.971 74.3346 29.8156 74.8318 29.1009 74.6764C28.3862 74.5211 28.4484 74.0084 28.526 73.6976L29.132 70.8233L28.6814 70.73L28.0289 73.7598ZM33.8242 72.9208C34.0261 72.175 33.6532 71.7089 32.923 71.5535C32.2705 71.4137 31.7111 71.7555 31.5713 72.4081C31.4936 72.7965 31.5091 73.1383 31.851 73.418C32.0374 73.5733 32.3637 73.7598 32.5657 73.8996C32.9385 74.1327 33.1871 74.1948 33.0473 74.8007C32.9541 75.2669 32.5812 75.4378 32.1306 75.3445C31.4625 75.2047 31.4315 74.8007 31.5868 74.2259L31.1518 74.1327C31.1052 74.3502 31.043 74.6609 31.0896 74.8784C31.2139 75.4533 31.649 75.6553 32.0529 75.7485C32.8142 75.9194 33.3891 75.5776 33.5445 74.8163C33.6532 74.288 33.5756 73.9928 32.8764 73.5422L32.3015 73.1694C32.0685 73.014 31.9753 72.8275 32.0374 72.5479C32.0995 72.2371 32.2549 71.8487 32.9075 71.9885C33.358 72.0818 33.5134 72.4391 33.3891 72.8586C33.3736 72.8275 33.8242 72.9208 33.8242 72.9208Z" fill="black"/>
<path d="M37.0713 75.7329C36.9315 75.8262 36.745 75.8728 36.5741 75.8728C35.8749 75.8728 35.7351 75.1115 35.7662 74.2103C35.8128 73.0295 35.9526 72.408 36.7139 72.4391C37.4597 72.4702 37.5685 73.0917 37.5374 74.2725C37.5219 74.7075 37.4131 75.2824 37.3044 75.4377L36.9315 75.127L36.6829 75.4222C36.6829 75.4067 37.0713 75.7329 37.0713 75.7329Z" fill="white"/>
<path d="M38.687 75.298C38.6559 76.0282 39.1375 76.4011 39.8678 76.4166C40.6136 76.4477 41.1107 76.1059 41.1263 75.3756L41.235 72.2838L40.7845 72.2682L40.6757 75.2047C40.6757 75.531 40.598 76.0437 39.8678 76.0126C39.1375 75.9816 39.1065 75.4689 39.122 75.1426L39.2308 72.2061L38.7802 72.1906L38.687 75.298Z" fill="black"/>
<path d="M43.9697 74.0705C44.0008 75.2513 43.9076 75.8884 43.1618 75.9039C42.416 75.935 42.2762 75.3135 42.2296 74.1327C42.1985 73.2315 42.3383 72.4858 43.0375 72.4702C43.7522 72.4391 43.9542 73.1538 43.9697 74.0705Z" fill="white"/>
<path d="M46.9841 75.7951L46.751 73.884L48.1027 73.7131L48.0561 73.3092L46.7044 73.4801L46.549 72.1439L48.0095 71.9574L47.9629 71.5535L46.0674 71.7865L46.5646 75.8417L46.9841 75.7951ZM49.47 75.3134L48.6154 71.3204L48.1804 71.4137L49.035 75.4067L49.47 75.3134Z" fill="black"/>
<path d="M49.7959 71.5379L50.4951 71.3204C51.1942 71.1029 51.505 71.6622 51.8002 72.5479C52.2041 73.6976 52.0798 74.2569 51.4428 74.4434L50.7437 74.6609L49.7959 71.5379Z" fill="white"/>
<path d="M55.5291 73.6666L55.4048 73.2782L53.8667 73.7443L53.4316 72.2993L54.861 71.8643L54.7367 71.4759L53.3073 71.9109L52.9189 70.6213L54.4415 70.1552L54.3172 69.7668L52.3596 70.3572L53.5559 74.257L55.5291 73.6666ZM58.1238 72.579L57.9684 72.2061L56.4303 72.8276L55.0475 69.425L54.628 69.5959L56.1661 73.3869L58.1238 72.579ZM59.1492 72.1284L57.3003 68.4928L56.8964 68.6947L58.7453 72.3304L59.1492 72.1284ZM59.5532 70.8233C59.8795 71.4759 60.4854 71.5691 61.138 71.2273C61.7905 70.8855 62.0702 70.3572 61.7439 69.7046L60.3301 66.9391L59.9261 67.141L61.2623 69.7513C61.4176 70.0309 61.6041 70.5281 60.9515 70.8544C60.299 71.1807 60.0193 70.7456 59.8795 70.466L58.5433 67.8557L58.1393 68.0577C58.1549 68.0577 59.5532 70.8233 59.5532 70.8233ZM63.1733 66.4263C62.8004 65.7583 62.21 65.665 61.573 66.0535C61.0137 66.4108 60.8428 67.0323 61.2001 67.6072C61.4176 67.949 61.6662 68.182 62.1013 68.1354C62.3499 68.1199 62.7072 68.0267 62.9558 67.98C63.3909 67.9024 63.6084 67.7625 63.9346 68.2908C64.1832 68.6947 64.0434 69.0676 63.655 69.3007C63.0801 69.658 62.7849 69.3939 62.4742 68.8812L62.0857 69.1142C62.21 69.3007 62.3809 69.5804 62.5518 69.7046C63.0335 70.0309 63.4996 69.8756 63.8414 69.658C64.5095 69.2385 64.6804 68.6015 64.2609 67.949C63.9813 67.4984 63.7171 67.3275 62.9092 67.4984L62.2256 67.6382C61.9459 67.7004 61.7595 67.6072 61.6041 67.3741C61.4332 67.11 61.2778 66.7215 61.8371 66.3642C62.2256 66.1311 62.5829 66.271 62.7849 66.6594L63.1733 66.4263ZM17.1372 65.1989L17.1994 65.3698L18.4423 64.9503L18.3802 64.7794L17.1372 65.1989ZM61.5264 64.9659L62.7694 65.3854L62.8315 65.2145L61.5886 64.795L61.5264 64.9659Z" fill="black"/>
<path d="M69.9745 25.1644L66.8671 34.9683H12.8605L9.34912 25.1644H69.9745Z" fill="black"/>
<path d="M12.8605 34.9526C12.8761 34.9682 9.36471 25.1643 9.36471 25.1643L69.959 25.1799L66.8516 34.9682L12.8605 34.9526ZM69.9745 25.1488H9.34917C9.33364 25.1643 12.845 34.9682 12.845 34.9682L66.8671 34.9837C66.8827 34.9682 69.9901 25.1799 69.9901 25.1799V25.1643H69.9745V25.1488Z" fill="black"/>
</svg>
