<svg width="80" height="80" viewBox="0 0 80 80" fill="none" xmlns="http://www.w3.org/2000/svg">
<path d="M68.4456 19.7752L68.4952 19.5728L75.3952 14.7824L69.6376 14.6752L70.58 14L61.68 9.0896L56.8032 4.7752L45.8928 0L40.0528 1.58L34.2032 0L23.2976 4.7752L18.4232 9.0904L9.5152 14L10.46 14.6752L4.7032 14.7824L11.6032 19.5728L11.6528 19.7728L2 21.4152L9.228 24.9072L3.4576 28.7248L11.0328 30.3328L11.0576 30.6672L5.5952 36.6024L11.9128 36.6824L12.0632 37.6952L13.9624 38.2248L13.2624 39.8904L25.3728 46.6152L32.1632 56.86L40.048 55.3248L47.9328 56.86L54.72 46.6152L66.8328 39.8896L66.1328 38.2248L68.0328 37.6952L68.1824 36.6824L74.4976 36.6024L69.0352 30.6672L69.06 30.3328L76.6352 28.7248L70.8656 24.9072L78.0952 21.4152L68.4456 19.7752ZM72.8576 28.0352L67.7128 29.1448L67.3528 31.4872L71.4904 35.2872L66.9576 35.1872L66.7528 36.5624L64.18 37.2824L65.0128 39.2576L53.72 45.6072L47.288 55.3472L40.0504 53.9424L32.8128 55.3472L26.38 45.6072L15.0856 39.2576L15.9176 37.2824L13.348 36.5624L13.1424 35.1872L8.6104 35.2872L12.748 31.4872L12.3856 29.1448L7.2424 28.0352L12.9104 24.56L6.4776 22.04L13.44 21.0072L13.2056 20.0648L14.5904 19.5096L8.6352 15.8696L15.2352 16.32L12.2024 14.1576L19.2528 10.2696L24.1376 5.9472L34.328 1.6952L40.0504 3.0824L45.7728 1.6952L55.9624 5.9472L60.848 10.2696L67.8952 14.1576L64.8624 16.3224L71.4624 15.8696L65.5056 19.5096L66.8928 20.0648L66.6576 21.0072L73.62 22.04L67.1904 24.56L72.8576 28.0352ZM67.9456 22.6728L63.5552 22.4704L64.1976 21.1824L62.0104 19.5624L66.1224 17.6376L60.9728 18.7672L60.448 17.2776L59.0328 13.8248L55.8824 11.5648L55.6176 9.9224L45.908 7.3896L45.8704 7.3848C45.8327 7.38503 45.7965 7.39923 45.7687 7.42465C45.7409 7.45007 45.7236 7.48491 45.72 7.5224L44.8528 15.3752C44.8492 15.405 44.8547 15.4353 44.8685 15.462C44.8824 15.4887 44.9039 15.5105 44.9304 15.5248L48.94 17.6752L51.9856 16.8248L54.5376 13.3528L58.1632 22.7528C58.1978 22.8489 58.213 22.9508 58.208 23.0528L58.12 25.9096L50.7056 33.8552L46.9376 48.0896L46.48 50.3728C46.4702 50.4226 46.4496 50.4697 46.4195 50.5107C46.3895 50.5516 46.3508 50.5854 46.3062 50.6097C46.2615 50.634 46.2121 50.6482 46.1614 50.6512C46.1107 50.6542 46.06 50.646 46.0128 50.6272L40.0528 48.3376L34.0856 50.6352C34.0381 50.653 33.9873 50.6603 33.9367 50.6566C33.8861 50.653 33.8369 50.6384 33.7924 50.6139C33.748 50.5895 33.7093 50.5557 33.6792 50.5149C33.649 50.4741 33.628 50.4273 33.6176 50.3776L33.16 48.0952L29.3952 33.86L21.9776 25.9152L21.8904 23.06C21.8855 22.9576 21.9024 22.8554 21.94 22.76L25.5632 13.36L28.1128 16.8328L31.16 17.68L35.1704 15.5296C35.1968 15.5153 35.2183 15.4934 35.2321 15.4667C35.246 15.44 35.2515 15.4098 35.248 15.38L34.3832 7.5248C34.3796 7.48744 34.3624 7.45272 34.3348 7.42732C34.3072 7.40191 34.2711 7.38762 34.2336 7.3872C34.2206 7.38749 34.2077 7.38938 34.1952 7.3928L24.4832 9.9248L24.2176 11.5672L21.068 13.8272L19.6528 17.2776L19.128 18.7696L13.9776 17.6376L18.088 19.5624L15.9 21.1872L16.5456 22.4728L12.1528 22.6728L16.2232 23.4728L14.1528 26.1552L11.18 27.3848L14.42 27.7072L15.0928 31.8448L12.528 33.6272L15.34 33.0928L15.62 34.7424L19.0256 35.6928L18.0952 38.1352L27.9704 44.4048L34.3504 52.4976H45.7504L52.1328 44.4048L62.0032 38.1352L61.0752 35.6928L64.4776 34.7424L64.7576 33.0928L67.5728 33.6272L65.008 31.8448L65.68 27.7072L68.9176 27.3824L65.948 26.1552L63.8776 23.4696L67.9456 22.6752V22.6728ZM43.5328 46.8328L42.6128 45.1824L41.7576 46.2376L40.8552 45.1624L40.0504 46.2352L39.2456 45.1648L38.3432 46.2376L37.488 45.1824L36.568 46.8328C35.5576 44.8048 35.4976 43.2328 35.0832 41.14C34.0832 42.9552 34.108 44.8752 34.3256 48.04C34.3306 48.1109 34.3509 48.18 34.3849 48.2424C34.419 48.3048 34.466 48.3592 34.5229 48.4018C34.5798 48.4445 34.6452 48.4744 34.7147 48.4895C34.7842 48.5047 34.8561 48.5047 34.9256 48.4896L37.3504 47.7552C38.1232 47.5752 39.28 47.1424 40.0504 46.9624C40.82 47.1424 41.9752 47.5752 42.748 47.7552L45.1728 48.4928C45.2423 48.5068 45.3139 48.506 45.383 48.4904C45.4521 48.4747 45.5171 48.4447 45.5738 48.4021C45.6304 48.3596 45.6775 48.3055 45.7118 48.2435C45.7461 48.1816 45.7669 48.113 45.7728 48.0424C45.9904 44.8752 46.0152 42.9552 45.0176 41.14C44.6 43.2296 44.5432 44.8048 43.5328 46.8328ZM63.1352 31.5048L57.9656 37.9048L54.2776 41.7296L52.3728 40.9224L48.4856 45.6328C48.4697 45.6503 48.4487 45.6624 48.4256 45.6672C48.4022 45.671 48.3782 45.6664 48.358 45.6541C48.3377 45.6417 48.3225 45.6225 48.3152 45.6C48.3088 45.5779 48.3096 45.5544 48.3176 45.5328L52.36 35.8328C52.46 35.5992 52.6392 35.408 52.8656 35.2928L58.0776 32.6696L61.5152 27.7152L58.2904 16.5824L58.288 16.5528C58.288 16.4632 58.3608 16.3896 58.4504 16.3896C58.508 16.3896 58.5608 16.4208 58.5904 16.4696L63.5904 26.5576L63.1352 31.5048ZM31.6104 45.6328L27.7232 40.9224L25.8176 41.7304L22.1304 37.9048L16.96 31.5048L16.5032 26.5552L21.5032 16.4696C21.5169 16.4431 21.5376 16.4208 21.5632 16.4054C21.5888 16.39 21.6181 16.3821 21.648 16.3824C21.7352 16.3824 21.8104 16.4552 21.8104 16.5448L21.8056 16.5824L18.58 27.7152L22.0152 32.6696L27.2304 35.2952C27.4552 35.4072 27.6352 35.6 27.7328 35.8352L31.7776 45.5304C31.7871 45.5525 31.7882 45.5773 31.7809 45.6003C31.7736 45.6232 31.7582 45.6427 31.7376 45.6552C31.7174 45.6663 31.694 45.6702 31.6712 45.6661C31.6485 45.662 31.6279 45.6503 31.6128 45.6328H31.6104ZM33.8728 29.6072L31.0032 30.4776C30.8906 30.5116 30.7936 30.584 30.7291 30.6823C30.6646 30.7806 30.6368 30.8984 30.6504 31.0152C31.0704 34.5152 31.6056 37.8472 33.0152 40.5824C33 36.8528 32.9656 33.72 34.0904 29.8248C34.0989 29.7944 34.0992 29.7622 34.0914 29.7316C34.0835 29.701 34.0677 29.673 34.0456 29.6504C34.0232 29.6285 33.9954 29.6129 33.9651 29.6053C33.9347 29.5977 33.9028 29.5984 33.8728 29.6072ZM49.0976 30.4752L46.228 29.6072C46.2055 29.6005 46.1818 29.5984 46.1584 29.6011C46.1351 29.6039 46.1125 29.6113 46.0921 29.6231C46.0718 29.6349 46.054 29.6507 46.04 29.6695C46.0259 29.6884 46.0158 29.7099 46.0104 29.7328C46.0024 29.7629 46.0024 29.7947 46.0104 29.8248C47.1352 33.72 47.1 36.8504 47.0856 40.5824C48.4952 37.8472 49.028 34.5152 49.4504 31.0152C49.4645 30.8981 49.4368 30.7797 49.3723 30.681C49.3078 30.5822 49.2105 30.5094 49.0976 30.4752ZM37.2032 30.6248L37.7656 31.9448L38.5304 30.6224L39.1952 31.9872L40.0504 30.6672L40.9056 31.9904L41.568 30.6224L42.3352 31.9448L42.8952 30.6224C43.6203 31.2961 44.1903 32.1194 44.5656 33.0352C44.7152 32.7376 44.9056 29.2848 44.9056 29.2848L42.6856 28.6872C42.6219 28.6709 42.5556 28.6668 42.4904 28.6752L40.1704 28.9352C40.0899 28.9448 40.0085 28.9448 39.928 28.9352L37.608 28.6752C37.5435 28.668 37.4783 28.672 37.4152 28.6872L35.1952 29.2872C35.1952 29.2872 35.3856 32.7376 35.5352 33.0352C35.9088 32.119 36.478 31.2955 37.2032 30.6224V30.6248ZM35.668 24.5672L30.6032 22.0928L29.5832 22.7248L35.4232 25.5648C35.4327 25.5702 35.4402 25.5784 35.4446 25.5883C35.4491 25.5983 35.4503 25.6094 35.448 25.62C35.4432 25.6304 35.4354 25.639 35.4256 25.6448C35.4152 25.6504 35.404 25.652 35.3928 25.6504L27.968 24.22L26.3128 25.1672L35.1256 26.5128C35.1352 26.5128 35.1456 26.52 35.1528 26.5272C35.1607 26.536 35.1648 26.5475 35.1643 26.5593C35.1639 26.5711 35.1589 26.5822 35.1504 26.5904C35.1421 26.598 35.1313 26.6022 35.12 26.6024L26.5576 26.9776L29.7104 29.4648L30.0776 29.6248L38.5128 26.9928C38.9128 26.8672 39.188 26.4952 39.188 26.0776V25.4728L34.3928 19.6496L32.0176 21.1624L35.7232 24.4872C35.7307 24.4958 35.7356 24.5064 35.7376 24.5176C35.7376 24.5272 35.7376 24.54 35.7304 24.5496C35.7238 24.5595 35.7139 24.5668 35.7025 24.57C35.691 24.5732 35.6788 24.5722 35.668 24.5672ZM40.9128 26.0776C40.9128 26.4976 41.188 26.8696 41.588 26.9952L50.0232 29.6248L50.388 29.4672L53.5432 26.9776L44.9776 26.6024C44.9657 26.6024 44.9543 26.5977 44.9459 26.5893C44.9375 26.5809 44.9328 26.5695 44.9328 26.5576C44.9328 26.5328 44.9528 26.5152 44.9752 26.5128L53.7856 25.1672L52.1352 24.2176L44.7056 25.6496C44.6952 25.6496 44.6832 25.6496 44.6752 25.6448C44.66 25.6376 44.6528 25.6224 44.6528 25.6048C44.6528 25.5872 44.6632 25.5728 44.6776 25.5648L50.5176 22.7248L49.4952 22.0928L44.4328 24.5672C44.422 24.5722 44.4098 24.5732 44.3983 24.57C44.3869 24.5668 44.377 24.5595 44.3704 24.5496C44.3552 24.5296 44.36 24.5024 44.3776 24.4848L48.0832 21.1624L45.708 19.6496L40.9128 25.4752V26.0776ZM40.0504 24.9328C40.1328 24.9344 40.2104 24.8896 40.2504 24.8176L41.2256 23.0952C41.267 23.0224 41.3336 22.9672 41.4128 22.94L42.3304 22.6072C42.3913 22.5869 42.4451 22.5497 42.4856 22.5L42.9656 21.8928C42.9896 21.8634 43.0049 21.8279 43.0095 21.7902C43.0142 21.7526 43.0081 21.7144 42.9919 21.6801C42.9758 21.6458 42.9502 21.6167 42.9182 21.5963C42.8862 21.5759 42.8491 21.565 42.8112 21.5648H37.2872C37.2491 21.5647 37.2118 21.5754 37.1796 21.5957C37.1474 21.6161 37.1217 21.6452 37.1055 21.6796C37.0893 21.7141 37.0833 21.7524 37.0881 21.7902C37.0929 21.8279 37.1084 21.8635 37.1328 21.8928L37.6128 22.5C37.6528 22.5496 37.708 22.5872 37.768 22.6096L38.688 22.9424C38.766 22.9707 38.8314 23.0257 38.8728 23.0976L39.8504 24.82C39.8904 24.8928 39.9672 24.9368 40.0504 24.9352V24.9328ZM51.6952 15.8696L49.1352 16.9424L45.7728 15.2824L46.748 8.8424C46.7504 8.8152 46.7704 8.7952 46.7976 8.7952C46.8104 8.7952 46.82 8.8 46.8304 8.8072C46.8405 8.81464 46.8476 8.82542 46.8504 8.8376L47.72 12.5872L55.6752 10.7952L51.6928 15.8696H51.6952ZM32.3776 12.5872L33.248 8.8376C33.2504 8.8096 33.2704 8.7896 33.2976 8.7896C33.3256 8.7896 33.348 8.8128 33.348 8.84L34.3232 15.2824L30.96 16.9424L28.4032 15.8672L24.42 10.7952L32.3776 12.5872ZM30.7352 15.2896C31.0219 15.2378 31.2917 15.1167 31.5209 14.9369C31.7501 14.757 31.9319 14.5238 32.0504 14.2576L31.24 13.8928C31.1821 14.0645 31.0719 14.2137 30.9248 14.3194C30.7777 14.4252 30.6012 14.4822 30.42 14.4824C30.1936 14.4814 29.9765 14.3921 29.8149 14.2334C29.6534 14.0747 29.5602 13.8592 29.5552 13.6328C29.5552 13.4776 29.5976 13.3248 29.6776 13.1896L28.8304 12.8072C28.6491 13.137 28.5848 13.5186 28.648 13.8896C28.7455 14.3486 29.018 14.7515 29.4077 15.0129C29.7974 15.2742 30.2735 15.3735 30.7352 15.2896ZM49.3656 15.2896C49.8267 15.3714 50.3016 15.2712 50.6904 15.0101C51.0792 14.749 51.3516 14.3474 51.4504 13.8896C51.5152 13.52 51.4504 13.14 51.2704 12.8072L50.42 13.1896C50.4912 13.3176 50.528 13.4616 50.528 13.6072C50.528 14.0792 50.1416 14.4672 49.6704 14.4696C49.4919 14.4692 49.318 14.4135 49.1725 14.3102C49.0269 14.2069 48.9169 14.0611 48.8576 13.8928L48.0504 14.2576C48.2904 14.7976 48.784 15.1848 49.3656 15.2896Z" fill="white"/>
<path d="M33.8729 75.7377L33.3777 77.9673H33.1681C32.1433 77.9673 31.4281 77.7801 31.0177 77.4073C30.6057 77.0353 30.4857 76.4625 30.6577 75.6873C30.7429 75.1721 30.9796 74.6939 31.3377 74.3138C31.6958 73.9336 32.1589 73.6687 32.6681 73.5529C33.3839 73.3693 34.1213 73.2835 34.8601 73.2977C35.5729 73.3001 36.2857 73.3601 36.9857 73.4777L37.2857 72.1177L36.3401 71.3049C35.9003 71.2679 35.4591 71.2498 35.0177 71.2505C32.8233 71.2505 31.0801 71.6249 29.7881 72.3753C29.1743 72.7151 28.641 73.1833 28.2246 73.7479C27.8082 74.3126 27.5185 74.9605 27.3753 75.6473C27.0505 77.1049 27.3505 78.1977 28.2777 78.9177C29.2057 79.6377 30.7705 80.0001 32.9777 80.0001C33.955 79.9923 34.9309 79.9255 35.9001 79.8001L36.8033 75.7401H33.8729V75.7377ZM60.9529 73.4105C61.4669 73.2728 61.999 73.2153 62.5305 73.2401C62.9705 73.2401 63.4057 73.2649 63.8433 73.3105C64.2225 73.3449 64.5977 73.4105 64.9681 73.5001L65.4129 71.4977C64.5409 71.3209 63.6529 71.2369 62.7625 71.2473C61.1401 71.2473 59.8633 71.4873 58.9329 71.9649C58.0033 72.4425 57.4401 73.1225 57.2457 74.0001C57.161 74.2813 57.151 74.5798 57.2167 74.8661C57.2823 75.1524 57.4214 75.4166 57.6201 75.6329C58.0201 76.0505 58.6881 76.3529 59.6225 76.5401L60.5401 76.7353C60.7777 76.7801 61.0105 76.8449 61.2401 76.9273C61.3583 76.9645 61.4628 77.0361 61.5401 77.1329C61.5881 77.2145 61.6001 77.3113 61.5753 77.4025C61.544 77.5089 61.4864 77.6057 61.4078 77.684C61.3293 77.7623 61.2322 77.8196 61.1257 77.8505C60.7257 77.9753 60.3057 78.0273 59.8857 78.0073C58.832 78.0007 57.7828 77.8691 56.7601 77.6153L56.3153 79.6201C56.7953 79.7473 57.2881 79.8401 57.7825 79.8977C58.3401 79.9649 58.9025 80.0001 59.4657 79.9977C60.3332 80.0117 61.1981 79.8988 62.0329 79.6625C62.705 79.481 63.3284 79.1523 63.8577 78.7001C64.3049 78.3188 64.6172 77.8034 64.7481 77.2305C64.8341 76.9463 64.8424 76.6443 64.772 76.3559C64.7017 76.0675 64.5553 75.8031 64.3481 75.5905C63.9329 75.1753 63.2081 74.8649 62.1729 74.6577L61.2481 74.4601C61.0543 74.4209 60.8643 74.3649 60.6801 74.2929C60.5811 74.2586 60.4949 74.1949 60.4329 74.1105C60.3938 74.0356 60.3849 73.9485 60.4081 73.8673C60.4505 73.6777 60.6329 73.5225 60.9529 73.4105ZM56.0401 74.1201C55.9194 74.6818 55.6362 75.1957 55.2257 75.5977C54.7662 76.0347 54.2177 76.3674 53.6177 76.5729L55.6905 79.8825H52.2681L50.5257 77.0153L49.8305 76.9977L49.1905 79.8825H46.0777L47.8401 71.9649L47.1353 71.3625H53.2801C53.9857 71.3625 54.6777 71.5625 55.2705 71.9449C56.0001 72.4201 56.2553 73.1449 56.0377 74.1201H56.0401ZM27.3625 71.3625L25.4657 79.8825H22.2977L24.0225 72.1425L23.1105 71.3625H27.3625ZM23.0201 72.3673L21.8505 71.3625H13.5401L13.0825 73.4177H16.3505L14.9105 79.8825H18.0857L19.5201 73.4177H22.7881L23.0201 72.3673ZM40.8025 76.5201H45.0625L45.5025 74.5505H41.2425L41.5129 73.3353H46.4729L46.7401 72.1329L45.8457 71.3625H37.7025L38.6529 72.1753L36.9377 79.8825H45.0801L45.5177 77.9073H40.4929L40.8025 76.5201ZM51.6657 73.0449C51.3401 73.0449 51.0153 73.0673 50.6953 73.1129L50.2457 75.1425C50.5705 75.1729 50.8905 75.1873 51.2025 75.1873C51.6455 75.2101 52.0874 75.1253 52.4905 74.9401C52.6453 74.8573 52.7793 74.7406 52.8824 74.5985C52.9855 74.4565 53.055 74.2929 53.0857 74.1201C53.2457 73.4025 52.7729 73.0449 51.6657 73.0449ZM45.2201 38.5377C45.0865 38.3064 44.8719 38.1328 44.6177 38.0505C43.3929 37.5273 41.5201 37.4329 41.0305 38.1001C40.9258 38.251 40.8471 38.4184 40.7977 38.5953C40.4124 39.7751 40.1609 40.9945 40.0481 42.2305C39.938 40.9944 39.6879 39.7749 39.3025 38.5953C39.2521 38.4177 39.1729 38.2496 39.0681 38.0977C38.5801 37.4329 36.7081 37.5273 35.4825 38.0505C35.2275 38.1323 35.012 38.306 34.8777 38.5377C34.4721 39.2577 34.1561 40.0241 33.9353 40.8201C33.7857 41.4014 33.702 41.9977 33.6857 42.5977C33.9538 41.3182 34.5333 40.1245 35.3729 39.1225C35.3729 39.1225 35.7201 40.7625 35.9105 41.6273C36.1657 42.7977 36.3001 44.0305 36.7305 44.8105L37.3657 43.7305L38.3353 44.9105L39.2353 43.7801L40.0505 44.9425L40.8657 43.7801L41.7657 44.9105L42.7353 43.7305L43.3681 44.8105C43.7977 44.0305 43.9353 42.7977 44.1929 41.6273C44.3801 40.7625 44.7257 39.1201 44.7257 39.1201C45.5666 40.1225 46.147 41.3171 46.4153 42.5977C46.3972 41.997 46.3135 41.4002 46.1657 40.8177C45.9457 40.0216 45.628 39.2558 45.2201 38.5377ZM24.2177 11.5649L24.4825 9.92249L34.1929 7.39049C34.2053 7.38662 34.2183 7.38473 34.2313 7.38489C34.3081 7.38489 34.3737 7.44569 34.3801 7.52249L35.2457 15.3777C35.2492 15.4075 35.2437 15.4377 35.2298 15.4644C35.216 15.491 35.1945 15.513 35.1681 15.5273L31.1577 17.6777L28.1105 16.8305L25.5601 13.3553L21.9353 22.7553C21.8985 22.8508 21.8824 22.9531 21.8881 23.0553L21.9753 25.9129L25.7625 17.4129L26.3377 20.2825L30.7105 19.9873L32.0177 21.1625L34.3929 19.6505L33.0801 18.0577C33.0564 18.0295 33.0438 17.9935 33.0448 17.9566C33.0459 17.9197 33.0604 17.8845 33.0857 17.8577C33.1104 17.831 33.1439 17.8141 33.18 17.81C33.2161 17.8059 33.2525 17.8149 33.2825 17.8353L37.3257 20.5505H42.7753L46.8177 17.8353C46.8443 17.8146 46.8769 17.8031 46.9105 17.8025C46.94 17.8026 46.9688 17.8114 46.9934 17.8278C47.0179 17.8442 47.0371 17.8674 47.0485 17.8946C47.0599 17.9218 47.0631 17.9518 47.0576 17.9808C47.0522 18.0098 47.0383 18.0365 47.0177 18.0577L45.7057 19.6505L48.0801 21.1625L49.3905 19.9873L53.7601 20.2825L54.3353 17.4153L58.1225 25.9153L58.2105 23.0577C58.2163 22.9554 58.2 22.8531 58.1625 22.7577L54.5401 13.3577L51.9905 16.8305L48.9401 17.6777L44.9329 15.5273C44.9059 15.5135 44.8838 15.4917 44.8695 15.465C44.8552 15.4383 44.8494 15.4078 44.8529 15.3777L45.7201 7.52249C45.7232 7.48925 45.7372 7.45796 45.7599 7.4335C45.7826 7.40905 45.8128 7.3928 45.8457 7.38729C45.8666 7.38476 45.8877 7.38584 45.9081 7.39049L55.6177 9.92249L55.8833 11.5649L59.0329 13.8249L60.4457 17.2753L64.4329 14.8305L59.3281 11.5905L53.9457 7.37289L45.0529 3.84009L40.0529 5.07049L35.0529 3.84009L26.1553 7.37289L20.7753 11.5905L15.6705 14.8305L19.6553 17.2777L21.0705 13.8249L24.2177 11.5649ZM44.0353 17.0273L40.0529 19.0377L36.0657 17.0273C36.0519 17.0184 36.0406 17.0062 36.0326 16.9918C36.0247 16.9774 36.0204 16.9613 36.0201 16.9449C36.0201 16.8905 36.0657 16.8449 36.1201 16.8449H36.1353C37.4105 17.1953 38.7281 17.3849 40.0529 17.4129C41.3769 17.3857 42.6929 17.1945 43.9705 16.8449H43.9825C44.0377 16.8449 44.0825 16.8905 44.0825 16.9449C44.0826 16.9613 44.0786 16.9775 44.0708 16.9919C44.0629 17.0063 44.0516 17.0185 44.0377 17.0273H44.0353ZM44.2977 14.9177L42.0377 14.2001L44.5201 8.05769C44.5305 8.03289 44.5577 8.01769 44.5825 8.02489C44.5954 8.02687 44.607 8.03368 44.615 8.04394C44.6231 8.05419 44.6269 8.06712 44.6257 8.08009L44.3001 14.9177H44.2977ZM35.8001 14.9153L35.4753 8.08009C35.4742 8.07288 35.4747 8.06551 35.4769 8.05856C35.4792 8.05161 35.483 8.04528 35.4881 8.04009C35.4979 8.02962 35.5114 8.02332 35.5257 8.02249C35.5377 8.02249 35.5505 8.02489 35.5601 8.03289C35.5681 8.04009 35.5753 8.04729 35.5777 8.05769L38.0625 14.2001L35.8001 14.9153ZM28.5329 7.92009L34.2881 4.94489L40.0505 7.11289L45.8129 4.94249L51.5681 7.92009C51.6001 7.93609 51.6201 7.96889 51.6201 8.00489C51.6199 8.01986 51.6163 8.03458 51.6094 8.04788C51.6025 8.06117 51.5926 8.07267 51.5804 8.08146C51.5683 8.09024 51.5543 8.09607 51.5395 8.09847C51.5247 8.10087 51.5096 8.09978 51.4953 8.09529L45.3529 6.22489L40.0505 8.83289L34.7481 6.22489L28.6057 8.09529C28.5938 8.10005 28.581 8.10249 28.5681 8.10249C28.5463 8.10235 28.5252 8.09473 28.5083 8.0809C28.4915 8.06707 28.4799 8.04787 28.4755 8.02651C28.4711 8.00515 28.4741 7.98293 28.4842 7.96355C28.4942 7.94418 28.5105 7.92884 28.5305 7.92009H28.5329Z" fill="#F77111"/>
<path d="M62.7599 62.5649C63.2748 62.4277 63.8077 62.3705 64.3399 62.3953C64.7775 62.3953 65.2151 62.4201 65.6503 62.4625C66.0303 62.5001 66.4055 62.5625 66.7751 62.6529L67.2199 60.6529C66.3483 60.4745 65.46 60.3905 64.5703 60.4025C62.9503 60.4025 61.6703 60.6425 60.7431 61.1201C59.8127 61.5953 59.2503 62.2753 59.0527 63.1553C58.9679 63.4365 58.9579 63.7349 59.0237 64.0211C59.0895 64.3073 59.2288 64.5714 59.4279 64.7873C59.8279 65.2025 60.4951 65.5049 61.4327 65.6929L62.3479 65.8897C62.5855 65.9353 62.8199 65.9977 63.0479 66.0825C63.1663 66.1189 63.2709 66.1903 63.3479 66.2873C63.3713 66.3278 63.3865 66.3726 63.3925 66.419C63.3986 66.4654 63.3954 66.5125 63.3831 66.5577C63.3508 66.6634 63.2928 66.7594 63.2141 66.837C63.1355 66.9147 63.0388 66.9715 62.9327 67.0025C62.5327 67.1297 62.1127 67.1825 61.6951 67.1625C60.6416 67.1572 59.5925 67.0254 58.5703 66.7697L58.1199 68.7729C58.6055 68.9025 59.0951 68.9953 59.5903 69.0529C60.1479 69.1201 60.7103 69.1529 61.2727 69.1529C62.1401 69.1649 63.0047 69.0521 63.8399 68.8177C64.5128 68.6357 65.1371 68.3071 65.6679 67.8553C66.1129 67.4723 66.4237 66.9571 66.5551 66.3849C66.6414 66.1004 66.6498 65.798 66.5795 65.5091C66.5091 65.2202 66.3626 64.9555 66.1551 64.7425C65.7399 64.3297 65.0151 64.0177 63.9799 63.8097L63.0575 63.6153C62.8628 63.5762 62.6721 63.5192 62.4879 63.4449C62.3905 63.4102 62.3053 63.3476 62.2431 63.2649C62.2034 63.1905 62.1942 63.1036 62.2175 63.0225C62.2575 62.8297 62.4399 62.6777 62.7599 62.5649ZM42.1031 61.1201C41.1703 61.5953 40.6079 62.2753 40.4127 63.1553C40.3281 63.4365 40.3183 63.7349 40.3841 64.021C40.4498 64.3072 40.589 64.5713 40.7879 64.7873C41.1879 65.2025 41.8527 65.5049 42.7903 65.6929L43.7079 65.8897C43.9455 65.9353 44.1775 65.9977 44.4055 66.0825C44.5243 66.1194 44.6296 66.1907 44.7079 66.2873C44.7313 66.3278 44.7465 66.3726 44.7525 66.419C44.7586 66.4654 44.7554 66.5125 44.7431 66.5577C44.7108 66.6634 44.6528 66.7594 44.5741 66.837C44.4955 66.9147 44.3988 66.9715 44.2927 67.0025C43.8922 67.1291 43.4723 67.1833 43.0527 67.1625C41.9992 67.1572 40.95 67.0254 39.9279 66.7697L39.4799 68.7729C39.9631 68.9025 40.4551 68.9953 40.9479 69.0529C41.5079 69.1201 42.0679 69.1529 42.6303 69.1529C43.4985 69.1652 44.364 69.0524 45.1999 68.8177C45.8721 68.6357 46.4956 68.307 47.0255 67.8553C47.4716 67.4733 47.7827 66.9577 47.9127 66.3849C47.9998 66.1007 48.0089 65.7982 47.939 65.5092C47.869 65.2203 47.7226 64.9555 47.5151 64.7425C47.0999 64.3297 46.3751 64.0177 45.3399 63.8097L44.4151 63.6153C44.2214 63.5754 44.0316 63.5183 43.8479 63.4449C43.7495 63.4103 43.6633 63.3478 43.5999 63.2649C43.5609 63.1903 43.552 63.1035 43.5751 63.0225C43.6175 62.8297 43.7999 62.6777 44.1199 62.5649C44.6339 62.4272 45.1661 62.3699 45.6975 62.3953C46.1351 62.3953 46.5727 62.4201 47.0103 62.4625C47.3879 62.5001 47.7655 62.5625 48.1351 62.6529L48.5799 60.6529C47.7081 60.4761 46.8199 60.3921 45.9303 60.4025C44.3079 60.4025 43.0303 60.6425 42.0999 61.1201H42.1031ZM59.1255 60.5177H49.4279L48.9703 62.5801H52.2327L50.7951 69.0377H53.9631L55.4031 62.5801H58.6655L59.1255 60.5177ZM34.0655 65.6753H38.3255L38.7631 63.7073H34.5031L34.7727 62.4929H39.7327L40.1727 60.5177H30.9655L31.9151 61.3329L30.1975 69.0377H38.3399L38.7799 67.0625H33.7551L34.0655 65.6753ZM29.8655 60.5177H28.3599L25.0775 66.7753L24.5727 60.5177H21.1351L17.7927 66.6497L17.3631 60.5177H12.8775L14.2951 61.7497L14.9951 69.0377H19.0279L22.1855 63.3377L22.6975 69.0377H26.7327L30.8727 61.3849L29.8655 60.5177ZM66.6575 21.0073L66.8927 20.0649L65.5055 19.5097L71.4631 15.8697L64.8631 16.3201L67.8951 14.1577L60.8455 10.2697L55.9631 5.94731L45.7727 1.69531L40.0479 3.08251L34.3279 1.69531L24.1375 5.94731L19.2527 10.2697L12.2031 14.1577L15.2351 16.3225L8.63514 15.8697L14.5903 19.5097L13.2055 20.0649L13.4399 21.0073L6.47754 22.0401L12.9079 24.5601L7.23994 28.0353L12.3831 29.1449L12.7455 31.4873L8.60794 35.2873L13.1399 35.1873L13.3455 36.5625L15.9151 37.2825L15.0831 39.2577L26.3775 45.6073L32.8103 55.3473L40.0527 53.9401L47.2879 55.3473L53.7231 45.6073L65.0151 39.2577L64.1831 37.2825L66.7551 36.5625L66.9599 35.1873L71.4927 35.2873L67.3551 31.4873L67.7151 29.1449L72.8599 28.0353L67.1927 24.5601L73.6231 22.0401L66.6575 21.0073ZM65.9479 26.1529L68.9175 27.3825L65.6799 27.7049L65.0055 31.8425L67.5727 33.6249L64.7575 33.0897L64.4775 34.7401L61.0751 35.6897L62.0031 38.1329L52.1327 44.4025L45.7503 52.4953H34.3503L27.9679 44.4025L18.0951 38.1329L19.0255 35.6897L15.6199 34.7401L15.3399 33.0897L12.5279 33.6249L15.0927 31.8425L14.4175 27.7049L11.1799 27.3801L14.1551 26.1529L16.2231 23.4673L12.1527 22.6729L16.5455 22.4697L15.8999 21.1825L18.0879 19.5625L13.9775 17.6377L19.1279 18.7673L19.6527 17.2777L15.6679 14.8273L20.7727 11.5897L26.1527 7.37531L35.0527 3.84011L40.0527 5.06731L45.0527 3.84011L53.9479 7.37291L59.3303 11.5897L64.4351 14.8273L60.4479 17.2777L60.9727 18.7673L66.1231 17.6353L62.0151 19.5601L64.1999 21.1849L63.5575 22.4697L67.9479 22.6697L63.8799 23.4673L65.9479 26.1529ZM53.7599 20.2825L49.3903 19.9873L44.3775 24.4873C44.3729 24.4919 44.3693 24.4974 44.3668 24.5035C44.3644 24.5095 44.3631 24.516 44.3631 24.5225C44.3631 24.5441 44.3767 24.5633 44.3975 24.5697C44.4103 24.5729 44.4231 24.5729 44.4327 24.5673L49.4951 22.0929L50.5175 22.7249L44.6775 25.5649C44.6575 25.5753 44.6455 25.5977 44.6527 25.6201C44.6575 25.6305 44.6653 25.6391 44.6751 25.6449C44.6796 25.6477 44.6846 25.6495 44.6899 25.6504C44.6951 25.6512 44.7004 25.651 44.7055 25.6497L52.1327 24.2201L53.7855 25.1649L44.9751 26.5129C44.9631 26.5129 44.9527 26.5201 44.9455 26.5273C44.9382 26.5366 44.9345 26.5483 44.9351 26.5601C44.9351 26.5729 44.9399 26.5825 44.9503 26.5897C44.9583 26.5977 44.9687 26.6025 44.9799 26.6025L53.5431 26.9777L50.3879 29.4649L50.0231 29.6249L41.5879 26.9929C41.3926 26.9322 41.2217 26.8107 41.1002 26.6461C40.9788 26.4814 40.9131 26.2823 40.9127 26.0777V25.4729L47.0175 18.0577C47.0405 18.0292 47.0525 17.9934 47.0517 17.9568C47.0508 17.9202 47.037 17.8851 47.0127 17.8577C46.9884 17.8311 46.9555 17.814 46.9197 17.8095C46.8839 17.8049 46.8477 17.8132 46.8175 17.8329L42.7727 20.5497H37.3279L33.2855 17.8353C33.2632 17.8191 33.2368 17.8093 33.2092 17.8071C33.1816 17.805 33.154 17.8105 33.1294 17.8231C33.1048 17.8357 33.0841 17.8549 33.0698 17.8785C33.0554 17.9021 33.0478 17.9293 33.0479 17.9569V17.9577C33.0479 17.9953 33.0599 18.0297 33.0831 18.0577L39.1903 25.4729V26.0777C39.1903 26.4977 38.9151 26.8697 38.5151 26.9953L30.0775 29.6249L29.7127 29.4673L26.5575 26.9777L35.1199 26.6025C35.1314 26.6024 35.1423 26.5978 35.1503 26.5897C35.1588 26.5817 35.1638 26.5707 35.1642 26.559C35.1647 26.5474 35.1605 26.536 35.1527 26.5273C35.1451 26.5202 35.1357 26.5153 35.1255 26.5129L26.3127 25.1649L27.9655 24.2201L35.3927 25.6497C35.4036 25.6523 35.4151 25.6507 35.4249 25.6452C35.4347 25.6397 35.442 25.6308 35.4455 25.6201C35.4479 25.615 35.4491 25.6094 35.4491 25.6037C35.4491 25.5981 35.4479 25.5925 35.4455 25.5873C35.4432 25.5817 35.4397 25.5766 35.4353 25.5723C35.4309 25.568 35.4257 25.5647 35.4199 25.5625L29.5855 22.7249L30.6055 22.0929L35.6703 24.5673L35.6927 24.5729C35.706 24.5727 35.7187 24.5673 35.7282 24.5579C35.7376 24.5485 35.7429 24.5358 35.7431 24.5225C35.7423 24.5082 35.736 24.4947 35.7255 24.4849L30.7127 19.9873L26.3431 20.2825L25.7679 17.4153L21.9775 25.9153L29.3951 33.8577L33.1599 48.0929L33.6175 50.3753C33.6278 50.4251 33.6487 50.472 33.6789 50.5128C33.709 50.5537 33.7477 50.5875 33.7921 50.612C33.8366 50.6365 33.8859 50.6511 33.9366 50.6547C33.9872 50.6583 34.038 50.6509 34.0855 50.6329L40.0527 48.3329L46.0175 50.6329C46.0584 50.6486 46.1018 50.657 46.1455 50.6577C46.2259 50.6566 46.3035 50.6279 46.3654 50.5765C46.4272 50.5252 46.4697 50.4541 46.4855 50.3753L46.9431 48.0929L50.7103 33.8577L58.1255 25.9129L54.3399 17.4129L53.7655 20.2825H53.7599ZM45.7751 48.0401C45.7693 48.1109 45.7484 48.1797 45.714 48.2419C45.6795 48.304 45.6322 48.3582 45.5753 48.4007C45.5183 48.4432 45.453 48.4731 45.3836 48.4885C45.3142 48.5038 45.2423 48.5042 45.1727 48.4897L42.7479 47.7553C41.9775 47.5753 40.8199 47.1425 40.0479 46.9625C39.2799 47.1425 38.1231 47.5753 37.3527 47.7553L34.9279 48.4929C34.8583 48.507 34.7865 48.5063 34.7173 48.4908C34.648 48.4752 34.5827 48.4452 34.5259 48.4026C34.469 48.3601 34.4217 48.3061 34.3872 48.244C34.3527 48.1819 34.3317 48.1133 34.3255 48.0425C34.1079 44.8753 34.0855 42.9553 35.0831 41.1401C35.4975 43.2297 35.5575 44.8049 36.5679 46.8329L37.4879 45.1825L38.3399 46.2377L39.2455 45.1625L40.0503 46.2353L40.8551 45.1649L41.7575 46.2377L42.6127 45.1825L43.5327 46.8329C44.5399 44.8049 44.5999 43.2329 45.0175 41.1401C46.0151 42.9553 45.9927 44.8753 45.7751 48.0401ZM58.2903 16.5825L61.5151 27.7153L58.0799 32.6697L52.8679 35.2953C52.6397 35.408 52.4602 35.6 52.3631 35.8353L48.3199 45.5297C48.3108 45.5521 48.3099 45.5771 48.3175 45.6001C48.3249 45.6227 48.34 45.6418 48.3603 45.6542C48.3805 45.6665 48.4045 45.6712 48.4279 45.6673C48.4511 45.6625 48.4721 45.6504 48.4879 45.6329L52.3751 40.9225L54.2799 41.7297L57.9679 37.9049L63.1375 31.5049L63.5927 26.5553L58.5927 16.4697C58.579 16.4431 58.5582 16.4207 58.5327 16.4049C58.5072 16.3891 58.4779 16.3805 58.4479 16.3801C58.4181 16.3797 58.3887 16.3876 58.3631 16.403C58.3375 16.4184 58.3167 16.4407 58.3031 16.4673C58.2851 16.5029 58.2805 16.5438 58.2903 16.5825ZM27.7351 35.8353C27.6383 35.6 27.46 35.4074 27.2327 35.2929L22.0175 32.6697L18.5831 27.7153L21.8079 16.5825L21.8103 16.5529C21.8101 16.5098 21.793 16.4686 21.7626 16.438C21.7322 16.4075 21.691 16.3901 21.6479 16.3897C21.6197 16.3898 21.5919 16.3972 21.5674 16.4112C21.5428 16.4252 21.5224 16.4454 21.5079 16.4697L16.5079 26.5577L16.9631 31.5049L22.1327 37.9049L25.8199 41.7297L27.7255 40.9225L31.6127 45.6329C31.6221 45.6437 31.6336 45.6524 31.6466 45.6583C31.6596 45.6643 31.6737 45.6673 31.6879 45.6673C31.7088 45.6675 31.7293 45.6611 31.7463 45.649C31.7634 45.637 31.7763 45.6199 31.7831 45.6001C31.7897 45.578 31.7886 45.5543 31.7799 45.5329L27.7351 35.8329V35.8353ZM44.7255 39.1201C44.7255 39.1201 44.3799 40.7625 44.1903 41.6273C43.9351 42.7977 43.7975 44.0297 43.3679 44.8097L42.7351 43.7297L41.7631 44.9097L40.8631 43.7801L40.0503 44.9425L39.2351 43.7801L38.3351 44.9097L37.3655 43.7297L36.7303 44.8097C36.2999 44.0297 36.1655 42.7977 35.9103 41.6273C35.7199 40.7625 35.3727 39.1201 35.3727 39.1201C34.533 40.1224 33.9527 41.3159 33.6831 42.5953C33.7031 41.9953 33.7855 41.4001 33.9351 40.8201C34.1551 40.0225 34.4727 39.2577 34.8775 38.5401C35.0119 38.3081 35.2279 38.1329 35.4831 38.0497C36.7079 37.5273 38.5799 37.4329 39.0679 38.1001C39.1751 38.2497 39.2527 38.4177 39.3031 38.5953C39.6879 39.7753 39.9375 40.9953 40.0503 42.2297C40.1604 40.994 40.4103 39.7747 40.7951 38.5953C40.8455 38.4177 40.9247 38.2497 41.0303 38.0977C41.5199 37.4329 43.3927 37.5273 44.6175 38.0473C44.8719 38.1321 45.0871 38.3073 45.2199 38.5401C45.6279 39.2577 45.9455 40.0249 46.1655 40.8201C46.3151 41.4001 46.3975 41.9953 46.4151 42.5953C46.1452 41.316 45.565 40.1226 44.7255 39.1201ZM49.4503 31.0153C49.0279 34.5153 48.4951 37.8473 47.0831 40.5825C47.0999 36.8529 47.1327 33.7201 46.0103 29.8249C46.0006 29.7944 45.9997 29.7619 46.0076 29.7309C46.0155 29.6999 46.032 29.6718 46.0551 29.6497C46.0777 29.6281 46.1056 29.6129 46.1359 29.6054C46.1662 29.598 46.198 29.5986 46.2279 29.6073L49.0975 30.4753C49.3295 30.5457 49.4775 30.7753 49.4479 31.0153H49.4503ZM33.0151 40.5825C31.6055 37.8473 31.0703 34.5153 30.6503 31.0153C30.6359 30.8986 30.6631 30.7805 30.727 30.6818C30.7909 30.583 30.8875 30.5099 30.9999 30.4753L33.8727 29.6073C33.888 29.6025 33.9039 29.6001 33.9199 29.6001C33.9471 29.6003 33.9739 29.6068 33.9982 29.619C34.0224 29.6313 34.0435 29.649 34.0598 29.6708C34.0761 29.6925 34.0871 29.7178 34.092 29.7445C34.0969 29.7713 34.0955 29.7988 34.0879 29.8249C32.9631 33.7201 32.9999 36.8497 33.0151 40.5825ZM37.4151 28.6897C37.4779 28.6725 37.5433 28.6676 37.6079 28.6753L39.9279 28.9353C40.0087 28.9449 40.0911 28.9449 40.1727 28.9353L42.4903 28.6753C42.5556 28.6669 42.6218 28.671 42.6855 28.6873L44.9055 29.2873C44.9055 29.2873 44.7151 32.7377 44.5655 33.0353C44.191 32.1191 43.6209 31.2956 42.8951 30.6225L42.3351 31.9449L41.5679 30.6225L40.9055 31.9873L40.0503 30.6673L39.1951 31.9897L38.5303 30.6225L37.7655 31.9449L37.2031 30.6225C36.4777 31.2954 35.9084 32.119 35.5351 33.0353C35.3855 32.7377 35.1951 29.2849 35.1951 29.2849L37.4151 28.6873V28.6897ZM38.8727 23.0953C38.8314 23.0234 38.7659 22.9685 38.6879 22.9401L37.7679 22.6073C37.707 22.5872 37.6531 22.55 37.6127 22.5001L37.1327 21.8929C37.1096 21.8631 37.0951 21.8275 37.0907 21.79C37.0863 21.7525 37.0923 21.7145 37.1079 21.6801C37.1239 21.6448 37.15 21.615 37.1829 21.5945C37.2158 21.574 37.254 21.5637 37.2927 21.5649H42.8079C42.8458 21.5654 42.8827 21.5765 42.9145 21.5968C42.9464 21.6172 42.972 21.646 42.9884 21.6801C43.0047 21.7142 43.0113 21.7522 43.0072 21.7898C43.0032 21.8273 42.9888 21.8631 42.9655 21.8929L42.4855 22.5001C42.4447 22.55 42.3911 22.5879 42.3303 22.6097L41.4127 22.9425C41.3345 22.9704 41.269 23.0255 41.2279 23.0977L40.2479 24.8201C40.2279 24.8555 40.1988 24.8851 40.1637 24.9057C40.1286 24.9264 40.0887 24.9374 40.0479 24.9377C40.0075 24.9374 39.968 24.9263 39.9332 24.9056C39.8985 24.885 39.8699 24.8555 39.8503 24.8201L38.8727 23.0953ZM43.9679 16.8449C42.6904 17.1947 41.3746 17.3855 40.0503 17.4129C38.7261 17.3855 37.4103 17.1947 36.1327 16.8449H36.1175C36.0911 16.8451 36.0658 16.8557 36.0471 16.8744C36.0284 16.8931 36.0178 16.9185 36.0175 16.9449C36.0178 16.9613 36.0221 16.9774 36.03 16.9918C36.038 17.0062 36.0494 17.0184 36.0631 17.0273L40.0527 19.0377L44.0375 17.0273C44.0599 17.0176 44.0779 16.9999 44.0879 16.9777C44.0946 16.9607 44.0965 16.9423 44.0935 16.9243C44.0904 16.9063 44.0826 16.8895 44.0708 16.8757C44.059 16.8618 44.0436 16.8514 44.0263 16.8455C44.0091 16.8397 43.9906 16.8387 43.9727 16.8425L43.9679 16.8449ZM30.9631 16.9425L34.3279 15.2825L33.3527 8.84011C33.3527 8.82688 33.3475 8.81418 33.3383 8.80476C33.329 8.79533 33.3164 8.78992 33.3031 8.78971C33.2751 8.78971 33.2551 8.80971 33.2527 8.83771L32.3775 12.5873L24.4231 10.7953L28.4055 15.8697L30.9631 16.9425ZM46.8503 8.83771C46.8479 8.80971 46.8279 8.78971 46.7999 8.78971C46.7867 8.78992 46.7741 8.79533 46.7648 8.80476C46.7555 8.81418 46.7503 8.82688 46.7503 8.84011L45.7727 15.2825L49.1351 16.9425L51.6927 15.8673L55.6751 10.7953L47.7199 12.5873L46.8503 8.83771ZM28.8303 12.8073L29.6799 13.1897C29.6087 13.3185 29.5712 13.4633 29.5711 13.6105C29.5721 13.7528 29.6079 13.8927 29.6753 14.018C29.7428 14.1433 29.8399 14.2502 29.9582 14.3294C30.0765 14.4085 30.2123 14.4575 30.3539 14.4721C30.4955 14.4866 30.6384 14.4663 30.7703 14.4129C30.9935 14.3137 31.1639 14.1249 31.2399 13.8929L32.0503 14.2577C31.9072 14.5726 31.6764 14.8397 31.3856 15.0271C31.0948 15.2145 30.7563 15.3142 30.4103 15.3145C29.9984 15.3137 29.5991 15.1719 29.2789 14.9127C28.9588 14.6534 28.7369 14.2925 28.6503 13.8897C28.5862 13.5189 28.6497 13.1374 28.8303 12.8073ZM48.8575 13.8929C48.9184 14.0589 49.0288 14.2022 49.1737 14.3035C49.3186 14.4048 49.4911 14.4592 49.6679 14.4593C50.1359 14.4593 50.5231 14.0777 50.5303 13.6097C50.5303 13.4633 50.4927 13.3185 50.4199 13.1897L51.2703 12.8073C51.4511 13.1377 51.5143 13.5193 51.4503 13.8897C51.3621 14.2915 51.1394 14.6512 50.8191 14.9093C50.4989 15.1675 50.1001 15.3087 49.6887 15.3097C49.3437 15.3093 49.0059 15.2101 48.7155 15.0236C48.4251 14.8371 48.1943 14.5714 48.0503 14.2577L48.8575 13.8929ZM44.5831 8.02491C44.5714 8.02207 44.5591 8.0229 44.5479 8.02731C44.5362 8.03401 44.5273 8.04485 44.5231 8.05771L42.0375 14.2001L44.2975 14.9177L44.6231 8.08011C44.6243 8.06714 44.6205 8.05422 44.6125 8.04396C44.6044 8.03371 44.5928 8.0269 44.5799 8.02491H44.5831ZM35.5775 8.05771C35.5737 8.04727 35.5665 8.0384 35.5571 8.03247C35.5477 8.02653 35.5366 8.02388 35.5255 8.02491C35.5122 8.02491 35.4994 8.03022 35.4899 8.03967C35.4804 8.04913 35.4751 8.06195 35.4751 8.07531L35.7999 14.9177L38.0631 14.2001L35.5775 8.05771ZM28.6031 8.09531L34.7479 6.22491L40.0479 8.83291L45.3527 6.22491L51.4951 8.09531C51.5051 8.09775 51.5153 8.09936 51.5255 8.10011C51.5506 8.0997 51.5745 8.08951 51.5921 8.07172C51.6098 8.05394 51.6197 8.02996 51.6199 8.00491C51.6203 7.99278 51.6179 7.98072 51.6127 7.96971C51.6047 7.94806 51.5887 7.93032 51.5679 7.92011L45.8127 4.94491L40.0503 7.11291L34.2879 4.94251L28.5327 7.92011C28.5119 7.93011 28.4958 7.94793 28.4879 7.96971C28.48 7.9925 28.48 8.01733 28.4879 8.04011C28.4964 8.06232 28.5131 8.08042 28.5345 8.09069C28.556 8.10096 28.5805 8.10261 28.6031 8.09531Z" fill="black"/>
</svg>
