<svg width="80" height="80" viewBox="0 0 80 80" fill="none" xmlns="http://www.w3.org/2000/svg">
<path d="M10.0449 0.000137329V38.0597C10.0449 44.3267 10.8209 49.866 12.3482 54.5229C13.9442 59.3902 16.3559 63.2763 19.5153 66.0729C23.5538 69.6436 27.2559 72.4992 30.8328 74.799C34.2671 77.0107 36.9738 78.2958 38.7098 79.0709L40.3843 79.8196L40.3834 77.8096L40.3798 77.8113L38.6878 77.0539C37.0575 76.3281 34.5198 75.1222 31.2979 73.0488C27.9534 70.8953 24.4875 68.2238 20.7071 64.8811C17.7176 62.2343 15.4381 58.5631 13.9319 53.9706C12.4962 49.5939 11.7678 44.3954 11.7678 38.5204V1.7503H68.8281V38.5204C68.8519 44.4958 68.1375 49.7128 66.7335 54.0243C65.2555 58.5658 62.9751 62.2229 59.9575 64.8935C56.1568 68.2299 52.6926 70.8953 49.372 73.0435C46.1703 75.1161 43.6723 76.3193 42.0728 77.0424L40.3834 77.8096L40.3843 79.8196L42.0613 79.0612C42.381 78.9159 42.736 78.7529 43.1218 78.5688C44.7936 77.7735 47.0731 76.5897 49.845 74.7955C53.3955 72.4992 57.0958 69.648 61.158 66.0861C64.3474 63.2622 66.7564 59.3919 68.3225 54.581C69.8208 49.9867 70.5782 44.4288 70.5809 38.0597V0.000137329H10.0449Z" fill="#ADB0B2"/>
<path d="M70.6699 1.41458e-06H10V38.145C10 44.4269 10.7777 49.9786 12.3077 54.6451C13.9081 59.5239 16.3251 63.418 19.4907 66.2216C23.5389 69.8003 27.2497 72.662 30.8346 74.9671C34.2759 77.1841 36.9879 78.4718 38.7301 79.2487L40.408 80L40.4071 77.9856H40.408V80L42.0877 79.239C42.4083 79.0937 42.7633 78.9307 43.1491 78.7457C44.8261 77.9486 47.1092 76.7622 49.889 74.9636C53.4492 72.662 57.1583 69.8056 61.2267 66.2339C64.4258 63.4048 66.8392 59.5266 68.4088 54.7024C69.9097 50.0993 70.6699 44.53 70.6716 38.145V1.41458e-06H70.6699Z" fill="#A7A9AC"/>
<path d="M59.5275 64.4063C55.7515 67.719 52.3146 70.3667 49.0186 72.4974C45.853 74.5453 43.3858 75.7352 41.8048 76.4513C41.8048 76.4513 40.7469 76.9314 40.3788 77.0978C40.1762 77.008 38.9519 76.4592 38.9519 76.4592C37.3426 75.7414 34.8341 74.5514 31.65 72.5018C28.332 70.3658 24.8933 67.7155 21.1376 64.3949C19.3311 62.7944 17.7923 60.8056 16.531 58.4512H64.1614C62.9027 60.7959 61.3543 62.7891 59.5275 64.4063ZM68.8244 1.75024H11.7676V38.5212C11.7676 44.3953 12.496 49.5938 13.9317 53.9714C15.4379 58.563 17.7174 62.2342 20.7069 64.8811C24.4873 68.2237 27.9524 70.8952 31.2977 73.0488C34.5197 75.1222 37.0573 76.328 38.6876 77.0538L40.3797 77.8113L40.3832 77.8104L42.0726 77.0423C43.6721 76.3192 46.1701 75.116 49.3718 73.0435C52.6924 70.8952 56.1566 68.2299 59.9573 64.8934C62.9749 62.2228 65.2553 58.5657 66.7333 54.0243C68.1373 49.7127 68.8517 44.4957 68.8279 38.5212V1.75024H68.8244Z" fill="white"/>
<path d="M40.379 77.0977L40.3861 77.0871L40.3667 77.0783L40.379 77.0977Z" fill="#0054A4"/>
<path d="M68.1835 15.5322L40.3906 57.78L12.418 15.5322V35.1284L27.5255 57.8047H53.1587L68.1782 35.1284L68.1835 15.5322Z" fill="#0054A4"/>
<path d="M16.5347 58.4513C17.7942 60.8039 19.333 62.7963 21.1378 64.3949C24.8935 67.7156 28.3331 70.3659 31.6502 72.5019C34.8343 74.5515 37.3428 75.7415 38.952 76.4593C38.952 76.4593 40.0434 76.9473 40.3358 77.0785L40.356 77.0873L40.3798 77.0979C40.7471 76.9314 41.805 76.4514 41.805 76.4514C43.386 75.7353 45.854 74.5453 49.0188 72.4975C52.3147 70.3668 55.7516 67.7191 59.5276 64.4064C61.3535 62.7901 62.9002 60.796 64.158 58.4513H16.5347Z" fill="#231F20"/>
<path d="M12.418 14.8864H68.1782V2.40015H12.418V14.8864Z" fill="#231F20"/>
<path d="M17.8041 11.1007H18.4136C18.8144 11.1007 19.1896 10.7492 19.1896 10.0666C19.1896 9.42008 18.8144 9.05543 18.4136 9.05543H17.8041V11.1007ZM17.8041 7.5748H18.3326C18.7783 7.5748 19.0249 7.17491 19.0249 6.72922C19.0249 6.25799 18.7783 5.85899 18.3326 5.85899H17.8041V7.5748ZM15.6162 4.28323H18.9201C20.4827 4.28323 21.212 5.11823 21.212 6.37602C21.212 7.26916 20.8244 8.06805 19.896 8.25654V8.28032C21.0006 8.38514 21.4463 9.32584 21.4463 10.1961C21.4463 11.6538 20.7416 12.6755 18.9201 12.6755H15.6162V4.28323Z" fill="white"/>
<path d="M24.3854 4.28331V10.3371C24.3854 11.1474 24.6311 11.3588 25.0442 11.3588C25.4547 11.3588 25.7013 11.1474 25.7013 10.3371V4.28331H27.8883V9.78482C27.8883 12.1366 26.8772 12.8403 25.0442 12.8403C23.2095 12.8403 22.1992 12.1366 22.1992 9.78482V4.28331H24.3854Z" fill="white"/>
<path d="M28.8291 4.28323H31.0153V10.8893H33.707V12.6755H28.8291V4.28323Z" fill="white"/>
<path d="M34.2705 4.28323H36.4567V10.8893H39.1475V12.6755H34.2705V4.28323Z" fill="white"/>
<path d="M41.8973 11.1007H42.3342C43.1806 11.1007 43.2863 10.7492 43.2863 8.47938C43.2863 6.21131 43.1806 5.85899 42.3342 5.85899H41.8973V11.1007ZM39.7129 4.28323H42.8873C45.4143 4.28323 45.5421 6.28177 45.5421 8.47938C45.5421 10.6788 45.4143 12.6755 42.8873 12.6755H39.7129V4.28323Z" fill="white"/>
<path d="M49.209 11.3588C49.8793 11.3588 49.9506 10.7493 49.9506 8.47947C49.9506 6.21139 49.8793 5.60011 49.209 5.60011C48.5396 5.60011 48.47 6.21139 48.47 8.47947C48.47 10.7493 48.5396 11.3588 49.209 11.3588ZM49.209 4.1186C51.4427 4.1186 52.2073 5.34204 52.2073 8.47947C52.2073 11.6187 51.4427 12.8403 49.209 12.8403C46.9762 12.8403 46.2134 11.6187 46.2134 8.47947C46.2134 5.34204 46.9762 4.1186 49.209 4.1186Z" fill="white"/>
<path d="M55.8153 8.11569H58.6374V12.6756H57.1559L57.1101 11.9357H57.0854C56.793 12.6527 56.0161 12.8403 55.2762 12.8403C53.0539 12.8403 52.854 11.254 52.854 8.48035C52.854 5.67058 53.3948 4.1186 55.98 4.1186C57.532 4.1186 58.6374 4.90692 58.6374 6.9407H56.5208C56.5208 6.51703 56.4873 6.18761 56.4028 5.96389C56.3209 5.72959 56.157 5.601 55.8989 5.601C55.1811 5.601 55.1097 6.21139 55.1097 8.48035C55.1097 10.7493 55.1811 11.3588 55.8523 11.3588C56.3094 11.3588 56.5798 11.0664 56.5913 9.59633H55.8153V8.11569Z" fill="white"/>
<path d="M62.7981 6.70479V6.50397C62.7981 6.0116 62.5973 5.60026 62.1745 5.60026C61.7051 5.60026 61.4928 5.96404 61.4928 6.34014C61.4928 7.99781 65.0653 7.18659 65.0653 10.2553C65.0653 12.0416 64.0198 12.8396 62.0917 12.8396C60.2826 12.8396 59.2705 12.2169 59.2705 10.4782V10.1831H61.3871V10.3839C61.3871 11.1009 61.6813 11.359 62.1041 11.359C62.5515 11.359 62.8096 11.0075 62.8096 10.5477C62.8096 8.89095 59.3771 9.7145 59.3771 6.7409C59.3771 5.04712 60.2826 4.11787 62.127 4.11787C64.0321 4.11787 64.8425 4.90619 64.8425 6.70479H62.7981Z" fill="white"/>
<path d="M44.142 63.6011C44.1834 63.5888 44.209 63.6848 44.1913 63.8284L44.1464 64.1957C44.1279 64.3349 44.1138 64.5612 44.1138 64.6995V65.2315C44.1138 65.3689 44.0257 65.4121 43.9148 65.3284L43.824 65.2562C43.7131 65.1699 43.5351 65.0289 43.4286 64.9426L43.3255 64.8563C43.2198 64.7647 43.0348 64.6361 42.9106 64.5674L42.6446 64.4097C42.5231 64.3419 42.3179 64.2415 42.1875 64.1913L42.0334 64.1287C41.903 64.0803 41.6846 64.023 41.5472 64.0054L41.4221 63.9896C41.2864 63.9711 41.0565 63.9491 40.9191 63.9394L40.5774 63.9191C40.4391 63.9138 40.211 63.9191 40.0727 63.9332L39.9194 63.9535C39.7847 63.9711 39.5671 64.0327 39.4376 64.0847L39.2218 64.1816C39.0959 64.2388 38.8986 64.3516 38.7894 64.4405L38.5894 64.5903C38.4793 64.6757 38.3225 64.8369 38.2389 64.9505L38.1605 65.0598C38.0777 65.1699 37.9632 65.3689 37.9041 65.4993L37.8407 65.6314C37.7835 65.76 37.7148 65.974 37.6936 66.115L37.6425 66.4047C37.6196 66.5422 37.5967 66.7694 37.5862 66.9103L37.5324 67.9532C37.5219 68.0915 37.5219 68.3223 37.5219 68.4658L37.5448 69.972C37.5448 70.1129 37.558 70.3367 37.5756 70.4776L37.6214 70.8202C37.6399 70.9559 37.6883 71.1805 37.7297 71.3117L37.8231 71.5936C37.861 71.7248 37.9552 71.9362 38.0239 72.0533L38.105 72.2084C38.1719 72.3308 38.3014 72.5149 38.3921 72.6232L38.467 72.7051C38.5586 72.81 38.7295 72.9588 38.8448 73.0407L39.0536 73.1878C39.1663 73.2689 39.3689 73.3763 39.4966 73.4265L39.7626 73.5349C39.8921 73.5877 40.1123 73.6397 40.2497 73.6538L40.4259 73.667C40.5668 73.6767 40.7932 73.6837 40.9324 73.6767L41.2988 73.667C41.4397 73.6626 41.6625 73.6282 41.7964 73.5956L42.1232 73.5076C42.2588 73.4697 42.4711 73.3939 42.5997 73.3376L42.8736 73.2151C43.0005 73.1596 43.1995 73.0495 43.3158 72.972L43.5492 72.8161C43.6629 72.7386 43.7703 72.7915 43.7853 72.9333L43.8663 73.6793C43.8804 73.822 43.8232 73.9092 43.7324 73.8775C43.6426 73.8458 43.5008 73.8229 43.418 73.8229C43.3334 73.8229 43.1925 73.8291 43.1053 73.8361C43.0163 73.844 42.8684 73.8951 42.7785 73.9436C42.6852 74.0008 42.5099 74.0695 42.383 74.1091C42.2553 74.1453 42.0439 74.2087 41.9074 74.2492L41.8493 74.2686C41.7154 74.3073 41.5058 74.3575 41.3877 74.3804C41.2697 74.4051 41.0565 74.4298 40.9191 74.435H40.9068C40.7668 74.4439 40.5351 74.4439 40.3968 74.435H40.3863C40.248 74.4298 40.026 74.391 39.8886 74.3575C39.753 74.3153 39.5372 74.2421 39.4112 74.1858L39.2483 74.1144C39.1214 74.0589 38.9171 73.9568 38.7964 73.8863L38.6114 73.7859C38.4899 73.7145 38.2987 73.5877 38.1878 73.5049L38.0979 73.4318C37.9905 73.3464 37.8196 73.1966 37.7271 73.0918L37.6883 73.0539C37.5967 72.9526 37.4629 72.7659 37.3959 72.6479L37.3131 72.4937C37.2453 72.3713 37.1502 72.1643 37.0956 72.0322L37.0392 71.8789C36.9863 71.7495 36.922 71.5328 36.9009 71.3927L36.8851 71.295C36.8586 71.1532 36.8243 70.9444 36.8111 70.8237C36.7943 70.7048 36.7697 70.5031 36.7565 70.3763C36.7406 70.2495 36.6957 70.0345 36.6596 69.8989V69.8936C36.6217 69.7615 36.5556 69.5739 36.5081 69.4752C36.4658 69.3757 36.3751 69.2242 36.3187 69.137C36.2562 69.0454 36.1734 68.9247 36.124 68.8622L35.9074 68.6323C35.8343 68.5618 35.8395 68.4658 35.9206 68.4121C36.0043 68.361 36.1267 68.2615 36.1954 68.1945C36.2641 68.1285 36.3557 67.999 36.3989 67.9092C36.4429 67.8167 36.5116 67.6599 36.5486 67.556C36.5865 67.445 36.6428 67.2521 36.6763 67.1182L36.6957 67.0398C36.7247 66.9059 36.7714 66.6769 36.7943 66.5404L36.797 66.4981C36.8199 66.3554 36.8657 66.1352 36.9009 65.9996L36.9062 65.974C36.9441 65.8393 37.0031 65.6182 37.041 65.4817C37.078 65.3504 37.1643 65.1399 37.2321 65.0192C37.299 64.8968 37.4232 64.711 37.5069 64.5973C37.5879 64.4846 37.7297 64.3137 37.8319 64.2142C37.9306 64.1199 38.1014 63.9711 38.2142 63.8918L38.2908 63.8346C38.408 63.7491 38.6026 63.6346 38.7277 63.5747L38.7894 63.5465C38.9144 63.4875 39.1144 63.4126 39.235 63.3827C39.354 63.351 39.5521 63.3105 39.6728 63.2893C39.7917 63.2673 39.9908 63.2409 40.1203 63.2365C40.248 63.2277 40.4664 63.2277 40.6029 63.2321L40.6161 63.2365C40.7562 63.2409 40.9826 63.2629 41.1235 63.2849L41.164 63.292C41.3023 63.3105 41.5181 63.3607 41.644 63.395C41.7735 63.4329 41.9567 63.4919 42.0527 63.5183C42.1523 63.5492 42.3196 63.61 42.4244 63.6593C42.5293 63.6989 42.6913 63.7685 42.7926 63.8081C42.8904 63.8469 43.026 63.8812 43.093 63.8918C43.1599 63.8953 43.2885 63.905 43.3819 63.9191C43.4691 63.9226 43.6091 63.905 43.6902 63.8733C43.7738 63.8469 43.8892 63.7773 43.9465 63.7271L44.142 63.6011Z" fill="white"/>
<path d="M43.0347 70.1395C43.0294 70.2496 42.9774 70.4451 42.9237 70.5684L42.9025 70.6309C42.8488 70.756 42.7431 70.9348 42.6682 71.0264C42.5916 71.1145 42.4348 71.2457 42.315 71.3215L42.2728 71.3453C42.1521 71.4131 41.9698 71.5038 41.8702 71.5408C41.7672 71.5796 41.5804 71.6263 41.4633 71.6465C41.3461 71.665 41.1638 71.6817 41.0643 71.6738C40.9595 71.6712 40.786 71.6588 40.6829 71.6465C40.5754 71.6324 40.4345 71.613 40.3685 71.5998L40.143 71.5505L39.9827 71.4836L39.8805 71.4131L39.8461 71.3321C39.8461 71.3083 39.8549 71.1656 39.8655 71.0264L39.8682 70.9656C39.8805 70.8238 39.9025 70.5975 39.9148 70.4601V70.4574C39.9236 70.3191 39.943 70.0901 39.9483 69.9501L39.951 69.9228C39.9571 69.781 39.9703 69.5546 39.9739 69.4163V69.3987C39.9747 69.2604 39.9853 69.0587 39.9862 68.9495C39.9906 68.8429 40.0153 68.7178 40.039 68.665L40.1756 68.5699C40.2231 68.5655 40.3403 68.5619 40.4363 68.5619C40.5305 68.5619 40.6935 68.5655 40.7983 68.5699C40.9066 68.5743 41.0986 68.5743 41.2246 68.5743C41.3541 68.5743 41.5584 68.6007 41.6826 68.6324C41.805 68.6579 41.9979 68.7108 42.0992 68.7487C42.2076 68.7848 42.3441 68.8596 42.4075 68.9134L42.6462 69.1248C42.7167 69.1811 42.8074 69.2992 42.8541 69.3837C42.899 69.4665 42.9589 69.6251 42.9889 69.7343C43.0179 69.8453 43.0373 70.0249 43.0347 70.1395ZM39.8761 65.9873L40.039 65.8623C40.1042 65.8288 40.2328 65.7865 40.3147 65.7724C40.4054 65.7548 40.579 65.7354 40.7111 65.7257C40.8459 65.7187 41.0273 65.7108 41.1154 65.7108C41.2043 65.7108 41.3831 65.7284 41.51 65.7451C41.6403 65.768 41.8068 65.8138 41.8896 65.8446C41.9733 65.8816 42.1063 65.9389 42.1812 65.9785L42.4287 66.1591C42.4877 66.2146 42.559 66.3247 42.5916 66.4066C42.6233 66.4841 42.6594 66.6294 42.6682 66.7307C42.6753 66.8232 42.6665 66.958 42.6462 67.0214L42.5194 67.2575L42.3177 67.4592L42.064 67.6309C41.9865 67.6741 41.8535 67.7366 41.7698 67.7674C41.6853 67.7912 41.547 67.8326 41.4501 67.8546C41.3567 67.8758 41.1947 67.8934 41.0916 67.8987C40.9894 67.9022 40.83 67.9075 40.7349 67.9075C40.6406 67.9075 40.512 67.9022 40.4513 67.8987L40.2592 67.8758L40.1315 67.8458L40.0329 67.7798L39.965 67.66C39.9571 67.6204 39.9448 67.5147 39.9351 67.4204C39.9298 67.3279 39.9192 67.172 39.9192 67.0769C39.9192 66.98 39.9148 66.8356 39.9043 66.7554C39.899 66.677 39.8805 66.5299 39.8682 66.433C39.8549 66.3423 39.8417 66.2146 39.8391 66.1591L39.8761 65.9873ZM43.889 69.7264C43.8661 69.6295 43.8124 69.4604 43.7701 69.352C43.7323 69.2463 43.6539 69.0851 43.6037 68.9953C43.549 68.9046 43.4557 68.7804 43.3967 68.7196L43.1738 68.5082L42.9527 68.3682L42.8338 68.2484L42.9369 68.0854C43.0003 68.0343 43.1139 67.9075 43.1879 67.8009C43.2628 67.6943 43.3623 67.5006 43.409 67.3667L43.4178 67.3226C43.4662 67.1905 43.5041 66.9721 43.5041 66.8303V66.8153C43.5041 66.677 43.4751 66.4709 43.4389 66.3608C43.3967 66.2507 43.3253 66.0833 43.2628 65.9935C43.2091 65.9045 43.113 65.7812 43.0523 65.7187C42.9985 65.6588 42.8629 65.5399 42.7572 65.458C42.648 65.3769 42.4568 65.2686 42.3327 65.2193C42.2058 65.17 42.0156 65.0986 41.916 65.0687C41.8121 65.037 41.6439 65.0114 41.5487 65.0114C41.4501 65.0114 41.2757 65.0114 41.1612 65.0193C41.044 65.0202 40.8529 65.0378 40.7419 65.0554C40.6274 65.0687 40.4213 65.0986 40.2777 65.1224H40.2751C40.1386 65.1444 39.9474 65.17 39.8549 65.1876C39.7581 65.2052 39.64 65.2246 39.5845 65.2316C39.5308 65.2404 39.3731 65.2563 39.234 65.2624L39.2023 65.2668C39.064 65.2686 38.968 65.3893 38.9926 65.5302L39.0138 65.6711C39.0323 65.8068 39.0684 66.0331 39.0851 66.1714L39.108 66.3423C39.1265 66.4797 39.1503 66.7043 39.1609 66.8444L39.1732 67.0549C39.1811 67.1905 39.1935 67.4204 39.1996 67.564L39.2084 67.771C39.2155 67.9101 39.2216 68.14 39.2287 68.2748L39.2375 68.5928C39.2463 68.7328 39.2481 68.9565 39.2481 69.0975V69.293C39.2481 69.433 39.241 69.6594 39.234 69.8012L39.2172 70.0249C39.2128 70.1694 39.1908 70.394 39.1802 70.5297L39.1389 70.9683C39.1239 71.1057 39.0992 71.3338 39.0807 71.4704L39.0569 71.6668C39.0393 71.8086 39.101 71.953 39.197 71.9883C39.2904 72.0279 39.4665 72.0852 39.5845 72.1248C39.7008 72.16 39.8919 72.2085 40.002 72.2252C40.1121 72.2481 40.2927 72.2763 40.3966 72.2957C40.505 72.3142 40.6864 72.3265 40.7983 72.3309C40.919 72.3379 41.1259 72.3379 41.2625 72.3309H41.3056C41.4474 72.3265 41.6439 72.3142 41.7425 72.3045C41.8412 72.2877 42.0252 72.2428 42.1521 72.2032C42.278 72.1644 42.4709 72.0799 42.589 72.0191C42.6982 71.9557 42.8673 71.857 42.9624 71.7954C43.0664 71.7337 43.1994 71.6263 43.2628 71.554C43.3297 71.4853 43.4301 71.3629 43.49 71.281C43.5446 71.1991 43.6442 71.0308 43.7032 70.9075C43.7648 70.7842 43.8379 70.6045 43.8617 70.5032C43.8873 70.4046 43.9146 70.2311 43.9207 70.1148C43.9313 69.9976 43.9163 69.8259 43.889 69.7264Z" fill="white"/>
<path d="M46.2268 67.6917C46.1555 67.6036 46.1 67.534 46.0559 67.4829C46.477 67.1755 46.757 66.9263 46.898 66.7325C46.9913 66.6092 47.0371 66.4762 47.0371 66.3308C47.0371 66.182 46.9843 66.0534 46.8777 65.9442C46.7729 65.8341 46.6505 65.7803 46.5148 65.7803C46.2312 65.7803 45.9731 65.9565 45.7441 66.3079L45.5257 66.1899C45.6375 65.9459 45.7459 65.7627 45.8542 65.642C45.9617 65.5187 46.1149 65.4148 46.314 65.3311C46.4646 65.2642 46.6522 65.2325 46.876 65.2325C47.1807 65.2325 47.4132 65.3073 47.5797 65.4579C47.7427 65.6094 47.8263 65.7997 47.8263 66.0278C47.8263 66.2075 47.7682 66.3802 47.6555 66.5449C47.541 66.7096 47.3384 66.8901 47.0486 67.0866H47.1208C47.4309 67.0866 47.6828 67.2055 47.8792 67.4459C48.0738 67.6846 48.1716 67.9453 48.1716 68.2298C48.1716 68.4685 48.117 68.7178 48.0069 68.9785C47.8959 69.2384 47.696 69.4577 47.4027 69.6347C47.1085 69.8118 46.7465 69.9016 46.3193 69.9016C45.9044 69.9016 45.5909 69.8294 45.3724 69.6841C45.2341 69.5933 45.1646 69.4841 45.1646 69.3599C45.1646 69.2727 45.1998 69.1978 45.2658 69.1327C45.3319 69.0684 45.4182 69.0358 45.5222 69.0358C45.6094 69.0358 45.6904 69.0587 45.7653 69.1054C45.8401 69.152 45.9405 69.256 46.0674 69.4172C46.1308 69.4991 46.1942 69.5528 46.2541 69.5757C46.3616 69.6198 46.4391 69.6418 46.4866 69.6418C46.6108 69.6418 46.7385 69.6004 46.8716 69.5167C47.0037 69.4321 47.1094 69.2939 47.1878 69.1001C47.267 68.9063 47.3067 68.6791 47.3067 68.4219C47.3067 68.1435 47.238 67.9268 47.1006 67.7674C46.9623 67.608 46.8108 67.5296 46.6452 67.5296C46.5263 67.5296 46.3853 67.5825 46.2268 67.6917Z" fill="#A7A9AC"/>
<path d="M50.9644 65.2446L51.093 65.2411L51.2199 65.2446C51.123 65.7088 51.0516 65.9775 51.0085 66.0515L50.9257 66.1281C50.6491 66.1387 50.502 66.1457 50.487 66.1457H50.3937L50.1717 66.1545L50.0061 66.1457C49.8132 66.136 49.6723 66.1307 49.5842 66.1307L49.4706 66.1334L49.4574 66.2734L49.4389 66.7297L49.4248 67.06C49.5252 67.0107 49.6291 66.9737 49.7383 66.9499C49.8476 66.9261 49.9612 66.9129 50.0801 66.9129C50.2519 66.9129 50.4192 66.9472 50.5866 67.0142C50.7504 67.0811 50.8948 67.1754 51.0199 67.2969C51.1124 67.3894 51.2031 67.5154 51.2912 67.6695C51.352 67.7805 51.3872 67.8642 51.3934 67.9196C51.4207 68.1231 51.4357 68.2297 51.4357 68.242C51.4357 68.4191 51.4172 68.5811 51.3784 68.7291C51.3397 68.8753 51.256 69.0383 51.1256 69.2197C50.9979 69.4003 50.8808 69.5245 50.7777 69.5932C50.6209 69.7006 50.4483 69.7755 50.2659 69.8169C50.0819 69.8592 49.8573 69.8821 49.5913 69.8821C49.2786 69.8821 49.0187 69.809 48.8073 69.6601C48.6823 69.572 48.6206 69.4611 48.6206 69.3272C48.6206 69.2294 48.6576 69.1448 48.7298 69.0753C48.8021 69.0048 48.8919 68.9696 48.9985 68.9696C49.1623 68.9696 49.3279 69.0735 49.4952 69.2805C49.5957 69.4056 49.6714 69.4822 49.7207 69.5095C49.8009 69.5527 49.889 69.5738 49.9876 69.5738C50.1197 69.5738 50.2475 69.5342 50.3752 69.4549C50.5002 69.3739 50.6015 69.2541 50.6826 69.0885C50.761 68.9255 50.8015 68.7731 50.8015 68.6313C50.8015 68.3874 50.7187 68.1777 50.554 68.0024C50.3884 67.8272 50.192 67.7391 49.9647 67.7391C49.8476 67.7391 49.7463 67.7532 49.6573 67.7814C49.6124 67.7955 49.5314 67.8439 49.4107 67.9258L49.2636 68.0245L49.179 68.0421L49.0901 68.0139L49.0637 67.947L49.113 66.8415L49.1191 66.7138C49.1244 66.6751 49.1271 66.5782 49.1297 66.4223C49.1359 66.2655 49.1385 66.1528 49.1447 66.0858C49.1517 65.9863 49.1561 65.9035 49.1597 65.8383L49.1649 65.7018L49.1685 65.6357L49.1649 65.5062L49.275 65.3935C49.3147 65.382 49.4996 65.3768 49.8291 65.3768L50.6262 65.3865C50.7522 65.3865 50.8341 65.3768 50.8693 65.3609L50.9644 65.2446Z" fill="#A7A9AC"/>
<path d="M30.3687 65.2131C30.381 65.2131 30.4594 65.2131 30.6056 65.2131H30.9368L30.95 65.377L30.9465 65.4862C30.9439 65.5179 30.9421 65.6421 30.9395 65.8588L30.9324 66.3864L30.9368 66.7176L30.9122 69.0737V69.2728L30.9606 69.4234C30.9932 69.4542 31.0804 69.4789 31.2222 69.4991C31.2786 69.5071 31.3895 69.5256 31.5569 69.5555L31.5648 69.6216C31.5648 69.6462 31.5622 69.7017 31.5569 69.7854H31.408C31.3068 69.7854 31.1561 69.7801 30.9624 69.7695C30.8435 69.7616 30.7624 69.7563 30.7184 69.7563C30.6629 69.7563 30.4577 69.7643 30.1009 69.7784L30.0049 69.7819H29.9406L29.8402 69.7739L29.7468 69.7819L29.5716 69.7739L29.4298 69.7854L29.4227 69.6683L29.4298 69.5555C29.5231 69.5291 29.6306 69.5035 29.7539 69.4789C29.9239 69.4436 30.0278 69.4093 30.0657 69.3749L30.1238 69.2419L30.1203 69.0032L30.1238 68.7452V68.0775C30.1238 68.0599 30.1274 67.9903 30.1326 67.8688L30.1432 67.7005C30.1432 67.6715 30.1397 67.5772 30.1326 67.4187L30.1432 67.2196C30.1362 67.069 30.1326 66.9783 30.1326 66.951L30.1362 66.8462L30.1432 66.7581L30.1326 66.522L30.1397 66.4128C30.1423 66.3626 30.1432 66.2992 30.1432 66.2173C30.1432 66.138 30.1432 66.042 30.1432 65.9275C29.9785 66.0499 29.7909 66.1741 29.5795 66.2974C29.5566 66.3106 29.4527 66.3591 29.2677 66.4436C29.1937 66.3318 29.1453 66.249 29.125 66.1935C29.369 66.0649 29.5363 65.9706 29.6227 65.9099C29.7689 65.8068 29.9274 65.6791 30.0948 65.5249C30.1679 65.4571 30.2586 65.3523 30.3687 65.2131Z" fill="#A7A9AC"/>
<path d="M32.3787 69.9042L32.3232 69.7756L32.3576 69.6823C32.369 69.6655 32.4369 69.6329 32.5593 69.588C32.7997 69.4955 33.0085 69.3837 33.1811 69.2516C33.3546 69.1212 33.5009 68.9627 33.6189 68.7759C33.7369 68.5892 33.8215 68.3866 33.8699 68.1708C33.9201 67.9541 33.9483 67.7824 33.9527 67.6573C33.9545 67.615 33.9642 67.5155 33.9835 67.3552C33.9968 67.2363 34.0047 67.0936 34.0047 66.9271C34.0047 66.3352 33.9325 65.9309 33.788 65.7098C33.6805 65.546 33.5449 65.4623 33.3846 65.4623C33.2366 65.4623 33.1107 65.5346 33.0067 65.6755C32.8649 65.8675 32.7945 66.1423 32.7945 66.4999C32.7945 66.7192 32.8077 66.9262 32.8359 67.1191C32.8544 67.2477 32.8966 67.3631 32.9609 67.4715L33.079 67.6071C33.1697 67.6503 33.2595 67.6723 33.352 67.6723L33.5326 67.645L33.5854 67.6335L33.662 67.674L33.6955 67.7912C33.6955 67.8801 33.662 67.9374 33.5933 67.9629C33.4445 68.0184 33.2833 68.0466 33.1107 68.0466C33.0014 68.0466 32.9336 68.0431 32.9054 68.0334C32.6879 67.9541 32.5522 67.8951 32.4985 67.8546C32.3646 67.7577 32.2633 67.6599 32.192 67.5578C32.1215 67.4565 32.0678 67.3411 32.0334 67.2107C31.9894 67.039 31.9683 66.8655 31.9683 66.6911C31.9683 66.4145 32.029 66.1591 32.1523 65.9212C32.2774 65.6869 32.4474 65.5099 32.6641 65.3901C32.8808 65.273 33.1115 65.2131 33.3599 65.2131C33.8003 65.2131 34.1659 65.3813 34.4592 65.7178C34.7507 66.0534 34.8987 66.5404 34.8987 67.1755C34.8987 67.4882 34.8379 67.8238 34.7173 68.1779C34.6864 68.2659 34.6027 68.4324 34.4627 68.6738C34.3244 68.916 34.1377 69.1362 33.9007 69.3344C33.6638 69.5334 33.4154 69.6787 33.1538 69.7712C32.8913 69.8646 32.6773 69.9104 32.5108 69.9104L32.3787 69.9042Z" fill="#A7A9AC"/>
<path d="M58.9602 15.5321H21.7876L40.3902 43.8667L58.9602 15.5321Z" fill="#0054A4"/>
<path d="M55.6133 41.7291L55.6344 41.7344H55.6291L55.6133 41.7291Z" fill="white"/>
<path d="M41.1322 48.3281L41.127 48.3273L41.0371 48.4136L41.1322 48.3281Z" fill="white"/>
<path d="M42.168 54.2436L42.1909 54.2612L42.1688 54.2436H42.168Z" fill="white"/>
<path d="M41.1321 48.3279L41.037 48.4133L41.1268 48.327L41.1321 48.3279ZM55.6134 41.7289L55.6292 41.7342H55.6345L55.6134 41.7289ZM64.9949 52.7231L64.9816 52.7046L64.964 52.6861C64.8011 52.4976 64.6364 52.2228 64.6152 52.1206L64.617 52.066L64.624 51.6617C64.624 50.6858 64.4998 50.0472 64.233 49.6579L64.2717 49.7205C64.0744 49.3364 63.9449 48.9815 63.9414 48.8705L63.9449 48.7119C63.9449 48.6829 63.9044 45.6212 63.0351 44.3819L63.0069 44.3405L62.9699 44.3035C62.9611 44.2921 62.7224 44.0375 62.7224 43.5143C62.7224 43.4976 62.6079 41.6805 62.1173 41.0894L62.1067 41.078L62.0952 41.0674C62.0212 40.9697 61.8037 40.5134 61.7852 39.9594V39.9374L61.7579 39.6714C61.6707 38.8126 61.4672 36.7938 60.3327 34.575C59.9575 33.8034 59.3295 32.3492 59.2643 31.7776L59.2617 31.7626L59.2379 31.6137C58.9561 29.7641 58.2928 28.1918 57.2667 26.9455L57.2517 26.9279C57.1795 26.8468 55.4628 24.9038 53.6598 22.6251C52.8864 21.6474 51.7493 21.0045 50.2775 20.7023C49.8036 17.9296 48.0543 16.0385 48.0341 16.0191L48.064 16.0517C46.6767 14.35 44.7478 14.0434 43.6838 14.7287L43.712 14.7102L43.6776 14.7252C42.6206 14.0778 41.0713 13.8056 39.6867 14.0364L39.6189 14.047L39.6585 14.0417L39.3405 14.1703V14.1738L39.2657 14.2126L39.2428 14.2073L39.0895 14.1738C37.3622 13.7651 35.9776 13.7801 34.9849 14.2223L34.9365 14.2443L34.8898 14.2751L34.6811 14.3834C33.9218 13.8611 32.2271 13.3124 28.9347 14.9014C26.0685 16.2842 25.8254 16.8277 25.8712 18.9892L25.8809 19.7537C25.8809 20.2346 25.8809 21.7223 26.9353 21.9328C27.2788 22.0033 27.5888 21.8958 27.8495 21.7258C27.7438 22.5784 27.6901 23.5059 27.6804 24.156C27.2647 24.8553 26.9952 25.3856 26.8789 25.737C25.5401 26.9587 24.9966 28.6296 24.8944 29.4531L24.8927 29.4716C24.7958 30.4846 24.1246 31.0122 23.841 31.1927L23.8278 31.1998L23.8154 31.2086C21.9323 32.5307 21.9103 34.9194 21.9103 35.0207C21.9076 35.1009 21.809 35.3299 21.7121 35.4814L21.6954 35.5087L21.6804 35.5395C21.4875 35.9235 21.3589 36.659 21.3589 37.3733C21.3589 37.849 21.4179 38.5404 21.7006 39.1217C21.846 39.4203 21.9191 39.7726 21.9191 40.1681C21.9191 40.6719 21.7984 41.0824 21.7737 41.1599L21.787 41.1229C21.5025 41.8628 21.3386 42.9021 21.3386 43.975C21.3386 44.9386 21.476 46.7107 22.3921 47.7642L22.4097 47.7827C22.6493 48.1139 22.9778 50.1767 22.9778 50.6444C22.9778 51.1967 23.08 52.2078 23.1434 52.7663C22.6052 53.3582 22.2379 53.8365 22.0503 54.1905C21.1184 54.6318 19.7981 55.4034 19.4837 56.3371C19.0292 56.7687 18.0981 57.7684 18.0981 58.7311C18.0981 58.9108 18.1307 59.0852 18.1924 59.2455L18.3263 59.5934L18.6883 59.6788C18.7218 59.6868 18.9182 59.7229 19.1983 59.7141L19.2044 59.7299L19.4299 60.1809L19.932 60.1113C20.0474 60.0972 20.5424 60.0206 20.9722 59.8585C21.6337 60.1448 22.4062 60.1677 23.0104 59.9387C23.1134 60.0135 23.2227 60.0787 23.3477 60.1272L23.7423 60.2787C23.7423 60.2787 24.1995 59.8832 24.3651 59.7379C24.7835 59.8805 25.2644 59.9131 25.77 59.818C26.1839 59.7396 26.7344 59.5388 27.1141 59.2226C27.3686 59.1988 27.9323 59.1486 27.9323 59.1486L28.0556 59.0834C28.9241 58.6324 29.1813 57.394 29.2544 56.8426C29.3821 56.6163 29.4464 56.3459 29.4464 56.0305C29.4464 55.4659 29.2447 54.9102 29.2042 54.8045L29.1963 54.741C29.1963 54.5658 29.3029 54.3191 29.3548 54.2275C29.4914 53.9994 29.5645 53.7131 29.5645 53.3872C29.5645 52.7848 29.3187 52.1999 29.2306 52.0114C29.1804 51.8564 29.1047 51.4953 29.1047 50.7202C29.1047 49.4492 29.3029 47.9086 29.3645 47.4603C29.6191 47.019 29.7847 46.3153 29.8727 45.8652C30.0304 45.7762 30.3686 45.6265 30.8786 45.5481C31.5172 45.4494 32.7266 45.4362 33.6646 46.4474C34.6502 47.7219 37.1306 48.5613 37.7515 48.5965C39.0824 48.6714 40.1817 48.9638 40.4794 49.3241L40.6265 49.5038L40.8502 49.5584C40.9418 49.5822 41.4245 49.6808 41.8966 49.3276L41.9583 49.2801L42.0094 49.2202L42.0331 49.2078C41.9389 49.5452 41.8949 49.7037 41.8438 49.8825C39.8628 50.67 39.1476 52.2625 39.1476 53.4339C39.1476 53.6453 39.1679 53.8417 39.2146 54.0205L39.2454 54.1527L39.3344 54.2751L39.3449 54.2883C39.4682 54.4442 40.128 55.229 40.9383 55.229H41.2298L41.2871 55.1726L41.3972 55.244L41.4131 55.2554C42.0006 55.6958 43.5226 55.6359 44.3461 55.4941C44.4862 55.4704 44.6077 55.4369 44.7363 55.4052C44.5373 55.9927 44.4369 56.6092 44.3999 56.8805C44.3356 57.261 43.8344 57.7146 43.6019 57.8749L43.5587 57.9031L43.5217 57.941C42.9703 58.4704 42.6013 59.4445 42.6013 60.3623C42.6013 60.7067 42.6532 61.0291 42.7545 61.3198C42.9421 61.85 43.475 62.7458 44.9239 62.9123L44.9178 62.9114L44.953 62.9176C45.3872 62.9986 45.7308 62.7026 45.9615 62.4208C46.3896 62.4842 47.1718 62.5987 47.2352 62.6084C47.4237 62.7696 47.6218 62.833 47.7707 62.8506C48.0922 62.8894 48.3635 62.774 48.5722 62.641C49.136 62.6947 50.0238 62.6339 50.8095 62.5538C51.1142 62.7203 51.4965 62.6841 51.9431 62.4516C52.6195 62.3776 53.2934 61.9821 53.4316 61.8967L53.4537 61.8826L53.6422 61.7655L53.7232 61.5329C53.821 61.2581 53.8712 60.9472 53.8712 60.6046C53.8712 59.8268 53.6184 59.0341 53.3515 58.5831C53.2934 58.1559 53.111 57.1342 52.6222 56.4375C52.601 56.389 52.5191 56.1988 52.5191 55.9231C52.5315 55.695 52.7798 54.2548 53.0811 53.5916L53.0934 53.5634L53.1031 53.5335C53.1295 53.4507 53.7813 51.5067 53.791 50.4189C53.8289 49.7513 53.9178 48.5217 54.0068 48.0196C54.0966 47.7712 54.2358 47.2692 54.2587 46.6834V46.6438C54.2552 46.5249 54.2543 46.3937 54.2543 46.2527C54.2543 45.5102 54.2975 44.5246 54.4331 44.0666C54.4824 43.9406 54.6806 43.3787 54.796 42.674C54.9493 42.7991 55.1096 42.8977 55.276 42.9453C55.3967 42.9797 55.7085 43.1144 55.8221 43.3522C56.3533 44.4612 57.0791 45.8414 57.6754 46.4844C57.7238 46.9327 57.8145 47.6488 57.9528 48.0196L57.9704 48.0601L57.9933 48.1042C58.2012 48.4953 58.3606 48.8916 58.38 49.0704L58.3826 49.0924C58.3923 49.155 58.4778 49.7178 58.661 50.3758C58.7262 50.6074 58.7861 50.8532 58.7861 51.0963C58.7861 51.4002 58.69 51.6626 58.4778 51.9251C57.4596 53.2313 57.3072 54.8186 57.3072 55.6483C57.3072 56.0649 57.3433 56.323 57.3468 56.3353L57.3926 56.6753L57.6912 56.847C58.6909 57.4213 59.5462 57.3209 60.0615 57.1606C60.7379 57.631 61.6363 57.5764 62.1454 57.4927C62.3921 57.6715 62.6819 57.7728 62.9954 57.7745C63.3627 57.7763 63.723 57.6424 63.9907 57.4222C64.6601 57.283 65.1648 56.9008 65.4423 56.2789C65.5973 55.9301 65.6748 55.525 65.6748 55.0749C65.6748 54.1254 65.3313 53.1732 64.9949 52.7231Z" fill="white"/>
<path d="M42.5747 23.6355C41.3751 22.6887 39.558 23.1317 38.1293 22.8357L37.3701 23.0093C36.4329 23.8293 34.8562 24.0891 34.3727 25.3681C34.1217 26.0357 34.0811 27.0856 34.2282 27.8141C34.4502 28.9071 34.8237 29.012 35.4675 28.7812L35.39 28.9309V29.204C36.5368 29.4709 37.3022 30.6767 38.5019 30.8414C39.2242 30.9409 40.2838 30.8828 40.9699 30.6643C41.8278 30.3922 43.0345 29.5404 42.5131 28.5627C42.8901 28.6182 43.2133 28.4923 43.423 28.0008C43.9171 26.8425 43.5454 24.3974 42.5747 23.6355Z" fill="#A7A9AC"/>
<path d="M32.2303 31.5144C33.0116 31.5752 32.8116 30.5262 32.8116 30.1087C32.8116 28.909 32.905 27.8018 33.2723 26.6365C33.5401 25.7848 33.9822 24.8326 34.5909 24.0989C34.6895 24.0461 34.7706 23.9236 34.8489 23.8127C34.9793 23.677 35.1194 23.5502 35.2647 23.4383L35.3748 23.382C35.6699 23.2357 35.979 23.1274 36.2741 23.0006C36.8898 22.7407 37.1593 22.1418 37.7345 21.8502C37.9203 21.756 38.1062 21.6556 38.3114 21.5807C38.5157 21.5067 38.7315 21.5208 38.9253 21.4592L39.0363 21.4028C39.2785 21.3913 39.5137 21.386 39.7242 21.3772C40.1928 21.3561 40.6209 21.3121 41.0727 21.4266C41.7404 21.5957 42.0918 21.9145 42.667 22.2343C42.6819 22.0651 42.6265 21.9304 42.5322 21.8124C42.9189 21.7199 43.1065 21.9982 43.5636 22.1488C43.4817 22.0378 43.4236 21.9075 43.406 21.7604C43.3778 21.5279 43.4527 21.3077 43.5909 21.1438C43.7442 21.5842 43.9177 22.2255 44.3352 22.0757C44.6294 21.9691 44.5959 21.3041 44.5202 20.9448C44.7562 21.0584 44.9333 21.2874 44.9694 21.5719C45.0037 21.8626 44.8778 22.133 44.6655 22.3003C44.9659 22.258 45.1764 22.0748 45.3094 21.6027C45.8678 21.5402 45.719 22.4677 46.4201 22.1206C46.5082 21.7181 46.6262 21.3517 46.3664 21.0328L45.8898 20.7801C45.7119 20.6629 45.8123 20.4709 45.5243 20.4674C45.0372 20.2648 44.3352 20.2296 43.842 20.3018C43.5583 20.3423 43.3514 20.4788 43.1338 20.603L43.1805 20.5933L43.1285 20.6048C43.0422 20.655 42.9524 20.7025 42.8546 20.7422L42.6458 20.7994C42.3842 20.9439 42.1174 21.1385 41.8831 21.3059C41.6382 21.128 41.4303 20.9254 41.4338 20.6101C41.4374 20.0613 41.6488 19.495 41.8434 18.9524C42.2213 17.913 42.2327 16.9151 42.2283 15.8405C41.9861 16.849 41.4127 17.8126 41.1511 18.8335C40.9697 19.5372 40.908 20.3229 40.7759 21.0117C40.287 20.7889 39.7401 20.7871 39.164 20.8611C38.8901 20.8972 38.7403 20.9826 38.4849 20.8725C37.9168 20.6259 37.5328 19.8209 37.1937 19.3716C37.2104 19.8226 37.4931 20.433 37.5116 20.9562C37.3372 21.1491 37.2359 21.5146 37.0791 21.7031C36.6845 22.1673 35.9209 22.4553 35.3537 22.7302C34.6006 23.0957 33.7638 23.529 33.4088 24.2531C32.3228 25.4712 31.5997 27.0945 31.4561 28.6747C31.3962 29.3424 31.1804 31.4343 32.2303 31.5144ZM45.5886 51.1705C45.5886 51.1705 45.4582 51.8126 45.1394 51.8126C44.8179 51.8126 44.0454 52.231 43.9494 52.7136C43.8217 53.0343 43.9811 53.1937 44.1432 52.9374C44.1432 52.9374 44.5281 52.5842 44.7862 52.5842C45.0416 52.5842 45.7154 52.5207 45.8132 51.2339C45.7815 50.945 45.5886 51.1705 45.5886 51.1705ZM33.0451 19.0713C33.4264 18.7621 34.0888 18.416 34.5891 18.2486C35.6734 17.8866 36.7779 17.7228 37.3672 16.5927L37.1848 16.6834C35.979 16.7609 34.3733 17.6462 33.2934 18.2063C32.3527 18.6987 32.2215 19.0035 31.9203 19.8517C32.388 19.938 32.7104 19.3435 33.0451 19.0713ZM33.105 21.6027C33.2353 22.0748 33.4458 22.258 33.7479 22.3003C33.5348 22.133 33.4088 21.8626 33.4432 21.5719C33.4793 21.2874 33.6572 21.0584 33.8942 20.9448C33.8166 21.3041 33.7841 21.9691 34.08 22.0757C34.494 22.2255 34.6701 21.5842 34.8216 21.1438C34.9608 21.3077 35.0348 21.5279 35.0066 21.7604C34.9899 21.9075 34.93 22.0378 34.8498 22.1488C35.3915 21.9718 35.5536 21.6124 36.1147 21.9013C36.341 21.7569 36.4908 21.5499 36.5401 21.3129C36.3032 21.1447 36.0328 20.9465 35.7667 20.7994L35.5571 20.7422C35.4611 20.7025 35.3704 20.655 35.2841 20.6048L35.2339 20.5933L35.2797 20.603C35.0612 20.4788 34.8542 20.3423 34.5715 20.3018C34.08 20.2296 33.3762 20.2648 32.8892 20.4674C32.6003 20.4709 32.7024 20.6629 32.5219 20.7801L32.0453 21.0328C31.7873 21.3517 31.9044 21.7181 31.9925 22.1206C32.6954 22.4677 32.5439 21.5402 33.105 21.6027ZM47.0349 58.6556C47.0349 58.6556 46.7777 59.0748 46.9688 59.428C46.9688 59.428 47.2269 59.7495 47.2269 60.1978C47.2269 60.1978 47.418 60.5193 47.5158 60.3264C47.5158 60.3264 47.6444 60.0384 47.5158 59.3963C47.5158 59.3963 47.2912 58.689 47.7404 58.0469C47.9016 57.6277 47.418 57.8205 47.0349 58.6556ZM44.492 16.8235C44.8945 17.1185 46.2871 18.8071 46.6905 19.45C47.0921 20.0939 47.1749 19.8253 47.1987 19.7169C47.2269 19.6103 47.0921 19.1823 47.6277 19.45C48.165 19.7169 48.5393 19.9865 48.1112 18.9947C47.6823 18.0029 46.7971 16.6094 45.5631 16.2606C44.573 16.0457 43.9547 16.4201 44.492 16.8235ZM63.2611 56.3628C62.9493 56.8314 62.5855 56.701 62.4041 55.8722C62.2755 56.0008 62.3274 56.3117 62.3274 56.3117C62.3274 56.3117 61.5479 56.5724 61.4175 56.3892C61.3154 56.2078 61.2097 56.2087 61.1595 56.4685C60.9507 56.4165 60.5596 56.339 60.587 55.6115C60.587 55.6115 60.3007 55.534 59.9123 56.0008C59.3662 56.1312 59.3943 55.2997 59.4965 54.7818C59.4965 54.7818 59.0279 54.7025 58.9513 55.8458C58.7443 55.896 58.5893 55.7921 58.5893 55.7921C58.5893 55.7921 58.4845 53.9239 59.5247 52.8863C60.742 51.8734 60.2241 48.8628 59.8083 48.2647C59.3943 47.6684 58.8209 45.6434 58.8209 45.6434C58.7443 45.6434 57.5235 44.2148 57.4205 43.5401C57.3685 43.3331 56.6929 41.8278 56.2772 41.671C55.8632 41.5151 54.3306 40.452 54.3561 39.4637C55.0837 38.6859 54.4601 36.9199 54.4601 36.9199C56.3027 35.6489 56.7458 33.2593 56.0429 31.5215C55.8632 31.1313 55.5258 30.7948 55.5258 30.2487C55.4977 28.9504 55.0326 27.9648 55.0326 27.9648C55.0326 27.9648 54.9269 30.1712 55.0837 30.431C56.7202 32.5344 55.5778 35.2596 53.9924 36.4267C53.9924 36.4267 52.9037 34.7408 51.9427 34.2476C50.9818 33.7543 50.8541 32.8982 50.6973 32.0403C50.5422 31.1841 50.308 30.2232 49.5584 29.8726C49.5584 29.8726 50.2551 30.9454 50.2023 31.6686C50.2023 31.8562 49.9336 33.4372 50.7924 34.2669C54.4627 37.5374 53.899 38.9044 53.4181 39.6275C53.256 39.8953 52.9891 40.806 53.204 41.3953C53.4181 41.9846 53.4991 42.7887 53.2296 43.4317C53.2296 43.4317 52.8834 44.2632 52.8552 45.174C52.8552 45.174 52.9891 46.8898 52.6676 47.6657C52.6676 47.6657 52.3717 48.5774 52.3999 49.5427C52.3999 49.5427 52.3461 52.1675 51.5693 53.8834C51.5693 53.8834 50.766 56.7239 51.143 57.2057C51.7824 58.0099 51.9172 59.1884 51.9172 59.1884C52.2924 59.4025 52.5355 60.3678 52.3188 60.714C52.1057 61.0646 51.542 60.9034 51.542 60.9034C51.5129 61.1174 51.1139 61.3878 51.0875 61.1174C51.061 60.8514 50.766 60.4489 50.4965 60.9298C50.2296 61.4116 49.103 61.5481 48.6203 61.2786C48.6203 61.2786 48.3526 61.0646 48.1676 61.3332C47.9782 61.5992 47.8443 61.3878 47.8443 61.3878C47.8972 60.5008 47.6823 60.581 47.6823 60.581C47.3344 61.3332 46.2069 61.3596 45.8088 60.9571C45.6177 60.7686 45.1641 60.7695 45.2169 61.4935C44.307 61.172 44.7087 59.724 45.4054 59.2149C45.9154 58.8669 45.8617 58.2231 45.8617 58.2231L45.6194 58.1967C45.6194 58.5455 45.3781 58.652 45.3781 58.652C44.8153 58.9198 44.226 59.4025 44.2533 61.172C43.8235 61.0381 43.7442 59.1074 44.9236 58.4926C45.2169 58.3587 46.6914 55.4908 46.6914 53.1866C46.6914 53.1866 46.7187 49.1939 47.2005 47.9344C47.2005 47.9344 47.7915 46.2723 47.0411 46.0592L45.9489 46.3463C45.9489 46.3463 44.9483 46.489 44.7791 46.8034C44.7791 46.8034 44.4647 47.745 43.3778 47.7168C42.2935 47.6895 41.1793 48.2312 41.1793 48.2312C41.1793 48.2312 40.5522 47.546 39.1526 47.4887C37.9829 47.3169 36.1552 46.9179 34.1549 45.2048C33.7277 44.8613 33.0134 43.777 32.0128 43.777C27.5303 43.5189 25.1892 42.8918 24.732 40.0644C24.732 44.0624 26.2452 44.7177 26.2452 44.7177C26.1325 45.8619 26.3589 49.5736 26.9878 50.1734C25.789 42.8918 29.358 45.2902 28.1874 47.0897C27.9875 47.4332 27.8166 50.7723 28.1575 52.4291C28.5292 52.6582 28.4728 53.199 28.4728 53.199C28.4728 53.199 27.7594 54.1714 28.1575 54.9694C28.5591 55.7692 28.3301 57.4251 27.5876 58.0267C27.5594 56.9697 27.0741 57.3696 27.0741 57.3696C26.188 58.9964 24.6748 58.9674 24.2766 58.4248L23.5614 59.0255C23.2761 58.8819 23.646 57.7976 23.646 57.7976C23.646 57.7976 23.3342 57.8258 23.1897 58.312C23.047 58.7965 22.7907 58.8819 22.7907 58.8819C22.2182 59.2527 21.3339 59.0255 21.0203 58.6247C20.4205 59.1391 20.2205 58.9674 20.2205 58.9674C20.1924 58.682 20.4487 58.2539 20.4487 58.2539L19.5344 58.7683L19.2217 58.7965C19.1363 57.6268 20.535 57.1115 20.535 57.1115C20.8204 55.94 23.0206 55.5128 23.0206 55.5128C23.1043 55.2548 24.503 53.428 24.503 53.428V53.0853C24.503 53.0853 24.562 49.3164 23.7737 47.819C22.6216 46.2512 22.7176 42.4135 23.4205 41.0377C23.5482 40.6862 23.6768 40.2696 23.1025 38.7353C22.5247 36.9129 23.1977 33.5535 24.7629 32.2754C25.2438 31.9557 26.1396 30.9648 26.1396 29.7493C26.1396 28.7399 27.5048 27.0725 27.9699 26.5335C27.8659 26.877 27.8712 27.4011 27.8448 27.7032C27.7435 28.8544 28.1346 29.8039 28.3178 30.8891C28.4129 31.4545 28.464 31.6941 28.9247 32.0068C29.3448 32.2887 29.7843 32.5784 30.1587 32.9308C30.5013 33.2514 30.6537 33.5218 31.1108 33.6363C31.4411 33.7182 31.6534 33.8239 32.0022 33.8424L32.0489 33.845C32.7791 34.0952 33.5172 34.3057 34.0853 33.9948C34.4861 33.7781 34.7644 33.3324 34.9353 32.6313L35.1423 31.7214C35.5122 30.0303 35.78 28.8104 37.5971 28.2185L38.2947 27.9745C39.5877 27.505 40.8085 27.0611 42.0407 28.2546C42.8105 29.0015 42.7683 30.0135 42.7225 31.0855L42.7049 31.9354C42.7198 33.2496 42.9797 33.6257 43.6438 34.0811C43.3197 34.3154 43.0325 34.636 42.8555 35.1037C42.3754 36.3906 40.1496 36.6046 39.9611 35.2922H39.955C39.7586 34.2273 39.3957 32.6471 39.7365 31.6756C39.1887 32.4261 39.5137 33.8591 39.0636 34.6413C38.802 35.094 38.1247 35.4023 37.6402 35.7176C37.0078 35.4666 36.9867 34.8879 36.9867 34.8879C36.1693 34.5787 35.1423 35.2702 34.2791 34.991C34.0069 34.9038 33.6898 34.5004 33.3806 34.5928C32.9605 34.7197 33.415 35.1865 33.6079 35.3574C34.0368 35.7405 34.5556 35.9986 35.1387 35.8947C35.4338 35.8427 35.6108 35.7696 35.9262 35.7546L35.9596 35.7529C36.282 36.4751 37.6191 36.6839 38.595 36.631C40.0422 37.7831 41.7043 36.9798 42.1869 36.4425C42.6687 35.9079 43.7416 34.8879 43.9547 34.9161C45.6177 34.9161 46.2069 32.9598 46.583 31.4316C46.9591 29.9034 47.1749 29.4208 48.0029 27.4909C48.6987 25.8764 47.9668 22.7398 47.7096 21.7613L48.6203 21.7727C49.273 22.709 49.7522 22.9107 49.6914 21.8361V21.7947C51.7992 21.9515 53.3547 24.2302 53.3547 24.2302C53.3547 24.2302 57.771 28.8447 57.8265 31.1524C57.8265 31.1524 58.0494 33.0136 58.7152 34.0688C58.7152 34.0688 60.3782 37.2326 60.3782 39.4637C60.3782 39.4637 60.3782 40.71 60.8195 41.3865C60.8195 41.3865 61.34 41.8542 61.3154 42.7878C61.3154 42.7878 61.2097 44.1372 61.6254 44.7089C61.6254 44.7089 62.6392 46.0072 62.6119 47.5125C62.6119 47.5125 62.456 49.2001 62.7942 49.6159C62.7942 49.6159 63.4161 50.472 63.4161 51.5889C63.4161 51.5889 63.313 52.5225 63.7534 52.9374C64.6114 53.7935 64.9742 56.3892 63.2611 56.3628ZM44.8443 54.0727C44.8443 54.0727 43.3267 54.2137 43.1012 54.0445C42.8775 53.8772 42.5393 53.6226 42.5393 54.2137L42.2583 54.2418C42.1728 54.1027 42.4274 52.6678 43.1576 52.3032C43.1576 52.3032 44.3934 51.6576 43.8323 51.4321C43.8323 51.4321 42.2028 51.7685 41.8073 53.8772L41.0762 53.8472C41.0225 53.5663 41.5281 52.2477 42.9048 51.3748L42.7374 51.2638C42.482 51.2638 41.2181 51.8813 40.6288 53.6226C39.6722 52.7524 41.1071 51.4884 41.7518 51.2638C42.0874 51.1511 42.933 50.7856 43.1285 50.0263C43.3267 49.2688 43.6922 48.0885 43.6922 48.0885C43.6922 48.0885 44.8443 48.0304 45.068 47.8349C45.2935 47.6376 45.7991 47.0201 46.5575 47.0474C46.3611 47.0474 45.9955 53.1179 45.9955 53.1179C45.9955 53.1179 45.6291 53.9899 44.8443 54.0727ZM48.261 21.2143C47.9826 21.2169 47.7545 21.2301 47.5986 21.2434C47.5836 20.8056 47.8426 20.4172 48.0029 20.7633C48.0901 20.9219 48.1746 21.0716 48.261 21.2143ZM28.5547 26.6709L28.5935 26.5062L28.5697 26.4797C28.6992 25.7372 28.9114 24.3755 28.8885 23.5449C28.6666 17.3088 36.3093 14.558 38.7729 15.3252C38.7729 15.3252 39.3472 15.5172 39.6678 15.4212C40.0193 15.2935 42.1614 15.2609 43.0581 15.8379C43.0581 15.8379 43.568 16.4121 44.0798 16.1241C47.0076 14.7554 48.8009 19.4677 49.0792 21.1412C49.2572 22.0105 49.0193 21.9137 48.6952 21.2196C48.0945 20.1864 48.1993 20.1564 47.3432 20.2181C46.8622 20.2181 46.7337 20.1547 47.5986 23.7052C48.2064 26.9351 47.5986 27.8934 47.566 27.1263C47.566 26.8708 47.5986 25.6553 47.1512 25.687C47.2181 27.3015 47.0992 28.3065 46.9618 28.8033L46.9759 28.7954L46.9591 28.8139C46.8482 29.2041 46.7266 29.2737 46.6782 29.0755L46.6694 29.094C46.6227 28.5303 46.1285 27.1368 45.8537 28.0855C45.7304 28.5056 46.0598 29.3071 46.317 29.8189L46.2977 29.8532C46.3073 31.2942 46.0325 32.759 45.2433 33.3606C44.9914 33.4813 44.5854 33.5852 44.1705 33.7781C43.8763 32.9739 43.8781 32.0262 43.879 31.1031C43.8834 29.7061 43.886 28.2616 42.8555 27.335C42.4609 26.9792 41.9615 26.8867 41.4788 26.7977C40.8041 26.6718 40.1681 26.5546 39.9162 25.7064C39.7092 25.0026 40.0571 24.3288 40.3681 24.076C40.4852 23.9818 40.5909 23.9492 40.6587 23.9862C40.7063 24.0108 40.8102 24.1148 40.7697 24.534L40.7636 24.5957L40.8226 24.6116C41.2233 24.7217 41.4048 24.5649 41.4867 24.4143C41.7448 23.9413 41.3493 22.8711 40.982 22.5417C40.465 22.0766 39.7938 22.022 38.9403 22.3699C38.4347 22.1929 38.0216 22.1946 37.7468 22.3875C37.5055 22.5566 37.3874 22.8544 37.3936 23.2763C37.4033 23.781 37.8824 24.3975 38.2629 24.3966C38.3915 24.3966 38.5994 24.3191 38.6311 23.8532C38.7113 23.8743 38.78 23.9245 38.8346 24.0276C38.9394 24.2266 38.9817 24.5385 38.9817 24.8776C38.9817 25.5294 38.824 26.2868 38.6347 26.5564C38.2735 27.0708 37.6825 27.2179 37.1109 27.3597C36.615 27.483 36.1015 27.6107 35.735 27.9771C35.1845 28.5267 35.0101 29.3459 34.841 30.1377C34.73 30.66 34.6243 31.1542 34.4191 31.5567C33.7444 32.885 33.1102 33.2329 32.0594 33.3245C31.9581 33.3016 31.8542 33.2681 31.7468 33.2179C31.1205 32.9281 30.5612 32.3732 29.9631 31.9892C29.809 31.8896 29.6522 31.8209 29.5086 31.7337C29.5351 29.4745 29.7412 27.0937 30.9267 25.1902C29.8433 26.3036 29.7139 27.697 29.247 29.1142C29.092 29.5863 28.9203 29.9792 28.811 30.3227C28.7811 30.1782 28.7538 30.0435 28.7256 29.929C28.4569 28.8465 28.5486 27.7904 28.5547 26.6709ZM28.1416 18.6996C27.2317 21.4865 27.0961 20.0666 27.1498 18.726C27.2044 17.3863 27.3374 16.9574 28.2209 16.5284C29.107 16.0995 31.3046 15.1878 32.3765 15.0539C33.4494 14.9209 33.8246 15.5102 32.8874 15.5102C32.8874 15.5102 29.0541 15.9127 28.1416 18.6996ZM64.4299 53.1452C64.4299 53.1452 63.9102 52.5481 63.9102 52.1332C63.9102 51.9755 63.9869 50.5486 63.6513 50.0563C63.6513 50.0563 63.2091 49.2257 63.2382 48.8355C63.2611 48.447 63.1307 45.7474 62.456 44.7855C62.456 44.7855 62.0165 44.3707 62.0165 43.5145C62.0165 43.2556 61.8342 41.8542 61.5743 41.5406C61.4175 41.3865 61.1057 40.7365 61.0811 39.9834C61.0027 39.3351 60.8979 37.2326 59.7053 34.895C59.7053 34.895 58.6686 32.7678 58.562 31.8579C58.5109 31.6254 58.303 29.3151 56.7202 27.394C56.7202 27.394 54.963 25.406 53.1054 23.0622C52.2087 21.9286 50.8347 21.4724 49.6544 21.3033C49.354 18.4547 47.5202 16.5029 47.5202 16.5029C46.4474 15.1878 44.8945 14.7862 44.0622 15.3226C44.0622 15.3226 43.6614 15.5639 43.3936 15.3763C42.5366 14.8135 41.0886 14.5184 39.8017 14.7324C39.6951 14.7598 39.3463 15.0539 39.0777 14.8936C38.8901 14.8663 36.7189 14.2233 35.2717 14.8663C35.2717 14.8663 34.6023 15.3226 34.3337 15.0011C33.7981 14.5994 32.2973 14.0622 29.2409 15.5375C26.1845 17.0102 26.5879 17.2524 26.5879 19.7451C26.5879 22.2369 27.7928 20.9518 27.9267 20.6294C28.2764 19.9327 29.0004 19.665 28.7591 20.603C28.5168 21.5411 28.3821 23.3362 28.3821 24.3552C28.3821 24.3552 27.5066 25.8033 27.5066 26.1116C26.1572 27.2364 25.6789 28.865 25.5935 29.5405C25.4834 30.7208 24.7505 31.451 24.2176 31.7884C22.6154 32.9131 22.6154 35.02 22.6154 35.02C22.6154 35.3856 22.3072 35.863 22.3072 35.863C22.1099 36.2567 21.8571 37.8298 22.3354 38.8128C22.8127 39.7975 22.5881 40.9214 22.4481 41.3706C21.8844 42.8319 21.8016 46.0072 22.9255 47.3011C23.3756 47.7785 23.683 50.2509 23.683 50.6446C23.683 51.3466 23.8803 53.0052 23.8803 53.0052C23.8803 53.0052 22.6155 54.3537 22.5881 54.7201C22.5881 54.7201 20.1712 55.7877 20.1148 56.7143C20.1148 56.7143 18.5135 58.12 18.8509 58.992C18.8509 58.992 19.3283 59.1039 19.8911 58.8511C19.8911 58.8511 19.7784 59.3003 19.8339 59.413C19.8339 59.413 20.6486 59.3003 20.986 59.0748C21.6888 59.524 22.7837 59.4976 23.1774 59.0193C23.1774 59.0193 23.2329 59.3276 23.6011 59.4677L24.2458 58.9075C25.0888 59.4976 26.5218 58.963 26.8019 58.5419L27.7303 58.4574C28.4332 58.0918 28.5732 56.6024 28.5732 56.6024C28.9669 56.1532 28.5441 55.0557 28.5441 55.0557C28.3486 54.551 28.7414 53.8772 28.7414 53.8772C29.0797 53.3144 28.5732 52.2741 28.5732 52.2741C28.124 50.982 28.6851 47.2157 28.6851 47.2157C28.9942 46.8501 29.2197 45.5025 29.2197 45.5025C29.4161 45.0806 32.3105 43.9285 34.1936 45.9799C35.0093 47.0765 37.2853 47.8639 37.7908 47.8904C38.2955 47.9185 40.3487 48.0603 41.0225 48.8733C41.0225 48.8733 41.2471 48.9306 41.4717 48.7615C41.81 48.3404 43.0158 48.3123 43.0158 48.3123L42.4274 50.4191C40.0677 51.1775 39.7013 53.0616 39.8986 53.8472C39.8986 53.8472 40.4324 54.5228 40.938 54.5228C41.2471 54.2137 41.8373 54.691 41.8373 54.691C42.2873 55.0275 45.1826 55.0284 45.8555 54.0172C45.8555 54.0172 45.8837 54.551 45.7991 54.8593C45.3217 55.3376 45.0971 56.997 45.0971 56.997C44.9571 57.8117 44.0005 58.4574 44.0005 58.4574C43.1858 59.2439 42.6229 61.9973 45.068 62.2228C45.2548 62.2669 45.6362 61.66 45.6362 61.66L47.5819 61.9454C47.8681 62.4386 48.386 61.8934 48.386 61.8934C48.7762 62.0757 51.0875 61.815 51.0875 61.815C51.0875 62.1532 51.7357 61.7639 51.7357 61.7639C52.3074 61.7639 53.0587 61.2962 53.0587 61.2962C53.3432 60.4912 52.9803 59.2193 52.6676 58.8308C52.6676 58.8308 52.5399 57.507 52.022 56.8041C52.022 56.8041 51.8124 56.4676 51.8124 55.9224C51.8124 55.6881 52.0713 54.1053 52.436 53.3003C52.436 53.3003 53.086 51.3528 53.086 50.3936C53.086 50.3936 53.1882 48.5245 53.3194 47.8498C53.3194 47.8498 53.5273 47.3302 53.5511 46.6555C53.5511 46.6555 53.5018 44.7089 53.7598 43.8527C53.7598 43.8527 54.2777 42.5025 54.15 41.3865C54.1245 40.9707 54.4354 41.0738 54.4354 41.0738C54.4354 41.0738 55.0326 42.1396 55.4739 42.2673C55.4739 42.2673 56.1741 42.4505 56.4595 43.0468C56.7458 43.644 57.756 45.72 58.355 46.1622C58.355 46.1622 58.458 47.3548 58.6131 47.7723C58.6131 47.7723 59.0279 48.5245 59.0808 48.9922C59.0808 48.9922 59.16 49.5366 59.3406 50.1857C59.5247 50.8349 59.6533 51.5889 59.0279 52.3657C57.7323 54.0278 58.0441 56.2342 58.0441 56.2342C59.264 56.9353 60.1976 56.339 60.1976 56.339C60.7948 57.1688 62.3538 56.7275 62.3538 56.7275C62.7414 57.2727 63.4434 57.0648 63.6513 56.7803C65.5705 56.5989 64.9742 53.8719 64.4299 53.1452ZM50.1195 59.8781C50.2771 60.1661 50.5687 60.0058 50.5687 60.0058C50.6973 59.0422 50.056 58.689 50.0217 58.881C50.2454 59.2025 50.1195 59.8781 50.1195 59.8781ZM62.2296 55.3472L62.4551 55.3155C62.3917 55.1226 62.5203 53.7407 62.5203 53.7407C62.3274 53.6447 61.909 54.3194 62.2296 55.3472ZM60.3659 55.0575L60.6231 55.0901C60.6231 54.8646 60.816 53.709 61.2361 53.3232C61.4581 52.7136 60.2382 53.4192 60.3659 55.0575ZM43.0087 22.4712C44.0886 23.3097 44.4418 26.0226 44.499 27.6988C44.5175 28.1885 44.4057 31.318 45.1808 29.9704C45.5631 29.3018 45.0725 26.4771 44.9113 25.6949C44.6365 24.3729 43.9723 22.5866 43.0087 22.4712ZM42.792 24.9146C42.6996 24.9146 42.6265 24.9885 42.6265 25.0801C42.6265 25.1717 42.6996 25.2457 42.792 25.2457C42.8828 25.2457 42.9568 25.1717 42.9568 25.0801C42.9568 24.9885 42.8828 24.9146 42.792 24.9146ZM42.2909 24.697C42.2909 24.5499 42.172 24.431 42.0257 24.431C41.8787 24.431 41.7615 24.5499 41.7615 24.697C41.7615 24.8441 41.8787 24.9621 42.0257 24.9621C42.172 24.9621 42.2909 24.8441 42.2909 24.697ZM41.1282 25.1541C40.9811 25.1541 40.864 25.273 40.864 25.4193C40.864 25.5655 40.9811 25.6853 41.1282 25.6853C41.2744 25.6853 41.3933 25.5655 41.3933 25.4193C41.3933 25.273 41.2744 25.1541 41.1282 25.1541ZM42.268 25.3743C42.1209 25.3743 42.0037 25.4924 42.0037 25.6386C42.0037 25.7848 42.1209 25.9046 42.268 25.9046C42.4133 25.9046 42.5331 25.7848 42.5331 25.6386C42.5331 25.4924 42.4133 25.3743 42.268 25.3743ZM37.7072 25.9504C37.8551 25.9504 37.9723 25.8315 37.9723 25.6853C37.9723 25.5373 37.8551 25.4193 37.7072 25.4193C37.5618 25.4193 37.442 25.5373 37.442 25.6853C37.442 25.8315 37.5618 25.9504 37.7072 25.9504ZM36.6581 25.6289C36.511 25.6289 36.3921 25.7469 36.3921 25.8923C36.3921 26.0402 36.511 26.1583 36.6581 26.1583C36.8052 26.1583 36.9232 26.0402 36.9232 25.8923C36.9232 25.7469 36.8052 25.6289 36.6581 25.6289ZM35.7896 25.0616C35.6426 25.0616 35.5236 25.1788 35.5236 25.3259C35.5236 25.4721 35.6426 25.5901 35.7896 25.5901C35.935 25.5901 36.0539 25.4721 36.0539 25.3259C36.0539 25.1788 35.935 25.0616 35.7896 25.0616ZM36.8783 24.3737C36.6969 24.3737 36.5515 24.52 36.5515 24.7005C36.5515 24.8811 36.6969 25.0264 36.8783 25.0264C37.0571 25.0264 37.2033 24.8811 37.2033 24.7005C37.2033 24.52 37.0571 24.3737 36.8783 24.3737Z" fill="#231F20"/>
<path d="M48.979 27.1111C49.2362 26.4989 49.2362 25.7758 49.1878 25.1011C49.1508 24.592 48.8126 24.0133 49.083 23.5879C49.2362 23.3474 49.8695 22.8542 50.1716 22.7432C50.8472 22.4939 51.7095 23.4055 52.2363 23.9296C51.6003 24.6413 50.6684 24.9144 50.2553 25.8269C50.0201 26.3474 50.1003 27.0547 49.3278 27.0433L48.979 27.1111Z" fill="#A7A9AC"/>
<path d="M57.4013 33.2849C57.337 34.1287 57.9174 34.9293 58.3261 35.604C58.7595 36.3219 58.9656 37.1243 59.0484 37.9716C59.2192 39.7068 59.2527 41.2702 60.0199 42.9094C59.1549 42.0903 58.6485 40.3436 58.0716 39.2814C57.6602 38.5257 57.477 37.6845 57.3555 36.7975C57.2876 36.299 56.5249 33.5747 57.3396 33.2849" fill="#A7A9AC"/>
<path d="M26.9864 31.3936C26.8975 32.2824 26.3734 32.9289 25.8185 33.549C25.416 33.9999 25.4353 34.2087 25.283 34.8085C24.9703 36.0487 23.723 37.4553 24.8972 38.7255C25.1094 38.9536 25.4389 39.032 25.6837 39.217C26.1153 39.5437 26.1823 39.8661 26.3884 40.3382C27.2049 42.2126 29.5443 41.8928 31.3129 42.2478C30.6462 41.5625 29.5372 40.8412 29.0299 40.0194C29.7169 39.9084 30.4295 40.3453 31.0716 40.547C32.288 40.9292 33.4498 41.0931 34.7102 41.1988C33.2481 40.7698 31.5772 40.0247 30.256 39.2522C29.6095 38.8734 28.0637 38.2842 28.2442 37.3206C28.7216 37.3091 29.1717 37.7099 29.6544 37.8896C30.5995 38.2419 31.5807 38.212 32.5681 38.2357C30.5898 37.421 28.7824 35.5017 28.1658 33.4494C27.9624 32.7712 27.9606 31.5689 27.1168 31.3936" fill="#A7A9AC"/>
<path d="M50.384 35.8171C51.0041 36.7296 52.1324 37.8579 52.0989 39.1721C52.0637 40.5144 51.6991 41.8982 51.5872 43.2467C51.4701 44.6586 51.6409 46.666 51.0702 47.8894C50.887 46.1454 51.1671 44.1891 51.1186 42.4055C51.0843 41.1143 51.012 39.8001 50.857 38.5212C50.7425 37.5576 50.4598 36.6583 50.3232 35.7396" fill="#A7A9AC"/>
<path d="M47.3763 44.2658C47.6062 42.75 48.0307 41.3354 47.8008 39.7077C47.6449 38.5934 47.4732 37.3788 46.9147 36.3985C46.6593 35.9493 46.3369 35.6859 46.0013 35.3036C45.782 35.9008 45.6411 36.6909 45.361 37.2537C44.8748 38.235 43.4461 37.7664 42.6314 38.2147C43.0119 38.4138 43.425 38.4358 43.8531 38.4763C44.4441 38.5318 44.6687 38.3926 44.5859 38.9722C44.5207 39.4293 43.9385 40.0996 43.5967 40.2423C42.9194 40.5233 42.0034 40.1983 41.304 40.4264C42.0386 40.7461 42.7168 40.8941 43.5377 40.9276C43.0427 41.6049 42.1619 42.0964 41.3903 42.3941C40.7377 42.6478 39.9714 42.4663 39.3971 42.6716C39.952 42.7517 40.4241 42.9684 40.9799 42.9904H40.7746L39.5142 42.7464C40.1123 43.0653 40.802 43.3401 41.5022 43.57C41.2793 43.7673 41.06 43.9708 40.8152 44.1443C40.063 44.678 39.3847 45.2109 38.4449 45.2629C37.6857 45.3052 36.9141 45.1387 36.1821 45.2153C36.8621 45.8848 38.2591 46.3331 39.2051 46.5172C40.3439 46.7383 41.7876 46.356 42.9062 46.0856C43.7342 45.8865 47.1288 45.2902 47.3058 44.3002L47.2741 44.2641L47.312 44.2658L47.3058 44.3002L47.3155 44.309V44.2658H47.3569L47.3886 44.2729L47.3639 44.2658H47.3763Z" fill="#A7A9AC"/>
</svg>
