<svg width="80" height="80" viewBox="0 0 80 80" fill="none" xmlns="http://www.w3.org/2000/svg">
<path d="M39.6063 0C27.0914 0 18.7515 2.08747 18.7515 2.08747V38.4791C18.7515 41.7395 19.1491 44.2843 22.9264 46.7495C24.825 47.992 39.6063 57.6441 39.6063 57.6441C39.6063 57.6441 54.3876 48.002 56.2862 46.7495C60.0636 44.2843 60.4612 41.7395 60.4612 38.4791V2.08747C60.4612 2.08747 52.1113 0 39.6063 0Z" fill="#A2ACB4"/>
<path d="M59.1985 38.4693C59.1985 40.0299 59.0991 41.2923 58.6319 42.4156C58.115 43.6383 57.1508 44.6721 55.6001 45.6959C53.96 46.7695 42.5385 54.2247 39.6061 56.1333C36.6737 54.2148 25.2522 46.7695 23.6121 45.6959C22.0614 44.682 21.0972 43.6383 20.5803 42.4156C20.1031 41.2923 20.0137 40.0299 20.0137 38.4693V8.74762C22.787 8.2009 29.954 7.00806 39.616 7.00806C49.2781 7.00806 56.4451 8.2009 59.2184 8.74762V38.4792L59.1985 38.4693Z" fill="#2A0D54"/>
<path d="M31.6841 37.6343V40.1393H43.8213L47.529 36.9584V27.8828L43.8213 24.7019H41.694V27.2069H42.8968L45.024 29.0359V35.8053L42.8968 37.6343H36.2666V27.2069H37.5191V24.7019H31.6841V27.2069H33.7716V37.6343H31.6841Z" fill="white"/>
<path d="M38.3535 36.799H40.8585V22.6241H50.0334V20.1191H40.8585V19.135C42.4588 18.6082 43.6119 17.1072 43.6119 15.3378C43.6119 13.1311 41.8227 11.3418 39.6159 11.3418C37.4091 11.3418 35.6199 13.1311 35.6199 15.3378C35.6199 17.1072 36.773 18.6082 38.3634 19.135V20.1191H29.1885V22.6241H38.3634V36.799H38.3535ZM39.606 13.807C40.4509 13.807 41.1467 14.5028 41.1467 15.3478C41.1467 16.1927 40.4509 16.8885 39.606 16.8885C38.761 16.8885 38.0652 16.2026 38.0652 15.3478C38.0652 14.4929 38.7511 13.807 39.606 13.807Z" fill="white"/>
<path d="M51.2764 34.2744V37.6939C51.2764 38.8867 50.9683 39.4136 49.8549 40.1293C49.1293 40.6064 43.4235 44.2843 40.849 45.9344V40.9643H38.344V45.9344C35.7695 44.2744 30.0637 40.5965 29.3381 40.1293C28.2247 39.4036 27.9166 38.8768 27.9166 37.6939V34.2744H25.4116V38.4891C25.4116 39.6323 25.6005 40.6959 27.2208 41.7396C28.841 42.7834 39.5965 49.7217 39.5965 49.7217C39.5965 49.7217 50.352 42.7734 51.9722 41.7396C53.5925 40.6959 53.7814 39.6323 53.7814 38.4891V34.2744H51.2764Z" fill="white"/>
<path d="M26.2661 5.54683V3.07168C27.0116 2.98222 27.7572 2.89276 28.5027 2.81323V3.35001C27.9957 3.39971 27.4888 3.45936 26.9918 3.519V3.98619C27.3496 3.94643 27.7075 3.89673 28.0753 3.86691V4.2844C27.7174 4.32417 27.3596 4.36393 26.9918 4.40369V4.90071C27.4987 4.84106 27.9957 4.78142 28.5027 4.73172V5.29832C27.7572 5.37784 27.0116 5.45737 26.2661 5.55677V5.54683Z" fill="#2A0D54"/>
<path d="M31.3162 5.10929C30.7795 5.14906 30.3321 5.02977 29.9644 4.83096C30.0638 4.68186 30.1532 4.52281 30.2526 4.37371C30.6005 4.55263 30.9882 4.6421 31.3262 4.62222C31.694 4.5924 31.8431 4.45323 31.8431 4.31407C31.8431 3.89657 30.0836 4.28425 30.0836 3.38961C30.0836 2.9423 30.5807 2.53474 31.3162 2.48504C31.8431 2.44528 32.2407 2.58444 32.5488 2.80313C32.4395 2.9423 32.3302 3.07152 32.2208 3.21069C31.9624 3.05164 31.6244 2.95224 31.3063 2.98206C30.9783 3.01188 30.7795 3.1411 30.7795 3.28027C30.7795 3.67788 32.5588 3.32997 32.5588 4.21466C32.5588 4.6918 32.022 5.06953 31.3162 5.11923V5.10929Z" fill="#2A0D54"/>
<path d="M35.4517 2.86292V4.78141C35.2131 4.78141 34.9646 4.80129 34.726 4.81123V2.89274C34.4179 2.90268 34.1197 2.92256 33.8115 2.94244V2.39572C34.6565 2.34602 35.5113 2.30626 36.3563 2.28638V2.84304C36.0481 2.84304 35.7499 2.86292 35.4517 2.87286V2.86292Z" fill="#2A0D54"/>
<path d="M37.2109 4.7316V4.20476C37.3899 4.20476 37.5588 4.20476 37.7378 4.19482V4.72166C37.5588 4.72166 37.3899 4.72166 37.2109 4.7316Z" fill="#2A0D54"/>
<path d="M41.0078 4.71179V2.54479C41.2364 2.54479 41.3358 2.41557 41.3358 2.24658C41.4452 2.24658 41.5645 2.24658 41.6738 2.24658V4.72173C41.4551 4.72173 41.2265 4.72173 41.0078 4.71179Z" fill="#2A0D54"/>
<path d="M44.4074 4.89058C43.9601 4.8707 43.6122 4.73154 43.314 4.50291C43.4134 4.37369 43.5128 4.24446 43.6022 4.12518C43.8309 4.28422 44.0993 4.39357 44.3577 4.40351C44.7851 4.42339 44.9839 4.17488 44.9839 3.82697V3.6878C44.7951 3.84685 44.5764 3.93631 44.2782 3.92637C43.6718 3.89655 43.314 3.57846 43.314 3.16096V3.11126C43.314 2.63412 43.7613 2.24645 44.4372 2.27627C45.1529 2.30609 45.6301 2.79317 45.6301 3.47905V3.76732C45.6301 4.46315 45.1629 4.94029 44.3975 4.91046L44.4074 4.89058ZM44.9839 3.27031C44.9839 3.01186 44.7951 2.79317 44.4372 2.77329C44.1191 2.76335 43.9303 2.90251 43.9303 3.1212V3.16096C43.9303 3.37965 44.0993 3.5387 44.4173 3.54864C44.6659 3.55858 44.8448 3.48899 44.9839 3.36971V3.27031Z" fill="#2A0D54"/>
<path d="M48.2544 5.13918C47.8071 5.09942 47.4592 4.95032 47.1709 4.71175C47.2703 4.58252 47.3697 4.46324 47.4592 4.33402C47.6779 4.503 47.9562 4.62229 48.2146 4.64217C48.6421 4.68193 48.8409 4.44336 48.8409 4.08551V3.94634C48.662 4.09545 48.4433 4.17497 48.1351 4.15509C47.5288 4.10539 47.1709 3.77736 47.1709 3.34992V3.30022C47.1709 2.82308 47.6182 2.44535 48.2942 2.50499C49.0099 2.56463 49.487 3.06165 49.487 3.75747V4.04575C49.487 4.74157 49.0198 5.19883 48.2643 5.13918H48.2544ZM48.8309 3.53879C48.8309 3.28034 48.6421 3.05171 48.2842 3.02189C47.9661 3.00201 47.7773 3.13123 47.7773 3.34992V3.38968C47.7773 3.60837 47.9462 3.76742 48.2643 3.79724C48.5128 3.81712 48.6918 3.74753 48.8309 3.63819V3.53879Z" fill="#2A0D54"/>
<path d="M52.5982 4.92034V5.49688C52.3796 5.46706 52.1708 5.44718 51.9521 5.41736V4.85076C51.5048 4.80105 51.0575 4.75135 50.6201 4.70165V4.27422C51.0774 3.8269 51.5346 3.38952 51.9919 2.95215C52.1907 2.97203 52.3994 3.00185 52.5982 3.02173V4.45314C52.7275 4.46308 52.8567 4.48296 52.9959 4.50284V4.97998C52.8666 4.9601 52.7374 4.95016 52.5982 4.93028V4.92034ZM51.9521 3.60821C51.7235 3.83684 51.4849 4.06547 51.2563 4.2941L51.9521 4.37362V3.60821Z" fill="#2A0D54"/>
<path d="M18.5034 66.8388V62.803H21.7241V64.1946H19.9945V64.2145H21.6843V65.5962H19.9945V66.8388H18.5034Z" fill="black"/>
<path d="M21.4754 63.0517V63.9463H19.7458V64.4732H21.4356V65.3479H19.7458V66.5905H18.7617V63.0517H21.4853M21.9823 62.5547H18.2646V67.0875H20.2428V65.8449H21.9326V64.4434H21.9823V62.5547Z" fill="white"/>
<path d="M25.3019 66.8388L24.7254 65.7751H24.4769V66.8388H23.0156V62.803H25.0633C26.614 62.803 26.793 63.638 26.793 64.2742C26.793 64.5028 26.793 65.1489 26.1965 65.5167L26.9222 66.8487H25.292L25.3019 66.8388ZM25.0335 64.463C25.2323 64.463 25.282 64.4332 25.282 64.4332C25.282 64.4332 25.292 64.4034 25.292 64.3139C25.292 64.2046 25.2721 64.1747 25.2721 64.1747C25.2721 64.1747 25.2224 64.1449 25.0236 64.1449H24.4769V64.463H25.0236H25.0335Z" fill="black"/>
<path d="M25.0733 63.0516C26.3357 63.0516 26.5544 63.6083 26.5544 64.2743C26.5544 64.7117 26.445 65.1789 25.8685 65.4075L26.5146 66.6003H25.451L24.8744 65.5367H24.2283V66.6003H23.2641V63.0616H25.0633M24.2283 64.7216H25.0236C25.4013 64.7216 25.5404 64.6421 25.5404 64.324C25.5404 64.0059 25.4112 63.9065 25.0236 63.9065H24.2283V64.7216ZM25.0633 62.5646H22.7671V67.0974H24.7253V66.3121L25.0037 66.829L25.1428 67.0874H27.3397L26.942 66.3518L26.5245 65.5765C26.8725 65.2783 27.0414 64.8409 27.0414 64.2644C27.0414 63.1212 26.3754 62.5447 25.0633 62.5447V62.5646Z" fill="white"/>
<path d="M28.0264 66.8388V62.803H31.3464V64.1946H31.2967V65.4869H31.3663V66.8388H28.0264Z" fill="black"/>
<path d="M31.0977 63.0517V63.9463H29.2687V64.3738H31.048V65.2386H29.2687V65.7356H31.1176V66.5905H28.2846V63.0517H31.1077M31.6047 62.5547H27.7876V67.0875H31.6146V65.2386H31.555V64.4434H31.6047V62.5547Z" fill="white"/>
<path d="M36.0579 66.8388V65.8745L35.6802 66.8388H34.5967L34.2388 65.8944V66.8388H32.8472V62.803H34.5668L35.1832 64.4531L35.8094 62.803H37.5191V66.8388H36.0579Z" fill="black"/>
<path d="M37.2704 63.0517V66.5905H36.3062V64.5328L35.511 66.5905H34.7754L33.9901 64.5527V66.5905H33.0955V63.0517H34.3877L35.1829 65.1591L35.9782 63.0517H37.2704ZM37.7674 62.5547H35.6402L35.5209 62.8728L35.1929 63.7475L34.8649 62.8728L34.7456 62.5547H32.6084V67.0875H37.7774V62.5547H37.7674Z" fill="white"/>
<path d="M41.3961 66.8388L41.2171 66.3815H40.0442L39.8653 66.8388H38.3643L39.9746 62.7732H41.3165L42.9468 66.8388H41.3861H41.3961ZM40.7102 65.0694L40.6307 64.8706L40.5511 65.0694H40.7002H40.7102Z" fill="black"/>
<path d="M41.1571 63.0217L42.5885 66.5903H41.5647L41.3858 66.133H39.8748L39.6959 66.5903H38.7317L40.1531 63.0217H41.1571ZM40.1929 65.3179H41.0677L40.6303 64.1946L40.1929 65.3179ZM41.4951 62.5247H39.8152L39.686 62.8427L38.2645 66.4113L37.9961 67.0873H40.0339L40.1531 66.7692L40.2028 66.63H41.0279L41.0776 66.7692L41.1969 67.0873H43.2943L43.0259 66.4014L41.5945 62.8328L41.4653 62.5247H41.4951Z" fill="white"/>
<path d="M46.2966 66.8388L45.1435 65.2781V66.8388H43.7021V62.803H45.1336L46.1375 64.1648V62.803H47.5888V66.8388H46.2966Z" fill="black"/>
<path d="M47.3401 63.0517V66.5905H46.4256L44.8948 64.5229V66.5905H43.9505V63.0517H45.0141L46.3958 64.9304V63.0517H47.3401ZM47.8371 62.5547H45.8988V63.4096L45.4216 62.7535L45.2725 62.5547H43.4634V67.0875H45.4017V66.0338L46.0379 66.8887L46.187 67.0875H47.8471V62.5547H47.8371Z" fill="white"/>
<path d="M49.7257 66.8388V64.1946H48.5527V62.803H52.3897V64.1946H51.2167V66.8388H49.7257Z" fill="black"/>
<path d="M52.1417 63.0517V63.9463H50.9687V66.5905H49.9747V63.9463H48.8017V63.0517H52.1417ZM52.6387 62.5547H48.3047V64.4434H49.4776V67.0875H51.4657V64.4434H52.6387V62.5547Z" fill="white"/>
<path d="M53.3535 66.8388V62.803H54.8346V65.4869H56.5046V66.8388H53.3535Z" fill="black"/>
<path d="M54.5866 63.0517V65.7356H56.2566V66.5905H53.6025V63.0517H54.5866ZM55.0836 62.5547H53.1055V67.0875H56.7536V65.2386H55.0836V62.5547Z" fill="white"/>
<path d="M57.3696 66.8388V62.803H60.6798V64.1946H60.64V65.4869H60.6996V66.8388H57.3696Z" fill="black"/>
<path d="M60.4314 63.0517V63.9463H58.6024V64.3738H60.3817V65.2386H58.6024V65.7356H60.4513V66.5905H57.6083V63.0517H60.4314ZM60.9284 62.5547H57.1113V67.0875H60.9483V65.2386H60.8787V64.4434H60.9284V62.5547Z" fill="white"/>
<path d="M62.6779 79.493L60.7296 76.66H59.656V79.493H55.6401V76.7296H56.8827V72.4055H55.6401V69.6421H63.4533L65.1531 71.3419V75.0496L63.7713 76.2027L64.1391 76.7494H65.6799V79.5129H62.6779V79.493ZM62.1908 73.8866L62.3698 73.7375V72.4751L62.2902 72.3956H59.6362V73.8866H62.1809H62.1908Z" fill="#2A0D54"/>
<path d="M63.2349 70.1393L64.6365 71.5409V74.8013L63.0858 76.0936L63.8611 77.2268H65.1732V78.9962H62.9267L60.9784 76.1632H59.1394V78.9962H56.1176V77.2268H57.3601V71.9087H56.1176V70.1393H63.2249M59.1394 74.3938H62.3601L62.8571 73.9763V72.2765L62.4893 71.9087H59.1295V74.3938M63.6325 69.1453H55.1235V72.9027H56.3661V76.2327H55.1235V79.9902H60.1335V77.1572H60.4516L62.1017 79.5628L62.3999 79.9902H66.1573V76.2327H64.4675L65.2627 75.5667L65.6205 75.2685V71.1234L65.3323 70.8351L63.9307 69.4335L63.6424 69.1453H63.6325ZM60.1235 72.9027H61.8532V73.3997H60.1235V72.9027Z" fill="white"/>
<path d="M4.49707 79.5031V76.7297H5.73961V72.4057H4.49707V69.6323H11.9523L14.3579 72.0379V77.0876L11.9523 79.4932H4.49707V79.5031ZM10.8092 76.7297L11.5945 75.9444V73.191L10.8092 72.4057H8.51297V76.7297H10.8092Z" fill="#2A0D54"/>
<path d="M11.7435 70.1293L13.8608 72.2466V76.8788L11.7435 78.9961H4.99404V77.2168H6.23658V71.8987H4.99404V70.1193H11.7435M8.00596 77.2068H11.0079L12.0815 76.1333V72.9722L11.0079 71.8987H8.00596V77.2168M12.1511 69.1353H4V72.9026H5.24254V76.2327H4V80.0001H12.161L12.4493 79.7118L14.5666 77.5945L14.8549 77.3062V71.849L14.5666 71.5607L12.4493 69.4434L12.161 69.1551L12.1511 69.1353ZM9 72.9026H10.6004L11.0974 73.3997V75.7456L10.6004 76.2426H9V72.9126V72.9026Z" fill="white"/>
<path d="M17.6878 79.4932L15.2822 77.0876V72.0379L17.6878 69.6323H22.0317L24.4373 72.0379V77.0876L22.0317 79.4932H17.6878ZM20.8786 76.7297L21.6639 75.9444V73.191L20.8786 72.4057H18.8309L18.0456 73.191V75.9444L18.8309 76.7297H20.8786Z" fill="#2A0D54"/>
<path d="M21.8228 70.1393L23.94 72.2566V76.8888L21.8228 79.0061H17.8963L15.779 76.8888V72.2566L17.8963 70.1393H21.8228ZM18.6319 77.2268H21.0971L22.1707 76.1532V72.9922L21.0971 71.9087H18.6319L17.5583 72.9822V76.1532L18.6319 77.2268ZM22.2402 69.1453H17.4888L17.2005 69.4335L15.0832 71.5508L14.7949 71.8391V77.2964L15.0832 77.5846L17.2005 79.7019L17.4888 79.9902H22.2402L22.5285 79.7019L24.6458 77.5846L24.9341 77.2964V71.8391L24.6458 71.5508L22.5285 69.4335L22.2402 69.1453ZM19.0494 72.9027H20.6896L21.1866 73.3997V75.7457L20.6896 76.2427H19.0494L18.5524 75.7457V73.3997L19.0494 72.9027Z" fill="white"/>
<path d="M67.9762 79.4931L66.2764 77.7933V75.6561H67.6879L66.2764 74.2446V71.3221L67.9762 69.6223H73.0259L74.7257 71.3221V73.4593H73.3141L74.7257 74.8708V77.7933L73.0259 79.4931H67.9762ZM71.8728 76.7297L71.9523 76.6501V76.0239L71.8728 75.9444H69.0398V76.6501L69.1193 76.7297H71.8728ZM71.9523 73.181V72.4752L71.8728 72.3957H69.1193L69.0398 72.4752V73.1014L69.1193 73.181H71.9523Z" fill="#2A0D54"/>
<path d="M72.8171 70.1393L74.2187 71.5409V72.9723H72.4493V72.2765L72.0815 71.9087H68.9204L68.5527 72.2765V73.3103L68.9204 73.6781H72.8171L74.2187 75.0896V77.5946L72.8171 78.9962H68.1849L66.7733 77.5946V76.1632H68.5527V76.859L68.9204 77.2268H72.0815L72.4493 76.859V75.8252L72.0815 75.4574H68.1849L66.7733 74.0459V71.5409L68.1849 70.1393H72.8171ZM73.2246 69.1453H67.7674L67.4791 69.4335L66.0676 70.8351L65.7793 71.1234V74.4534L66.0676 74.7417L66.4851 75.1592H65.7793V77.9922L66.0676 78.2804L67.4791 79.682L67.7674 79.9703H73.2246L73.5129 79.682L74.9145 78.2804L75.2027 77.9922V74.6622L74.9145 74.3739L74.497 73.9564H75.2027V71.1234L74.9145 70.8351L73.5129 69.4335L73.2246 69.1453Z" fill="white"/>
<path d="M27.6482 79.493L25.2427 77.0874V72.0477L27.6482 69.6421H31.9922L34.3977 72.0477V74.0059H31.6244V73.1908L30.8391 72.4055H28.7914L28.0061 73.1908V75.9443L28.7914 76.7296H30.8391L31.6244 75.9443V75.1391H34.3977V77.0874L31.9922 79.493H27.6482Z" fill="#2A0D54"/>
<path d="M31.7834 70.1392L33.9007 72.2565V73.509H32.1213V72.9921L31.0478 71.9086H28.5826L27.509 72.9822V76.1531L28.5826 77.2267H31.0478L32.1213 76.1531V75.6362H33.9007V76.8887L31.7834 79.006H27.8569L25.7396 76.8887V72.2565L27.8569 70.1392H31.7834ZM32.1909 69.1452H27.4394L27.1512 69.4335L25.0339 71.5508L24.7456 71.839V77.2963L25.0339 77.5846L27.1512 79.7018L27.4394 79.9901H32.1909L32.4792 79.7018L34.5965 77.5846L34.8848 77.2963V74.6323H31.1174V75.7356L30.6204 76.2327H28.9802L28.4832 75.7356V73.3897L28.9802 72.8927H30.6204L31.1174 73.3897V74.4931H34.8848V71.8291L34.5965 71.5408L32.4792 69.4235L32.1909 69.1353V69.1452Z" fill="white"/>
<path d="M42.31 79.493L39.6559 75.9045L39.0794 76.4314V79.493H35.1032V76.7296H36.306V72.4055H35.0635V69.6421H39.0794V72.7037L42.479 69.6421H44.9243V72.4055H43.5426L41.7235 74.0457L43.7016 76.7296H44.9243V79.493H42.31Z" fill="#2A0D54"/>
<path d="M44.4278 70.1392V71.9086H43.3443L41.048 73.9762L43.4536 77.2267H44.4278V78.9961H42.559L39.726 75.1591L38.5729 76.1929V78.9861H35.5908V77.2168H36.7936V71.8987H35.551V70.1293H38.563V73.8072L42.6484 70.1293H44.4079M45.4019 69.1353H42.2608L41.9725 69.3937L39.5371 71.5806V69.1353H34.5371V72.8927H35.7797V76.2227H34.5769V79.9802H39.547V76.6303L41.724 79.5726L42.0222 79.9802H45.382V76.2227H43.9208L42.3502 74.0955L43.6922 72.8927H45.382V69.1353H45.4019Z" fill="white"/>
<path d="M45.7095 79.493V76.7296H47.1309V72.4055H45.7095V69.6421H54.6856V73.2902H52.7373V75.8449H54.6856V79.493H45.7095ZM51.9123 76.7296V75.9443H49.8944V76.7296H51.9123ZM51.9123 73.1809V72.4055H49.8944V73.1809H51.9123Z" fill="#2A0D54"/>
<path d="M54.1793 70.1393V72.7934H52.4099V71.9087H49.398V73.6781H52.231V75.4475H49.398V77.2268H52.4099V76.3421H54.1793V78.9962H46.1972V77.2268H47.6186V71.9087H46.1972V70.1393H54.1793ZM55.1733 69.1453H45.2031V72.9027H46.6246V76.2327H45.2031V79.9902H55.1733V75.348H53.225V73.7874H55.1733V69.1453Z" fill="white"/>
</svg>
