<svg width="80" height="80" viewBox="0 0 80 80" fill="none" xmlns="http://www.w3.org/2000/svg">
<path d="M40.0375 4.31431C40.0375 1.71171 38.0754 0.293627 35.0236 0.293627H29.7156V8.6353H34.9668C37.9584 8.62529 40.0375 6.91358 40.0375 4.31431ZM32.0855 7.01034V2.38906C31.8883 2.21555 31.6744 2.0654 31.4471 1.93861V1.90858H34.6459C36.3473 1.90858 37.5239 2.73941 37.5239 4.37104C37.5239 6.00267 36.4442 7.02035 34.6593 7.02035L32.0855 7.01034V7.01034ZM62.8572 8.61528H54.3571V0.31031H62.767V1.97865H56.0818V2.01201C56.3125 2.13881 56.5264 2.28896 56.7236 2.46246V3.64698H62.5731V5.1952H56.0818V5.22856C56.3091 5.35536 56.523 5.50551 56.7203 5.67901V6.98031H62.8505L62.8572 8.61528V8.61528ZM44.1388 8.61528H41.9895V0.31031H44.5265L48.8719 5.03504C49.1326 5.31865 49.3599 5.6323 49.5404 5.97264H49.5872V0.31031H51.7365V8.65199H49.3766L44.8775 3.88055C44.6201 3.59026 44.3962 3.26994 44.209 2.9296H44.1622V8.65199L44.1388 8.61528V8.61528ZM14.6807 6.25959C14.6807 5.74241 14.3264 5.5322 13.3437 5.42876L10.7833 5.14848C8.75101 4.92493 7.75492 4.17417 7.75492 2.63931C7.75492 0.970971 9.37607 0 12.2306 0C14.3331 0 15.9776 0.550551 17.0239 1.72506L15.5197 2.97965C14.908 2.14882 13.7114 1.64498 12.1136 1.64498C10.8201 1.64498 10.1281 1.94862 10.1281 2.52252C10.1281 3.02636 10.4624 3.22656 11.5387 3.33333L13.8284 3.5669C16.1314 3.8038 17.0807 4.48115 17.0807 6.01935C17.0807 7.87121 15.366 8.90557 12.3476 8.90557C9.8808 8.90557 7.95548 8.08475 7.09644 6.7701L8.78778 5.58559C9.48303 6.55989 10.7599 7.22723 12.4646 7.22723C13.9654 7.24391 14.6874 6.92693 14.6874 6.2696L14.6807 6.25959V6.25959ZM21.7469 8.61528V5.77911L17.5821 0.31031H20.2829L22.6895 3.68702C22.8099 3.82382 22.9068 3.98398 22.9703 4.15415H22.9904C23.0472 3.98065 23.1408 3.82382 23.2611 3.68702L25.758 0.31031H28.3184L24.1235 5.7958V8.63197L21.7469 8.61528ZM68.1819 8.61528V5.77911L64.0171 0.31031H66.7179L69.1245 3.68702C69.2449 3.82382 69.3418 3.98398 69.4053 4.15415H69.4287C69.4855 3.98065 69.5791 3.82382 69.6995 3.68702L72.1897 0.31031H74.7501L70.5552 5.7958V8.63197L68.1819 8.61528Z" fill="#E1251B"/>
<path d="M67.1122 26.5299L65.6716 29.5329L65.4944 29.9033C64.7022 27.5409 63.5123 25.332 61.978 23.3701C56.6567 16.6133 48.8952 15.3621 47.9192 15.242H47.8156L48.3805 14.0608L49.644 11.4248H74.7299L67.1122 26.5299V26.5299ZM56.5029 31.2213C60.2499 35.3421 58.7959 40.3804 58.7959 40.3804C58.846 34.648 55.6673 31.9153 54.4506 30.5773C55.7642 30.1802 57.1647 30.1736 58.4817 30.5573H58.5118C57.5625 27.7712 54.8851 25.6891 52.5186 24.4278C53.6049 23.7805 55.2461 23.7304 55.2461 23.7304C55.2461 23.7304 54.0261 22.4859 51.489 21.6217C50.8807 21.4148 50.259 21.248 49.6272 21.1245C48.1164 20.8342 46.5721 20.7408 45.0345 20.8476C44.0652 20.911 43.0992 21.0378 42.1466 21.2213C43.1493 20.8476 44.1855 20.5806 45.2451 20.4271C48.4206 19.9366 53.3977 20.0301 57.2784 24.3878C56.8238 24.4145 55.6071 24.3244 54.6043 24.628C56.6834 25.7458 59.5045 29.2993 59.7485 31.8152C57.8332 30.9777 56.4895 31.2213 56.4895 31.2213H56.5029V31.2213ZM49.9916 60.7775C54.7781 51.248 54.7514 44.945 53.538 41.2213C52.3414 36.8836 49.8612 35.3754 48.0763 34.9517C47.8557 34.905 47.6317 34.8716 47.4078 34.8582C46.9432 34.8215 46.4785 34.8783 46.0373 35.0217C45.8267 35.0951 45.6262 35.2019 45.449 35.3387C45.0813 35.6323 44.7605 35.9827 44.4997 36.3731C44.4429 36.4498 44.3827 36.5232 44.3226 36.6L44.2123 36.7301C43.0892 37.9513 41.7622 38.969 40.2881 39.7331C38.1422 40.8976 35.8893 40.7742 34.4486 40.4972C33.3957 40.2303 32.4163 39.7431 31.5673 39.0658C31.4169 38.9423 31.2732 38.8089 31.1361 38.6687C31.0526 38.5853 30.9757 38.4952 30.8988 38.4085L30.7818 38.275C29.5284 36.7334 29.3278 34.7815 29.4448 33.1665C29.4615 32.9196 29.5752 32.6927 29.7623 32.5326H29.7991C30.11 32.3057 30.2637 32.3591 30.6548 32.1689C31.1528 31.942 31.554 31.5483 31.7946 31.0578C31.8214 31.001 31.8514 30.9443 31.8748 30.8843C31.9785 30.6307 32.0386 30.3571 32.0553 30.0835V29.9166C32.0654 29.1859 31.6843 28.5019 31.0526 28.1315C31.6275 27.0905 32.3595 26.1429 33.2286 25.3287L33.4459 25.1385L33.4726 25.1185L33.5127 25.0818C34.3584 24.3811 35.2809 23.7772 36.2603 23.2833L36.5076 23.1432L36.2402 23.1665C35.1138 23.32 30.2236 24.1976 27.8337 28.2583L27.7635 28.3818V28.3984C27.7 28.4985 27.6164 28.6487 27.5195 28.8222C27.4225 28.9957 27.2821 29.2593 27.1518 29.5096L26.8175 30.1769L26.5134 30.7675C26.3329 31.1212 25.8448 31.922 25.8448 31.922C25.066 32.9964 24.0566 34.0007 22.8934 34.2576C22.6895 34.3043 22.4822 34.331 22.275 34.331C21.9006 34.3377 21.5262 34.2777 21.1719 34.1475L21.075 34.0975C19.5876 33.2633 20.2861 31.1679 20.6104 30.4004C22.8232 25.599 28.2047 20.4372 34.091 17.5009C36.4408 16.2797 38.9912 15.4889 41.6184 15.1652C42.3805 15.0885 43.1961 14.9984 44.0819 14.995H45.546C43.1861 14.3911 38.7773 14.0841 33.5996 16.5032L33.5562 16.4165L32.3495 13.9907L31.0693 11.4281H6L18.3107 36.0127C17.2578 38.0314 17.2411 39.8799 17.7993 41.0177L17.8795 41.1779C18.2338 41.8986 19.0293 42.289 19.8182 42.1255C19.9051 42.1055 19.9953 42.0788 20.0789 42.0488C20.1357 42.0287 20.1926 42.002 20.2494 41.9754C20.5469 41.8352 20.7909 41.6016 20.9446 41.308C21.0583 41.0811 21.1285 40.8342 21.1418 40.5806C21.4159 41.3481 21.6232 42.1355 21.7602 42.9363C21.9641 44.0374 22.041 45.1552 21.9909 46.273C22.6995 45.0217 23.1708 43.6504 23.3747 42.2256C23.3747 42.2189 23.3747 42.2123 23.3747 42.2056C23.5385 40.7475 23.5385 39.2727 23.3747 37.8145C23.368 37.6877 23.368 37.5643 23.3747 37.4375V37.3841C23.3713 37.2039 23.3881 37.0271 23.4248 36.8502C23.4415 36.7368 23.4683 36.6233 23.5084 36.5166C23.5853 36.273 23.7424 36.0661 23.9496 35.9193C23.9496 35.9193 24.6181 35.5589 24.9524 35.7825C25.0326 35.8325 25.1028 35.8893 25.1663 35.9593L25.193 35.9894L25.2231 36.0261C25.2532 36.0628 25.2799 36.0995 25.31 36.1429C25.4538 36.3397 25.5841 36.5466 25.6978 36.7635C26.2627 37.7078 26.988 38.5486 27.8404 39.246C29.0303 40.1502 30.3373 40.8909 31.7244 41.4515C30.5412 43.904 28.0008 46.7568 25.29 49.4195L25.0827 49.623L25.046 49.6597C22.8298 51.8319 20.4967 53.8873 18.0633 55.8125C17.6455 56.1328 17.2578 56.4865 16.9035 56.8736C16.8199 56.7168 16.7564 56.5499 16.7096 56.3798C16.5692 55.8459 16.5692 55.282 16.7096 54.7481C16.733 54.6347 16.7631 54.5246 16.7998 54.4145C17.5519 51.8619 20.2795 48.6787 20.1725 43.4502C19.504 48.4952 15.0216 53.4602 14.5837 56.1629C14.4333 56.9236 14.46 57.7111 14.6639 58.4585V58.4852C14.7174 58.6554 14.7843 58.8189 14.8645 58.979C14.8712 58.9924 14.8779 59.0057 14.8846 59.0157L14.9046 59.0524C15.0417 59.2993 15.2188 59.5229 15.4227 59.7198C15.6299 59.9166 15.8639 60.0835 16.118 60.2136C16.2249 60.2703 16.3386 60.317 16.4522 60.3571C16.5592 60.3971 16.6461 60.4238 16.7029 60.4372H16.7731C16.9335 59.623 17.2945 58.8589 17.8294 58.2216C18.1803 57.7778 18.5848 57.3774 19.036 57.0337C19.4472 56.7168 21.0048 55.4989 22.9702 53.7772C23.8727 52.9864 24.8621 52.0921 25.8649 51.1278L25.9585 51.3047L40.3315 80L49.9916 60.7775V60.7775ZM20.0154 37.2273C19.9185 37.581 19.6745 37.8813 19.3469 38.0481C19.2199 38.1115 19.0695 38.1248 18.9324 38.0881C18.5313 37.9613 18.3608 37.3741 18.5514 36.7735C18.5714 36.7134 18.5948 36.6567 18.6182 36.6C18.8388 36.0995 19.26 35.7992 19.621 35.9126C19.982 36.0261 20.1959 36.6267 20.0054 37.2273H20.0154ZM28.6727 31.2713C28.3618 31.2713 28.0877 31.0678 28.0041 30.7708C27.9941 30.7375 27.9874 30.7041 27.9841 30.6707C27.9841 30.6407 27.9841 30.614 27.9841 30.584C27.9841 30.2036 28.2949 29.8966 28.676 29.8999C29.0571 29.8999 29.3646 30.2103 29.3612 30.5906C29.3612 30.9677 29.0504 31.2747 28.6727 31.2747V31.2713ZM36.755 60.4505H35.8926V57.2573C35.7155 57.3841 35.5049 57.4442 35.2876 57.4308H35.1907V56.6033H35.2609C35.6386 56.6133 35.9695 56.3597 36.0564 55.9927H36.7517V60.4505H36.755ZM40.0374 59.3661C40.0374 60.0901 39.5494 60.5473 38.7706 60.5473C37.9917 60.5473 37.5004 60.1168 37.5004 59.3761V59.0624C37.4904 58.6754 37.7377 58.3284 38.1054 58.2083C37.7444 58.0247 37.5305 57.6444 37.5606 57.2406V56.9904C37.5606 56.323 38.0352 55.8993 38.7605 55.8993C39.4859 55.8993 39.9572 56.2963 39.9572 56.9704V57.2473C39.9772 57.5976 39.7733 57.9246 39.4491 58.0614C39.8402 58.2349 40.0775 58.6353 40.0407 59.0624V59.3661H40.0374ZM41.8491 60.4505H40.9566V60.2136C40.9566 58.9824 41.2909 57.7745 41.9326 56.7201H40.4485V55.996H42.7883V56.5866C42.1566 57.581 41.8324 58.7455 41.8624 59.9233V60.4605L41.8491 60.4505V60.4505ZM45.3855 59.4762H44.9309V60.4505H44.0886V59.4762H42.7115V58.8355L43.9315 55.996H44.9543V58.8055H45.3855V59.4762V59.4762ZM38.3661 57.3007V56.947C38.3661 56.6333 38.4898 56.4932 38.7271 56.4932C38.9644 56.4932 39.0881 56.64 39.0881 56.9537V57.3274C39.1115 57.5242 39.0179 57.7211 38.8441 57.8212L38.7739 57.7945C38.5199 57.6977 38.3862 57.5643 38.3862 57.3007H38.3661V57.3007ZM39.1316 58.999V59.4161C39.1316 59.7498 39.0045 59.8966 38.7472 59.8966C38.4898 59.8966 38.3427 59.7365 38.3427 59.4095V58.9724C38.3093 58.7488 38.4296 58.5286 38.6335 58.4318L38.7104 58.4652C39.0346 58.5886 39.1483 58.6987 39.1483 59.0024H39.1316V58.999ZM44.0986 56.917C44.0986 57.0838 44.0786 57.2907 44.0786 57.4675V58.8022H43.38C43.4502 58.6887 43.5103 58.5686 43.5538 58.4418L43.9449 57.4608C44.0184 57.2873 44.0752 57.1072 44.1153 56.9203H44.0986V56.917Z" fill="#E1251B"/>
</svg>
