<svg width="80" height="80" viewBox="0 0 80 80" fill="none" xmlns="http://www.w3.org/2000/svg">
<g clip-path="url(#clip0_401_985)">
<mask id="mask0_401_985" style="mask-type:luminance" maskUnits="userSpaceOnUse" x="0" y="0" width="80" height="80">
<path d="M80 0H0V79.475H80V0Z" fill="white"/>
</mask>
<g mask="url(#mask0_401_985)">
<path d="M39.9968 0.00146484C27.4107 0.00146484 19.021 2.09824 19.021 2.09824V9.06279V38.7039C19.021 41.9853 19.4198 44.5424 23.2173 47.0232C25.1293 48.2754 39.9968 57.9789 39.9968 57.9789C39.9968 57.9789 54.8642 48.2754 56.7762 47.0232C60.5737 44.5424 60.9725 41.9853 60.9725 38.7039V9.06279V2.09824C60.9725 2.09824 52.5828 0.00146484 39.9968 0.00146484Z" fill="#A2ACB4"/>
</g>
<mask id="mask1_401_985" style="mask-type:luminance" maskUnits="userSpaceOnUse" x="0" y="0" width="80" height="80">
<path d="M80 0H0V79.475H80V0Z" fill="white"/>
</mask>
<g mask="url(#mask1_401_985)">
<path d="M59.7134 38.7047C59.7134 40.2707 59.6166 41.5464 59.1386 42.6753C58.6196 43.901 57.6519 44.948 56.0888 45.9714C54.435 47.0505 42.9456 54.5488 39.9956 56.4754C37.0455 54.5488 25.5592 47.0505 23.9053 45.9714C22.3423 44.948 21.3716 43.901 20.8526 42.6753C20.3776 41.5464 20.2778 40.2707 20.2778 38.7047V8.79683C23.0637 8.24843 30.2804 7.04907 39.9956 7.04907C49.7137 7.04907 56.9275 8.24843 59.7134 8.79683V38.7047Z" fill="#2A0D54"/>
</g>
<mask id="mask2_401_985" style="mask-type:luminance" maskUnits="userSpaceOnUse" x="0" y="0" width="80" height="80">
<path d="M80 0H0V79.475H80V0Z" fill="white"/>
</mask>
<g mask="url(#mask2_401_985)">
<path d="M32.0264 37.8656V40.3816H44.237L47.9671 37.1853V28.0567L44.237 24.8602H42.0934V27.3792H43.3074L45.4511 29.215V36.027L43.3074 37.8656H36.642V27.3792H37.9V24.8602H32.0264V27.3792H34.1231V37.8656H32.0264Z" fill="white"/>
</g>
<mask id="mask3_401_985" style="mask-type:luminance" maskUnits="userSpaceOnUse" x="0" y="0" width="80" height="80">
<path d="M80 0H0V79.475H80V0Z" fill="white"/>
</mask>
<g mask="url(#mask3_401_985)">
<path d="M38.7392 37.0263H41.2551V22.7629H50.4836V20.2469H41.2551V19.2586C42.8621 18.7308 44.0205 17.2206 44.0205 15.4406C44.0205 13.2178 42.217 11.4172 39.9972 11.4172C37.7773 11.4172 35.9768 13.2178 35.9768 15.4406C35.9768 17.2206 37.1351 18.7308 38.7392 19.2586V20.2469H29.5107V22.7629H38.7392V37.0263ZM39.9972 13.8922C40.8505 13.8922 41.5455 14.5873 41.5455 15.4406C41.5455 16.291 40.8505 16.986 39.9972 16.986C39.1438 16.986 38.4488 16.291 38.4488 15.4406C38.4488 14.5873 39.1438 13.8922 39.9972 13.8922Z" fill="white"/>
</g>
<mask id="mask4_401_985" style="mask-type:luminance" maskUnits="userSpaceOnUse" x="0" y="0" width="80" height="80">
<path d="M80 0H0V79.475H80V0Z" fill="white"/>
</mask>
<g mask="url(#mask4_401_985)">
<path d="M51.7427 34.4856V37.9254C51.7427 39.1247 51.4319 39.6526 50.3146 40.3798C49.5844 40.8549 43.8427 44.5557 41.2563 46.2242V41.2215H38.7373V46.2242C36.1509 44.5557 30.4092 40.8549 29.6761 40.3798C28.5588 39.6526 28.2509 39.1247 28.2509 37.9254V34.4856H25.7319V38.723C25.7319 39.8725 25.9225 40.9458 27.5501 41.9956C29.1776 43.0454 39.9953 50.0306 39.9953 50.0306C39.9953 50.0306 50.8161 43.0454 52.4436 41.9956C54.0711 40.9458 54.2587 39.8725 54.2587 38.723V34.4856H51.7427Z" fill="white"/>
</g>
<mask id="mask5_401_985" style="mask-type:luminance" maskUnits="userSpaceOnUse" x="0" y="0" width="80" height="80">
<path d="M80 0H0V79.475H80V0Z" fill="white"/>
</mask>
<g mask="url(#mask5_401_985)">
<path d="M26.5752 5.57904V3.09235C27.3229 2.99857 28.0707 2.9106 28.8214 2.83435V3.37094C28.3112 3.42374 27.8039 3.47949 27.2965 3.54106V4.00731C27.6602 3.96623 28.0209 3.92229 28.3845 3.88417V4.30344C28.0209 4.34156 27.6602 4.38264 27.2965 4.42667V4.92218C27.8039 4.86356 28.3112 4.80494 28.8214 4.75214V5.32104C28.0707 5.39729 27.3229 5.48526 26.5752 5.57904Z" fill="#2A0D54"/>
</g>
<mask id="mask6_401_985" style="mask-type:luminance" maskUnits="userSpaceOnUse" x="0" y="0" width="80" height="80">
<path d="M80 0H0V79.475H80V0Z" fill="white"/>
</mask>
<g mask="url(#mask6_401_985)">
<path d="M31.66 5.14217C31.1233 5.18325 30.6659 5.06306 30.3022 4.86367C30.399 4.71118 30.4958 4.55574 30.5926 4.40324C30.9386 4.57918 31.3286 4.67592 31.6746 4.64952C32.0471 4.62026 32.1966 4.48244 32.1966 4.33577C32.1966 3.91641 30.4254 4.30937 30.4254 3.40622C30.4254 2.95752 30.9239 2.54997 31.6629 2.49127C32.1966 2.45019 32.5895 2.59391 32.9004 2.80798C32.789 2.94579 32.6775 3.08074 32.5661 3.21856C32.3051 3.05721 31.962 2.96047 31.6453 2.98391C31.3139 3.01031 31.1175 3.13936 31.1175 3.2889C31.1175 3.68776 32.9063 3.3417 32.9063 4.2273C32.9063 4.71118 32.3696 5.08651 31.66 5.14217Z" fill="#2A0D54"/>
</g>
<mask id="mask7_401_985" style="mask-type:luminance" maskUnits="userSpaceOnUse" x="0" y="0" width="80" height="80">
<path d="M80 0H0V79.475H80V0Z" fill="white"/>
</mask>
<g mask="url(#mask7_401_985)">
<path d="M35.818 2.88578V4.81538C35.5746 4.82415 35.3312 4.83587 35.0878 4.8476V2.91513C34.7828 2.9298 34.4749 2.94743 34.1699 2.96202V2.4078C35.0233 2.36091 35.8796 2.32279 36.7329 2.29639V2.85356C36.4279 2.86233 36.1229 2.87405 35.818 2.88578Z" fill="#2A0D54"/>
</g>
<mask id="mask8_401_985" style="mask-type:luminance" maskUnits="userSpaceOnUse" x="0" y="0" width="80" height="80">
<path d="M80 0H0V79.475H80V0Z" fill="white"/>
</mask>
<g mask="url(#mask8_401_985)">
<path d="M37.5903 4.76106V4.22742C37.7663 4.22447 37.9451 4.21856 38.1211 4.2157V4.74933C37.9451 4.75229 37.7663 4.75819 37.5903 4.76106Z" fill="#2A0D54"/>
</g>
<mask id="mask9_401_985" style="mask-type:luminance" maskUnits="userSpaceOnUse" x="0" y="0" width="80" height="80">
<path d="M80 0H0V79.475H80V0Z" fill="white"/>
</mask>
<g mask="url(#mask9_401_985)">
<path d="M41.4136 4.74274V2.56104C41.6423 2.564 41.7449 2.42618 41.7449 2.26196C41.8593 2.26196 41.9707 2.26492 42.0822 2.26778V4.75456C41.8593 4.74865 41.6364 4.7457 41.4136 4.74274Z" fill="#2A0D54"/>
</g>
<mask id="mask10_401_985" style="mask-type:luminance" maskUnits="userSpaceOnUse" x="0" y="0" width="80" height="80">
<path d="M80 0H0V79.475H80V0Z" fill="white"/>
</mask>
<g mask="url(#mask10_401_985)">
<path d="M44.8341 4.92361C44.3824 4.90312 44.0335 4.7653 43.7373 4.53361C43.837 4.40457 43.9338 4.27561 44.0306 4.14952C44.2564 4.31373 44.532 4.41629 44.793 4.43097C45.227 4.4486 45.4205 4.20518 45.4205 3.8474V3.70376C45.2329 3.85912 45.013 3.95299 44.708 3.94127C44.098 3.91487 43.7373 3.59521 43.7373 3.16708V3.11724C43.7373 2.63631 44.1831 2.24336 44.8722 2.27566C45.5906 2.30788 46.0715 2.79176 46.0715 3.4897V3.77705C46.0715 4.48081 45.5965 4.95878 44.8341 4.92361ZM45.4176 3.29022C45.4176 3.03222 45.2241 2.80644 44.8634 2.78881C44.5438 2.77413 44.356 2.9149 44.356 3.13782V3.18176C44.356 3.40173 44.5232 3.55709 44.8487 3.57176C45.1009 3.58349 45.2739 3.50724 45.4176 3.39001V3.29022Z" fill="#2A0D54"/>
</g>
<mask id="mask11_401_985" style="mask-type:luminance" maskUnits="userSpaceOnUse" x="0" y="0" width="80" height="80">
<path d="M80 0H0V79.475H80V0Z" fill="white"/>
</mask>
<g mask="url(#mask11_401_985)">
<path d="M48.7017 5.1678C48.2501 5.12968 47.9041 4.97719 47.6079 4.73673C47.7076 4.61063 47.8044 4.48749 47.9012 4.3614C48.124 4.53439 48.3997 4.65171 48.6606 4.6722C49.0947 4.70737 49.2882 4.46986 49.2882 4.11208V3.96845C49.1034 4.11799 48.8835 4.203 48.5756 4.17955C47.9686 4.12971 47.6079 3.80128 47.6079 3.3702V3.3233C47.6079 2.83943 48.0536 2.4641 48.7398 2.51976C49.4554 2.57847 49.9362 3.07989 49.9362 3.77783V4.06519C49.9362 4.76894 49.4641 5.22937 48.7017 5.1678ZM49.2853 3.55491C49.2853 3.2969 49.0917 3.06226 48.734 3.033C48.4114 3.00955 48.2237 3.13851 48.2237 3.36438V3.40832C48.2237 3.62829 48.3938 3.78955 48.7164 3.81595C48.9686 3.83645 49.1445 3.76611 49.2853 3.65469V3.55491Z" fill="#2A0D54"/>
</g>
<mask id="mask12_401_985" style="mask-type:luminance" maskUnits="userSpaceOnUse" x="0" y="0" width="80" height="80">
<path d="M80 0H0V79.475H80V0Z" fill="white"/>
</mask>
<g mask="url(#mask12_401_985)">
<path d="M53.0697 4.95412V5.53178C52.8527 5.50252 52.6387 5.47907 52.4217 5.45267V4.87787C51.973 4.82507 51.5243 4.77523 51.0786 4.73129V4.30021C51.539 3.85445 51.9994 3.41165 52.4598 2.9718C52.6621 2.99525 52.8674 3.0187 53.0697 3.04509V4.48196C53.2017 4.49664 53.3307 4.51427 53.4656 4.52895V5.00396C53.3307 4.98642 53.2017 4.97175 53.0697 4.95412ZM52.4217 3.63448C52.1871 3.86322 51.9525 4.09196 51.7179 4.32365C51.9525 4.35005 52.1871 4.37645 52.4217 4.40285V3.63448Z" fill="#2A0D54"/>
</g>
<mask id="mask13_401_985" style="mask-type:luminance" maskUnits="userSpaceOnUse" x="0" y="0" width="80" height="80">
<path d="M80 0H0V79.475H80V0Z" fill="white"/>
</mask>
<g mask="url(#mask13_401_985)">
<path d="M19.0234 63.4283H21.7623V64.3286H20.0175V64.8565H21.7154V65.7392H20.0175V66.9913H19.0234V63.4283Z" fill="black"/>
</g>
<mask id="mask14_401_985" style="mask-type:luminance" maskUnits="userSpaceOnUse" x="0" y="0" width="80" height="80">
<path d="M80 0H0V79.475H80V0Z" fill="white"/>
</mask>
<g mask="url(#mask14_401_985)">
<path d="M25.1842 65.9232H24.539V66.9906H23.5684V63.4277H25.3777C26.6504 63.4277 26.8674 63.9848 26.8674 64.6535C26.8674 65.0962 26.7559 65.5684 26.1782 65.7941L26.8292 66.9906H25.7618L25.1842 65.9232ZM25.3425 65.0962C25.7267 65.0962 25.8615 65.02 25.8615 64.6916C25.8615 64.3514 25.7354 64.2751 25.3396 64.2751H24.539V65.0962H25.3425Z" fill="black"/>
</g>
<mask id="mask15_401_985" style="mask-type:luminance" maskUnits="userSpaceOnUse" x="0" y="0" width="80" height="80">
<path d="M80 0H0V79.475H80V0Z" fill="white"/>
</mask>
<g mask="url(#mask15_401_985)">
<path d="M28.6016 63.4283H31.4372V64.3286H29.5956V64.7597H31.3903V65.6306H29.5956V66.1292H31.4548V66.9913H28.6016V63.4283Z" fill="black"/>
</g>
<mask id="mask16_401_985" style="mask-type:luminance" maskUnits="userSpaceOnUse" x="0" y="0" width="80" height="80">
<path d="M80 0H0V79.475H80V0Z" fill="white"/>
</mask>
<g mask="url(#mask16_401_985)">
<path d="M33.4497 63.4283H34.7517L35.5493 65.5486L36.3528 63.4283H37.6519V66.9913H36.6783V64.9239L35.8807 66.9913H35.1359L34.3499 64.9386V66.9913H33.4497V63.4283Z" fill="black"/>
</g>
<mask id="mask17_401_985" style="mask-type:luminance" maskUnits="userSpaceOnUse" x="0" y="0" width="80" height="80">
<path d="M80 0H0V79.475H80V0Z" fill="white"/>
</mask>
<g mask="url(#mask17_401_985)">
<path d="M40.5463 63.4037H41.5609L42.9978 66.99H41.9656L41.7867 66.5297H40.2677L40.0918 66.99H39.1211L40.5463 63.4037ZM41.47 65.7115L41.0272 64.5766L40.5873 65.7115H41.47Z" fill="black"/>
</g>
<mask id="mask18_401_985" style="mask-type:luminance" maskUnits="userSpaceOnUse" x="0" y="0" width="80" height="80">
<path d="M80 0H0V79.475H80V0Z" fill="white"/>
</mask>
<g mask="url(#mask18_401_985)">
<path d="M44.3691 63.4283H45.4365L46.8236 65.3139V63.4283H47.7766V66.9913H46.8588L45.3192 64.9092V66.9913H44.3691V63.4283Z" fill="black"/>
</g>
<mask id="mask19_401_985" style="mask-type:luminance" maskUnits="userSpaceOnUse" x="0" y="0" width="80" height="80">
<path d="M80 0H0V79.475H80V0Z" fill="white"/>
</mask>
<g mask="url(#mask19_401_985)">
<path d="M50.4279 64.3276H49.2461V63.4274H52.6096V64.3276H51.4278V66.9903H50.4279V64.3276Z" fill="black"/>
</g>
<mask id="mask20_401_985" style="mask-type:luminance" maskUnits="userSpaceOnUse" x="0" y="0" width="80" height="80">
<path d="M80 0H0V79.475H80V0Z" fill="white"/>
</mask>
<g mask="url(#mask20_401_985)">
<path d="M54.0771 63.4283H55.0712V66.1292H56.7486V66.9913H54.0771V63.4283Z" fill="black"/>
</g>
<mask id="mask21_401_985" style="mask-type:luminance" maskUnits="userSpaceOnUse" x="0" y="0" width="80" height="80">
<path d="M80 0H0V79.475H80V0Z" fill="white"/>
</mask>
<g mask="url(#mask21_401_985)">
<path d="M58.1177 63.4283H60.9533V64.3286H59.1117V64.7597H60.9064V65.6306H59.1117V66.1292H60.9739V66.9913H58.1177V63.4283Z" fill="black"/>
</g>
<mask id="mask22_401_985" style="mask-type:luminance" maskUnits="userSpaceOnUse" x="0" y="0" width="80" height="80">
<path d="M80 0H0V79.475H80V0Z" fill="white"/>
</mask>
<g mask="url(#mask22_401_985)">
<path d="M63.6267 76.5551L65.1868 75.2561V71.9718L63.7733 70.5583H56.624V72.3412H57.8732V74.8397V77.6929H56.624V79.4759H59.6591V76.6226H61.5065L63.4683 79.4759H65.7234V77.6929H64.4067L63.6267 76.5551ZM63.0344 72.3412L63.4038 72.7107V74.4203L62.9024 74.8397H59.6591V72.3412H63.0344Z" fill="#2A0D54"/>
</g>
<mask id="mask23_401_985" style="mask-type:luminance" maskUnits="userSpaceOnUse" x="0" y="0" width="80" height="80">
<path d="M80 0H0V79.475H80V0Z" fill="white"/>
</mask>
<g mask="url(#mask23_401_985)">
<path d="M5.1792 70.5562V72.342H6.42845V77.6908H5.1792V79.4767H11.9708L14.0968 77.3477V72.6851L11.9708 70.5562H5.1792ZM12.3139 76.6087L11.2318 77.6908H8.21138V72.342H11.2318L12.3139 73.4241V76.6087Z" fill="#2A0D54"/>
</g>
<mask id="mask24_401_985" style="mask-type:luminance" maskUnits="userSpaceOnUse" x="0" y="0" width="80" height="80">
<path d="M80 0H0V79.475H80V0Z" fill="white"/>
</mask>
<g mask="url(#mask24_401_985)">
<path d="M18.1514 70.5569L16.0254 72.6859V77.3485L18.1514 79.4745H22.1043L24.2303 77.3485V72.6859L22.1043 70.5569H18.1514ZM22.4474 76.6094L21.3654 77.6916H18.8904L17.8083 76.6094V73.4219L18.8904 72.3398H21.3654L22.4474 73.4248V76.6094Z" fill="#2A0D54"/>
</g>
<mask id="mask25_401_985" style="mask-type:luminance" maskUnits="userSpaceOnUse" x="0" y="0" width="80" height="80">
<path d="M80 0H0V79.475H80V0Z" fill="white"/>
</mask>
<g mask="url(#mask25_401_985)">
<path d="M74.8196 73.4109V71.971L73.4061 70.5576H68.7435L67.3271 71.971V74.493L68.7435 75.9094H72.6671L73.0366 76.2789V77.3228L72.6671 77.6923H69.4825L69.113 77.3228V76.6219H67.3271V78.0618L68.7435 79.4752H73.4061L74.8196 78.0618V75.5399L73.4061 74.1235H69.4825L69.113 73.754V72.7101L69.4825 72.3405H72.6671L73.0366 72.7101V73.4109H74.8196Z" fill="#2A0D54"/>
</g>
<mask id="mask26_401_985" style="mask-type:luminance" maskUnits="userSpaceOnUse" x="0" y="0" width="80" height="80">
<path d="M80 0H0V79.475H80V0Z" fill="white"/>
</mask>
<g mask="url(#mask26_401_985)">
<path d="M28.1758 70.5573L26.0498 72.6862V77.3488L28.1758 79.4749H32.1288L34.2577 77.3488V76.0879H32.4719V76.6099L31.3898 77.6919H28.9148L27.8327 76.6099V73.4223L28.9148 72.3402H31.3898L32.4719 73.4253V73.9472H34.2577V72.6862L32.1288 70.5573H28.1758Z" fill="#2A0D54"/>
</g>
<mask id="mask27_401_985" style="mask-type:luminance" maskUnits="userSpaceOnUse" x="0" y="0" width="80" height="80">
<path d="M80 0H0V79.475H80V0Z" fill="white"/>
</mask>
<g mask="url(#mask27_401_985)">
<path d="M44.8516 72.3412V70.5583H43.0804L38.9662 74.262V70.5583H35.9341V72.3412H37.1803V77.6929H35.9663V79.4759H38.9662V76.6637L40.1245 75.6197L42.9719 79.4759H44.8516V77.6929H43.8722L41.4559 74.4203L43.7637 72.3412H44.8516Z" fill="#2A0D54"/>
</g>
<mask id="mask28_401_985" style="mask-type:luminance" maskUnits="userSpaceOnUse" x="0" y="0" width="80" height="80">
<path d="M80 0H0V79.475H80V0Z" fill="white"/>
</mask>
<g mask="url(#mask28_401_985)">
<path d="M46.6357 72.3412H48.0638V77.6929H46.6357V79.4759H54.6618V76.8015H52.8789V77.6929H49.8467V75.9071H52.7V74.1241H49.8467V72.3412H52.8789V73.2327H54.6618V70.5583H46.6357V72.3412Z" fill="#2A0D54"/>
</g>
</g>
<defs>
<clipPath id="clip0_401_985">
<rect width="80" height="80" fill="white"/>
</clipPath>
</defs>
</svg>
