<svg width="80" height="80" viewBox="0 0 80 80" fill="none" xmlns="http://www.w3.org/2000/svg">
<path d="M56.8129 22.8561L57.0049 19.0305C56.6769 19.0033 55.7201 18.9217 55.4473 18.8665C52.1137 18.2105 46.0753 15.6977 45.6929 15.4785C51.1305 19.0033 55.9937 20.0417 55.9937 20.0417L56.8129 22.8561ZM41.2945 10.8073L43.7257 3.42969H37.1137L39.5457 10.8073H41.2945ZM36.7041 7.69209C30.7481 9.46809 28.0697 14.2225 27.1137 16.7905C30.0097 15.9161 35.2017 14.1401 38.2065 12.3097L36.7041 7.69209ZM63.3777 56.0361H65.0689C69.6337 51.0377 70.7129 45.5769 70.7385 45.4745L60.5201 41.2825L68.7161 45.7481C67.5625 50.2017 65.2777 53.7105 63.3777 56.0361ZM20.3041 50.6145H29.1921C25.3169 46.6785 23.2561 43.4433 22.0753 40.7001L10.4385 45.4745C10.4641 45.5769 11.5441 51.0377 16.1097 56.0361H20.3041V50.6145ZM44.3545 33.7297L43.2345 33.2113L43.5625 47.3633L44.6545 46.9809L44.3545 33.7297ZM37.3041 47.3633L37.6321 33.2113L36.5121 33.7297L36.2113 46.9809L37.3041 47.3633ZM25.0097 35.0689L24.1633 19.2769L25.4745 19.1129C25.4745 19.1129 36.7865 15.8889 40.3921 12.8833V30.2049L26.5681 23.1569L28.9993 30.2049L35.2289 33.1833L34.9281 46.2161L25.0105 35.0689H25.0097Z" fill="#00A3E0"/>
<path d="M28.4199 52.9682C29.0695 52.9386 29.5719 53.5002 29.5719 54.1506C29.5719 54.8002 29.0999 55.3322 28.4487 55.3322C27.7687 55.3322 27.2967 54.8002 27.2967 54.1506C27.2967 53.5002 27.7687 52.9682 28.4199 52.9682ZM37.0599 54.1202C37.0599 54.793 36.5919 55.2322 35.9479 55.2322H35.3055V52.981H35.9479C36.5919 52.981 37.0599 53.4474 37.0599 54.1202ZM49.6055 54.4258L50.0983 53.2074L50.5911 54.4258H49.6055ZM42.1351 66.6306H39.9047L40.6087 64.3122L41.0199 62.9026H41.0495L41.4599 64.3114L42.1351 66.6306ZM45.9255 52.9682C46.6055 52.9386 47.0775 53.5002 47.0775 54.1506C47.0775 54.8002 46.6055 55.3322 45.9551 55.3322C45.2751 55.3322 44.8031 54.8002 44.8031 54.1506C44.8031 53.5002 45.2751 52.9682 45.9255 52.9682ZM73.5767 72.5306C73.5767 74.585 72.4023 75.5242 71.0527 75.1722C69.3503 74.7322 66.7375 74.2042 64.9175 73.8218C63.3031 73.4698 62.3935 73.1178 62.3935 71.4738V69.5362H66.0335V70.0938C66.0335 70.5338 66.3271 70.6218 66.6791 70.7394C67.0311 70.8578 68.9095 71.2978 69.2039 71.3858C69.4967 71.4738 69.8487 71.3562 69.8487 70.7394V68.1282C69.8487 67.453 69.4383 67.3362 68.9095 67.2482C68.3519 67.1602 67.2071 66.8962 65.3287 66.5138C63.4207 66.1322 62.8039 65.1634 62.8039 63.8722V60.3202C62.8039 59.029 63.4503 57.9722 65.3287 57.9722H71.3751C71.6182 57.9711 71.8591 58.0182 72.0839 58.1107C72.3088 58.2032 72.5131 58.3394 72.685 58.5112C72.857 58.6831 72.9932 58.8874 73.0858 59.1121C73.1784 59.3369 73.2256 59.5778 73.2247 59.821V62.6098H69.6727V61.8762C69.6712 61.7054 69.6027 61.542 69.482 61.4213C69.3612 61.3005 69.1978 61.232 69.0271 61.2306H65.5343C65.5343 61.2306 66.0919 61.4362 66.5319 61.7586V63.3738C66.5319 64.0778 66.7671 64.1954 67.4711 64.3122C68.1759 64.4298 69.3503 64.6642 71.0231 64.929C72.6671 65.1346 73.5767 65.9562 73.5767 67.2474V72.5306ZM57.8687 72.9122L52.5559 64.429H52.5263V72.4418L48.9455 72.237V58.6466C48.4463 58.265 47.8007 58.001 47.8007 58.001H52.3503L56.8703 65.2218H56.8999V58.6466C56.4007 58.265 55.7551 58.001 55.7551 58.001H60.4511V57.9714V73.2354L57.8687 72.9122ZM43.9263 72.061L43.1919 69.8298H37.4687C37.4687 69.8298 38.1439 70.0938 38.6423 70.505L38.1143 72.0906L34.5327 72.2074L39.1711 58.6474C38.6719 58.2354 37.9967 57.9714 37.9967 57.9714H42.8687L47.8007 72.1778L43.9263 72.061ZM29.0143 72.5306V61.2298H25.8743V57.9714H35.8831V61.2298H31.3335C31.3335 61.2298 32.2727 61.5818 32.7127 62.1098V72.2658L29.0143 72.5306ZM20.7663 73.4698V57.9714H24.4647V72.9714L20.7663 73.4698ZM16.1879 62.1098V74.2618L12.4895 75.113V61.2298H9.49507L8.37987 57.9714H19.3583V61.2298H14.8079C14.8079 61.2298 15.7471 61.5818 16.1879 62.1098ZM25.8359 55.485C25.3871 55.8695 24.814 56.0778 24.2231 56.0714C23.0207 56.0714 22.2287 55.2498 22.2287 54.1354C22.2287 53.0506 23.0495 52.1706 24.1935 52.1706C24.8679 52.1706 25.2783 52.3466 25.6599 52.6986L25.1319 53.3146C24.8391 53.0794 24.5751 52.933 24.1639 52.933C23.5775 52.933 23.0791 53.461 23.0791 54.1058C23.0791 54.7802 23.5487 55.3082 24.2231 55.3082C24.5159 55.3082 24.7799 55.2202 25.0151 55.0738V54.5458H24.1935V53.8418H25.8359V55.485ZM10.4399 45.4754L22.0767 40.701C23.2567 43.4442 25.3183 46.6794 29.1927 50.6146H20.3047V56.0362H16.1103C11.5455 51.0378 10.4655 45.577 10.4399 45.4754ZM25.4759 19.1122C25.4759 19.1122 36.7879 15.8882 40.3935 12.8834V30.205L26.5687 23.1562L28.9999 30.2058L35.2287 33.1842L34.9287 46.2162L25.0103 35.069L24.1631 19.277L25.4751 19.113L25.4759 19.1122ZM36.7055 7.69296L38.2079 12.3098C35.2023 14.141 30.0111 15.917 27.1151 16.7906C28.0711 14.2226 30.7487 9.46896 36.7055 7.69296ZM43.7271 3.43056L41.2951 10.8074H39.5463L37.1143 3.43056H43.7271ZM49.7927 28.3754V27.037L51.8143 25.9986L50.6943 29.1954L44.7375 32.0634L44.0551 31.1354L49.7927 28.3754ZM55.4487 18.8674C55.7207 18.9226 56.6775 19.0034 57.0055 19.0314L56.8143 22.8562L55.9943 20.0426C55.9943 20.0426 51.1311 19.0042 45.6943 15.4794C46.0767 15.6978 52.1159 18.2114 55.4487 18.8674ZM70.7399 45.4754C70.7143 45.577 69.6351 51.0378 65.0703 56.0362H63.3783C65.2791 53.7114 67.5631 50.2026 68.7175 45.7482L60.5207 41.2842L70.7399 45.4754ZM43.2351 33.2114L44.3551 33.7306L44.6559 46.9818L43.5631 47.3642L43.2351 33.2114ZM37.6343 33.2114L37.3063 47.3634L36.2135 46.9818L36.5135 33.7306L37.6343 33.2114ZM36.7871 31.1074L36.1039 32.0362L30.1479 29.1674L29.0551 25.9714L31.0767 27.009V28.3482L36.7871 31.1074ZM30.4287 54.1202C30.4287 55.1842 29.5719 56.0714 28.4199 56.0714C27.2375 56.0714 26.4103 55.185 26.4103 54.1202C26.4103 53.057 27.2375 52.1706 28.4199 52.1706C29.6015 52.1706 30.4287 53.0562 30.4287 54.1202ZM33.8487 55.2546V55.9922H31.1383V52.2506H31.9631V55.2546H33.8487ZM35.9191 55.9914H34.4575V52.2506H35.9191C37.0887 52.2506 37.9071 53.0394 37.9071 54.121C37.9071 55.173 37.0887 55.9914 35.9191 55.9914ZM42.0119 55.3082C42.4519 55.3082 42.7159 55.1322 43.0087 54.8682L43.5367 55.3962C43.1559 55.8074 42.7159 56.0714 42.0119 56.0714C40.8975 56.0714 40.0759 55.2202 40.0759 54.1354C40.0759 53.0506 40.8679 52.1706 42.0415 52.1706C42.7455 52.1706 43.1855 52.405 43.5079 52.757L42.9799 53.373C42.6863 53.109 42.3927 52.9626 42.0119 52.9626C41.3663 52.9626 40.9263 53.4906 40.9263 54.1354C40.9263 54.7802 41.3663 55.3082 42.0119 55.3082ZM47.9639 54.1202C47.9639 55.1842 47.1375 56.0714 45.9551 56.0714C44.7735 56.0714 43.9455 55.185 43.9455 54.1202C43.9455 53.057 44.7735 52.1706 45.9551 52.1706C47.1071 52.1706 47.9647 53.057 47.9647 54.121L47.9639 54.1202ZM52.0703 55.9922H51.2303L50.8815 55.1506H49.3151L48.9671 55.9922H48.1255L49.7207 52.2506H50.4751L52.0703 55.9922ZM55.0655 55.7522C54.8159 55.961 54.4639 56.0714 54.0463 56.0714C53.4352 56.0757 52.8421 55.8647 52.3711 55.4754L52.8727 54.885C53.2663 55.2122 53.6303 55.3642 54.0167 55.3642C54.3607 55.3642 54.5671 55.2258 54.5671 54.9946C54.5671 54.7802 54.4527 54.6586 53.7775 54.505C53.0399 54.3058 52.5183 54.1066 52.5183 53.337C52.5183 53.0058 52.6543 52.7074 52.8999 52.4962C53.1439 52.2866 53.4871 52.1706 53.8655 52.1706C54.4055 52.1706 54.8879 52.3306 55.3007 52.6466L54.8583 53.2658C54.4975 53.0042 54.1719 52.877 53.8663 52.877C53.6287 52.877 53.3759 52.9666 53.3759 53.217C53.3759 53.4626 53.5263 53.5546 54.2255 53.737C54.9847 53.941 55.4543 54.2026 55.4543 54.8738C55.4543 55.237 55.3199 55.5402 55.0655 55.7522ZM55.7679 52.9866V52.2506H58.8903V52.9866H57.7407V55.9922H56.9167V52.9866H55.7679ZM75.1543 64.5442V59.8202C75.153 58.817 74.7539 57.8552 74.0446 57.1459C73.3352 56.4365 72.3735 56.0374 71.3703 56.0362H65.8103C68.1551 54.5682 72.4087 51.0194 73.1983 44.1946L58.1439 38.0202L59.1551 16.6002L55.9583 16.1626C55.3303 14.7146 54.1007 12.3378 51.9423 10.2338C50.9583 4.49616 46.9695 1.76416 46.9695 1.76416H34.2095C34.2095 1.76416 30.2207 4.49616 29.2375 10.2338C27.0791 12.3378 25.8495 14.7138 25.2215 16.1618L22.0239 16.6002L23.0351 38.0202L7.98067 44.1946C8.77027 51.0186 13.0239 54.5682 15.3687 56.0362H5.67188L8.11188 63.1642H10.5535V77.4818C23.6151 73.813 48.1919 71.849 70.5583 77.045C70.8931 77.1326 71.2377 77.1773 71.5839 77.1778C72.4015 77.1828 73.1975 76.9154 73.8463 76.4178C74.9167 75.5898 75.5063 74.2098 75.5063 72.5298V67.2466C75.5063 66.3282 75.2127 65.341 74.5063 64.5442H75.1543Z" fill="#0C2340"/>
<path d="M77.0632 65.1912V59.8192C77.0617 58.3096 76.4614 56.8623 75.3939 55.7949C74.3265 54.7274 72.8792 54.1271 71.3696 54.1256H70.7168C72.64 51.9216 74.444 48.756 74.948 44.396L75.1016 43.0696L59.9624 36.86L60.9904 15.0704L57.1528 14.5456C56.2008 12.6016 54.9792 10.836 53.572 9.3736C52.3224 3.3544 48.1472 0.4336 47.964 0.3088L47.5152 0H33.6632L33.2128 0.3088C33.0304 0.4336 28.8552 3.3544 27.6048 9.3736C26.1984 10.836 24.9768 12.6016 24.0248 14.5456L20.1872 15.0704L21.2152 36.86L6.076 43.0696L6.2288 44.396C6.7336 48.756 8.5376 51.9216 10.46 54.1264H3L6.7472 65.072H8.644V80L11.0696 79.3184C19.0592 77.0752 30.0608 75.7872 41.2536 75.7872C51.36 75.7872 61.3352 76.8632 70.104 78.8976C70.592 79.0224 71.0888 79.0856 71.584 79.0856C72.8244 79.0928 74.0315 78.6844 75.0128 77.9256C76.5624 76.7296 77.4152 74.8136 77.4152 72.5288V67.2456C77.4164 66.5457 77.2973 65.8508 77.0632 65.1912ZM75.5056 72.5288C75.5056 74.2088 74.916 75.588 73.8464 76.4152C73.1977 76.9137 72.4013 77.1817 71.5832 77.1768C71.2448 77.1768 70.9008 77.1328 70.5584 77.044C48.192 71.8472 23.6152 73.812 10.5536 77.4808V63.1632H8.112L5.672 56.0352H15.368C13.024 54.5664 8.7688 51.0176 7.98 44.1936L23.0344 38.0184L22.0232 16.5984L25.22 16.1608C25.8488 14.7128 27.0776 12.3368 29.236 10.2328C30.22 4.4944 34.2088 1.7624 34.2088 1.7624H46.9688C46.9688 1.7624 50.9576 4.4944 51.9408 10.232C54.0992 12.336 55.3288 14.7128 55.9568 16.1616L59.1536 16.5984L58.1432 38.0184L73.1976 44.1936C72.408 51.0176 68.1544 54.5664 65.8096 56.0352H71.3696C72.3728 56.0365 73.3345 56.4355 74.0439 57.1449C74.7533 57.8543 75.1523 58.816 75.1536 59.8192V64.5424H74.5056C75.2128 65.34 75.5056 66.3272 75.5056 67.2456V72.5288ZM71.0224 64.9272C69.3496 64.6632 68.1752 64.428 67.4704 64.3104C66.7664 64.1928 66.5312 64.0752 66.5312 63.3712V61.7568C66.0912 61.4344 65.5336 61.2288 65.5336 61.2288H69.0264C69.3784 61.2288 69.672 61.5216 69.672 61.8736V62.608H73.224V59.8192C73.225 59.5761 73.1778 59.3352 73.0851 59.1104C72.9925 58.8856 72.8563 58.6814 72.6843 58.5095C72.5124 58.3376 72.3081 58.2015 72.0833 58.109C71.8585 58.0164 71.6175 57.9693 71.3744 57.9704H65.328C63.4496 57.9704 62.8032 59.0264 62.8032 60.3184V63.8704C62.8032 65.1616 63.4192 66.1304 65.328 66.512C67.2064 66.8936 68.3512 67.1576 68.9088 67.2456C69.4368 67.3336 69.848 67.4512 69.848 68.1256V70.7384C69.848 71.3544 69.496 71.472 69.2032 71.3848C68.9088 71.2968 67.0304 70.8568 66.6784 70.7384C66.3264 70.6208 66.032 70.5328 66.032 70.0928V69.5352H62.392V71.472C62.392 73.116 63.3024 73.4688 64.9168 73.8208C66.7368 74.2024 69.3488 74.7304 71.052 75.1712C72.4016 75.5232 73.576 74.584 73.576 72.5288V67.2456C73.576 65.9544 72.6664 65.1328 71.0224 64.9272ZM19.3568 57.9704H8.3792L9.4944 61.2288H12.4888V75.112L16.1864 74.2608V62.1088C15.7464 61.5808 14.8072 61.2288 14.8072 61.2288H19.3568V57.9704ZM24.464 57.9704H20.7656V73.4688L24.464 72.9696V57.9704ZM60.4504 58H55.7544C55.7544 58 56.4 58.264 56.8984 58.6456V65.22H56.8696L52.3496 58H47.7992C47.7992 58 48.4456 58.264 48.9448 58.6456V72.236L52.5248 72.4408V64.428H52.5552L57.8672 72.9104L60.4512 73.2336L60.4504 58ZM32.712 62.1088C32.272 61.5808 31.3328 61.2288 31.3328 61.2288H35.8824V57.9704H25.8728V61.2288H29.0136V72.5296L32.712 72.2656V62.1088ZM42.868 57.9704H37.996C37.996 57.9704 38.6712 58.2344 39.1696 58.6456L34.532 72.2056L38.1136 72.0888L38.6416 70.504C38.1424 70.0928 37.4672 69.8288 37.4672 69.8288H43.1912L43.9248 72.0592L47.7992 72.1768L42.868 57.9704ZM39.904 66.6296L40.608 64.3104L41.0192 62.9016H41.0488L41.4592 64.3104L42.1344 66.6296H39.904Z" fill="white"/>
<path d="M54.224 53.7328C53.5256 53.5512 53.3752 53.4592 53.3752 53.2128C53.3752 52.9632 53.628 52.8736 53.8648 52.8736C54.1712 52.8736 54.4968 53.0008 54.8568 53.2624L55.3 52.6424C54.8885 52.3275 54.383 52.1601 53.8648 52.1672C53.4864 52.1672 53.1432 52.2832 52.8984 52.4928C52.7772 52.5965 52.6802 52.7256 52.6143 52.8709C52.5484 53.0161 52.5151 53.1741 52.5168 53.3336C52.5168 54.1032 53.0392 54.3024 53.7768 54.5016C54.452 54.6544 54.5664 54.7768 54.5664 54.9912C54.5664 55.2224 54.36 55.3608 54.016 55.3608C53.6296 55.3608 53.2656 55.2088 52.872 54.8816L52.3704 55.472C52.8416 55.861 53.4346 56.072 54.0456 56.068C54.4632 56.068 54.8152 55.9576 55.0648 55.7496C55.3192 55.5376 55.4536 55.2336 55.4536 54.8704C55.4536 54.1984 54.9824 53.9376 54.224 53.7328ZM57.74 55.9888V52.9832H58.8896V52.2472H55.7664V52.9832H56.9152V55.988L57.74 55.9888ZM45.9248 52.9648C45.2752 52.9648 44.8016 53.4968 44.8016 54.1464C44.8016 54.7968 45.2752 55.3288 45.9536 55.3288C46.6048 55.3288 47.0768 54.7968 47.0768 54.1464C47.0768 53.4968 46.6048 52.9352 45.9248 52.9648ZM45.9544 52.1672C47.1064 52.1672 47.964 53.0536 47.964 54.1168C47.964 55.1808 47.136 56.068 45.9544 56.068C44.7728 56.068 43.9448 55.1808 43.9448 54.1168C43.9448 53.0528 44.7728 52.1672 45.9544 52.1672ZM42.0104 52.9592C42.392 52.9592 42.6856 53.1056 42.9784 53.3688L43.5064 52.7536C43.184 52.4016 42.744 52.1672 42.04 52.1672C40.8672 52.1672 40.0752 53.0472 40.0752 54.132C40.0752 55.2168 40.8968 56.068 42.0112 56.068C42.7152 56.068 43.1552 55.804 43.536 55.3928L43.008 54.8648C42.7152 55.1288 42.4512 55.3048 42.0112 55.3048C41.3656 55.3048 40.9256 54.7768 40.9256 54.132C40.9256 53.4864 41.3656 52.9584 42.0112 52.9584L42.0104 52.9592ZM28.4184 52.9648C27.768 52.9648 27.296 53.4968 27.296 54.1464C27.296 54.7968 27.768 55.3288 28.448 55.3288C29.0984 55.3288 29.5712 54.7968 29.5712 54.1464C29.5712 53.4968 29.068 52.9352 28.4184 52.9648ZM28.4184 52.1672C29.6 52.1672 30.428 53.0536 30.428 54.1168C30.428 55.1808 29.5712 56.068 28.4184 56.068C27.2368 56.068 26.4088 55.1808 26.4088 54.1168C26.4088 53.0528 27.2368 52.1672 28.4184 52.1672ZM24.1928 54.5424H25.0136V55.0704C24.7773 55.2223 24.5025 55.3036 24.2216 55.3048C23.548 55.3048 23.0776 54.7768 23.0776 54.1024C23.0776 53.4576 23.5768 52.9296 24.1632 52.9296C24.5744 52.9296 24.8376 53.076 25.1312 53.3104L25.6592 52.6944C25.2776 52.3424 24.8672 52.1664 24.1928 52.1664C23.0488 52.1664 22.228 53.0464 22.228 54.132C22.228 55.2464 23.02 56.068 24.2224 56.068C24.9264 56.068 25.4544 55.804 25.8352 55.4808V53.8384H24.192L24.1928 54.5424ZM50.0968 53.204L49.604 54.4224H50.5904L50.0968 53.204ZM49.7208 52.2464H50.4744L52.0696 55.988H51.2288L50.8808 55.148H49.3136L48.9664 55.988H48.1248L49.7208 52.2464ZM37.0584 54.1176C37.0584 53.4456 36.5904 52.9776 35.9472 52.9776H35.3048V55.228H35.9472C36.5904 55.228 37.0584 54.7896 37.0584 54.1176ZM37.9064 54.1176C37.9064 55.1696 37.0872 55.988 35.9184 55.988H34.4568V52.2464H35.9184C37.0872 52.2464 37.9064 53.036 37.9064 54.1176ZM31.9624 52.2464H31.1384V55.988H33.848V55.252H31.9624V52.2464ZM29.0536 25.968L30.1472 29.1648L36.1032 32.0336L36.7864 31.1048L31.076 28.3448V27.0064L29.0536 25.968ZM44.7368 32.0608L44.0544 31.1328L49.792 28.3728V27.032L51.8136 25.9944L50.6936 29.1904L44.7368 32.0592V32.0608Z" fill="#FFC72C"/>
</svg>
