<svg width="80" height="80" viewBox="0 0 80 80" fill="none" xmlns="http://www.w3.org/2000/svg">
<path d="M38.9172 28.9298L37.8958 30.347C37.3232 31.1643 36.3805 31.6569 35.3788 31.6569H26.1566L30.9248 24.9941C31.505 24.2025 32.4326 23.7296 33.4117 23.7296H55.2417L67.9312 6H35.1718C22.5307 6 12.2842 16.2479 12.2842 28.8876C12.2842 41.5287 22.5307 51.7736 35.1718 51.7736L51.525 28.9253L38.9172 28.9298Z" fill="#F47920"/>
<path d="M80 67.2405C80 65.5332 79.0754 64.7763 77.4815 64.3276C73.7844 63.2911 72.1875 62.844 71.908 62.7609C71.7388 62.7049 71.5998 62.6204 71.5998 62.3968V59.9885C71.5998 59.8208 71.7115 59.709 71.8808 59.709H75.6322C75.7999 59.709 75.9117 59.8208 75.9117 59.9885V61.5568H79.8882V59.0911C79.8882 57.3853 78.5164 56.012 76.8077 56.012H70.648C68.9407 56.012 67.5674 57.3853 67.5674 59.0911V63.264C67.5674 64.9712 68.5192 65.6995 70.1706 66.1769C73.644 67.1574 75.1276 67.5759 75.605 67.718C75.8286 67.7723 75.9676 67.8841 75.9676 68.0805V70.6852C75.9676 70.8529 75.8573 70.9647 75.6881 70.9647H71.7675C71.5998 70.9647 71.488 70.8529 71.488 70.6852V69.0883H67.5115V71.5811C67.5115 73.2883 68.8833 74.6617 70.5921 74.6617H76.9209C78.6281 74.6617 80 73.2883 80 71.5811V67.2405ZM52.8141 59.709H57.6291V74.6617H61.6887V59.709H66.5052V56.012H52.8141V59.709ZM51.3894 56.012H47.4688V66.9323L41.2532 56.012H37.3326V74.6617H41.2532V63.7958L47.4688 74.6617H51.3894V56.012ZM28.1362 61.1639L29.8177 67.381H26.4576L28.1362 61.1639ZM30.1819 56.012H26.0921L19.9883 74.6617H24.1324L25.252 70.9647H30.9932L32.1686 74.6617H36.3128L30.1819 56.012ZM18.964 56.012H14.9043V74.6617H18.964V56.012ZM6.1325 68.0246H8.76428V70.6852C8.76428 70.8529 8.65251 70.9647 8.48478 70.9647H4.3406C4.17286 70.9647 4.05962 70.8529 4.05962 70.6852V59.9885C4.05962 59.8208 4.17286 59.709 4.3406 59.709H8.4561C8.62384 59.709 8.73717 59.8208 8.73717 59.9885V61.8922H12.7121V59.0911C12.7121 57.3853 11.3418 56.012 9.63302 56.012H3.07902C1.37186 56.012 0 57.3853 0 59.0911V71.5811C0 73.2883 1.37186 74.6617 3.07902 74.6617H9.66023C11.3689 74.6617 12.7408 73.2883 12.7408 71.5811V64.4968H6.1325V68.0246Z" fill="#F47920"/>
</svg>
