<svg width="80" height="80" viewBox="0 0 80 80" fill="none" xmlns="http://www.w3.org/2000/svg">
<path d="M24.7645 34.8891C23.9007 35.401 21.4372 36.8247 19.8535 37.7205C22.8449 36.8567 25.8203 35.9929 28.7317 35.129C28.8117 34.3612 28.9397 33.4814 29.0836 32.5536C27.7719 33.3534 26.4442 34.1692 25.1164 35.0011C25.1484 34.0893 24.7645 34.8891 24.7645 34.8891ZM48.2158 10.894C49.8314 8.54244 50.3593 6.01495 49.7834 3.39148V3.37549C49.7195 3.15153 49.6715 3.05555 49.6395 3.02356C49.5595 3.07155 49.4475 3.16753 49.3355 3.27951C49.3675 3.37549 49.4315 3.55145 49.4315 3.56745V3.59944C49.9914 6.23891 49.1916 8.7184 47.5279 11.0219C46.5521 12.3817 45.5123 13.3895 45.0644 13.7414C45.1444 13.7734 45.2244 13.8214 45.3204 13.8534C46.4561 13.0535 47.4319 12.0457 48.2158 10.894ZM47.144 19.5162C48.9676 21.8997 51.0472 24.1713 52.9988 26.6188C53.6067 27.3386 54.1186 28.0585 54.7264 28.7943L54.8384 28.7623L54.9184 28.5384C52.6949 25.611 50.5033 22.6516 48.3437 19.6602L47.9918 19.1803L48.5517 17.4206C45.7363 14.8772 43.3528 14.3333 43.3208 14.3333C42.8249 14.2213 42.313 14.1733 41.8011 14.1733H41.7851C41.4651 14.1733 41.1292 14.1893 40.8093 14.2373H40.7613L40.6653 14.2533C39.7855 14.4612 38.6657 14.6692 37.7859 14.8612C38.3938 15.2611 38.6337 15.3091 39.2416 15.709V15.725L39.2576 15.741C39.4016 15.805 39.5295 15.869 39.5935 15.9489C39.7695 16.0609 39.8175 16.0769 39.9774 16.2049L40.1694 16.2209C39.7695 15.629 38.7617 14.6052 41.3692 14.2213C42.169 14.0453 46.7281 15.9329 47.4319 17.7086C47.4639 17.6926 47.144 19.5162 47.144 19.5162ZM20.2854 8.49445C22.285 8.68641 28.2198 9.02234 32.5549 12.0617C32.9229 12.2857 35.2104 13.7734 36.6341 15.1971H36.6981C34.8585 12.9096 30.1874 8.36647 22.1091 8.36647C21.4052 8.36647 20.6694 8.39847 19.9335 8.47845C19.9175 8.47845 20.2854 8.49445 20.2854 8.49445ZM32.5549 28.2664C32.6189 28.3784 32.6989 28.5384 32.7629 28.6504L32.8269 28.6184C32.8429 28.6504 32.8429 28.6504 32.8749 28.6984L32.9709 28.8423C33.0988 29.0183 33.1788 29.1143 33.1948 29.1303L33.2108 29.1463L33.2268 29.1623C33.8347 29.8981 35.1144 31.1459 36.97 31.2738C37.162 31.3058 37.338 31.3058 37.5139 31.3058C37.9458 31.3058 38.3458 31.2098 38.7137 31.0659C37.274 30.9539 36.7141 27.8025 36.5381 26.5228L36.4582 26.5068C36.1222 29.9941 32.6189 29.0503 33.4828 20.508C32.475 22.2037 31.9631 23.8353 31.9791 25.403V25.419L31.7871 26.2828C31.7871 26.3148 31.7711 26.3468 31.7711 26.3788H31.6751C31.7231 26.8907 31.8191 27.3706 31.9791 27.7865C31.9791 27.7865 32.411 28.9063 32.7949 29.2742C32.6989 29.1303 32.6669 29.0343 32.6669 29.0343L32.5709 28.3304C32.5229 28.2824 32.5549 28.2664 32.5549 28.2664ZM47.272 5.96696C47.208 6.03095 47.128 6.12693 47.016 6.22291C46.6321 6.52685 46.2482 6.87878 45.8802 7.2467C44.5845 8.49445 42.8089 10.526 41.7051 13.0535H41.8011C41.8811 13.0535 41.961 13.0535 42.057 13.0535H42.105L42.249 12.7976C42.9848 11.5498 44.6485 8.79839 45.7363 8.04654C45.7363 8.06254 43.2088 11.8698 43.0968 13.1655C43.3847 13.2615 43.6887 13.3415 44.0086 13.3735C43.8966 12.1737 46.888 6.67082 47.224 6.06294C47.24 6.01495 47.256 5.98296 47.272 5.96696ZM52.5669 35.161C52.2789 35.321 51.991 35.481 51.7031 35.6249C53.5107 36.4568 55.3503 37.2886 57.1899 38.1204L57.8618 38.4244L57.9578 38.4724C56.1502 37.3526 54.3585 36.2648 52.5669 35.161ZM47.9758 25.467C47.5919 24.9551 47.24 24.4432 46.872 23.9313C47.6719 25.707 49.5435 28.8903 50.4073 30.522L51.5431 30.8259L50.1354 28.4584C49.5755 27.6746 48.4717 26.2029 47.9758 25.467Z" fill="#C3D0E4"/>
<path d="M56.4703 33.9133L56.4383 34.2813L56.1024 34.4092C55.6705 34.5692 55.2386 34.7452 54.8067 34.9051C54.5347 34.6812 54.2628 34.4572 53.9748 34.2333L54.1508 34.1053C54.6627 33.8974 55.1906 33.6894 55.7185 33.4814L55.7665 33.4654V33.4174C55.8784 31.9137 56.0064 30.3301 56.1504 28.5544L56.1664 28.2505L56.1344 28.2185C53.6389 25.2591 51.1914 22.2517 48.7919 19.2283L49.9116 17.2287L49.9436 17.1807L49.6237 16.8768C48.184 15.5171 47.5121 15.1492 46.6163 14.6692C47.0962 14.2533 48.4719 12.9256 49.3678 11.2619C50.8075 8.54249 50.9994 6.12698 50.3756 3.26356C50.1516 2.28776 49.9276 1.71187 49.7837 1.72787C49.7837 1.72787 49.7517 1.71187 49.7037 1.75986C49.2398 2.33575 48.7919 2.91163 48.328 3.48751C47.8801 4.14338 47.4322 4.79925 46.9682 5.45512C46.5843 5.74306 45.4965 6.55889 44.2168 7.96661L44.3128 7.35873L42.9531 9.4703C42.1692 10.5101 41.4174 11.7098 40.8575 13.0536L40.4736 13.1176H40.4416L39.8657 13.2455L40.2016 13.5335L38.7779 13.5015L38.6019 13.9654C38.106 13.9494 37.1782 13.7094 37.1782 13.7094L37.0663 14.0614C36.3144 13.1975 35.0347 11.7898 33.243 10.5901C32.8911 10.3661 32.5392 10.1422 32.1712 9.93421L29.1479 8.17456L29.1959 8.60648C26.9083 7.82264 24.4288 7.47071 21.8053 7.47071C20.6536 7.47071 19.6138 7.4867 18.414 7.64667C18.1901 7.67866 17.8701 7.71066 17.8062 7.95061C17.7422 8.17456 17.8382 8.41452 18.0141 8.54249C18.9099 9.16636 19.7898 9.79024 20.6856 10.4141C20.8775 10.6701 21.3574 11.2939 21.5974 11.8218C22.5252 13.8534 24.5248 17.1647 32.4112 20.1881C31.9473 21.2919 31.6434 22.4437 31.4994 23.6274C31.3074 23.2915 31.0995 22.9556 30.9715 22.7476C30.9875 22.7316 30.2196 26.1709 29.5638 29.7862L17.9501 38.3764L20.7976 36.0249L27.8841 30.1541C27.6122 30.3621 27.6602 30.3301 28.556 29.5942L30.0437 21.2599L30.1077 21.004L30.7315 21.6598L30.8915 20.684C23.661 17.6606 21.5814 14.5733 20.6376 12.5097C20.5256 12.2857 20.3017 11.9178 20.0137 11.5499L18.9579 10.7021L18.606 10.4141C17.8701 9.9502 17.1663 9.43831 16.5104 8.86243C15.4226 7.91862 15.3427 7.80664 15.4386 7.43871C15.4226 7.31074 15.7106 7.08678 15.7106 7.08678C16.6224 6.55889 17.7902 6.35093 18.478 6.27095L18.9099 6.23896C20.0937 6.09499 21.2775 6.031 22.4772 6.031C24.6688 6.06299 26.7643 6.38293 28.7479 7.0068L28.7159 6.67087C28.7159 6.67087 30.6516 7.45471 32.4752 8.59048C33.0191 8.87842 33.547 9.19836 34.0589 9.55029C35.3066 10.3981 36.4744 11.3739 37.5142 12.4777L37.9461 13.0376L38.362 12.1578L39.7857 12.4777L40.0417 11.9018C40.7935 10.3021 41.7693 8.89442 42.7131 7.75865L44.1368 5.66307L44.1208 6.20696C44.6647 5.64708 45.2406 5.13518 45.8485 4.63928L46.8723 3.32755C47.6721 2.31975 48.5039 1.27996 49.3198 0.224176C49.5437 -0.0157751 49.7837 0.000221399 49.7837 0.000221399C50.1996 0.000221399 50.6955 0.384144 51.4953 3.19957V3.23157C52.1832 6.43092 51.6713 9.85422 49.6717 12.6377C49.1918 13.3095 48.7279 13.8854 48.216 14.3653C48.216 14.3653 49.9116 15.5331 51.2874 16.9888L51.0634 17.3887L50.1196 19.1163C52.0392 21.6758 54.3428 24.4593 56.8542 27.6266L57.0622 27.8826C56.9982 27.9146 56.4703 33.9133 56.4703 33.9133Z" fill="#C3D0E4"/>
<path d="M33.7387 38.2485C34.3306 37.2087 37.098 32.7296 41.2252 32.6336C42.7289 33.2095 43.2408 35.1931 43.3687 35.849H43.4487C43.7367 34.5372 43.8487 33.6574 43.8966 33.1295C43.8646 33.1135 43.8327 33.0975 43.8167 33.0975C43.1448 32.7296 42.4249 32.4897 41.6891 32.3617C41.3372 32.2977 41.1132 32.2977 41.1132 32.2977L41.1292 32.2497L41.3692 31.7218L39.8175 32.0737L37.8659 32.5217L37.9778 32.0418C36.0902 31.7218 35.9782 31.6738 34.7465 31.1139H34.7305L34.6505 31.066H34.6345C34.5705 31.034 34.5225 31.002 34.4586 30.97C34.1866 33.3375 33.8987 35.753 33.5947 38.2325C33.6427 38.2485 33.7387 38.2485 33.7387 38.2485Z" fill="#C3D0E4"/>
<path d="M23.8686 66.5147C23.7406 67.5065 23.6126 68.4983 23.4687 69.4581C23.3087 68.5143 23.1647 67.6025 23.0208 66.7067C22.4289 66.8507 21.837 66.9946 21.2451 67.1706C21.2451 68.7703 21.2451 70.386 21.2451 71.9856H22.5569L22.5409 69.2822C22.6848 70.162 22.8448 71.0578 22.9888 71.9856H23.9966C24.1245 71.0258 24.2685 70.05 24.3965 69.0582L24.4285 71.9856H25.7402L25.6602 66.1628C25.0683 66.2588 24.4605 66.3708 23.8686 66.5147ZM28.3797 70.9458L28.3477 69.1542C28.6196 69.1382 28.8756 69.1222 29.1475 69.1062L29.1315 68.0664C28.8596 68.0824 28.6036 68.1144 28.3317 68.1304L28.3157 66.7227C28.6036 66.6907 28.9076 66.6587 29.1955 66.6267L29.1795 65.5869C28.4277 65.6829 27.6758 65.7949 26.924 65.9229L27.0039 71.9536H29.2755L29.2595 70.9138L28.3797 70.9458ZM32.7628 70.8819L31.867 70.8978L31.803 65.315C31.3391 65.363 30.8752 65.411 30.4113 65.459L30.5072 71.9856H32.7788L32.7628 70.8819ZM35.6582 70.8499C35.5622 70.8499 35.4662 70.8499 35.3703 70.8499L35.3543 68.8663H35.6422L35.7702 69.0262L35.7862 70.7379L35.6582 70.8499ZM35.3383 66.1788L35.6262 66.1628L35.7542 66.3228L35.7702 67.6185L35.6422 67.7305L35.3543 67.7465L35.3383 66.1788ZM37.1619 65.5389L36.602 65.011C35.7062 65.043 34.8264 65.091 33.9305 65.139L33.9945 71.9696H36.634L37.1939 71.4257L37.1779 68.5623L36.8739 68.2424L37.1779 67.9225L37.1619 65.5389ZM40.2493 70.7219L40.1213 70.8339H39.9773L39.8333 70.7219V66.2108L39.9773 66.0988H40.1213L40.2493 66.2108V70.7219ZM38.9855 64.9471L38.4416 65.5069L38.4576 71.4257L39.0015 71.9696H41.0971L41.657 71.4257L41.673 65.5229L41.1131 64.9631C40.3932 64.9471 39.6894 64.9471 38.9855 64.9471ZM42.9367 64.995L42.9047 71.4257L43.4486 71.9696H45.5442L46.1041 71.4257L46.1681 65.155C45.7042 65.123 45.2403 65.091 44.7603 65.059L44.7124 70.7219L44.5844 70.8339C44.5364 70.8339 44.4884 70.8339 44.4404 70.8339L44.2964 70.7219L44.3444 65.043C43.8805 65.043 43.4166 65.011 42.9367 64.995ZM49.2074 67.9864L49.0795 68.0824L48.7915 68.0664L48.8075 66.4827L49.0955 66.5147L49.2234 66.6267L49.2074 67.9864ZM47.4318 65.267L47.3518 71.9856H48.7435L48.7915 69.1382L49.0795 69.1542C49.1275 69.1862 49.1595 69.2182 49.2074 69.2662C49.1914 70.178 49.1755 71.0898 49.1755 71.9856H50.5672L50.6152 69.0262C50.5032 68.9142 50.3752 68.8023 50.2632 68.6903L50.6312 68.4184L50.6631 66.1148C50.4872 65.9229 50.2952 65.7309 50.1193 65.5389C49.2074 65.443 48.3276 65.347 47.4318 65.267ZM53.7505 68.5303C53.5586 67.6825 53.3666 66.8347 53.1746 65.9868C52.7587 65.9229 52.3268 65.8429 51.9109 65.7789L51.8149 71.9696C52.2468 71.9696 52.6787 71.9696 53.1107 71.9696L53.1426 69.5061C53.3346 70.338 53.5426 71.1698 53.7345 71.9696H54.9983L55.0623 66.3388C54.6303 66.2588 54.2144 66.1628 53.7825 66.0988L53.7505 68.5303ZM56.246 71.9856H58.5176V71.2018L57.6377 71.1698V69.7301C57.8937 69.7621 58.1656 69.7941 58.4216 69.8261V69.0422C58.1656 68.9942 57.8937 68.9622 57.6377 68.9143V67.7785C57.9257 67.8425 58.2136 67.9065 58.5016 67.9704V67.1866C57.7657 66.9786 57.0299 66.8027 56.278 66.6267L56.246 71.9856ZM44.2484 22.9556C42.0889 24.2673 40.3292 23.7714 39.9293 23.6274L39.9133 23.6594C40.8571 24.6192 41.1291 25.963 41.1931 26.4429H41.2571C41.401 26.0589 41.9449 25.4031 42.5208 24.7632H41.673L43.5446 23.6754C43.8645 23.3555 44.1365 23.0835 44.2484 22.9556ZM57.3018 25.851C61.413 27.1147 63.6685 28.0585 66.9798 29.4343C66.8679 30.746 66.6119 33.9293 65.3482 37.3846C66.196 38.1365 67.0758 38.8723 67.9716 39.5922C69.7473 34.3453 69.7633 31.0019 69.7793 30.618C69.3794 29.8182 68.9474 29.0183 68.4995 28.2505C64.4843 26.9548 61.5409 26.1069 56.534 25.0191L57.3018 25.851Z" fill="#003CA0"/>
<path d="M49.2716 35.0492C47.496 35.0492 45.8163 34.5213 45.6404 34.4093C45.5764 34.2173 45.5924 33.7534 45.5764 33.3535H45.6084C45.8803 33.4175 46.1363 33.4815 46.3762 33.5455C48.2478 34.0254 49.3036 34.6173 49.8475 34.9532L49.9275 35.0012C49.7036 35.0812 49.2716 35.0492 49.2716 35.0492ZM54.3586 32.9856L54.7105 32.2657L54.7425 32.1858L54.7905 32.0898L55.0625 31.5459L55.4784 30.6501L55.2544 32.8416L54.2306 33.2255L54.3586 32.9856ZM45.0965 13.7735C44.7446 13.6135 44.3766 13.4695 44.0087 13.3576C43.7208 13.2616 43.5608 13.2296 43.5608 13.2296C43.4008 13.1976 43.2409 13.1656 43.0969 13.1336C43.2089 11.8539 45.7364 8.03065 45.7364 8.01465C44.6646 8.7665 42.9849 11.5339 42.2491 12.7657L42.1051 13.0216H42.0571C41.9771 13.0216 41.8971 13.0216 41.8012 13.0216H41.7052C42.8089 10.4941 44.5846 8.47855 45.8803 7.21481C46.2642 6.84689 46.6482 6.51095 47.0321 6.19102C47.1441 6.09504 47.2401 5.98306 47.336 5.87108C47.7839 5.2792 48.2318 4.67133 48.6638 4.06345L48.8077 3.87149C48.9677 3.66353 49.1597 3.43958 49.3356 3.26361C49.4476 3.15163 49.5596 3.05565 49.6396 3.00766C49.6716 3.03966 49.7195 3.13564 49.7835 3.35959V3.37559C50.3594 5.99906 49.8315 8.51055 48.2159 10.8781C47.432 12.0298 46.4562 13.0376 45.3364 13.8695C45.2565 13.8535 45.1765 13.8055 45.0965 13.7735ZM28.7638 36.1369C28.9398 35.6251 29.2757 34.4733 29.5796 33.3695C29.7716 32.6976 29.9636 31.9618 30.1555 31.2099C30.6514 29.2903 31.1633 27.2587 31.5152 25.899C31.5312 26.043 31.5632 26.187 31.5952 26.3309H31.6592H31.7552L31.7712 26.235L31.9632 25.3711V25.3551C31.9632 23.8034 32.459 22.1558 33.4668 20.4601C33.5628 20.3162 33.6428 20.1722 33.7388 20.0122L33.7548 19.9962L33.6588 19.1164L33.6108 19.1004C24.6686 15.7891 23.1329 12.4298 22.637 11.31C22.3171 10.6061 21.6612 9.77429 21.5333 9.61432C21.5013 9.56633 21.4693 9.53434 21.4213 9.50235L20.3175 8.7345L19.9176 8.46256C20.6534 8.39857 21.3893 8.35058 22.0932 8.35058C30.1715 8.35058 34.8426 12.8937 36.6822 15.1812H36.7462H36.7782H36.7942C37.45 15.2292 38.6018 15.4051 39.2417 15.6771V15.6611C38.6338 15.2612 38.3938 15.2132 37.786 14.8133C38.6658 14.6053 39.7856 14.4134 40.6654 14.2054L40.7614 14.1894H40.8094C41.1293 14.1414 41.4652 14.1254 41.7852 14.1254H41.8012C42.345 14.1254 42.8569 14.1734 43.3208 14.2854C43.3368 14.2854 45.7204 14.8293 48.5518 17.3728L47.9919 19.1324L48.3438 19.6123C50.2794 22.3157 52.439 25.2272 54.9185 28.4905L54.8385 28.7145L54.7265 28.7464C54.1826 28.9064 53.3188 29.1624 52.8069 29.1944H52.7749C52.487 29.1944 52.487 29.1464 51.9911 28.8744C51.8151 28.7784 51.6552 28.6825 51.4792 28.5865L51.0793 28.3625L46.6962 23.4195L46.7122 23.6915L46.8561 23.8994C47.2241 24.4113 47.576 24.9072 47.9599 25.4351C48.4558 26.171 49.5596 27.6427 50.1035 28.4265L51.5112 30.794L53.8147 31.6739C53.6068 32.2977 53.5108 32.6976 53.3028 33.3375L51.9271 34.2173C51.7671 34.3293 51.5912 34.4253 51.4152 34.5213C50.5194 34.9052 50.4874 34.8732 50.4874 34.8732C50.3434 34.9052 50.2634 34.9212 50.1195 34.9372L50.0715 34.8892L47.2081 32.7616L46.1523 31.9458L45.9443 31.7858C45.7683 31.9618 45.6084 32.1378 45.4164 32.2977C45.4004 32.4417 45.4004 32.5697 45.4004 32.7136V32.7296C45.4004 32.7776 45.4004 32.7936 45.4004 32.7936C43.9127 31.8178 41.0333 30.4581 41.0333 30.4581C40.9053 29.9462 41.1453 29.4343 41.2573 29.2583L41.1933 29.1784L41.1133 29.0184C41.0173 29.1464 40.0895 30.4581 38.6978 30.986C38.3139 31.146 37.9139 31.2099 37.498 31.2259C37.3221 31.2259 37.1301 31.2099 36.9541 31.1939C35.0985 31.066 33.8188 29.8182 33.2109 29.0824L33.1949 29.0664L33.1789 29.0504C33.1629 29.0344 33.0829 28.9384 32.9549 28.7624C32.923 28.7145 32.891 28.6665 32.859 28.6185C32.827 28.5705 32.827 28.5705 32.811 28.5385L32.747 28.5705C32.667 28.4425 32.603 28.3145 32.539 28.1866L32.507 28.2026C32.539 28.4425 32.571 28.6665 32.619 28.9064C32.619 28.9064 32.667 29.0024 32.747 29.1464C32.811 29.2583 32.907 29.3863 33.0509 29.5623C33.4668 30.0902 33.8828 30.5701 34.5066 30.922C34.5706 30.954 34.6186 30.986 34.6826 31.018H34.6986L34.7786 31.066H34.7946C36.0263 31.6259 36.1383 31.6898 38.0259 31.9938L37.9139 32.4737L39.8655 32.0258L41.4172 31.6739L41.1773 32.2017L41.1613 32.2497C41.4012 32.2977 41.6412 32.3297 41.8811 32.3457C42.409 32.4417 43.1449 32.6337 43.8647 33.0496C43.8967 33.0656 43.9287 33.0816 43.9447 33.0816C44.1847 33.1935 44.3766 33.3055 44.5526 33.4175C44.7126 33.8974 44.8725 34.4573 44.8885 34.4893L45.0325 35.1292L45.2724 35.2411C45.3044 35.2571 47.8479 36.1369 49.6396 36.1369C49.9435 36.1369 50.2314 36.089 50.5194 36.009C50.9353 35.897 51.3512 35.737 51.7351 35.5451C52.0071 35.4171 52.295 35.2571 52.599 35.0812C55.2064 36.6968 57.8459 38.2965 60.4854 39.8802L60.5174 39.8962L60.9333 39.7362L60.8373 39.6562C59.9255 38.9364 59.0297 38.2005 58.1178 37.4807C57.0461 36.6169 55.9583 35.737 54.8545 34.8412L54.0227 34.1693L54.1986 34.0414C54.7105 33.8334 55.2384 33.6255 55.7663 33.4175L55.8143 33.4015V33.3535C55.9263 31.8498 56.0543 30.2661 56.1982 28.4905L56.2142 28.1866L56.1822 28.1546C53.7027 25.1952 51.2392 22.1878 48.8397 19.1644L49.9595 17.1648L49.9915 17.1168L49.6716 16.8129C48.2318 15.4531 47.56 15.0852 46.6642 14.6053C47.1441 14.1894 48.5198 12.8617 49.4156 11.198C50.8553 8.47855 51.0473 6.06304 50.4234 3.19962C50.1995 2.22382 49.9755 1.64794 49.8315 1.66394C49.8315 1.66394 49.7995 1.64794 49.7515 1.69593C49.2876 2.27181 48.8397 2.8477 48.3758 3.42358C47.9279 4.07945 47.48 4.73531 47.0161 5.39118C46.6322 5.67912 45.5444 6.49496 44.2647 7.90267L44.3606 7.29479L43.0009 9.40637C42.2171 10.4462 41.4652 11.6459 40.9053 12.9896L40.5214 13.0536H40.4894L39.9135 13.1816L40.2495 13.4695L38.8258 13.4375L38.6498 13.9015C38.1539 13.8855 37.2261 13.6455 37.2261 13.6455L37.1141 13.9974C36.3623 13.1336 35.0825 11.7259 33.2909 10.5261C33.0349 10.3502 32.763 10.1902 32.491 10.0302L32.2191 9.87027L29.1477 8.17462L29.1957 8.60653C26.9082 7.82269 24.4287 7.47076 21.8052 7.47076C20.6534 7.47076 19.6137 7.48676 18.4139 7.64672C18.1899 7.67872 17.87 7.71071 17.806 7.95066C17.742 8.17462 17.838 8.41457 18.014 8.54254C18.9098 9.16642 19.7896 9.79029 20.6854 10.4142C20.8774 10.6701 21.3573 11.294 21.5973 11.8219C22.5251 13.8535 24.5247 17.1648 32.4111 20.1882C31.9472 21.292 31.6432 22.4437 31.4992 23.6275C31.3073 23.2916 31.0993 22.9556 30.9714 22.7477C30.9873 22.7317 30.2195 26.171 29.5636 29.7862L17.95 38.3765H18.7018C18.9418 38.2485 19.3577 38.0086 19.8536 37.7206C21.4373 36.8248 23.9008 35.3851 24.7646 34.8892C24.7646 34.8892 25.1485 34.0894 25.1165 35.0012C26.4603 34.1853 27.788 33.3695 29.0837 32.5697C28.9398 33.4175 28.8278 34.2813 28.7318 35.1452C28.6998 35.4331 28.6358 35.929 28.6198 36.1689L28.7638 36.1369Z" fill="#003CA0"/>
<path d="M42.1371 21.132C42.0411 21.2759 41.9451 21.4359 41.6572 21.4039C41.8171 21.2919 41.8011 21.052 41.8491 20.876C42.1051 21.004 42.1371 21.132 42.1371 21.132ZM41.2413 18.5245L41.5772 19.4683L41.0013 18.9724C40.1055 18.2686 39.1137 17.7087 38.0419 17.3247C37.706 17.3567 37.418 17.3887 37.2101 17.4207C37.77 17.6767 38.2819 17.9966 38.7298 18.3965C39.0497 18.6845 39.7536 19.4043 39.3057 19.8042C39.1297 19.9002 39.0017 19.8522 38.8897 19.7882L38.8417 19.8362C38.8897 19.8842 39.0337 19.9802 39.0977 20.0122C39.4176 20.2522 39.7696 20.5721 40.0415 20.876C39.9935 20.4761 40.2495 20.3001 40.5694 20.1562C40.4414 19.8842 40.2335 19.7243 40.0415 19.5483C40.3774 19.6763 40.7774 19.9962 41.0973 20.2681C40.9053 20.3801 40.7774 20.3961 40.6654 20.5241C39.8335 21.5639 42.1691 22.5557 42.505 21.244C42.681 21.2919 42.8729 21.3399 43.0649 21.3719C43.0169 21.4519 42.745 21.5159 42.649 21.4839C42.745 22.4757 41.6092 22.9236 40.6014 22.8596L40.6174 22.9076C41.4972 23.2915 43.0649 22.5717 43.7048 21.9318C43.8007 21.8358 43.8967 21.6279 44.0247 21.5799C44.1047 21.5479 44.3286 21.6599 44.4726 21.7079C44.8405 21.5159 46.0083 20.892 46.7761 20.4601L46.4402 20.4761C45.4004 20.7481 44.2007 20.86 43.4328 20.6361C42.585 20.3481 41.4332 18.7804 41.2413 18.5245ZM14.8626 52.4536C14.1108 49.0143 13.3749 45.559 12.6551 42.1037H8V70.0181C9.51969 69.2822 11.0554 68.6103 12.6231 67.9865L12.6711 57.3006C13.4229 60.692 14.1587 63.9553 14.8946 67.1386C16.4143 66.5948 17.95 66.1149 19.4857 65.6829L19.6456 42.1037H14.9106L14.8626 52.4536ZM28.0119 59.9721L27.532 60.372L26.9881 60.452L26.4763 60.1801L26.5722 46.0389L27.0841 45.687L27.628 45.671L28.0919 46.0069L28.0119 59.9721ZM23.5328 42.1197C22.861 42.7116 22.1891 43.3195 21.5333 43.9274L21.3893 63.3794C22.0452 63.8273 22.717 64.2752 23.3729 64.7231C25.9164 64.1632 28.4758 63.7313 31.0673 63.4434C31.7552 62.8035 32.443 62.1797 33.1309 61.5718L33.1949 43.7674C32.523 43.2235 31.8512 42.6636 31.1793 42.1037L23.5328 42.1197ZM41.2093 50.534C40.8573 50.534 40.5054 50.534 40.1535 50.534V45.511H41.2093L41.6892 45.847V50.2141C41.5132 50.3101 41.3692 50.422 41.2093 50.534ZM46.7761 53.4134C46.3282 53.0455 45.8963 52.6936 45.4484 52.3416L46.7761 51.3978L46.7441 43.7674C46.0723 43.2075 45.3844 42.6636 44.7126 42.1037H35.0825L35.0185 63.0755C36.7302 62.9635 38.4418 62.9155 40.1535 62.9155V53.9253H41.2093L41.6892 54.2613L41.7052 62.9475C43.4168 62.9795 45.1285 63.0755 46.8401 63.2194L46.7761 53.4134ZM47.608 42.1197L47.624 45.575C48.6957 45.591 49.7675 45.607 50.8393 45.639L50.9513 63.7153C52.6629 63.9553 54.3586 64.2592 56.0543 64.6272L55.9263 45.783C56.9981 45.815 58.0698 45.863 59.1416 45.9109L59.1096 42.1197C59.0936 42.1197 47.608 42.1197 47.608 42.1197ZM66.8041 42.1197C66.8201 45.463 66.8361 48.7904 66.8521 52.1337C66.3402 52.0537 65.8283 51.9737 65.3004 51.9097L65.2524 42.1197H60.2134L60.3734 65.6989C62.053 66.1628 63.7167 66.6907 65.3804 67.2986L65.3164 56.0049C65.8283 56.1009 66.3402 56.2129 66.8521 56.3248L66.9001 67.8905C68.5477 68.5304 70.1954 69.2502 71.8271 70.0341V42.1197H66.8041ZM14.1108 36.6968C13.039 33.5295 12.831 30.97 12.687 29.5623L11.8872 29.4983C12.1432 29.4023 12.6551 29.1783 12.6551 29.1783C16.7982 27.5307 21.9492 25.835 27.1001 24.4593C27.2601 24.2353 27.4361 23.9954 27.612 23.7874C21.8052 24.9392 15.8224 26.4589 11.1354 27.9786C10.6875 28.7624 10.2555 29.5463 9.85562 30.3621C9.85562 30.3621 9.85562 33.6574 11.5353 38.9364C12.3991 38.1845 13.2629 37.4487 14.1108 36.6968ZM23.8368 11.9498C29.4676 17.7087 32.587 18.0926 33.9787 17.8366C33.6268 17.5967 32.795 17.2448 32.443 17.0048H33.4988L32.9709 16.4289L34.3467 16.7969C33.5628 15.885 32.491 15.1012 31.3233 14.4773L27.852 13.2456L28.2519 13.1336C26.8602 12.6217 25.4205 12.2218 23.9648 11.9338L23.8368 11.9498ZM40.6974 78.0804L40.0575 78.5283L35.0185 73.8733H31.8352C35.5304 77.5205 38.3778 79.8561 38.5698 80H40.6334L47.56 73.8733H46.3922L40.6974 78.0804Z" fill="#003CA0"/>
</svg>
