<svg width="80" height="80" viewBox="0 0 80 80" fill="none" xmlns="http://www.w3.org/2000/svg">
<path d="M37.8597 80.0002H35.7392V70.6374H39.5561C39.9476 70.6374 40.3717 70.6374 40.7632 70.7026C40.9589 70.7353 41.1546 70.7679 41.3504 70.8332C41.5461 70.8984 41.7092 70.9963 41.905 71.0941C42.5574 71.5508 42.9489 72.3012 43.0141 73.0841C43.0141 73.182 43.0468 73.3125 43.0468 73.443C43.0468 73.8344 42.9489 74.2259 42.8184 74.5848C42.7532 74.7153 42.7205 74.8131 42.6553 74.911C42.5574 75.0741 42.4269 75.2046 42.2964 75.3351C42.1986 75.433 42.1007 75.4982 42.0028 75.5635C41.8397 75.6613 41.6766 75.7592 41.5135 75.8244L43.1446 79.837C42.4595 79.9023 41.8071 79.9349 41.3178 79.9675H40.861L39.4909 76.2812H37.9576V80.0002H37.8597ZM34.206 74.3238C34.3691 74.0302 34.4343 73.6387 34.4343 73.2472C34.4343 72.3338 34.0429 71.3225 33.3578 70.6374C33.0968 70.4091 32.8358 70.2133 32.5748 70.0828C32.3791 69.985 32.216 69.9197 32.0203 69.8545C31.9224 69.8218 31.8245 69.7892 31.7266 69.7566C31.5309 69.6914 31.3352 69.6587 31.1721 69.5935L27.5835 68.6148V77.8471C28.2034 78.0754 28.8232 78.3038 29.3452 78.4343C29.4104 78.4669 29.4757 78.4669 29.5735 78.4995V74.8458L31.0416 75.2372L32.3465 79.2825L34.5648 79.8697L32.9989 75.3025C33.5209 75.172 33.945 74.8458 34.206 74.3238ZM44.319 79.7718C45.1672 79.7066 45.9176 79.6087 46.4395 79.5108V70.3764L44.319 70.7679V79.7718ZM54.3669 71.2572C54.3669 71.192 54.3343 71.1268 54.3343 71.0615C54.1711 70.4417 53.9428 69.8871 53.6165 69.463C53.4861 69.2999 53.3556 69.1694 53.2251 69.0715C53.1925 69.0389 53.1272 69.0063 53.0946 68.9736C52.8989 68.8432 52.7031 68.7779 52.4747 68.7453C52.4095 68.7453 52.3769 68.7127 52.3116 68.7127C52.1811 68.7127 52.0833 68.68 51.9528 68.7127C51.6592 68.7127 51.333 68.7779 50.9741 68.9084C50.811 68.9736 50.6805 69.0063 50.5174 69.0715C50.3869 69.1368 50.2238 69.202 50.0933 69.2673C49.6366 69.5282 49.2125 69.8871 48.8536 70.2786C47.8097 71.4856 47.353 73.2146 47.353 74.8131C47.353 75.9876 47.6139 77.1293 48.2338 77.8797C48.2664 77.9449 48.3317 77.9775 48.3643 78.0428C48.6579 78.369 49.0167 78.5648 49.4082 78.63C49.6366 78.6626 49.8649 78.6952 50.1259 78.6626C50.3869 78.63 50.6479 78.5648 50.9415 78.4995C51.0067 78.4669 51.072 78.4669 51.1698 78.4343C51.3003 78.369 51.4635 78.3364 51.5939 78.2385C51.7244 78.1733 51.8549 78.108 51.9854 78.0102C52.5726 77.6513 53.0946 77.1293 53.4861 76.4769C53.5839 76.3464 53.6818 76.1833 53.747 76.0202C53.8123 75.8897 53.8775 75.7592 53.9428 75.5961C54.1059 75.172 54.269 74.7153 54.3669 74.2585C54.4974 73.6387 54.5626 73.0515 54.5626 72.4969C54.5626 72.2033 54.53 71.9097 54.4974 71.6487C54.4321 71.5182 54.3995 71.3877 54.3669 71.2572ZM22.527 65.9397L20.0803 73.8671L21.6462 74.7805L22.1355 73.1494L24.6149 74.5848L25.0716 76.7705L25.2347 76.8684C25.6262 77.0315 26.2134 77.2598 26.8985 77.5208L24.5822 67.1141L22.527 65.9397ZM61.0219 65.2873C60.9567 65.1568 60.8914 65.0589 60.8262 64.961C60.6631 64.7653 60.5 64.6674 60.2716 64.6348C60.0106 64.6022 59.7496 64.6674 59.456 64.7979C59.4234 64.8306 59.3908 64.8306 59.3255 64.8632C59.2603 64.8958 59.1624 64.9284 59.0972 64.9937C59.0646 65.0263 59.0319 65.0263 58.9667 65.0589C58.8688 65.0915 58.8036 65.1568 58.7057 65.222C58.5752 65.2873 58.4447 65.3851 58.3469 65.4504L55.2151 67.5382V76.901L56.9441 75.7266V72.0402L58.2164 71.192L59.3582 74.128L61.2829 72.8231L59.9128 69.5935C60.4021 69.0389 60.7936 68.2886 61.0219 67.5709C61.1524 67.1468 61.2177 66.69 61.2177 66.2986C61.2177 66.005 61.185 65.744 61.1198 65.5156C61.0872 65.4504 61.0546 65.3525 61.0219 65.2873ZM52.2464 75.0089C52.2138 75.1067 52.2138 75.172 52.1812 75.2372C51.9528 76.0202 51.5939 76.4769 50.9089 76.7053C49.5061 77.162 49.3756 75.3351 49.3756 74.1607C49.3756 73.8018 49.4082 73.3451 49.4735 72.8884C49.5061 72.7253 49.5387 72.5295 49.5713 72.3664C49.604 72.2686 49.604 72.2033 49.6366 72.1381C49.8649 71.3877 50.2564 70.8658 50.9089 70.67C51.1372 70.6048 51.333 70.5722 51.4961 70.6048C51.7244 70.6374 51.8875 70.7679 52.018 70.9963C52.0507 71.0615 52.0833 71.1267 52.1159 71.192C52.1485 71.2572 52.1811 71.3225 52.2138 71.4204C52.3769 71.9423 52.4421 72.6274 52.4421 73.2146C52.4421 73.7366 52.4095 74.4217 52.2464 75.0089ZM39.0342 74.6826C39.4583 74.6826 39.9476 74.7153 40.3064 74.4869C40.6653 74.2585 40.8284 73.8345 40.8284 73.4104C40.8284 73.2799 40.7958 73.1167 40.7305 72.9862C40.6653 72.8231 40.5348 72.66 40.4043 72.5295C40.3717 72.4969 40.3391 72.4643 40.3064 72.4643C39.9476 72.2359 39.3604 72.3012 38.9363 72.3012H37.8271V74.6826H39.0342ZM31.8571 73.6061C31.5309 73.7366 31.172 73.6061 30.7806 73.5082C30.7153 73.5082 29.5409 73.182 29.5409 73.182V70.8005L30.5848 71.0941C30.6827 71.1267 30.7806 71.1594 30.9111 71.1594C31.0089 71.192 31.1394 71.2246 31.2699 71.2572C31.4983 71.3225 31.7266 71.453 31.8898 71.6161C31.955 71.6813 32.0202 71.7466 32.0855 71.8445C32.2486 72.1054 32.3791 72.4317 32.3791 72.6927C32.3465 73.0841 32.1834 73.4756 31.8571 73.6061ZM19.3626 64.4717L18.1882 69.7892L18.1556 69.7566L16.8833 62.3838L15.2521 61.0137L14.0125 66.2986L13.9798 66.266L12.8054 58.9911L10.9785 57.4578L12.9359 68.4843L14.6649 69.9523L15.872 64.7653L15.9046 64.7979L17.1442 71.9749L19.0037 73.182L20.8306 65.744L19.3626 64.4717ZM22.5596 71.6813L23.3752 68.8758L24.1908 72.6274L22.5596 71.6813ZM66.9267 63.3951C66.7309 63.3625 66.5026 63.4278 66.2416 63.5256C66.0458 63.5909 65.8175 63.6888 65.5891 63.7866C65.4913 63.8192 65.426 63.8519 65.3281 63.9171C65.1977 63.9824 65.0672 64.0476 64.9693 64.0802C64.5452 64.3086 63.8927 64.6348 63.8927 63.9497C63.8927 63.5256 64.0559 63.1668 64.3168 62.8732C64.3821 62.8079 64.4147 62.7427 64.48 62.6774C64.5452 62.6122 64.6105 62.547 64.6431 62.5143C64.7409 62.4491 64.8388 62.3512 64.9041 62.286C65.0345 62.1881 65.1324 62.1228 65.2629 62.0576C65.3608 61.9924 65.4586 61.9597 65.5565 61.9271C65.6218 61.9271 65.687 61.8945 65.7196 61.9271C65.7522 61.9271 65.7849 61.9271 65.7849 61.9271C65.8175 61.9271 65.8827 61.9597 65.9154 61.9924C65.948 61.9924 65.948 62.025 65.9806 62.0576C66.0458 62.1228 66.0785 62.1881 66.1437 62.3186C66.1437 62.3512 66.1763 62.3838 66.1763 62.4165L67.6444 60.6875C67.5465 60.3612 67.3834 60.1329 67.1876 60.0024C66.9593 59.8393 66.6657 59.774 66.3721 59.8393C66.3068 59.8393 66.2416 59.8719 66.1763 59.8719C66.0458 59.9045 65.9154 59.9698 65.7522 60.035C65.4586 60.1655 65.165 60.3612 64.8388 60.6222C64.5778 60.8179 64.3168 61.0463 64.0885 61.2747C63.697 61.6988 63.3055 62.1881 62.9793 62.8079C62.8488 63.0363 62.7183 63.2973 62.6205 63.5256C62.5226 63.754 62.4247 64.015 62.3595 64.2433C62.2942 64.4717 62.229 64.7001 62.1964 64.9284C62.1637 65.1568 62.1311 65.3851 62.1311 65.6135C62.1311 66.4291 62.3595 66.8532 62.6857 67.0163C62.7509 67.0489 62.8488 67.0815 62.9467 67.0815C62.9793 67.0815 63.0119 67.0815 63.0446 67.0815C63.3708 67.0815 63.7296 66.9836 64.1537 66.7879C64.3495 66.69 64.5452 66.5922 64.7736 66.4943C65.2303 66.266 66.0785 65.7766 66.0785 66.5596C66.0785 66.9837 65.8827 67.4077 65.5891 67.7666C65.5239 67.8318 65.4586 67.9297 65.3934 67.995C65.3282 68.0602 65.2629 68.1255 65.1976 68.1907C65.0998 68.2886 65.0019 68.3538 64.9041 68.4517C64.3821 68.8432 63.958 69.0063 63.6644 68.8105C63.5339 68.7127 63.436 68.5496 63.3708 68.2886L61.7723 69.9523C61.9027 70.5395 62.1637 70.8984 62.49 71.0289C63.0772 71.2572 63.8927 70.931 64.7736 70.2786C65.5239 69.724 66.3395 68.9084 66.9267 67.8971C66.9919 67.7666 67.0572 67.6361 67.1224 67.5056C67.2529 67.2446 67.3508 66.9837 67.4486 66.7227C67.677 66.0702 67.8401 65.4178 67.8401 64.8305C67.8401 64.3738 67.7422 64.015 67.5791 63.754C67.4813 63.5583 67.2529 63.4278 66.9267 63.3951ZM58.9667 68.8758C58.8036 69.1041 58.6405 69.2672 58.4447 69.3977C58.3469 69.463 56.9441 70.4091 56.9441 70.4091V68.0276L57.8575 67.4078C57.9228 67.3425 58.0206 67.2773 58.1185 67.212C58.249 67.1142 58.4121 67.0163 58.5752 66.951C58.7383 66.8858 58.8688 66.8205 58.9667 66.8532C59.2277 66.8858 59.3908 67.1468 59.3908 67.5382C59.4234 67.9297 59.2603 68.4517 58.9667 68.8758ZM41.644 65.9397L39.8823 67.8318L37.8597 65.9397L27.5509 64.6022L17.8293 59.0237L11.7941 51.7814L8.56444 44.115L5.56314 40.4939L4.91069 37.3948V34.4587L6.86805 32.1751L4.0625 1.90112L75.8001 2.06424L72.8966 32.2077L74.8214 36.3182V39.711L70.7109 45.7462L65.9154 54.6522L61.1198 59.0563L54.269 63.3951L45.2977 65.9723H41.644V65.9397Z" fill="white"/>
<path d="M76.6484 0.987549C76.6484 0.987549 74.1039 28.1297 73.745 32.1423C75.3435 33.7735 75.8981 35.8287 75.8981 37.4925C75.8981 39.5803 74.6258 42.0271 72.4075 44.3107C72.2117 44.5064 71.9834 44.7021 71.7876 44.9305C70.809 47.8991 69.2104 51.3572 66.7311 54.6195C62.1313 60.7852 54.3671 66.2984 41.8073 66.853L39.8825 68.843L37.9578 66.8856C25.3001 66.4289 17.5359 60.8504 12.9034 54.6195C10.4241 51.2919 8.85823 47.8339 7.87954 44.8326C7.68381 44.6695 7.52069 44.4738 7.32495 44.3107C5.1066 42.0271 3.83431 39.5803 3.83431 37.4925C3.83431 35.8287 4.38889 33.8061 5.95479 32.175C5.30233 24.737 3.08398 0.987549 3.08398 0.987549H76.6484Z" fill="#262C68"/>
<path fill-rule="evenodd" clip-rule="evenodd" d="M77.632 1.07984L76.6487 0.987655H3.08421L2.10083 1.07951L2 0H77.7333L77.632 1.07984ZM3.17638 1.97531C3.11722 1.34112 3.08421 0.987655 3.08421 0.987655C2.10083 1.07951 2.10082 1.07933 2.10083 1.07951L2.45762 4.9063C2.67577 7.24892 2.97344 10.4499 3.29149 13.8832C3.90409 20.4961 4.59201 27.9679 4.93324 31.8309C3.39597 33.6133 2.84687 35.7357 2.84687 37.4926C2.84687 39.9503 4.31749 42.6321 6.61675 44.9989L6.65296 45.0362L6.69289 45.0695C6.75065 45.1176 6.80918 45.1752 6.9041 45.2701L6.91375 45.2798C6.94567 45.3117 6.98236 45.3484 7.02289 45.3877C8.03264 48.4112 9.62427 51.8711 12.1111 55.2088C16.861 61.5978 24.7814 67.2876 37.5277 67.8568L39.8886 70.2577L42.2457 67.8207C54.8842 67.1552 62.801 61.5377 67.5204 55.2136C70.0203 51.9233 71.6476 48.4466 72.6588 45.4412C72.7154 45.3833 72.7729 45.3291 72.8396 45.2664C72.9135 45.1968 72.9986 45.1167 73.1061 45.0091L73.1111 45.0041L73.1161 44.9989C75.4154 42.6321 76.886 39.9503 76.886 37.4926C76.886 35.739 76.3385 33.5835 74.7683 31.7937C74.9977 29.2654 75.6759 21.99 76.3149 15.1522C76.6554 11.5087 76.9847 7.99065 77.2288 5.38341L77.6319 1.08108L77.632 1.07984C77.632 1.07964 77.632 1.07984 76.6487 0.987655C76.6487 0.987655 76.6155 1.34185 76.5561 1.97531C76.0958 6.88703 74.0631 28.5882 73.7452 32.1424C75.3438 33.7736 75.8984 35.8288 75.8984 37.4926C75.8984 39.5804 74.6261 42.0272 72.4077 44.3108C72.3436 44.3749 72.276 44.4389 72.2072 44.5042C72.0659 44.6382 71.9195 44.777 71.7879 44.9306C70.8092 47.8993 69.2107 51.3573 66.7313 54.6196C62.1315 60.7853 54.3673 66.2985 41.8075 66.8531L39.8827 68.8431L37.958 66.8858C25.3003 66.429 17.5361 60.8505 12.9037 54.6196C10.4243 51.292 8.85845 47.834 7.87977 44.8327C7.7819 44.7512 7.69218 44.6614 7.60247 44.5717C7.51276 44.482 7.42304 44.3923 7.32517 44.3108C5.10682 42.0272 3.83453 39.5804 3.83453 37.4926C3.83453 35.8288 4.38912 33.8062 5.95501 32.1751C5.38215 25.6445 3.60216 6.53957 3.17638 1.97531Z" fill="white"/>
<path d="M32.9664 59.5134H32.9338V59.4481L32.9011 59.3829L32.8685 59.3177V59.2198L32.8359 59.1219L32.8033 58.9914L32.7706 58.8936L32.738 58.7304L32.7054 58.5673L32.6401 58.4042L32.6075 58.2411L32.5749 58.0127L32.5423 57.817L32.477 57.5886L32.4444 57.3276L32.4118 57.0667L32.3792 56.7731L32.3139 56.4795L32.2813 56.1532L32.2487 55.7944L32.1834 55.4355L32.1508 55.0767L32.1182 54.6852L32.0856 54.2611L32.0529 53.8044L32.0203 53.3477L31.9877 52.8583V52.891L31.9551 52.4016V51.9123L31.9877 51.3903V50.8683L32.0203 50.3137L32.0529 49.7592L32.0856 49.1719L32.1508 48.6174L32.1834 48.0301L32.2487 47.4429L32.3139 46.8883L32.3792 46.3011L32.477 45.7465L32.5423 45.192L32.6075 44.6374L32.6728 44.0828L32.7706 43.5608L32.8359 43.0715L32.9011 42.5821L32.999 42.1254L33.0642 41.6687L33.1295 41.2772L33.1947 40.8858L33.26 40.5269L33.3252 40.2007L33.3579 39.9071L33.3905 39.7113L33.4884 39.744L33.5862 39.8092L33.7167 39.9071L33.8472 40.0049L33.9777 40.0702L34.1082 40.1681L34.2713 40.2659L34.4018 40.3638L34.5649 40.4617L34.728 40.5595L34.8911 40.6574L35.0216 40.7553L35.1847 40.8531L35.3478 40.951L35.511 41.0815L35.6741 41.1794L35.8372 41.2772L35.9677 41.3751L36.1308 41.473L36.2939 41.5708L36.4244 41.6361L36.5549 41.7339L36.6854 41.8318L36.8159 41.8971L36.9464 41.9949L37.0769 42.0602L37.2073 42.158L37.3378 42.2559L37.4357 42.3538L37.5662 42.4517L37.6967 42.5495L37.8272 42.6474L37.9577 42.7453L38.0556 42.8431L38.186 42.941L38.2839 43.0715L38.4144 43.1367L38.5123 43.2346L38.6428 43.3325L38.7406 43.4303L38.8385 43.5282L38.8711 43.5608L39.9477 60.329L41.0242 43.463H41.0568L41.1873 43.3651L41.2852 43.2672L41.4157 43.1694L41.5136 43.0715L41.6441 42.9736L41.7745 42.8757L41.905 42.7453L42.0355 42.6474L42.166 42.5495L42.2965 42.4517L42.427 42.3538L42.5575 42.2559L42.688 42.158L42.8185 42.0928L42.949 41.9949L43.0795 41.8971L43.21 41.8318L43.2426 41.7992L43.3404 41.7339L43.4709 41.6361L43.6014 41.5382L43.7319 41.473L43.8624 41.3751L44.0255 41.2772L44.156 41.1794L44.3191 41.0489L44.4822 40.951L44.6453 40.8531L44.8085 40.7553L44.939 40.6574L45.1021 40.5595L45.2652 40.4617L45.4283 40.3638L45.5588 40.2659L45.7219 40.1681L45.8524 40.0702L45.9829 40.0049L46.146 39.9071L46.2439 39.8418L46.3744 39.744L46.4722 39.6787H46.5048L46.5375 39.9071L46.5701 40.2007L46.6353 40.5269L46.7006 40.8858L46.7658 41.2772L46.8311 41.6687L46.8963 42.1254L46.9942 42.5821L47.0594 43.0715L47.1247 43.5608L47.2226 44.0828L47.2878 44.6374L47.3531 45.192L47.4509 45.7465L47.5162 46.3011L47.5814 46.8883L47.6466 47.4429L47.7119 48.0301L47.7445 48.6174L47.8098 49.1719L47.8424 49.7592L47.875 50.3137L47.9076 50.8683L47.9403 51.3903V51.9123V52.4016L47.9076 52.891V52.8583V53.3477L47.875 53.8044L47.8098 54.2611L47.7771 54.6852L47.7445 55.0767L47.7119 55.4355L47.6466 55.7944L47.614 56.1532L47.5814 56.4795L47.5488 56.7731L47.4835 57.0667L47.4509 57.3276L47.4183 57.5886L47.3531 57.817L47.3204 58.0127L47.2878 58.2411L47.2552 58.4042L47.1899 58.5673L47.1573 58.7304L47.1247 58.8936L47.0921 58.9914L47.0594 59.1219V59.2198L47.0268 59.3177L46.9942 59.3829L46.9616 59.4481V59.5134H46.9289L39.8824 66.723L32.9664 59.5134Z" fill="white"/>
<path d="M35.0546 64.8957L32.9015 64.6021L30.8789 64.178L28.9541 63.6886L27.1599 63.1014L25.4635 62.4164L23.865 61.666L22.3643 60.8178L20.9615 59.937L19.6566 58.991L18.4496 57.9797L17.3078 56.9357L16.2638 55.8592L15.2852 54.75L14.3717 53.6082L13.5562 52.4664L12.8058 51.292L12.1208 50.1176L11.5009 48.9431L10.9463 47.8013L10.457 46.6922L10.0981 45.7461L10.5549 46.0723L11.0768 46.4312L11.6314 46.79L12.186 47.1489L12.7732 47.4751L13.393 47.8013L14.0129 48.1276L14.6653 48.4212L15.3178 48.7148L16.0029 48.9758H16.0355C17.7645 51.6835 20.8963 55.5003 25.855 58.1754C28.3995 59.4151 30.8463 60.2306 32.9667 60.7526L37.0772 65.0588L35.0546 64.8957Z" fill="white"/>
<path d="M67.0901 51.2594L66.3398 52.4339L65.5242 53.6083L64.6108 54.7501L63.6321 55.8592L62.5556 56.9358L61.4138 57.9797L60.1741 58.9911L58.8365 59.9371L57.4012 60.8506L55.8679 61.6987L54.2367 62.4491L52.5077 63.1342L50.6808 63.7214L48.7235 64.2107L46.6682 64.6348L44.4825 64.9284L42.7861 65.0589L46.9945 60.7853C49.0823 60.2633 51.4964 59.4478 53.9431 58.2081C58.9997 55.533 62.1641 51.7162 63.9257 49.0085H63.9583L64.6434 48.7475L65.2959 48.4539L65.9483 48.1603L66.5682 47.834L67.188 47.5078L67.7752 47.1816L68.3298 46.8227L68.8844 46.4639L69.4063 46.105L69.8304 45.7788L69.4716 46.6922L68.9823 47.8014L68.4277 48.9432L67.8078 50.1176L67.0901 51.2594Z" fill="white"/>
<path d="M31.4009 59.0561C31.4009 59.0561 22.6253 56.7725 18.5475 50.248C18.4496 50.0848 21.1573 51.3897 30.6505 51.5855C30.6179 51.5855 30.5527 55.3697 31.4009 59.0561Z" fill="white"/>
<path d="M49.2458 51.5855C58.7391 51.3897 61.4468 50.0848 61.3489 50.248C57.2711 56.7725 48.4629 59.0561 48.4629 59.0561C49.3111 55.3697 49.2458 51.5855 49.2458 51.5855Z" fill="white"/>
<path d="M52.5401 35.7639L53.2905 35.5029L54.0082 35.2745L54.7585 35.0135L55.4762 34.8178L56.1939 34.5895L56.9442 34.4263L57.6619 34.2306L58.347 34.1001L59.0321 33.9696L59.7172 33.8391L60.4023 33.7413L61.0547 33.676L61.7072 33.6108L62.327 33.5781L62.9142 33.5455H63.5014L64.056 33.6108L64.6106 33.6434L65.1326 33.7413L65.6219 33.8391L66.0786 34.0022L66.5353 34.1653L66.9268 34.3611L67.3183 34.5895L67.6771 34.883L67.9707 35.1767L68.2317 35.5355L68.4601 35.927L68.6558 36.3185L68.7537 36.7752L68.8516 37.2645L68.8842 37.7539L68.8516 38.2758L68.7863 38.7652L68.6884 39.2871L68.5253 39.7765L68.3622 40.2658L68.1338 40.7552L67.9055 41.2119L67.6119 41.6686L67.2857 42.1253L66.9594 42.5494L66.568 42.9735L66.1765 43.3976L65.7198 43.7891L65.263 44.1806L64.7737 44.572L64.2517 44.9309L63.7298 45.2571L63.1752 45.5833L62.588 45.9096L61.9681 46.2032L61.3483 46.4968L60.6958 46.7578L60.0434 46.9861L59.3583 47.2145L58.6732 47.4102L57.9555 47.606L57.2378 47.7691L56.4875 47.8996L55.7372 48.03L54.9542 48.0953L54.1713 48.1932L53.3883 48.2258H52.6054L51.8224 48.2584H51.0721L50.3544 48.2258H49.6367H48.9516L48.5928 48.1932V48.5194L48.658 49.1066L48.6906 49.6938L48.7233 50.1179H49.1474L49.9956 50.1505L50.909 50.1179H51.8224L52.7685 50.0853L53.7146 50.02L54.6606 49.9548L55.6393 49.8895L56.5854 49.7591L57.5641 49.6286L58.5101 49.4981L59.4562 49.3023L60.4023 49.1066L61.3483 48.8782L62.2617 48.6173L62.9468 48.3889L63.6319 48.1605L64.2844 47.8996L64.9368 47.6386L65.5567 47.345L66.1439 47.0187L66.7311 46.7251L67.3183 46.3989L67.8403 46.0401L68.3622 45.7138L68.8842 45.355L69.3735 44.9635L69.8302 44.6046L70.2543 44.2132L70.6784 43.8217L71.1025 43.4302L71.4614 43.0388L71.8202 42.6473L72.1465 42.2558L72.4727 41.8317L72.7337 41.4402L72.9947 41.0488L73.2556 40.6573L73.4514 40.2658L73.6471 39.8743L73.8102 39.4829L73.9407 39.124L74.0386 38.7652L74.1365 38.4063L74.2017 38.0475L74.2343 37.7212L74.267 37.395L74.2343 37.0688V36.7426L74.1691 36.3837L74.1038 36.0248L74.0386 35.666L73.9081 35.3398L73.8102 34.9483L73.6471 34.6221L73.4514 34.2632L73.2556 33.9044L73.0273 33.5781L72.7663 33.2519L72.4727 32.9257L72.1791 32.5995L71.8202 32.3059L71.4288 32.0122L71.0047 31.7513L70.5479 31.4903L70.0586 31.2619L69.5366 31.0662L68.9494 30.8704L68.3296 30.7073L67.6771 30.5768L66.9594 30.479L66.2091 30.4137L65.3935 30.3811H64.5453L63.6319 30.4137L62.6858 30.479L61.7072 30.6095L60.6306 30.7726L59.5214 30.9683L58.3796 31.1967L57.3031 31.4577L56.2265 31.7186L55.1826 32.0449L54.1713 32.3711L53.1926 32.6973L52.2792 33.0562L51.3657 33.4477L50.4849 33.8391L49.6367 34.2306L48.8211 34.6547L48.0382 35.0462L47.2879 35.4703L46.5702 35.8617L45.9177 36.2858L45.2653 36.7099L44.678 37.1014L44.0908 37.4929L43.5689 37.8517L43.4384 37.9822L43.0795 38.2106V38.2432L42.6228 38.5694L42.1987 38.9283L41.8072 39.2219L41.481 39.5155L41.1548 39.7765L40.8938 40.0048L40.6654 40.2332L40.5023 40.3963L40.3392 40.5268L40.2413 40.6247L40.1761 40.6899L39.8499 41.0161L39.5563 40.6899H39.5236L39.491 40.6247L39.3931 40.5268L39.23 40.3963L39.0669 40.2006L38.8386 40.0048L38.5776 39.7765L38.284 39.5155L37.9577 39.2219L37.5663 38.9283L37.1748 38.5694L36.7507 38.2758L36.6528 38.178H36.6202L36.2287 37.8517L35.7068 37.4929L35.1522 37.1014L34.5323 36.6773L33.9125 36.2858L33.2274 35.8617L32.5423 35.4703L31.792 35.0462L31.0417 34.6547L30.2261 34.2306L29.3779 33.8391L28.5297 33.4477L27.6163 33.0562L26.6702 32.6973L25.6916 32.3711L24.7129 32.0449L23.6689 31.7186L22.5924 31.4577L21.5158 31.1967L20.374 30.9683L19.2649 30.7726L18.2209 30.6095L17.2096 30.479L16.2636 30.4137L15.3501 30.3811H14.5019L13.6864 30.4137L12.936 30.479L12.2183 30.5768L11.5659 30.7073L10.946 30.8704L10.3914 31.0662L9.83687 31.2619L9.34753 31.4903L8.8908 31.7513L8.46671 32.0122L8.07523 32.3059L7.71639 32.5995L7.42277 32.9257L7.12916 33.2519L6.86818 33.5781L6.63982 33.9044L6.44409 34.2632L6.24836 34.6221L6.11786 34.9483L5.98736 35.3398L5.85688 35.666L5.79163 36.0248L5.72638 36.3837L5.69377 36.7426L5.66113 37.0688V37.395V37.7212L5.69377 38.0475L5.75902 38.4063L5.85688 38.7652L5.95475 39.124L6.08525 39.4829L6.24836 39.8743L6.44409 40.2658L6.67245 40.6573L6.90082 41.0488L7.16179 41.4402L7.45539 41.8317L7.749 42.2558L8.07523 42.6473L8.43407 43.0388L8.82555 43.4302L9.21703 43.8217L9.64112 44.2132L10.0652 44.6046L10.5219 44.9635L11.0113 45.355L11.5332 45.7138L12.0552 46.0401L12.6098 46.3989L13.1644 46.7251L13.7516 47.0187L14.3388 47.345L14.9586 47.6386L15.6111 47.8996L16.2636 48.1605L16.9486 48.3889L17.6337 48.6173L18.5471 48.8782L19.4932 49.1066L20.4393 49.3023L21.3853 49.4981L22.3314 49.6286L23.3101 49.7591L24.2561 49.8895L25.2022 49.9548L26.1483 50.02L27.0943 50.0853L28.0078 50.1179H28.9212L29.8347 50.1505L30.7155 50.1179H30.9438H31.1722L31.2048 49.6938L31.2374 49.1066L31.3027 48.5194L31.3353 48.1932L30.9112 48.2258H30.2588H29.541L28.8233 48.2584H28.073L27.2901 48.2258H26.5071L25.7242 48.1932L24.9412 48.0953L24.1909 48.03L23.408 47.8996L22.6903 47.7691L21.9399 47.606L21.2222 47.4102L20.5372 47.2145L19.8521 46.9861L19.1996 46.7578L18.5471 46.4968L17.9273 46.2032L17.3075 45.9096L16.7529 45.5833L16.1657 45.2571L15.6437 44.9309L15.1218 44.572L14.6324 44.1806L14.1757 43.7891L13.7516 43.3976L13.3275 42.9735L12.936 42.5494L12.6098 42.1253L12.2836 41.6686L11.99 41.2119L11.7616 40.7552L11.5332 40.2658L11.3701 39.7765L11.207 39.2871L11.1091 38.7652L11.0439 38.2758L11.0113 37.7539L11.0439 37.2645L11.1091 36.7752L11.2396 36.3185L11.4354 35.927L11.6311 35.5355L11.8921 35.1767L12.2183 34.883L12.5446 34.5895L12.936 34.3611L13.3275 34.1653L13.7842 34.0022L14.241 33.8391L14.7303 33.7413L15.2523 33.6434L15.7742 33.6108L16.3288 33.5455H16.916L17.5032 33.5781L18.1231 33.6108L18.7755 33.676L19.428 33.7413L20.1131 33.8391L20.7655 33.9696L21.4832 34.1001L22.2009 34.2306L22.9186 34.4263L23.6363 34.5895L24.354 34.8178L25.1043 35.0135L25.8547 35.2745L26.605 35.5029L27.3553 35.7639L27.4206 35.7965L27.3879 35.7639L28.1057 36.0575L28.8233 36.3511L29.541 36.6447L30.2261 36.9709L30.8786 37.2971L31.531 37.6234L32.1509 37.9496L32.7707 38.2758L32.8033 38.3084V38.2758L32.9664 38.3737L33.3253 38.6021L33.9125 38.9283L34.4345 39.2545L34.9564 39.5807L35.4458 39.907L35.9025 40.2006L36.3592 40.5268L36.7833 40.8204L37.1422 41.0814L37.2727 41.1793L37.4032 41.2771L37.5663 41.375L37.6968 41.4729L37.8273 41.5707L37.9577 41.6686L38.0882 41.7665L38.2187 41.8643L38.3492 41.9622L38.4797 42.0927L38.6102 42.1906L38.7407 42.2884L38.8712 42.3863L38.9691 42.4842L39.0995 42.6147L39.1974 42.6799L39.2953 42.7778L39.3931 42.8756L39.491 42.9735L39.5889 43.0714L39.6868 43.1366L39.752 43.2019L39.8172 43.2671L39.8825 43.3324L39.9477 43.2671L40.0782 43.1366L40.274 42.9735L40.4697 42.8104L40.6981 42.6147L40.959 42.3863L41.2526 42.1579L41.5462 41.9296L41.9051 41.6686L42.2639 41.375L42.6228 41.114L43.0469 40.8204L43.471 40.5268L43.9277 40.2006L44.4171 39.907L44.9064 39.5807L45.4284 39.2545L45.9503 38.9283L46.5375 38.6021L47.1248 38.2758L47.712 37.9496L48.3644 37.6234L48.9843 37.2971L49.6693 36.9709L50.3544 36.6447L51.0721 36.3511L51.7898 36.0575L52.5401 35.7639Z" fill="white"/>
<path d="M28.8242 47.2467H29.5419L30.9121 47.2141L31.3362 47.1815L31.4014 46.7574L31.4667 46.2028L31.5319 45.6156L31.5972 45.061L31.7603 43.9518L31.8255 43.4299L31.8908 42.9405L31.956 42.4512L32.0213 41.9618L32.0865 41.5377L32.1518 41.1137L32.3475 40.0371L32.4127 39.7761L32.4454 39.5804C32.4454 39.4825 32.478 39.4173 32.5106 39.3194H32.478C32.4454 39.3194 32.3801 39.2541 32.3801 39.2541C32.3475 39.2541 32.3149 39.2215 32.3149 39.2215L31.6951 38.8953L31.0752 38.5691L30.4554 38.2428L29.8029 37.9166L29.1505 37.623L28.4654 37.3294L27.7477 37.0358L27.0626 36.7748L26.3123 36.5138L25.5619 36.2855L24.8443 36.0571L24.1266 35.8287L23.4088 35.633L23.0174 35.5351C18.809 34.8174 16.9169 36.6769 16.2971 37.4599C16.0687 37.884 15.873 38.3733 15.7425 38.9279V38.9605C15.4489 40.0045 15.5141 41.7335 16.6233 43.4299C16.6233 43.4299 16.6233 43.4625 16.6559 43.4625C16.6885 43.4951 16.6885 43.5604 16.7212 43.593C17.2105 44.2454 18.6133 45.6156 21.582 46.4964L22.2344 46.6595L22.9195 46.8226L23.6372 46.9531L24.3549 47.051L25.1052 47.1489L25.8556 47.2141L26.6059 47.2467H27.3888H28.1392H28.8242Z" fill="#262C68"/>
<path d="M51.8224 47.2471H52.5728H53.3557L54.106 47.2144L54.5954 47.1818C54.8564 47.1492 55.15 47.1166 55.4762 47.0513C60.1086 46.4641 62.1965 44.6698 62.9794 43.7564C63.0121 43.6912 63.0447 43.6259 63.0773 43.5607C64.2844 41.8317 64.4149 40.0048 64.1865 38.8956C64.056 38.3736 63.8929 37.9169 63.6645 37.5255C63.1426 36.8078 61.1852 34.6873 56.7159 35.5355L56.4549 35.6007L55.7372 35.7964L55.0195 36.0248L54.3018 36.2532L53.5841 36.4815L52.8338 36.7425L52.1487 37.0035L51.431 37.2971L50.7459 37.5907L50.0608 37.9169L49.4084 38.2431L48.7885 38.5368L48.1687 38.863L47.5815 39.1892L47.3857 39.2871C47.4184 39.3523 47.451 39.4502 47.451 39.5154L47.4836 39.7764L47.712 41.114L47.8425 41.9622L48.0056 42.9408L48.0708 43.4302L48.1687 43.9848L48.3318 45.0939L48.397 45.6485L48.4623 46.2031L48.5275 46.7577L48.5602 47.2144H48.919L50.2892 47.2471H51.0069H51.8224Z" fill="#262C68"/>
<path d="M65.1651 38.6346C64.5779 36.2858 63.2404 35.0135 61.2178 34.5241L61.7723 34.4589L62.3596 34.4263H62.9468H63.5014L64.0233 34.4589L64.5127 34.5241L64.9694 34.5894L65.3935 34.6872L65.8176 34.8177L66.1764 34.9482L66.5027 35.1113L66.7963 35.3071L67.0572 35.5354L67.2856 35.7638L67.4813 36.0248L67.6445 36.3184L67.775 36.6446L67.8728 37.0035L67.9381 37.3949V37.819V38.2758L67.8728 38.6999L67.775 39.1239L67.6445 39.548L67.4813 39.9721L67.2856 40.3962L67.0572 40.8203L66.7963 41.2444L66.5027 41.6359L66.1764 42.0274L65.8176 42.4189L65.4261 42.8103L65.0346 43.1692L64.6105 43.528L64.1538 43.8869L63.7623 44.1479C65.1651 42.2884 65.524 40.1679 65.1651 38.6346Z" fill="white"/>
<path d="M15.7418 43.9519L15.6113 43.8541L15.1546 43.4952L14.7305 43.1364L14.3064 42.7775L13.9475 42.386L13.5887 41.9946L13.2625 41.6031L12.9688 41.179L12.7079 40.7549L12.4795 40.3308L12.2838 39.9067L12.1207 39.4826L11.9902 39.0585L11.8923 38.6344L11.827 38.2103L11.7944 37.7536L11.827 37.3295L11.8923 36.938L11.9902 36.5792L12.1207 36.253L12.2838 35.9593L12.4795 35.6984L12.7079 35.47L12.9688 35.2417L13.2625 35.0459L13.5887 34.8828L13.9475 34.7523L14.339 34.6218L14.7631 34.524L15.2198 34.4587L15.7092 34.3935L16.2311 34.3608H16.7857H17.3403L17.9275 34.3935L18.5473 34.4587C16.5247 34.948 15.1872 36.2203 14.6 38.5692C14.3064 40.1351 14.5674 42.1577 15.7418 43.9519Z" fill="white"/>
<path d="M65.4262 29.5002L66.1765 29.5328C68.1338 29.6959 69.6019 30.12 70.5806 30.5441L70.9068 30.7072H70.9394L71.4288 31.0008L71.8855 31.2944L72.1791 31.5228L74.8868 2.8147H4.97607L7.68376 31.5228L7.97738 31.2944L8.43409 31.0008L8.92343 30.7398C9.90211 30.2505 11.5006 29.6959 13.7842 29.5328L14.4693 29.5002H15.3501L16.2962 29.5328L17.2749 29.598L17.699 29.6633C17.7968 29.6633 17.8947 29.6959 17.9926 29.6959L18.3188 29.7285L19.3954 29.8916L20.5372 30.0874L21.679 30.3157L22.7881 30.5767L23.5385 30.7725C23.1144 30.2831 22.886 29.6307 22.886 28.913C22.886 28.5541 22.9513 28.2279 23.0491 27.9017L25.659 28.913L23.8973 26.7272C24.3867 26.3357 24.9739 26.1074 25.659 26.1074C27.2248 26.1074 28.4319 27.3471 28.4319 28.913C28.4319 30.2505 27.5837 31.3271 26.3766 31.6533L26.9639 31.8816L27.9099 32.2405L28.8233 32.632L29.7042 33.0234L30.5524 33.4475L31.3679 33.8716L32.1509 34.2957L32.9012 34.7198L33.1948 34.8829C33.2927 34.7198 33.782 33.839 34.6628 32.6646C33.3579 31.327 30.1935 28.2279 25.6263 25.4549C19.5585 21.7686 12.9687 20.0069 12.9687 20.0069L13.4254 28.7172C12.3162 28.7825 11.1418 28.9456 10.0979 29.4023L9.15179 16.1248C9.15179 16.1248 17.9926 17.5276 26.6376 23.5302C31.9225 27.1839 34.6302 29.9243 35.772 31.2618C36.2614 30.6746 36.8486 30.0221 37.501 29.4023C37.6968 29.2066 37.8925 29.0108 38.1209 28.8151C38.6754 28.3257 39.23 27.8038 39.8825 27.3144C39.8825 27.3144 41.1222 28.3257 41.6767 28.8477C41.8725 29.0108 42.0356 29.1739 42.1987 29.3697C42.8838 30.0221 43.471 30.7072 43.993 31.2944C45.1348 29.9569 47.8098 27.2492 52.9969 23.5628C61.8377 17.5928 70.6784 16.1574 70.6784 16.1574L69.7324 29.4023C68.6558 28.9456 67.4162 28.7498 66.2744 28.7172L66.8942 20.0069C66.8942 20.0069 60.3044 21.7686 54.2365 25.4549C49.6367 28.2605 46.4397 31.3597 45.1674 32.6972C46.0156 33.839 46.5049 34.6872 46.6028 34.8829L46.8638 34.7198L47.6141 34.2957L48.397 33.8716L49.2126 33.4475L50.0608 33.0561L50.9416 32.6646L51.8877 32.2731L52.8338 31.9143L53.421 31.6859C52.2139 31.3597 51.3657 30.2831 51.3657 28.9456C51.3657 27.3471 52.5728 26.14 54.1387 26.14C54.7585 26.14 55.3783 26.3684 55.8677 26.7925L54.1387 28.9456L56.6832 27.9017C56.8137 28.2279 56.879 28.5867 56.879 28.9456C56.879 29.6633 56.5854 30.3157 56.1613 30.8051L56.9769 30.5767L58.086 30.3157L59.2278 30.0874L60.3696 29.8916L61.4462 29.7285L61.7724 29.6959C61.8376 29.6959 61.9355 29.6633 62.0008 29.6633L62.4575 29.598L63.4362 29.5328L64.3822 29.5002H65.4262Z" fill="white"/>
<path d="M44.2542 33.7736L44.3521 33.9367L44.45 34.0999L44.5478 34.263L44.6457 34.3934L44.7436 34.5239L44.8414 34.6544L44.9067 34.7849L44.9719 34.9154L45.0372 35.0459L45.0698 35.1111C45.2655 35.4374 45.3634 35.6331 45.3634 35.6331H45.3308L44.8088 35.9593L44.189 36.3508L43.8954 36.5466L43.8628 36.5792C43.7649 36.3182 43.667 35.992 43.667 35.6331C43.667 34.7523 42.46 33.5126 41.5792 34.0672C40.6983 34.5892 40.5352 35.992 41.5792 36.5139C42.1011 36.8728 42.3947 37.2316 42.5905 37.4926L42.5578 37.5252L42.1011 37.8841L41.677 38.2429L41.2855 38.5692L40.9267 38.8628L40.6005 39.1238L40.3395 39.3521L40.1111 39.5805L39.9154 39.7762L39.8828 39.8088L39.8502 39.7762L39.6544 39.6131L39.426 39.3847L39.1651 39.1564L38.8388 38.8954L38.48 38.6018L38.0885 38.2756L37.6644 37.9167L37.2403 37.5905C37.4034 37.3295 37.697 36.938 38.2842 36.5466C39.3282 36.0246 38.9693 34.6218 38.2842 34.0999C37.2403 33.5779 36.1964 34.8175 36.1964 35.6657C36.1964 36.0572 36.0985 36.4161 36.0006 36.677L35.6092 36.4161L34.9893 35.992L34.5 35.6657C34.5 35.6657 34.5326 35.6005 34.5979 35.5026L34.6305 35.4048L34.6957 35.3069L34.761 35.1764L34.8262 35.0459L34.8915 34.9154L34.9567 34.7849L35.022 34.6544L35.1198 34.5239L35.2177 34.3934L35.3156 34.263L35.3808 34.1651C36.229 32.8928 37.6644 30.968 39.8502 29.1085L39.8828 29.0759L40.7962 29.8589C42.3621 31.2943 43.5039 32.7297 44.2542 33.7736Z" fill="white"/>
<path d="M20.962 51.7814C23.8981 54.9458 27.9107 56.7727 30.0964 57.5556C29.7702 55.533 29.6723 53.6409 29.6397 52.5643C26.2143 52.4664 23.3109 52.2055 20.962 51.7814ZM58.9023 51.7814C56.5535 52.2055 53.6501 52.4338 50.2247 52.5643C50.1921 53.6735 50.0942 55.533 49.768 57.5556C51.9537 56.7727 55.9989 54.9784 58.9023 51.7814ZM31.4013 47.2794L31.858 43.7888L32.2495 41.3747C32.2495 41.3747 32.5431 39.4173 32.6736 39.2868C32.6736 39.2868 30.2921 37.9167 28.3348 37.199C28.3348 37.199 26.8341 36.5139 24.0286 35.7309C24.0286 35.7309 21.8428 34.948 19.4287 35.4699C19.4287 35.4699 17.0473 35.9593 16.036 37.6557C16.036 37.6557 14.9268 39.6457 15.775 42.0271C15.775 42.0271 16.3622 43.5604 17.1451 44.2455C17.1451 44.2455 18.7437 45.9419 22.0386 46.6922C22.0386 46.6922 24.4526 47.2468 26.1164 47.312C26.0512 47.2794 30.2921 47.3773 31.4013 47.2794ZM48.5935 47.2794L48.1368 43.7888L47.7453 41.3421C47.7453 41.3421 47.4517 39.3521 47.3212 39.2216C47.3212 39.2216 49.7027 37.8514 51.6927 37.1337C51.6927 37.1337 53.1934 36.4486 55.9989 35.6657C55.9989 35.6657 58.1846 34.8827 60.6314 35.3721C60.6314 35.3721 63.0128 35.8614 64.0567 37.5904C64.0567 37.5904 65.1986 39.613 64.3504 41.9945C64.3504 41.9945 63.7631 43.5278 62.9802 44.2129C62.9802 44.2129 61.3491 45.9093 58.0542 46.6922C58.0542 46.6922 55.6074 47.2468 53.9763 47.312C53.9437 47.2794 49.7027 47.3773 48.5935 47.2794ZM28.4326 17.1686C23.0825 11.8837 14.5679 8.00155 8.01074 5.55484L8.69583 12.4382C8.69583 12.4382 14.6006 13.4822 22.7236 17.7231C29.4439 21.018 35.5118 27.1838 37.567 29.4021C37.7628 29.2064 37.9585 29.0106 38.1869 28.8149C36.8819 26.4987 33.9133 22.2903 28.4326 17.1686ZM57.0102 17.6905C65.329 13.4495 71.2012 12.4056 71.2012 12.4056L71.8862 5.5222C65.2964 8.00154 56.8145 11.851 51.2686 17.1359C45.9185 22.2903 42.9498 26.5313 41.6775 28.7823C41.8732 28.9454 42.0363 29.1085 42.1995 29.3042C44.3852 27.0206 50.4857 20.9528 57.0102 17.6905ZM63.9589 5.00024C58.7719 7.47958 53.226 10.644 49.0502 14.6892C44.5483 19.0933 41.6123 22.7797 39.8832 25.4221C38.1542 22.7797 35.3813 19.0933 30.8794 14.6892C26.7363 10.644 21.1904 7.47958 15.9707 5.00024H63.9589Z" fill="#008445"/>
</svg>
