<svg width="80" height="80" viewBox="0 0 80 80" fill="none" xmlns="http://www.w3.org/2000/svg">
<g clip-path="url(#clip0_413_1574)">
<path d="M40.0001 1.90779C18.9601 1.90779 1.90479 18.9631 1.90479 40.0031C1.90479 61.0431 18.9601 78.0952 40.0001 78.0952C61.0401 78.0952 78.0954 61.0431 78.0954 40.0031C78.0954 18.9631 61.0401 1.90779 40.0001 1.90779Z" fill="#002867"/>
<path fill-rule="evenodd" clip-rule="evenodd" d="M40 0.0031991C17.908 0.0031991 0 17.9112 0 40.0032C0 62.0953 17.9083 80 40 80C62.0917 80 80 62.0953 80 40.0032C80 17.9112 62.0919 0.0031991 40 0.0031991ZM1.90469 40.0032C1.90469 18.9632 18.96 1.90788 40 1.90788C61.04 1.90788 78.0953 18.9632 78.0953 40.0032C78.0953 61.0432 61.04 78.0953 40 78.0953C18.96 78.0953 1.90469 61.0432 1.90469 40.0032Z" fill="white"/>
<path d="M68.8081 49.6809C64.6014 36.6134 51.3868 39.7069 48.0277 41.2363C44.6748 42.7657 38.9918 43.0315 38.9918 43.0315C41.0279 44.2951 45.0877 43.3255 45.0877 43.3255C39.6705 46.5908 35.8141 45.296 35.8141 45.296C36.1988 46.3 35.5826 48.8583 33.1368 48.8583C30.6941 48.8583 30.3156 46.9161 30.3156 46.9161C28.9269 47.5073 27.4287 48.2703 27.0159 46.5626C26.603 44.8549 25.0235 45.271 25.0235 45.271C22.3775 45.9059 22.2899 47.7637 22.293 48.0921C22.3243 48.189 22.5964 48.7802 24.2072 49.0429C24.5919 49.1055 25.0861 49.1867 25.6585 49.2743C25.6585 49.2743 35.6733 50.8726 37.9628 52.3613C33.4308 53.2465 27.9855 52.9589 27.9855 52.9589L27.5319 52.3863L27.2411 52.1269L26.8845 52.4929L26.3591 53.0308L25.8899 52.4459L25.746 52.2707L25.427 52.6553L24.914 53.2622L24.4011 52.6523L24.0946 52.28L23.2533 53.3998L22.4619 52.5459C22.3181 52.6898 22.3087 52.9275 22.2962 52.9713C22.3994 54.4069 25.0141 55.2608 29.3241 55.2608C30.4501 55.2608 31.2602 55.1983 31.2696 55.1951H31.2977H31.3227C33.2869 55.1951 34.5004 55.4516 35.6671 55.7018C36.7023 55.9207 37.6751 56.1271 39.1357 56.1271C39.5267 56.1271 39.9489 56.1084 40.3899 56.0802C43.0735 55.8926 44.2307 54.8292 45.8321 53.3592C45.5944 53.2153 45.4286 52.962 45.4286 52.6649C45.4286 52.2082 45.8008 51.8423 46.2512 51.8423C46.5859 51.8423 46.8705 52.0424 46.9987 52.3239C47.177 52.1675 47.3678 52.0143 47.5586 51.861C47.3146 51.7171 47.1363 51.4606 47.1363 51.1541C47.1363 50.7006 47.5054 50.3285 47.9589 50.3285C48.3593 50.3285 48.6783 50.6192 48.7565 51.0008C48.991 50.8444 49.2444 50.6912 49.504 50.5411C49.3101 50.391 49.1787 50.1657 49.1787 49.8999C49.1787 49.4464 49.5447 49.0742 50.0013 49.0742C50.4361 49.0742 50.7801 49.412 50.8114 49.8405C51.9123 49.3307 52.9851 49.0493 54.0173 48.9992C53.6607 48.8303 53.4042 48.4673 53.4042 48.0451C53.4042 47.4602 53.8797 46.9849 54.4645 46.9849C55.0494 46.9849 55.5217 47.4602 55.5217 48.0451C55.5217 48.4861 55.2558 48.8583 54.8774 49.021C56.4568 49.1492 57.6047 49.7967 58.3209 50.3785C58.4367 50.0501 58.7463 49.8123 59.1123 49.8123C59.5877 49.8123 59.9693 50.1908 59.9693 50.6631C59.9693 51.0603 59.6909 51.3825 59.3187 51.4763C59.9036 52.5429 60.1757 53.6094 60.1726 54.6572C60.6417 54.7541 61.0014 55.1513 61.0014 55.6486C61.0014 56.2179 60.5385 56.6777 59.9693 56.6777C59.9161 56.6777 59.8692 56.6558 59.8191 56.6495C59.8097 56.6777 59.8066 56.7057 59.7941 56.7339C59.5126 57.4251 59.0998 58.0414 58.6337 58.62C58.9653 58.7951 59.1967 59.1267 59.1967 59.5239C59.1967 60.0931 58.7307 60.556 58.1646 60.556C57.7768 60.556 57.4609 60.337 57.2826 60.0242C56.8791 60.3714 56.4631 60.6905 56.0377 60.9782C56.6289 61.0877 57.0855 61.5819 57.0855 62.2011C57.0855 62.8986 56.5163 63.4647 55.8188 63.4647C55.1182 63.4647 54.5521 62.8986 54.5521 62.2011C54.5521 62.076 54.5896 61.9634 54.624 61.8508C54.1768 62.0979 53.7514 62.3043 53.3386 62.4951C53.9234 62.6672 54.3613 63.1895 54.3613 63.8275C54.3613 64.5344 53.8359 65.0942 53.1572 65.2006C53.1353 65.2162 53.1071 65.2288 53.0883 65.2475C53.3135 65.529 53.4699 65.8731 53.4699 66.2641C53.4699 66.9709 53.0133 67.5588 52.3877 67.7903C52.7537 68.0999 53.0039 68.5441 53.0039 69.057C53.0039 69.5887 52.7412 70.0422 52.3533 70.3519L52.4002 70.7303C52.9445 70.918 53.3323 71.4153 53.3323 72.0221C53.3323 72.1253 53.2979 72.216 53.276 72.313C53.8202 72.0972 54.3676 71.8751 54.8805 71.6467C54.4332 71.3527 54.1236 70.8712 54.1236 70.2957C54.1236 69.3855 54.8586 68.6505 55.7688 68.6505C56.6789 68.6505 57.4171 69.3855 57.4171 70.2957C57.4171 70.3394 57.3983 70.3769 57.392 70.4207C58.3366 69.9109 59.203 69.3761 60.0256 68.8225C59.9568 68.8319 59.9005 68.8632 59.8285 68.8632C58.984 68.8632 58.2991 68.1781 58.2991 67.3337C58.2991 66.4892 58.984 65.8011 59.8285 65.8011C60.6792 65.8011 61.3611 66.4892 61.3611 67.3337C61.3611 67.5714 61.2985 67.7903 61.1985 67.9936C68.3796 62.5858 70.0967 55.5923 68.8081 49.6809ZM57.5578 49.6935C56.9667 49.6935 56.4975 49.2213 56.4975 48.6333C56.4975 48.0484 56.9667 47.5761 57.5578 47.5761C58.1427 47.5761 58.615 48.0484 58.615 48.6333C58.615 49.2213 58.1427 49.6935 57.5578 49.6935Z" fill="#FDAE1A"/>
<path d="M20.9742 23.9361L21.0618 23.8298C21.2682 23.5795 21.6999 23.0792 22.3067 22.4755C22.4849 22.2972 22.6726 22.1221 22.854 21.9469C24.6962 20.2361 27.6675 18.0593 31.0204 17.9123C36.5846 17.6652 36.0216 22.7163 29.1 22.5505C22.1784 22.3816 20.918 24.0081 20.918 24.0081C20.918 24.0081 20.9367 23.983 20.9742 23.9361Z" fill="white"/>
<path d="M21.6268 48.1712C21.6268 48.1712 21.7081 49.3097 24.1008 49.7006C26.4935 50.0947 29.5086 51.0048 30.4876 51.5365C29.6838 51.5553 28.0824 51.6648 28.0824 51.6648L27.2098 51.0549L26.4059 52.0275L25.7616 51.2238L24.914 52.2215L24.0132 51.1456L23.2063 52.4374L22.6183 51.6335C21.5955 52.1433 21.6268 52.9471 21.6268 52.9471C21.7457 56.6284 31.3227 55.8621 31.3227 55.8621C35.4419 55.8621 36.1675 57.0412 40.4368 56.7472C45.463 56.4 45.7632 53.0378 50.902 50.5263C56.044 48.0147 58.4554 51.6178 58.5274 51.7429C61.2109 56.6815 52.4659 61.5107 49.6854 62.8901C46.7078 64.1505 43.4331 64.8511 39.9927 64.8511C27.7227 64.8511 17.5295 55.9653 15.4872 44.2802C15.1713 35.8667 21.9834 34.0339 27.5663 33.7243C30.0497 33.5867 32.2891 33.7462 33.559 33.7712C38.188 33.8494 46.5076 32.6735 48.3905 24.2725C49.2569 20.4035 48.0433 17.7167 46.4826 15.9464C56.4287 18.6268 63.9132 27.3187 64.7858 37.8872C58.2865 33.6429 50.0263 36.0388 47.8807 36.9896C44.7811 38.3627 40.5838 38.5972 36.4646 38.9131C32.3392 39.2259 30.8097 40.9118 29.6931 41.7938C28.5765 42.6758 28.2794 43.7987 24.8671 44.6181C21.4516 45.4438 21.6268 48.1712 21.6268 48.1712Z" fill="white"/>
<path d="M22.3066 22.4775L22.8571 21.949V21.9458L22.3066 22.4775Z" fill="#002867"/>
<path d="M6.81934 28.4968L8.01099 25.7538C8.65529 24.2713 9.78439 23.5456 11.3701 24.2306C12.9965 24.9375 13.3312 26.126 12.6525 27.6898L12.2146 28.7063L14.501 29.6947L13.719 31.49L6.81934 28.4968ZM10.7665 28.0777L10.8978 27.7774C11.1793 27.1269 11.4546 26.4857 10.6132 26.1229C9.74686 25.7444 9.47788 26.3356 9.17449 27.0299L9.04625 27.3302L10.7665 28.0777Z" fill="white"/>
<path d="M15.9339 24.1233L16.6845 25.3118L15.4647 26.9883L11.0859 20.22L12.3401 18.4966L20.0906 20.6359L18.8614 22.3218L17.5196 21.9464L15.9339 24.1233ZM13.5943 20.7266L13.5818 20.7423L15.0425 22.8066L15.9964 21.4929L13.5943 20.7266Z" fill="white"/>
<path d="M25.5231 16.3564L23.6277 17.8827L20.3718 16.7849L20.3593 16.7943L22.1733 19.0525L20.647 20.2754L15.9336 14.4141L18.2137 12.5813C19.3678 11.6492 20.6908 11.496 21.7011 12.7502C22.3485 13.5571 22.4611 14.6174 21.748 15.44L25.5231 16.3564ZM19.5711 15.8184L19.7181 15.6964C20.2154 15.2961 20.7002 14.755 20.1873 14.117C19.6743 13.4789 19.0394 13.8355 18.5421 14.2358L18.3951 14.3547L19.5711 15.8184Z" fill="white"/>
<path d="M31.7261 13.5314L29.5149 14.5448L26.6343 12.69L26.6155 12.6963L27.8228 15.3236L26.0431 16.1399L22.9092 9.30588L25.5646 8.08608C26.9158 7.4668 28.2325 7.63882 28.905 9.09945C29.3335 10.0409 29.1833 11.098 28.2951 11.7173L31.7261 13.5314ZM26.09 11.5516L26.2621 11.4734C26.8438 11.2075 27.4443 10.7978 27.1065 10.0565C26.7656 9.31526 26.0619 9.50293 25.4833 9.77191L25.305 9.8501L26.09 11.5516Z" fill="white"/>
<path d="M34.3715 11.7115L34.0525 13.0814L31.9976 13.3879L33.7491 5.52179L35.8571 5.20276L39.773 12.2244L37.7119 12.531L37.0363 11.3112L34.3715 11.7115ZM35.1471 7.66113L35.1253 7.66426L34.6811 10.1508L36.2919 9.90994L35.1471 7.66113Z" fill="white"/>
<path d="M43.0371 4.93893L44.9294 5.28923L45.6957 9.52413L48.0195 5.86473L49.9337 6.22128L49.6772 13.8247L47.7537 13.4681L48.007 9.11127L47.9851 9.10814L45.4142 13.0334L44.6573 12.8895L43.7471 8.31997L43.7283 8.31684L42.3209 12.4579L40.4067 12.1013L43.0371 4.93893Z" fill="white"/>
<path d="M52.9323 14.2241L51.8376 15.1093L50.0298 14.0896L56.2414 8.9571L58.1055 10.0049L56.8794 17.9492L55.0654 16.9265L55.2812 15.5471L52.9323 14.2241ZM56.0318 11.5093L56.0162 11.4968L54.1364 13.1857L55.5533 13.9833L56.0318 11.5093Z" fill="white"/>
<path d="M59.0215 20.1326L57.564 18.8314L61.4736 14.4558L60.2663 13.3799L61.3704 12.1444L65.2393 15.6005L64.1384 16.836L62.928 15.7601L59.0215 20.1326Z" fill="white"/>
<path d="M62.4821 24.1621L61.2998 22.6045L65.9757 19.0608L64.9967 17.7691L66.3198 16.7714L69.4506 20.9031L68.1338 21.9008L67.158 20.6153L62.4821 24.1621Z" fill="white"/>
<path d="M65.5824 26.7161L64.175 26.7943L63.3086 24.9114L71.3468 24.3922L72.2413 26.3282L66.5958 32.0457L65.7232 30.1534L66.7084 29.1619L65.5824 26.7161ZM69.686 26.3345L69.6766 26.3157L67.165 26.5816L67.8469 28.0578L69.686 26.3345Z" fill="white"/>
<path d="M5.41699 35.1364V36.2155H6.12072V40.05H7.40308V35.1364H5.41699Z" fill="#FDAE1A"/>
<path d="M9.26023 40.0513L10.6646 38.3936L10.6521 38.3811C10.4269 38.4812 10.2204 38.5312 9.96083 38.5312C8.99125 38.5312 8.38135 37.7024 8.38135 36.7953C8.38135 35.5881 9.37283 34.9375 10.4925 34.9375C10.9711 34.9375 11.5184 35.0563 11.8969 35.3597C12.2941 35.6788 12.5568 36.2011 12.5568 36.7171C12.5568 37.4303 12.1909 38.1152 11.7655 38.6751L10.7146 40.0513H9.26023ZM9.71375 36.7578C9.71375 37.2082 10.0484 37.5648 10.5019 37.5648C10.9492 37.5648 11.3151 37.2082 11.3151 36.7578C11.3151 36.3043 10.9492 35.9477 10.5019 35.9477C10.0484 35.9477 9.71375 36.3043 9.71375 36.7578Z" fill="#FDAE1A"/>
<path d="M27.3584 45.1111C28.7721 43.738 28.9004 43.4941 29.4633 42.9217C29.676 42.7059 29.8731 42.4995 30.1045 42.3181C30.2421 42.2117 30.3766 42.096 30.5268 41.974C30.9177 41.6487 31.3618 41.2797 31.928 40.9262C31.928 40.9262 31.3118 42.1742 31.3681 42.9999C31.3681 42.9999 34.6365 40.823 37.5203 40.7667C40.404 40.7042 42.8155 40.8824 47.6478 39.2936C52.4738 37.7016 68.5439 34.1141 70.8396 51.5667C70.8396 51.5667 68.0122 38.937 56.6524 38.7337C50.0592 38.618 47.4695 40.676 43.3503 41.3829C39.2311 42.0929 37.4358 41.9427 36.4944 42.2367C36.4944 42.2367 36.9323 42.2367 38.1708 43.9445C38.1708 43.9445 35.5186 42.9999 33.3698 44.2948C31.2242 45.5896 31.487 46.2996 28.9879 46.3559C28.9879 46.3559 29.2507 45.3551 29.4852 44.5325L27.3584 45.1111Z" fill="#90C84B"/>
<path d="M59.2608 64.5748C59.2608 65.3567 58.6322 65.9854 57.8502 65.9854C57.0683 65.9854 56.4365 65.3567 56.4365 64.5748C56.4365 63.796 57.0683 63.1642 57.8502 63.1642C58.6322 63.1642 59.2608 63.796 59.2608 64.5748Z" fill="#002867"/>
<path d="M61.3829 61.7107C61.3829 62.4927 60.748 63.1213 59.9692 63.1213C59.1873 63.1213 58.5586 62.4927 58.5586 61.7107C58.5586 60.9288 59.1873 60.297 59.9692 60.297C60.748 60.297 61.3829 60.9288 61.3829 61.7107Z" fill="#002867"/>
<path d="M62.6409 58.1002C62.6409 58.8789 62.006 59.5107 61.2241 59.5107C60.4453 59.5107 59.8135 58.8789 59.8135 58.1002C59.8135 57.3182 60.4453 56.6896 61.2241 56.6896C62.006 56.6896 62.6409 57.3182 62.6409 58.1002Z" fill="#002867"/>
<path d="M63.4126 53.9023C63.4126 54.6311 62.8184 55.2253 62.0865 55.2253C61.3577 55.2253 60.7666 54.6311 60.7666 53.9023C60.7666 53.1704 61.3577 52.5762 62.0865 52.5762C62.8184 52.5762 63.4126 53.1704 63.4126 53.9023Z" fill="#002867"/>
<path d="M63.1482 50.75C63.1482 51.485 62.557 52.0762 61.8252 52.0762C61.0902 52.0762 60.499 51.485 60.499 50.75C60.499 50.0213 61.0902 49.427 61.8252 49.427C62.557 49.427 63.1482 50.0213 63.1482 50.75Z" fill="#002867"/>
<path d="M61.7675 47.5144C61.7675 48.2463 61.1701 48.8406 60.4414 48.8406C59.7095 48.8406 59.1152 48.2463 59.1152 47.5144C59.1152 46.7826 59.7095 46.1914 60.4414 46.1914C61.1701 46.1914 61.7675 46.7826 61.7675 47.5144Z" fill="#002867"/>
<path d="M58.8203 45.7795C58.8203 46.5083 58.2292 47.1025 57.4942 47.1025C56.7655 47.1025 56.1743 46.5083 56.1743 45.7795C56.1743 45.0476 56.7655 44.4534 57.4942 44.4534C58.2292 44.4534 58.8203 45.0476 58.8203 45.7795Z" fill="#002867"/>
<path d="M55.2878 45.2493C55.2878 45.978 54.6967 46.5754 53.9648 46.5754C53.2329 46.5754 52.6387 45.978 52.6387 45.2493C52.6387 44.5174 53.2329 43.9232 53.9648 43.9232C54.6967 43.9232 55.2878 44.5174 55.2878 45.2493Z" fill="#002867"/>
<path d="M51.4898 45.8943C51.4898 46.4823 51.0175 46.9546 50.4326 46.9546C49.8478 46.9546 49.3755 46.4823 49.3755 45.8943C49.3755 45.3094 49.8478 44.834 50.4326 44.834C51.0175 44.834 51.4898 45.3094 51.4898 45.8943Z" fill="#002867"/>
<path d="M47.6075 46.7392C47.6075 47.2616 47.1852 47.6807 46.666 47.6807C46.1437 47.6807 45.7246 47.2616 45.7246 46.7392C45.7246 46.22 46.1437 45.7978 46.666 45.7978C47.1852 45.7978 47.6075 46.22 47.6075 46.7392Z" fill="#002867"/>
<path d="M49.9039 48.1914C49.9039 48.7137 49.4848 49.1328 48.9624 49.1328C48.4401 49.1328 48.021 48.7137 48.021 48.1914C48.021 47.6722 48.4401 47.2499 48.9624 47.2499C49.4848 47.2499 49.9039 47.6722 49.9039 48.1914Z" fill="#002867"/>
<path d="M45.6837 45.0937C45.6837 45.6129 45.2614 46.032 44.7422 46.032C44.2199 46.032 43.8008 45.6129 43.8008 45.0937C43.8008 44.5713 44.2199 44.1491 44.7422 44.1491C45.2614 44.1491 45.6837 44.5713 45.6837 45.0937Z" fill="#002867"/>
<path d="M43.2689 45.9925C43.2689 46.3053 43.0186 46.5618 42.6996 46.5618C42.3868 46.5618 42.1304 46.3053 42.1304 45.9925C42.1304 45.6798 42.3868 45.4264 42.6996 45.4264C43.0186 45.4264 43.2689 45.6798 43.2689 45.9925Z" fill="#002867"/>
<path d="M45.3541 47.3871C45.3541 47.8406 44.9819 48.2097 44.5283 48.2097C44.0717 48.2097 43.7026 47.8406 43.7026 47.3871C43.7026 46.9305 44.0717 46.5645 44.5283 46.5645C44.9819 46.5645 45.3541 46.9305 45.3541 47.3871Z" fill="#002867"/>
<path d="M47.5482 49.2516C47.5482 49.7083 47.1823 50.0742 46.7256 50.0742C46.269 50.0742 45.8999 49.7083 45.8999 49.2516C45.8999 48.795 46.269 48.4259 46.7256 48.4259C47.1823 48.4259 47.5482 48.795 47.5482 49.2516Z" fill="#002867"/>
<path d="M46.0384 50.9372C46.0384 51.3938 45.6694 51.7598 45.2158 51.7598C44.7561 51.7598 44.3901 51.3938 44.3901 50.9372C44.3901 50.4837 44.7561 50.1146 45.2158 50.1146C45.6694 50.1146 46.0384 50.4837 46.0384 50.9372Z" fill="#002867"/>
<path d="M44.4881 49.4074C44.4881 49.864 44.1191 50.23 43.6656 50.23C43.2089 50.23 42.8398 49.864 42.8398 49.4074C42.8398 48.9508 43.2089 48.5848 43.6656 48.5848C44.1191 48.5848 44.4881 48.9508 44.4881 49.4074Z" fill="#002867"/>
<path d="M43.0965 47.8772C43.0965 48.3338 42.7275 48.7029 42.2708 48.7029C41.8173 48.7029 41.4482 48.3338 41.4482 47.8772C41.4482 47.4205 41.8173 47.0546 42.2708 47.0546C42.7275 47.0546 43.0965 47.4205 43.0965 47.8772Z" fill="#002867"/>
<path d="M42.2146 49.6637C42.2146 50.1204 41.8424 50.4863 41.3889 50.4863C40.9323 50.4863 40.5601 50.1204 40.5601 49.6637C40.5601 49.2071 40.9323 48.8412 41.3889 48.8412C41.8424 48.8412 42.2146 49.2071 42.2146 49.6637Z" fill="#002867"/>
<path d="M43.9569 51.4296C43.9569 51.8863 43.5909 52.2522 43.1343 52.2522C42.6777 52.2522 42.3086 51.8863 42.3086 51.4296C42.3086 50.973 42.6777 50.6039 43.1343 50.6039C43.5909 50.6039 43.9569 50.973 43.9569 51.4296Z" fill="#002867"/>
<path d="M44.9405 53.6662C44.9405 54.1228 44.5714 54.4888 44.1116 54.4888C43.6581 54.4888 43.2891 54.1228 43.2891 53.6662C43.2891 53.2095 43.6581 52.8405 44.1116 52.8405C44.5714 52.8405 44.9405 53.2095 44.9405 53.6662Z" fill="#002867"/>
<path d="M42.2317 53.1184C42.2317 53.5281 41.897 53.8628 41.4841 53.8628C41.0744 53.8628 40.7397 53.5281 40.7397 53.1184C40.7397 52.7055 41.0744 52.3678 41.4841 52.3678C41.897 52.3678 42.2317 52.7055 42.2317 53.1184Z" fill="#002867"/>
<path d="M52.729 48.2C52.729 48.788 52.2536 49.2603 51.6687 49.2603C51.0807 49.2603 50.6084 48.788 50.6084 48.2C50.6084 47.6151 51.0807 47.1428 51.6687 47.1428C52.2536 47.1428 52.729 47.6151 52.729 48.2Z" fill="#002867"/>
<path d="M58.6145 48.6321C58.6145 49.2201 58.1422 49.6924 57.5574 49.6924C56.9694 49.6924 56.4971 49.2201 56.4971 48.6321C56.4971 48.0472 56.9694 47.5749 57.5574 47.5749C58.1422 47.5749 58.6145 48.0472 58.6145 48.6321Z" fill="#002867"/>
<path d="M57.4185 70.2943C57.4185 71.2045 56.6803 71.9426 55.7702 71.9426C54.8569 71.9426 54.125 71.2045 54.125 70.2943C54.125 69.3842 54.8569 68.6492 55.7702 68.6492C56.6803 68.6492 57.4185 69.3842 57.4185 70.2943Z" fill="#002867"/>
<path d="M61.3628 67.3324C61.3628 68.18 60.6778 68.8618 59.8302 68.8618C58.9857 68.8618 58.3008 68.18 58.3008 67.3324C58.3008 66.4879 58.9857 65.8029 59.8302 65.8029C60.6778 65.8029 61.3628 66.4879 61.3628 67.3324Z" fill="#002867"/>
<path d="M64.1682 64.2202C64.1682 65.1523 63.4145 65.9092 62.4793 65.9092C61.5504 65.9092 60.7935 65.1523 60.7935 64.2202C60.7935 63.2882 61.5504 62.5344 62.4793 62.5344C63.4145 62.5344 64.1682 63.2882 64.1682 64.2202Z" fill="#002867"/>
<path d="M66.5611 60.0997C66.5611 61.185 65.6822 62.0608 64.6032 62.0608C63.5147 62.0608 62.6421 61.185 62.6421 60.0997C62.6421 59.0175 63.5147 58.1387 64.6032 58.1387C65.6822 58.1387 66.5611 59.0175 66.5611 60.0997Z" fill="#002867"/>
<path d="M67.5422 55.432C67.5422 56.5142 66.6634 57.3931 65.5843 57.3931C64.4959 57.3931 63.6201 56.5142 63.6201 55.432C63.6201 54.3498 64.4959 53.4709 65.5843 53.4709C66.6634 53.4709 67.5422 54.3498 67.5422 55.432Z" fill="#002867"/>
<path d="M67.4267 50.5253C67.4267 51.6074 66.5478 52.4863 65.4657 52.4863C64.3803 52.4863 63.5015 51.6074 63.5015 50.5253C63.5015 49.4462 64.3803 48.5673 65.4657 48.5673C66.5478 48.5673 67.4267 49.4462 67.4267 50.5253Z" fill="#002867"/>
<path d="M65.9734 46.0128C65.9734 47.095 65.0945 47.9739 64.0123 47.9739C62.927 47.9739 62.0513 47.095 62.0513 46.0128C62.0513 44.9306 62.927 44.0517 64.0123 44.0517C65.0945 44.0517 65.9734 44.9306 65.9734 46.0128Z" fill="#002867"/>
<path d="M62.3239 43.3044C62.3239 44.2145 61.5858 44.9558 60.6725 44.9558C59.7624 44.9558 59.0273 44.2145 59.0273 43.3044C59.0273 42.3974 59.7624 41.6561 60.6725 41.6561C61.5858 41.6561 62.3239 42.3974 62.3239 43.3044Z" fill="#002867"/>
<path d="M57.6532 42.0514C57.6532 42.8521 57.0026 43.4995 56.1988 43.4995C55.3981 43.4995 54.7476 42.8521 54.7476 42.0514C54.7476 41.2476 55.3981 40.6001 56.1988 40.6001C57.0026 40.6001 57.6532 41.2476 57.6532 42.0514Z" fill="#002867"/>
<path d="M52.9437 42.6388C52.9437 43.4427 52.2932 44.0901 51.4893 44.0901C50.6886 44.0901 50.0381 43.4427 50.0381 42.6388C50.0381 41.8381 50.6886 41.1876 51.4893 41.1876C52.2932 41.1876 52.9437 41.8381 52.9437 42.6388Z" fill="#002867"/>
<path d="M48.7846 43.8549C48.7846 44.593 48.1872 45.1904 47.4491 45.1904C46.711 45.1904 46.1167 44.593 46.1167 43.8549C46.1167 43.1168 46.711 42.5194 47.4491 42.5194C48.1872 42.5194 48.7846 43.1168 48.7846 43.8549Z" fill="#002867"/>
<path d="M56.6025 66.5772C56.6025 67.3184 55.9989 67.9189 55.2607 67.9189C54.5163 67.9189 53.9189 67.3184 53.9189 66.5772C53.9189 65.8328 54.5163 65.2354 55.2607 65.2354C55.9989 65.2354 56.6025 65.8328 56.6025 66.5772Z" fill="#002867"/>
<path d="M34.4807 46.013C34.4807 46.8387 33.8114 47.5049 32.9888 47.5049C32.4258 47.5049 31.9379 47.1952 31.6877 46.7355C31.5094 46.8418 31.3218 46.9356 31.1216 47.017C31.4781 47.68 32.1819 48.1335 32.9888 48.1335C34.1617 48.1335 35.1063 47.1859 35.1063 46.013C35.1063 45.5595 34.9624 45.1372 34.7184 44.79C34.5057 44.8588 34.3024 44.937 34.1085 45.0309C34.34 45.2936 34.4807 45.6345 34.4807 46.013Z" fill="white"/>
<path d="M70.941 38.0719V39.0478H70.3467V40.0674H69.1645V39.0478H66.7749V38.2346L68.6703 35.1506H70.3467V38.0719H70.941ZM69.1645 36.1828H69.1488L68.001 38.0719H69.1645V36.1828Z" fill="#FDAE1A"/>
<path d="M71.6058 36.2338V35.1516H75.6437L72.8162 40.0652H71.415L73.6607 36.2338H71.6058Z" fill="#FDAE1A"/>
<path d="M31.945 67.7932L31.604 68.9911L33.7059 69.5853L33.2586 71.1648L31.1599 70.5706L30.8034 71.806L33.024 72.4347L32.5768 74.0142L28.4951 72.86L30.5219 65.6851L34.6035 66.8392L34.1594 68.4218L31.945 67.7932Z" fill="white"/>
<path d="M37.0249 68.7759L36.906 70.0144L39.0829 70.224L38.9234 71.8598L36.7497 71.6471L36.6277 72.9295L38.9203 73.1484L38.7639 74.7842L34.5415 74.3776L35.2546 66.9556L39.477 67.3653L39.3206 68.9948L37.0249 68.7759Z" fill="white"/>
<path d="M42.5714 73.0001L44.8859 72.8312L45.0047 74.467L40.7542 74.7766L40.21 67.3421L42.1429 67.2013L42.5714 73.0001Z" fill="white"/>
<path d="M48.9898 67.8426C48.5676 67.6425 48.0797 67.5673 47.6199 67.6862C47.2759 67.7769 46.8693 68.0991 46.9725 68.4994C47.0851 68.9217 47.6292 68.9529 47.9858 68.9717L48.4988 68.9936C49.5809 69.0311 50.488 69.3345 50.7945 70.5011C50.9822 71.2205 50.9978 71.9993 50.5505 72.6374C50.1095 73.2629 49.4089 73.6601 48.6771 73.8509C47.7669 74.0823 46.8004 74.0073 45.9309 73.6851L46.3406 71.9618C46.9161 72.2526 47.5573 72.4466 48.1985 72.2777C48.6426 72.162 49.0555 71.821 48.9179 71.3143C48.7834 70.7889 47.9983 70.7983 47.5667 70.7889C46.3 70.7576 45.4461 70.6513 45.0864 69.2563C44.7048 67.7894 45.4993 66.5633 46.9474 66.188C47.6699 65.9972 48.6239 65.9973 49.3557 66.1943L48.9898 67.8426Z" fill="white"/>
<path d="M25.1886 47.1424C25.1886 47.1424 24.7539 46.5701 23.8562 47.0174C22.9649 47.4615 23.4903 48.7627 24.4474 47.9526C24.7883 47.5898 24.5725 47.3082 25.1886 47.1424Z" fill="#002867"/>
</g>
<defs>
<clipPath id="clip0_413_1574">
<rect width="80" height="80" fill="white"/>
</clipPath>
</defs>
</svg>
