<svg width="80" height="80" viewBox="0 0 80 80" fill="none" xmlns="http://www.w3.org/2000/svg">
<g clip-path="url(#clip0_401_1679)">
<path d="M40.001 57.7657L57.3873 67.9111L53.0938 48.3352L68.0752 34.8535L48.0854 32.8563L39.999 14.5537L31.9145 32.8563L11.9248 34.8535L26.9071 48.3352L22.6146 67.9111L39.999 57.7657" fill="#002B5C"/>
<path fill-rule="evenodd" clip-rule="evenodd" d="M15.1827 78.1218L40.0004 63.6383L64.8203 78.1214L58.6814 50.1314L80 30.9468L51.5312 28.1025L39.9987 2.00005L28.469 28.1025L0 30.9468L21.3202 50.1316L15.1827 78.1218ZM40.0003 57.7673L37.4424 53.3844L30.0471 57.7002L32.4946 46.5385L23.8502 38.7599L35.3606 37.6099L39.9998 27.107L44.6402 37.6099L56.1509 38.76L47.5068 46.5388L49.9549 57.7006L42.5579 53.3842L40.0003 57.7673Z" fill="#002B5C"/>
<path d="M40.001 57.7657L57.3873 67.9111L53.0938 48.3352L68.0752 34.8535L48.0854 32.8563L39.999 14.5537L31.9145 32.8563L11.9248 34.8535L26.9071 48.3352L22.6146 67.9111L39.999 57.7657" fill="#FFDD00"/>
<path d="M39.9804 50.1436L45.0098 47.2699V47.8413L44.7246 48.4126C48.1546 47.6369 49.7061 46.1681 49.7061 46.1681L49.746 46.8202L49.3382 47.5152C55.4234 45.4732 56.8114 43.1858 56.8114 43.1858L56.8931 42.7361C56.8931 42.7361 58.9751 42.0422 62.8149 40.4907C66.6527 38.9392 67.4284 36.3258 67.4284 36.3258C69.307 31.5478 63.3862 25.9531 63.3862 25.9531C63.3862 25.9531 64.6924 29.2205 63.7123 32.0792C62.7331 34.9369 60.8137 35.0595 58.9342 35.0595H52.0742L51.5846 34.7744H40.5169H39.4091H28.3424L27.8518 35.0595H20.9918C19.1133 35.0595 17.1939 34.9369 16.2127 32.0792C15.2336 29.2205 16.5408 25.9531 16.5408 25.9531C16.5408 25.9531 10.619 31.5478 12.4975 36.3258C12.4975 36.3258 13.2733 38.9392 17.1121 40.4907C20.9509 42.0422 23.0328 42.7361 23.0328 42.7361L23.1146 43.1858C23.1146 43.1858 24.5026 45.4732 30.5878 47.5152L30.18 46.8202L30.2209 46.1681C30.2209 46.1681 31.7724 47.6369 35.2024 48.4126L34.9162 47.8413V47.2699L39.9455 50.1436H39.9804Z" fill="#002B5C"/>
<path fill-rule="evenodd" clip-rule="evenodd" d="M39.2694 52.6892H40.6562L42.8189 51.4535L44.2678 51.1258L43.7008 52.092L50.1478 49.9286C53.4062 48.8352 55.5239 47.6368 56.8796 46.6245C57.5574 46.1184 58.0409 45.6616 58.3781 45.2928C58.5464 45.1086 58.6773 44.9474 58.7771 44.8143C58.7919 44.7945 58.806 44.7753 58.8195 44.7568C58.9634 44.7048 59.1207 44.6475 59.2915 44.5848C60.3167 44.2083 61.8225 43.6372 63.7683 42.851C66.1136 41.9029 67.6192 40.5855 68.5532 39.4108C69.0146 38.8305 69.3261 38.2985 69.5304 37.8838C69.6326 37.6764 69.7083 37.4979 69.7627 37.3566C69.7877 37.2917 69.8083 37.2346 69.825 37.1859C71.1839 33.6295 69.5969 30.1248 68.2713 28.0002C67.5552 26.8525 66.7822 25.892 66.1952 25.223C65.8994 24.8858 65.6447 24.6159 65.4596 24.4259C65.3668 24.3308 65.2911 24.2553 65.2359 24.201C65.2201 24.1856 65.206 24.1718 65.1936 24.1598C65.1843 24.1507 65.1759 24.1426 65.1686 24.1356L65.1472 24.1151L65.1397 24.1079L65.1368 24.1051L65.1355 24.1039C65.1349 24.1034 65.1344 24.1029 63.386 25.9531L65.1344 24.1029L61.0265 26.8951C61.0219 26.8969 61.0218 26.8968 61.0218 26.8968L61.0213 26.8956L61.0205 26.8934L61.0191 26.8899L61.0177 26.8865C61.0181 26.8873 61.0188 26.8892 61.0199 26.8921C61.0235 26.9016 61.0312 26.9222 61.0421 26.953C61.0641 27.0148 61.0989 27.1166 61.1401 27.2515C61.2232 27.5237 61.3282 27.9173 61.4086 28.38C61.5775 29.3523 61.5972 30.3986 61.3041 31.2536C60.9997 32.1419 60.6933 32.2839 60.5944 32.3295L60.5906 32.3313C60.324 32.4548 59.9067 32.514 58.934 32.514H52.7613L52.2718 32.2288H27.656L27.1655 32.514H20.9916C20.0196 32.514 19.6024 32.4548 19.3355 32.3312L19.3318 32.3295C19.2325 32.2836 18.9257 32.1419 18.6205 31.2536C18.3279 30.3988 18.348 29.3529 18.5172 28.3808C18.5978 27.918 18.7029 27.5245 18.7861 27.2522C18.8273 27.1173 18.8621 27.0155 18.8842 26.9537C18.8897 26.9382 18.8943 26.9254 18.8981 26.9152C18.9018 26.905 18.9047 26.8975 18.9065 26.8927C18.9083 26.888 18.909 26.886 18.9087 26.8869L18.9073 26.8906L18.9059 26.894L18.905 26.8962L18.9045 26.8974C18.9045 26.8975 18.9045 26.8975 18.8998 26.8958L14.7924 24.1027L16.5406 25.9531C14.7924 24.1027 14.7918 24.1033 14.7912 24.1038L14.79 24.105L14.787 24.1078L14.7795 24.1149L14.7581 24.1354C14.7411 24.1518 14.7185 24.1737 14.6909 24.2009C14.6356 24.2552 14.5599 24.3306 14.4671 24.4258C14.2819 24.6157 14.0272 24.8857 13.7313 25.2229C13.1442 25.8918 12.3712 26.8523 11.6549 28C10.3291 30.1245 8.74158 33.6293 10.1006 37.186C10.1173 37.2346 10.1379 37.2918 10.1629 37.3567C10.2174 37.498 10.293 37.6765 10.3952 37.8839C10.5996 38.2986 10.9112 38.8306 11.3727 39.4109C12.3069 40.5857 13.8123 41.9029 16.158 42.8509C18.1034 43.6371 19.609 44.2082 20.6341 44.5848C20.8048 44.6475 20.9622 44.7048 21.1061 44.7568C21.1196 44.7753 21.1337 44.7945 21.1485 44.8143C21.2483 44.9474 21.3792 45.1086 21.5475 45.2928C21.8847 45.6616 22.3682 46.1184 23.046 46.6245C24.4016 47.6368 26.5194 48.8352 29.7778 49.9286L36.2248 52.0921L35.6576 51.1256L37.106 51.4531L39.2694 52.6892ZM27.83 43.6172C27.0563 43.2126 26.492 42.8437 26.0921 42.5451C25.8263 42.3467 25.6317 42.1782 25.4951 42.0492L25.2676 40.7979L23.8384 40.3215L23.836 40.3207L23.8222 40.316L23.7585 40.2944C23.7001 40.2744 23.6098 40.2434 23.4883 40.2008C23.2452 40.1158 22.8773 39.9849 22.3895 39.8058C21.414 39.4474 19.9592 38.8959 18.0658 38.1306C16.5726 37.5272 15.7708 36.7619 15.3575 36.2421C15.1451 35.9751 15.0228 35.7568 14.9618 35.6331C14.9411 35.5909 14.9275 35.5599 14.9201 35.5421L14.9065 35.4964L14.8664 35.3945C14.7903 35.2009 14.7376 34.9956 14.7075 34.7795C15.3511 35.7559 16.1829 36.4817 17.1956 36.9509C18.6033 37.603 20.085 37.6052 20.9916 37.6052H28.5377L29.0283 37.32H50.8971L51.3867 37.6052H58.934C59.8408 37.6052 61.323 37.603 62.7308 36.9508C63.7435 36.4816 64.575 35.7556 65.2182 34.7792C65.1881 34.9954 65.1353 35.2009 65.0592 35.3945L65.0191 35.4964L65.0055 35.5421C64.9981 35.56 64.9845 35.591 64.9637 35.6332C64.9027 35.757 64.7804 35.9753 64.5681 36.2423C64.1548 36.762 63.3533 37.5272 61.861 38.1305C59.9671 38.8958 58.512 39.4474 57.5363 39.8057C57.0485 39.9849 56.6805 40.1157 56.4374 40.2008C56.3159 40.2433 56.2255 40.2744 56.1671 40.2944L56.1034 40.316L56.088 40.3212L54.658 40.7979L54.4305 42.0492C54.2939 42.1782 54.0993 42.3467 53.8335 42.5451C53.4344 42.8432 52.8715 43.2111 52.1001 43.6148L51.914 40.5725L47.9821 44.2947C47.9671 44.3073 47.9329 44.3354 47.8791 44.3759C47.8068 44.4303 47.6992 44.5071 47.5552 44.599V42.8837L39.9628 47.2218L32.3704 42.8837V44.5983C32.2269 44.5067 32.1196 44.4302 32.0475 44.3759C31.9937 44.3354 31.9595 44.3074 31.9445 44.2947L28.0204 40.58L27.83 43.6172ZM22.824 43.3621L23.1144 43.1859C23.0129 43.2475 22.9162 43.3061 22.824 43.3621C22.824 43.3621 22.824 43.3621 22.824 43.3621Z" fill="white"/>
<path d="M39.9783 50.1489L45.0077 47.2753V47.8466L44.7215 48.418C48.1505 47.6432 49.703 46.1735 49.703 46.1735L49.7439 46.8266L49.3351 47.5206C55.4203 45.4785 56.8093 43.1912 56.8093 43.1912L56.891 42.7435C56.891 42.7435 58.973 42.0495 62.8128 40.4961C66.6506 38.9446 67.4263 36.3322 67.4263 36.3322C69.3048 31.5531 63.3831 25.9594 63.3831 25.9594C63.3831 25.9594 64.6893 29.2259 63.7102 32.0846C62.73 34.9432 60.8106 35.0659 58.9321 35.0659H52.0711L51.5815 34.7807H40.5148H39.406H28.3392L27.8487 35.0659H20.9897C19.1101 35.0659 17.1907 34.9432 16.2096 32.0846C15.2305 29.2259 16.5376 25.9594 16.5376 25.9594C16.5376 25.9594 10.6149 31.5531 12.4944 36.3322C12.4944 36.3322 13.2712 38.9446 17.109 40.4961C20.9478 42.0495 23.0307 42.7435 23.0307 42.7435L23.1125 43.1912C23.1125 43.1912 24.5004 45.4785 30.5837 47.5206L30.1769 46.8266L30.2168 46.1735C30.2168 46.1735 31.7693 47.6432 35.1983 48.418L34.9131 47.8466V47.2753L39.9424 50.1489H39.9783Z" fill="#002B5C"/>
<path d="M14.7871 62.3889C11.8476 62.3889 11.3989 61.4995 11.3989 57.23C11.3989 52.9734 12.043 52.0859 13.8558 52.0859C15.2347 52.0859 15.5797 52.7012 15.817 53.0461V52.1707H17.7225V56.0025H15.7961C15.7482 54.7611 15.2647 54.6216 14.6913 54.6216C14.0482 54.6216 13.8079 55.0034 13.8079 57.1592C13.8558 59.3009 14.1419 59.7327 14.7392 59.7327C15.9038 59.7327 15.6615 58.9689 15.7094 57.8133H17.8651C18.1044 61.689 17.0026 62.3889 14.7871 62.3889Z" fill="white"/>
<path fill-rule="evenodd" clip-rule="evenodd" d="M10.5517 62.3236C11.5557 63.9063 13.2892 64.0933 14.787 64.0933C15.971 64.0933 17.536 63.9335 18.5823 62.613C19.5334 61.4126 19.6877 59.6811 19.5659 57.7085L19.4672 56.1094H19.4266V50.4668H14.8238C14.5224 50.4104 14.1999 50.3821 13.8558 50.3821C13.287 50.3821 12.6179 50.4473 11.9762 50.752C11.285 51.0802 10.7766 51.6127 10.432 52.2828C9.83098 53.4519 9.69482 55.1393 9.69482 57.2302C9.69482 58.3104 9.72215 59.2573 9.8248 60.055C9.92592 60.8408 10.1174 61.6389 10.5517 62.3236Z" fill="white"/>
<path d="M35.8518 54.5634L34.1697 62.1912H32.014L31.2143 58.0233L30.275 62.1912H28.2709L26.533 54.5754H25.6914V52.1714H29.1683V54.5624H28.6877L29.4893 58.9636L30.3259 54.5624H29.8922V52.1714H33.1347V54.5624H32.6092L33.4987 58.9636L34.2784 54.5624H33.8486V52.1714H36.6574V54.5634H35.8518Z" fill="white"/>
<path fill-rule="evenodd" clip-rule="evenodd" d="M26.9119 63.8953H35.5389L37.221 56.2675H38.3615V50.4673H23.9873V56.2795H25.1739L26.9119 63.8953ZM31.4838 57.5964L31.5007 57.6799L31.468 57.6794L31.4838 57.5964Z" fill="white"/>
<path d="M41.2035 57.6392H40.3969V59.764H41.2753C42.7201 59.764 42.5775 57.6392 41.2035 57.6392ZM41.061 54.5711H40.3969V56.4437H41.1098C42.2455 56.4437 42.2954 54.5711 41.061 54.5711ZM41.1278 62.1909H37.3418V59.769H38.2322L38.2272 54.5622H37.3647V52.1711H40.7399C43.7062 52.1711 44.3893 53.0785 44.3893 54.6499C44.3893 56.3051 43.8498 56.7209 42.3851 57.0599C44.0323 57.2982 44.5568 58.03 44.5568 59.414C44.5568 61.3753 43.6903 62.1909 41.1278 62.1909Z" fill="white"/>
<path fill-rule="evenodd" clip-rule="evenodd" d="M35.6377 63.895H41.1278C42.5022 63.895 43.8799 63.6954 44.8965 62.8451C46.0004 61.9219 46.2609 60.6051 46.2609 59.414C46.2609 58.6338 46.1334 57.7368 45.5866 56.9595C46.0037 56.2341 46.0934 55.4093 46.0934 54.6499C46.0934 53.641 45.8713 52.3735 44.7264 51.4786C43.7135 50.6869 42.3046 50.467 40.7399 50.467H35.6606V56.2663H36.5247L36.5265 58.0649H35.6377V63.895ZM40.3969 55.8963C40.293 55.743 40.27 55.598 40.2701 55.5069C40.2701 55.414 40.2935 55.2737 40.3969 55.1241V55.8963Z" fill="white"/>
<path d="M48.8774 54.7637C48.0787 54.7637 47.981 55.341 47.981 57.075C47.981 58.8648 48.0787 59.7701 48.8774 59.7701C49.7 59.7701 49.7967 58.8648 49.7967 57.075C49.7967 55.341 49.7 54.7637 48.8774 54.7637ZM48.8774 62.4443C46.0456 62.4443 45.6328 61.2049 45.6328 57.2016C45.6328 53.2132 46.0456 51.9729 48.8774 51.9729C51.734 51.9729 52.1448 53.2132 52.1448 57.2016C52.1448 61.2049 51.734 62.4443 48.8774 62.4443Z" fill="white"/>
<path fill-rule="evenodd" clip-rule="evenodd" d="M46.531 63.7651C47.2621 64.0642 48.0718 64.1482 48.8778 64.1482C49.6889 64.1482 50.5016 64.0644 51.2346 63.7668C52.0263 63.4454 52.6437 62.9074 53.0649 62.165C53.4546 61.4783 53.6329 60.6932 53.728 59.9165C53.8243 59.13 53.8494 58.2166 53.8494 57.2014C53.8494 56.1898 53.8243 55.2789 53.7279 54.4941C53.6327 53.719 53.4542 52.935 53.0642 52.2491C52.6426 51.5076 52.0253 50.9706 51.2342 50.6497C50.5015 50.3524 49.6891 50.2685 48.8778 50.2685C48.0716 50.2685 47.2622 50.3526 46.5314 50.6513C45.7423 50.9739 45.1287 51.5126 44.7102 52.2527C44.3231 52.9375 44.1455 53.7201 44.0506 54.4946C43.9545 55.279 43.9292 56.1895 43.9292 57.2014C43.9292 58.2169 43.9545 59.1299 44.0505 59.916C44.1453 60.6922 44.3227 61.4759 44.7095 62.1614C45.1277 62.9025 45.7413 63.442 46.531 63.7651ZM49.7777 58.6556C49.7777 58.6554 49.7769 58.6525 49.7748 58.6471C49.7766 58.653 49.7776 58.6557 49.7777 58.6556ZM48.0042 58.6365C48.0025 58.6412 48.0017 58.6437 48.0018 58.6438C48.0018 58.6439 48.0027 58.6416 48.0042 58.6365Z" fill="white"/>
<path d="M21.5946 54.7637C20.795 54.7637 20.6992 55.341 20.6992 57.075C20.6992 58.8648 20.795 59.7701 21.5946 59.7701C22.4182 59.7701 22.5149 58.8648 22.5149 57.075C22.5149 55.341 22.4182 54.7637 21.5946 54.7637ZM21.5946 62.4443C18.7619 62.4443 18.3511 61.2049 18.3511 57.2016C18.3511 53.2132 18.7619 51.9729 21.5946 51.9729C24.4503 51.9729 24.8621 53.2132 24.8621 57.2016C24.8621 61.2049 24.4503 62.4443 21.5946 62.4443Z" fill="white"/>
<path fill-rule="evenodd" clip-rule="evenodd" d="M19.2474 63.7651C19.9786 64.0642 20.7884 64.1482 21.5946 64.1482C22.4055 64.1482 23.218 64.0644 23.951 63.7668C24.7426 63.4453 25.3599 62.9075 25.7812 62.1652C26.171 61.4786 26.3494 60.6935 26.4446 59.9167C26.541 59.1301 26.5662 58.2166 26.5662 57.2014C26.5662 56.1897 26.541 55.2788 26.4445 54.4939C26.3492 53.7188 26.1706 52.9348 25.7805 52.2489C25.3589 51.5076 24.7416 50.9706 23.9506 50.6497C23.2179 50.3524 22.4057 50.2685 21.5946 50.2685C20.7882 50.2685 19.9787 50.3526 19.2479 50.6514C18.4586 50.974 17.845 51.5129 17.4268 52.2532C17.04 52.9381 16.8627 53.7207 16.768 54.495C16.6721 55.2793 16.647 56.1897 16.647 57.2014C16.647 58.2167 16.6721 59.1296 16.7679 59.9156C16.8625 60.6916 17.0396 61.4753 17.4261 62.1609C17.844 62.9022 18.4576 63.4419 19.2474 63.7651ZM22.4949 58.6568C22.495 58.6567 22.4941 58.6537 22.4921 58.6483C22.4938 58.6542 22.4948 58.6569 22.4949 58.6568ZM20.722 58.636C20.7203 58.6407 20.7195 58.6432 20.7196 58.6433C20.7196 58.6434 20.7205 58.6411 20.722 58.636Z" fill="white"/>
<path d="M59.88 54.5627L57.9077 57.7304L57.9157 59.7695H58.839V62.1904H54.8337V59.7695H55.8338L55.8268 57.7304L53.4996 54.5627H52.9741V52.1706H56.4759V54.5627H55.8128L56.9884 56.7264L58.3933 54.5627H57.3982V52.1706H60.6837V54.5627H59.88Z" fill="white"/>
<path fill-rule="evenodd" clip-rule="evenodd" d="M53.1291 63.8945H60.5426V58.0654H59.7061L60.8259 56.2668H62.3873V50.4665H51.2695V56.2668H52.6365L53.9579 58.0654H53.1291V63.8945Z" fill="white"/>
<path d="M65.4626 62.3596C64.6629 62.3596 63.6628 61.9947 63.2052 61.4722V62.1911H61.2419V58.6145H63.2251V58.9206C63.2052 59.8988 65.1126 60.3026 65.1216 58.9206C65.1236 58.2287 64.7537 57.8647 63.2909 57.2864C62.1702 56.8218 61.2319 56.413 61.2319 54.5943C61.2319 52.7765 61.9877 52.0457 63.3368 52.0457C64.0457 52.0457 64.6629 52.5442 65.1216 53.0368V52.1713H67.2015V55.6651H65.1216V55.3979C65.1216 55.2563 64.985 54.6511 64.4346 54.5623C63.5831 54.4247 63.4086 54.9741 63.4086 55.369C63.4086 56.0041 64.8982 56.5077 65.2791 56.6692C67.2614 57.5137 67.6123 57.8358 67.6123 59.499C67.6123 61.1761 67.1327 62.3596 65.4626 62.3596Z" fill="white"/>
<path fill-rule="evenodd" clip-rule="evenodd" d="M64.196 63.8952C64.607 64.0017 65.0393 64.0637 65.4626 64.0637C66.7633 64.0637 67.8933 63.5624 68.5925 62.4871C69.1958 61.559 69.3164 60.4337 69.3164 59.499C69.3164 58.8196 69.2757 58.0363 68.9056 57.3026V50.4672H64.2364C63.9573 50.3884 63.657 50.3416 63.3368 50.3416C62.3598 50.3416 61.2823 50.6148 60.4943 51.5181C59.7493 52.3722 59.5278 53.4948 59.5278 54.5943C59.5278 55.4752 59.6977 56.2521 60.0735 56.9104H59.5378V63.8952H64.196Z" fill="white"/>
<path d="M14.7871 62.3889C11.8476 62.3889 11.3989 61.4995 11.3989 57.23C11.3989 52.9734 12.043 52.0859 13.8558 52.0859C15.2347 52.0859 15.5797 52.7012 15.817 53.0461V52.1707H17.7225V56.0025H15.7961C15.7482 54.7611 15.2647 54.6216 14.6913 54.6216C14.0482 54.6216 13.8079 55.0034 13.8079 57.1592C13.8558 59.3009 14.1419 59.7327 14.7392 59.7327C15.9038 59.7327 15.6615 58.9689 15.7094 57.8133H17.8651C18.1044 61.689 17.0026 62.3889 14.7871 62.3889Z" fill="#002B5C"/>
<path d="M35.8518 54.5634L34.1697 62.1912H32.014L31.2143 58.0233L30.275 62.1912H28.2709L26.533 54.5754H25.6914V52.1714H29.1683V54.5624H28.6877L29.4893 58.9636L30.3259 54.5624H29.8922V52.1714H33.1347V54.5624H32.6092L33.4987 58.9636L34.2784 54.5624H33.8486V52.1714H36.6574V54.5634H35.8518Z" fill="#002B5C"/>
<path d="M41.2035 57.6392H40.3969V59.764H41.2753C42.7201 59.764 42.5775 57.6392 41.2035 57.6392ZM41.061 54.5711H40.3969V56.4437H41.1098C42.2455 56.4437 42.2954 54.5711 41.061 54.5711ZM41.1278 62.1909H37.3418V59.769H38.2322L38.2272 54.5622H37.3647V52.1711H40.7399C43.7062 52.1711 44.3893 53.0785 44.3893 54.6499C44.3893 56.3051 43.8498 56.7209 42.3851 57.0599C44.0323 57.2982 44.5568 58.03 44.5568 59.414C44.5568 61.3753 43.6903 62.1909 41.1278 62.1909Z" fill="#002B5C"/>
<path d="M48.8774 54.7637C48.0787 54.7637 47.981 55.341 47.981 57.075C47.981 58.8648 48.0787 59.7701 48.8774 59.7701C49.7 59.7701 49.7967 58.8648 49.7967 57.075C49.7967 55.341 49.7 54.7637 48.8774 54.7637ZM48.8774 62.4443C46.0456 62.4443 45.6328 61.2049 45.6328 57.2016C45.6328 53.2132 46.0456 51.9729 48.8774 51.9729C51.734 51.9729 52.1448 53.2132 52.1448 57.2016C52.1448 61.2049 51.734 62.4443 48.8774 62.4443Z" fill="#002B5C"/>
<path d="M21.5946 54.7637C20.795 54.7637 20.6992 55.341 20.6992 57.075C20.6992 58.8648 20.795 59.7701 21.5946 59.7701C22.4182 59.7701 22.5149 58.8648 22.5149 57.075C22.5149 55.341 22.4182 54.7637 21.5946 54.7637ZM21.5946 62.4443C18.7619 62.4443 18.3511 61.2049 18.3511 57.2016C18.3511 53.2132 18.7619 51.9729 21.5946 51.9729C24.4503 51.9729 24.8621 53.2132 24.8621 57.2016C24.8621 61.2049 24.4503 62.4443 21.5946 62.4443Z" fill="#002B5C"/>
<path d="M59.88 54.5627L57.9077 57.7304L57.9157 59.7695H58.839V62.1904H54.8337V59.7695H55.8338L55.8268 57.7304L53.4996 54.5627H52.9741V52.1706H56.4759V54.5627H55.8128L56.9884 56.7264L58.3933 54.5627H57.3982V52.1706H60.6837V54.5627H59.88Z" fill="#002B5C"/>
<path d="M65.4626 62.3596C64.6629 62.3596 63.6628 61.9947 63.2052 61.4722V62.1911H61.2419V58.6145H63.2251V58.9206C63.2052 59.8988 65.1126 60.3026 65.1216 58.9206C65.1236 58.2287 64.7537 57.8647 63.2909 57.2864C62.1702 56.8218 61.2319 56.413 61.2319 54.5943C61.2319 52.7765 61.9877 52.0457 63.3368 52.0457C64.0457 52.0457 64.6629 52.5442 65.1216 53.0368V52.1713H67.2015V55.6651H65.1216V55.3979C65.1216 55.2563 64.985 54.6511 64.4346 54.5623C63.5831 54.4247 63.4086 54.9741 63.4086 55.369C63.4086 56.0041 64.8982 56.5077 65.2791 56.6692C67.2614 57.5137 67.6123 57.8358 67.6123 59.499C67.6123 61.1761 67.1327 62.3596 65.4626 62.3596Z" fill="#002B5C"/>
<path d="M26.5132 37.9214C27.0676 36.8525 27.4385 35.9661 27.618 35.5124L27.5392 35.5094H19.371C14.3477 34.6509 15.3278 28.1997 15.3278 28.1997C15.3278 28.1997 12.3066 31.3844 13.205 34.2421C14.1024 37.1028 16.962 37.9184 19.2893 37.9184H26.5132V37.9214Z" fill="white"/>
<path d="M40.0342 49.6194C40.815 49.2036 46.639 45.6859 46.639 45.6859L45.9091 47.6172C49.3511 46.2861 51.5906 44.274 51.5906 44.274C51.429 44.9869 50.8597 46.1884 50.8597 46.1884C55.6647 44.4524 56.0077 42.9418 56.0077 42.9418C52.8638 39.797 51.2306 35.1825 51.2306 35.1825H40.5477H39.4868H28.803C28.803 35.1825 27.1707 39.797 24.0249 42.9418C24.0249 42.9418 24.3679 44.4524 29.1729 46.1884C29.1729 46.1884 28.6056 44.9869 28.443 44.274C28.443 44.274 30.6825 46.2861 34.1245 47.6172L33.3936 45.6859C33.3936 45.6859 39.2186 49.2036 39.9983 49.6194H40.0342Z" fill="white"/>
<path d="M53.5223 37.9214C52.9669 36.8525 52.597 35.9661 52.4175 35.5124L52.4963 35.5094H60.6634C65.6868 34.6509 64.7077 28.1997 64.7077 28.1997C64.7077 28.1997 67.7289 31.3844 66.8305 34.2421C65.9321 37.1028 63.0744 37.9184 60.7462 37.9184H53.5223V37.9214Z" fill="white"/>
<path d="M56.0087 42.9416C56.0047 42.9386 56.0027 42.9356 55.9997 42.9326L54.7703 43.0114L52.8698 41.8358L27.4349 41.4091L25.34 43.0274L24.0388 42.9286C24.0349 42.9326 24.0309 42.9376 24.0259 42.9416C24.0259 42.9416 24.3679 44.4522 29.1729 46.1891C29.1729 46.1891 28.6065 44.9876 28.443 44.2727C28.443 44.2727 30.6835 46.2859 34.1254 47.617L33.3946 45.6856C33.3946 45.6856 39.2196 49.2043 39.9993 49.6191H40.0352C40.8149 49.2043 46.639 45.6856 46.639 45.6856L45.9101 47.617C49.3511 46.2859 51.5915 44.2727 51.5915 44.2727C51.429 44.9876 50.8607 46.1891 50.8607 46.1891C55.6657 44.4522 56.0087 42.9416 56.0087 42.9416Z" fill="#FFDD00"/>
<path d="M51.1989 37.8081C51.1989 37.8081 52.9617 41.1344 54.8083 43.0129C54.8083 43.0129 54.0924 44.1276 52.4303 44.5933L53.0784 42.3139C53.0784 42.3139 49.6025 44.9592 47.4757 45.9065C47.4757 45.9065 48.073 44.2104 48.2395 43.6461L40.0354 48.5757H39.9995L31.7954 43.6461C31.9619 44.2104 32.5622 45.9065 32.5622 45.9065C30.4324 44.9592 26.9575 42.3139 26.9575 42.3139L27.6056 44.5933C25.9425 44.1276 25.2266 43.0129 25.2266 43.0129C27.0732 41.1344 28.836 37.8081 28.836 37.8081H51.1989Z" fill="#002B5C"/>
</g>
<defs>
<clipPath id="clip0_401_1679">
<rect width="80" height="80" fill="white"/>
</clipPath>
</defs>
</svg>
