<svg width="80" height="80" viewBox="0 0 80 80" fill="none" xmlns="http://www.w3.org/2000/svg">
<path fill-rule="evenodd" clip-rule="evenodd" d="M66.3378 31.6706L66.3384 31.6671C66.9093 28.4482 67.4014 25.21 67.7827 21.9691L67.8882 21.0721L67.0089 20.8662C49.0022 16.6491 26.156 21.5674 11.7305 28.3184L11.2565 28.5403L11.1638 29.0553C7.01853 52.0954 17.6077 71.059 32.8296 79.7619L33.2465 80.0002L33.6946 79.8278C33.9379 79.7342 34.2085 79.6217 34.4586 79.5178L34.4597 79.5173C34.6216 79.4501 34.7747 79.3864 34.9062 79.3338L34.9177 79.3292L35.3708 79.1351L35.3791 79.1314C44.1561 75.2754 50.7268 69.3472 55.6545 61.6819L53.953 60.5881C49.2261 67.9412 42.9558 73.5925 34.5697 77.2778L34.5656 77.2796L34.1434 77.4605C33.9523 77.537 33.786 77.6065 33.6259 77.6733L33.6257 77.6734C33.5541 77.7033 33.4837 77.7327 33.4129 77.762C19.2783 69.4463 9.35429 51.6864 13.0641 29.9297C27.0063 23.5283 48.5659 18.9571 65.6646 22.6372C65.3056 25.5314 64.8588 28.4268 64.3472 31.312C63.4229 36.4188 62.2656 41.2006 60.831 45.6136L60.8285 45.6217C60.5498 46.5041 60.255 47.3578 59.9431 48.2153L61.844 48.9066C62.1628 48.03 62.467 47.1497 62.7559 46.2351C64.2234 41.72 65.4007 36.8482 66.3378 31.6706ZM55.6876 61.632C58.1314 57.8056 60.1663 53.5559 61.8445 48.921L59.9427 48.2324C58.3077 52.7481 56.3353 56.8601 53.983 60.5434L55.6876 61.632Z" fill="white"/>
<path d="M65.3425 31.4904C65.9105 28.2877 66.3996 25.0692 66.7782 21.8508C49.0609 17.7015 26.4528 22.545 12.1591 29.2343C8.08868 51.8582 18.4856 70.3959 33.3315 78.8838C33.7417 78.726 34.1361 78.5525 34.5305 78.3947L34.9723 78.2054C43.5548 74.4347 49.976 68.6447 54.8037 61.1349M60.8935 48.5608C61.209 47.6931 61.5088 46.8254 61.7928 45.9261L60.8935 48.5608ZM61.7928 45.9261C63.2442 41.4613 64.4117 36.6336 65.3425 31.4904L61.7928 45.9261ZM54.8352 61.0876C57.2333 57.3327 59.2369 53.1519 60.8935 48.5766L54.8352 61.0876Z" fill="white"/>
<path d="M54.8037 26.4893C54.8197 26.5053 54.8197 26.5053 54.8037 26.4893V26.4893Z" fill="white"/>
<path d="M22.1613 64.1957C24.4332 68.1399 27.5412 71.9105 31.0121 75.0343C32.2269 76.1229 33.5521 77.18 34.972 78.1897C43.5546 74.419 49.9915 68.6132 54.8192 61.0877C48.5716 61.0561 42.3082 61.3874 36.1237 62.0658C31.4065 62.5707 26.7366 63.2964 22.1613 64.1957ZM17.0023 50.0439C17.1443 50.8959 17.3494 51.7478 17.5229 52.5682C31.4065 49.5706 46.3313 48.0719 60.909 48.5294C61.2246 47.6617 61.5243 46.7939 61.8083 45.8947C46.8362 45.2951 31.2172 46.7308 17.0023 50.0439ZM12.1115 29.1871C8.05688 51.8267 18.4538 70.396 33.3155 78.8839C33.7257 78.7261 34.1201 78.5526 34.5145 78.379C20.4574 70.3486 10.8494 52.7891 14.6989 31.38C27.3676 25.448 46.8362 21.1094 63.0231 23.8072C50.9697 22.5766 31.9744 25.7162 19.3373 30.6701C18.58 30.9541 17.7911 31.2538 16.9865 31.5694C16.9865 31.5694 16.4343 33.8728 16.2135 37.5645L17.097 37.3279C32.8106 33.0682 49.0607 31.0803 65.3581 31.4589C65.926 28.3509 66.3993 25.1324 66.7938 21.8035C49.0607 17.6385 26.4368 22.4977 12.1115 29.1871Z" fill="#0039A6"/>
<path d="M31.1224 34.141C26.1054 35.0561 21.1357 36.192 16.2133 37.5646C15.9609 41.7454 16.2291 45.9263 16.9864 50.044C23.66 48.4979 30.4124 47.3777 37.2122 46.6835C45.3215 45.8474 53.5569 45.5792 61.7924 45.9105C63.2439 41.4299 64.4113 36.6022 65.3422 31.459C53.7147 31.1908 42.2608 32.1216 31.1224 34.141Z" fill="#C60C30"/>
<path d="M48.4772 59.5572L48.4457 59.6203C48.209 59.9989 47.7042 60.6458 47.1678 61.2295C49.7078 61.1191 52.2637 61.0718 54.8353 61.0875C57.2491 57.3169 59.2528 53.1203 60.9251 48.5292C50.4809 48.1979 40.1629 48.829 30.0184 50.312C30.0184 50.3278 30.0184 50.312 30.0342 50.3278C30.3971 50.9273 30.7599 51.4322 30.9808 51.7792C31.4699 52.505 31.0912 53.0098 31.1544 53.3727C31.2175 53.704 31.0281 54.6979 31.2963 55.7708C30.9966 56.1652 30.3655 56.6385 30.05 57.3642C29.482 58.6264 29.3716 59.6834 29.7344 61.2768C29.6556 61.8133 29.6398 62.3654 29.6871 62.9019C33.5051 62.3339 37.3546 61.8921 41.2041 61.6082L41.2199 61.5924C42.2139 60.3934 42.3401 59.6992 42.7345 58.0426C43.0185 56.528 43.2867 56.8278 43.9809 55.9916C44.4857 55.3763 44.5488 54.7926 44.3753 53.7987C44.4068 53.7987 44.4384 53.7987 44.4542 53.7987C47.6568 53.5147 48.5877 52.9783 49.4554 52.8047C51.2855 52.4261 51.1277 53.5778 51.1435 53.8776C51.112 54.3824 50.7491 55.3921 50.0707 56.6385C50.0707 56.6069 49.6132 57.8533 48.4772 59.5572Z" fill="#BBC1DB"/>
<path d="M63.1496 40.5464C62.9761 39.2054 62.7552 37.9748 62.3134 36.9808C61.493 35.135 59.4578 32.9736 57.7224 31.459C46.7891 31.6956 35.9031 32.9893 25.2223 35.3401C25.0961 35.7976 24.9856 36.2709 24.9067 36.7442C24.9541 36.902 25.0645 37.1386 25.1907 37.3753C25.1276 38.0537 25.4274 39.6629 25.6798 40.4044C25.5536 40.6726 25.522 40.9724 25.6009 41.2406C25.7271 41.6034 26.374 42.1556 26.7684 42.3449C26.7684 42.3449 26.8946 45.311 29.2611 46.652C29.1507 46.9991 29.056 47.3462 28.9929 47.709C39.8473 46.0525 50.8279 45.4372 61.7928 45.8789C62.345 44.1908 62.8341 42.4869 63.2916 40.7673L63.1496 40.5464Z" fill="#9F0A2B"/>
<path d="M37.7017 20.1626C36.834 19.6736 35.8874 19.3738 34.9092 19.2318C33.6471 19.6578 32.4007 20.3993 31.5803 20.8884C31.1228 21.8665 30.2866 24.1542 30.2709 24.5959C30.5391 24.5959 30.9808 24.5801 31.5172 24.4066C31.2806 24.6275 31.0597 24.8957 30.8073 25.2585C29.8607 25.6056 28.5354 26.1263 27.1944 26.852C26.8315 27.1517 26.4371 27.6566 26.2951 28.193C26.2162 28.4454 26.2478 28.7136 26.4529 28.8714C26.5791 28.9819 26.7842 29.0765 26.9735 29.1238L27.0051 29.1396C26.8631 29.9442 27.1313 31.0644 27.4468 31.585C27.3364 31.7428 27.226 31.9952 27.1155 32.295C26.7842 33.1785 26.5318 34.1093 26.374 35.0401C26.4213 35.1979 26.5318 35.4345 26.658 35.6712C26.5949 36.3496 26.8946 37.9588 27.1471 38.7003C27.0209 38.9685 26.9893 39.2683 27.0682 39.5365C27.1944 39.8994 27.8412 40.4516 28.2357 40.6409C28.2357 40.6409 28.3619 43.6069 30.7284 44.9479C30.5233 45.6421 30.4286 46.0681 30.4129 46.5098C30.4286 46.5414 30.4444 46.5887 30.4602 46.6203C30.6653 47.2198 31.0597 47.914 31.4541 48.5608C31.817 49.1603 32.1956 49.6967 32.4323 50.0438C32.9214 50.7696 32.7163 51.3691 32.6689 51.7319C32.6216 52.1106 32.4796 52.9625 32.7478 54.0196C32.4481 54.414 31.817 54.8873 31.5015 55.613C30.9335 56.8752 30.8231 57.9322 31.1859 59.5257C30.8704 61.6082 31.5488 63.6118 33.2211 64.2429C34.1362 64.5742 34.8619 64.6058 35.2248 64.4796C36.2029 64.59 37.0233 64.2114 37.5597 63.8327C38.3801 63.3121 39.3898 63.1385 40.4469 61.8291C40.8571 61.3242 41.6775 61.0402 42.6714 59.8412C43.6653 58.6422 43.7915 57.948 44.186 56.2914C44.4699 54.7769 44.7382 55.0766 45.4323 54.2404C45.9372 53.6251 46.0003 53.0414 45.8268 52.0475H45.9214C49.1241 51.7635 50.0549 51.2271 50.9226 51.0535C52.7527 50.6749 52.595 51.8266 52.6108 52.1264C52.5792 52.6312 52.2163 53.6409 51.5379 54.8873C51.5379 54.8873 51.0646 56.1337 49.9445 57.8533L49.9129 57.9164C49.3923 58.7684 47.5149 60.8825 47.01 60.8982C45.0695 60.9771 43.6022 61.8133 42.6714 63.7381C41.4881 64.0851 39.9736 65.3473 39.7369 67.3352C39.7369 67.3509 39.5792 68.4711 40.2576 69.2599C40.4469 69.5123 40.8413 69.7332 41.0779 70.0172C41.3777 70.3801 41.8826 70.459 42.1823 70.5694C42.7661 70.7272 43.4129 70.5852 44.1702 70.3012C45.1168 69.9225 46.8207 71.1374 49.1083 71.1216C51.601 71.1058 53.5889 71.0585 54.0938 71.5476C55.4506 72.9044 57.3438 71.516 57.3438 71.516C58.3693 70.7429 58.6848 69.5439 58.7952 69.0233C59.2528 66.7041 58.9057 66.5937 58.7479 64.874C58.5901 63.1701 59.3159 61.7344 59.6156 61.1349C61.0829 58.09 64.2856 55.8497 65.879 50.6118C67.3936 45.6421 66.8414 40.6882 64.5064 37.8484C64.3329 36.5074 64.2382 36.2707 63.7965 35.2926C62.7394 32.926 59.6945 30.0389 57.8486 28.6821C57.0125 27.4673 55.7188 26.2525 54.7564 25.6214C54.7248 25.5267 54.6933 25.4163 54.6775 25.3216L54.3462 24.6432C54.1253 24.2962 53.8098 24.0122 53.3365 23.602C52.9894 23.3496 52.2794 22.9078 51.743 22.8447C51.9324 22.5607 52.0901 22.0716 52.0901 21.7561C50.7175 20.2415 48.4141 19.4685 46.9311 18.1274C45.2115 18.1274 43.4918 18.2694 41.8037 18.5376C41.1726 18.8532 40.5889 19.2791 40.084 19.7682C39.4372 19.7998 38.317 20.0049 37.7017 20.1626Z" fill="#06357A"/>
<path d="M38.4746 37.0123C38.9637 37.0596 40.4941 37.2647 41.6773 37.4698C41.2829 37.2016 40.7623 36.4128 40.5098 36.0499C40.289 36.3339 40.0996 36.6021 39.7999 36.8703C39.6421 36.539 39.153 35.9552 38.6008 35.6713C38.4904 36.0026 38.2853 36.3497 38.1275 36.6336C37.6069 36.4601 37.1021 36.2234 36.6288 35.9237C36.5341 35.9552 36.4394 36.0026 36.3448 36.0657C36.8023 36.2866 37.528 36.6652 38.1275 37.2647C38.1433 37.2489 38.4746 37.0123 38.4746 37.0123ZM38.6166 34.7404C38.9953 34.9771 39.5632 35.4504 39.9261 35.9395C39.9734 35.8606 40.0839 35.7659 40.1312 35.6239C39.863 35.4031 39.2477 34.7089 39.011 34.346C38.5377 34.4249 37.6069 34.5827 36.8654 34.8035C36.6603 34.8982 36.471 34.9929 36.2817 35.1191C36.5499 35.3557 37.1967 35.7344 38.0013 35.9237C38.3169 35.4662 38.4904 35.0244 38.6166 34.7404ZM56.1446 69.7648C55.7502 69.5597 55.2769 69.9068 55.3084 70.3801C55.3242 70.6483 55.2453 71.1059 55.4189 71.2636C55.4189 71.2636 55.766 71.5003 56.3497 70.7903C56.6179 70.4748 56.4917 69.9542 56.1446 69.7648ZM55.5293 66.8777C54.9771 66.5306 54.4565 66.4044 54.1252 66.4359V66.2308C54.0936 65.1265 53.1312 62.9019 50.7016 62.9177C49.6604 62.9177 49.3606 63.8801 49.2502 64.6058C49.1082 65.6471 49.0766 66.8461 49.1239 67.1459C49.1713 67.493 49.1082 68.0452 49.4553 68.3292C49.6288 68.4711 49.8812 68.5658 49.9128 68.3607C49.9443 67.9663 50.0232 67.4772 50.2441 67.209C50.4808 66.9408 50.7963 66.7357 51.1276 66.7357C51.2223 66.7357 51.3327 66.7515 51.4431 66.7673C51.8849 66.8777 52.2793 67.1932 52.4844 67.6034C52.6895 67.9978 52.7053 68.5342 52.5317 68.9444C52.4528 69.1338 52.3582 69.3073 52.2635 69.4651C52.2635 69.5282 52.2793 69.5597 52.3109 69.5597C52.7211 69.6228 53.3521 69.3073 53.6203 68.9129C53.9201 68.4396 54.0779 67.8558 54.1252 67.1932C54.5196 67.6507 54.3776 68.7709 54.3145 69.1338C54.2672 69.402 54.1883 69.9226 54.3303 70.2224C54.4565 70.4748 54.7247 70.5537 54.8509 70.4748V70.4432C54.7878 70.1277 54.8509 69.7964 55.0402 69.5282C55.2296 69.26 55.4978 69.1022 55.8133 69.0549C55.9711 69.0391 56.1288 69.0549 56.2866 69.1022C56.6179 69.2284 56.823 69.5124 56.9492 69.8595C57.0123 70.033 57.0281 70.1908 57.0123 70.3643C57.1228 70.4275 57.2017 70.317 57.2648 70.0961C57.675 68.5974 56.4444 67.4614 55.5293 66.8777ZM51.3958 67.5245C50.7332 67.3037 50.3388 68.0294 50.3703 68.6447C50.3861 69.0075 50.1337 69.7491 50.6227 69.9384C50.6227 69.9384 51.3169 70.0804 51.948 68.8813C52.1846 68.408 52.0111 67.8401 51.5378 67.5876C51.4905 67.5561 51.4431 67.5403 51.3958 67.5245ZM65.2794 45.1531C65.2636 44.1434 65.2794 43.8436 64.9638 42.5026C64.2539 39.4735 62.0924 36.4285 59.8364 34.0936C61.1143 34.7247 61.9978 35.3715 62.9917 36.8387C62.8024 34.7562 60.5305 31.6324 58.4953 30.1652C59.016 31.2064 59.1895 32.295 59.2211 33.2574C59.2369 34.1409 59.0791 35.2453 58.9213 35.8921C58.5742 37.1858 58.2114 38.6215 57.1228 39.6786C56.2866 40.3096 55.3873 41.1458 54.5827 41.6664L53.2575 42.6919C52.4055 43.4019 51.7902 43.9856 51.4905 44.7113C52.3109 44.0014 53.9832 42.4237 55.7186 41.9977C55.3558 42.3291 54.8351 42.8812 53.7465 43.749C54.1725 43.8594 54.5196 44.1434 54.8351 44.664C55.3715 45.5317 55.5135 46.8096 55.3242 48.0245C56.2393 47.5669 57.6118 45.374 57.8327 43.6227C57.9432 42.7392 58.0536 42.1713 58.0536 42.1713C58.0536 42.1713 58.1483 42.5341 58.2271 43.5123C58.3691 45.4844 57.6276 47.6458 56.8072 48.9868C56.3813 49.681 55.6082 49.965 55.2769 50.4225C54.9298 50.8958 55.0402 51.2271 54.9456 52.016C54.7878 53.2623 53.6361 54.2089 54.2672 54.1774C54.6931 54.1458 55.5924 54.1774 55.9711 54.5718C55.1822 54.3352 53.2732 54.9031 52.3109 56.3861C52.0427 56.7963 51.4274 57.8692 51.4274 57.8692C51.4274 57.8692 50.7016 59.226 49.3133 60.4723C48.3667 61.3243 48.5402 61.3874 48.7453 61.4347C48.7769 61.4347 48.8084 61.4505 48.84 61.4663C50.039 60.8825 50.9225 60.1726 51.3958 59.6204C51.664 59.3048 51.8376 59.1628 51.8376 59.1628C51.8376 59.1628 51.7587 59.3837 51.5378 59.7466C51.096 60.4408 50.749 61.0718 49.613 61.9869C52.8473 61.3558 55.2138 63.7381 55.5451 66.0415C56.2393 66.2308 56.9019 66.5306 57.2805 67.1301C58.0536 65.584 57.6276 63.7539 57.533 62.334C57.4541 61.1665 57.7854 59.4942 58.6373 57.7587C58.4165 58.6895 58.2902 59.6046 58.2587 60.3934C58.7635 58.8 60.6094 57.0488 61.9347 55.6289C63.3704 54.1932 64.3485 51.874 64.6641 50.0912C65.0743 47.8351 65.1374 45.7053 63.8594 42.124C64.5221 42.9759 65.0269 44.0329 65.2794 45.1531ZM42.4977 57.5378C42.7028 56.2442 44.1385 53.5463 42.4977 55.2975C41.5511 56.3073 40.6518 56.5912 39.5632 57.3327C38.0329 58.3582 39.011 59.5415 38.7428 60.3146C38.6324 60.6459 38.7113 60.4723 38.3169 60.993C37.6227 61.8922 36.4552 62.0973 36.9916 62.4286C37.5438 62.76 37.6385 62.4286 38.1118 62.334C38.4273 62.2709 38.8217 62.0184 38.9322 61.6714C39.1373 61.1034 39.5001 60.1883 40.5887 59.857C41.6931 59.5415 42.3084 58.8158 42.4977 57.5378ZM41.7562 68.266C41.4249 68.4869 41.3302 69.0075 41.63 69.3073C42.2768 69.9542 42.5924 69.7017 42.5924 69.7017C42.7659 69.5282 42.6397 69.0707 42.6397 68.8025C42.6239 68.3292 42.1191 68.0294 41.7562 68.266ZM45.8897 66.6568C45.3533 66.641 44.9116 67.0512 44.8958 67.5876C44.8958 67.635 44.8958 67.6981 44.8958 67.7454C45.0851 69.0864 45.7951 69.1969 45.7951 69.1969C46.3315 69.1969 46.3315 68.408 46.4735 68.0609C46.7101 67.493 46.5839 66.6884 45.8897 66.6568ZM46.3788 62.2078C46.3788 62.2078 44.596 62.2393 43.681 63.9748C43.681 63.9748 43.5863 64.1799 43.4916 64.4954C43.4443 64.5112 43.3812 64.5112 43.3339 64.527C41.5038 64.9845 40.6203 66.5779 40.5887 67.5561C40.5887 68.0609 40.6361 68.692 40.9358 68.9287C40.9043 68.7551 40.9043 68.5816 40.9516 68.408C41.0305 68.0452 41.2671 67.7454 41.5984 67.5876C41.7404 67.5245 41.8982 67.4772 42.0402 67.4772C42.3557 67.4772 42.6555 67.6192 42.8606 67.8558C42.971 67.9821 43.0499 68.1241 43.0972 68.2818C43.2392 68.2503 43.3023 68.0609 43.2392 67.7927C43.0499 67.067 42.971 66.4517 43.2865 65.5209C43.2234 66.3571 43.2865 67.4772 44.1385 68.1714C44.1385 68.1714 44.4067 68.3449 44.5329 68.2503C44.454 68.0294 44.4067 67.7927 44.3751 67.5561C44.2647 66.7199 44.8484 65.9626 45.6846 65.8522C45.7477 65.8364 45.8108 65.8364 45.8739 65.8364H45.9213C46.3315 65.8522 46.6785 66.0415 46.8994 66.3728C47.1834 66.7988 47.215 67.4457 46.9941 68.0136C46.9625 68.0767 46.9468 68.1872 46.9152 68.2976V68.3134C47.2307 68.3607 47.5621 68.266 47.8145 68.0767C47.8145 68.0767 49.0451 67.3194 48.8084 63.9432C48.7769 63.959 48.5402 61.8607 46.3788 62.2078ZM42.9237 51.1798C43.1919 50.9747 43.5232 50.8801 43.8545 50.9274C42.545 49.8861 40.4467 49.9492 39.863 50.4541C39.7999 50.4225 39.7368 50.4067 39.6737 50.3752C39.2635 50.249 37.4965 49.965 36.4237 50.8801C35.3035 51.8582 34.5304 53.4043 35.9819 54.5245C36.9601 55.2818 37.9067 55.7866 38.9795 54.8716C39.0584 54.8085 38.664 54.5087 38.3642 54.067C38.0487 53.7199 37.8436 53.2939 37.8593 52.8837C37.8593 52.4893 38.0644 52.1264 38.4115 51.9055C39.0268 51.4953 39.8472 51.5742 40.3521 52.1106C40.431 52.1737 40.5256 52.2526 40.5887 52.3473C41.5984 53.5621 41.3145 52.1895 41.0147 51.5427C40.8727 51.2429 40.6676 50.9747 40.4152 50.7538C40.7465 50.8012 41.1725 51.0694 41.4091 51.4007C41.6458 51.7478 41.8351 52.1895 42.1664 52.5051C42.5293 52.8521 42.687 52.7733 42.7344 52.5366C42.6555 52.4104 42.6081 52.2842 42.5924 52.158C42.4819 51.8267 42.6239 51.4322 42.9237 51.1798ZM38.8375 52.5682C38.2538 52.9626 38.5851 53.7041 39.0899 54.067C39.3897 54.2721 39.8157 54.9347 40.2732 54.6665C40.2732 54.6665 40.8096 54.209 40.2574 52.9626C40.0365 52.4735 39.4686 52.2684 38.9795 52.4893C38.9322 52.5208 38.8848 52.5524 38.8375 52.5682ZM43.539 52.5839C43.7756 52.7102 44.1227 53.0415 44.3436 52.9626C44.3436 52.9626 44.7222 52.8048 44.454 51.9213C44.3278 51.5269 43.823 51.3534 43.4759 51.5427C43.0815 51.7793 43.1288 52.3631 43.539 52.5839ZM34.3096 61.3874C34.3727 61.3874 34.4516 61.3874 34.5147 61.4032C34.5462 61.3243 34.4042 61.1981 34.0729 61.1823C33.2368 61.1349 32.4952 60.5354 32.1482 59.5573C31.7222 60.4092 31.9904 62.192 32.653 62.9177C33.079 63.391 33.6943 63.5646 33.7732 63.4699C33.4418 63.2648 33.221 62.9335 33.1736 62.5549C33.1421 62.2551 33.2368 61.9711 33.4418 61.7502C33.6785 61.5294 33.994 61.3874 34.3096 61.3874ZM53.8728 48.5609C54.1567 48.482 54.3934 48.3873 54.5985 48.3242C54.5827 46.5572 53.9043 45.4528 52.5475 44.5536C51.1749 45.7368 50.2283 46.5414 49.1239 47.141C48.5402 47.4565 47.8934 47.7089 47.0256 47.9298C46.5523 48.056 46.1264 48.1349 45.7004 48.2138C46.6154 47.9456 47.5305 47.3461 48.2247 46.6834C48.4771 46.431 48.7138 46.1628 48.9189 45.8788C48.6349 46.1628 48.2878 46.3837 47.8776 46.5099C47.6567 46.5888 47.4201 46.6361 47.1676 46.6677C47.3254 46.573 47.4674 46.4783 47.5936 46.3837C48.2562 45.8946 48.6822 45.1689 48.8084 44.3643C48.2247 45.3266 47.3727 45.8788 46.6786 45.8946L46.647 45.9104C46.0317 46.3363 45.164 46.573 44.5329 46.5888C42.7817 46.6519 42.2137 46.7308 42.2137 46.7308C42.4188 46.999 43.255 48.5135 43.3654 49.1604C44.2805 49.5233 45.0851 50.4856 45.4637 51.0063C47.6725 50.8643 50.0074 50.249 51.8849 49.7126C50.749 49.539 49.7708 50.0123 48.3509 49.823C49.2344 49.7283 50.1021 49.539 50.9383 49.2708C51.7902 48.9711 51.8533 48.1664 50.5281 47.141C52.1531 47.3303 53.289 47.7878 53.8728 48.5609ZM29.2926 31.5851C30.2392 31.096 31.2962 30.9067 32.3533 31.0329L32.4795 31.2538C31.9273 31.6482 30.9965 32.9419 30.8545 33.2574C30.5863 33.3678 29.7185 33.5256 29.5134 33.4941C29.3872 33.0365 29.2137 32.0426 29.2926 31.5851ZM45.7319 24.0438C47.8145 24.5644 49.1555 25.0693 49.9601 25.5584C50.749 26.6943 51.3958 27.8618 51.7587 29.045C50.181 26.9625 48.4613 25.2586 45.7319 24.0438ZM40.8885 23.8702L40.778 23.9018L41.2198 24.1227C38.6324 24.2647 36.6919 25.4795 36.6919 25.4795C37.5438 24.7064 38.3958 24.1858 39.2004 23.8702C39.2004 23.8702 41.1882 23.3496 43.0972 23.5547C42.1664 23.602 41.6931 23.6651 40.8885 23.8702ZM31.8484 37.3436C31.8484 37.3436 31.6591 37.4383 31.3909 37.596C30.5863 38.0062 30.0656 38.4795 29.7343 39.1895L29.6712 39.3157C29.6712 39.3157 30.7598 46.2101 35.5717 44.0329C36.6919 43.7647 38.6955 43.9383 39.9261 43.1652C39.7526 43.6701 39.4528 43.7016 39.1373 43.9698C39.9261 44.1434 40.1785 44.4274 40.7623 44.0172C41.4407 43.5439 41.3145 43.7332 42.0086 44.0803C42.7028 44.4431 43.9649 45.1058 45.0378 45.0111C45.59 44.9007 46.0002 44.5851 46.3157 44.2854C45.9055 44.1907 45.5268 44.0172 45.1955 43.7647C44.596 43.3072 44.7222 42.6446 44.2963 41.7611L43.8861 41.3036C42.9237 42.0608 42.1348 42.3922 40.8885 42.755C41.3618 42.1397 41.772 41.84 42.3873 41.4613C42.7344 41.2404 43.2077 40.7987 43.6179 40.4043L43.2392 39.1264C43.0183 38.9528 42.7975 38.7635 42.5924 38.5584C41.1567 38.0378 39.8314 37.8169 38.4115 37.5802L37.8436 38.1482C37.3703 37.5014 36.4079 36.681 35.3508 36.1288C34.9406 36.0026 34.4516 35.8132 33.994 35.7501C33.9309 35.2453 33.5996 34.2514 33.2683 33.6361C33.079 33.9989 32.6688 34.772 32.4637 35.6713C31.7064 35.7186 30.9491 35.8448 30.2076 36.0499C30.0025 36.0972 29.7974 36.1603 29.6081 36.2392C29.545 36.0341 29.1348 35.4662 28.7561 35.0244C28.6457 34.8824 28.5511 34.7404 28.4406 34.6142L29.971 35.2768C30.6178 35.0717 31.2015 34.9455 31.6275 34.8666C31.8484 34.8351 32.0535 34.8035 32.2744 34.7878C32.5741 34.0936 33.3787 32.9577 33.3787 32.9577C34.0571 33.4783 34.562 34.2198 34.9406 35.2926C35.3824 34.8035 36.0135 34.346 36.613 34.0778C37.7016 33.6045 39.7368 33.147 40.6203 33.431C40.8569 34.7562 41.914 36.0972 42.5135 37.312C42.8448 37.8327 43.1446 38.7951 43.1446 38.7951L42.8606 35.0717L44.2016 39.7417C44.2016 39.7417 46.0633 42.8812 47.4832 43.1968C47.9091 43.0706 48.3036 42.9443 48.556 42.8023C49.1082 42.471 49.8812 41.6191 50.3545 40.7514C50.4176 40.5936 50.4965 40.1992 50.5596 39.7732C50.607 39.4577 50.6385 39.1421 50.6385 38.8266C50.9225 39.4419 51.0645 40.0099 51.2065 40.8776C51.0803 41.6191 50.749 42.5341 50.3545 43.3861C51.1118 43.0075 51.806 41.0827 52.1373 40.4358C52.5002 39.7574 53.2259 38.4164 53.573 37.0281C53.573 36.823 53.5414 36.6336 53.4941 36.4443C53.1628 35.3399 52.6422 33.8569 52.2793 32.863C52.6579 33.3836 52.9577 33.8569 53.2417 34.3302C53.6361 34.9929 53.9516 35.687 54.2987 36.6021C54.3145 37.8011 54.283 39.1264 54.0463 40.4358C54.0779 40.4043 55.9395 38.9213 57.2963 36.6967C58.0694 35.4504 58.9686 33.6361 58.3534 31.0013C58.0536 29.7708 56.2235 27.7513 55.198 27.0729C55.1507 27.0414 55.0876 27.0098 55.0402 26.9783L54.8351 26.4892C54.7878 26.4261 53.999 25.2744 53.1944 24.7222C52.7999 24.4382 51.6482 23.8545 50.9383 23.7283L50.2757 23.7598C49.5026 23.7598 48.7453 23.8071 47.9722 23.9018C45.7951 22.6712 43.9807 22.0086 42.3084 21.6299C42.0717 21.7562 41.8824 21.835 41.6931 21.9297C41.8035 21.4722 41.9771 21.0935 42.3242 20.7938C42.3242 20.7938 44.738 21.6615 46.1895 22.4503C46.7417 22.4977 48.9346 22.4977 49.9443 22.2452C50.0863 22.119 50.1494 21.8666 50.1652 21.6615C49.9128 21.2513 48.9977 20.8569 47.5778 20.0365C46.8205 19.579 46.079 18.9952 46.079 18.9952C46.079 18.9952 45.5268 18.9479 44.9747 18.9637C44.5645 18.9794 42.2137 19.1688 41.772 19.3423C41.6773 19.3739 41.3618 19.5001 41.3302 19.5159C40.8254 19.6894 40.3205 20.0207 39.7526 20.5413C39.4686 20.7149 39.1688 20.8411 38.8533 20.9515C37.7331 21.3302 36.0608 21.7562 35.5717 21.9455C34.8144 22.261 33.4892 23.0499 33.4892 23.0499L31.9115 25.0377C31.5802 25.4479 31.2962 25.8423 31.1227 26.1579C30.0498 26.505 28.5826 27.1518 27.8884 27.6251C27.7149 27.7513 27.4782 28.0826 27.5887 28.2246C27.7149 28.3351 27.8569 28.4297 27.9989 28.4771C28.2828 28.5086 28.5037 28.5244 28.6773 28.5086C28.7404 28.5086 28.7877 28.4928 28.835 28.4928C28.9928 28.7295 29.1821 29.0924 29.5765 29.2028C29.5765 29.2028 29.9236 29.2186 30.318 29.2028C30.46 29.2028 30.6178 29.187 30.7598 29.1712C31.1069 28.9977 31.6275 28.4455 31.7695 28.2562C31.9746 28.0038 32.2428 27.5778 32.6215 27.0256C33.0474 26.4892 33.9152 25.7792 34.7198 25.1797C35.0511 24.9904 35.9819 24.4855 37.1967 24.0438C36.5341 24.3435 34.562 26.0317 33.9625 26.8205C33.6154 27.3096 33.5681 27.7513 33.505 28.0984C33.5207 28.2089 33.6943 28.5086 34.0414 28.8084C34.5936 28.7926 35.9977 28.3508 36.5341 28.2562C37.5596 27.8933 38.3011 26.9309 38.7902 26.2683C39.437 26.2525 41.7246 26.2052 42.7975 25.9528C43.1761 26.1263 44.0912 26.8047 44.8484 27.6567C44.3751 27.3411 43.6652 27.0414 43.0183 26.8836C42.7659 26.9152 41.9455 26.9783 41.63 27.0729C41.6931 27.9406 41.346 28.4613 40.9043 28.9661C41.3618 28.9188 42.1664 28.9977 43.113 28.9661C44.6433 29.2974 45.8424 30.7016 45.8424 30.7016C44.6749 29.6603 42.7344 29.5814 42.7344 29.5814C41.3618 29.4552 39.1846 29.6288 37.67 29.8339C38.0171 30.1809 38.5851 31.1591 39.0268 31.9953C38.0013 30.8909 37.3229 30.5911 36.2028 30.1021C35.0984 29.7076 33.7574 29.6761 33.1736 29.6919C32.7634 29.7076 32.3533 29.755 31.9431 29.8181C29.3083 30.5754 27.7149 32.1846 27.3047 33.6203C27.3362 33.9831 27.5887 34.3302 27.8727 34.5827C27.8884 35.1506 28.1093 36.3497 28.3933 37.0123C28.3933 37.0123 28.3302 37.0754 28.2355 37.1701C28.1251 37.2647 28.0304 37.3594 27.9673 37.454C27.8569 37.6118 27.8569 37.9273 27.92 38.1482C27.9515 38.2429 27.9989 38.3375 28.062 38.4164C28.062 38.4164 28.346 38.7635 28.9612 38.5584C28.9612 38.5584 29.7816 38.1009 30.6178 37.7696C30.9649 37.5487 31.4066 37.4225 31.8484 37.3436ZM27.8569 29.2974C27.7307 29.8812 28.0304 30.528 28.3775 30.7962C28.6773 30.5754 29.1506 30.3072 29.5134 30.1336C29.403 30.0705 29.2926 29.9758 29.1979 29.8812C29.1506 30.1178 29.0086 30.3072 28.8193 30.3387C28.5511 30.386 28.2828 30.1021 28.2197 29.7234C28.204 29.5972 28.204 29.4552 28.2513 29.329C28.1251 29.329 27.9831 29.329 27.8569 29.2974ZM38.9322 28.9346C38.6324 28.9504 38.3642 28.7453 38.2222 28.4455C37.8751 28.7453 37.5123 29.0292 37.2283 29.187C37.7016 29.1555 38.7428 29.1397 39.2477 29.0923C40.2732 28.9661 40.5572 28.3982 40.5729 28.1615C40.5887 27.9406 40.6045 27.562 40.3205 27.1518C39.9419 27.1991 39.7999 27.1991 39.3739 27.2307C39.3581 27.2465 39.3581 27.2622 39.3424 27.2622C39.4843 27.42 39.579 27.6567 39.5948 27.9091C39.6579 28.4613 39.3424 28.903 38.9322 28.9346ZM36.9285 58.1689C37.5596 56.3546 37.1967 56.0233 35.7768 54.9978C34.5147 54.0827 33.2368 54.8085 32.511 56.2126C31.9588 57.2696 32.085 58.3109 32.5583 59.2417C32.8108 59.7466 33.4103 60.2988 34.1202 60.4092C34.7986 60.5197 35.8084 60.5197 34.9091 59.9359C34.7198 59.857 34.5304 59.7624 34.3569 59.6519C33.6469 59.2102 33.4418 58.2794 33.8836 57.5694C33.9309 57.4905 33.9783 57.4274 34.0414 57.3643C34.2622 57.0961 34.5936 56.9541 34.9406 56.9541C35.5086 56.9541 35.9977 57.3485 36.2974 57.7745C36.3606 57.8376 36.4079 57.9165 36.4552 57.9954C36.7865 58.4845 36.9285 58.1689 36.9285 58.1689ZM32.2428 22.2295C31.6906 22.8132 31.4855 23.1287 31.2804 23.6494C31.9273 23.4285 32.5268 23.1287 33.0948 22.7501C32.8266 22.545 32.5268 22.3083 32.2428 22.2295ZM34.7355 63.3121C35.6033 63.0439 35.5244 62.6337 35.5244 62.6337C35.4455 62.3971 34.988 62.3024 34.7513 62.192C34.3253 61.9869 33.8205 62.2867 33.8678 62.7284C33.9151 63.1228 34.3411 63.4384 34.7355 63.3121ZM36.4868 59.573C36.8339 59.1629 36.2186 58.658 36.0608 58.3267C35.7768 57.7903 35.0669 57.3485 34.6093 57.8692C34.2622 58.2636 34.2938 58.8789 34.6882 59.226C34.7198 59.2575 34.7671 59.2891 34.8144 59.3206C35.9504 60.0463 36.4868 59.573 36.4868 59.573ZM39.0426 47.5669C39.2635 47.5827 40.4783 47.7089 41.204 47.8982C40.92 47.3618 40.5098 46.6519 38.6482 46.1786C38.238 46.0997 37.9856 46.1628 37.6227 46.0681C36.2501 45.7211 35.3508 45.9419 35.3508 45.9419C33.7101 46.2732 32.4479 45.7053 31.4855 45.3582C31.5644 45.7211 31.6433 46.1786 31.8168 46.5572C32.8108 47.6616 33.4261 48.6398 33.7574 48.8606C34.4042 49.3182 34.8144 50.1543 34.8775 50.4383C34.4358 49.965 34.0729 49.7757 33.4734 49.5075C33.505 50.2963 33.5523 50.7223 33.6943 51.2587C33.7889 51.7478 33.3787 52.7102 33.2999 53.4674C33.7101 53.1203 34.0414 53.0572 34.1202 52.6471C34.3411 51.2902 34.9722 50.3752 36.6761 49.7284C37.7647 49.3182 38.9795 49.3182 39.6106 49.5233C39.8472 49.6652 40.7149 49.2393 41.5511 49.4286C41.5511 49.4286 41.0147 48.6871 39.6106 48.2453C38.8059 47.9929 37.2914 47.772 36.2817 47.8036C37.0232 47.5512 38.2853 47.5038 39.0426 47.5669ZM33.6785 22.3241C34.0887 22.0559 35.619 21.1251 36.6445 20.6991C36.2817 20.494 35.0037 20.2258 34.2149 20.1785C33.7101 20.3205 32.8266 20.7307 32.227 21.1251C32.6372 21.346 33.4892 22.0244 33.6785 22.3241Z" fill="white"/>
<path d="M36.2501 2.42962C35.7137 2.27185 35.2246 2.30341 35.2246 1.94054C35.2246 1.67234 35.477 1.54612 35.8399 1.54612C36.2501 1.54612 36.6761 1.70389 37.0232 1.90899L37.2598 0.457526C36.7392 0.157768 36.187 0 35.6033 0C34.5304 0 33.2999 0.53641 33.2999 2.01943C33.2999 3.09225 33.9309 3.66021 34.5778 3.88108C35.1457 4.0704 35.7453 4.0073 35.7453 4.38594C35.7453 4.63837 35.4928 4.81191 35.1142 4.81191C34.6251 4.81191 34.1045 4.57526 33.6627 4.2755L33.2525 5.75852C33.8047 6.08983 34.4831 6.37381 35.2562 6.37381C36.471 6.37381 37.67 5.67963 37.67 4.25973C37.67 3.1238 36.897 2.63472 36.2501 2.42962ZM40.9989 14.7986C40.8411 14.8302 40.6834 14.8459 40.5256 14.8302V9.95514C40.6676 9.93936 40.7938 9.92358 40.9516 9.93936C41.6931 10.0182 42.5293 10.602 42.5293 12.369C42.5135 14.0098 41.7404 14.6566 40.9989 14.7986ZM40.3994 7.54129C39.3108 7.52551 38.38 7.55707 37.5911 7.58862V17.1651C38.2222 17.2124 38.7428 17.2282 39.3739 17.2282C43.539 17.2282 45.4164 15.5717 45.4164 12.4005C45.4322 9.15052 43.6021 7.58862 40.3994 7.54129ZM33.8205 7.58862H30.9018V17.1651H36.8812V14.767H33.8205V7.58862ZM27.1311 7.58862H24.2124V17.1651H30.1918V14.767H27.1311V7.58862ZM60.6252 13.7416H62.0924V14.7197C61.84 14.8775 61.4929 15.051 61.0196 15.051C59.8679 15.051 58.8898 14.0729 58.8898 12.4321C58.8898 10.8386 59.8521 9.70271 61.0985 9.68693C61.7611 9.67115 62.2975 9.97091 62.6762 10.3653L63.5439 8.0777C62.8813 7.69906 61.9505 7.33619 60.8934 7.33619C58.2271 7.33619 55.9868 9.49761 55.9868 12.4636C55.9868 15.4139 58.1167 17.4491 60.925 17.4491C62.5184 17.4491 63.607 16.818 64.4274 16.2343V11.5801L60.6568 11.5644V13.7416H60.6252ZM69.8704 11.2331C69.0342 10.9806 68.2769 11.0437 68.2769 10.46C68.2769 10.034 68.6714 9.8447 69.2235 9.8447C69.8546 9.8447 70.5172 10.0971 71.0536 10.4127L71.4165 8.15658C70.6434 7.69906 69.7757 7.46241 68.8922 7.46241C67.2199 7.46241 65.3267 8.29858 65.3267 10.5862C65.3267 12.2428 66.3048 13.1263 67.3145 13.4734C68.198 13.7731 69.1289 13.6785 69.1289 14.2464C69.1289 14.6251 68.7502 14.909 68.1507 14.9248C67.3934 14.9406 66.5888 14.5619 65.9104 14.0886L65.2636 16.3921C66.1155 16.8969 67.1726 17.3387 68.3716 17.3387C70.249 17.3387 72.1107 16.2658 72.1107 14.0729C72.0634 12.2901 70.8801 11.5328 69.8704 11.2331ZM58.874 6.27915V0.0788838H56.9965V3.31312L55.2769 0.0788838H53.5414V6.26337H55.4189V3.13958L57.1543 6.27915C57.1385 6.27915 58.874 6.27915 58.874 6.27915ZM26.5316 6.27915L28.1882 0.0946603H26.4054L25.5535 3.89686L24.5595 0.0946603H23.1712L22.193 3.88108L21.3253 0.0946603H19.4952L21.278 6.27915H22.9345L23.8654 2.5085L24.812 6.27915H26.5316ZM50.7016 15.0984C49.6919 15.0984 49.0135 14.0255 49.0135 12.4636C49.0135 10.8544 49.6919 9.82892 50.7174 9.82892C51.7429 9.82892 52.4055 10.886 52.4055 12.4636C52.3897 14.0098 51.7113 15.0984 50.7016 15.0984ZM50.7016 7.3993C48.1773 7.3993 46.0948 9.3714 46.0948 12.4794C46.0948 15.5717 48.1773 17.5438 50.7332 17.5438C53.3521 17.5438 55.3084 15.4612 55.3084 12.4479C55.3084 9.30829 53.1628 7.3993 50.7016 7.3993ZM47.6094 4.73303H45.2271V3.86531H46.9152V2.49273H45.2271V1.64078H47.4674V0.0946603H43.3497V6.27915H47.6252L47.6094 4.73303ZM39.437 6.27915H41.3145V1.64078H42.9395V0.0788838H37.8436V1.64078H39.4528L39.437 6.27915ZM32.7634 4.73303H30.3812V3.86531H32.0693V2.49273H30.3812V1.64078H32.6215V0.0946603H28.5037V6.27915H32.7792L32.7634 4.73303ZM50.1021 1.59345C50.2125 1.57768 50.323 1.59345 50.4176 1.60923C50.6701 1.65656 50.9541 1.86166 50.9541 2.39807C50.9541 2.82404 50.749 3.10802 50.4492 3.20268C50.3388 3.23424 50.2125 3.23424 50.1021 3.23424V1.59345ZM50.1021 4.76458C50.2757 4.79613 50.4334 4.78036 50.5596 4.78036L51.0014 6.27915H53.0208L52.2162 4.05463C52.6106 3.66021 52.8473 3.10802 52.8473 2.39807C52.8473 0.993935 51.8849 0.094661 50.181 0.0473308C49.6604 0.031554 48.7769 0.0473303 48.2247 0.0788838V6.26337H50.1021C50.1021 6.27915 50.1021 4.76458 50.1021 4.76458ZM20.2683 13.5522C20.2683 14.3568 19.795 14.8302 19.1797 14.8302C18.5486 14.8302 18.0911 14.3726 18.0911 13.5522V7.57284H15.1724V13.4576C15.1724 16.3289 17.3496 17.4333 19.2428 17.4333C21.3411 17.4333 23.2027 16.0765 23.2027 13.3629V7.55707H20.284C20.2683 7.58862 20.2683 13.5522 20.2683 13.5522ZM10.4078 14.909C10.1869 14.9248 9.98181 14.909 9.85559 14.8933V13.1894C9.98181 13.1578 10.1554 13.142 10.3447 13.1578C10.8653 13.1894 11.2597 13.4891 11.2597 14.0413C11.2755 14.6566 10.8811 14.8617 10.4078 14.909ZM9.87137 9.89203C10.0134 9.86047 10.2027 9.8447 10.3762 9.87625C10.7075 9.92358 11.1651 10.034 11.1651 10.602C11.1651 11.0595 10.8022 11.2646 10.3447 11.3435C10.2185 11.3593 10.0765 11.375 9.87137 11.3277V9.89203ZM12.6796 12.0219C13.5158 11.659 13.9576 10.9333 13.9576 10.034C13.9576 8.94542 13.2949 7.50974 9.93448 7.50974C9.17719 7.50974 8.24636 7.52551 7 7.57284V17.1493C7.94661 17.2124 8.70389 17.244 9.82404 17.244C12.6796 17.244 14.3993 16.2816 14.3993 14.3411C14.3835 13.0316 13.5789 12.2743 12.6796 12.0219Z" fill="white"/>
</svg>
