<svg width="80" height="80" viewBox="0 0 80 80" fill="none" xmlns="http://www.w3.org/2000/svg">
<path d="M28.924 36.2257C28.1434 35.8776 27.3733 35.4768 26.6455 35.0232C25.8016 34.5063 25.0105 33.9156 24.2721 33.2511C23.5442 32.597 22.9008 31.8692 22.3523 31.0675C21.7615 30.2025 21.3185 29.2321 21.0653 28.2194C20.8333 27.2595 20.7805 26.2679 20.9282 25.2975C21.0864 24.2532 21.4345 23.2405 21.9725 22.3228C22.4366 21.5 23.0485 20.7194 23.7869 19.981C24.4725 19.2954 25.2636 18.6519 26.1497 18.0612C26.8565 17.597 27.6265 17.154 28.4387 16.7637C29.1771 16.4051 29.9683 16.0781 30.8016 15.7827C32.1624 15.2975 33.5653 14.9388 34.9788 14.6857C35.5696 14.5696 36.1919 14.4852 36.8354 14.4114C37.4894 14.3376 38.1434 14.2743 38.7552 14.2426C39.3565 14.211 39.9577 14.1899 40.5274 14.1899H40.5379C41.1603 14.1899 41.7932 14.211 42.4472 14.2532C43.0379 14.2848 43.6497 14.3376 44.2615 14.4114H44.2932C44.5674 14.443 44.8417 14.4852 45.116 14.5274C43.2383 14.1793 41.329 14 39.4092 14H39.3987C38.1645 14 36.9409 14.0738 35.7172 14.2215C34.3881 14.3692 33.0801 14.6224 31.7826 14.9494C31.0653 15.1392 30.3797 15.3502 29.7151 15.5823C28.8923 15.8671 28.1012 16.1941 27.3628 16.5527C26.5506 16.943 25.7805 17.3755 25.0843 17.8397C24.2404 18.3882 23.4493 19.0211 22.732 19.7384C22.0252 20.4241 21.424 21.2046 20.9282 22.0591L20.886 22.1224C20.3797 23.0084 20.0421 23.9895 19.8839 25.0021C19.7468 25.962 19.7995 26.9536 20.021 27.8924C20.2636 28.884 20.6961 29.8333 21.3079 30.7194C21.8248 31.4789 22.4683 32.2068 23.2172 32.8819C23.9134 33.5148 24.7046 34.0949 25.5801 34.6329C26.2869 35.0654 27.0463 35.4662 27.848 35.8249C28.5126 36.1308 29.2193 36.4051 29.9472 36.6477C29.6096 36.5316 29.2615 36.384 28.924 36.2257Z" fill="#007CBB"/>
<path d="M58.0486 26.3312C58.0486 31.7953 50.2111 36.2257 40.5381 36.2257C30.8756 36.2257 23.0381 31.7953 23.0381 26.3312C23.0381 20.867 30.8756 16.4366 40.5381 16.4366C50.2111 16.4366 58.0486 20.867 58.0486 26.3312Z" fill="#E13210"/>
<path d="M39.694 24.1688V24.1899C39.3354 24.0633 38.9662 23.9684 38.597 23.9051C38.3016 23.8524 38.0168 23.8207 37.7215 23.7996C37.194 23.7574 36.6772 23.7363 36.1497 23.7363H33.0696C33.0063 23.7363 32.943 23.7363 32.8797 23.7469C32.8164 23.7469 32.7531 23.7574 32.6898 23.7574C31.1919 23.7574 30.5168 24.211 30.232 25.4135C30.1793 25.6456 30.1371 25.9199 30.0949 26.2363L29.9683 27.3967C29.9261 27.8292 29.9366 28.1667 29.9472 28.4304L29.9577 28.5675C30.0105 30.0338 31.1392 30.0338 32.3312 30.0338H35.5485C35.8122 30.0338 36.0337 30.0232 36.2341 29.9916C37.1835 29.8334 37.8164 29.654 38.0274 28.5675C38.0379 28.5359 38.0379 28.5043 38.0485 28.4726L38.1434 27.5127H32.3628L32.4472 26.4578H39.5253L39.3143 28.7891C39.2826 29.1055 39.2193 29.422 39.1139 29.7279C38.9451 30.2237 38.7341 30.5612 38.4915 30.7194C38.2594 30.8566 38.0063 30.9515 37.732 31.0043C37.3839 31.0781 37.0253 31.1203 36.6666 31.1308C36.3501 31.1519 35.9704 31.1625 35.443 31.1625H31.5928H31.5084H31.4978C30.3902 31.1519 29.6518 31.0043 29.1877 30.6878C28.8396 30.4557 28.6075 29.9811 28.5337 29.3481C28.502 29.0211 28.502 28.6836 28.5442 28.3566L28.8502 25.5823L28.8607 25.5507V25.5401C28.9345 24.8861 29.0822 24.3798 29.3354 23.9684C29.6624 23.441 30.0949 23.1034 30.675 22.9241C31.1814 22.7659 31.8354 22.692 32.6687 22.692H36.9303C37.1518 22.692 37.3628 22.7026 37.6265 22.7237C37.9219 22.7448 38.1856 22.7764 38.4071 22.8292C38.6181 22.8713 38.808 22.9346 38.9767 23.0085C39.1455 23.0718 39.2932 23.1773 39.4198 23.3144C39.5674 23.4515 39.6624 23.768 39.694 24.1688ZM58.8607 29.654C58.4493 30.4874 57.8797 31.2996 57.1624 32.0697C56.4767 32.7975 55.675 33.4726 54.7784 34.095C54.0084 34.6119 53.2067 35.076 52.3734 35.4663C51.5611 35.8566 50.7172 36.2047 49.8628 36.4895C49.1666 36.7321 48.4071 36.9431 47.6371 37.133C46.2447 37.4705 44.8417 37.7026 43.4177 37.8292C42.7426 37.8924 42.0569 37.9346 41.3818 37.9452C40.7594 37.9663 40.1476 37.9663 39.5253 37.9452C37.5105 37.8819 35.5063 37.6076 33.5442 37.1435C32.8375 36.9747 32.1518 36.7848 31.4978 36.5633C31.1814 36.4578 30.8544 36.3418 30.5379 36.2152C29.3037 35.7616 28.1118 35.1815 26.9831 34.5064C26.1708 34.0106 25.4008 33.441 24.694 32.7975C24.0084 32.1857 23.3966 31.4895 22.8797 30.73C22.3206 29.9283 21.9198 29.0211 21.6772 28.0718C21.4556 27.1962 21.4134 26.2891 21.5506 25.3924C21.6983 24.4431 22.0042 23.5359 22.4788 22.7026L22.4894 22.692L22.521 22.6393C22.9957 21.827 23.5653 21.0886 24.2299 20.4346C24.9261 19.749 25.6856 19.1372 26.4978 18.5992C27.2046 18.1351 27.9535 17.7131 28.713 17.3439C29.4303 16.9958 30.2004 16.6794 31.0231 16.3946C32.9324 15.7194 34.9155 15.2764 36.9303 15.0443C37.5738 14.9705 38.2067 14.9178 38.8185 14.8861C39.4092 14.8545 39.9999 14.8334 40.559 14.8334H40.5696C41.7932 14.8334 43.0168 14.9072 44.2404 15.0549H44.2615C45.6434 15.2131 47.0042 15.4768 48.3438 15.846C49.1455 16.0676 49.9366 16.3207 50.675 16.6055C51.4873 16.9114 52.2679 17.2701 52.9957 17.6393C53.9029 18.114 54.7468 18.6519 55.4957 19.2216C56.308 19.8439 57.0253 20.519 57.616 21.2258C58.0168 21.711 58.3649 22.2068 58.6392 22.7026C58.8607 23.0823 59.04 23.4937 59.1982 23.9051C59.5042 24.7279 59.6624 25.5718 59.6624 26.4051C59.6624 26.4578 59.6624 26.5211 59.6518 26.595V26.711C59.578 27.7237 59.3143 28.7258 58.8607 29.654ZM58.6603 26.3313C58.6603 25.4557 58.4704 24.5697 58.1012 23.7152C57.6476 22.7237 57.0253 21.8165 56.2447 21.057C55.5485 20.3713 54.789 19.7595 53.9556 19.2427C53.1539 18.7363 52.3206 18.3038 51.4556 17.9241C50.7383 17.6182 50.0105 17.3439 49.2721 17.1119C48.5864 16.8903 47.8691 16.7005 47.1518 16.5422C46.5611 16.4051 45.9599 16.2891 45.3691 16.1941C43.7763 15.941 42.1624 15.8144 40.5485 15.8144H40.4852C39.462 15.8144 38.4388 15.8671 37.4261 15.9726C35.6856 16.1414 33.9662 16.4789 32.289 16.9642C31.5506 17.1857 30.8333 17.4283 30.1687 17.7026C29.4303 17.9979 28.713 18.3355 28.0168 18.7152C27.1835 19.1688 26.3923 19.7068 25.6645 20.3081C24.8945 20.9515 24.2404 21.6583 23.7341 22.3967C23.1118 23.3038 22.7109 24.2638 22.5316 25.2448C22.4788 25.5085 22.4577 25.7827 22.4472 26.057C22.4472 26.1097 22.4366 26.2363 22.4366 26.4367H26.4978L26.4134 27.4916H22.5421C22.5843 27.692 22.6371 27.9241 22.7004 28.1773L22.7426 28.3038C23.0168 29.1583 23.481 30.0021 24.1139 30.7933C24.6624 31.4789 25.3269 32.1224 26.097 32.7026C26.7826 33.23 27.5632 33.7152 28.4071 34.1583C29.0717 34.5064 29.7784 34.8228 30.5063 35.0971C31.1708 35.3502 31.8776 35.5823 32.6054 35.7933C33.2067 35.9621 33.8185 36.1203 34.4198 36.2363C35.5485 36.4684 36.6983 36.6372 37.848 36.7321C38.7447 36.8059 39.6518 36.8481 40.559 36.8481H40.981H41.1075C41.6877 36.8376 42.2679 36.8165 42.8375 36.7743C44.7468 36.6372 46.635 36.3207 48.4809 35.8144C49.2826 35.5823 50.0738 35.3186 50.8227 35.0232C51.6666 34.6857 52.4577 34.3165 53.1856 33.9051C54.1244 33.3777 54.9788 32.787 55.7067 32.1435L55.7278 32.1224L56.6982 31.1519H44.6835C44.3037 31.1519 43.9451 31.1414 43.6181 31.0992C43.2172 31.0675 42.8269 30.9726 42.4683 30.8144C41.8037 30.4979 41.4978 29.7701 41.5717 28.6308V28.5675L41.5822 28.3566L41.8881 25.5718V25.5612L41.8987 25.5085V25.4979C41.9303 25.2131 41.9831 24.9389 42.0674 24.6646C42.2679 23.9789 42.616 23.5148 43.1434 23.2194C43.5442 22.9874 43.9978 22.8292 44.4514 22.7659C44.8101 22.7131 45.2215 22.692 45.7067 22.692H49.9683C50.9493 22.692 51.6455 22.8081 52.0991 23.0401C52.5105 23.2511 52.7004 23.6097 52.732 24.2216C52.6054 24.1688 52.4683 24.1266 52.3417 24.0844C51.5611 23.8629 50.5063 23.7469 49.1772 23.7469H46.1075H45.8966H45.6856C44.9472 23.7469 44.1877 23.8102 43.6919 24.5802C43.4915 24.8967 43.3649 25.2448 43.3016 25.6034C43.2594 25.8038 43.2383 26.0043 43.2067 26.2469L43.0801 27.4072L43.0696 27.5549V27.6182C43.0485 27.8292 43.0485 28.0401 43.059 28.2616C43.059 28.3566 43.0696 28.441 43.059 28.5148C43.0485 28.9895 43.175 29.3587 43.4177 29.6119C43.7974 30.0021 44.3776 30.0549 44.8945 30.0549C45.021 30.0549 45.1476 30.0549 45.2742 30.0443C45.3797 30.0443 45.4852 30.0338 45.5801 30.0338H57.5527L57.732 29.7173C58.27 28.7996 58.5864 27.7764 58.6603 26.7216V26.6794C58.6603 26.5633 58.6603 26.4473 58.6603 26.3313Z" fill="#FCD800"/>
<path d="M40.3058 24.1371C40.2742 23.5781 40.1265 23.1561 39.8733 22.8713C39.694 22.6709 39.4725 22.5127 39.2193 22.4072C38.9978 22.3123 38.7657 22.2384 38.5231 22.1962C38.2383 22.1435 37.943 22.1013 37.6582 22.0802C37.4155 22.0591 37.1624 22.0591 36.9198 22.0485H32.6582C31.7615 22.0485 31.0548 22.1329 30.4852 22.3017C29.7573 22.5232 29.1982 22.9663 28.7974 23.6203C28.502 24.1055 28.3227 24.7068 28.2383 25.4557L27.9324 28.2722C27.8902 28.6414 27.8902 29.0211 27.9219 29.4009C28.0168 30.2342 28.3333 30.8566 28.8501 31.1941C29.4198 31.5739 30.2636 31.7637 31.5084 31.7743H35.4535C35.9915 31.7743 36.3818 31.7637 36.7088 31.7426C37.0991 31.7215 37.4894 31.6793 37.8691 31.595C38.2067 31.5317 38.5337 31.4051 38.829 31.2258C39.1982 30.9937 39.483 30.5506 39.7046 29.9072C39.8101 29.5907 39.8839 29.2426 39.9261 28.8312L40.2003 25.8249H31.8776L31.6877 28.1245H37.4577L37.4261 28.3882C37.4261 28.3988 37.4261 28.3987 37.4261 28.3987L37.4155 28.4198C37.289 29.1055 37.0463 29.211 36.1286 29.3587C35.9598 29.3903 35.77 29.4009 35.5379 29.4009H32.3206C30.8438 29.4009 30.5801 29.2743 30.559 28.5359L30.5484 28.3987C30.5273 28.0823 30.5379 27.7658 30.5695 27.4599L30.6961 26.2996C30.7278 26.0042 30.77 25.7616 30.8122 25.5506C31.0126 24.7279 31.329 24.3692 32.6792 24.3692C32.7636 24.3692 32.8375 24.3692 32.9008 24.3587H33.059H36.1392C36.6771 24.3587 37.1729 24.3798 37.6582 24.422C37.9746 24.4536 38.2489 24.4852 38.4915 24.5274C38.829 24.5907 39.156 24.6751 39.4725 24.7806C39.5885 24.8228 39.6835 24.8755 39.7784 24.9283L40.2847 25.2131L40.3164 24.6224C40.3058 24.4431 40.3058 24.2848 40.3058 24.1371ZM39.6835 24.1899C39.3248 24.0633 38.9556 23.9684 38.5864 23.9051C38.2911 23.8523 38.0063 23.8207 37.7109 23.7996C37.1835 23.7574 36.6666 23.7363 36.1392 23.7363H33.059C32.9957 23.7363 32.9324 23.7363 32.8691 23.7469C32.8058 23.7469 32.7425 23.7574 32.6792 23.7574C31.1814 23.7574 30.5063 24.211 30.2214 25.4135C30.1687 25.6456 30.1265 25.9198 30.0843 26.2363L29.9577 27.3966C29.9155 27.8291 29.9261 28.1667 29.9366 28.4304L29.9472 28.557C29.9999 30.0232 31.1286 30.0232 32.3206 30.0232H32.405C32.4366 30.0232 32.4788 30.0232 32.5105 30.0232H35.5379C35.8016 30.0232 36.0231 30.0127 36.2236 29.981C37.1729 29.8228 37.8058 29.6435 38.0168 28.557C38.0274 28.5253 38.0273 28.4937 38.0379 28.462L38.1328 27.5021H32.3522L32.4366 26.4473H39.5147L39.3037 28.7785C39.2721 29.095 39.2088 29.4114 39.1033 29.7279C38.9345 30.2236 38.7236 30.5612 38.4809 30.7194C38.2489 30.8566 37.9957 30.9515 37.7214 31.0042C37.3733 31.0781 37.0147 31.1203 36.656 31.1308C36.3396 31.1519 35.9598 31.1625 35.4324 31.1625H31.5822H31.4978H31.4873C30.3797 31.1519 29.6413 31.0042 29.1771 30.6878C28.829 30.4557 28.597 29.981 28.5231 29.3481C28.4915 29.0211 28.4915 28.6836 28.5337 28.3566L28.8396 25.5823L28.8501 25.5506V25.5401C28.924 24.8861 29.0717 24.3798 29.3248 23.9684C29.6518 23.4409 30.0843 23.1034 30.6645 22.9241C31.1708 22.7658 31.8248 22.692 32.6582 22.692H36.9198C37.1413 22.692 37.3522 22.7025 37.616 22.7131C37.9113 22.7342 38.175 22.7658 38.3965 22.8186C38.6075 22.8608 38.7974 22.9241 38.9662 22.9979C39.1349 23.0612 39.2826 23.1667 39.4092 23.3038C39.5674 23.4726 39.6624 23.7996 39.6835 24.2004V24.1899ZM56.2446 21.0464C55.5484 20.3608 54.789 19.749 53.9556 19.2321C53.1539 18.7258 52.3206 18.2933 51.4556 17.9135C50.7383 17.6076 50.0105 17.3334 49.2721 17.1013C47.4261 16.5317 45.5274 16.1414 43.6075 15.962C42.5843 15.8671 41.5717 15.8144 40.5484 15.8144H40.4852C39.462 15.8144 38.4387 15.8671 37.4261 15.9726C35.6856 16.1414 33.9662 16.4789 32.289 16.9642C31.5506 17.1857 30.8333 17.4283 30.1687 17.7025C29.4303 17.9979 28.713 18.3355 28.0168 18.7152C27.1835 19.1688 26.3923 19.7068 25.6645 20.308C24.8944 20.9515 24.2404 21.6582 23.7341 22.3966C23.1117 23.3038 22.7109 24.2637 22.5316 25.2447C22.4788 25.5085 22.4577 25.7827 22.4472 26.057C22.4472 26.1097 22.4366 26.2363 22.4366 26.4367H26.4978L26.4134 27.4916H22.5421C22.5843 27.692 22.6371 27.9241 22.7003 28.1772L22.7425 28.3038C23.0168 29.1582 23.4809 30.0021 24.1138 30.7933C24.6624 31.4789 25.3269 32.1224 26.097 32.7025C26.7826 33.23 27.5632 33.7152 28.4071 34.1582C29.0717 34.5063 29.7784 34.8228 30.5063 35.0971C31.1708 35.3502 31.8776 35.5823 32.6054 35.7933C33.2067 35.962 33.8185 36.1203 34.4198 36.2363C35.5484 36.4684 36.6982 36.6371 37.848 36.7321C38.7447 36.8059 39.6518 36.8481 40.559 36.8481H40.9809H41.1075C41.6877 36.8376 42.2679 36.8165 42.8375 36.7743C44.7468 36.6371 46.6349 36.3207 48.4809 35.8144C49.2826 35.5823 50.0738 35.3186 50.8227 35.0232C51.6666 34.6857 52.4577 34.3165 53.1856 33.9051C54.1244 33.3777 54.9788 32.7869 55.7067 32.1435L55.7278 32.1224L56.6982 31.1519H44.6835C44.3037 31.1519 43.9451 31.1414 43.6181 31.0992C43.2172 31.0675 42.8269 30.9726 42.4683 30.8144C41.8037 30.4979 41.4978 29.7701 41.5717 28.6308V28.5675L41.5822 28.3566L41.8881 25.5717V25.5612L41.8987 25.5085V25.4979C41.9303 25.2131 41.983 24.9388 42.0674 24.6646C42.2784 23.9789 42.616 23.5148 43.1434 23.2194C43.597 22.9663 44.0084 22.8186 44.4514 22.7658C44.8101 22.7131 45.2214 22.692 45.7067 22.692H49.9683C50.9493 22.692 51.6455 22.808 52.0991 23.0401C52.5105 23.2511 52.7003 23.6097 52.732 24.2215C52.6054 24.1688 52.4683 24.1266 52.3417 24.0844C51.5611 23.8629 50.5063 23.7469 49.1771 23.7469H45.675C44.9366 23.7469 44.1771 23.8101 43.6814 24.5696C43.4809 24.8861 43.3544 25.2342 43.2911 25.5928C43.2489 25.7933 43.2278 25.9937 43.1961 26.2363L43.0695 27.3966L43.059 27.5443V27.6076C43.0379 27.8186 43.0379 28.0296 43.0484 28.2511C43.0484 28.346 43.059 28.4304 43.0484 28.5042C43.0379 28.9789 43.1645 29.3481 43.4071 29.6013C43.7868 29.9916 44.367 30.0443 44.8839 30.0443C45.0105 30.0443 45.1371 30.0443 45.2636 30.0338C45.3691 30.0338 45.4746 30.0232 45.5695 30.0232H57.1624H57.5421L57.7214 29.7173C58.27 28.7574 58.5864 27.7447 58.6497 26.7215V26.6793C58.6603 26.5739 58.6603 26.4684 58.6603 26.3418C58.6603 25.4663 58.4704 24.5802 58.1012 23.7258C57.6582 22.7236 57.0252 21.8165 56.2446 21.0464ZM58.0379 26.6266V26.6793C57.9746 27.6076 57.6898 28.5253 57.1835 29.4009H45.5695C45.4641 29.4009 45.3586 29.4114 45.2425 29.4114C45.1265 29.4114 44.9999 29.422 44.8839 29.422C44.5147 29.422 44.0717 29.3903 43.8501 29.1688C43.7236 29.0317 43.6497 28.8207 43.6603 28.5148C43.6603 28.4198 43.6603 28.3249 43.6497 28.23C43.6497 28.0612 43.6392 27.8819 43.6603 27.6709V27.6076L43.6708 27.4705L43.7974 26.3101C43.8185 26.0886 43.8501 25.8988 43.8818 25.7194C43.9556 25.3819 44.0506 25.1182 44.1877 24.9177C44.4936 24.4536 44.9261 24.3692 45.675 24.3692H45.886H46.1075H49.1771C50.443 24.3692 51.4556 24.4747 52.1729 24.6857C52.4261 24.7595 52.6371 24.8439 52.8164 24.9388L53.3227 25.2131L53.3438 24.6329V24.5274C53.3649 23.8734 53.2805 22.9452 52.3733 22.481C51.8354 22.2068 51.0442 22.0696 49.9577 22.0696H45.6961C45.1898 22.0696 44.7468 22.0907 44.367 22.1435C43.829 22.2173 43.3122 22.4072 42.8375 22.6709C42.1624 23.0506 41.7299 23.6203 41.4662 24.4747C41.4029 24.6751 41.3607 24.8861 41.3185 25.0971C41.3079 25.1709 41.2868 25.2975 41.2763 25.4135V25.4241L41.2657 25.4557L41.2552 25.4979L40.9598 28.2827C40.9493 28.3671 40.9387 28.4515 40.9387 28.5359L40.9282 28.5992C40.8227 30.3608 41.5506 31.0886 42.1835 31.384C42.5421 31.5528 42.9852 31.6688 43.5337 31.7215C43.8712 31.7637 44.2615 31.7743 44.6624 31.7743H55.1476C54.4303 32.3861 53.6603 32.9135 52.8375 33.3671C52.0991 33.7785 51.3396 34.1371 50.5484 34.4431C49.1771 34.981 47.7636 35.3924 46.3185 35.6772C45.6961 35.8038 45.0527 35.9093 44.4092 35.9831C43.8607 36.057 43.3016 36.1097 42.7531 36.1519C42.194 36.1941 41.6244 36.2152 41.0548 36.2258H40.9493C38.7974 36.2679 36.6349 36.0675 34.5252 35.635C33.2278 35.3713 31.9514 35.0021 30.7172 34.5274C30.021 34.2637 29.3459 33.9578 28.6814 33.6203C27.9008 33.2194 27.1624 32.7553 26.4556 32.2173C25.7594 31.6899 25.1265 31.0886 24.578 30.403C24.0189 29.7279 23.597 28.9473 23.3122 28.1139H26.9725L27.1518 25.8249H23.0484C23.059 25.6667 23.0801 25.5085 23.1117 25.3608C23.27 24.4747 23.6392 23.5992 24.2088 22.7658C24.6835 22.0696 25.2953 21.4051 26.0231 20.8038C26.7299 20.2236 27.4788 19.7173 28.2805 19.2743C28.9556 18.9051 29.6518 18.5781 30.3586 18.2827C31.6033 17.7869 32.8797 17.3966 34.1982 17.1118C35.2742 16.8798 36.3607 16.7004 37.4577 16.595C37.9746 16.5422 38.502 16.5 39.0189 16.4789C39.5358 16.4578 40.0105 16.4367 40.4641 16.4367H40.4852H40.5168C40.9809 16.4367 41.4767 16.4473 42.0147 16.4789C43.6919 16.5528 45.3586 16.7743 47.0041 17.1435C47.7003 17.3017 48.3965 17.4916 49.0717 17.7025C49.8101 17.9346 50.5274 18.1983 51.1919 18.4937C52.0674 18.8734 52.8797 19.2954 53.6075 19.7595C54.4409 20.2869 55.1687 20.8671 55.7911 21.4895C56.5611 22.2701 57.1413 23.1034 57.521 23.9578C57.8586 24.7384 58.0273 25.5296 58.0273 26.3312C58.0484 26.4262 58.0484 26.5211 58.0379 26.6266ZM59.7573 23.673C59.5885 23.23 59.3881 22.7975 59.156 22.3755C58.8396 21.8165 58.4704 21.2996 58.059 20.8038C57.3944 20.0232 56.656 19.3165 55.8333 18.7047C55.021 18.0928 54.1455 17.5443 53.2383 17.0696C52.4999 16.6793 51.6982 16.3207 50.8544 16.0042C50.0949 15.7089 49.2826 15.4557 48.4598 15.2236C47.0885 14.8544 45.6961 14.5802 44.2932 14.422H44.2721C43.0379 14.2743 41.7932 14.2004 40.5379 14.2004H40.5274C39.9577 14.2004 39.3565 14.211 38.7447 14.2532C38.1223 14.2848 37.4788 14.3481 36.8248 14.422C36.2025 14.4958 35.5801 14.5802 34.9683 14.6962C33.5442 14.9494 32.1518 15.3186 30.7911 15.7933C29.9472 16.0886 29.156 16.4156 28.4176 16.7743C27.6054 17.1751 26.8354 17.6076 26.1286 18.0823C25.2742 18.6414 24.483 19.2848 23.7657 19.9916C23.059 20.6878 22.4472 21.4789 21.9514 22.3333L21.9303 22.3755L21.9092 22.4072C21.3923 23.3038 21.0548 24.2848 20.9071 25.308C20.77 26.2785 20.8122 27.2701 21.0548 28.23C21.2974 29.211 21.7299 30.1709 22.3417 31.0781C22.8586 31.8481 23.502 32.576 24.2615 33.2616C24.9577 33.8945 25.7594 34.4958 26.6455 35.0338C27.8058 35.7405 29.0295 36.3312 30.2953 36.7954C30.5906 36.9114 30.9282 37.038 31.2763 37.154C33.2805 37.808 35.348 38.2405 37.4472 38.4304C38.4704 38.5359 39.5041 38.5886 40.5379 38.5781C41.5084 38.5675 42.4788 38.5253 43.4493 38.4409C44.905 38.3144 46.3396 38.0717 47.7531 37.7236C49.4303 37.3228 51.0653 36.7532 52.616 36.0148C53.5126 35.5823 54.3565 35.1076 55.1054 34.6013C56.0126 33.9895 56.8459 33.2827 57.5949 32.4916C58.3544 31.6793 58.9662 30.8144 59.3987 29.9283C59.905 28.9051 60.1792 27.8291 60.232 26.7321C60.232 26.7004 60.232 26.6582 60.2425 26.6266C60.2742 25.6139 60.1054 24.6118 59.7573 23.673ZM59.6307 26.5844V26.7004C59.578 27.7236 59.3143 28.7258 58.8607 29.654C58.4493 30.4874 57.8797 31.2996 57.1624 32.0696C56.4767 32.7975 55.675 33.4726 54.7784 34.095C54.0084 34.6118 53.2067 35.076 52.3733 35.4663C51.5611 35.8566 50.7172 36.2047 49.8628 36.4895C49.1666 36.7321 48.4071 36.9431 47.6371 37.1329C46.2446 37.4705 44.8417 37.7025 43.4176 37.8291C42.7531 37.8924 42.0569 37.9346 41.3818 37.9452C40.7594 37.9663 40.1476 37.9663 39.5252 37.9452C38.2278 37.903 36.9198 37.7764 35.6328 37.576C34.2299 37.3439 32.8375 37.0063 31.4873 36.5739C31.1708 36.4684 30.8438 36.3523 30.5274 36.2258C29.2932 35.7722 28.1012 35.2025 26.9725 34.5169C26.1603 34.0211 25.3902 33.4515 24.6835 32.808C23.9978 32.1962 23.386 31.5 22.8691 30.7405C22.3101 29.9388 21.9092 29.0317 21.6666 28.0823C21.4556 27.2068 21.4134 26.2996 21.54 25.403C21.6771 24.4852 21.983 23.5886 22.4683 22.7236L22.4788 22.7131L22.5105 22.6604C22.9535 21.8903 23.5231 21.1519 24.2299 20.4557C24.9261 19.7701 25.6856 19.1582 26.4978 18.6203C27.2046 18.1561 27.9535 17.7342 28.713 17.365C29.4303 17.0169 30.2003 16.7004 31.0231 16.4156C32.9324 15.7405 34.9155 15.2975 36.9303 15.0654C37.5738 14.9916 38.2067 14.9388 38.8185 14.9072C39.4092 14.8755 39.9999 14.8544 40.559 14.8544H40.5695C41.1708 14.8544 41.8037 14.8755 42.4472 14.9177C43.0274 14.9494 43.6286 15.0021 44.2404 15.076H44.2615C45.6328 15.2447 47.0041 15.5085 48.3438 15.8671C49.156 16.0886 49.9366 16.3418 50.6856 16.6266C51.4978 16.9325 52.2784 17.2912 53.0063 17.6604C53.9134 18.135 54.7573 18.673 55.5063 19.2426C56.3185 19.865 57.0358 20.5401 57.6265 21.2469C58.0274 21.7321 58.3755 22.2279 58.6497 22.7236C58.8712 23.1034 59.0506 23.5148 59.2088 23.9262C59.5147 24.749 59.6729 25.5928 59.6729 26.4262C59.6413 26.4473 59.6307 26.5106 59.6307 26.5844Z" fill="#FEFEFE"/>
<path d="M11.8354 41.0781C11.6034 38.2089 10.0844 37.3755 8.79747 37.3755C6.96202 37.3755 5.95992 38.5781 5.95992 40.6667C5.95992 46.3734 17.5211 49.1055 17.5211 58.1878C17.5211 63.7047 13.8502 66.7637 8.53375 66.7637C3.25949 66.7637 0.232067 62.5021 0 57.4916L5.41139 56.7004C5.64346 60.076 6.97257 61.7426 8.79747 61.7426C10.77 61.7426 12.0992 60.6772 12.0992 58.6836C12.1097 52.0591 0.548523 50.2975 0.548523 40.7089C0.548523 35.3819 3.75527 32.365 9.35654 32.365C11.5612 32.365 13.3017 33.1561 14.6308 34.4536C16.097 35.8882 16.9726 37.9768 17.2468 40.4768C17.2363 40.4768 11.8354 41.0781 11.8354 41.0781ZM37.173 55.0443L37.1308 57.8608C37.1308 63.6097 33.8291 66.7637 28.4177 66.7637C23.0063 66.7637 19.7046 63.6097 19.7046 57.8608L19.8207 36.5106L25.4114 38.8312L25.3903 58.0823C25.3903 60.5401 26.3502 61.7426 28.4177 61.7426C30.4852 61.7426 31.4451 60.5401 31.4451 58.0823L31.4979 40.4346L37.2257 41.4367C37.2679 41.5317 41.4873 41.8903 41.4873 41.8903V42.9346C38.4599 43.0717 37.1203 42.8608 37.1203 46.9431L37.173 55.0443ZM59.7785 58.0823L59.7363 61.9747C59.7363 65.0338 61.5717 65.1182 64.7785 65.2658V66.4262C64.7785 66.4262 59.9156 66.4262 59.7363 66.289H54.7785L47.5422 46.7637L47.4473 47.2279V66.289H42.3101V41.827L50.654 40.2975L54.5042 51.9641H54.5991V38.9262L59.7363 37.0274L59.7785 58.0823Z" fill="#E13210"/>
<path d="M74.3144 41.0781C74.0824 38.2089 72.5739 37.3755 71.287 37.3755C69.4516 37.3755 68.4495 38.5781 68.4495 40.6667C68.4495 46.3734 80.0001 49.1055 80.0001 58.1878C80.0001 63.7047 76.3292 66.7637 71.0128 66.7637C65.7385 66.7637 62.7111 62.5021 62.479 57.4916L67.8904 56.7004C68.1225 60.076 69.4516 61.7532 71.287 61.7532C73.2596 61.7532 74.5887 60.6878 74.5887 58.6941C74.5887 52.0696 63.0381 50.308 63.0381 40.7089C63.0381 35.3819 66.2448 32.365 71.8355 32.365C74.0402 32.365 75.7807 33.1561 77.1098 34.4536C78.5761 35.8882 79.4516 37.9768 79.7258 40.4768L74.3144 41.0781Z" fill="#E13210"/>
</svg>
