<svg width="80" height="80" viewBox="0 0 80 80" fill="none" xmlns="http://www.w3.org/2000/svg">
<path fill-rule="evenodd" clip-rule="evenodd" d="M62.3358 69.1239L62.5393 68.6855H60.8295L60.6206 69.1276L60.6989 69.1166C60.8341 69.093 60.8883 69.0884 60.9292 69.0848L60.947 69.0816L61.1445 69.0738L61.2165 69.0711L61.0216 70.3234C60.9939 70.4891 60.9497 70.5705 60.8081 70.6957L60.7699 70.7267H61.7782C61.7691 70.7153 61.7613 70.7075 61.7522 70.6934C61.6897 70.6173 61.656 70.5216 61.6571 70.423C61.6571 70.393 61.6598 70.3589 61.6662 70.3229L61.8628 69.067H61.9179C62.0932 69.0734 62.1455 69.0784 62.2862 69.1121L62.3358 69.1239ZM63.7706 69.7949L63.5403 68.6855H62.7045C62.71 68.6969 62.715 68.7088 62.7214 68.7201C62.7505 68.7766 62.7655 68.8392 62.7651 68.9027C62.7651 68.955 62.7546 69.0142 62.7305 69.0925L62.3417 70.3229C62.3285 70.3657 62.2971 70.4321 62.2561 70.5032C62.2206 70.561 62.1733 70.6215 62.0891 70.6957C62.0786 70.7075 62.064 70.7153 62.0527 70.7267H62.8388C62.8306 70.7153 62.822 70.7048 62.8129 70.6934C62.7708 70.6335 62.7476 70.5623 62.7464 70.4891C62.7464 70.4403 62.7546 70.3875 62.7742 70.3234L63.0109 69.4981L63.2066 70.388L63.2289 70.4831L63.238 70.5114C63.2436 70.5352 63.2527 70.558 63.2649 70.5792C63.3181 70.6939 63.3964 70.7631 63.5607 70.8291L63.6186 70.8509L63.6363 70.8573L64.3696 69.509L64.3241 70.3238C64.3159 70.4809 64.2654 70.571 64.1056 70.6962C64.0915 70.708 64.0774 70.7198 64.0647 70.7271H65.1253C65.1171 70.7157 65.1066 70.708 65.103 70.6962C65.0201 70.581 64.9928 70.5036 64.9928 70.3238L65.0401 69.0934C65.0465 68.9323 65.0802 68.8444 65.184 68.7211C65.1924 68.7091 65.2013 68.6975 65.2108 68.6865H64.3619L63.7706 69.7949Z" fill="#164C82"/>
<path fill-rule="evenodd" clip-rule="evenodd" d="M79.5994 48.0977L77.5101 47.4964C76.0038 47.0103 73.9377 47.5283 73.4078 47.7186C73.116 47.6216 72.628 47.4882 72.0955 47.4741C72.3487 46.8428 72.59 46.2068 72.8192 45.5664L72.9039 45.3461L72.8994 45.3497C74.5699 40.6124 75.6492 35.4163 75.6492 29.8861C75.6492 26.3815 75.403 22.8719 74.9209 19.4547L74.7902 18.5343L74.0292 17.9999C71.8013 16.4422 69.4503 15.0684 66.9995 13.8922C67.9809 11.567 69.0078 9.12848 70.1094 6.57208C70.1094 6.57208 59.983 0.248435 41.8506 0.0044475C31.9714 -0.128016 21.2855 2.70788 12.7701 7.25078C13.7447 9.67245 14.737 12.1028 15.7749 14.5167C13.7708 15.5446 11.8393 16.7082 9.99385 17.9994L9.23139 18.5338L9.10302 19.4543C8.61729 22.9101 8.37408 26.3958 8.37516 29.8856C8.37516 36.5534 9.9679 42.7496 12.2858 48.2402L6.91078 48.8019L14.2295 52.6261C13.8617 53.5269 7.6004 68 7.27494 68.4461C5.03171 70.855 1 74.4224 1 74.4224C1 74.4224 17.8511 72.3076 18.3832 72.4787C18.8052 73.0772 19.3676 73.5632 20.021 73.8939C22.897 75.357 27.4139 75.7785 32.7193 75.0042C36.2776 77.8624 39.814 80 42.0117 80C45.448 80 51.901 75.0857 56.7693 70.2164C57.662 69.3225 58.5307 68.405 59.3744 67.4647C62.6897 66.9007 64.8182 66.8078 66.8293 67.101C68.8909 67.4019 71.8064 68.1193 71.8064 68.1193C71.7905 68.1061 71.1937 65.2893 69.8067 64.5655C71.5966 64.0621 73.228 62.8581 74.6619 60.9722C75.6187 59.7372 76.3361 58.4294 76.7308 57.2031C77.0722 56.1357 77.1505 55.1593 76.9825 54.3472L79.5994 48.0977Z" fill="#164C82"/>
<path fill-rule="evenodd" clip-rule="evenodd" d="M42.0116 77.8557C40.8559 77.8557 38.4916 76.6603 35.5583 74.489C35.2137 74.5623 34.8741 74.6306 34.535 74.6948C37.7168 77.1283 40.4881 78.6345 42.0116 78.6345C44.5658 78.6345 50.3664 74.6879 55.8047 69.2506C56.1752 68.8791 56.5808 68.4626 57.0128 68.0097C56.5175 68.1431 56.0145 68.2883 55.5065 68.4426C49.654 74.3565 44.1197 77.8557 42.0116 77.8557ZM50.2503 11.0628C58.788 12.2804 66.5264 15.358 72.7959 19.7557C73.2683 23.1118 73.5045 26.497 73.5028 29.8862C73.5028 35.9431 72.1277 41.736 69.9459 47.0723L71.0429 46.4336C72.9866 41.4223 74.2826 35.8507 74.2826 29.8862C74.2826 26.4431 74.0418 22.9981 73.5688 19.6465C73.5538 19.5407 73.5172 19.4392 73.4612 19.3483C73.4052 19.2574 73.331 19.179 73.2434 19.118C66.821 14.6106 59.0539 11.6076 50.782 10.3581C50.598 10.5878 50.4207 10.8228 50.2503 11.0628ZM14.5112 48.0082C12.0799 42.416 10.5191 36.2991 10.5191 29.8857C10.5191 26.4089 10.7649 23.0218 11.226 19.7553C19.4601 13.9783 30.2279 10.4787 42.0112 10.4787C42.7873 10.4787 43.5589 10.4942 44.3245 10.5252C44.7774 10.2775 45.2366 10.0413 45.7015 9.81687C44.4729 9.73946 43.2422 9.70014 42.0112 9.69897C30.5283 9.69897 19.4355 13.0438 10.7771 19.118C10.6898 19.1794 10.616 19.258 10.5602 19.3491C10.5045 19.4401 10.468 19.5417 10.453 19.6474C9.97741 23.0394 9.73906 26.4605 9.73975 29.8857C9.73975 36.5062 11.3644 42.6559 13.7068 48.091C13.9722 48.0646 14.2408 48.036 14.5112 48.0082Z" fill="white"/>
<path fill-rule="evenodd" clip-rule="evenodd" d="M59.7681 49.1057C60.6749 48.7292 62.0992 48.2995 63.7643 48.4707C63.7643 48.4707 65.3798 48.7224 66.2811 48.6514C68.9472 42.9937 70.7166 36.66 70.7166 29.8853C70.7166 27.094 70.5468 24.3032 70.2186 21.5624C60.9102 23.9895 57.6792 31.7056 57.6792 31.7056C60.6485 38.0948 60.7126 43.5968 60.6025 44.9429C60.4759 46.5051 60.1764 47.8885 59.7681 49.1057ZM67.6631 19.8158C65.2402 18.4416 62.7021 17.2811 60.0776 16.3476C57.6887 17.2808 56.0974 18.7729 56.0974 18.7729C60.5579 17.7228 64.8413 18.7565 67.6631 19.8158ZM48.7723 13.6879C48.2529 14.8946 48.1036 15.7176 48.1036 15.7176C50.2212 14.972 52.4858 14.7239 54.5724 14.7239C52.6593 14.2736 50.723 13.9278 48.7723 13.6879ZM48.9512 70.6617C45.7289 71.7592 42.4685 72.7415 39.1762 73.6068C40.4649 74.4503 41.4618 74.9488 42.028 75.0575C43.1 74.8837 45.7156 73.3333 48.9512 70.6617ZM40.2796 13.2969C35.7895 13.4357 31.3877 14.1185 27.2122 15.3011C33.4329 15.6662 37.0764 17.33 37.0764 17.33C37.8183 15.8 38.9454 14.4626 40.2796 13.2969ZM13.8261 21.3598C13.4808 24.1887 13.3077 27.0359 13.3076 29.8857C13.3076 36.2449 14.9354 42.2604 17.4217 47.7046C18.7263 47.568 19.9995 47.436 21.1316 47.3172C24.816 43.7179 27.9551 42.0842 27.9551 42.0842C28.5618 41.3691 29.2128 40.1778 29.2128 40.1778C28.9952 39.6134 28.7781 38.6825 28.7781 38.6825C34.6715 37.8158 36.0585 34.826 36.0585 34.826C35.3307 34.0549 34.4335 33.5264 33.4361 33.3962C32.4401 33.2665 31.0099 33.5478 29.8842 33.526C28.7585 33.5041 27.1976 32.7248 26.3309 32.9192C25.4651 33.1145 24.2534 33.7809 23.3193 34.6526C22.6042 25.3588 31.5739 25.3797 31.5739 25.3797C29.4668 21.1928 25.3449 18.3783 22.5682 16.8643C19.4619 18.0778 16.5232 19.5782 13.8261 21.3598ZM24.5825 46.9599C31.5161 41.7023 37.8775 39.571 37.8775 39.571C37.6828 38.9006 37.5468 38.2144 37.471 37.5204C35.6712 38.4139 27.9114 42.3696 22.8067 46.6617C22.8067 46.6617 23.5164 46.4177 23.9857 46.4619C23.9857 46.4619 23.6484 46.6799 23.0794 47.1151C23.6784 47.0523 24.1887 46.9999 24.5825 46.9599Z" fill="white"/>
<path fill-rule="evenodd" clip-rule="evenodd" d="M58.7424 40.9426C58.7834 37.55 57.1119 33.4309 56.5757 31.7839C56.5214 31.6136 56.4692 31.4426 56.4191 31.2709V31.2723C55.394 28.6153 54.2692 26.2883 53.2727 25.1376C52.8503 24.6496 52.1853 24.0747 51.797 23.8111C48.7244 21.7299 46.3774 21.7313 46.3774 21.7313C46.7811 20.6629 47.5395 20.3329 47.5395 20.3329C46.0023 20.5783 44.8757 21.7627 44.8757 21.7627C45.1274 20.6648 46.1748 19.5959 46.1748 19.5959C44.212 20.3466 43.0152 21.9257 43.0152 21.9257C43.114 20.6939 43.7486 19.834 43.7486 19.834C42.1608 20.7235 41.0638 22.4846 41.0638 22.4846C41.006 21.3585 41.6046 20.4408 41.6046 20.4408C38.8961 22.3112 38.247 25.1858 38.247 25.1858C45.1938 21.6762 49.9466 26.0525 49.9466 26.0525C45.6276 26.8751 44.486 29.3022 44.486 29.3022C47.5632 31.468 49.5456 35.9499 49.3794 39.0389C49.0931 44.3802 45.1083 46.1136 44.9972 47.5544C44.9421 48.3 45.6968 48.7952 46.4142 49.0602C39.7223 50.8737 37.5542 49.3856 37.5542 49.3856C35.1503 49.2791 32.8028 49.478 30.6406 49.8304C30.6857 50.2086 30.6907 50.6147 30.6538 51.0453C35.5982 50.2414 41.4749 49.9551 48.1508 50.6288C48.578 50.501 49.0156 50.4111 49.4586 50.3602C49.4586 50.3602 50.4537 50.2196 51.6103 50.4667C52.0748 50.1041 52.5025 49.6967 52.8872 49.2504C53.145 48.9574 53.3914 48.6547 53.626 48.3428C54.7558 46.019 54.7417 42.7406 53.2818 39.9612C53.2818 39.9612 55.2051 41.1105 55.6343 44.0707C55.6343 44.0707 56.5279 41.4396 54.0056 37.7949C54.0056 37.7949 56.3499 38.8673 57.3522 42.8303C57.3522 42.8303 58.0678 39.6794 54.8131 35.599C54.8118 35.5985 57.6941 37.3702 58.7424 40.9426Z" fill="white"/>
<path fill-rule="evenodd" clip-rule="evenodd" d="M30.1161 48.269C32.749 47.5293 34.6271 47.2831 34.6271 47.2831C33.9148 46.6822 33.4227 45.983 33.4227 45.983C31.8764 46.2507 30.3733 46.6749 28.9399 47.1943C29.425 47.4351 29.8326 47.8075 30.1161 48.269ZM20.6074 9.27837C21.74 9.08036 22.461 8.87461 22.6167 9.34028C22.7168 9.63571 22.5316 9.88516 22.1665 10.0163C21.6639 10.2002 21.5083 10.0345 21.3808 9.65346L21.2848 9.36441L18.4552 10.39L18.9373 11.827C19.8318 11.8903 21.1136 11.67 22.6231 11.1238C24.9632 10.2766 25.9028 9.33391 25.5236 8.20683C25.1389 7.05791 24.3037 7.09205 22.4328 7.44574C21.2397 7.67334 20.7308 7.79397 20.6047 7.42116C20.5223 7.17444 20.683 6.98143 21.0736 6.84032C21.4505 6.7024 21.724 6.80208 21.8374 7.14121L21.9166 7.38019L24.6587 6.38649L24.2217 5.08279C23.0605 5.06868 21.8397 5.29719 20.5178 5.77697C18.1908 6.62046 17.34 7.52904 17.7183 8.65657C18.0437 9.6307 18.9155 9.57517 20.6074 9.27837ZM25.5473 5.46926L27.856 7.1494L27.9899 7.82173C28.0449 8.09167 27.9935 8.24735 27.6466 8.41486L27.8392 9.37852L31.7521 8.53276L31.5596 7.56864C31.1635 7.56227 31.0698 7.43709 31.016 7.16761L30.8813 6.49528L32.3789 3.98303C32.4619 3.84898 32.5747 3.73588 32.7085 3.65255L32.5182 2.70255L29.5048 3.3544L29.6413 4.03401C29.6941 4.29666 29.6746 4.53792 29.5694 4.75915L29.2785 5.34818L28.7887 4.9435C28.5602 4.74777 28.5111 4.50742 28.4574 4.23749L28.3317 3.60885L24.9286 4.34537L25.1194 5.29401C25.3033 5.33907 25.4499 5.39051 25.5473 5.46926ZM33.6776 4.04357L33.8665 6.6109C33.887 6.87947 33.8447 7.03242 33.5465 7.14576L33.6184 8.12808L37.3907 7.82583C40.405 7.58548 41.279 7.10343 41.1656 5.5776L41.0423 3.9193C40.9294 2.38528 39.9962 2.05662 36.9819 2.29788L33.2101 2.59876L33.2807 3.56652C33.5925 3.6307 33.6567 3.77591 33.6776 4.04357ZM37.0966 3.50097C37.7871 3.44635 37.9305 3.56151 37.9597 3.95617L38.1085 5.97999C38.1399 6.40378 38.0043 6.56493 37.3269 6.61864L36.9696 6.64686L36.7379 3.52919L37.0966 3.50097ZM45.1455 6.70058C44.8164 6.61318 44.7854 6.46159 44.8004 6.17118L44.8655 5.02453L46.6312 7.77803L49.6374 7.96194L49.8659 3.902C49.8818 3.64117 49.931 3.48686 50.2546 3.4163L50.3088 2.44809L47.0914 2.25145L47.0364 3.22057C47.4178 3.32617 47.4488 3.47002 47.4328 3.7527L47.3582 5.07961L45.6421 2.16268L42.2363 1.95557L42.183 2.92332C42.4835 3.03166 42.5422 3.18461 42.5262 3.45363L42.3824 6.02415C42.3674 6.29181 42.2918 6.43701 41.9814 6.50757L41.9245 7.49126L45.0895 7.68381L45.1455 6.70058ZM57.7063 9.54558L58.0795 7.56045L55.2951 6.99327C55.2933 7.07065 55.2819 7.1362 55.27 7.19401C55.1863 7.64102 54.9446 7.77394 54.2904 7.64102C54.2032 7.62462 54.1166 7.60458 54.031 7.58093L54.2381 6.48117L56.1604 6.87219L56.358 5.81794L54.4366 5.42738L54.6186 4.46053L54.8799 4.51288C55.56 4.65172 55.7066 4.80376 55.6356 5.1843L55.6055 5.33862L58.3918 5.90397L58.7296 4.1032L51.4614 2.62471L51.2825 3.57745C51.5661 3.72539 51.6052 3.88607 51.5538 4.14963L51.079 6.67554C51.0294 6.9391 50.937 7.07293 50.6192 7.09979L50.4672 7.90595L50.4381 8.06663L57.7063 9.54558ZM60.6642 8.25508L60.4543 8.90693C60.3696 9.16867 60.2499 9.27564 59.8703 9.23695L59.568 10.1719L63.3562 11.492L63.6585 10.5589C63.3189 10.3454 63.3002 10.1897 63.3844 9.92749L63.5943 9.27564L66.1061 7.89229C66.2404 7.82173 66.3801 7.78304 66.5499 7.7794L66.8467 6.86035L63.9289 5.84298L63.7163 6.5012C63.6343 6.75611 63.5001 6.95276 63.303 7.08886L62.7649 7.44528L62.54 6.8385C62.4358 6.55036 62.5118 6.31775 62.5951 6.05556L62.7909 5.44741L59.4952 4.29848L59.1993 5.2189C59.3382 5.35364 59.4383 5.47472 59.4856 5.59444L60.6642 8.25508Z" fill="white"/>
<path fill-rule="evenodd" clip-rule="evenodd" d="M73.4715 52.5869C73.4983 52.5427 73.6495 52.4453 73.8261 52.4248C73.8252 52.4248 74.4847 52.2619 74.9295 52.8941C75.2549 53.358 75.752 54.2784 75.752 54.2784L77.9097 49.1287L76.8632 48.8278C75.3537 48.3112 73.4537 48.9671 72.8356 49.2858L72.9066 49.1069C72.9066 49.1069 72.165 48.8051 71.525 48.8447C71.4636 48.8497 71.4008 48.8547 71.3402 48.8665C70.9269 48.9439 70.5136 49.0532 70.0966 49.2625L70.5882 48.0722L70.301 48.2379L69.1639 48.8957L69.0082 48.9844C68.0177 49.5571 67.0632 49.8843 66.1746 50.0027C66.0048 50.0245 65.8082 50.0346 65.602 50.0359C64.6242 50.0414 63.4024 49.8457 63.4024 49.8457L63.895 50.6313C63.4284 50.1993 62.8075 50.0232 62.188 49.979C61.9068 49.9565 61.624 49.9626 61.344 49.9972C60.597 50.0978 59.8532 50.3518 59.1099 50.7492C58.7826 50.924 58.453 51.1243 58.1258 51.3574L58.3224 50.8826L56.3618 51.1116L58.5473 45.8271L56.2071 46.1035C56.2071 46.1035 55.7624 47.5146 53.7126 50.0136C53.0885 50.7738 52.3584 51.3833 51.5568 51.9323C51.5568 51.9323 50.787 51.6851 49.2284 51.7197C48.1555 51.7443 46.8696 52.3383 45.8089 53.297C45.4994 53.576 45.1776 53.9179 44.9117 54.2151C44.7315 54.415 44.5577 54.6205 44.3905 54.8315C44.3577 54.614 44.3062 54.3997 44.2367 54.191C44.1571 53.9429 44.0431 53.7072 43.898 53.4909C43.3176 52.6438 42.303 52.2787 40.9624 52.438C40.7303 52.4649 40.5159 52.5127 40.3106 52.5627C38.9504 52.8946 37.7965 53.6243 36.9075 54.3635C35.6785 55.3854 34.9597 56.4269 34.9369 56.4565C34.9101 55.7187 34.7353 55.0928 34.4021 54.6071C34.3921 54.5929 34.3802 54.5825 34.3716 54.5684C33.7862 53.7504 32.7866 53.409 31.466 53.5528C30.2661 53.6853 28.9729 54.3189 28.113 54.9275C28.5077 54.2347 28.8149 53.5519 29.0303 52.8878C29.2164 52.3101 29.3257 51.7675 29.3644 51.2686C29.3962 50.833 29.3735 50.4306 29.2961 50.0705C29.1764 49.5152 28.926 49.0641 28.5532 48.7441C28.3839 48.5963 28.1915 48.4773 27.9837 48.3917C27.5477 48.2288 27.1967 48.1696 26.5417 48.1773C26.183 48.181 25.7341 48.2042 25.1287 48.2415C25.0604 48.2415 11.5697 49.6363 11.5697 49.6363C11.5697 49.6363 14.9186 51.2996 15.3055 51.4926L15.5267 51.6027C15.5267 51.6027 15.7043 51.7111 15.6319 52.1248C15.6114 52.2446 15.5727 52.3857 15.4994 52.5632L14.9787 53.7932C13.1014 58.2259 11.2168 62.6554 9.32462 67.0818C8.94954 67.9289 8.63181 68.5061 8.13837 69.1748C7.12919 70.5372 4.57324 72.6908 4.57324 72.6908L15.5431 71.4731L15.0674 70.3497C15.0224 70.2446 14.6332 69.3005 15.0356 68.0423C15.1589 67.6581 15.8121 66.1191 16.1872 65.2524L16.2683 66.9175C16.3338 68.6504 16.8286 69.8868 17.7904 70.5209C18.5219 71.0043 18.3945 70.9437 19.3577 71.2533C19.3577 71.2533 19.7765 72.0918 20.8271 72.6252C23.2488 73.8593 26.9218 74.2485 31.2785 73.8106C32.2462 73.7155 33.21 73.5848 34.1681 73.4187C34.987 73.2785 35.8228 73.1128 36.674 72.9198C37.0532 72.8283 37.4232 72.7372 37.7883 72.6457C43.0882 71.3175 47.0375 69.9705 50.2503 68.8739C50.6582 68.7337 51.0692 68.594 51.478 68.4533C53.4294 67.7851 55.3782 67.1269 57.2345 66.6348C57.6784 66.5173 58.1247 66.4092 58.5732 66.3107C58.8054 66.2588 59.0348 66.2051 59.2624 66.1614C59.7781 66.0713 60.2634 65.993 60.7231 65.9247C63.747 65.475 65.6643 65.4777 67.36 65.7458L69.3159 66.0572C69.3159 66.0572 67.5234 64.5709 64.2072 64.0839C63.6001 63.9938 62.9884 63.9371 62.375 63.9141C62.1336 63.9057 61.8919 63.9052 61.6504 63.9127L62.4497 63.8189L66.1213 63.3883L65.8537 63.0606C65.8537 63.0606 67.2639 63.4193 67.9859 63.4643C68.2845 63.4821 68.6127 63.4657 68.9186 63.4297C70.7357 63.2149 72.3166 62.1971 73.746 60.3171C74.5708 59.2501 75.1835 58.144 75.5108 57.1225C75.9928 55.6235 75.7293 54.46 74.9932 53.7991C74.3559 53.2246 73.2056 53.0225 73.4715 52.5869Z" fill="white"/>
<path fill-rule="evenodd" clip-rule="evenodd" d="M61.7469 64.6953C62.455 64.6726 63.1638 64.6837 63.8708 64.7285C65.5769 64.8455 66.8519 65.242 66.5843 65.2174C64.9751 65.0695 63.6469 64.9575 61.3085 65.2288C60.7031 65.2975 60.0285 65.3954 59.2646 65.5228C59.134 65.5447 59.0061 65.5652 58.8691 65.5893C58.5846 65.6448 58.3028 65.7036 58.0229 65.7668C56.2581 66.1556 54.5511 66.6718 52.7216 67.2758C48.7117 68.6014 44.1092 70.3443 37.0226 72.0727C36.9234 72.0955 36.8269 72.1201 36.7281 72.1442C35.6194 72.3943 34.5021 72.6049 33.3783 72.7755C33.0242 72.8283 32.6773 72.8757 32.3355 72.9189C31.7157 72.9977 31.094 73.0604 30.471 73.1069C26.4178 73.4024 23.3015 72.9003 21.2909 71.8884C21.1754 71.8293 21.0649 71.761 20.9604 71.684C21.7357 71.8255 22.5464 71.9207 23.3939 71.9589C25.1861 72.0404 26.9782 71.8706 28.7048 71.4914C29.2302 71.3755 29.7509 71.2391 30.2657 71.0827C31.5514 70.6997 32.7971 70.1934 33.9856 69.5709C35.7417 68.6505 37.3099 67.5048 38.579 66.1897C39.1757 66.3477 39.9824 66.5757 40.4403 66.6777C41.1154 66.8297 41.8027 66.949 42.5228 66.9868C45.1084 67.1215 48.0654 66.6212 50.7642 66.2111C51.9682 66.029 53.1791 65.8142 54.3872 65.6034C54.9225 65.5096 55.4587 65.4172 55.9918 65.3285C56.9181 65.1769 57.8408 65.0381 58.7594 64.9274C59.131 64.8825 59.5033 64.8426 59.876 64.8077C60.5042 64.7504 61.1273 64.7121 61.7469 64.6953ZM48.0285 56.9924C48.2356 57.108 48.4632 57.2418 48.8296 57.5204C49.2794 57.8486 49.4687 58.4618 49.3763 59.2515L51.1448 54.9872L51.2941 54.6258L50.4843 54.7209L50.4379 54.8315L50.1206 55.594C50.071 55.4848 49.9972 55.401 49.9239 55.3191C49.5734 54.8971 49.1096 54.6995 48.5674 54.6927C48.5674 54.6927 47.7522 54.7574 47.3707 55.1789C47.2135 55.3501 47.0946 55.5529 47.022 55.7738C46.951 55.9887 46.9401 56.1698 47.053 56.2996C47.4053 56.7083 48.0285 56.9924 48.0285 56.9924ZM52.499 61.4492C52.5655 61.4647 52.8254 61.4147 52.8254 61.4147C52.8832 60.7692 53.0407 60.029 53.3011 59.1883C53.6611 58.0685 54.2392 56.8677 55.0099 55.6887C55.3121 55.2238 55.6364 54.7737 55.9817 54.3399C55.8948 54.232 55.7774 54.1843 55.5097 54.1765L54.3066 54.2735L51.8312 60.283C51.5376 61.1939 51.7147 61.4511 52.499 61.4492Z" fill="white"/>
<path fill-rule="evenodd" clip-rule="evenodd" d="M17.4213 47.7043C14.935 42.2601 13.3072 36.2451 13.3072 29.8855C13.3072 27.0273 13.4824 24.1646 13.8256 21.3596C16.5227 19.578 19.461 18.0776 22.5673 16.8645C20.9195 15.966 19.7441 15.5235 19.7441 15.5235C22.5222 15.2017 25.0254 15.1716 27.2117 15.3009C31.3873 14.1183 35.789 13.4355 40.2791 13.2967C41.4982 12.231 42.8888 11.3106 44.3245 10.5249C43.5538 10.4941 42.7825 10.4786 42.0112 10.4785C30.2279 10.4785 19.4596 13.9781 11.226 19.755C10.7536 23.1112 10.5174 26.4963 10.5191 29.8855C10.5191 36.2988 12.0799 42.4154 14.5112 48.008C15.4707 47.9069 16.4549 47.804 17.4213 47.7043ZM48.9507 70.6615C45.7156 73.3326 43.0996 74.883 42.0276 75.0569C41.4613 74.9485 40.4644 74.4496 39.1757 73.6062C38.3345 73.8269 37.4683 74.0459 36.5825 74.2585C36.2383 74.3408 35.8974 74.415 35.5583 74.4883C38.4916 76.6601 40.8559 77.855 42.0116 77.855C44.1197 77.855 49.654 74.3554 55.5065 68.4419C54.0867 68.8753 52.626 69.3755 51.1903 69.8676C51.1903 69.8681 50.3668 70.1767 48.9507 70.6615ZM54.572 14.7237C58.7798 14.7246 62.2489 15.7393 62.2489 15.7393C61.4728 15.8676 60.7463 16.0875 60.0772 16.3474C62.7017 17.2807 65.2398 18.4412 67.6626 19.8156C69.7201 20.5871 71.0029 21.3728 71.0029 21.3728C70.7352 21.4315 70.4758 21.4962 70.2186 21.5626C70.5494 24.3246 70.7157 27.1038 70.7166 29.8855C70.7166 36.6603 68.9472 42.9939 66.2811 48.6516C66.3221 48.6489 66.3649 48.6448 66.4031 48.6416C67.1 48.5556 67.862 48.2834 68.665 47.82L69.9459 47.0716C72.1277 41.7353 73.5028 35.9424 73.5028 29.8855C73.5028 26.4087 73.2575 23.0216 72.7959 19.755C66.5264 15.3574 58.788 12.2797 50.2503 11.0621C49.6678 11.8835 49.1723 12.7633 48.7718 13.6872C50.7378 13.9303 52.6747 14.2763 54.572 14.7237Z" fill="#CE3729"/>
<path fill-rule="evenodd" clip-rule="evenodd" d="M37.6828 19.3146C37.6828 19.3146 32.367 16.8233 24.8566 16.953C24.8566 16.953 30.7642 20.0439 33.2642 26.0457C33.3637 26.2836 33.4572 26.5241 33.5446 26.7667C35.2234 26.4503 37.0742 27.2756 38.4849 28.7004C39.9429 30.1721 40.9279 32.2819 40.7591 34.4368C40.7591 34.4368 39.9825 35.8944 38.8308 35.3095C38.5855 35.1861 38.3242 34.9731 38.0506 34.6312C38.0506 34.6312 37.8553 34.7455 37.6496 35.1192C37.6496 35.1192 37.6086 34.8584 37.4607 34.5666L37.4593 34.5679C35.3408 38.6388 30.0482 39.0376 29.8743 39.2897C29.8743 39.2897 30.0273 39.8173 30.116 40.0317C30.116 40.0317 29.5425 40.9658 28.5078 42.5549L29.7318 41.7924C29.7318 41.7924 30.5817 40.5789 30.8799 39.9179C30.8799 39.9179 33.2555 40.0176 37.4229 36.6464C37.4229 36.6464 37.4129 36.9728 37.4707 37.5204C37.5258 38.037 37.6391 38.748 37.8772 39.571C37.8772 39.571 31.5158 41.7023 24.5822 46.9599C25.1184 46.9048 25.4357 46.8729 25.4602 46.8715C25.4602 46.8715 27.8382 46.7587 28.724 47.091C28.7987 47.1219 28.8692 47.1579 28.9402 47.1943C30.3732 46.6744 31.8763 46.2507 33.4231 45.983C33.4231 45.983 33.9156 46.6822 34.6275 47.283C34.6275 47.283 32.7494 47.5293 30.1165 48.269C30.3905 48.7083 30.568 49.2331 30.6395 49.8294C32.8017 49.4776 35.1492 49.2782 37.5531 49.3847C37.5531 49.3847 39.7217 50.8732 46.4131 49.0592C45.6957 48.7943 44.941 48.2991 44.9961 47.5534C45.1071 46.1127 49.092 44.3793 49.3783 39.038C49.5444 35.949 47.562 31.4676 44.4849 29.3013C44.4849 29.3013 45.6265 26.8737 49.9455 26.0516C49.9455 26.0516 45.1927 21.6753 38.2459 25.1849C38.2459 25.1849 38.895 22.3103 41.6035 20.4399C41.6035 20.4399 41.0053 21.358 41.0627 22.4837C41.0627 22.4837 42.1597 20.7226 43.7475 19.8331C43.7475 19.8331 43.1125 20.693 43.0141 21.9247C43.0141 21.9247 44.2109 20.3457 46.1737 19.595C46.1737 19.595 45.1263 20.6638 44.8745 21.7618C44.8745 21.7618 46.0012 20.5774 47.5384 20.332C47.5384 20.332 46.78 20.662 46.3762 21.7304C46.3762 21.7304 48.7233 21.729 51.7959 23.8102C52.1846 24.0737 52.8492 24.6487 53.2716 25.1366C54.268 26.2874 55.3929 28.6144 56.418 31.2714V31.27C56.418 31.2664 56.4302 30.9896 56.545 30.7738C57.7389 28.3353 61.4197 22.8329 67.5362 21.3717C67.5362 21.3717 62.9851 18.3815 53.5406 20.4613C53.5406 20.4613 54.6245 17.6445 57.7421 16.2152C57.7421 16.2152 53.7646 15.1468 46.2251 17.6445C46.2251 17.6445 46.2028 15.8073 47.125 13.5076C47.5027 12.5657 47.9909 11.6719 48.5794 10.8452C48.7546 10.6009 48.9385 10.363 49.1307 10.1319C49.1912 10.0572 49.2517 9.98439 49.3155 9.91064C49.3155 9.91064 49.1252 9.96754 48.7902 10.0909C48.4356 10.2211 47.9144 10.4264 47.2885 10.7159C45.7657 11.4166 44.3215 12.2767 42.98 13.2819C41.0663 14.7248 39.0985 16.6945 37.6828 19.3146ZM25.9305 70.5834C26.461 70.5219 26.989 70.4399 27.5132 70.3376C27.7021 70.3016 27.8896 70.2698 28.0813 70.2283C28.4195 70.1585 28.7535 70.0697 29.0818 69.9625C29.3023 69.8919 29.5168 69.8038 29.7232 69.6989C29.4371 69.731 29.1494 69.7475 28.8615 69.7486C28.4518 69.7532 28.0422 69.7391 27.6338 69.7062C27.3443 69.6807 27.0562 69.6416 26.7703 69.5892C26.057 69.4668 25.2099 69.2729 24.8202 69.0981C23.7842 68.6338 23.1833 68.3688 22.7518 67.3255C22.4345 66.5567 22.3594 65.6477 22.3917 64.6885C22.4136 64.0458 22.4819 63.3812 22.5602 62.7203L22.6903 61.6433C22.7373 61.2464 22.7759 60.8486 22.806 60.4502C22.8418 59.9453 22.8942 59.4417 22.963 58.9403L23.649 58.5802C23.7109 58.5465 23.7687 58.511 23.8293 58.4769C25.0597 57.7841 25.9541 56.9715 26.7025 55.9132C26.8044 55.7716 26.8996 55.6332 26.992 55.4944C27.6124 54.5676 28.054 53.6809 28.3275 52.836C28.4919 52.3253 28.5875 51.8496 28.6193 51.4154C28.6516 50.9715 28.6171 50.5719 28.511 50.2323C28.3503 49.7156 28.0303 49.336 27.5551 49.1412C27.5268 49.1312 27.4995 49.1207 27.4727 49.112C26.9879 48.9436 26.596 48.9318 24.95 49.0319C24.9345 49.0319 14.5755 50.0812 14.5755 50.0812C14.5755 50.0812 15.9411 50.8409 16.0144 50.8796C16.5001 51.0976 16.5684 51.4618 16.4295 51.9903C16.3703 52.2174 9.99572 67.2213 9.99572 67.2213C9.24236 68.9246 8.5673 69.8815 7.0442 71.3299C6.90035 71.4569 6.78837 71.553 6.64453 71.6859L14.3684 70.8292C14.3219 70.72 14.2873 70.6407 14.2641 70.5288C14.0097 69.6202 14.006 68.9592 14.3338 67.9924C14.885 66.3596 16.8265 62.0843 16.8265 62.0843C16.8301 63.5009 16.9562 65.0322 17.019 66.6646C17.065 67.91 17.3722 69.1623 18.3163 69.8205C20.2664 71.1838 23.3235 70.8679 25.9305 70.5834Z" fill="#CE3729"/>
<path fill-rule="evenodd" clip-rule="evenodd" d="M60.3976 58.4711L62.4301 58.2335C62.5926 57.9121 63.249 56.2215 63.4028 55.7417C63.7361 54.7056 63.9036 53.8367 63.9149 53.127C63.9382 51.6408 63.2658 50.8642 61.9326 50.7718C61.693 50.7521 61.452 50.7568 61.2133 50.7859C60.2947 50.9079 59.3889 51.2948 58.4962 51.9121C57.9803 52.272 57.4968 52.6764 57.0514 53.1206C56.8056 53.3787 56.567 53.6436 56.3359 53.915L57.2203 51.786L55.2607 52.0159L57.4461 46.7314L56.6158 46.8293C56.1092 47.9486 55.3426 49.1458 54.1905 50.4586C53.3825 51.4013 52.4329 52.2126 51.3755 52.8634L51.2162 52.9627L51.3123 52.7314C51.3123 52.7314 50.4997 52.3764 49.1005 52.5088C47.9101 52.6222 47.0866 53.0423 46.1863 53.8421C46.0424 53.9719 45.8936 54.1125 45.7479 54.2573C45.6509 54.3538 45.5549 54.4489 45.4598 54.5504C44.4683 55.6816 43.8311 56.7718 43.5161 57.7555C43.1605 58.8575 43.2602 59.788 43.7528 60.3096C44.4597 61.0616 45.2331 61.1841 45.4516 61.5937C45.4953 61.7235 45.4953 61.8113 45.4106 62.0762C45.112 63.0067 44.0309 64.0291 42.3662 62.6648C41.992 62.3589 41.7581 61.9388 41.6338 61.6625C41.8286 61.3329 42.0189 60.9897 42.2055 60.6296C42.6544 59.7711 43.0117 58.9213 43.258 58.1542C43.8147 56.4263 43.8306 55.0361 43.3094 54.1712C42.8701 53.4397 42.048 53.0824 40.8308 53.2253C40.6378 53.2499 40.4516 53.2918 40.25 53.3396C39.5053 53.5189 38.7974 53.8385 38.1119 54.2896C37.2352 54.8668 36.3958 55.6616 35.5714 56.7044C34.7052 57.7901 34.2359 58.4925 33.5827 59.8253C33.6896 59.5526 33.6792 59.5271 33.7611 59.2681C34.4721 57.0586 34.3051 55.3875 33.2522 54.6788C32.787 54.3652 32.1497 54.2377 31.3344 54.341C30.6762 54.4248 29.8714 54.7252 29.058 55.1895C27.9714 55.8086 26.8685 56.7226 26.0755 57.8169C25.6201 58.4458 25.1958 59.0966 24.8041 59.767C24.0235 61.0976 23.5801 62.1504 23.4217 62.5774C23.4039 62.6259 23.3868 62.6746 23.3703 62.7235C23.2883 62.9807 23.2214 63.2302 23.1609 63.4742C22.9965 64.1488 22.9141 64.776 22.9242 65.3328C22.9537 66.89 23.6816 67.9065 25.1933 67.9219C25.3596 67.9235 25.5258 67.9144 25.6909 67.8946C25.9298 67.8673 26.1898 67.8154 26.4583 67.7362C26.5662 67.7057 26.6746 67.6634 26.782 67.626C27.0461 67.5363 27.3053 67.4329 27.5586 67.3161C27.5922 67.301 27.6277 67.2878 27.6614 67.2724C28.4662 66.8636 29.2105 66.3274 29.9047 65.66C30.9462 64.66 31.8702 63.364 32.7082 61.7421C32.868 61.4344 32.9035 61.3998 33.0401 61.098C32.9349 61.3707 32.9463 61.3616 32.8666 61.6097C31.8575 64.7496 32.5157 67.0953 35.1882 66.7798C35.4249 66.7516 35.6848 66.6988 35.9534 66.6214C36.367 66.499 36.7702 66.3437 37.1592 66.1571C38.7947 65.3268 40.1817 63.9794 41.3944 62.0539L40.7698 65.3655C40.7698 65.3655 41.9124 65.6787 42.5879 65.7047C42.8678 65.7192 43.1587 65.7074 43.4255 65.6764C45.0587 65.4852 46.3797 64.5671 47.5915 62.9721C47.8086 62.6949 48.003 62.4195 48.1782 62.1491C48.1782 62.1491 47.8955 62.8446 47.8423 63.0121C47.418 64.3299 47.6893 65.2221 48.9357 65.0742C49.2306 65.0419 49.8934 64.8603 50.2426 64.6909L52.8076 61.5787C52.6824 63.4956 53.5296 64.4802 55.506 64.4169C55.6858 64.4105 55.8725 64.3991 56.0732 64.3755C57.2308 64.1661 58.7812 63.5038 58.7812 63.5038L61.7641 59.5544C61.1045 60.0483 60.6503 60.3092 59.5787 60.7571C59.0684 60.9637 58.6478 61.108 58.285 61.2041C58.0965 61.257 57.9046 61.297 57.7106 61.3238C56.985 61.4089 56.6154 61.1763 56.4251 60.6205C56.207 60.001 56.2216 59.4689 56.3773 58.9417L60.3976 58.4711Z" fill="#CE3729"/>
<path fill-rule="evenodd" clip-rule="evenodd" d="M76.5213 49.6068C74.5858 49.0565 72.709 50.0092 71.81 50.8077C71.6279 50.9684 71.4408 51.15 71.2569 51.3375L71.9397 49.6842C71.6978 49.6432 71.4516 49.6337 71.2073 49.656C71.1941 49.6574 71.1823 49.661 71.1709 49.6624C70.504 49.7498 69.8026 50.1353 69.1525 50.7489C68.9008 50.9856 68.6564 51.2515 68.427 51.551L69.2058 49.6606C69.0321 49.7598 68.8557 49.8544 68.6769 49.9442C67.7628 50.4098 66.8784 50.6952 66.0426 50.7913C65.7618 50.825 65.4745 50.8368 65.1946 50.8231C65.1386 50.8209 65.0771 50.825 65.0211 50.8195C65.0557 50.8732 65.0853 50.9274 65.1108 50.9811C65.3093 51.3771 65.3084 51.7936 65.0434 52.6175C64.9201 52.9985 61.7351 60.6864 61.6827 60.8066C61.2098 61.8777 60.9225 62.3251 60.1733 63.0589C60.0677 63.1641 59.9625 63.2683 59.8505 63.3512L60.1145 63.3202L61.2047 63.1918L63.1143 62.9679L64.5254 62.804C64.474 62.7394 64.4444 62.6506 64.4025 62.5637C64.2842 62.1595 64.2978 61.7552 64.4567 61.1712C64.4808 61.0802 64.509 60.9864 64.5423 60.8853L66.4118 56.3529C66.9781 54.9969 67.227 54.5735 67.7979 53.908C68.279 53.3896 68.7342 53.0828 69.1644 53.0336C69.2827 53.0181 69.3974 53.0245 69.5103 53.0527C69.6232 53.0809 69.7343 53.1315 69.8413 53.2057C69.5276 53.7314 69.2964 54.2381 69.1407 54.7187C68.7843 55.8217 68.8635 56.7808 69.3747 57.2747C69.3747 57.2747 69.8017 57.7244 70.372 58.0353C70.6433 58.1833 70.9328 58.3376 71.0211 58.4191C71.1154 58.5229 71.119 58.7759 71.0353 59.0395C70.9652 59.2571 70.5951 60.056 69.7543 60.2271C69.6059 60.2581 69.1967 60.2258 68.9249 60.142C68.6518 60.0582 68.2831 59.9007 67.9895 59.6276C67.4178 59.0982 67.1483 58.3421 67.1483 58.3421L66.3936 62.3288C66.3936 62.3288 68.1875 62.7412 69.0483 62.6415C70.6807 62.4485 72.0035 61.5322 73.217 59.9381C74.0218 58.897 74.538 57.9138 74.8066 57.0753C75.1926 55.8759 75.0574 54.9231 74.4538 54.4875C74.0855 54.2085 72.9603 53.6622 72.6776 53.2648C72.4222 52.9089 72.7391 52.3836 72.9949 52.1432C73.2671 51.8865 73.7451 51.7026 74.1925 51.658C74.9072 51.5847 75.6009 52.1642 75.7448 52.5588L76.936 49.6988L76.5213 49.6068ZM63.8709 64.7286C63.1638 64.6835 62.455 64.6725 61.7469 64.6954C61.1274 64.7122 60.5042 64.7505 59.8765 64.8087C59.5037 64.8436 59.1315 64.8835 58.7599 64.9284C57.8413 65.039 56.9186 65.1779 55.9922 65.3295C55.4588 65.4182 54.9225 65.5106 54.3877 65.6044C53.1796 65.8152 51.9687 66.03 50.7647 66.2121C48.0654 66.6222 45.1084 67.1225 42.5233 66.9878C41.8032 66.95 41.1158 66.8307 40.4408 66.6787C39.9829 66.5763 39.1762 66.3482 38.5795 66.1907C37.3104 67.5058 35.7422 68.6511 33.986 69.5719C32.7976 70.1944 31.5519 70.7007 30.2661 71.0837C29.7514 71.2404 29.2307 71.3767 28.7053 71.4924C26.9787 71.8716 25.187 72.0414 23.3944 71.9599C22.578 71.9234 21.7649 71.8316 20.9609 71.685C21.0661 71.7619 21.1781 71.8325 21.2914 71.8894C23.302 72.9013 26.4183 73.4034 30.4714 73.1079C31.0945 73.0613 31.7162 72.9986 32.3359 72.9199C32.6841 72.8758 33.0317 72.828 33.3788 72.7765C34.4458 72.6149 35.5601 72.4087 36.7286 72.1452C36.8274 72.1206 36.9239 72.0965 37.0231 72.0737C44.1097 70.3453 48.7122 68.6024 52.7221 67.2768C54.552 66.6728 56.259 66.1561 58.0233 65.7678C58.3045 65.7045 58.5866 65.6453 58.8696 65.5903C59.0066 65.5657 59.1345 65.5452 59.2651 65.5238C60.029 65.3964 60.7036 65.2985 61.309 65.2298C63.6474 64.958 64.9756 65.07 66.5848 65.2184C66.852 65.2421 65.5769 64.8456 63.8709 64.7286Z" fill="#CE3729"/>
<path fill-rule="evenodd" clip-rule="evenodd" d="M34.0605 44.5814C35.1148 43.8258 36.2651 42.9423 36.3206 42.737C36.0994 42.5426 35.9888 42.406 35.9888 42.406C39.8339 40.9184 40.1015 36.665 40.1015 36.665C40.1411 41.0677 36.708 42.7365 36.708 42.7365C36.8182 42.9022 37.0667 42.9846 37.0667 42.9846C36.1244 43.6824 35.3005 44.5582 35.3005 44.5582C38.9603 49.433 42.1167 49.056 42.1167 49.056C37.7463 49.8117 34.0605 44.5814 34.0605 44.5814Z" fill="#164C82"/>
<path fill-rule="evenodd" clip-rule="evenodd" d="M45.4809 31.8435C47.5329 35.6858 46.3121 40.0876 46.3121 40.0876C46.9007 36.1274 45.4053 33.0702 44.3757 31.5043C43.8831 30.7546 43.4962 30.3459 43.4962 30.3459C43.7165 30.8807 43.8617 31.4065 43.956 31.8794C44.1631 32.9146 44.1312 33.6843 44.1312 33.6843C44.0046 33.1705 43.8305 32.6696 43.6109 32.1881C43.1316 31.1438 42.6127 30.5939 42.6127 30.5939C42.8858 31.2267 43.0938 31.8667 43.2518 32.5094C44.8309 38.951 41.095 45.5796 41.095 45.5796C43.2723 41.0877 43.1921 36.1501 42.7788 33.3256C42.7611 33.2072 42.7397 33.0971 42.7192 32.9837C42.2544 30.3846 41.095 29.4072 41.095 29.4072C39.9352 29.7058 38.4185 28.3867 38.4185 28.3867C38.4185 28.3867 38.8527 28.566 39.632 28.2478C40.4068 27.9328 40.8615 27.0434 41.5912 26.4175C42.7151 25.4534 45.8692 25.6254 45.8692 25.6254C43.2286 26.1243 42.1761 28.7099 42.1761 28.7099C42.4829 28.7017 42.8002 28.7918 43.1248 28.9734C43.8868 29.4022 44.687 30.3572 45.4809 31.8435Z" fill="#164C82"/>
<path fill-rule="evenodd" clip-rule="evenodd" d="M37.6499 35.1187C37.8561 34.745 38.0509 34.6307 38.0509 34.6307C38.3245 34.9726 38.5858 35.1861 38.8311 35.309C39.5203 35.0482 40.2655 34.476 40.1293 33.2433C39.9031 31.2067 39.2722 29.7478 38.4852 28.7004C37.075 27.2761 35.2237 26.4508 33.5449 26.7667C33.4576 26.524 33.3641 26.2836 33.2645 26.0457C24.0626 26.1667 24.3699 32.6638 24.3699 32.6638C24.3699 32.6638 25.7819 31.554 28.3164 30.9527L29.4476 29.5721L30.8282 30.1798C30.8282 30.1798 30.5774 29.924 31.7937 29.6822C32.9158 29.4597 34.4985 29.7378 35.0516 29.6822C35.6028 29.6267 35.8241 29.4897 36.0721 29.5179C36.3202 29.5448 36.3821 29.6504 36.6516 29.9872C37.2894 30.7816 37.3408 31.5326 37.3408 31.5326C37.3408 31.5326 35.7685 30.2909 35.3812 30.2909C34.9956 30.2909 31.6594 30.7752 27.9022 32.3324C27.9022 32.3324 29.6802 32.5368 29.9998 32.4981C31.379 32.3297 33.0801 31.8458 34.8012 32.5263C36.7358 33.2888 37.2944 34.0185 37.4582 34.5679L37.4596 34.5666C37.6084 34.8579 37.6499 35.1187 37.6499 35.1187Z" fill="#F4CF53"/>
<path fill-rule="evenodd" clip-rule="evenodd" d="M34.7943 28.0307C34.3896 28.7968 32.6216 28.3584 32.6216 28.3584C34.6208 28.4353 34.4146 27.5304 33.7264 27.448C33.7264 27.448 35.0387 27.5673 34.7943 28.0307Z" fill="#164C82"/>
<path fill-rule="evenodd" clip-rule="evenodd" d="M41.4674 27.1936C41.4674 27.1936 40.5415 28.7249 39.2578 28.6671C39.2578 28.6671 39.7035 28.983 40.2952 29.1027C40.8328 29.212 42.2571 28.6439 41.4674 27.1936ZM49.3765 59.2515C49.4689 58.4622 49.2795 57.8486 48.8298 57.5204C48.5769 57.3238 48.309 57.1473 48.0286 56.9924C48.0286 56.9924 47.4054 56.7083 47.0531 56.2996C46.9402 56.1698 46.9507 55.9882 47.0222 55.7738C47.0914 55.5576 47.2088 55.3578 47.3709 55.1789C47.7523 54.7569 48.5676 54.6927 48.5676 54.6927C49.1097 54.6995 49.574 54.8971 49.9241 55.3191C49.9969 55.4015 50.0706 55.4848 50.1207 55.594L50.438 54.8316L50.4844 54.7209L51.2942 54.6258L51.1449 54.9872L49.3765 59.2515Z" fill="white"/>
<path fill-rule="evenodd" clip-rule="evenodd" d="M61.1791 59.1524C60.7417 59.4569 60.3347 59.6741 59.4908 60.0264C59.3547 60.0819 59.2313 60.1283 59.1075 60.1743C58.5704 60.3755 58.1475 60.4984 57.8407 60.5353C57.3659 60.5908 57.2398 60.4697 57.1383 60.177C57.0771 60.003 57.0364 59.8225 57.0172 59.639L59.7671 59.3181L61.1791 59.1524ZM53.6587 64.9644C52.9272 65.0914 52.1885 65.2179 51.4501 65.3345C51.6964 65.0063 52.4761 63.9702 52.4761 63.9702C52.5062 64.0217 52.5312 64.0795 52.5658 64.1286C52.8307 64.5078 53.1999 64.7828 53.6587 64.9644ZM48.0807 65.8447C46.854 66.0141 45.634 66.152 44.4632 66.198C45.3454 65.9039 46.1675 65.3996 46.9445 64.6685C46.9873 64.9075 47.0656 65.1169 47.1853 65.293C47.3392 65.517 47.6128 65.7551 48.0807 65.8447ZM30.3657 70.1113L32.0604 69.1199C31.6129 69.1727 30.2838 69.0926 29.2281 69.017C28.7831 68.9852 28.3382 68.9511 27.8935 68.9146C27.2389 68.8659 26.7018 68.7448 26.2466 68.5509C26.3158 68.5341 26.3841 68.52 26.4537 68.499C26.7463 68.411 27.034 68.3072 27.3154 68.1881C27.4733 68.1235 27.6286 68.0607 27.7897 67.9851C27.8812 67.9382 27.97 67.8872 28.0596 67.8372C28.9016 67.3757 29.6763 66.8009 30.362 66.1288C30.8393 65.6622 31.2806 65.1602 31.6821 64.6271C31.7199 65.3804 31.8997 66.0259 32.2375 66.518C32.811 67.3551 33.7865 67.7188 35.057 67.5686C35.358 67.5319 35.6555 67.4704 35.9464 67.3847C36.0953 67.3419 36.2564 67.2845 36.4144 67.2276C35.4793 67.9363 34.4784 68.5536 33.4255 69.0712C32.4838 69.537 31.5072 69.9286 30.5045 70.2424C30.2354 70.3278 29.9645 70.4075 29.692 70.4814C29.7548 70.4518 29.8208 70.4273 29.8836 70.394L30.3657 70.1113ZM65.5932 62.7403C65.5932 62.7403 64.8285 61.9897 65.2359 60.9673L66.6119 57.6352L66.5036 58.1755L65.5932 62.7403ZM68.4364 54.6705C68.3663 54.8826 68.3162 55.0888 68.2752 55.2914C68.0431 56.4175 68.222 57.378 68.7919 57.9252C68.7955 57.9293 69.222 58.3267 69.222 58.3267C69.5298 58.5697 70.3077 58.9821 70.3291 58.9954V58.9963C70.305 59.0673 70.1948 59.3882 69.8871 59.4392C69.8024 59.4528 69.7228 59.4455 69.6131 59.4278C69.6131 59.4278 69.1642 59.4068 68.5561 58.9608C68.0385 58.5807 67.5542 57.6794 67.2428 57.0084C67.1758 56.8638 67.1115 56.7179 67.0498 56.571L67.0881 56.4799C67.6106 55.2226 67.8036 54.904 68.267 54.3628C68.3931 54.2262 68.5497 54.0774 68.7045 53.9695C68.6035 54.1986 68.514 54.4325 68.4364 54.6705ZM47.8531 55.5982C47.8959 55.5631 48.6738 55.0943 49.3034 55.9305C49.4783 56.1637 49.6143 56.4236 49.7062 56.7002L49.5774 57.0116C49.0503 56.4066 47.859 56.1144 47.7521 55.7675C47.7357 55.717 47.7889 55.6519 47.8531 55.5982Z" fill="#164C82"/>
<path fill-rule="evenodd" clip-rule="evenodd" d="M22.5521 56.2777C23.1011 55.482 23.305 54.8083 23.3619 54.6349C23.6432 53.7596 23.5008 53.1633 22.8348 52.9293C22.5148 52.8173 22.0764 52.7863 21.5029 52.8519C20.9785 52.9115 20.729 53.0513 20.729 53.0513L20.5169 53.5411L20.3958 53.8187L19.0052 57.0375L18.8031 57.5054L18.1631 58.9866C18.1631 58.9866 18.8946 58.9875 19.5 58.7267C19.5319 58.7126 19.5605 58.6971 19.5915 58.683C19.8359 58.5738 20.0622 58.4568 20.2752 58.3357C21.2603 57.7763 21.9412 57.1016 22.4069 56.4771C22.457 56.4102 22.5075 56.3433 22.5521 56.2777Z" fill="white"/>
<path fill-rule="evenodd" clip-rule="evenodd" d="M19.8847 57.7598C19.5529 57.9391 19.3221 58.0288 19.3062 58.0343L21.1907 53.6748C21.2066 53.6721 23.113 53.2888 22.6578 54.5861C22.5576 54.8729 22.3956 55.2056 22.2349 55.5143C22.1666 55.6454 22.0897 55.7692 22.0096 55.8894C21.8694 56.1033 21.7128 56.2995 21.5494 56.4797C20.989 57.0938 20.3408 57.5144 19.8847 57.7598Z" fill="#164C82"/>
<path fill-rule="evenodd" clip-rule="evenodd" d="M26.6404 62.0384C26.0378 64.2106 26.3796 65.2321 27.1047 65.147C27.4548 65.0823 27.9391 64.7728 28.4344 64.2507C28.459 64.2261 28.4831 64.1965 28.5086 64.1679C29.0334 63.5693 29.866 62.1204 30.4933 60.2035C31.3112 57.7031 31.09 56.698 29.9352 56.8341C29.0794 57.0963 27.9195 58.5234 26.9154 61.1549C26.8075 61.469 26.7178 61.7621 26.6404 62.0384Z" fill="white"/>
<path fill-rule="evenodd" clip-rule="evenodd" d="M27.6115 61.2328C28.3548 59.1238 29.4227 57.8274 29.8756 57.6189C30.07 57.6125 30.1201 57.6676 30.1378 57.6936C30.2238 57.8169 30.3613 58.3044 29.7841 60.1671C29.6544 60.5786 29.506 60.984 29.3394 61.3821C28.8778 62.4978 28.4818 63.2138 28.0667 63.6836C28.0412 63.7127 28.0143 63.745 27.9884 63.7732C27.6297 64.151 27.3351 64.3263 27.2081 64.3609C27.0948 64.3686 27.0702 64.3363 27.0552 64.3263C26.8845 64.213 26.8654 63.7323 27.1603 62.6493C27.2673 62.2579 27.4153 61.7913 27.6115 61.2328Z" fill="#164C82"/>
<path fill-rule="evenodd" clip-rule="evenodd" d="M36.5995 64.0322C36.9495 63.968 37.4571 63.6776 37.93 63.1363C39.2683 61.6078 39.8414 59.5452 39.988 59.0891C40.7673 56.5769 40.5857 55.5836 39.4304 55.7197C38.5755 55.9806 37.4157 57.409 36.4133 60.0391C35.4296 63.0321 35.7842 64.1273 36.5995 64.0322Z" fill="white"/>
<path fill-rule="evenodd" clip-rule="evenodd" d="M37.1084 60.1173C37.9942 57.7995 38.9174 56.7143 39.3712 56.5049C39.5656 56.4971 39.617 56.5536 39.6334 56.5782C39.719 56.7015 39.8301 57.8545 38.8364 60.2653C38.3466 61.4529 37.9287 62.1921 37.484 62.6592C37.1244 63.037 36.8298 63.2118 36.7037 63.245C36.0979 63.352 37.1084 60.1173 37.1084 60.1173Z" fill="#164C82"/>
<path fill-rule="evenodd" clip-rule="evenodd" d="M60.7239 55.5489C61.2638 53.8697 61.0039 53.109 60.2501 53.2051C59.5609 53.2948 58.6514 54.1305 58.0178 55.0823C57.7547 55.5052 57.5207 55.9245 57.335 56.3624L60.556 55.9841C60.6174 55.838 60.678 55.6914 60.7239 55.5489Z" fill="white"/>
<path fill-rule="evenodd" clip-rule="evenodd" d="M60.0896 55.2657L58.5684 55.4446C58.5816 55.4205 58.5952 55.3982 58.6093 55.3754C59.1588 54.551 59.7819 54.0025 60.1074 53.9961C60.3751 53.9902 60.3136 54.4841 60.0896 55.2657Z" fill="#164C82"/>
<path fill-rule="evenodd" clip-rule="evenodd" d="M53.3009 59.1883C53.0405 60.029 52.883 60.7692 52.8252 61.4147C52.8252 61.4147 52.5657 61.4647 52.4988 61.4492C51.7145 61.4511 51.5379 61.1934 51.831 60.283L54.3064 54.2735L55.5095 54.1765C55.7772 54.1847 55.8946 54.232 55.9815 54.3399C55.6365 54.7739 55.3122 55.224 55.0097 55.6887C54.239 56.8681 53.6609 58.0685 53.3009 59.1883Z" fill="white"/>
</svg>
