<svg width="80" height="80" viewBox="0 0 80 80" fill="none" xmlns="http://www.w3.org/2000/svg">
<path d="M79.9127 24.1063C79.9127 24.1063 77.3267 29.2344 74.1924 30.0454C74.5424 29.6063 74.9158 29.1251 75.2877 28.5985C76.3174 27.1516 77.1502 25.5954 77.5674 23.9079C79.5846 15.4031 76.8221 10.4281 76.8221 10.4281C76.7564 12.6203 75.9017 16.1703 75.1783 17.7703C75.4846 9.4422 71.0361 6 71.0361 6C71.0799 6.21875 72.7017 12.3344 68.647 18.1422C67.222 11.8078 63.8908 9.68126 63.8908 9.68126C64.3955 12.3766 65.3595 17.375 61.5017 23.2704L61.4142 23.1829C55.6939 17.4844 48.1095 14.3281 40.022 14.3281C31.9563 14.3281 24.3501 17.4625 18.6516 23.1829C15.7141 26.1204 13.4578 29.5391 11.9453 33.3532C8.54846 29.8907 5.37032 22.525 5.37032 22.525C5.37032 22.6344 5.17345 27.2594 5.43595 29.0782C3.83595 26.6235 1.64375 20.3985 1.64375 20.3985C1.70938 20.5297 0.657814 25.6375 1.73125 29.9985L0.0875002 27.3719C0.0875002 27.3719 -0.240626 31.7547 1.35938 35.4813L0 34.2313C0.439063 36.7516 3.00313 40.6095 4.53751 42.3626C6.40001 44.4892 8.83283 46.0017 9.86409 46.5923C10.3469 53.9126 13.436 60.7736 18.6532 65.9673C24.3735 71.6876 31.9579 74.822 40.0235 74.822C48.0892 74.822 55.6736 71.6658 61.3939 65.9673C67.1142 60.247 70.2486 52.6626 70.2486 44.597C70.2486 43.3251 70.1611 42.0329 69.9861 40.7391C75.158 38.8548 77.5924 35.611 78.0955 32.936C77.2189 33.7907 76.6267 34.2079 76.0783 34.4048C79.6721 30.3516 80.2627 25.486 79.9127 24.1063Z" fill="#E3E4E7"/>
<path d="M12.844 35.8532C14.2253 31.6016 16.5706 27.7001 19.8362 24.4563C25.2284 19.0641 32.4175 16.0844 40.0441 16.0844C47.6707 16.0844 54.8395 19.0657 60.252 24.4563C60.5582 24.7626 60.866 25.0923 61.1504 25.3985C61.3035 25.2235 61.4348 25.0704 61.5895 24.8938C61.3051 24.5876 61.0192 24.2798 60.7348 23.9954C55.2113 18.4719 47.8691 15.425 40.066 15.425C32.2628 15.425 24.9206 18.4719 19.3972 23.9954C16.1534 27.2391 13.7644 31.1188 12.3394 35.3485C12.4722 35.5251 12.6472 35.7001 12.844 35.8532Z" fill="#6F163D"/>
<path d="M68.2518 40.2156C68.4705 41.6844 68.6018 43.1531 68.6018 44.6656C68.6018 52.2938 65.6205 59.461 60.2299 64.8516C54.8393 70.2423 47.6486 73.2235 40.0439 73.2235C32.4158 73.2235 25.2267 70.2423 19.8361 64.8516C14.8392 59.8547 11.9235 53.3453 11.5298 46.3531C11.311 46.2656 11.0907 46.1563 10.8501 46.0469C11.1782 53.3453 14.1814 60.1407 19.3767 65.3344C24.9001 70.8579 32.2423 73.9048 40.0455 73.9048C47.8486 73.9048 55.1689 70.8579 60.6924 65.3344C66.2158 59.811 69.2627 52.4688 69.2627 44.6656C69.2627 43.1094 69.1315 41.575 68.8909 40.0625C68.669 40.1063 68.4721 40.1719 68.2518 40.2156Z" fill="#6F163D"/>
<path d="M17.928 38.6814C18.4984 38.8126 19.2218 38.8345 19.878 38.7689C20.8421 35.4158 22.6609 32.347 25.1827 29.8267C29.1499 25.8595 34.4109 23.6892 40.0218 23.6892C45.3265 23.6892 50.3234 25.6392 54.2031 29.2126C57.4906 28.9939 59.2656 27.5251 60.7125 25.9251C60.4063 25.597 60.0984 25.2673 59.7703 24.9392C54.4875 19.6564 47.4969 16.7642 40.0218 16.7642C32.5703 16.7642 25.5562 19.6798 20.2734 24.9392C17.0296 28.1829 14.6843 32.0845 13.3687 36.3361C14.7499 37.4533 16.2843 38.3298 17.928 38.6814Z" fill="#6F163D"/>
<path d="M62.6408 40.3688C62.158 40.6094 61.5018 40.8079 60.8221 40.8954C60.8221 41.3126 61.6768 41.9688 61.6768 41.9688C61.6768 41.9688 61.3487 42.1219 60.8658 42.2969C60.9533 43.086 60.9971 43.8532 60.9971 44.6641C60.9971 49.1798 59.5721 53.4751 56.9424 57.047C56.6361 57.4641 56.3064 57.8798 55.9564 58.2751C56.4174 59.3048 56.5049 60.336 56.5049 60.336C56.5049 60.336 55.233 60.336 54.2689 60.0298L54.0939 60.1829C54.3346 61.2126 54.2252 63.1423 54.2252 63.1423C54.2252 63.1423 52.6033 62.8579 51.683 62.1563C51.9018 63.2079 51.2002 64.9173 51.2002 64.9173C51.2002 64.9173 49.7752 64.3032 49.0517 63.5798C48.9424 63.6454 48.8111 63.6892 48.6799 63.7548C48.3299 65.2017 47.1455 66.561 47.1455 66.561C47.1455 66.561 46.4221 65.8376 45.8517 64.8079C43.9892 65.3564 42.0158 65.6407 40.022 65.6407C34.4111 65.6407 29.1501 63.4485 25.1829 59.5032C22.4439 56.7641 20.5579 53.4313 19.6595 49.7719C18.0595 49.4876 17.3798 48.7641 17.3798 48.7641L17.9064 48.3032C16.986 48.2157 16.5251 47.6454 16.5251 47.6454C16.5251 47.6454 14.6845 47.6016 12.186 46.6376C12.647 53.3438 15.4735 59.6126 20.2954 64.4126C25.5783 69.6954 32.5689 72.5876 40.0439 72.5876C55.4299 72.5876 67.9674 60.072 67.9674 44.6641C67.9674 43.1954 67.858 41.7485 67.6393 40.3469C66.1487 40.5657 64.4612 40.6532 62.6408 40.3688Z" fill="#6F163D"/>
<path d="M22.1158 34.9329C21.4799 36.1157 20.9549 37.3438 20.5596 38.6376C20.7783 38.5719 20.9768 38.5063 21.1736 38.4188L21.3268 38.3313C21.633 37.4329 21.9846 36.5782 22.4221 35.7454C22.3346 35.4813 22.2471 35.1954 22.1158 34.9329Z" fill="#6F163D"/>
<path d="M45.3267 63.6892L45.1298 63.7548C44.8892 64.083 44.5813 64.347 44.3188 64.5876C44.736 64.5001 45.1517 64.3908 45.547 64.2814" fill="#6F163D"/>
<path d="M59.6609 42.5611C59.7266 43.2408 59.7703 43.9424 59.7703 44.6439C59.7703 48.7424 58.4984 52.5783 56.3516 55.7346C56.4828 55.9534 56.5922 56.1737 56.6797 56.3487C59.0906 52.9518 60.3844 48.8971 60.3844 44.6658C60.3844 43.9205 60.3406 43.1971 60.275 42.4736C60.0766 42.5174 59.8578 42.5393 59.6609 42.5611Z" fill="#6F163D"/>
<path d="M22.8609 34.8454C23.7156 33.3329 24.7891 31.9298 26.0391 30.6813C29.7656 26.9547 34.7407 24.8954 40 24.8954C43.3313 24.8954 46.5313 25.7063 49.3594 27.2407C49.7094 27.1313 49.9954 27.0657 50.2579 27.0438C47.1672 25.2469 43.661 24.261 39.9782 24.261C34.5422 24.261 29.436 26.3876 25.5781 30.2219C24.175 31.6251 23.0141 33.1813 22.0938 34.8688C22.225 34.8891 22.4875 34.8673 22.8609 34.8454Z" fill="#6F163D"/>
<path d="M40.1311 18.4282L39.8905 22.3298L40.9858 22.3735L41.0733 20.8173H41.2499C41.3811 20.8173 41.4686 20.8392 41.5342 20.8829C41.5999 20.9267 41.6217 21.0142 41.6217 21.1235C41.6436 21.2329 41.6436 21.386 41.6217 21.6282C41.6217 21.7157 41.6217 21.8032 41.6217 21.8907C41.6217 21.9782 41.6436 22.0657 41.6655 22.1532C41.6874 22.2407 41.6874 22.3501 41.7092 22.4376L42.8264 22.5032C42.7389 22.3501 42.6952 22.0642 42.7171 21.6704C42.7171 21.4954 42.7171 21.3204 42.6952 21.1439C42.6733 20.9907 42.6296 20.8595 42.5639 20.7501C42.4983 20.6407 42.4108 20.5751 42.2796 20.5314C42.4327 20.4876 42.5421 20.422 42.6514 20.2907C42.7608 20.1595 42.8483 19.9626 42.8702 19.6767C42.8921 19.3923 42.8483 19.172 42.7608 19.0188C42.6733 18.8438 42.5421 18.7126 42.3436 18.647C42.1467 18.5595 41.8827 18.5157 41.5546 18.5157L40.1311 18.4282ZM37.742 18.561L36.3389 18.6704L36.667 22.572L37.7624 22.4845L37.6311 20.9282L37.8061 20.9064C37.9374 20.9064 38.0249 20.9064 38.0905 20.9282C38.1561 20.972 38.1999 21.0376 38.2217 21.147C38.2436 21.2564 38.2655 21.4095 38.2874 21.6517C38.2874 21.7392 38.3092 21.8267 38.3311 21.9142C38.353 22.0017 38.353 22.0892 38.3749 22.1767C38.3967 22.2642 38.4405 22.3517 38.4624 22.4392L39.5795 22.3517C39.4702 22.1985 39.4045 21.9579 39.3608 21.5626C39.3389 21.3876 39.317 21.2126 39.2733 21.0579C39.2295 20.9048 39.142 20.7517 39.0545 20.6642C38.967 20.5548 38.8795 20.511 38.7483 20.4892C38.8795 20.4235 39.0108 20.3142 39.0983 20.1829C39.1858 20.0517 39.2077 19.8548 39.1858 19.5688C39.1639 19.2845 39.0983 19.0642 38.9889 18.911C38.8795 18.7579 38.7045 18.6704 38.4842 18.6267C38.3124 18.561 38.0717 18.5173 37.742 18.561ZM43.8796 18.736L43.2217 22.5939L44.3389 22.7907L44.9968 18.9329L43.8796 18.736ZM34.8498 18.9548L33.5342 19.261L33.578 23.2501L34.6295 23.0095L34.6077 22.5048L35.2655 22.3298L35.4842 22.8126L36.5139 22.572L34.8498 18.9548ZM45.9608 19.086L44.8655 22.8345L45.8077 23.097L46.378 21.1689L46.5749 23.3392L47.5827 23.6235L48.6343 19.8751L47.7139 19.6126L47.2093 21.2564L46.9905 19.3938L45.9608 19.086ZM41.1608 19.1954L41.3577 19.2173C41.5108 19.2173 41.6202 19.261 41.6858 19.3267C41.7514 19.4142 41.7733 19.5235 41.7514 19.6767C41.7514 19.8298 41.7077 19.961 41.6421 20.0267C41.5764 20.0923 41.4671 20.136 41.3139 20.1142H41.1171L41.1608 19.1954ZM37.6983 19.2626C37.8514 19.2407 37.9608 19.2845 38.0264 19.3501C38.092 19.4157 38.1358 19.547 38.1358 19.7001C38.1577 19.8532 38.1139 19.9626 38.0702 20.0501C38.0045 20.1376 37.917 20.1814 37.7639 20.1814L37.5452 20.2032L37.4795 19.261L37.6983 19.2626ZM32.1967 19.547L31.2327 19.9407L31.7155 22.0235L30.4873 20.2485L29.5889 20.6204L30.028 22.7032H30.0061L28.8233 20.9282L27.8592 21.322L30.2045 24.5876L31.103 24.2157L30.753 22.0892H30.7748L32.0248 23.8423L32.9233 23.4704L32.1967 19.547ZM34.4327 20.1392L35.0686 21.6517L34.4983 21.761L34.4327 20.1392ZM49.9718 20.5329C49.7311 20.5548 49.4889 20.7079 49.2921 20.9267C49.0733 21.1454 48.8749 21.497 48.678 21.9345C48.503 22.3064 48.3936 22.6142 48.328 22.8548C48.2624 23.0954 48.2405 23.3157 48.2624 23.4907C48.2843 23.6657 48.3718 23.8407 48.503 23.9735C48.6343 24.1064 48.8093 24.2142 49.0733 24.3235C49.2264 24.3892 49.3796 24.4548 49.5124 24.4548C49.6436 24.4767 49.7968 24.4548 49.9296 24.411L49.9952 24.6735L50.5218 24.9142L51.4202 22.9204L50.1483 22.3282L49.8421 23.0079L50.0827 23.1173L49.9514 23.4673C49.9077 23.5767 49.8421 23.6204 49.7546 23.6642C49.6889 23.686 49.6233 23.686 49.5358 23.6423C49.3608 23.5548 49.2952 23.4235 49.4046 23.2251L50.128 21.6251C50.2155 21.4282 50.3468 21.3626 50.5218 21.4282C50.6093 21.472 50.653 21.5157 50.6968 21.6032C50.7186 21.6689 50.7186 21.7564 50.6749 21.8657L50.5874 22.0626L51.6171 22.5454C51.7483 22.261 51.7921 22.0407 51.814 21.9095C51.814 21.7345 51.7921 21.5814 51.7265 21.4267C51.6608 21.2735 51.5296 21.1423 51.3983 21.0329C51.2671 20.9235 51.0702 20.8142 50.8718 20.7267C50.5202 20.5767 50.214 20.511 49.9718 20.5329ZM53.414 22.111L50.6311 24.961L51.5515 25.5532L51.8796 25.1814L52.4718 25.5532L52.2749 26.0361L53.1952 26.6064L54.5765 22.8579L53.414 22.111ZM25.9061 22.5282L25.0295 23.1642L25.4233 24.436L24.328 23.6251L23.4514 24.261L25.5561 25.5767L26.4983 26.8704L27.4186 26.2126L26.4764 24.9189L25.9061 22.5282ZM53.414 23.361L53.4358 23.3829L52.8218 24.8735L52.3171 24.5892L53.414 23.361ZM55.803 23.711L53.3046 26.6923L54.1811 27.4157L55.1233 26.2767L55.5171 26.6048L54.5749 27.7657L55.4515 28.4673L57.9499 25.4861L57.0733 24.7626L56.1749 25.8142L55.7811 25.4861L56.6796 24.4345L55.803 23.711ZM22.4654 25.2017L21.6108 25.947L24.2186 28.8626L26.1467 27.1314L25.5764 26.4954L24.4811 27.4595L22.4654 25.2017ZM20.9311 26.6267L20.317 27.3501L21.6108 28.4892L19.8139 27.9189L19.1342 28.7736L22.0936 31.2939L22.7295 30.5486L21.1951 29.2548V29.2329L23.2342 29.9564L23.9139 29.1454L20.9311 26.6267ZM18.2795 30.0017L17.5342 31.1408L20.3623 33.947L20.9545 33.0486L20.6045 32.6986L20.9764 32.1283L21.4154 32.3033L22.0076 31.4048L18.2795 30.0017ZM18.8045 31.1408L20.2951 31.7548L19.9889 32.2595L18.8045 31.1408ZM16.7451 32.4126L16.1967 33.6408L17.7092 34.8236L15.8248 34.5173L15.2764 35.7236L18.8483 37.3017L19.242 36.4251L17.1154 35.4829V35.4611L19.4608 35.9439L19.7233 35.3736L17.817 33.9486L19.9436 34.8908L20.3154 33.9923L16.7451 32.4126Z" fill="white"/>
<path d="M58.7392 57.9906C58.6517 58.0125 58.5424 58.0344 58.433 58.0781C58.2361 58.1656 58.0392 58.2969 57.8189 58.45C57.6002 58.625 57.4017 58.8219 57.2049 59.0641C56.9642 59.3484 56.7658 59.6344 56.6127 59.9406C56.4596 60.225 56.3939 60.5109 56.3939 60.7516C56.3939 60.9922 56.4596 61.1906 56.6346 61.3219C56.8096 61.475 57.0736 61.5188 57.358 61.4531C57.6424 61.3875 58.0377 61.2344 58.5408 60.9703C59.0455 60.7297 59.3736 60.5766 59.5267 60.4875C59.6799 60.4219 59.7892 60.4219 59.8767 60.4875C59.9642 60.5531 60.008 60.6406 59.9642 60.75C59.9424 60.8594 59.8767 60.9906 59.7455 61.1219C59.6142 61.275 59.4611 61.3625 59.3283 61.4063C59.1752 61.45 59.0658 61.4281 58.9783 61.3406L58.8471 61.2313L57.8392 62.4594C58.0361 62.6344 58.2564 62.7219 58.4752 62.7656C58.6939 62.8094 58.958 62.7438 59.2642 62.5688C59.5486 62.4156 59.9002 62.1297 60.2502 61.6922C60.4689 61.4297 60.6674 61.1656 60.8205 60.9031C60.9736 60.6625 61.0611 60.4422 61.1268 60.2453C61.1924 60.0266 61.1924 59.8516 61.1486 59.675C61.1049 59.5 61.0174 59.3469 60.8643 59.2359C60.6674 59.0828 60.4252 59.0391 60.1408 59.1047C59.8346 59.1703 59.5267 59.2797 59.1986 59.4547C58.8705 59.6297 58.5408 59.8047 58.2346 59.9594C57.9283 60.1125 57.7299 60.1344 57.6424 60.0688C57.5767 60.025 57.5767 59.9594 57.5986 59.85C57.6205 59.7625 57.6642 59.6313 57.7736 59.5219C57.8611 59.4344 57.9486 59.3469 58.0361 59.3031C58.1236 59.2594 58.2111 59.2375 58.2986 59.2594C58.3861 59.2813 58.4955 59.325 58.6049 59.3906L59.5908 58.2078L59.4596 58.1203C59.3283 58.0109 59.1971 57.9672 59.0424 57.9453C58.9158 57.9906 58.8283 57.9688 58.7392 57.9906ZM22.5751 59.7219C22.3345 59.7 22.136 59.7656 21.9829 59.9188C21.8079 60.0938 21.7642 60.3359 21.8079 60.6203C21.8517 60.9266 21.9829 61.3438 22.1798 61.8484C22.3985 62.3531 22.5298 62.7031 22.5735 62.8563C22.6392 63.0094 22.6392 63.1188 22.5517 63.2063C22.486 63.2719 22.3767 63.3156 22.2673 63.2719C22.1579 63.2281 22.0485 63.1625 21.9173 63.0313C21.7642 62.9 21.6767 62.7469 21.6548 62.6141C21.6329 62.4609 21.6767 62.3297 21.7642 62.2422L21.8735 62.1328L20.7345 61.0156C20.5376 61.2125 20.4063 61.4328 20.3626 61.6516C20.3188 61.8703 20.3626 62.1344 20.4938 62.4406C20.6251 62.7469 20.8876 63.0985 21.3048 63.4703C21.5673 63.711 21.8095 63.9313 22.0282 64.0844C22.2689 64.2594 22.4892 64.3906 22.686 64.4563C22.8829 64.5219 23.0798 64.5656 23.2564 64.5219C23.4314 64.5 23.5626 64.3906 23.6954 64.2594C23.8704 64.0844 23.936 63.8422 23.8923 63.536C23.8485 63.2297 23.761 62.9219 23.6079 62.5719C23.4548 62.2219 23.3235 61.8922 23.1907 61.5859C23.0595 61.2578 23.0376 61.0594 23.1032 60.9938C23.147 60.95 23.2345 60.9281 23.3439 60.95C23.4314 60.9719 23.5407 61.0375 23.6501 61.1469C23.7376 61.2344 23.8032 61.3219 23.847 61.4094C23.8907 61.4969 23.9126 61.6063 23.8907 61.6938C23.8689 61.7813 23.8251 61.8688 23.7157 61.9781L24.8329 63.0297L24.9204 62.9203C25.0298 62.8109 25.1173 62.6578 25.1392 62.5031C25.161 62.3281 25.1392 62.1531 25.0735 61.9547C25.0079 61.7578 24.8985 61.5375 24.7454 61.3188C24.5923 61.1 24.3954 60.8797 24.1751 60.6609C23.8907 60.3984 23.6048 60.1563 23.3204 60.0031C23.0798 59.8094 22.8173 59.7438 22.5751 59.7219ZM55.5174 61.0375L54.2455 62.0453C54.2455 62.6594 54.2236 63.1406 54.2236 63.1406C54.2236 63.1406 53.7845 63.0531 53.2158 62.8781L52.6455 63.3172L55.0783 66.3641L58.0377 64.0188L57.5111 63.361L55.8892 64.6547L55.4064 64.0625L56.6783 63.0547L56.1517 62.3969L54.8799 63.4047L54.4627 62.8781L56.0189 61.65L55.5174 61.0375ZM26.2142 62.55L24.1095 65.8375L27.2657 67.8766L27.7486 67.175L25.9735 66.0578L26.3673 65.4219L27.7704 66.2985L28.2095 65.6188L26.8282 64.7203L27.1782 64.15L28.8657 65.2016L29.2829 64.5438L26.2142 62.55ZM50.3892 64.5875L48.8986 65.3766L50.7174 68.8172L54.1361 67.0203L53.7642 66.275L51.8361 67.3047L50.3892 64.5875ZM30.5532 65.0922L27.9454 68.2485L29.4579 68.8625L29.7642 68.4453L30.7064 68.8391L30.6626 69.3438L32.1532 69.9578L32.4595 65.8813L30.5532 65.0922ZM47.6064 65.9906C47.3439 66.3625 47.1236 66.5828 47.1236 66.5828C47.1236 66.5828 46.9267 66.386 46.6845 66.0563C46.5533 66.0781 46.422 66.1219 46.2908 66.1656C45.7642 66.3188 45.3705 66.4938 45.0845 66.7141C44.822 66.9328 44.6455 67.1969 44.5798 67.525C44.5142 67.8531 44.558 68.2485 44.6892 68.7313C44.7986 69.125 44.9298 69.4328 45.0392 69.6516C45.1705 69.8703 45.3236 70.0453 45.522 70.1563C45.697 70.2657 45.9158 70.3094 46.1798 70.2875C46.4423 70.2875 46.7939 70.2219 47.1877 70.0907C47.4283 70.025 47.6486 69.9157 47.8236 69.8282C47.9986 69.7407 48.1517 69.6094 48.3064 69.4782L48.6127 69.6094L49.4455 69.3469L48.8314 67.2641L46.7923 67.8781L46.9892 68.5578L47.4064 68.4485L47.4939 68.8203C47.5158 68.9297 47.5377 68.9953 47.472 69.0828C47.4064 69.1485 47.297 69.236 47.1658 69.2797C46.8814 69.3672 46.7048 69.3016 46.6392 69.0828L46.1345 67.3516C46.0689 67.1328 46.1783 66.9797 46.4627 66.9125C46.5939 66.8688 46.7033 66.8906 46.7908 66.9125C46.8783 66.9344 46.9439 67 46.9877 67.1094L47.0533 67.3281L48.6752 66.8453C48.5877 66.5391 48.4783 66.3625 48.3689 66.2531C48.2377 66.1219 48.0627 66.0344 47.8423 65.9906C47.8033 65.9906 47.7158 65.9906 47.6064 65.9906ZM31.1017 66.4516L30.9048 68.0953L30.0939 67.7672L31.1017 66.4516ZM35.8798 66.8016L35.4861 70.7032L39.2564 71.075L39.322 70.2422L37.2392 70.0235L37.3048 69.2782L38.9486 69.4532L39.0142 68.6203L37.3923 68.4453L37.4579 67.7656L39.4517 67.9844L39.5173 67.1735L35.8798 66.8016ZM42.9376 66.9547L40.8767 67.1297L39.9564 71.1188L41.5783 71.0094L41.6658 70.4828L42.6736 70.4172L42.8705 70.9L44.4705 70.7688L42.9376 66.9547ZM41.972 68.0735H41.9939L42.5642 69.6297L41.7095 69.6953L41.972 68.0735Z" fill="white"/>
<path d="M67.836 36.9064C70.0938 36.1392 73.3594 34.6485 75.2876 32.8954C75.2876 32.8954 75.2219 32.6767 75.2001 32.5235C75.3094 32.5673 75.3969 32.611 75.4844 32.6548C76.7563 31.3392 77.8735 29.872 78.4876 28.2267C77.5454 29.6079 76.4266 30.8782 74.9157 31.6673C72.8329 32.6751 70.6204 33.486 68.2094 33.3548C69.3485 32.522 70.5766 31.4923 71.3438 30.3954C71.1907 30.2423 71.1251 30.1329 71.0813 29.8907H71.7829C75.2235 26.3845 77.0219 21.9126 77.0657 16.9157C77.0657 16.9157 75.9048 22.7235 69.6579 26.6907L70.7094 24.9813L70.4907 24.6095C70.6219 24.5876 70.7532 24.6313 70.9516 24.6313C75.2469 15.7329 72.7485 10.8891 72.7266 10.7141C72.9672 17.0704 69 21.3438 65.9766 23.4048C66.3047 22.3532 66.6125 21.2344 66.7875 20.0735C66.6782 19.986 66.5907 19.9204 66.4157 19.7891L66.8329 19.6579C66.9641 17.9266 66.7454 15.9969 65.7813 14.3094C65.9563 18.1235 64.7516 21.8266 62.4938 24.7641C60.2797 27.3063 58.3735 29.8923 53.7703 29.8704C52.6969 29.8704 51.4906 29.7392 50.0875 29.4313C50.0875 29.4313 48.8375 28.861 50.175 27.4813C50.175 27.4813 48.4438 27.986 46.9531 29.7173C45.8578 30.9892 45.2656 32.3251 44.7172 34.7798C42 33.311 38.6453 32.3907 36.2781 31.6892C36.2781 31.6892 36.6719 31.6235 36.9359 31.5798C36.8047 31.5142 35.3578 31.097 34.8312 31.2079C33.9984 31.3829 32.9468 31.9095 32.639 31.9751C32.3109 32.0188 31.3672 31.9095 31.389 31.8876C30.1172 31.9313 28.6937 33.0704 28.2546 33.422C25.8437 35.3282 26.6546 37.2579 27.225 37.1923C27.05 37.3892 26.9406 37.5861 26.8531 37.8064C26.6125 37.3892 26.3703 36.9298 25.9765 36.5126C25.4281 35.9642 24.5078 35.5048 22.7328 35.3517H22.7109C22.7765 35.5267 23.1281 36.3814 22.8859 37.0829C22.7984 37.3673 21.9656 39.9329 18.0421 39.3407C12.914 38.5735 9.07804 33.4235 7.1046 29.0173C7.30148 30.2892 7.56554 31.5595 8.06867 32.722L8.28742 32.7876L8.17804 33.0282C8.7046 34.3876 9.55929 35.5704 10.414 36.7767C10.414 36.7767 4.71553 33.9048 2.91865 27.1329C3.51084 30.3329 5.22022 35.0454 7.25773 37.3032C7.25773 37.3032 7.38898 37.3689 7.87179 37.4782C7.89367 37.5876 7.76241 37.8064 7.71866 37.8954C8.31085 38.6407 8.57335 38.9251 9.31867 39.6048C6.22804 38.3767 3.79522 34.936 1.95459 32.1751C2.30459 33.7751 3.77334 36.4485 5.02335 38.5314H5.28585C5.30772 38.6626 5.2421 38.7501 5.19835 38.8376C5.63741 39.4954 5.98741 39.9548 6.68898 40.6345C5.19835 39.8673 3.20459 38.2673 3.20459 38.2673C3.62178 39.3845 7.19366 43.0892 8.44367 43.8345C8.53117 43.8782 9.01398 43.922 9.10148 43.9001L8.88273 44.2283C11.2937 45.9158 14.3406 46.7486 17.3656 47.122L17.1468 47.3189C17.739 47.7126 18.4624 47.9767 19.2078 48.0861C19.0109 48.2829 18.8578 48.4798 18.5718 48.722C19.2953 49.3361 20.3906 49.358 21.3781 49.358C21.3562 49.9064 21.2031 50.2783 21.1374 50.5642C21.7515 50.8267 22.6062 50.6736 23.1765 50.5861C23.3296 50.8923 23.3078 51.3314 23.2859 51.6376C24.0968 51.7908 24.9296 51.5283 25.675 51.2205C25.85 51.5923 25.9375 51.9658 25.9593 52.4033C26.6828 52.3595 27.3187 52.0751 27.9093 51.6798C28.1062 51.9642 28.1718 52.1845 28.2812 52.4689C28.6093 52.4251 30.9328 50.9564 31.3937 52.3376C32.8625 50.3439 34.5062 51.0658 34.4187 51.1986C34.0015 51.7908 34.4187 52.5798 34.6156 52.9298L34.6812 53.0392C35.075 53.8064 34.8781 54.8142 34.4625 55.0783C34.3968 55.122 34.0015 55.2533 33.8484 54.9252C33.6515 54.4642 33.4547 53.9611 33.2343 53.4783C33.0812 53.172 32.6859 52.7986 32.2922 52.8205C31.9203 52.8423 31.7218 52.9736 31.4812 53.2376C30.2093 51.1111 28.5 52.6455 28.3687 53.0189C27.1625 53.3908 25.9359 54.5095 25.914 55.9564C25.914 56.1095 25.9578 56.3955 26.0015 56.5267C26.8562 54.8392 27.8203 55.1236 27.8203 55.1236C26.4609 57.0736 27.4921 58.9595 27.4921 58.9595C27.7765 58.0173 28.2812 56.658 28.8515 56.4392C29.0265 56.3736 29.2687 56.3517 29.6187 56.483C29.575 56.8548 29.7281 57.3377 30.0125 57.7986C30.3843 58.3689 30.9765 58.9377 31.7656 59.2892C31.7656 59.2673 30.3843 56.7908 31.7437 56.0017C32.3359 55.5845 32.7953 56.5939 33.1031 56.8345C33.6297 57.2283 32.0734 58.9173 33.5203 60.1002C33.3672 60.6486 32.4687 61.5689 30.9781 61.9408C31.5703 62.2689 32.8187 62.1595 33.6515 61.9627C35.7562 61.4361 35.975 58.9377 35.9969 58.8502C36.0625 59.047 36.1062 59.222 36.0844 59.4861C36.5234 59.158 36.7859 58.7627 36.8953 58.347C36.9609 58.5658 36.8953 59.0049 36.8734 59.2236C37.1578 58.8298 37.4875 57.8861 37.4656 57.3392C37.575 57.4486 37.5969 57.4923 37.7281 57.7111C38.0344 57.0314 37.9687 55.9798 37.8156 54.708C37.7281 54.0283 38.1656 53.6345 38.2547 53.6345C38.3859 53.6126 39.4156 54.5986 40.8406 54.9064L40.7312 55.0377C40.4469 55.3877 40.1609 55.7611 39.9422 56.1548C39.7015 56.572 39.4812 57.0314 39.3062 57.4923C39.1312 57.9752 38.9781 58.4564 38.8453 58.9611C38.714 59.422 38.6265 59.9033 38.5609 60.3861C38.4953 60.8252 38.4515 61.2845 38.4297 61.7236C39.0656 61.6142 39.6797 61.3736 40.1391 61.1095C40.0734 61.9424 40.2047 62.622 40.4891 63.4111C41.2562 63.1049 41.9797 62.447 42.4828 61.8111C42.6578 62.9064 43.0094 63.6955 43.6437 64.5064C43.6437 64.5064 44.6516 64.0236 45.3969 62.4236C45.6594 64.2424 47.1281 65.9517 47.1281 65.9517C48.1141 64.3517 48.4219 63.4314 48.575 62.4455C49.1891 63.2564 49.9344 63.8486 50.9641 64.3299C51.3813 63.4533 51.2266 62.2689 51.1609 61.3267C52.0156 62.0502 53.7031 62.5549 53.7031 62.5549C53.7469 61.547 53.55 60.3189 53.3969 59.3111C54.011 59.5736 55.0406 59.7048 55.6985 59.772C55.6766 59.2673 55.0625 57.7111 54.4485 56.7908C54.4703 56.8345 55.5656 56.8345 56.0266 56.7252C54.6891 54.4673 53.2438 53.4595 51.5766 52.5611C51.9938 52.1892 52.6719 51.9251 52.65 53.0876C54.6891 51.8158 53.5047 50.6986 51.8172 50.3267C50.7438 49.2751 49.3625 49.9548 48.4641 50.5017C48.2453 50.458 48.7266 50.2173 48.5516 49.9751C48.5516 49.9751 49.3625 49.558 49.3406 48.6595C49.6469 48.4845 50.5234 49.558 50.5234 49.558C50.8953 48.1548 50.3484 46.7079 48.9672 45.722C49.5594 45.5251 50.8516 45.8533 51.7734 46.3361C51.7953 46.0298 51.8828 45.6345 52.1453 45.4376C52.8469 45.7658 53.5922 46.0736 54.4031 46.0954C54.4031 46.0954 53.9422 45.197 54.25 44.7798C54.9735 45.0861 55.8719 45.1517 56.661 45.1079C56.661 45.1079 56.1563 43.947 56.3547 43.5517C56.6391 43.7267 58.1078 43.9454 58.4813 43.8361C58.35 43.2876 58.2188 42.697 58.2625 42.1048C58.2625 42.1048 59.9719 42.2579 60.586 41.8642C60.125 41.4923 59.8188 41.0532 59.7969 40.5048C60.5203 40.4392 61.2438 40.3079 61.836 40.0001L61.5953 39.5173C62.4063 39.6048 63.6344 39.9345 65.825 39.8892C65.8469 39.8454 65.8907 39.7361 66.1313 39.4501L66.3938 39.8439C72.6188 38.6376 74.9204 36.2939 74.9204 36.2939C72.5485 37.2782 70.2032 37.5626 67.836 36.9064ZM27.8359 34.736C27.9671 34.4517 28.1421 34.1876 28.3406 34.0126C28.3187 34.0782 28.2968 34.2751 28.3187 34.3626V34.4064C28.4062 34.3189 29.3046 33.0251 31.2343 32.4563H31.3437C32.0015 32.6313 32.6156 32.5876 33.1406 32.4563C33.864 32.2813 34.6312 31.7548 34.8937 31.886C34.9594 31.9079 35.0469 31.9298 35.1562 31.9735C35.9453 32.2579 37.8734 32.9814 39.5172 33.8798C40.2406 34.2517 41.0078 34.7345 41.5562 35.2173L41.6656 35.3048C41.7969 35.4142 41.9281 35.5454 42.0375 35.6767L42.0812 35.7204L42.1906 35.8735L42.1469 35.8517C41.8187 35.6985 41.4891 35.6329 41.3578 35.611C41.1609 35.5673 40.9641 35.5673 40.7656 35.611H40.7219C40.6125 35.6329 40.525 35.6767 40.4594 35.7204C41.1391 35.8079 42.3875 36.1814 42.8703 36.8376C42.2781 36.4657 41.6875 36.2454 41.1609 36.1142C40.8328 36.0485 40.0437 35.9829 39.2984 36.1798C39.6922 36.2454 40.4156 36.4642 40.5922 37.0126C40.5922 37.0126 38.9484 37.0126 38.1156 37.9985H38.0937C38.1156 37.9548 38.1156 37.8017 38.1812 37.6485C37.1297 38.3501 36.3187 39.9282 37.0859 41.1111C37.1953 41.2861 37.3484 41.4173 37.5031 41.5501C37.6344 41.6595 37.9203 41.8564 37.9203 41.8564C37.9203 41.8564 37.7453 41.9439 37.614 41.9657C36.9562 42.097 36.0578 41.7689 36.0578 41.7689C36.014 42.0532 36.0578 42.7111 36.4515 42.9751C35.4656 43.0845 34.8297 42.6907 34.764 42.6907C34.6547 42.8657 34.325 43.8079 34.8734 44.247C33.8 44.0064 33.6234 43.5673 33.6015 43.6111C33.2297 43.9829 33.0093 44.3345 32.8781 44.6845V44.7064L32.8125 44.8814L32.7906 44.9251L32.7468 45.0783V45.122L32.725 45.2751V45.297C32.6812 45.7798 32.7906 46.1517 32.9 46.3267L32.8781 46.3048C31.125 45.472 31.8265 43.6751 33.9515 42.3814C34.8937 41.8111 35.7703 41.0439 35.814 40.1892C35.9015 38.9392 38.3125 37.3173 37.5015 35.9376C37.4578 35.9157 37.3265 35.9376 37.239 35.9595L37.3265 35.9376C37.1953 35.9595 37.0859 36.0032 36.9984 36.047C36.6703 36.2439 36.5375 36.6173 35.7265 36.5954C35.5297 36.5954 35.2656 36.5735 34.9812 36.5079H34.9594L34.7843 36.4642L34.6312 36.4423C34.4562 36.4204 34.2593 36.4423 34.0609 36.486C33.7547 36.5517 33.4468 36.6392 33.1625 36.7048C33.0312 36.7267 32.9218 36.7704 32.8125 36.7704C32.6375 36.7923 32.4625 36.7923 32.3734 36.7267C32.614 36.661 32.8562 36.5954 33.0531 36.4642L33.0968 36.4423L33.1187 36.4204C33.1843 36.3767 33.25 36.311 33.2937 36.2673L33.3375 36.2235C33.4031 36.136 33.4468 36.0485 33.4906 35.961L33.5125 35.8735V35.8517L33.5343 35.786C33.6 35.5235 33.5781 35.2157 33.6218 34.9314C33.6875 34.4485 34.1047 34.2298 34.5203 34.1423C34.8265 34.0767 35.1344 34.0767 35.2656 34.0548C34.7828 33.836 33.9937 33.9892 33.9937 33.9892C34.6078 33.4845 35.9 33.4407 37.4781 34.361C37.2812 34.0548 36.2281 33.111 34.3875 33.2657C34.5844 33.1563 34.7812 33.0689 34.9578 33.0251C34.9359 33.0251 34.7172 33.0032 34.4093 33.0907C33.9265 33.2001 33.2703 33.5298 33.0718 34.3407C32.8968 34.0564 32.9625 33.7048 33.1375 33.4642H33.1156C32.6109 33.6829 32.0422 34.3189 32.1515 35.6564C32.1734 35.8532 31.9984 36.336 31.6687 36.4235L31.5375 36.4454H31.5156C31.1218 36.4454 30.7265 36.3142 30.464 36.2048C30.3984 36.1829 30.3547 36.161 30.3109 36.1392H30.289L30.2672 36.1173C30.2015 36.0517 30.1578 35.9642 30.1359 35.8548C30.0703 35.6142 30.1359 34.8907 30.5297 34.561C29.6312 35.1095 29.6531 35.8985 29.6531 35.986V36.0079L29.5437 35.9423L29.5218 35.9204L29.4562 35.8767L29.4343 35.8548C29.3031 35.7235 29.2156 35.5704 29.2156 35.3939C29.2156 35.1532 29.4125 34.3204 30.1578 33.7064L30.1797 33.6845L30.2015 33.6626C29.0625 34.2548 28.6453 35.5907 28.8203 36.0079L28.7765 35.986L28.7328 35.9642C28.339 35.7892 28.6015 35.022 28.6015 34.9564V34.9345C28.3609 35.2626 27.9875 36.0517 28.4265 36.2064L28.4703 36.2501C28.4703 36.2501 28.2734 36.3814 28.0984 36.7548C27.814 36.6235 27.6812 36.3157 27.6812 36.3157C27.4843 35.9407 27.5718 35.2845 27.8359 34.736ZM31.6937 43.7876C30.9484 43.9189 30.5109 44.4236 30.4875 44.4017C30.3781 43.897 30.6843 43.4814 30.8812 43.3064C31.5172 43.3282 32.2625 43.2189 32.2625 43.2189C32.0656 43.3501 31.9125 43.5033 31.6937 43.7876ZM32.2406 36.4892C32.3062 36.4454 32.3281 36.4235 32.3718 36.3798L32.4156 36.336H32.525C32.7218 36.2923 32.875 36.1392 32.8531 35.9189L32.7875 35.897L32.8093 35.8095L32.7656 35.7439C32.7875 35.6345 32.7875 35.5251 32.8093 35.4376L32.7218 35.372L32.6125 35.3282C32.6343 35.1751 32.6562 35.0001 32.7656 34.8892L32.875 34.8017L32.9187 34.7798C32.8531 34.8892 32.9406 34.9548 32.9625 34.9548L33.0281 35.0423L33.05 35.0642C33.2906 35.3485 33.3781 35.9626 33.0937 36.336C32.8968 36.5985 32.3047 36.797 31.9109 36.686L31.8015 36.6423L31.9109 36.5767L32.0422 36.4892L32.1078 36.4454L32.2406 36.4892ZM27.8359 38.6157C28.0109 38.4845 28.2968 38.3314 28.7343 38.3751L28.8437 38.3532C28.8437 38.3314 28.7781 38.2439 28.45 38.1782C28.1218 38.1564 27.8359 38.3095 27.8359 38.3095C27.6609 37.9157 28.164 36.9939 28.625 36.5564L28.7125 36.4907L28.7343 36.4689C28.8 36.4032 28.8656 36.3814 28.9312 36.3595L29.0406 36.3376H29.0625H29.1718H29.1937L29.2812 36.3595H29.3031L29.3687 36.3814L29.4343 36.4032C29.5437 36.447 29.6312 36.4907 29.6968 36.4907C30.4422 36.4032 30.5297 36.9298 31.5593 36.8626C31.0984 37.1251 30.7047 37.8485 30.7047 38.3751C31.0109 37.7829 31.45 37.2579 32.0422 37.0595C31.8015 37.2126 31.5375 37.586 31.4937 37.9798C32.1297 37.0814 34.0359 36.972 34.3875 36.972C35.1984 36.9501 34.475 37.0376 35.1984 37.1907C35.5265 37.2564 36.8422 37.2782 37.1922 36.4454C37.1922 36.4454 37.3453 37.2564 36.8203 37.8923C36.6453 38.0892 36.1625 38.6595 35.9219 39.0314C35.6594 39.4486 35.4609 39.9079 35.2422 40.3689C35.0453 40.8079 34.8703 41.2892 34.4968 41.597C32.7218 43.0439 32.1515 42.9564 31.1 42.9126C30.9687 42.9126 31.6922 42.4954 31.9765 41.2032C32.1297 40.4798 31.3843 39.8657 32.525 38.8798C32.5687 39.1423 32.5468 39.4939 32.525 39.7564C32.5031 40.0407 32.3718 41.5314 31.539 42.7157C32.3718 42.5845 32.8765 42.4532 33.3359 41.9923C33.8406 41.4876 33.9281 40.7861 34.2781 40.1954C34.5187 39.8236 35.0453 39.6032 35.3734 39.3189C35.5922 39.122 35.7906 38.9017 35.9437 38.6392C36.0312 38.4861 36.2062 38.047 36.2062 37.697C35.3297 37.1485 33.9703 37.3907 33.1375 37.9157C32.8968 38.0689 32.7656 38.2001 32.589 38.5298C32.0625 38.7048 31.9531 39.1001 31.9312 39.1001C31.7125 39.1001 31.4922 39.122 31.2953 39.1876C31.164 39.2314 31.0328 39.2751 30.9015 39.3626C30.7047 39.472 30.5297 39.6251 30.375 39.8017C30.0468 40.1736 29.8265 40.6564 29.8265 41.1829C29.8265 41.4892 29.8484 41.8407 29.9359 42.1251C30.0234 42.4095 30.1328 42.7829 30.3531 43.0017C30.2437 43.0236 30.025 43.0017 30.025 43.0017C29.3672 42.9798 28.4687 42.6517 28.1187 42.2782C27.0468 41.0486 27.3531 39.0095 27.8359 38.6157ZM35.2875 37.8267C35.4187 37.8267 35.6156 37.8923 35.6156 37.8923C36.4484 38.286 33.7531 38.9001 33.0515 41.2454C32.525 39.2954 33.4015 38.5501 33.6 38.3298C33.6656 38.2642 33.9937 37.9579 34.6953 37.847C33.6437 38.3735 33.314 39.5782 33.314 39.5782C33.9953 38.5939 34.8062 37.9142 35.2875 37.8267ZM9.33742 33.7939C12.253 37.7392 14.3999 38.9876 18.1484 39.9751C16.0656 39.7345 15.2109 39.5579 13.3046 38.6376C12.9531 38.4845 10.5421 36.686 9.33742 33.7939ZM31.1672 53.7392C31.1672 53.7611 30.6187 54.133 30.3125 54.5939C30.1593 54.4627 29.8953 54.397 29.8734 54.3751C31.189 53.5861 29.0625 52.8408 29.0625 52.8408C30.2687 52.2705 30.5531 53.1689 31.1672 53.7392ZM26.1265 55.8205V55.7986C26.1265 55.7111 26.1484 55.6017 26.1484 55.5142C26.1703 55.3392 26.214 55.1642 26.2796 55.0095C26.3671 54.7689 26.5203 54.5267 26.6968 54.3298C26.9375 54.0673 27.2671 53.7595 27.5734 53.5626C27.7484 53.4533 28.2312 53.1689 28.7125 53.0798C28.0328 53.3205 27.7046 53.7376 27.6828 53.7376C28.6687 53.1673 29.0859 53.233 29.2828 53.2548C29.7437 53.4517 30.4437 53.9127 29.6547 54.2627H29.6328C28.4265 54.2408 28.164 54.7455 28.1421 54.7455C27.0468 54.572 26.1265 55.8205 26.1265 55.8205ZM28.8437 56.1502C27.7484 56.2595 27.4625 58.2986 27.4625 58.2986C27.4625 58.233 27.4625 58.1017 27.4406 57.9267C27.3968 57.247 27.3093 55.9095 28.4703 54.9017L28.514 54.858L28.5796 54.8142C29.1281 55.0095 29.6547 55.8205 28.8437 56.1502ZM29.3703 55.9736C29.7203 55.6236 29.4359 54.7455 28.9312 54.6361C28.8875 54.6361 29.4797 54.3736 30.1593 54.833C29.8968 55.2048 29.7656 55.5783 29.6547 56.1486C29.4797 55.9736 29.3703 55.9736 29.3703 55.9736ZM32.439 55.2736L32.3953 55.383C32.3953 55.383 31.7156 55.4923 31.2562 55.8658L31.1687 55.9314C30.5984 56.4798 30.6422 57.9033 31.2343 58.7814L31.2125 58.7595V58.7814C31.0812 58.672 30.9937 58.5627 30.8843 58.4533L30.8625 58.4314C28.9562 56.3923 30.4234 54.3767 31.6515 53.8064H31.7172L31.7828 53.8283C31.0812 54.2673 30.9718 54.5517 31.0156 54.508C31.3437 54.1798 31.6297 54.047 31.8265 54.0033C31.9797 53.9595 32.0672 53.9814 32.0672 53.9814L32.1547 54.0689L32.264 54.1783L32.3515 54.3095C32.4828 54.5064 32.5484 54.7486 32.4828 55.0767L32.439 55.2736ZM33.2937 61.783C32.9437 61.8705 32.5047 61.9142 31.9781 61.9142H31.9562C32.0875 61.8924 32.2406 61.8267 32.3734 61.7611C32.7234 61.5861 33.0093 61.3674 33.25 61.1252L33.2718 61.1033C33.4906 60.8627 33.689 60.5986 33.8203 60.3361L33.8422 60.3142C33.9297 60.1173 33.9297 60.1173 33.9297 60.1173C34.0828 60.0955 34.2797 59.9423 34.4781 59.8986H34.5H34.5219H34.5656C34.7187 59.8986 34.8719 59.9861 34.9828 60.3377C34.6734 60.8408 34.3672 61.5189 33.2937 61.783ZM35.5953 57.0267C35.3765 56.7642 34.8062 56.5002 34.4344 56.4345C34.6531 56.5877 35.3765 56.9173 35.5515 57.7283C35.7703 58.6923 35.5297 59.4595 35.2453 59.9423C35.1359 59.4377 34.8062 59.1752 33.9515 59.833C32.7906 59.0658 33.9953 58.058 34.2578 57.7064C34.1265 57.7502 34.1047 57.6845 33.8406 57.772C33.9281 57.2892 33.9718 57.0048 33.5343 56.7423C33.425 55.9314 32.7672 55.4486 32.7672 55.4705C33.2937 53.3658 31.5609 53.5861 31.5609 53.5861C31.5609 53.5861 31.8453 53.0814 32.4593 53.3017C33.2047 53.608 33.6203 56.2611 34.7172 55.8658C34.9797 55.8439 34.739 56.283 35.55 56.0189C35.7906 56.172 35.9 56.3689 35.9672 56.6986C35.6172 56.7189 35.5719 56.8736 35.5953 57.0267ZM51.7703 51.0642L51.8141 50.9986C51.8578 50.8892 51.8141 50.7361 51.7922 50.6923C52.6906 50.9111 54.1156 51.3501 52.9313 52.7095V52.6876C52.8875 51.4376 51.7922 51.7673 51.4188 52.183C51.4188 52.183 50.5641 51.6783 51.6375 51.1533L51.7703 51.0642ZM47.825 50.408C48.0437 50.408 48.1094 50.3205 48.2422 50.2548C48.2641 50.4736 47.8484 50.8033 47.9141 51.1314C48.9656 50.583 50.2594 49.9923 51.2891 50.4955C52.0344 51.1533 49.9734 51.3064 51.0922 52.2486C50.6094 52.2048 49.9313 51.9642 49.5797 51.5908C49.5141 51.7001 49.5578 51.8095 49.6234 51.8751C49.1406 51.9626 48.5281 51.3267 48.1766 51.6783C47.4312 52.4017 48.7469 53.5626 48.7469 53.5626C48.6594 53.5626 48.3078 53.6939 48.2641 53.7376C48.7469 53.6064 49.7547 53.7814 49.9953 54.6361C50.2141 55.2939 49.7328 55.9517 48.9219 55.7314C47.5188 55.0955 47.1687 52.6189 47.2781 52.3564C46.9719 52.3783 46.6859 52.7736 46.5547 53.058C46.5328 52.9267 46.3359 52.8173 46.3359 52.8173C46.5328 53.4095 46.4891 54.5486 45.3281 54.658C45.9641 53.9127 45.8766 53.1017 45.5031 52.9048C45.1312 52.708 44.2969 52.9705 43.9469 53.233C44.4516 52.2908 45.4375 51.9611 46.4672 51.808C46.1828 51.6548 45.6344 51.6767 45.3719 51.6548C45.0656 51.4798 45.2625 50.6033 45.8328 50.6689C46.0734 50.8876 46.3812 51.1517 46.9938 51.283C47.0156 51.2392 47.0156 51.1517 47.0156 51.0642C46.9937 50.9986 46.9719 50.933 46.9719 50.9111C46.8844 50.5611 46.7969 50.2314 46.7094 49.8814C46.5344 49.158 46.1172 48.4564 46.0953 47.7111C46.0953 47.3392 46.1391 46.9876 46.2703 46.6376C46.5109 45.9361 47.0375 45.8486 47.1688 45.9361C47.1688 45.9361 46.2703 47.3392 47.1031 49.1142C47.1906 48.8736 47.3656 48.6533 47.5422 48.4564C47.9813 47.7986 48.7484 47.4048 48.8797 48.3033C48.8766 49.1361 48.4172 49.8814 47.825 50.408ZM50.85 57.8158C50.3891 57.6189 49.3594 56.8298 49.0094 56.0189L49.2063 56.0845H49.2719C49.6891 56.1283 49.9078 55.7783 49.9078 55.8002C49.9281 56.5658 50.0828 56.9173 50.85 57.8158ZM44.8656 56.1939L44.7562 56.1502C43.5734 55.6892 43.55 55.0111 43.6609 54.3751C43.7047 54.1564 43.8141 53.6517 43.8141 53.6517C44.2969 53.3455 44.9531 53.0814 45.2609 53.1251C45.3703 53.147 45.4359 53.2126 45.4797 53.3001C45.6328 53.6939 45.2172 54.572 45.1734 54.5283C44.9328 54.2876 44.3187 54.1345 44.1875 54.8127C44.2297 55.2517 44.2078 55.558 44.8656 56.1939ZM50.3672 48.9392V48.9611C49.7969 48.1283 49.1172 47.2736 48.3063 47.5142C47.7578 47.6673 47.3859 47.997 47.1453 48.5876C46.9922 47.4486 47.1016 46.4173 47.4734 46.0892C48.1531 45.5408 50.1047 46.9439 50.3672 48.9392ZM70.9922 37.6298C70.861 37.6954 65.4688 40.1282 57.2719 36.797C57.2719 36.797 58.0172 37.9579 59.9453 38.3314L60.3172 39.1642C60.011 39.3173 59.5938 39.3392 59.0672 39.2954C57.9281 39.1642 56.4375 38.0017 56.4375 38.0017C56.8766 38.8126 57.7313 39.3829 58.5641 39.6892C58.6516 40.1282 58.7391 40.5657 59.0469 40.9392C58.2578 41.0048 57.9297 41.0048 57.3813 40.7861C56.636 40.2595 55.9344 39.6032 55.3875 38.9017C55.3875 38.9017 55.65 40.2611 57.075 41.2251L57.1406 42.6939C56.5703 42.6064 56.0235 42.5189 55.5406 42.3001C54.8828 41.5767 54.225 40.7439 54.0938 39.8017C53.7875 40.6345 54.6641 42.1907 55.1672 42.7173C54.9922 43.0892 54.9266 43.572 55.1016 44.0111C54.1813 43.9017 53.9625 43.8142 53.6547 43.5939C52.9969 42.7392 52.7344 41.3142 52.8 40.3939C52.4063 41.5548 52.6688 43.0236 53.261 44.0329C53.1516 44.4048 53.1735 44.5158 53.2391 44.9314C52.7563 44.8658 51.9891 44.6908 51.7703 44.4923C51.7703 44.4923 50.6531 43.9876 51.2656 40.9861C50.3891 42.3017 50.4109 44.1204 50.7391 45.1501C49.775 44.5579 48.8109 44.4267 47.8891 44.997C47.7359 44.9751 47.4953 44.997 47.2312 45.0408C46.6828 45.1501 44.2281 45.9392 46.4203 50.6517C46.2891 50.6298 46.0484 50.4548 45.9375 50.2798C44.8203 50.5642 44.7312 51.5298 44.9734 51.8142C43.8562 52.297 43.6578 52.7126 43.3734 53.7642C43.2641 54.2252 42.475 56.6798 45.7625 56.6361C45.7625 56.6361 43.9875 55.1892 44.9734 54.7298C45.6312 55.3877 46.3547 54.9267 46.6391 54.3126C46.7922 53.9845 46.7266 53.6111 46.9891 53.3486C47.1203 54.6205 47.5594 55.3205 48.6109 56.1095C48.7203 56.5486 49.2469 57.1392 49.9484 57.622L50.1234 57.7314C50.5625 57.9939 51.0875 58.2142 51.6141 58.3236C51.6141 58.3236 49.9703 56.6142 50.5625 54.8611C50.8469 53.9626 49.9266 53.4798 49.2469 53.3486C48.4359 52.6251 48.3484 52.4283 48.5016 52.2314C48.8297 51.947 49.4438 52.1658 49.9484 52.297C50.2547 52.3845 50.5188 52.4939 50.7813 52.6251C52.6438 53.3267 54.2656 55.0361 54.8797 56.197C54.2219 56.1533 53.5203 55.9564 52.8188 55.5173C53.6953 56.3502 54.2875 57.4673 54.375 58.4111C53.0156 58.1486 52.5125 57.5783 52.1172 57.2048C52.5563 58.147 52.95 60.1205 52.8406 61.1064C51.175 60.558 50.6266 59.5939 49.9906 58.8923C50.5172 60.1423 50.8672 61.6314 50.4953 62.772C48.325 62.0049 47.9531 59.8345 47.9531 59.8345C48.1719 62.3111 47.1641 64.1299 47.1641 64.1299C46.1344 62.8142 45.8047 61.258 45.5203 60.0533C45.4109 60.9955 44.6219 62.2017 43.9422 62.7924C43.9422 62.7924 43.1312 61.6533 43.0656 59.5486C42.7375 60.447 41.4 61.6533 41.1156 61.697C40.9187 61.0174 40.9844 59.483 41.2469 58.6502C40.7641 58.9783 40.2828 59.3298 39.7562 59.5048C39.7344 58.2548 40.1281 55.7783 41.7953 54.7048C40.0422 54.4205 38.4203 53.0392 38.3765 53.0392C36.7547 53.5876 37.5219 54.7486 37.5656 56.2611C37.325 55.5377 37.0609 55.2533 36.8203 55.033C37.039 55.647 37.2812 56.4142 37.1265 57.6189C36.9515 56.4361 36.6219 56.2158 36.6219 56.2158C36.7969 57.0486 36.775 57.7939 36.4031 58.4736C36.5344 56.9392 36.2937 55.8877 35.2203 55.5142C35.3078 55.5361 36.0969 54.7689 35.5703 52.6861C35.1765 51.1736 36.7312 50.3408 37.4547 50.1439C37.6515 50.0783 37.8047 50.0783 37.8047 50.122C37.3219 48.7408 37.125 48.7845 33.6843 47.5142C32.2593 46.9876 30.4843 46.4189 29.6078 45.6298L29.4984 45.5204C29.6734 45.7173 29.9156 45.9376 30.2437 46.1783C31.4937 47.0986 35.3937 48.4142 35.0656 49.2689C35.0656 49.2689 36.2265 49.7517 34.3422 49.597H34.2765C34.0578 49.5751 33.8375 49.5751 33.6843 49.5751L33.3781 49.597C32.9609 49.6408 32.6547 49.772 32.5672 49.8158C32.4797 49.8595 32.414 49.8814 32.3265 49.9251C31.8437 50.2314 31.4937 50.7142 31.4937 51.3064C30.6828 50.4736 28.9515 51.4595 28.9515 51.4595L28.9296 51.3501V51.3283V51.3064C28.8859 51.197 28.7984 51.0658 28.689 50.9564L28.6015 50.8689C28.8859 49.9705 29.0406 48.897 28.7546 47.9314C28.7328 48.0189 28.689 50.1892 27.9656 50.8033C27.8562 50.8908 27.1328 51.3517 26.7593 51.3298C26.6937 50.9798 26.6718 50.6939 26.5406 50.3439C27.4609 48.9626 27.1984 47.8236 27.1984 47.8236C27.0453 48.6564 26.3 49.7736 26.1031 49.9283C25.6421 50.3001 24.3718 50.6736 24.3718 50.6736L24.0875 49.7751C24.1093 49.7533 25.6218 48.6361 25.7968 47.4954C25.7093 47.6048 24.7015 49.1173 23.0359 49.4236C22.8609 49.4455 22.6859 49.4673 22.5093 49.4673C22.5749 49.1611 22.6406 48.5251 22.6624 48.5251C24.0437 47.9986 24.525 47.2314 24.5687 47.1658C23.4078 47.8454 21.8515 48.4376 20.5359 48.3048L21.3031 47.2533C21.9828 47.122 22.5093 46.9251 23.1218 46.5079C23.1218 46.5079 20.4046 47.2095 19.0234 46.8798L19.7468 46.222C21.3906 46.047 21.6531 45.6079 21.6531 45.6079C18.3656 46.2876 14.2234 45.4329 11.2859 44.0298C9.75148 43.3064 9.46711 42.9345 9.31398 42.8017C8.83117 42.4954 8.37179 42.1439 7.93273 41.772C9.57648 42.6267 11.439 43.0657 13.2374 43.5907H13.2593C12.5796 43.2626 9.84054 42.4736 6.37647 38.8345C5.76241 38.2642 5.47804 37.8704 5.47804 37.8704C8.19523 40.347 11.8343 41.1579 14.2015 41.3986L14.0484 41.3767C11.878 40.1704 9.73117 38.5939 8.02023 36.6642L7.99835 36.6204C7.18741 35.8095 6.59523 34.8892 6.0921 33.9251C10.5421 38.4845 15.3859 40.7861 20.4046 40.1501C20.4921 40.1282 20.6015 40.1282 20.689 40.1064L20.7765 40.0845L20.9078 40.0626C23.1437 39.5361 24.3484 37.5642 24.5015 37.3454L24.5234 37.3235C25.839 37.061 24.9406 39.3626 26.6937 38.9017C26.3656 40.0407 26.7593 41.7079 27.8765 42.5407C28.2484 42.8251 29.1703 43.2204 30.3531 43.1986C30.4187 43.1986 30.4843 43.1986 30.55 43.1986C30.3312 43.3954 29.8484 44.2939 30.5937 45.0173C30.725 44.7329 31.0109 44.4908 31.2078 44.3595C31.339 44.272 31.4484 44.2283 31.4484 44.2283C31.4265 44.272 30.9437 45.4111 31.9312 46.1126C32.2812 46.3533 32.8734 46.6392 33.7062 46.9017C33.7062 46.9017 32.8515 45.1048 33.7062 44.2501C33.925 44.7111 35.5031 44.8204 36.1172 44.7986C36.1828 44.7986 34.9781 43.9657 35.2844 43.1986C36.4672 43.6376 37.6078 43.3517 37.564 43.3298C37.1469 42.9579 36.95 42.6064 36.9937 42.4095C36.9937 42.4532 38.1547 42.7595 39.2078 41.8829C39.2078 41.8829 38.989 41.7736 38.725 41.5548L38.6812 41.5111C37.914 40.897 36.7969 39.5611 38.8125 38.1579C39.6453 37.5657 40.6094 37.5001 41.6625 37.5657C41.7062 37.172 41.4 36.6892 41.3781 36.6454C42.4953 36.7329 43.35 37.7189 43.35 37.7189C43.9641 37.1923 43.35 36.0751 43.3062 35.9657L43.35 35.9876C45.2344 36.6454 45.8703 38.7267 45.4328 39.6267C45.4328 39.6267 46.7703 38.5095 45.4547 35.9439C46.375 31.2095 49.0719 30.2017 49.0719 30.2017C61.2797 32.6126 71.8672 21.5001 73.0501 15.4954C72.7001 21.2594 68.4907 25.4907 65.5985 27.747C64.0422 28.9751 62.8813 29.5876 62.8813 29.5876C66.7172 28.6673 72.5251 27.286 76.2079 20.4485C75.7251 21.9391 75.2657 22.7938 74.6297 23.8016C73.2485 26.9141 67.3094 32.7876 61.4578 34.6079C64.286 34.236 66.4547 33.9063 67.661 33.622C68.7125 33.8407 72.461 33.4907 74.1704 32.6798C69.086 37.3923 60.1641 35.4626 60.1641 35.4626H60.186C62.6188 36.3173 64.2844 36.7126 66.3454 36.8657C67.3313 37.3267 69.1516 37.4798 71.1454 37.5454L70.9922 37.6298Z" fill="#1E3249"/>
<path d="M74.894 34.1439C78.8174 31.0095 79.3659 26.3188 79.3659 26.3188C78.4455 27.8751 76.4065 31.3813 70.708 32.2579C72.1112 31.1626 73.4252 29.5407 74.4565 28.0938C75.3987 26.7563 76.1221 25.2876 76.583 23.711C77.2846 21.2782 77.5034 18.6048 77.4377 16.0829C77.4159 15.4032 77.3721 14.6797 77.1971 14.0219C76.6705 17.3532 76.058 19.3048 72.6815 23.5345C74.369 19.5891 75.3768 12.5094 72.0455 8.54224C72.0455 8.54224 73.3393 15.0735 67.5955 21.036C68.0346 18.8438 67.2236 14.7454 64.8346 11.8532C64.8346 11.8532 66.5658 17.7704 61.9846 24.347C61.6783 24.6751 61.3924 25.0485 61.0861 25.3985C60.8018 25.0704 60.4939 24.7626 60.1877 24.4563C54.7955 19.0641 47.6064 16.0844 39.9798 16.0844C32.3532 16.0844 25.1626 19.0657 19.772 24.4563C16.5282 27.7001 14.161 31.6017 12.7798 35.8532C9.35945 32.7407 6.9485 28.0298 6.15944 25.8813C6.15944 25.8813 6.00631 31.2954 8.30788 34.6485C6.02819 32.5876 4.38443 30.0235 3.26724 26.911L2.1938 23.9079C1.66724 27.3704 2.98287 32.5001 4.53912 35.1954C4.53912 35.1954 2.87349 33.4423 1.07661 30.111C1.05474 30.0673 1.07661 34.2314 4.25475 38.6814C3.20318 37.9798 2.76412 37.5642 1.69068 36.4017C2.37037 38.4189 3.9485 40.3032 5.26256 41.7939C7.3235 44.1392 10.0626 45.8267 11.4876 46.397C11.9048 53.3892 14.797 59.9205 19.7938 64.8955C25.186 70.2877 32.3751 73.2674 40.0017 73.2674C47.6283 73.2674 54.7971 70.2861 60.1877 64.8955C65.5783 59.5048 68.5596 52.3142 68.5596 44.7095C68.5596 43.197 68.4502 41.7282 68.2096 40.2595C70.0065 39.8876 71.3658 39.2954 72.0674 38.922C73.558 38.1767 75.8815 36.5985 76.5174 35.086C76.5174 35.086 74.808 36.247 70.6002 36.686C72.8987 35.8532 74.894 34.1439 74.894 34.1439ZM20.2735 24.9173C25.5564 19.6344 32.547 16.7423 40.022 16.7423C47.4736 16.7423 54.4877 19.6579 59.7705 24.9173C60.0767 25.2454 60.4064 25.5532 60.6908 25.8813C59.2439 27.4813 57.4908 28.972 54.1814 29.1907C50.3017 25.6407 45.3048 23.6673 40.022 23.6673C34.4111 23.6673 29.1501 25.8595 25.1829 29.8048C22.6626 32.3251 20.8438 35.4157 19.8782 38.747C19.1985 38.8345 18.497 38.7689 17.9063 38.6595C16.2626 38.3095 14.7501 37.4314 13.3688 36.2923C14.7063 32.0626 17.0298 28.161 20.2735 24.9173ZM53.283 29.2126C52.9549 29.2126 52.6252 29.1907 52.2752 29.1688C51.7267 28.7079 50.9814 28.1829 50.4345 27.897C50.522 27.722 50.6533 27.5688 50.8283 27.3923C51.683 27.9407 52.5158 28.5548 53.283 29.2126ZM40.022 24.9173C34.7392 24.9173 29.7861 26.9782 26.061 30.7032C24.811 31.9532 23.7376 33.3548 22.8829 34.8673C22.4892 34.8673 22.2251 34.911 22.1595 34.911C23.0798 33.2235 24.2423 31.6673 25.6439 30.2642C29.4798 26.4282 34.6079 24.3032 40.0439 24.3032C43.7048 24.3032 47.233 25.2673 50.3017 27.0642C49.8627 27.1079 49.3814 27.261 49.4033 27.261C46.5314 25.7282 43.3533 24.9173 40.022 24.9173ZM21.172 38.4189C20.997 38.5064 20.7782 38.5939 20.5579 38.6376C20.9517 37.3439 21.4782 36.1173 22.1142 34.9329C22.3767 35.4595 22.3767 35.7439 22.3767 35.7439C21.9595 36.5767 21.5876 37.4314 21.3032 38.3079C21.3048 38.3298 21.3267 38.3298 21.172 38.4189ZM40.022 72.5658C32.5704 72.5658 25.5564 69.6721 20.2735 64.3908C15.4735 59.5908 12.6454 53.3439 12.1641 46.6158C14.6626 47.5798 16.5032 47.6017 16.5032 47.6236C16.5032 47.6236 16.9642 48.1939 17.9063 48.2814L17.3798 48.7423C17.3798 48.7423 18.0595 49.4658 19.6595 49.7501C20.5579 53.4111 22.4423 56.7642 25.1829 59.4814C29.1501 63.4486 34.4111 65.6189 40.022 65.6189C42.0158 65.6189 43.9673 65.3345 45.8298 64.808C46.4002 65.8377 47.1455 66.5611 47.1455 66.5611C47.1455 66.5611 48.3283 65.2017 48.6798 63.7549C48.7892 63.6892 48.9205 63.6455 49.0298 63.6017C49.7533 64.3252 51.1783 64.9392 51.1783 64.9392C51.1783 64.9392 51.8799 63.208 51.6611 62.1564C52.5814 62.858 54.2033 63.1424 54.2033 63.1424C54.2033 63.1424 54.2908 61.2142 54.072 60.183L54.247 60.0298C55.1892 60.3361 56.483 60.3361 56.483 60.3361C56.483 60.3361 56.3955 59.3064 55.9346 58.2752C56.0658 58.122 56.3955 57.7267 56.8986 57.047C59.5283 53.4751 60.9752 49.1783 60.9752 44.6642C60.9752 43.8751 60.9314 43.0861 60.8439 42.297C61.3267 42.1657 61.6549 41.9907 61.6549 41.9907C61.6549 41.9907 60.8002 41.3329 60.8002 40.9173C61.4799 40.8298 62.1596 40.6329 62.6189 40.3907C64.4596 40.6751 66.1471 40.5876 67.594 40.347C67.8127 41.772 67.9221 43.2189 67.9221 44.6642C67.9236 60.0517 55.408 72.5658 40.022 72.5658ZM26.061 58.6267C29.7876 62.3533 34.7408 64.4127 40.022 64.4127C40.9861 64.4127 41.9283 64.347 42.8501 64.2158C42.8501 64.2158 42.8501 64.2595 43.2001 64.7861C42.1486 64.9392 41.0955 65.0267 40.022 65.0267C34.5861 65.0267 29.4798 62.9002 25.622 59.0658C23.3423 56.7861 21.6767 54.047 20.6907 51.0658C20.9532 51.1314 21.5235 51.1751 21.3704 51.1751C22.3345 53.9361 23.9126 56.4783 26.061 58.6267ZM44.3173 64.5658C44.5798 64.347 44.8877 64.0611 45.1283 63.733L45.3251 63.6674C45.3908 63.8642 45.4564 64.0611 45.5439 64.2377C45.1502 64.3689 44.7345 64.4783 44.3173 64.5658ZM59.7705 44.6642C59.7705 43.9626 59.7267 43.2611 59.6611 42.5814H59.6392C59.858 42.5595 60.0564 42.5157 60.2752 42.472C60.3627 43.1954 60.3846 43.9189 60.3846 44.6642C60.3846 48.9158 59.0908 52.9486 56.6799 56.347C56.6799 56.347 56.5049 55.9752 56.3517 55.733C58.4986 52.5767 59.7705 48.7626 59.7705 44.6642ZM74.9596 36.336C74.9596 36.336 72.658 38.6814 66.433 39.8861L66.1705 39.4923C65.9518 39.7767 65.8861 39.8861 65.8643 39.9314C63.6939 39.9751 62.4455 39.647 61.6346 39.5595L61.8752 40.0423C61.283 40.3486 60.5596 40.4814 59.8361 40.547C59.858 41.0954 60.1642 41.5548 60.6252 41.9064C60.033 42.3001 58.3017 42.147 58.3017 42.147C58.258 42.7173 58.3674 43.3298 58.5205 43.8783C58.1486 43.9876 56.6799 43.7689 56.3939 43.5939C56.2189 43.9876 56.7002 45.1501 56.7002 45.1501C55.9111 45.1939 55.0127 45.1064 54.2892 44.8001C54.0049 45.2173 54.4642 46.1158 54.4642 46.1158C53.6533 46.0939 52.908 45.7876 52.2064 45.4579C51.9439 45.6767 51.8564 46.0501 51.8345 46.3564C50.9142 45.8736 49.5986 45.5454 49.0283 45.7423C50.4095 46.7283 50.9564 48.1751 50.5845 49.5783C50.5845 49.5783 49.708 48.5048 49.4017 48.6798C49.4236 49.5783 48.6127 49.9955 48.6127 49.9955C48.7877 50.2142 48.3064 50.4564 48.5252 50.522C49.4236 49.9736 50.8049 49.2939 51.8783 50.347C53.5658 50.7189 54.7283 51.8376 52.7111 53.108C52.733 51.9251 52.0314 52.2095 51.6377 52.5814C53.3033 53.4798 54.7502 54.4876 56.0877 56.7455C55.6049 56.8548 54.5314 56.8548 54.4877 56.8111C55.1017 57.7095 55.7158 59.2658 55.7377 59.7923C55.058 59.7267 54.0502 59.5736 53.4361 59.3314C53.5892 60.3173 53.7861 61.5674 53.7424 62.5752C53.7424 62.5752 52.0549 62.0705 51.2002 61.347C51.2658 62.2892 51.4189 63.4736 51.0033 64.3502C49.9517 63.8674 49.2283 63.2986 48.6142 62.4658C48.4392 63.4517 48.1533 64.3502 47.1673 65.972C47.1673 65.972 45.7205 64.2627 45.4361 62.4439C44.6908 64.0439 43.683 64.5267 43.683 64.5267C43.047 63.7158 42.697 62.9267 42.522 61.8314C42.0173 62.4674 41.272 63.1252 40.5283 63.4314C40.2439 62.6424 40.1111 61.9627 40.1783 61.1299C39.7173 61.3924 39.1267 61.6345 38.4689 61.7439C38.4908 61.3049 38.5345 60.8455 38.6001 60.4064C38.6658 59.9236 38.7751 59.4423 38.8845 58.9814C39.0158 58.4767 39.1689 57.9955 39.3455 57.5127C39.5205 57.0517 39.7173 56.6142 39.9814 56.197C40.222 55.8033 40.4861 55.4517 40.7705 55.0798L40.8798 54.9486C39.4548 54.6423 38.4251 53.6548 38.2939 53.6767C38.2064 53.6986 37.7892 54.0705 37.8548 54.7502C38.008 56.022 38.0736 57.0736 37.7673 57.7533C37.6361 57.5564 37.5923 57.4908 37.5048 57.3814C37.5267 57.908 37.1986 58.872 36.9126 59.2658C36.9345 59.0689 36.9783 58.6298 36.9345 58.3892C36.8251 58.8283 36.5845 59.222 36.1236 59.5283C36.1236 59.2439 36.1017 59.0892 36.0361 58.8923C36.0361 58.9798 35.7954 61.4783 33.6908 62.0049C32.8579 62.2236 31.6079 62.3111 31.0173 61.983C32.5079 61.6111 33.4064 60.6892 33.5595 60.1423C32.0907 58.9595 33.647 57.2705 33.1423 56.8767C32.8579 56.658 32.3751 55.6486 31.7829 56.0439C30.4017 56.833 31.8048 59.3095 31.8048 59.3314C31.0157 58.9814 30.4017 58.4111 30.0517 57.8408C29.7673 57.3798 29.6126 56.8986 29.6579 56.5252C29.3079 56.3939 29.0657 56.4158 28.8907 56.4814C28.3204 56.7002 27.8173 58.0595 27.5314 59.0017C27.5314 59.0017 26.5017 57.1173 27.8595 55.1658C27.8595 55.1658 26.8954 54.8814 26.0407 56.5689C25.997 56.4158 25.9532 56.1517 25.9532 55.9986C25.997 54.5517 27.2032 53.4345 28.4079 53.0611C28.5392 52.6892 30.2486 51.133 31.5204 53.2798C31.7829 53.0173 31.9595 52.8861 32.3314 52.8626C32.7251 52.8408 33.1204 53.2126 33.2736 53.5205C33.4923 54.0033 33.6908 54.5064 33.8876 54.9673C34.0189 55.2955 34.4361 55.1423 34.5017 55.1205C34.9189 54.858 35.1158 53.8486 34.7204 53.0814L34.6548 52.972C34.4579 52.622 34.0408 51.833 34.4579 51.2408C34.5454 51.1314 32.9017 50.3861 31.4329 52.3798C30.9501 50.9767 28.6267 52.4455 28.3204 52.5111C28.2329 52.2267 28.1673 52.0283 27.9486 51.722C27.3564 52.1158 26.7204 52.4017 25.9985 52.4455C25.9767 52.0064 25.8892 51.6126 25.7142 51.2626C24.9689 51.5689 24.1579 51.8548 23.3251 51.6798C23.347 51.3736 23.3689 50.9345 23.2157 50.6283C22.6454 50.7158 21.7907 50.847 21.1767 50.6064C21.2642 50.3439 21.4173 49.9486 21.4173 49.4001C20.4532 49.4001 19.3345 49.3783 18.611 48.7642C18.8954 48.5236 19.0501 48.3251 19.247 48.1283C18.5017 48.0189 17.7782 47.7564 17.186 47.3611L17.4048 47.1642C14.3798 46.8142 11.3548 45.9814 8.92194 44.2704L9.1407 43.9423C9.03132 43.9642 8.54851 43.9204 8.48288 43.8767C7.23288 43.1533 3.661 39.4486 3.24381 38.3095C3.24381 38.3095 5.23756 39.9095 6.72819 40.6767C6.02663 39.9751 5.6985 39.5157 5.23756 38.8798C5.25944 38.7923 5.34694 38.7048 5.32506 38.5736H5.06256C3.81256 36.5126 2.34537 33.8173 1.9938 32.2173C3.83443 34.9782 6.26725 38.4204 9.35788 39.647C8.61257 38.9673 8.35007 38.6829 7.75788 37.9376C7.80163 37.8501 7.93288 37.6532 7.91101 37.5204C7.42819 37.4111 7.29694 37.3454 7.29694 37.3454C5.25787 35.0876 3.54849 30.397 2.95787 27.1751C4.75475 33.947 10.4532 36.797 10.4532 36.797C9.59851 35.5907 8.74382 34.4079 8.21726 33.0485L8.32663 32.8079L8.10788 32.7423C7.60319 31.5814 7.31882 30.3095 7.14382 29.0376C9.09382 33.4657 12.9298 38.6157 18.0813 39.3611C22.0048 39.9532 22.8376 37.3892 22.9251 37.1032C23.1657 36.4017 22.8376 35.547 22.7501 35.372H22.772C24.547 35.5251 25.4673 35.986 26.0157 36.5329C26.4095 36.9501 26.6517 37.3876 26.8923 37.8267C26.9798 37.6298 27.1111 37.4095 27.2642 37.2126C26.672 37.2782 25.8829 35.3501 28.2939 33.4423C28.7548 33.0923 30.1564 31.9517 31.4282 31.9079C31.4064 31.9079 32.3486 32.0392 32.6783 31.9954C32.9845 31.9517 34.0376 31.4032 34.8704 31.2282C35.397 31.1188 36.8423 31.5564 36.9751 31.6001C36.7126 31.622 36.3173 31.6876 36.3173 31.6876C38.6845 32.3892 42.0376 33.3314 44.7564 34.7782C45.283 32.3235 45.8955 30.986 46.9923 29.7157C48.483 27.9845 50.2142 27.4798 50.2142 27.4798C48.8767 28.861 50.1267 29.4298 50.1267 29.4298C51.5299 29.736 52.7345 29.8688 53.8095 29.8688C58.4346 29.8688 60.3189 27.2829 62.533 24.7626C64.7908 21.8251 65.9736 18.1219 65.7986 14.3079C66.7627 15.9954 66.9815 17.9016 66.8721 19.6563L66.4549 19.7876C66.608 19.9407 66.6955 19.9844 66.8268 20.0719C66.6518 21.2329 66.3439 22.3516 66.0158 23.4032C69.0627 21.3423 73.0299 17.0688 72.7658 10.7126C72.8096 10.8657 75.2862 15.7313 70.9908 24.6298C70.794 24.6298 70.6627 24.586 70.5299 24.6079L70.7486 24.9798L69.6971 26.6892C75.9658 22.722 77.1049 16.9141 77.1049 16.9141C77.0612 21.911 75.2643 26.3829 71.8221 29.8892H71.1205C71.1643 30.1517 71.2299 30.2392 71.383 30.3938C70.6158 31.4892 69.4111 32.4985 68.2486 33.3532C70.6596 33.4845 72.8955 32.6735 74.9549 31.6657C76.4674 30.8767 77.5846 29.6048 78.5268 28.2251C77.9127 29.8688 76.7955 31.3157 75.5237 32.6532C75.4362 32.6314 75.3487 32.5876 75.2393 32.522C75.283 32.6751 75.3268 32.8939 75.3268 32.8939C73.3768 34.647 70.1096 36.1376 67.8752 36.9048C70.2033 37.5626 72.5487 37.2782 74.9596 36.336Z" fill="#AAAFB6"/>
<path d="M32.5266 49.8815C31.1016 48.3033 30.0063 49.1799 29.9844 49.1143C29.875 48.5002 29.5907 47.9752 29.261 47.5143C28.7344 46.8346 28.0329 46.3315 27.4204 46.0018C26.9375 45.7393 26.5 45.5627 26.2594 45.4752C24.9438 45.0361 20.1219 45.9361 16.6813 44.6861H16.7688C14.0078 44.4455 11.7938 43.8314 10.5 43.3705C10.0828 43.2174 9.68906 43.0643 9.25 42.8877C9.40313 43.0189 9.71094 43.3924 11.2219 44.1158C14.1594 45.519 18.3016 46.3736 21.5891 45.694C21.5891 45.694 21.3266 46.133 19.6828 46.308L18.9594 46.9658C20.3625 47.294 23.0578 46.594 23.0578 46.594C22.4438 47.0111 21.9188 47.208 21.2391 47.3393L20.4719 48.3908C21.7875 48.5221 23.3219 47.9518 24.5047 47.2518C24.461 47.3174 23.9782 48.0846 22.5985 48.6111C22.5766 48.6111 22.511 49.2471 22.4453 49.5533C22.6203 49.5533 22.8172 49.5315 22.9719 49.5096C24.6375 49.2033 25.6454 47.669 25.7329 47.5815C25.5579 48.7205 24.0453 49.8393 24.0235 49.8611L24.3078 50.7596C24.3078 50.7596 25.5797 50.3877 26.0391 50.0143C26.2579 49.8393 26.9813 48.7205 27.1344 47.9096C27.1344 47.9096 27.3969 49.0268 26.4766 50.4299C26.586 50.8018 26.6079 51.0658 26.6954 51.4158C27.0891 51.4377 27.8125 50.9768 27.9016 50.8893C28.6469 50.2752 28.6688 48.083 28.6907 48.0174C28.975 48.9815 28.8219 50.0565 28.5375 50.9549L28.625 51.0424C28.7344 51.1737 28.8219 51.283 28.8657 51.3924L28.9094 51.5455C28.9094 51.5455 30.6407 50.5596 31.4516 51.3924C31.4516 50.7783 31.8016 50.2971 32.2844 50.0111C32.3501 49.9674 32.4376 49.9237 32.5251 49.9018V49.8815" fill="white"/>
<path d="M61.3266 34.714C61.4141 34.714 61.5453 34.7359 61.7438 34.7359C62.1609 34.7578 62.7297 34.7578 62.95 34.7796C64.9219 34.8015 68.2547 34.714 71.1469 33.9687H71.1688C72.0891 33.7281 72.9875 33.3984 73.7547 32.9828C73.8641 32.9171 73.9735 32.8515 74.061 32.7859C72.3516 33.5968 68.6031 33.9468 67.5516 33.7281C66.3453 34.0125 64.1766 34.364 61.3484 34.714H61.3266Z" fill="#6F163D"/>
<path d="M60.0767 35.5688C63.1454 37.322 67.2876 38.2204 70.9923 37.6517H71.0361C69.0423 37.6079 67.2439 37.4548 66.2361 36.972C64.1751 36.8188 62.5095 36.4235 60.0767 35.5688Z" fill="#6F163D"/>
<path d="M15.9127 41.6188C14.8393 41.4001 10.7408 39.5579 7.93457 36.7532C9.64395 38.6813 11.7924 40.2594 13.9627 41.4657L14.1158 41.4876C14.2033 41.4876 14.2908 41.5094 14.3565 41.5094C14.5533 41.5516 15.6049 41.6188 15.9127 41.6188Z" fill="#AAAFB6"/>
<path d="M60.0765 35.5687C60.0546 35.5687 68.975 37.475 74.0593 32.7859C73.95 32.8515 73.8406 32.9171 73.7312 32.9828C72.964 33.4218 72.0656 33.7281 71.1453 33.9687H71.1234C68.2953 34.714 64.9203 34.8015 62.9265 34.7796C62.4218 34.7796 62.0062 34.7578 61.7203 34.7359C61.5234 34.7359 61.3921 34.714 61.3031 34.714H61.2374C54.4421 34.3421 51.4624 37.5859 51.3093 37.7609C49.6655 39.6234 48.2843 42.7578 47.8687 44.9719C48.789 44.4015 49.753 44.5328 50.7187 45.125C50.3905 44.0734 50.3468 42.275 51.2452 40.9609C50.6312 43.964 51.7499 44.4672 51.7499 44.4672C51.9905 44.664 52.7359 44.839 53.2187 44.9062C53.153 44.489 53.153 44.3797 53.2405 44.0078C52.6484 43 52.3859 41.5312 52.7796 40.3687C52.714 41.2672 52.9984 42.714 53.6343 43.5687C53.9405 43.7875 54.1609 43.875 55.0812 43.9859C54.8843 43.5687 54.9718 43.0656 55.1468 42.6922C54.6421 42.1875 53.7655 40.6312 54.0734 39.7765C54.2046 40.7406 54.8405 41.5734 55.5202 42.275C56.003 42.4937 56.5499 42.5812 57.1202 42.6687L57.0546 41.2C55.6077 40.2359 55.3671 38.8765 55.3671 38.8765C55.9155 39.5781 56.639 40.2359 57.3609 40.7609C57.9093 40.9797 58.2374 40.9797 59.0265 40.914C58.7202 40.5422 58.6327 40.1031 58.5437 39.664C57.7109 39.3578 56.8562 38.7875 56.4171 37.9765C56.4171 37.9765 57.9077 39.1375 59.0468 39.2703C59.5734 39.3359 60.0109 39.314 60.2968 39.139L59.9249 38.3062C57.9968 37.9562 57.2515 36.7718 57.2515 36.7718C65.4265 40.1031 70.8406 37.6703 70.9718 37.6046C67.2874 38.2203 63.1671 37.3218 60.0765 35.5687Z" fill="white"/>
<path d="M52.8221 35.0641C55.2111 33.2453 58.4986 33.3985 62.4221 33.311C67.1565 31.4266 71.0799 28.0719 73.0737 25.75C69.5237 29.475 61.6768 34.0344 49.4689 32.0844C49.2939 32.15 50.3018 34.4735 47.1236 37.9141C47.0361 38.0016 47.058 38.7907 47.8689 39.361C46.7517 41.75 47.2986 45.0375 47.3205 45.0157L47.2111 45.0375C47.4736 44.9938 47.7158 44.9719 47.8689 44.9938V44.9719C47.7158 43.525 47.8908 38.8125 52.8221 35.0641Z" fill="#AAAFB6"/>
<path d="M61.2612 34.7142H61.305H61.3269H61.3487C67.2003 32.8955 73.141 27.0205 74.5206 23.908C74.4331 24.0392 74.3456 24.1923 74.2581 24.347C73.93 24.7861 73.5347 25.2673 73.0753 25.7502C71.0816 28.0736 67.1581 31.4267 62.4237 33.3111C58.5003 33.4205 55.2128 33.2455 52.8237 35.0642C47.8925 38.8127 47.7175 43.5252 47.8925 44.9486V44.9705C48.3096 42.7564 49.6893 39.6221 51.3331 37.7596C51.4847 37.5846 54.4659 34.3408 61.2612 34.7142Z" fill="#E3E4E7"/>
<path d="M29.15 43.919C29.15 43.8971 26.4328 44.3361 23.189 40.7627C23.189 40.7627 23.4515 42.6252 26.039 43.8971C21.6109 43.744 19.0468 42.2315 19.0468 42.2315C19.7921 43.0643 20.5593 43.4143 21.8531 43.9408C20.3406 44.0502 18.6968 43.9408 17.2062 43.7002C11.0687 42.758 7.73741 40.3252 6.29053 38.9658C9.75304 42.6049 12.4937 43.4158 13.1734 43.7221C11.3765 43.1736 9.51241 42.758 7.86866 41.9033C8.30772 42.2752 8.7671 42.6049 9.24991 42.933C9.6671 43.108 10.0827 43.2611 10.4999 43.4158C11.7937 43.8768 14.0062 44.4893 16.7687 44.7315C24.8999 44.9283 23.8703 44.3596 26.2812 44.644C28.364 44.9065 27.3765 45.3236 29.9421 46.858C31.389 47.7346 34.6547 49.5971 34.3484 49.6862C36.2328 49.8393 35.0718 49.358 35.0718 49.358C35.4 48.5252 31.5 47.1877 30.25 46.2674C29.9218 46.0268 29.6796 45.8065 29.5046 45.6096C29.0406 45.1471 28.8656 44.5986 29.15 43.919Z" fill="#AAAFB6"/>
<path d="M29.9392 46.8345C27.3751 45.3001 28.3611 44.8845 26.2782 44.6204C23.8673 44.3141 24.897 44.8829 16.7657 44.7079H16.6782C20.1189 45.9579 24.9626 45.0579 26.2564 45.497C26.497 45.5845 26.9361 45.7376 27.4173 46.0235C28.0314 46.3516 28.7329 46.8563 29.2579 47.536C29.6079 47.9751 29.872 48.522 29.9814 49.136C29.9814 49.1798 31.0986 48.3032 32.5017 49.9032H32.5454C32.6548 49.8813 32.9392 49.7501 33.3564 49.6845L33.6626 49.6626C33.8158 49.6626 34.0345 49.6626 34.2548 49.6845H34.3204C34.6517 49.5735 31.3861 47.711 29.9392 46.8345Z" fill="#E3E4E7"/>
<path d="M47.8687 39.3393C47.0578 38.7908 47.0359 37.9799 47.1234 37.8924C50.3016 34.4518 49.2719 32.1283 49.4687 32.0627C61.6766 34.0127 69.5235 29.4549 73.0751 25.7283C73.536 25.2455 73.9297 24.7642 74.2579 24.3252C74.3454 24.172 74.4329 24.0408 74.5204 23.8861C75.1563 22.8783 75.6157 22.0236 76.0985 20.533C72.4375 27.372 66.6078 28.7517 62.7719 29.6721C62.7719 29.6721 63.9328 29.0361 65.4891 27.8314C68.3829 25.5955 72.5907 21.3658 72.9407 15.5798C71.7344 21.5861 61.1485 32.7189 48.9625 30.2861C48.9625 30.2861 46.2672 31.2939 45.3453 36.0283C46.6609 38.5924 45.3234 39.7111 45.3234 39.7111C45.7625 38.8127 45.1266 36.7299 43.2406 36.0721L43.1969 36.0502C43.2406 36.1377 43.8328 37.2783 43.2406 37.8033C43.2187 37.8252 42.3859 36.8174 41.2687 36.7299C41.2906 36.7736 41.5969 37.2783 41.5531 37.6502C40.5015 37.5846 39.5359 37.6502 38.7031 38.2424C36.6859 39.6455 37.8047 40.9815 38.5719 41.5955L38.6156 41.6393C38.8781 41.8361 39.0765 41.9674 39.0984 41.9455C38.0687 42.8002 36.8843 42.5158 36.8843 42.4721C36.8625 42.669 37.0593 43.0205 37.4547 43.3924C37.4765 43.4143 36.3375 43.7205 35.175 43.2611C34.8687 44.0283 36.0734 44.8612 36.0078 44.8612C35.3937 44.883 33.8156 44.7736 33.5968 44.3127C32.7422 45.1674 33.5968 46.9643 33.5968 46.9643C32.764 46.7018 32.15 46.4158 31.8218 46.1752C30.8359 45.4737 31.339 44.3346 31.339 44.2908C31.339 44.2908 31.2296 44.3127 31.0984 44.4221C30.9015 44.5533 30.6156 44.7721 30.4843 45.0799C29.7609 44.3565 30.2437 43.458 30.4406 43.2611H30.2437C29.0609 43.283 28.139 42.8674 27.7671 42.6033C26.6499 41.7705 26.2546 40.1049 26.5843 38.9643C24.8312 39.4252 25.7515 37.1236 24.414 37.3861L24.3921 37.408C24.239 37.6268 23.0328 39.6002 20.7984 40.1252L20.6671 40.1471L20.5796 40.169C20.4921 40.1908 20.4046 40.2127 20.2952 40.2127C15.2546 40.8486 10.4327 38.5471 5.98272 33.9877C6.4874 34.9299 7.09991 35.8721 7.88897 36.683L7.91085 36.7049C10.7171 39.5111 14.8155 41.3299 15.8671 41.5486H15.9109H15.889C15.5827 41.5486 14.5296 41.483 14.3327 41.4611C14.2452 41.4611 14.1577 41.4393 14.0921 41.4393C11.7249 41.1986 8.08585 40.3877 5.36865 37.9111C5.36865 37.9111 5.65303 38.3049 6.26709 38.8752C7.71397 40.2346 11.0671 42.6674 17.1827 43.6096C18.6734 43.8502 20.3171 43.9596 21.8296 43.8502C20.5359 43.3236 19.7906 42.9736 19.0234 42.1408C19.0234 42.1408 21.5874 43.6752 26.0156 43.8065C23.4296 42.5346 23.1656 40.6721 23.1656 40.6721C26.4093 44.244 29.1265 43.8065 29.1265 43.8283C28.8421 44.508 29.0171 45.0565 29.4546 45.494L29.564 45.6033C30.4625 46.3924 32.2375 46.9627 33.6406 47.4877C37.0812 48.7815 37.2797 48.7158 37.7609 50.0955C37.739 50.0518 37.6078 50.0518 37.4109 50.1174C36.6875 50.3143 35.1531 51.1471 35.5265 52.6596C36.0531 54.7424 35.264 55.5096 35.1765 55.4877C36.25 55.8596 36.4922 56.9127 36.3593 58.4471C36.7312 57.7456 36.7531 57.0221 36.5781 56.1893C36.5781 56.1893 36.9062 56.4081 37.0828 57.5924C37.2359 56.3862 36.9734 55.6424 36.7765 55.0065C37.0172 55.2034 37.2812 55.4893 37.5218 56.2346C37.4781 54.7221 36.7109 53.5612 38.3328 53.0127C38.3765 52.9909 39.9984 54.394 41.7515 54.6784L41.7734 54.6565C40.3265 55.9065 40.1734 58.2284 40.2172 58.2065C40.3484 58.1846 41.1812 57.8784 41.7078 57.5268C41.5765 58.3159 41.5547 59.4549 41.664 59.6971C42.0578 59.6096 43.0672 58.7112 43.3734 58.2284C43.2859 58.5565 43.1984 60.1127 44.0312 60.9893C44.7547 60.6174 45.1922 59.4768 45.325 58.4471C45.5656 59.2799 45.8297 60.6831 46.8812 61.3846C47.4953 60.3768 47.4516 58.1627 47.4516 58.1627C47.9125 59.1924 48.0875 59.5221 49.3359 60.3331C49.5109 59.194 49.5547 58.4268 49.3578 57.5268C49.3578 57.5268 50.125 58.7768 51.8563 59.4112C51.9219 58.1393 51.5719 57.1096 51.1984 56.1674C51.1984 56.1674 51.8781 56.7159 52.8203 56.8909C52.7547 55.9049 51.7906 54.8299 51.7906 54.8299C52.0531 55.0049 52.7766 55.1143 53.3031 55.1362C53.0188 54.369 52.2516 53.2518 50.6953 52.5284C50.4328 52.419 50.1688 52.2877 49.8625 52.2002C49.3578 52.069 48.7453 51.8502 48.4156 52.1346C48.2844 52.3315 48.35 52.5284 49.1609 53.2518C49.8625 53.383 50.7609 53.8659 50.4984 54.7643C49.9063 56.5393 51.55 58.2268 51.55 58.2268C51.0234 58.1393 50.5203 57.9206 50.0594 57.6346L49.8844 57.5252C49.1609 57.0424 48.6563 56.4518 48.5469 56.0127C47.4953 55.2237 47.0781 54.5221 46.925 53.2518C46.6625 53.5143 46.7062 53.8877 46.575 54.2159C46.2906 54.8299 45.5672 55.2893 44.9094 54.633C43.9234 55.094 45.6984 56.5393 45.6984 56.5393C42.4328 56.5612 43.2219 54.1284 43.3094 53.6674C43.5719 52.6159 43.7922 52.1987 44.9094 51.7174C44.6687 51.433 44.7562 50.4674 45.8734 50.183C45.9828 50.358 46.2234 50.533 46.3562 50.5549C44.1859 45.8424 46.6187 45.0533 47.1672 44.944L47.2766 44.9221C47.2984 45.0158 46.7281 41.7283 47.8687 39.3393Z" fill="#6F163D"/>
<path d="M47.4956 46.0892C47.1019 46.4173 47.0128 47.4485 47.1675 48.5876C47.1456 48.3907 47.255 46.8782 47.5612 46.7688C48.2847 46.5063 49.7753 47.361 50.3894 48.9173V48.9392C50.105 46.9438 48.1316 45.5407 47.4956 46.0892Z" fill="white"/>
<path d="M51.4189 52.1829C51.7908 51.7657 52.8877 51.4376 52.9314 52.6876V52.6657C52.9971 52.5345 53.5674 51.2626 51.7486 51.0438V51.022C51.7267 51.0657 51.683 51.1095 51.5955 51.1313C50.5642 51.6782 51.4189 52.1829 51.4189 52.1829Z" fill="#E3E4E7"/>
<path d="M28.9316 54.6377C29.4362 54.7252 29.7206 55.6236 29.3706 55.9752C29.3706 55.9752 29.5019 55.9752 29.655 56.1502C29.7644 55.5799 29.8956 55.208 30.1597 54.8346C29.4581 54.3955 28.8878 54.6377 28.9316 54.6377Z" fill="#AAAFB6"/>
<path d="M29.8733 54.3735C29.8952 54.3735 30.1577 54.4391 30.3124 54.5922C30.6187 54.1532 31.1671 53.7594 31.1671 53.7375C30.553 53.1672 30.2687 52.2688 29.0405 52.8391C29.0405 52.8407 31.189 53.5844 29.8733 54.3735Z" fill="#AAAFB6"/>
<path d="M35.5281 56.0188C34.7391 56.3032 34.9578 55.8438 34.6953 55.8657C33.6 56.2595 33.1828 53.6079 32.4375 53.3016C31.8234 53.061 31.5391 53.586 31.5391 53.586C31.5391 53.586 33.2484 53.3891 32.7453 55.4704C32.7453 55.4485 33.4031 55.9532 33.5125 56.7423C33.9516 57.0266 33.9063 57.2907 33.8188 57.772C34.1031 57.6845 34.1031 57.7282 34.2359 57.6845C33.9734 58.0345 32.7672 59.0438 33.9297 59.811C34.7844 59.1532 35.1125 59.4392 35.2234 59.9204C35.5078 59.4376 35.7719 58.6485 35.5297 57.7063C35.3328 56.8954 34.6094 56.5673 34.3906 56.4126C34.7625 56.4563 35.3547 56.7407 35.5516 57.0048C35.5516 56.8516 35.5953 56.6985 35.9016 56.6766C35.8797 56.3907 35.7703 56.172 35.5281 56.0188Z" fill="#AAAFB6"/>
<path d="M45.1955 54.5065C45.2392 54.5502 45.6564 53.6736 45.5017 53.2783C45.1517 53.3439 44.6908 53.5408 44.2955 53.783C43.3095 55.5143 44.8439 56.1502 44.8658 56.1721C44.1861 55.5361 44.2299 55.2299 44.208 54.7908C44.3392 54.0893 44.9533 54.2643 45.1955 54.5065Z" fill="#E3E4E7"/>
<path d="M30.8175 55.6235C31.2784 55.1845 32.0675 55.0751 32.0675 55.0751C32.2644 54.636 32.33 54.4392 32.155 54.0892L32.0675 54.0017C32.0675 54.0017 31.98 54.0017 31.8269 54.0235C31.63 54.0673 31.344 54.1985 31.0159 54.5282C30.9722 54.572 31.0815 54.2876 31.7831 53.8485L31.7175 53.8267H31.6519C30.4456 54.397 28.9565 56.4126 30.8628 58.4517C30.2909 57.5735 30.2472 56.1501 30.8175 55.6235Z" fill="white"/>
<path d="M28.6034 54.8125C28.7128 54.8563 28.844 54.9219 28.9534 55.0312C28.8222 55.075 28.7128 55.1188 28.6253 55.1844C27.6394 55.7984 27.53 57.6172 27.4862 58.1656C27.4862 58.1 27.4862 58.0344 27.4644 57.9469C27.4644 58.1219 27.4644 58.2531 27.4644 58.3188C27.4644 58.3188 27.7487 56.2797 28.8456 56.1703C29.655 55.8203 29.1284 54.9875 28.6034 54.8125Z" fill="#E3E4E7"/>
<path d="M34.5641 59.8752L34.7172 59.8971C34.3234 60.5987 33.8844 61.4534 32.4813 61.8253C32.3281 61.869 32.1531 61.8909 31.9766 61.9346C32.525 61.9346 32.9406 61.8909 33.2922 61.8034C34.3656 61.519 34.6734 60.8612 34.9797 60.3127C34.8719 59.9627 34.7172 59.8752 34.5641 59.8752Z" fill="white"/>
<path d="M32.3501 54.3297L32.2626 54.1985L32.1532 54.0891C32.3063 54.4391 32.2407 54.6594 32.0657 55.0751C32.0657 55.0751 31.2985 55.1844 30.8157 55.6235C30.2454 56.1501 30.2891 57.5735 30.8813 58.4516L30.9032 58.4735C31.0126 58.5829 31.122 58.6922 31.2313 58.8016V58.7797C30.6391 57.9032 30.5954 56.4782 31.1657 55.9516L31.2532 55.8641C31.7142 55.4922 32.3923 55.3813 32.3923 55.3813L32.436 55.2719L32.5017 55.0969C32.5704 54.7688 32.4829 54.5282 32.3501 54.3297Z" fill="#E3E4E7"/>
<path d="M28.3829 54.0674C28.9095 54.0455 29.4126 54.133 29.6767 54.2424H29.6985C30.4657 53.9143 29.786 53.4533 29.3267 53.2346C29.1298 53.2346 28.6907 53.1471 27.7267 53.7174C27.7485 53.7174 28.0767 53.3236 28.7564 53.0596C28.2954 53.1471 27.8142 53.4314 27.6173 53.5424C27.311 53.7174 26.9595 54.0252 26.7407 54.3096C26.5657 54.5064 26.4345 54.7486 26.3235 54.9893C26.2579 55.1643 26.2142 55.3174 26.1923 55.4939C26.1704 55.5814 26.1704 55.669 26.1704 55.7783V55.8002L26.236 55.6908C26.5204 55.0971 27.3095 54.1111 28.3829 54.0674Z" fill="white"/>
<path d="M28.1641 54.7252C28.1641 54.7252 28.4484 54.2423 29.6547 54.2423H29.6766C29.4141 54.133 28.9313 54.0455 28.3828 54.0673C27.3313 54.1111 26.5203 55.097 26.1906 55.7111L26.125 55.8205C26.1266 55.8205 27.0469 54.572 28.1641 54.7252Z" fill="#E3E4E7"/>
<path d="M28.6033 55.1844C28.7127 55.1188 28.8221 55.075 28.9314 55.0312C28.8221 54.9437 28.7127 54.8563 28.5814 54.8125L28.5158 54.8562L28.4721 54.9C27.3111 55.9078 27.3986 57.2453 27.4424 57.925C27.4424 58.0125 27.4424 58.0781 27.4642 58.1438C27.5064 57.6188 27.6174 55.7984 28.6033 55.1844Z" fill="white"/>
<path d="M47.5392 48.5002C47.3642 48.6971 47.1892 48.9174 47.1001 49.158C46.2673 47.383 47.1657 45.9799 47.1657 45.9799C47.0126 45.8924 46.5079 45.9799 46.2673 46.6815C46.136 47.0533 46.0923 47.383 46.0923 47.7549C46.0923 48.5002 46.5095 49.2018 46.7064 49.9252C46.7939 50.2752 46.8814 50.6049 46.9689 50.9549C46.9689 50.9768 46.9907 51.0424 47.0126 51.108C47.0126 51.1955 47.0126 51.2612 46.9907 51.3268C46.3548 51.1955 46.0704 50.933 45.8298 50.7127C45.2595 50.6471 45.0626 51.5455 45.3689 51.6987C45.6314 51.7205 46.1798 51.6987 46.4642 51.8518C45.4345 52.0049 44.447 52.3127 43.9438 53.2768C44.2938 53.0143 45.1267 52.7502 45.5001 52.9487C45.872 53.1455 45.961 53.9565 45.3251 54.7018C46.486 54.5924 46.5079 53.4518 46.3329 52.8612C46.3329 52.8612 46.5079 52.9705 46.5517 53.1018C46.6829 52.8174 46.9689 52.4002 47.2751 52.4002C47.1657 52.6627 47.5157 55.1393 48.9189 55.7752C49.7298 55.994 50.2126 55.3143 49.9923 54.6799C49.7517 53.8252 48.7423 53.6283 48.261 53.7815C48.3048 53.7158 48.6548 53.5846 48.7439 53.6065C48.7439 53.6065 47.4064 52.4674 48.1735 51.7221C48.5235 51.3721 49.1595 52.0065 49.6204 51.919C49.5767 51.8533 49.5329 51.744 49.5767 51.6346C49.9267 52.0065 50.6064 52.2487 51.0892 52.2924C49.972 51.3502 52.0314 51.1971 51.2861 50.5393C50.2564 50.0346 48.9626 50.6268 47.911 51.1752C47.8673 50.8471 48.261 50.5393 48.2392 50.2986C48.1079 50.3861 48.0423 50.4518 47.822 50.4518C48.4142 49.9252 48.8735 49.158 48.8735 48.369C48.7454 47.4486 47.9782 47.8205 47.5392 48.5002Z" fill="#AAAFB6"/>
<path d="M47.5393 46.7689C47.2331 46.8783 47.1221 48.4126 47.1675 48.5876C47.4081 47.9954 47.7815 47.6892 48.3284 47.5142C49.1393 47.2736 49.819 48.1283 50.3893 48.9611L50.3675 48.9173C49.7534 47.3611 48.2628 46.5064 47.5393 46.7689Z" fill="#E3E4E7"/>
<path d="M49.2939 56.0845C49.6002 56.7642 50.4111 57.4658 50.8721 57.8158C50.083 56.9173 49.9518 56.5439 49.9518 55.7986C49.9283 55.7767 49.6877 56.1283 49.2939 56.0845Z" fill="#E3E4E7"/>
<path d="M52.9534 52.6861C54.1144 51.3268 52.7128 50.8893 51.7925 50.6689C51.8144 50.7346 51.8581 50.8658 51.8144 50.9752L51.7925 51.0408V51.0627V51.0846C53.5675 51.2627 52.9972 52.5549 52.9534 52.6861Z" fill="white"/>
<path d="M44.2953 53.8048C44.6672 53.5642 45.15 53.3439 45.5016 53.3001C45.4578 53.2126 45.3922 53.1251 45.2828 53.1251C44.9547 53.0595 44.3187 53.322 43.8359 53.6517L43.8141 53.7392C43.7703 53.9361 43.7047 54.1564 43.6609 54.3751C43.5297 55.0111 43.5734 55.6907 44.7562 56.1501L44.8656 56.1939C44.8437 56.172 43.3094 55.5361 44.2953 53.8048Z" fill="white"/>
<path d="M49.2938 56.0844H49.2281C49.1844 56.0844 49.1625 56.0844 49.0312 56.0188C49.3813 56.8297 50.4125 57.6188 50.8719 57.8157C50.4109 57.4422 49.6 56.7625 49.2938 56.0844Z" fill="white"/>
<path d="M13.3046 38.6594C15.2109 39.6016 16.0655 39.7547 18.1484 39.9969C14.4218 39.011 12.253 37.761 9.3374 33.8157C10.5421 36.686 12.953 38.4844 13.3046 38.6594Z" fill="#6F163D"/>
<path d="M29.9612 38.9C30.5753 38.8344 31.8894 38.5281 31.9112 39.0094C31.9331 39.0094 32.0425 38.6156 32.5691 38.4391C32.7441 38.1109 32.8753 37.9781 33.1175 37.825C33.9503 37.3203 35.3097 37.0797 36.1862 37.6063C36.2081 37.9563 36.0112 38.4172 35.9237 38.5484C35.7706 38.7891 35.5737 39.0313 35.3534 39.2281C35.0253 39.5344 34.4987 39.7328 34.2581 40.1047C33.8862 40.6969 33.8191 41.3984 33.3159 41.9016C32.855 42.3625 32.3519 42.4938 31.519 42.625C32.3519 41.4422 32.4831 39.9734 32.505 39.6656C32.5269 39.4031 32.5487 39.0516 32.505 38.7891C31.3659 39.775 32.1112 40.3891 31.9566 41.1125C31.6722 42.4063 30.9487 42.8219 31.08 42.8219C32.1316 42.8875 32.68 42.9531 34.455 41.5063C34.8269 41.2 35.0034 40.7172 35.2003 40.2781C35.3972 39.8172 35.5941 39.3797 35.88 38.9406C36.1206 38.5688 36.6034 37.9984 36.7784 37.8016C37.305 37.1656 37.1503 36.3547 37.1503 36.3547C36.7784 37.1875 35.4628 37.1875 35.1566 37.1C34.4331 36.925 35.1566 36.8375 34.3456 36.8813C33.9956 36.9031 32.1097 36.9906 31.4519 37.8891C31.4956 37.4953 31.7581 37.1219 32.0003 36.9688C31.3862 37.1656 30.9706 37.6922 30.6628 38.2844C30.6847 37.7578 31.0565 37.0344 31.5175 36.7719C30.4878 36.8375 30.4003 36.2891 29.655 36.4C29.5894 36.4 29.5019 36.3563 29.3925 36.3125L29.2394 36.4C28.8675 36.6844 28.5159 37.3422 28.3847 37.8031L28.3628 37.8906C28.5378 37.9125 28.8675 38 28.8019 38.2844L28.6925 38.3063H28.7144C29.8081 38.4406 28.9534 39.0094 29.9612 38.9ZM29.1503 37.3H29.1722C29.4347 37.2344 29.7206 37.3875 29.83 37.5406C30.0706 37.9125 29.6331 38.1109 29.6331 38.1109C29.5675 38.1547 29.5456 38.1328 29.5456 38.1109C29.7206 37.6719 29.5456 37.4969 29.0409 37.3656L29.1503 37.3Z" fill="#AAAFB6"/>
<path d="M29.5671 38.0892C29.6765 38.0236 29.7858 37.958 29.8077 37.8267V37.8048V37.7611V37.7173L29.7858 37.6517V37.6298L29.7202 37.5423C29.6108 37.4111 29.3921 37.2798 29.1499 37.3017L29.0405 37.3455C29.589 37.497 29.7421 37.6517 29.5671 38.0892Z" fill="#1E3249"/>
<path d="M34.6952 37.8704C33.9936 37.9798 33.6436 38.2876 33.5999 38.3532C33.403 38.572 32.5264 39.3173 33.0515 41.2689C33.753 38.9454 36.4483 38.3095 35.6155 37.9157C35.6155 37.9157 35.4186 37.8501 35.2874 37.8501C34.8265 37.9376 33.9936 38.6173 33.3155 39.6032C33.3155 39.5798 33.6436 38.3954 34.6952 37.8704Z" fill="#6F163D"/>
<path d="M29.9608 38.9001C28.953 38.9876 29.8077 38.4392 28.7545 38.3735C27.4389 40.1704 28.2717 42.0345 29.2811 42.1876C29.3467 42.2095 28.7983 40.2595 30.0045 39.5579C30.6842 39.1642 31.2327 39.097 31.2983 39.097C31.4952 39.0532 31.692 39.0095 31.9342 39.0095C31.9124 38.5282 30.5967 38.8564 29.9608 38.9001Z" fill="white"/>
<path d="M28.428 37.9579L28.4499 37.8704C28.5811 37.4094 28.9327 36.775 29.3046 36.4672L29.4577 36.3797L29.3046 36.3141L29.1952 36.2922H29.0858L28.9546 36.3141C28.8889 36.336 28.8233 36.3797 28.7577 36.4235L28.7358 36.4454L28.6483 36.511C28.2092 36.95 27.6842 37.8704 27.8592 38.2641C27.8592 38.2641 28.1436 38.1329 28.4733 38.1329C28.8014 38.2204 28.8452 38.3079 28.8671 38.3079C28.9092 38.0454 28.5811 37.9579 28.428 37.9579Z" fill="white"/>
<path d="M28.6689 35.0422C28.647 35.1079 28.4064 35.8532 28.8002 36.0501L28.8439 36.0719L28.8877 36.0938C28.647 35.7657 28.6251 35.5469 28.6689 35.0422Z" fill="white"/>
<path d="M27.8799 36.4891C27.4627 35.8094 28.2737 34.4953 29.6331 33.5078C29.7206 33.4422 29.8299 33.3766 29.9174 33.311C30.4878 33.0047 30.9253 32.8282 31.1893 32.7407C30.8174 32.9157 30.5534 33.2016 30.5971 33.4641C30.5971 33.4641 30.8378 32.9594 32.1534 32.8063C33.5784 32.85 34.9362 31.9735 35.3096 32.3016C32.4159 33.1563 31.4299 33.7703 31.4956 34.2735L31.5393 34.4266C31.6924 34.711 31.8018 35.0844 31.8018 35.4344V35.4563C31.8237 35.9828 31.5831 36.2016 31.319 36.311L31.2971 36.3329L31.1659 36.3766C31.1221 36.3985 31.7143 36.4641 32.0206 35.9828C31.9987 36.2016 31.7799 36.5094 31.5815 36.5094L31.7128 36.4875C32.0409 36.3782 32.2174 35.9172 32.1956 35.7203C32.0862 34.3828 32.6565 33.7485 33.1596 33.5282H33.1815C33.0065 33.7688 32.9409 34.1203 33.1159 34.4047C33.3128 33.5938 33.9706 33.2657 34.4534 33.1547C34.7378 33.0891 34.9581 33.0891 35.0018 33.0891C34.8268 33.1328 34.63 33.2203 34.4315 33.3297C36.2721 33.1766 37.3471 34.1188 37.5221 34.425C35.944 33.5047 34.6503 33.5266 34.0378 34.0532C34.0378 34.0532 34.8268 33.9 35.3096 34.1188C35.2003 34.1188 34.8925 34.1407 34.5643 34.2063C34.1471 34.2938 33.7315 34.5125 33.6659 34.9953C33.6221 35.2797 33.644 35.5657 33.5784 35.85C34.1487 34.0532 36.2518 34.6672 36.2518 34.6672C35.1784 34.711 34.3674 34.9297 34.1253 35.9172C34.6081 35.1938 35.5721 35.1282 35.9659 35.2594C35.944 35.2594 34.9143 35.5219 35.0893 36.0485C35.1112 36.136 35.1331 36.2016 35.9003 36.2672C36.1409 36.2891 36.3612 36.2672 36.6018 36.2016C36.6675 36.1797 36.755 36.1579 36.8206 36.136L36.8643 36.1141L37.0393 36.0485L37.0831 36.0266L37.1706 36.0047L37.2362 35.9828C37.3237 35.961 37.4331 35.961 37.4987 35.961C38.3096 37.3422 35.8987 38.9641 35.8112 40.2125C35.7456 41.0454 34.869 41.8126 33.9487 42.4047C31.8221 43.7204 31.1206 45.4954 32.8753 46.3282C32.1737 45.7797 31.9987 44.6844 32.919 43.5891C32.919 43.5891 32.744 43.9391 32.8971 44.1594C32.8971 44.1594 33.269 43.7876 33.5987 43.6329C33.6206 43.611 33.7956 44.0501 34.8706 44.2688C33.5112 43.6985 34.0815 42.8219 34.0815 42.8876C34.0815 42.9313 33.994 43.2594 34.3221 43.5672C34.344 43.5891 34.4534 42.9094 34.7612 42.7126C34.8268 42.6907 35.4628 43.0844 36.4487 42.9969H36.4268C35.2206 42.8657 35.244 42.2735 35.2659 42.2954C35.5503 42.6454 35.8143 42.5797 35.8143 42.5579C35.7487 42.361 35.8143 41.9438 36.0768 41.7907C36.0768 41.7907 36.9753 42.1188 37.6331 41.9875C37.7643 41.9657 37.9393 41.8782 37.9393 41.8782C36.5143 41.9219 36.405 41.0672 36.4268 40.5844C36.4706 39.1813 37.1721 38.1079 38.2237 37.4063C38.4862 37.2313 39.1878 36.9454 39.8237 36.9016C40.1081 36.8797 40.394 36.9016 40.6128 37.011C40.4378 36.4625 39.7143 36.2438 39.319 36.1782C38.9909 36.2657 38.6612 36.4188 38.4206 36.6391C38.7706 35.7844 39.6706 35.4328 40.1518 35.411C40.0206 34.1172 35.9003 32.211 34.9346 31.8172C35.0003 31.8391 35.0878 31.861 35.1753 31.9047C35.0659 31.861 34.9784 31.8391 34.9128 31.8172C34.6503 31.686 33.8612 32.211 33.1596 32.3875C32.6331 32.5188 31.9987 32.5625 31.3628 32.3875H31.2534C29.3471 32.9578 28.4252 34.25 28.3377 34.3375V34.2938C28.3377 34.1844 28.3596 34.0094 28.3596 33.9438C28.1627 34.1407 27.9877 34.4047 27.8549 34.6672C27.5924 35.2157 27.5049 35.8735 27.7456 36.3329L27.8799 36.4891Z" fill="white"/>
<path d="M30.2472 33.7283L30.2253 33.7501L30.2034 33.772C29.4581 34.3861 29.2612 35.2189 29.2612 35.4595C29.2612 35.6564 29.3487 35.8095 29.48 35.9205L29.5019 35.9423L29.5675 35.9861L29.5894 36.008L29.6987 36.0736C29.1065 34.933 30.1597 33.8158 30.2472 33.7283Z" fill="white"/>
<path d="M30.5533 34.6484C30.1595 34.9766 30.0923 35.7 30.1595 35.9422C30.1814 36.0516 30.2251 36.1391 30.2908 36.2047C30.4001 36.2047 30.5095 36.2047 30.597 36.2266C30.247 35.8313 30.2689 35.1078 30.5533 34.6484Z" fill="white"/>
<path d="M30.0502 42.9109C29.8971 42.6922 29.7877 42.3843 29.7221 42.1218C29.6346 41.8375 29.6127 41.4859 29.6127 41.1797C29.6346 40.325 30.1393 39.514 30.9502 39.2515C31.0815 39.1859 31.1909 39.1203 31.344 39.0765C31.2784 39.0765 30.7299 39.1203 30.0502 39.5375C28.844 40.2609 29.4143 42.189 29.3268 42.1672C28.319 42.014 27.508 40.15 28.8002 38.3531H28.7784C28.3393 38.3093 28.0549 38.4625 27.8799 38.5937C27.3971 38.9875 27.0908 41.0265 28.1643 42.1656C28.494 42.5609 29.3924 42.889 30.0502 42.9109Z" fill="#E3E4E7"/>
<path d="M33.5127 36.0736V36.1611C33.5346 36.5783 34.1268 36.2705 34.8283 36.4018C36.0565 36.6424 36.4065 36.3799 36.8221 36.183C36.7565 36.2049 36.669 36.2268 36.6033 36.2486C36.3846 36.3143 36.1424 36.3361 35.9018 36.3143C35.1346 36.2486 35.1127 36.2049 35.0908 36.0955C34.9158 35.5689 35.9455 35.2846 35.9674 35.3064C35.5736 35.1752 34.608 35.2408 34.1268 35.9643C34.3455 34.9783 35.1565 34.758 36.2533 34.7143C36.2315 34.7143 34.1486 34.1002 33.5799 35.8971L33.558 35.9627V35.9846L33.5127 36.0736Z" fill="#E3E4E7"/>
<path d="M32.8548 44.2485C32.7017 44.0297 32.8767 43.6563 32.8767 43.6782C31.9564 44.7735 32.1314 45.8704 32.8329 46.4172L32.8548 46.4391C32.7454 46.286 32.6142 45.8907 32.6798 45.4094V45.3875L32.7017 45.2344V45.1907L32.7454 45.0375L32.7673 44.9938L32.8329 44.8188V44.7969C32.9642 44.4469 33.1829 44.0735 33.5564 43.7235C33.2282 43.875 32.8548 44.2485 32.8548 44.2485Z" fill="#E3E4E7"/>
<path d="M35.7921 42.6266C35.7921 42.6484 35.5296 42.7141 35.2436 42.3641C35.2218 42.3422 35.1999 42.9344 36.4046 43.0656H36.4265C36.0327 42.825 35.9655 42.1453 36.0327 41.8594C35.7702 42.0344 35.7265 42.4297 35.7921 42.6266Z" fill="#E3E4E7"/>
<path d="M39.8032 36.972C39.1673 37.0157 38.4657 37.3001 38.2032 37.4767C37.1517 38.1782 36.4501 39.2298 36.4064 40.6548C36.3845 41.1376 36.472 41.9923 37.9189 41.9485C37.9189 41.9485 37.6564 41.7517 37.5251 41.6423C37.372 41.511 37.2189 41.3798 37.1079 41.2032C36.3407 39.997 37.1517 38.4204 38.2032 37.7188C38.1157 37.872 38.1157 38.0251 38.1157 38.0688H38.1376C38.9704 37.0829 40.6142 37.0829 40.6142 37.0829C40.372 36.972 40.0876 36.9501 39.8032 36.972Z" fill="#E3E4E7"/>
<path d="M34.3234 43.6564C33.9734 43.3502 34.0609 43.0205 34.0609 42.9768C34.0828 42.9111 33.5125 43.7877 34.85 44.358C34.3016 43.9189 34.6313 42.9768 34.7406 42.8018C34.4328 43.0205 34.3453 43.6783 34.3234 43.6564Z" fill="#E3E4E7"/>
<path d="M32.3938 36.5109H32.4375H32.5469C32.8969 36.4671 33.1391 36.1609 33.0953 35.8312V35.8093L33.0516 35.8531L32.9203 35.875L32.8984 35.8968L32.8547 35.9187C32.8766 36.1375 32.7234 36.2906 32.5266 36.3359H32.4172L32.3734 36.3796C32.3297 36.4234 32.3078 36.4453 32.2422 36.489L32.3938 36.5109Z" fill="#6F163D"/>
<path d="M32.8766 35.6344L33.0297 35.6125C32.9859 35.525 32.9203 35.4594 32.8328 35.3938C32.8109 35.5032 32.8109 35.6125 32.7891 35.7L32.8328 35.7657L32.8766 35.6344Z" fill="#6F163D"/>
<path d="M33.0952 35.0205L33.0077 34.9111C32.9858 34.8892 32.9202 34.8455 32.964 34.7361L32.9202 34.758L32.8108 34.8455C32.7015 34.9548 32.6577 35.1298 32.6577 35.2845L32.7671 35.3283L32.8546 35.3939C32.8765 35.2626 32.9202 35.1298 33.0952 35.0205Z" fill="#AAAFB6"/>
<path d="M32.0658 36.4892L31.9346 36.5767L31.8252 36.6423L31.9346 36.686C32.0002 36.6642 32.1971 36.5329 32.2408 36.511L32.1314 36.4673L32.0658 36.4892Z" fill="#AAAFB6"/>
<path d="M33.139 36.3141C33.4233 35.9422 33.3358 35.3282 33.0952 35.0422C32.9421 35.1516 32.8765 35.2829 32.8546 35.4141C32.9421 35.4797 33.0077 35.5454 33.0515 35.6329L32.8983 35.6547L32.8546 35.8079L32.8327 35.8954L32.8983 35.9172L32.9421 35.8954L32.964 35.8735L33.0952 35.8516L33.139 35.8079V35.8297C33.1827 36.1797 32.9202 36.4876 32.5905 36.5094H32.4812H32.4374H32.4155C32.328 36.4876 32.2843 36.4657 32.2843 36.4657C32.2405 36.5094 32.0655 36.6188 31.978 36.6407C32.3499 36.7735 32.9421 36.5547 33.139 36.3141Z" fill="white"/>
<path d="M29.7203 37.5407L29.7859 37.6282V37.65L29.8078 37.7157V37.7594V37.8032V37.825C29.7859 37.9563 29.6766 38.0219 29.5672 38.0875C29.5672 38.1094 29.5672 38.1313 29.6547 38.0875C29.6547 38.0875 30.0938 37.8907 29.8516 37.5172C29.7422 37.3641 29.4797 37.211 29.1937 37.2766H29.1719C29.3922 37.3 29.6328 37.4094 29.7203 37.5407Z" fill="white"/>
<path d="M40.1094 35.5032C39.6266 35.5251 38.7281 35.8751 38.3781 36.7313C38.6406 36.5126 38.9484 36.3594 39.2766 36.2704C40 36.0735 40.811 36.1391 41.1391 36.2047C41.6875 36.336 42.2781 36.5547 42.8485 36.9063C42.3656 36.2485 41.1172 35.8547 40.4375 35.7891C40.5031 35.7454 40.5906 35.7016 40.7 35.6797C41.1828 35.0219 40.2172 34.4297 39.2969 33.8172C39.3625 33.861 39.4281 33.8829 39.5156 33.9266C37.85 33.0282 35.9438 32.2829 35.1547 32.0204C35.0453 31.9766 34.9797 31.9547 34.9141 31.9329C35.8578 32.3032 39.9781 34.2094 40.1094 35.5032Z" fill="#E3E4E7"/>
<path d="M29.6108 41.2018C29.6108 41.508 29.6327 41.8596 29.7202 42.144C29.7858 42.4065 29.8952 42.6924 30.0483 42.933C30.0483 42.933 30.2671 42.933 30.3765 42.933C30.1796 42.7143 30.0483 42.3408 29.9593 42.0565C29.8718 41.7721 29.8499 41.4205 29.8499 41.1143C29.8718 40.5877 30.0687 40.1064 30.3983 39.733C30.5515 39.558 30.7265 39.4049 30.9249 39.2939C30.1374 39.5361 29.6327 40.3252 29.6108 41.2018Z" fill="#AAAFB6"/>
<path d="M32.0003 36.0296C31.694 36.5125 31.08 36.4468 31.1456 36.4234L31.2769 36.3796L31.2987 36.3578C31.5612 36.2484 31.8034 36.0078 31.7815 35.4812C31.5409 36.0515 31.2112 36.2046 30.5987 36.2046C30.5112 36.2046 30.4019 36.2046 30.2925 36.1828L30.3144 36.2046H30.3362L30.4894 36.2703C30.73 36.3796 31.1472 36.5109 31.5409 36.5109H31.5628C31.7597 36.5546 31.9784 36.2265 32.0003 36.0296Z" fill="#AAAFB6"/>
<path d="M27.9453 36.511L27.8797 36.4891L27.7266 36.4016C27.7266 36.4016 27.8578 36.7079 28.1438 36.8407C28.3406 36.4469 28.5156 36.336 28.5156 36.336L28.4719 36.2922C28.2297 36.4672 28.0766 36.511 27.9453 36.511Z" fill="#AAAFB6"/>
<path d="M30.597 36.2047C31.2111 36.2047 31.5392 36.0297 31.7798 35.4812C31.7798 35.1312 31.6704 34.7578 31.5173 34.4734L31.4736 34.3203C31.4298 33.7937 32.3939 33.2031 35.2876 32.3484C34.9376 32.0421 33.5564 32.8968 32.1314 32.8531C30.8157 33.0062 30.5751 33.5109 30.5751 33.5109C30.5314 33.2703 30.7939 32.9625 31.1673 32.7875C30.9048 32.8531 30.4657 33.0281 29.8954 33.3359C29.8079 33.4015 29.6986 33.4672 29.6111 33.5328C28.2298 34.5187 27.4189 35.8343 27.8579 36.514L27.9235 36.5359C28.0548 36.5359 28.186 36.4922 28.4501 36.3172C27.9892 36.164 28.3845 35.375 28.6251 35.0453V35.0672C28.5814 35.5718 28.6032 35.8125 28.8439 36.1187C28.6689 35.7015 29.0845 34.3656 30.2251 33.7734C30.1376 33.8609 29.086 34.9797 29.6767 36.1187C29.6767 36.0312 29.6548 35.2422 30.5532 34.6937C30.2689 35.1078 30.247 35.8312 30.597 36.2047Z" fill="#E3E4E7"/>
<path d="M37.1065 36.0955L37.0408 36.1173L36.8658 36.183L36.8221 36.2048C36.4049 36.3798 36.033 36.6658 34.8283 36.4236C34.1268 36.2705 33.5346 36.5986 33.5127 36.183V36.1173V36.0955C33.4689 36.183 33.4252 36.2705 33.3596 36.358L33.3158 36.4017C33.2721 36.4673 33.2064 36.5111 33.1408 36.5548L33.1189 36.5767L33.0752 36.5986C32.8783 36.708 32.6361 36.7955 32.3955 36.8611C32.483 36.9267 32.658 36.9267 32.8346 36.9048C32.9439 36.883 33.0533 36.8611 33.1846 36.8392C33.4689 36.7736 33.7768 36.6642 34.083 36.6205C34.2799 36.5767 34.4768 36.5548 34.6533 36.5767L34.8064 36.5986L34.9815 36.6423H35.0033C35.2877 36.708 35.5518 36.7298 35.7486 36.7298C36.5596 36.7517 36.6908 36.3798 37.0205 36.1814C37.108 36.1158 37.2174 36.0939 37.3486 36.072L37.2611 36.0939L37.1955 36.1158L37.1065 36.0955Z" fill="#AAAFB6"/>
<path d="M30.883 43.3063C30.6862 43.4813 30.3783 43.8767 30.4893 44.4017C30.4893 44.4235 30.9502 43.9407 31.6955 43.7876C31.9362 43.5032 32.0674 43.3704 32.2877 43.2173C32.2627 43.2188 31.5174 43.3282 30.883 43.3063Z" fill="#AAAFB6"/>
<path d="M40.7237 35.6563H40.7675C40.9644 35.6126 41.1612 35.6344 41.3597 35.6563C41.4909 35.6782 41.8206 35.7438 42.1487 35.8969L42.1925 35.9188L42.0831 35.7657L42.0394 35.7219C41.93 35.5907 41.7987 35.4594 41.6675 35.3501L41.5581 35.2626C41.0097 34.7797 40.2644 34.2985 39.519 33.925C39.4534 33.8813 39.3878 33.8594 39.3003 33.8157C40.2409 34.4063 41.2065 34.9766 40.7237 35.6563Z" fill="#AAAFB6"/>
<path d="M34.7171 59.8971L34.564 59.8752H34.5202H34.4983H34.4765C34.2796 59.919 34.0827 60.0721 33.928 60.094C33.928 60.094 33.9499 60.094 33.8405 60.2909L33.8187 60.3127C33.6874 60.5971 33.4905 60.8612 33.2702 61.0799L33.2483 61.1018C33.0296 61.3424 32.7437 61.5628 32.3718 61.7378C32.2187 61.8034 32.0874 61.869 31.9546 61.8909H31.9765C32.1515 61.869 32.3265 61.8253 32.4812 61.7815C33.8624 61.4534 34.3015 60.6206 34.7171 59.8971Z" fill="#E3E4E7"/>
<path d="M27.0032 55.7109C26.3454 56.2594 26.0392 57.0484 25.9517 57.3109C26.1923 57.5953 26.4563 57.8813 26.7188 58.1438L26.8063 58.2313C26.6517 57.5734 26.6298 56.7188 27.0032 55.7109Z" fill="white"/>
<path d="M33.0297 60.0736C32.3719 59.4814 32.2844 59.0877 32.3938 58.5392C32.5031 57.8814 32.8547 57.5095 32.5688 56.9173C32.2844 56.3252 31.9328 56.5455 31.9328 56.5455C30.8813 57.5314 32.3938 59.7674 32.3938 59.7674C32.3938 59.7674 29.9828 59.6361 29.15 57.1595C28.9313 56.5455 28.2078 58.1892 27.8125 59.1314C28.9078 60.0736 30.1141 60.8845 31.3844 61.5424C32.1094 61.3002 33.0078 60.8408 33.0297 60.0736Z" fill="white"/>
<path d="M27.8798 52.7297C27.8798 52.7297 27.8142 52.511 27.7485 52.2688C27.1345 52.8172 25.3376 52.9922 25.3376 52.9922C25.3376 52.9922 25.4032 52.2688 25.2939 51.9407C24.3954 52.4016 22.9267 52.2251 22.686 52.1813C23.4532 53.9782 24.4829 55.6657 25.7985 57.1563C25.4907 56.3688 24.8767 54.0016 27.8798 52.7297Z" fill="white"/>
<path d="M39.672 61.8487C39.3001 62.0237 37.8095 62.3315 37.8095 62.3315C37.8095 62.3315 37.8751 59.5924 38.7298 57.2471C38.9267 56.7205 39.4532 55.5596 39.8251 55.1205C39.036 54.8361 38.8392 54.5721 38.4657 54.3096C38.4001 54.4189 38.3126 54.7268 38.3345 54.9455C38.4657 56.0627 38.4439 57.6408 37.8517 58.9127L37.6329 58.3643C37.5235 58.8908 37.0626 59.8986 36.4267 60.5565L36.536 59.7674C36.361 59.9424 36.2735 60.0736 36.1642 60.1611C36.1642 60.1611 35.7251 61.8486 33.8407 62.419C33.7532 62.4408 33.622 62.4846 33.4907 62.5065C35.5298 63.2518 37.6985 63.6674 39.9564 63.6674C39.7595 63.1408 39.561 62.3737 39.672 61.8487Z" fill="white"/>
<path d="M27.8797 32.9829C28.0766 32.8298 29.9844 31.361 31.4969 31.2954C31.4969 31.2954 32.4828 31.361 32.636 31.3391C32.7016 31.3172 33.9078 30.5501 35.0469 30.5501C35.6391 30.5501 37.4578 31.1422 37.6547 31.4266C37.6547 31.4266 41.0735 31.9532 44.2079 33.3548C44.6469 31.7329 45.786 29.6719 46.8157 28.7735C47.2766 28.3797 47.6922 28.0719 48.0876 27.8532C45.5891 26.6704 42.8485 26.0344 40 26.0344C34.9813 26.0344 30.2469 27.9844 26.6953 31.536C25.6438 32.5876 24.7453 33.7282 24 34.9548C24.7016 35.086 25.4906 35.3719 26.2359 35.9626C26.0609 35.2407 26.5641 34.0126 27.8797 32.9829Z" fill="white"/>
<path d="M56.9424 44.1392C56.7893 44.6438 57.5346 45.586 57.5346 45.586C57.5346 45.586 56.0877 45.9142 54.8611 45.411C54.7299 45.7829 55.4533 46.6829 55.4533 46.6829C55.4533 46.6829 53.283 46.6173 52.3408 46.0032C52.1658 46.2876 52.2752 47.3407 52.2752 47.3407C52.2752 47.3407 50.9596 46.5079 50.4346 46.4423C51.3549 47.4282 51.1799 48.1517 50.983 49.3798C50.983 49.3798 51.8596 49.6204 52.1439 49.8845C53.2174 49.972 54.1611 50.4985 54.358 51.2439C54.4455 51.5501 54.4674 52.2517 53.5471 52.9751C54.6205 53.6767 55.3658 54.4001 55.8705 55.0142C57.7549 52.0767 58.8737 48.5923 58.8737 44.8438C58.8737 44.6907 58.8737 44.5376 58.8737 44.361C58.3674 44.4235 57.6658 44.4235 56.9424 44.1392Z" fill="white"/>
<path d="M52.2952 29.1908C52.6452 29.2126 52.9749 29.2345 53.303 29.2345C52.5358 28.5548 51.703 27.9626 50.8483 27.4158C50.6733 27.5689 50.5421 27.7439 50.4546 27.9205C51.0905 28.2923 51.7046 28.708 52.2952 29.1908Z" fill="#6F163D"/>
<path d="M42.8499 64.2157C41.9295 64.347 40.9874 64.4126 40.0217 64.4126C34.7389 64.4126 29.7858 62.3516 26.0608 58.6266C23.9123 56.4782 22.3342 53.936 21.3701 51.1532C21.1076 51.1313 20.8654 51.0875 20.6904 51.0657C21.6764 54.0469 23.342 56.786 25.6217 59.0657C29.4576 62.9016 34.5858 65.0266 40.0217 65.0266C41.0952 65.0266 42.1483 64.9391 43.1999 64.786C43.0905 64.6095 42.9592 64.4126 42.8499 64.2157Z" fill="#6F163D"/>
<path d="M71.2988 41.2891V41.5516H71.7379V42.8016H72.066V41.5516H72.5051V41.2891H71.2988ZM72.7238 41.2891V42.8016H73.0082V41.7938V41.6625V41.5531L73.2926 42.825H73.6207L73.9051 41.5531V41.6625V41.7938V42.8016H74.1895V41.2891H73.7504L73.466 42.4719L73.1816 41.2891H72.7238Z" fill="#1E3249"/>
</svg>
