<svg width="80" height="80" viewBox="0 0 80 80" fill="none" xmlns="http://www.w3.org/2000/svg">
<path d="M76.468 9.62222C75.4716 9.27306 74.44 8.93071 73.3993 8.60196V5.58198L72.6114 5.21695C72.4981 5.16253 69.6878 3.87247 64.2589 2.5824C55.284 0.447782 46.215 0 40.1875 0C29.2661 0 21.07 1.40456 16.1161 2.58693C10.6871 3.877 7.88026 5.16707 7.7635 5.22035L6.97563 5.58651V8.60536C5.93382 8.93524 4.90222 9.27873 3.9069 9.62562L3 9.94304V32.7833L7.84058 38.1375C8.88692 45.0106 10.9014 51.3487 13.8148 56.9772C16.2427 61.6899 19.3934 65.9935 23.1525 69.7316C29.7933 76.3066 36.5191 79.1906 39.1479 79.7959C39.5005 79.8764 39.9415 79.9558 39.9415 79.9569L40.1829 80L40.4233 79.9569C40.4233 79.9569 40.8767 79.8764 41.2259 79.7948C43.8457 79.1906 50.5522 76.3191 57.1783 69.7713C60.9267 66.0497 64.0715 61.766 66.4989 57.0747C69.4226 51.4757 71.437 45.1659 72.5015 38.3245L77.3761 32.7697V9.93963L76.468 9.62222Z" fill="#DE0316"/>
<path d="M68.3434 30.4583L68.2981 30.4469C67.1043 63.1895 45.5462 73.7787 40.8949 74.8737C40.6126 74.9406 40.2442 75.0086 40.2442 75.0086C40.2442 75.0086 39.8769 74.9406 39.5969 74.8749C34.949 73.7775 13.3761 63.1906 12.1904 30.4299L12.145 30.4413C12.5599 64.6768 34.8618 75.6378 39.5969 76.7556C39.8769 76.8213 40.2442 76.8893 40.2442 76.8893C40.2442 76.8893 40.6126 76.8213 40.8949 76.7556C45.6346 75.6344 67.9228 64.6688 68.3434 30.4583Z" fill="#DE0316"/>
<path d="M76.0772 10.7921C74.7546 10.3311 73.4275 9.89614 72.0959 9.48728V6.33693C72.0959 6.33693 61.128 1.24695 40.241 1.24695C19.3539 1.24695 8.38608 6.33693 8.38608 6.33693V9.48728C7.05445 9.89614 5.72735 10.3311 4.40479 10.7921V32.1451L9.17849 37.4164C13.5441 67.2399 34.6533 77.2407 39.503 78.3562C39.8204 78.4299 40.2376 78.5047 40.2376 78.5047C40.2376 78.5047 40.6559 78.4299 40.9744 78.3562C45.8184 77.2396 66.8381 67.2784 71.2672 37.6125L76.0704 32.1451L76.0772 10.7921Z" fill="#061A33"/>
<path d="M68.3434 30.4583L68.2981 30.4469C67.1043 63.1895 45.5462 73.7787 40.8949 74.8737C40.6126 74.9406 40.2442 75.0086 40.2442 75.0086C40.2442 75.0086 39.8769 74.9406 39.5969 74.8749C34.949 73.7775 13.3761 63.1906 12.1904 30.4299L12.145 30.4413C12.5599 64.6768 34.8618 75.6378 39.5969 76.7556C39.8769 76.8213 40.2442 76.8893 40.2442 76.8893C40.2442 76.8893 40.6126 76.8213 40.8949 76.7556C45.6346 75.6344 67.9228 64.6688 68.3434 30.4583Z" fill="#DE0316"/>
<path d="M7.37793 13.1989C8.47981 12.8384 9.58888 12.4983 10.7051 12.1786C10.9575 14.495 11.21 16.811 11.4624 19.1266C11.5123 19.8306 11.5383 20.1831 11.5882 20.8871L11.7356 19.0495C12.0016 16.588 12.2684 14.1273 12.5359 11.6673C13.6582 11.365 14.7862 11.0805 15.9198 10.8137V26.6573C14.9109 26.8942 14.4064 27.0189 13.4009 27.2808V17.5089L13.2535 20.0029L12.4305 27.5358C11.7141 27.7297 11.3558 27.8306 10.6428 28.0369C10.3699 25.6873 10.0971 23.3369 9.8243 20.9857L9.67692 18.5496V28.3203C8.75529 28.5969 8.29503 28.7409 7.37793 29.039V13.1989Z" fill="#DE0316"/>
<path d="M16.9688 10.5722C18.7236 10.1811 20.483 9.82629 22.2605 9.52588V12.1094C21.1983 12.2919 20.6734 12.3894 19.6101 12.5991V16.5544C20.6428 16.3503 21.1598 16.2539 22.1959 16.076V18.621C21.1598 18.7989 20.6428 18.8942 19.6101 19.0994V23.4003C20.6678 23.1906 21.1972 23.0931 22.2605 22.9106V25.3728C20.4875 25.6744 18.7236 26.0292 16.9688 26.4192V10.5722Z" fill="#DE0316"/>
<path d="M23.3179 9.34906C24.3812 9.17788 24.914 9.09966 25.9808 8.95569V22.3404C26.9353 22.2112 27.4137 22.1522 28.3693 22.0445V24.5045C26.6802 24.7055 24.9964 24.9353 23.3179 25.1938V9.34906Z" fill="#DE0316"/>
<path d="M29.2955 8.55997C30.4654 8.43641 31.641 8.33325 32.8098 8.25503C35.4046 7.97729 35.7935 10.0008 35.8162 12.0867C35.8275 13.1738 35.9794 14.9842 34.7959 15.6191C36.2492 16.0872 35.9193 18.5166 35.9204 19.6298C35.9204 21.82 35.4103 23.992 32.8279 24.0974C31.6478 24.1779 30.4654 24.28 29.2876 24.4047L29.2955 8.55997ZM32.5343 14.8607C33.2258 14.8108 33.2689 14.4888 33.2689 12.7793C33.2689 11.0698 33.2474 10.7037 32.5343 10.7558C32.2917 10.7728 32.1704 10.7819 31.9289 10.8012V14.906L32.5343 14.8607ZM32.5774 21.7214C33.312 21.6681 33.355 21.1761 33.355 19.487C33.355 17.7979 33.312 17.3705 32.5774 17.4238C32.3178 17.4419 32.1885 17.4521 31.9289 17.4725V21.7701L32.5774 21.7214Z" fill="#DE0316"/>
<path d="M44.7162 19.4451V8.0918C45.7897 8.13714 46.3259 8.16662 47.3972 8.23917V19.6571C47.3972 21.3462 47.4414 21.7316 48.1976 21.7883C48.9537 21.845 48.9968 21.4663 48.9968 19.7772V8.35933C50.042 8.44549 50.5634 8.49537 51.6041 8.6076V19.962C51.6574 22.5569 51.0464 24.4478 48.1295 24.2698C45.2581 24.0827 44.6992 21.9867 44.7162 19.4451Z" fill="#DE0316"/>
<path d="M52.5552 8.71423C53.7402 8.85027 54.9229 9.0086 56.1034 9.18922C58.9284 9.64267 59.1733 12.3452 59.1642 14.7236C59.1642 16.1678 59.3116 18.3591 57.9013 19.2921C58.2951 21.3697 58.6877 23.448 59.0792 25.527C58.043 25.3411 57.525 25.2538 56.4866 25.0929L55.4561 19.5506L55.1342 19.5041V24.8922C54.1026 24.746 53.5856 24.6791 52.5518 24.5589L52.5552 8.71423ZM55.7599 17.1348C56.5115 17.2482 56.5002 16.5136 56.5331 14.4719C56.5444 13.7079 56.7961 11.9156 55.7599 11.6379L55.1376 11.5472V17.043L55.7599 17.1348Z" fill="#DE0316"/>
<path d="M59.9873 9.849C61.1153 10.0633 61.6775 10.1778 62.801 10.4215C63.1705 12.1998 63.539 13.9784 63.9063 15.7575C64.0854 16.704 64.1738 17.1779 64.3529 18.1267V10.7706C65.346 10.9974 65.8413 11.1243 66.8299 11.3794V27.2241C65.8334 26.9668 65.3335 26.8432 64.3359 26.6108C63.862 24.4645 63.3874 22.3189 62.9121 20.1741C62.7341 19.2966 62.6445 18.8579 62.4654 17.9816V26.1925C61.478 25.9816 60.9826 25.8819 59.9918 25.6937L59.9873 9.849Z" fill="#DE0316"/>
<path d="M67.8696 11.6559C69.6154 12.1286 71.351 12.6387 73.0707 13.1999V15.7868C72.0368 15.4467 71.5176 15.2903 70.477 14.9808V18.9372C71.4972 19.2387 71.9983 19.3906 73.0072 19.7228V22.2666C71.9983 21.9401 71.4927 21.7826 70.477 21.481V25.7797C71.5176 26.0881 72.0368 26.2491 73.0707 26.5857V29.0446C71.351 28.4778 69.6154 27.9733 67.8696 27.5006V11.6559Z" fill="#DE0316"/>
<path d="M37.7104 23.1566C36.8126 22.0876 36.7695 20.0561 36.7695 15.9082C36.7695 11.9314 36.8126 9.89999 37.6458 8.7879C38.1594 8.14627 39.0152 7.86853 40.2974 7.86853C41.5795 7.86853 42.4569 8.14627 42.9274 8.74482C43.8048 9.83537 43.8264 11.8668 43.8264 15.9082C43.8264 20.3293 43.8048 22.2565 42.9059 23.2428C42.4365 23.7767 41.5806 23.9694 40.2985 23.9694C39.0357 23.9694 38.1809 23.7336 37.7104 23.1566ZM41.1533 15.9728C41.1533 10.7978 41.1533 10.4985 40.2974 10.4985C39.4642 10.4985 39.4642 10.7978 39.4642 15.9728C39.4642 21.1875 39.4642 21.4675 40.2974 21.4675C41.1533 21.4675 41.1533 21.1898 41.1533 15.9728Z" fill="#DE0316"/>
<path d="M33.6214 34.9814H29.5029L31.0753 36.6241L31.0741 62.5014L29.5743 64.127H35.128L33.6384 62.5014V42.8386L38.4189 56.4455V49.0872L33.6214 34.9814Z" fill="#DE0316"/>
<path d="M30.4665 38.8074C30.3214 38.8947 30.1706 38.9797 30.0255 39.0613C29.8804 39.1429 29.7433 39.22 29.605 39.3028C29.346 39.4586 29.0965 39.6297 28.8579 39.8152C28.4118 40.1553 27.9867 40.5222 27.5848 40.9137C26.8281 41.6517 26.1642 42.4793 25.6078 43.3782C25.073 44.2392 24.6322 45.1551 24.2928 46.1102C24.1794 46.4321 24.0661 46.762 23.9527 47.0794C23.8983 47.2416 23.8393 47.4025 23.7872 47.5635C23.6251 48.034 23.4879 48.4217 23.3553 48.7822C23.3526 48.79 23.3492 48.7976 23.3451 48.8048C23.3296 48.8331 23.3203 48.8645 23.3179 48.8967C23.3211 48.9325 23.3319 48.9673 23.3496 48.9987L23.3621 49.0259L23.5208 49.4612C23.5571 49.5587 23.5911 49.6573 23.6251 49.7571L24.2361 51.5289C24.5026 52.3006 24.8336 53.0484 25.2258 53.7644C25.988 55.1667 27.0008 56.4173 28.214 57.4544C28.6531 57.8431 29.125 58.1931 29.6242 58.5007C29.7569 58.5789 29.894 58.656 30.0255 58.7275C30.157 58.7989 30.3214 58.8941 30.4665 58.9803L30.5368 59.0222V55.5692C30.1102 55.2403 29.7075 54.8815 29.3318 54.4956C28.7235 53.8729 28.2054 53.1681 27.7923 52.4018C27.3629 51.608 27.0802 50.7431 26.9579 49.8489C26.8124 48.7193 26.9315 47.5713 27.306 46.4956C27.5906 45.6955 27.9959 44.9435 28.5076 44.2658C29.0509 43.5453 29.6845 42.8976 30.3928 42.3386C30.4416 42.2989 30.4915 42.2615 30.5413 42.2253V38.7677L30.4665 38.8074Z" fill="#DE0316"/>
<path d="M44.2301 58.2639C43.0218 58.5272 41.7902 58.6689 40.5537 58.6867H40.2624C39.2036 58.6874 38.1467 58.5983 37.103 58.4203C36.106 58.2499 35.1261 57.9916 34.1748 57.6483V60.5617C35.3347 60.891 36.52 61.1227 37.7185 61.2544C38.5632 61.3488 39.4125 61.3961 40.2624 61.3961C40.8292 61.3961 41.396 61.3757 41.9628 61.3349C43.327 61.2357 44.6791 61.0107 46.0019 60.6626C46.1028 60.6354 46.2082 60.6071 46.3205 60.5742V57.6642C45.6372 57.9084 44.9389 58.1087 44.2301 58.2639Z" fill="#DE0316"/>
<path d="M38.4204 39.194V36.4733L38.2005 36.4925C37.0843 36.5918 35.9773 36.776 34.8892 37.0435L35.7779 39.6508C36.6461 39.4327 37.5294 39.28 38.4204 39.194Z" fill="#DE0316"/>
<path d="M49.4186 42.8533L49.4175 36.6241L50.9898 34.9814H46.8714L42.0659 49.1087V56.4455L42.0727 56.4467L46.8544 42.8386L46.8555 61.1603H46.8544V62.5014L45.3648 64.127H50.9184L49.4186 62.5014V42.8533Z" fill="#DE0316"/>
<path d="M51.8366 43.7636C52.2248 44.2096 52.5667 44.6938 52.8568 45.209L52.8931 45.2748L55.5515 42.8307L55.5004 42.7876C55.1263 42.477 54.7523 42.155 54.3906 41.8421C54.1333 41.6211 53.868 41.3887 53.605 41.1699L53.3488 40.9511C53.0756 40.7176 52.7933 40.4761 52.5031 40.2528C52.1302 39.9671 51.7357 39.686 51.331 39.4321C51.0736 39.2688 50.8152 39.1158 50.6191 39.0001C50.4211 38.8798 50.2172 38.7697 50.008 38.6703H49.999L49.9536 38.6476V42.0485C50.6445 42.5466 51.2763 43.1221 51.8366 43.7636Z" fill="#DE0316"/>
<path d="M52.8544 52.5799C52.2876 53.6149 51.4408 54.5807 50.3491 55.4536C50.2233 55.5545 50.0918 55.6543 49.958 55.7529V59.1538L49.9977 59.1334H50.0079C50.3786 58.9542 50.7376 58.7517 51.0826 58.5269L51.1699 58.4724C51.578 58.2185 51.9759 57.9476 52.3511 57.6653C52.6651 57.4306 52.9667 57.1744 53.258 56.9273L53.4643 56.7516C53.8044 56.4637 54.1445 56.1723 54.5209 55.8447L54.6909 55.6996C54.955 55.4729 55.2271 55.2371 55.4992 55.0115L55.5502 54.9684L52.8896 52.5198L52.8544 52.5799Z" fill="#DE0316"/>
<path d="M41.5295 52.6932V39.1894C42.6016 39.2588 43.6656 39.4219 44.7093 39.6769L45.6094 37.0299C44.5694 36.7762 43.5123 36.5985 42.4466 36.4982C42.1462 36.4699 41.8355 36.4461 41.5249 36.4291L41.5306 33.4057C41.8627 33.4057 43.5076 33.4283 44.1674 33.5009C44.8975 33.5814 46.1161 33.9884 46.1274 33.9929L46.2034 34.0178L46.2646 30.8856H37.5142L38.8484 32.5146L38.9618 33.4215V58.1051H39.0162C39.4493 58.1357 39.8098 58.1482 40.1906 58.1482C40.5715 58.1482 40.9649 58.1357 41.4762 58.1153H41.5329V57.5111L41.5295 52.6932Z" fill="#DE0316"/>
<path d="M40.2374 64.1247L42.2654 61.9323H38.2104L40.2374 64.1247Z" fill="#DE0316"/>
</svg>
