<svg width="80" height="80" viewBox="0 0 80 80" fill="none" xmlns="http://www.w3.org/2000/svg">
<path d="M73.6465 58.0252C70.6785 56.3367 68.6599 55.5583 66.2322 54.8357C63.3688 53.9829 60.3928 53.0756 56.6646 50.2399C52.5672 47.1208 50.106 41.6536 49.6162 39.9792C51.2889 39.7003 54.3023 41.624 56.3777 41.8854C60.5332 42.4069 61.1638 45.8999 63.1512 48.5793C65.2516 51.4103 71.208 51.0598 74.3186 51.7688C75.5691 47.4339 78.9871 44.4216 78.4428 39.5196C77.9019 38.91 77.3537 38.2021 76.6884 37.7192C75.4572 37.4521 69.136 31.2611 68.6514 29.8782C67.3657 26.2131 63.8653 24.4075 62.4921 20.6504L62.4359 20.7203L62.3092 19.8646C59.4071 17.2063 49.0566 8.70455 45.958 7.09159L45.8415 7.11886L45.0671 6.85353C44.2569 6.59048 43.4729 6.42061 42.6224 6.36436L40.6333 6.23767C36.8489 0.69541 35.6666 3.28615 30.4379 0C30.9407 1.17492 31.8623 2.77766 32.5719 4.03383C23.6202 3.56057 18.2649 10.1488 13.1641 10.1681C13.9606 10.6289 14.9645 10.8885 15.8792 10.7766C13.2942 13.3588 9.31657 19.4226 5.42876 19.4567C7.7911 21.3532 10.7955 20.3873 10.7955 20.3873C8.77229 26.6346 9.64269 31.1173 2 33.9876C6.04633 34.9398 7.35136 34.6659 10.0887 33.3569C11.2369 38.9162 11.1148 45.1562 5.27933 48.1617C7.02468 48.0094 10.5449 47.7537 12.7203 45.3408C13.0703 52.6199 9.17283 55.0544 4.17031 57.7156C18.1921 60.4711 26.774 61.8909 39.0317 66.0554C51.2889 61.8909 59.6258 60.7796 73.6465 58.0252Z" fill="#FBBF15"/>
<path d="M35.1292 4.82031L38.1262 10.3171C37.7626 11.1262 37.4893 12.0142 37.1461 12.8312C36.8018 13.6516 36.3774 14.4049 35.7258 14.9617L35.5837 15.0895L35.6405 14.9049C35.849 14.2265 36.0098 13.914 36.2655 12.8738C36.2655 12.867 36.7723 10.8478 36.4217 9.8768C36.0985 8.97573 35.6684 8.35247 34.7599 8.11556C32.8157 7.60991 31.4312 8.361 29.462 9.42229C24.3663 12.1693 21.0591 16.2991 19.9455 21.6658C18.57 28.2932 21.0534 36.9773 21.0534 36.9773L20.954 37.0199C18.4087 32.5401 16.1333 22.5555 20.1444 14.9191C21.7261 11.9113 24.2509 9.83988 26.3798 8.52746C27.5416 7.81103 28.5967 7.32186 29.3057 7.02188C22.9766 8.79108 19.3444 11.1841 17.19 13.4845C16.0594 14.6918 15.3311 15.8787 14.8322 16.936C14.3345 17.9956 14.0578 18.9296 13.838 19.6347C12.546 23.7736 13.0204 28.5341 13.838 32.631C14.2459 34.6786 14.7351 36.5614 15.1447 38.1136C15.5538 39.6647 15.8787 40.8936 15.9401 41.6361C16.6145 46.8892 16.765 52.1252 10.145 57.0329C20.8523 59.398 28.6177 61.3201 39.0352 64.8591C49.2362 61.3928 56.7676 59.648 67.0874 57.4021C64.7449 57.1107 63.5688 56.9959 62.6984 56.905C61.7888 56.8113 61.2179 56.7425 60.0282 56.5641C56.4267 56.0238 51.1827 55.6852 47.6142 55.3284C46.2427 55.15 44.7729 54.9728 42.998 54.5472C41.222 54.1194 39.1363 53.4331 36.5212 52.2178C36.5087 52.2087 35.1627 51.5798 33.2401 50.2435C31.3141 48.9072 28.8018 46.8574 26.5218 43.9655C28.8279 45.5597 31.3908 47.3102 34.277 49.0646C35.6082 49.8742 37.1615 50.5492 38.5807 51.0815C39.9993 51.6128 41.2794 52.0087 42.0464 52.2746C44.9757 53.0473 47.6619 53.4359 54.7586 53.9791C55.762 54.0558 56.6449 54.1904 60.085 54.7177C58.9606 54.1166 58.1999 53.7172 57.4857 53.2831C56.7142 52.8127 56.0029 52.3002 54.9149 51.4508C54.0967 50.8139 53.486 50.1753 53.0258 49.6186C52.5735 49.072 52.2576 48.6124 52.0315 48.2976C50.9719 48.1857 47.6829 47.6147 44.9013 44.8319L44.9581 44.7467C44.9581 44.7467 45.6564 45.1552 46.7336 45.5563C47.8091 45.9557 49.2578 46.3506 50.81 46.3517L50.2135 45.0592L49.8442 44.42C49.6999 44.3876 48.5772 44.1121 46.9608 43.3406C45.2268 42.5116 42.9219 41.1009 40.7396 38.6818C40.7425 38.6857 45.4444 42.2185 48.5516 42.2185L48.7647 42.2327C48.3766 41.3856 48.0204 40.5305 47.6994 39.6902L47.3727 38.9942C42.9776 35.1706 38.9346 29.992 36.9189 24.8332L37.0183 24.7764L37.2029 25.0179C37.3472 25.2576 37.5063 25.4991 37.6574 25.7423C41.8634 32.0555 48.0045 39.338 55.4546 39.9175C56.429 39.3908 56.871 38.4022 57.0738 37.2614C57.1783 36.6864 57.2283 36.074 57.2443 35.4717C57.2568 34.8667 57.2443 34.273 57.2443 33.7247L57.3437 33.7105C57.5357 34.248 57.7079 34.8087 57.8408 35.3865C57.8993 35.6229 57.9487 35.8632 57.9828 36.0967C58.2277 37.4926 58.2362 38.9119 57.8976 40.1021C58.2243 40.5135 58.6561 40.8578 59.1333 41.1674L60.1844 41.7782C60.9412 42.1872 64.537 45.9875 63.991 47.3886C64.066 47.5409 64.1535 47.6914 64.2324 47.8289C66.3613 49.7072 70.5638 49.8458 70.5673 49.8458C70.5775 49.8458 73.2268 49.9322 73.6494 49.7606C74.2653 49.5146 76.3811 43.8763 76.3907 43.8519C76.4782 43.5496 76.4254 43.3059 76.2771 43.0991H76.1919L75.9788 43.0139C75.8271 42.9605 75.6436 42.9014 75.5527 42.815C74.792 42.1026 73.8614 40.4754 76.7742 40.4714C76.8589 40.4311 77.1589 40.2754 76.7742 40.1021C76.7742 40.1021 76.03 39.7811 75.2261 39.3067C74.4318 38.8374 73.5585 38.1971 73.2517 37.5739C73.212 37.525 72.8063 37.0597 72.6268 37.5171C72.4183 38.0528 73.2137 40.109 73.2233 40.1447C73.2233 40.1459 73.2125 41.2964 73.5642 42.0338L73.6068 42.119L73.5074 42.1048C73.387 42.0952 73.2961 42.1043 73.2802 42.0906C72.5563 41.4282 71.995 40.1618 71.4763 38.8238C71.2178 38.154 70.961 37.4563 70.7093 36.8069C70.4576 36.1615 70.211 35.5575 69.9423 35.0598C69.8264 34.8462 69.6935 34.6451 69.573 34.4775C69.2077 33.9372 69.0316 33.6736 68.7776 33.2134C68.6594 32.9952 68.5168 32.7441 68.3373 32.3754C67.6169 31.0419 67.4356 29.8414 66.6897 28.4552C65.9494 27.0785 64.6574 25.5082 61.7326 23.4271C61.4497 23.2134 60.4719 22.4197 60.4117 22.2624L60.6673 21.9783C60.6906 21.9431 60.7099 21.8857 60.7099 21.8363C60.7099 21.7419 60.3997 21.5215 60.3833 21.5096C58.551 19.9693 57.1335 18.4655 55.7245 17.3337C54.3189 16.2065 52.9337 15.4583 51.1651 15.402C50.6452 15.402 49.7425 15.4043 48.7505 15.2884C47.7585 15.1731 46.6768 14.9441 45.8103 14.4788L45.6257 14.3794L47.1313 14.3367C47.4148 14.2862 50.7407 13.9925 51.7759 14.0243C51.1526 13.6987 50.3896 13.4038 49.5601 13.1152C48.6221 12.7903 47.5966 12.4653 46.5489 12.0784C44.4462 11.3051 42.26 10.2921 40.626 8.55587C40.3999 8.21782 40.076 7.9775 39.6744 7.77467C39.271 7.56957 38.7937 7.39969 38.2682 7.16391C37.3251 6.74008 36.2314 6.12307 35.1292 4.82031ZM50.3555 19.862L55.0427 21.1829L55.5966 22.7311L55.0569 22.9015L54.4603 23.0862L50.3555 19.862Z" fill="#760135"/>
<path d="M28.0133 68.5945C25.3606 68.5945 23.1556 69.6535 23.1556 71.6199C23.1556 73.5845 25.3606 74.631 28.0133 74.631C30.6654 74.631 32.8851 73.5845 32.8851 71.6199C32.8851 69.6535 30.6654 68.5945 28.0133 68.5945ZM49.1625 68.5945C46.6666 68.5945 44.0065 69.6081 44.0065 71.6199C44.0065 73.63 46.6666 74.631 49.1625 74.631C51.4873 74.631 52.9264 74.0203 53.2389 74.0203C53.3469 74.0203 53.4184 74.039 53.4662 74.1197L53.6508 74.0345L52.0458 72.2732L51.8754 72.3584C51.9066 72.4158 51.9606 72.4482 51.9606 72.5147C51.9606 72.8414 49.892 73.1538 49.3471 73.1538C48.0836 73.1538 46.4354 72.7647 46.4354 71.6199C46.4354 70.4733 48.0836 70.0717 49.3471 70.0717C50.6715 70.0717 51.8754 70.3722 51.8754 70.5972C51.8754 70.6745 51.8629 70.7091 51.847 70.7534L52.0032 70.8387L53.3951 68.978L53.2247 68.9496C53.1611 69.0064 53.0929 69.0348 52.9974 69.0348C52.8423 69.0348 52.5259 68.9445 51.918 68.8217C51.2919 68.6979 50.4101 68.5945 49.1625 68.5945ZM58.6505 68.5945C56.0007 68.5945 53.7928 69.6535 53.7928 71.6199C53.7928 73.5845 56.0007 74.631 58.6505 74.631C61.3043 74.631 63.5223 73.5845 63.5223 71.6199C63.5223 69.6535 61.3043 68.5945 58.6505 68.5945ZM67.7834 68.5945C65.4887 68.5945 63.9911 69.3603 63.9911 70.4836C63.9911 72.6527 70.4253 71.7397 70.4253 72.5715C70.4253 73.0658 69.7117 73.3243 68.1527 73.3243C66.5295 73.3243 64.8717 72.8181 64.8717 72.5147C64.8717 72.4141 64.8683 72.3437 64.9001 72.2874L64.7438 72.2306L63.5934 74.2333L63.778 74.2617C63.87 74.193 63.9655 74.1197 64.0905 74.1197C64.4495 74.1197 65.6057 74.631 68.2095 74.631C71.5957 74.631 72.6127 73.5669 72.6127 72.5999C72.6127 70.016 66.15 71.2392 66.15 70.2421C66.15 69.9819 66.6108 69.7166 67.9681 69.7166C69.4345 69.7166 71.2207 70.0342 71.2207 70.3131V70.4268L71.4053 70.4978L72.4848 68.9354L72.3144 68.8928C72.203 68.9814 72.0911 69.0632 71.8883 69.0632C71.4673 69.0632 69.9208 68.5945 67.7834 68.5945ZM3.73926 68.6655V68.7933C4.12901 68.8155 4.17957 68.8911 4.17957 68.9922V74.2333C4.17957 74.3345 4.12901 74.4111 3.73926 74.4322V74.56H9.7616C11.9774 74.56 12.9148 73.7959 12.9148 72.8982C12.9148 72.0653 12.1558 71.6664 11.1109 71.4636V71.4494C11.9836 71.3153 12.6023 70.8875 12.6023 70.2137C12.6023 69.1024 11.3757 68.6655 9.69058 68.6655H3.73926ZM13.7244 68.6655V68.7933C14.1147 68.8155 14.1647 68.8911 14.1647 68.9922V74.2333C14.1647 74.3345 14.1147 74.4111 13.7244 74.4322V74.56H16.9344V74.4322C16.5447 74.4112 16.5083 74.3344 16.5083 74.2333V72.3442H18.0281C18.2298 72.5806 19.8888 74.1339 19.8888 74.2333C19.8888 74.3685 19.7655 74.4219 19.5479 74.4322V74.56H22.7863V74.4322C22.6142 74.4322 22.4727 74.3788 22.3318 74.2333L20.4995 72.3584C21.7938 72.1005 22.7295 71.5602 22.7295 70.5262C22.7295 69.2467 21.7438 68.6655 19.4343 68.6655H13.7244ZM33.5669 68.6655V68.7933C33.9583 68.8155 34.0072 68.8911 34.0072 68.9922V74.2333C34.0072 74.3345 33.9583 74.4111 33.5669 74.4322V74.56H36.5354V74.4322C36.1457 74.4112 36.0951 74.3344 36.0951 74.2333V70.6966C40.2147 74.0117 40.6119 74.1589 40.6119 74.3043C40.6119 74.3827 40.5374 74.4322 40.2568 74.4322V74.56H43.2111V74.4322C42.8197 74.4112 42.7708 74.3344 42.7708 74.2333V68.9922C42.7708 68.8911 42.8197 68.8155 43.2111 68.7933V68.6655H40.3562V68.7933C40.559 68.8053 40.6829 68.857 40.6829 68.9922V71.9891C39.5904 71.125 36.8905 69.0592 36.8905 68.9354C36.8905 68.8678 36.9718 68.8053 37.3308 68.7933V68.6655H33.5669ZM6.52317 69.8444H8.63951C9.98147 69.8444 10.3297 69.92 10.3297 70.3699C10.3297 70.8193 9.98147 70.8813 8.63951 70.8813H6.52317V69.8444ZM16.5083 69.9154H19.1218C20.0428 69.9154 20.3291 70.2137 20.3291 70.5404C20.3291 70.8659 20.0428 71.1511 19.1218 71.1511H16.5083V69.9154ZM28.0133 69.958C29.37 69.958 30.5699 70.5631 30.5699 71.6199C30.5699 72.676 29.37 73.2675 28.0133 73.2675C26.656 73.2675 25.4566 72.676 25.4566 71.6199C25.4566 70.5631 26.656 69.958 28.0133 69.958ZM58.6505 69.958C60.0089 69.958 61.2213 70.5631 61.2213 71.6199C61.2213 72.676 60.0089 73.2675 58.6505 73.2675C57.2949 73.2675 56.0938 72.676 56.0938 71.6199C56.0938 70.5631 57.2949 69.958 58.6505 69.958ZM6.52317 72.0318H9.16504C10.2576 72.0318 10.699 72.2056 10.699 72.6993C10.699 73.1959 10.2576 73.3811 9.16504 73.3811H6.52317V72.0318ZM62.7553 76.3497C62.7292 76.4951 62.6962 76.5201 62.5991 76.5201H58.196V76.5911C58.417 76.6048 58.4374 76.6485 58.4374 76.7048V79.6733C58.4374 79.7307 58.417 79.7767 58.196 79.7869V79.858H62.5991C62.6963 79.858 62.7292 79.8915 62.7553 80H62.8548V78.8921H62.7553C62.7292 79.0518 62.6962 79.091 62.5991 79.091H59.7584V78.4944H61.406C61.5838 78.4944 61.6367 78.5529 61.6617 78.6364H61.7753V77.6564H61.6617C61.6367 77.7399 61.5838 77.7984 61.406 77.7984H59.7584V77.2729H62.5991C62.6963 77.2729 62.7292 77.2973 62.7553 77.4433H62.8548V76.3497H62.7553ZM32.9561 76.4775C31.6602 76.4775 30.8114 76.9229 30.8114 77.557C30.8114 78.783 34.4475 78.2671 34.4475 78.7359C34.4475 79.0171 34.0538 79.162 33.1692 79.162C32.2522 79.162 31.3085 78.8796 31.3085 78.7075C31.3085 78.6501 31.3051 78.5967 31.3227 78.5654L31.2375 78.537L30.5841 79.6733L30.6977 79.6875C30.7506 79.6506 30.7977 79.6023 30.8682 79.6023C31.071 79.6023 31.725 79.9006 33.1976 79.9006C35.1117 79.9006 35.6832 79.2949 35.6832 78.7501C35.6832 77.2877 32.0329 77.9791 32.0329 77.4149C32.0329 77.2695 32.3022 77.1167 33.0698 77.1167C33.8992 77.1167 34.902 77.299 34.902 77.4575V77.5286L35.0014 77.5712L35.6122 76.6763L35.5128 76.6621C35.4526 76.7121 35.3997 76.7474 35.2855 76.7474C35.0458 76.7474 34.1663 76.4775 32.9561 76.4775ZM13.4119 76.5201V76.5911C13.6318 76.6048 13.6534 76.6485 13.6534 76.7048V79.6733C13.6534 79.7307 13.6318 79.7767 13.4119 79.7869V79.858H16.8208C18.0747 79.858 18.5963 79.4296 18.5963 78.9205C18.5963 78.4524 18.1639 78.2251 17.5736 78.1109V78.0967C18.0679 78.0217 18.4258 77.7808 18.4258 77.4007C18.4258 76.769 17.7315 76.5201 16.7782 76.5201H13.4119ZM20.2581 76.5201V76.5911C20.4791 76.6048 20.4995 76.6485 20.4995 76.7048V79.6733C20.4995 79.7307 20.4791 79.7767 20.2581 79.7869V79.858H22.0761V79.7869C21.8563 79.7767 21.8205 79.7307 21.8205 79.6733V78.608H22.6869C22.8017 78.7433 23.738 79.6176 23.738 79.6733C23.738 79.7506 23.6766 79.7818 23.5533 79.7869V79.858H25.3856V79.7869C25.2884 79.7869 25.2089 79.7568 25.1299 79.6733L24.0931 78.6222C24.8243 78.474 25.343 78.1552 25.343 77.5712C25.343 76.8451 24.7879 76.5201 23.4823 76.5201H20.2581ZM27.161 76.5201V76.5911C27.3821 76.6048 27.4167 76.6485 27.4167 76.7048V79.6733C27.4167 79.7307 27.3821 79.7767 27.161 79.7869V79.858H28.9791V79.7869C28.7587 79.7767 28.7376 79.7307 28.7376 79.6733V76.7048C28.7376 76.6485 28.7587 76.6048 28.9791 76.5911V76.5201H27.161ZM37.2314 76.5201V76.5911C37.4519 76.6048 37.4729 76.6485 37.4729 76.7048V79.6733C37.4729 79.7307 37.4519 79.7767 37.2314 79.7869V79.858H40.6403C41.8936 79.858 42.4157 79.4296 42.4157 78.9205C42.4157 78.4524 41.9828 78.2251 41.3931 78.1109V78.0967C41.8868 78.0217 42.2453 77.7808 42.2453 77.4007C42.2453 76.769 41.5493 76.5201 40.5977 76.5201H37.2314ZM45.3417 76.5201V76.5911C45.4207 76.5996 45.5263 76.6184 45.5263 76.6621C45.5263 76.7008 44.0298 79.5 43.9497 79.6449C43.8969 79.7472 43.8458 79.7682 43.7225 79.7869V79.858H45.2849V79.7869C45.1599 79.7869 45.1286 79.7557 45.1286 79.7159C45.1286 79.6779 45.1843 79.5983 45.4127 79.1336H47.5006C47.5353 79.216 47.7989 79.6898 47.7989 79.7159C47.7989 79.754 47.7518 79.7818 47.6285 79.7869V79.858H49.3755V79.7869C49.2698 79.7869 49.2073 79.7415 49.1199 79.5881C48.5727 78.6228 47.4864 76.7281 47.4864 76.6763C47.4864 76.6139 47.5586 76.5996 47.6569 76.5911V76.5201H45.3417ZM50.8953 76.5201V76.5911C51.1152 76.6048 51.1368 76.6485 51.1368 76.7048V79.6733C51.1368 79.7307 51.1152 79.7767 50.8953 79.7869V79.858H52.5713V79.7869C52.3526 79.7767 52.3157 79.7307 52.3157 79.6733V77.6706C54.6456 79.5438 54.8723 79.6347 54.8723 79.7159C54.8723 79.7614 54.8195 79.7869 54.6593 79.7869V79.858H56.3353V79.7869C56.1137 79.7767 56.0938 79.7307 56.0938 79.6733V76.7048C56.0938 76.6485 56.1137 76.6048 56.3353 76.5911V76.5201H54.7303V76.5911C54.8456 76.5996 54.9149 76.6298 54.9149 76.7048V78.4092C54.2962 77.9212 52.7702 76.7485 52.7702 76.6763C52.7702 76.6394 52.8088 76.5996 53.0117 76.5911V76.5201H50.8953ZM46.4212 77.1167L47.2734 78.6222H45.6258L46.4212 77.1167ZM14.9885 77.1877H16.1816C16.9412 77.1877 17.1333 77.2309 17.1333 77.486C17.1333 77.7393 16.9413 77.7842 16.1816 77.7842H14.9885V77.1877ZM38.808 77.1877H40.0011C40.7585 77.1877 40.9528 77.2309 40.9528 77.486C40.9528 77.7393 40.7585 77.7842 40.0011 77.7842H38.808V77.1877ZM21.8205 77.2303H23.3119C23.8328 77.2303 23.9936 77.4007 23.9936 77.5854C23.9936 77.7706 23.8329 77.9263 23.3119 77.9263H21.8205V77.2303ZM14.9885 78.4234H16.4799C17.0981 78.4234 17.3463 78.5268 17.3463 78.8069C17.3463 79.087 17.0981 79.1904 16.4799 79.1904H14.9885V78.4234ZM38.808 78.4234H40.2994C40.9153 78.4234 41.1658 78.5268 41.1658 78.8069C41.1658 79.087 40.9153 79.1904 40.2994 79.1904H38.808V78.4234Z" fill="#FBBF15"/>
</svg>
