<svg width="80" height="80" viewBox="0 0 80 80" fill="none" xmlns="http://www.w3.org/2000/svg">
<g clip-path="url(#clip0_413_1432)">
<path d="M40.0013 57.3756L56.8913 67.2314L52.7204 48.2143L67.2741 35.1175L47.8549 33.1773L39.9993 15.3971L32.1457 33.1773L12.7266 35.1175L27.2812 48.2143L23.1113 67.2314L39.9993 57.3756" fill="#002B5C"/>
<path fill-rule="evenodd" clip-rule="evenodd" d="M15.8909 77.1509L40.0002 63.0808L64.1115 77.1505L58.1479 49.9595L78.8579 31.3225L51.2018 28.5593L39.9985 3.20206L28.798 28.5594L1.1416 31.3225L21.8532 49.9597L15.8909 77.1509ZM40 57.3774L37.5152 53.1196L30.331 57.3122L32.7086 46.4692L24.3109 38.9126L35.4928 37.7954L39.9996 27.5924L44.5075 37.7954L55.6896 38.9126L47.2923 46.4694L49.6705 57.3126L42.4846 53.1195L40 57.3774Z" fill="#002B5C"/>
<path fill-rule="evenodd" clip-rule="evenodd" d="M15.1795 78.1284L40.0004 63.643L64.8235 78.128L58.6831 50.1313L80 30.9482L51.532 28.104L39.9987 1.99986L28.4683 28.104L0 30.9483L21.3185 50.1315L15.1795 78.1284ZM16.6028 76.173L22.3885 49.7875L2.28371 31.6964L29.1282 29.0144L39.9988 4.40391L50.8721 29.0144L77.7164 31.6964L57.6131 49.7873L63.4001 76.1727L40.0004 62.5183L16.6028 76.173ZM40.0003 58.3409L42.6596 53.7836L50.3824 58.2901L47.8275 46.6412L56.8317 38.5384L44.8377 37.3401L39.9998 26.3902L35.1631 37.3401L23.1693 38.5384L32.1739 46.641L29.6196 58.2898L37.3407 53.7838L40.0003 58.3409ZM48.959 56.3348L42.3102 52.455L40.0002 56.4135L37.6901 52.4551L31.0429 56.3343L33.2439 46.297L25.4531 39.2865L35.823 38.2504L39.9999 28.7942L44.1778 38.2505L54.548 39.2865L46.7575 46.2972L48.959 56.3348Z" fill="white"/>
<path d="M40.0013 57.3756L56.8913 67.2314L52.7204 48.2143L67.2741 35.1175L47.8549 33.1773L39.9993 15.3971L32.1457 33.1773L12.7266 35.1175L27.2812 48.2143L23.1113 67.2314L39.9993 57.3756" fill="#FFDD00"/>
<path d="M39.9808 49.9712L44.8666 47.1796V47.7346L44.5896 48.2896C47.9217 47.5361 49.4288 46.1093 49.4288 46.1093L49.4676 46.7427L49.0714 47.4179C54.983 45.4341 56.3313 43.2121 56.3313 43.2121L56.4107 42.7752C56.4107 42.7752 58.4332 42.1011 62.1634 40.5939C65.8917 39.0867 66.6453 36.5479 66.6453 36.5479C68.4702 31.9062 62.7185 26.4712 62.7185 26.4712C62.7185 26.4712 63.9874 29.6454 63.0352 32.4225C62.084 35.1986 60.2194 35.3177 58.3935 35.3177H51.7293L51.2538 35.0407H40.5019H39.4258H28.675L28.1984 35.3177H21.5342C19.7093 35.3177 17.8447 35.1986 16.8916 32.4225C15.9404 29.6454 17.2102 26.4712 17.2102 26.4712C17.2102 26.4712 11.4575 31.9062 13.2824 36.5479C13.2824 36.5479 14.036 39.0867 17.7653 40.5939C21.4945 42.1011 23.517 42.7752 23.517 42.7752L23.5964 43.2121C23.5964 43.2121 24.9448 45.4341 30.8563 47.4179L30.4601 46.7427L30.4999 46.1093C30.4999 46.1093 32.0071 47.5361 35.3391 48.2896L35.0611 47.7346V47.1796L39.9469 49.9712H39.9808Z" fill="#002B5C"/>
<path fill-rule="evenodd" clip-rule="evenodd" d="M39.2901 52.4443H40.6373L42.7383 51.2439L44.1458 50.9256L43.595 51.8642L49.858 49.7625C53.0234 48.7003 55.0806 47.5361 56.3976 46.5528C57.056 46.0611 57.5258 45.6173 57.8533 45.259C58.0168 45.0802 58.144 44.9236 58.2409 44.7942C58.2553 44.775 58.269 44.7564 58.2821 44.7384C58.4219 44.6879 58.5748 44.6322 58.7406 44.5713C59.7366 44.2055 61.1994 43.6507 63.0897 42.8869C65.368 41.9659 66.8306 40.6861 67.7379 39.5449C68.1861 38.9812 68.4888 38.4644 68.6873 38.0615C68.7866 37.8601 68.86 37.6867 68.913 37.5494C68.9372 37.4864 68.9572 37.4309 68.9734 37.3836C70.2936 33.9287 68.7519 30.524 67.4641 28.4601C66.7684 27.3452 66.0175 26.4121 65.4473 25.7622C65.1599 25.4346 64.9125 25.1724 64.7326 24.9878C64.6426 24.8954 64.569 24.8221 64.5153 24.7694C64.5 24.7543 64.4863 24.741 64.4743 24.7293C64.4652 24.7205 64.4571 24.7127 64.45 24.7058L64.4292 24.6859L64.4219 24.6789L64.419 24.6762L64.4178 24.6751C64.4173 24.6745 64.4167 24.674 62.7183 26.4714L64.4167 24.674L60.4262 27.3866C60.4216 27.3883 60.4216 27.3882 60.4215 27.3882L60.4211 27.387L60.4202 27.3849L60.4189 27.3815L60.4176 27.3782C60.4179 27.379 60.4186 27.3808 60.4197 27.3836C60.4232 27.3928 60.4306 27.4129 60.4413 27.4428C60.4627 27.5029 60.4965 27.6017 60.5365 27.7328C60.6172 27.9972 60.7192 28.3795 60.7973 28.829C60.9614 29.7736 60.9806 30.79 60.6958 31.6207C60.4001 32.4836 60.1024 32.6215 60.0063 32.6658L60.0026 32.6676C59.7436 32.7875 59.3383 32.845 58.3933 32.845H52.3969L51.9213 32.568H28.0082L27.5317 32.845H21.534C20.5898 32.845 20.1845 32.7876 19.9252 32.6675L19.9216 32.6658C19.8252 32.6213 19.5271 32.4836 19.2306 31.6207C18.9464 30.7903 18.9659 29.7742 19.1303 28.8298C19.2086 28.3803 19.3107 27.9979 19.3915 27.7335C19.4315 27.6024 19.4654 27.5035 19.4868 27.4434C19.4921 27.4285 19.4967 27.416 19.5003 27.4061C19.5039 27.3962 19.5067 27.3888 19.5084 27.3842C19.5102 27.3796 19.5109 27.3777 19.5106 27.3786L19.5092 27.3821L19.5079 27.3855L19.507 27.3876L19.5066 27.3888C19.5065 27.3888 19.5065 27.3889 19.5019 27.3872L15.5118 24.6739L17.2101 26.4714C15.5118 24.6739 15.5112 24.6744 15.5107 24.6749L15.5095 24.6761L15.5066 24.6788L15.4993 24.6857L15.4785 24.7057C15.462 24.7216 15.44 24.7429 15.4132 24.7692C15.3595 24.822 15.2859 24.8953 15.1958 24.9877C15.0159 25.1722 14.7685 25.4345 14.481 25.762C13.9107 26.4119 13.1597 27.345 12.4639 28.4599C11.1759 30.5238 9.63371 33.9285 10.954 37.3837C10.9702 37.4309 10.9902 37.4865 11.0144 37.5495C11.0674 37.6868 11.1409 37.8602 11.2401 38.0616C11.4387 38.4645 11.7414 38.9814 12.1897 39.5451C13.0972 40.6863 14.5597 41.9659 16.8385 42.8868C18.7283 43.6506 20.1909 44.2055 21.1868 44.5713C21.3526 44.6322 21.5055 44.6878 21.6453 44.7384C21.6583 44.7564 21.6721 44.775 21.6865 44.7942C21.7834 44.9236 21.9106 45.0802 22.0741 45.259C22.4016 45.6173 22.8714 46.0611 23.5298 46.5528C24.8467 47.5361 26.904 48.7003 30.0694 49.7625L36.3324 51.8642L35.7814 50.9253L37.1885 51.2435L39.2901 52.4443ZM28.1773 43.6313C27.4256 43.2382 26.8774 42.8799 26.4889 42.5898C26.2308 42.397 26.0417 42.2333 25.9089 42.108L25.6879 40.8925L24.2995 40.4297L24.2972 40.4289L24.2838 40.4244L24.222 40.4034C24.1652 40.384 24.0775 40.3538 23.9594 40.3124C23.7233 40.2298 23.3659 40.1027 22.892 39.9287C21.9444 39.5806 20.5311 39.0447 18.6917 38.3013C17.2412 37.7151 16.4623 36.9717 16.0607 36.4667C15.8545 36.2073 15.7357 35.9953 15.6764 35.8751C15.6562 35.8341 15.6431 35.804 15.6358 35.7867L15.6227 35.7424L15.5837 35.6433C15.5098 35.4553 15.4585 35.2558 15.4293 35.0458C16.0546 35.9944 16.8626 36.6995 17.8464 37.1552C19.2139 37.7888 20.6534 37.7909 21.534 37.7909H28.8647L29.3413 37.5139H50.5859L51.0614 37.7909H58.3933C59.2743 37.7909 60.7142 37.7888 62.0818 37.1552C63.0655 36.6994 63.8733 35.9941 64.4981 35.0456C64.4689 35.2556 64.4176 35.4552 64.3437 35.6433L64.3047 35.7424L64.2915 35.7867C64.2843 35.8041 64.2711 35.8342 64.2509 35.8752C64.1917 35.9954 64.0728 36.2075 63.8666 36.4669C63.4651 36.9718 62.6865 37.7151 61.2368 38.3012C59.3969 39.0447 57.9834 39.5805 57.0355 39.9286C56.5616 40.1027 56.2041 40.2298 55.968 40.3124C55.8499 40.3537 55.7622 40.384 55.7054 40.4033L55.6435 40.4244L55.6285 40.4294L54.2394 40.8924L54.0184 42.108C53.8857 42.2333 53.6966 42.397 53.4384 42.5898C53.0507 42.8793 52.5039 43.2368 51.7545 43.629L51.5738 40.6735L47.7541 44.2895C47.7395 44.3017 47.7063 44.329 47.654 44.3684C47.5838 44.4212 47.4793 44.4958 47.3393 44.585V42.9187L39.9637 47.133L32.588 42.9187V44.5844C32.4486 44.4954 32.3444 44.4211 32.2744 44.3684C32.2221 44.329 32.1889 44.3018 32.1743 44.2895L28.3622 40.6808L28.1773 43.6313ZM23.3141 43.3835L23.5962 43.2123C23.4977 43.2721 23.4037 43.3291 23.3141 43.3835C23.3141 43.3835 23.3141 43.3835 23.3141 43.3835Z" fill="white"/>
<path d="M39.9792 49.9766L44.8649 47.185V47.74L44.5869 48.295C47.9181 47.5424 49.4262 46.1146 49.4262 46.1146L49.4659 46.7491L49.0688 47.4233C54.9803 45.4395 56.3296 43.2175 56.3296 43.2175L56.4091 42.7825C56.4091 42.7825 58.4316 42.1084 62.1618 40.5992C65.89 39.0921 66.6436 36.5542 66.6436 36.5542C68.4685 31.9116 62.7158 26.4776 62.7158 26.4776C62.7158 26.4776 63.9847 29.6508 63.0335 32.4279C62.0814 35.2049 60.2168 35.3241 58.3919 35.3241H51.7267L51.2511 35.0471H40.5003H39.4232H28.6723L28.1958 35.3241H21.5325C19.7067 35.3241 17.8421 35.2049 16.8889 32.4279C15.9377 29.6508 17.2076 26.4776 17.2076 26.4776C17.2076 26.4776 11.4539 31.9116 13.2798 36.5542C13.2798 36.5542 14.0344 39.0921 17.7626 40.5992C21.4919 42.1084 23.5153 42.7825 23.5153 42.7825L23.5948 43.2175C23.5948 43.2175 24.9431 45.4395 30.8527 47.4233L30.4575 46.7491L30.4963 46.1146C30.4963 46.1146 32.0044 47.5424 35.3355 48.295L35.0585 47.74V47.185L39.9443 49.9766H39.9792Z" fill="#002B5C"/>
<path d="M15.5067 61.8669C12.6512 61.8669 12.2153 61.0029 12.2153 56.8552C12.2153 52.7202 12.8411 51.8581 14.602 51.8581C15.9417 51.8581 16.2768 52.4557 16.5073 52.7909V51.9404H18.3584V55.6629H16.487C16.4405 54.4569 15.9707 54.3213 15.4138 54.3213C14.789 54.3213 14.5555 54.6923 14.5555 56.7865C14.602 58.8671 14.88 59.2865 15.4602 59.2865C16.5916 59.2865 16.3562 58.5445 16.4027 57.4219H18.4969C18.7294 61.187 17.659 61.8669 15.5067 61.8669Z" fill="white"/>
<path fill-rule="evenodd" clip-rule="evenodd" d="M11.3925 61.8036C12.3678 63.3411 14.0518 63.5227 15.5069 63.5227C16.6571 63.5227 18.1774 63.3675 19.1939 62.0847C20.1177 60.9186 20.2677 59.2365 20.1494 57.3202L20.0535 55.7667H20.014V50.2853H15.5426C15.2499 50.2304 14.9366 50.2029 14.6022 50.2029C14.0497 50.2029 13.3997 50.2663 12.7763 50.5622C12.1048 50.8811 11.6109 51.3984 11.2762 52.0494C10.6923 53.1851 10.5601 54.8244 10.5601 56.8556C10.5601 57.9049 10.5866 58.8248 10.6863 59.5997C10.7846 60.3631 10.9705 61.1384 11.3925 61.8036Z" fill="white"/>
<path d="M35.97 54.265L34.3359 61.675H32.2417L31.4649 57.6262L30.5524 61.675H28.6055L26.9171 54.2766H26.0996V51.9413H29.4772V54.2641H29.0103L29.7891 58.5396L30.6018 54.2641H30.1805V51.9413H33.3304V54.2641H32.82L33.684 58.5396L34.4415 54.2641H34.024V51.9413H36.7526V54.265H35.97Z" fill="white"/>
<path fill-rule="evenodd" clip-rule="evenodd" d="M27.2859 63.3303H35.6667L37.3008 55.9203H38.4087V50.2856H24.4448V55.9319H25.5976L27.2859 63.3303ZM31.7273 57.2113L31.7437 57.2924L31.712 57.2919L31.7273 57.2113Z" fill="white"/>
<path d="M41.169 57.253H40.3854V59.3172H41.2387C42.6423 59.3172 42.5038 57.253 41.169 57.253ZM41.0305 54.2725H40.3854V56.0916H41.0779C42.1812 56.0916 42.2296 54.2725 41.0305 54.2725ZM41.0954 61.6748H37.4175V59.322H38.2825L38.2776 54.2638H37.4398V51.941H40.7186C43.6003 51.941 44.2638 52.8225 44.2638 54.349C44.2638 55.957 43.7397 56.3609 42.3168 56.6902C43.917 56.9217 44.4265 57.6327 44.4265 58.9772C44.4265 60.8825 43.5848 61.6748 41.0954 61.6748Z" fill="white"/>
<path fill-rule="evenodd" clip-rule="evenodd" d="M35.7622 63.3301H41.0956C42.4307 63.3301 43.7691 63.1361 44.7567 62.3102C45.8291 61.4133 46.0821 60.1341 46.0821 58.977C46.0821 58.219 45.9583 57.3477 45.4271 56.5925C45.8323 55.8878 45.9194 55.0866 45.9194 54.3489C45.9194 53.3688 45.7037 52.1374 44.5914 51.2681C43.6074 50.499 42.2388 50.2854 40.7188 50.2854H35.7845V55.9191H36.6239L36.6256 57.6664H35.7622V63.3301ZM40.3855 55.5597C40.2846 55.4107 40.2623 55.2699 40.2623 55.1814C40.2624 55.0911 40.2851 54.9549 40.3855 54.8096V55.5597Z" fill="white"/>
<path d="M48.6241 54.4595C47.8482 54.4595 47.7533 55.0204 47.7533 56.7048C47.7533 58.4435 47.8482 59.323 48.6241 59.323C49.4232 59.323 49.5172 58.4435 49.5172 56.7048C49.5172 55.0204 49.4232 54.4595 48.6241 54.4595ZM48.6241 61.9209C45.8732 61.9209 45.4722 60.7169 45.4722 56.8278C45.4722 52.9533 45.8732 51.7483 48.6241 51.7483C51.3992 51.7483 51.7983 52.9533 51.7983 56.8278C51.7983 60.7169 51.3992 61.9209 48.6241 61.9209Z" fill="white"/>
<path fill-rule="evenodd" clip-rule="evenodd" d="M46.3444 63.204C47.0547 63.4946 47.8412 63.5762 48.6243 63.5762C49.4122 63.5762 50.2016 63.4948 50.9138 63.2057C51.6829 62.8934 52.2826 62.3708 52.6918 61.6496C53.0704 60.9825 53.2436 60.2198 53.3359 59.4653C53.4295 58.7012 53.4539 57.8139 53.4539 56.8277C53.4539 55.845 53.4295 54.9601 53.3359 54.1977C53.2434 53.4447 53.07 52.6831 52.6911 52.0167C52.2816 51.2964 51.6819 50.7747 50.9134 50.463C50.2016 50.1742 49.4124 50.0927 48.6243 50.0927C47.841 50.0927 47.0548 50.1744 46.3448 50.4646C45.5783 50.778 44.9821 51.3012 44.5756 52.0202C44.1995 52.6855 44.027 53.4457 43.9348 54.1981C43.8415 54.9602 43.8169 55.8447 43.8169 56.8277C43.8169 57.8142 43.8415 58.7011 43.9347 59.4648C44.0268 60.2188 44.1992 60.9801 44.5749 61.6461C44.9811 62.366 45.5773 62.8902 46.3444 63.204ZM49.4984 58.2403C49.4985 58.2402 49.4976 58.2374 49.4957 58.2321C49.4974 58.2378 49.4983 58.2405 49.4984 58.2403ZM47.7756 58.2218C47.7739 58.2264 47.7732 58.2288 47.7732 58.2289C47.7733 58.229 47.7741 58.2268 47.7756 58.2218Z" fill="white"/>
<path d="M22.1197 54.4595C21.3429 54.4595 21.2499 55.0204 21.2499 56.7048C21.2499 58.4435 21.3429 59.323 22.1197 59.323C22.9198 59.323 23.0138 58.4435 23.0138 56.7048C23.0138 55.0204 22.9198 54.4595 22.1197 54.4595ZM22.1197 61.9209C19.3678 61.9209 18.9688 60.7169 18.9688 56.8278C18.9688 52.9533 19.3678 51.7483 22.1197 51.7483C24.8939 51.7483 25.2939 52.9533 25.2939 56.8278C25.2939 60.7169 24.8939 61.9209 22.1197 61.9209Z" fill="white"/>
<path fill-rule="evenodd" clip-rule="evenodd" d="M19.8397 63.204C20.55 63.4946 21.3367 63.5762 22.1199 63.5762C22.9077 63.5762 23.697 63.4948 24.409 63.2056C25.178 62.8934 25.7777 62.3709 26.187 61.6498C26.5656 60.9827 26.7389 60.2201 26.8314 59.4655C26.925 58.7013 26.9495 57.8139 26.9495 56.8277C26.9495 55.8449 26.925 54.96 26.8313 54.1975C26.7388 53.4445 26.5653 52.6828 26.1863 52.0165C25.7767 51.2964 25.177 50.7748 24.4086 50.463C23.6969 50.1742 22.9079 50.0927 22.1199 50.0927C21.3365 50.0927 20.5501 50.1744 19.8401 50.4646C19.0734 50.7781 18.4773 51.3015 18.0711 52.0207C17.6953 52.686 17.523 53.4463 17.4311 54.1986C17.3379 54.9604 17.3135 55.8448 17.3135 56.8277C17.3135 57.814 17.3379 58.7009 17.431 59.4644C17.5229 60.2182 17.6949 60.9795 18.0704 61.6456C18.4764 62.3657 19.0724 62.8901 19.8397 63.204ZM22.9945 58.2416C22.9945 58.2414 22.9937 58.2386 22.9917 58.2333C22.9934 58.239 22.9944 58.2417 22.9945 58.2416ZM21.2722 58.2213C21.2705 58.2259 21.2698 58.2283 21.2698 58.2284C21.2699 58.2285 21.2707 58.2263 21.2722 58.2213Z" fill="white"/>
<path d="M59.3123 54.2643L57.3963 57.3416L57.4041 59.3225H58.301V61.6743H54.41V59.3225H55.3815L55.3748 57.3416L53.114 54.2643H52.6035V51.9405H56.0053V54.2643H55.3612L56.5032 56.3662L57.868 54.2643H56.9013V51.9405H60.093V54.2643H59.3123Z" fill="white"/>
<path fill-rule="evenodd" clip-rule="evenodd" d="M52.7543 63.3296H59.9562V57.6668H59.1435L60.2314 55.9196H61.7481V50.2849H50.9478V55.9196H52.2757L53.5593 57.6668H52.7543V63.3296Z" fill="white"/>
<path d="M64.7359 61.8386C63.959 61.8386 62.9875 61.4841 62.5429 60.9765V61.6749H60.6357V58.2004H62.5623V58.4978C62.5429 59.448 64.3959 59.8403 64.4046 58.4978C64.4065 57.8256 64.0472 57.472 62.6262 56.9102C61.5375 56.4588 60.626 56.0617 60.626 54.2949C60.626 52.5291 61.3602 51.8191 62.6708 51.8191C63.3595 51.8191 63.959 52.3034 64.4046 52.7819V51.9412H66.4252V55.3352H64.4046V55.0756C64.4046 54.9381 64.2719 54.3501 63.7372 54.2639C62.91 54.1303 62.7405 54.664 62.7405 55.0476C62.7405 55.6646 64.1876 56.1537 64.5576 56.3106C66.4833 57.1311 66.8242 57.4439 66.8242 59.0596C66.8242 60.6889 66.3583 61.8386 64.7359 61.8386Z" fill="white"/>
<path fill-rule="evenodd" clip-rule="evenodd" d="M63.5056 63.3304C63.9049 63.4339 64.3248 63.4941 64.7361 63.4941C65.9996 63.4941 67.0974 63.0071 67.7766 61.9625C68.3627 61.0609 68.4799 59.9678 68.4799 59.0597C68.4799 58.3997 68.4403 57.6388 68.0808 56.926V50.2858H63.5449C63.2737 50.2092 62.982 50.1637 62.6709 50.1637C61.7219 50.1637 60.6751 50.4291 59.9096 51.3067C59.1858 52.1364 58.9707 53.227 58.9707 54.295C58.9707 55.1508 59.1357 55.9055 59.5008 56.5451H58.9804V63.3304H63.5056Z" fill="white"/>
<path d="M15.5067 61.8669C12.6512 61.8669 12.2153 61.0029 12.2153 56.8552C12.2153 52.7202 12.8411 51.8581 14.602 51.8581C15.9417 51.8581 16.2768 52.4557 16.5073 52.7909V51.9404H18.3584V55.6629H16.487C16.4405 54.4569 15.9707 54.3213 15.4138 54.3213C14.789 54.3213 14.5555 54.6923 14.5555 56.7865C14.602 58.8671 14.88 59.2865 15.4602 59.2865C16.5916 59.2865 16.3562 58.5445 16.4027 57.4219H18.4969C18.7294 61.187 17.659 61.8669 15.5067 61.8669Z" fill="#002B5C"/>
<path d="M35.97 54.265L34.3359 61.675H32.2417L31.4649 57.6262L30.5524 61.675H28.6055L26.9171 54.2766H26.0996V51.9413H29.4772V54.2641H29.0103L29.7891 58.5396L30.6018 54.2641H30.1805V51.9413H33.3304V54.2641H32.82L33.684 58.5396L34.4415 54.2641H34.024V51.9413H36.7526V54.265H35.97Z" fill="#002B5C"/>
<path d="M41.169 57.253H40.3854V59.3172H41.2387C42.6423 59.3172 42.5038 57.253 41.169 57.253ZM41.0305 54.2725H40.3854V56.0916H41.0779C42.1812 56.0916 42.2296 54.2725 41.0305 54.2725ZM41.0954 61.6748H37.4175V59.322H38.2825L38.2776 54.2638H37.4398V51.941H40.7186C43.6003 51.941 44.2638 52.8225 44.2638 54.349C44.2638 55.957 43.7397 56.3609 42.3168 56.6902C43.917 56.9217 44.4265 57.6327 44.4265 58.9772C44.4265 60.8825 43.5848 61.6748 41.0954 61.6748Z" fill="#002B5C"/>
<path d="M48.6241 54.4595C47.8482 54.4595 47.7533 55.0204 47.7533 56.7048C47.7533 58.4435 47.8482 59.323 48.6241 59.323C49.4232 59.323 49.5172 58.4435 49.5172 56.7048C49.5172 55.0204 49.4232 54.4595 48.6241 54.4595ZM48.6241 61.9209C45.8732 61.9209 45.4722 60.7169 45.4722 56.8278C45.4722 52.9533 45.8732 51.7483 48.6241 51.7483C51.3992 51.7483 51.7983 52.9533 51.7983 56.8278C51.7983 60.7169 51.3992 61.9209 48.6241 61.9209Z" fill="#002B5C"/>
<path d="M22.1197 54.4595C21.3429 54.4595 21.2499 55.0204 21.2499 56.7048C21.2499 58.4435 21.3429 59.323 22.1197 59.323C22.9198 59.323 23.0138 58.4435 23.0138 56.7048C23.0138 55.0204 22.9198 54.4595 22.1197 54.4595ZM22.1197 61.9209C19.3678 61.9209 18.9688 60.7169 18.9688 56.8278C18.9688 52.9533 19.3678 51.7483 22.1197 51.7483C24.8939 51.7483 25.2939 52.9533 25.2939 56.8278C25.2939 60.7169 24.8939 61.9209 22.1197 61.9209Z" fill="#002B5C"/>
<path d="M59.3123 54.2643L57.3963 57.3416L57.4041 59.3225H58.301V61.6743H54.41V59.3225H55.3815L55.3748 57.3416L53.114 54.2643H52.6035V51.9405H56.0053V54.2643H55.3612L56.5032 56.3662L57.868 54.2643H56.9013V51.9405H60.093V54.2643H59.3123Z" fill="#002B5C"/>
<path d="M64.7359 61.8386C63.959 61.8386 62.9875 61.4841 62.5429 60.9765V61.6749H60.6357V58.2004H62.5623V58.4978C62.5429 59.448 64.3959 59.8403 64.4046 58.4978C64.4065 57.8256 64.0472 57.472 62.6262 56.9102C61.5375 56.4588 60.626 56.0617 60.626 54.2949C60.626 52.5291 61.3602 51.8191 62.6708 51.8191C63.3595 51.8191 63.959 52.3034 64.4046 52.7819V51.9412H66.4252V55.3352H64.4046V55.0756C64.4046 54.9381 64.2719 54.3501 63.7372 54.2639C62.91 54.1303 62.7405 54.664 62.7405 55.0476C62.7405 55.6646 64.1876 56.1537 64.5576 56.3106C66.4833 57.1311 66.8242 57.4439 66.8242 59.0596C66.8242 60.6889 66.3583 61.8386 64.7359 61.8386Z" fill="#002B5C"/>
<path d="M26.8986 38.0979C27.4371 37.0595 27.7974 36.1984 27.9718 35.7577L27.8953 35.7548H19.9603C15.0803 34.9208 16.0325 28.6537 16.0325 28.6537C16.0325 28.6537 13.0975 31.7476 13.9702 34.5237C14.842 37.3027 17.62 38.095 19.8808 38.095H26.8986V38.0979Z" fill="white"/>
<path d="M40.0338 49.4619C40.7922 49.058 46.45 45.6407 46.45 45.6407L45.741 47.5169C49.0847 46.2238 51.2602 44.2691 51.2602 44.2691C51.1033 44.9617 50.5502 46.1289 50.5502 46.1289C55.218 44.4425 55.5513 42.975 55.5513 42.975C52.4972 39.9199 50.9105 35.4371 50.9105 35.4371H40.5326H39.502H29.1231C29.1231 35.4371 27.5375 39.9199 24.4814 42.975C24.4814 42.975 24.8147 44.4425 29.4825 46.1289C29.4825 46.1289 28.9313 44.9617 28.7734 44.2691C28.7734 44.2691 30.949 46.2238 34.2927 47.5169L33.5827 45.6407C33.5827 45.6407 39.2414 49.058 39.9989 49.4619H40.0338Z" fill="white"/>
<path d="M53.1362 38.0979C52.5967 37.0595 52.2373 36.1984 52.063 35.7577L52.1395 35.7548H60.0736C64.9535 34.9208 64.0023 28.6537 64.0023 28.6537C64.0023 28.6537 66.9373 31.7476 66.0645 34.5237C65.1918 37.3027 62.4157 38.095 60.154 38.095H53.1362V38.0979Z" fill="white"/>
<path d="M55.5522 42.975C55.5484 42.9721 55.5464 42.9692 55.5435 42.9663L54.3492 43.0428L52.503 41.9008L27.7942 41.4862L25.7591 43.0583L24.495 42.9624C24.4911 42.9663 24.4873 42.9711 24.4824 42.975C24.4824 42.975 24.8147 44.4425 29.4825 46.1298C29.4825 46.1298 28.9323 44.9626 28.7735 44.2681C28.7735 44.2681 30.95 46.2238 34.2937 47.5169L33.5837 45.6407C33.5837 45.6407 39.2424 49.059 39.9999 49.4619H40.0348C40.7922 49.059 46.45 45.6407 46.45 45.6407L45.7419 47.5169C49.0847 46.2238 51.2612 44.2681 51.2612 44.2681C51.1033 44.9626 50.5512 46.1298 50.5512 46.1298C55.219 44.4425 55.5522 42.975 55.5522 42.975Z" fill="#FFDD00"/>
<path d="M50.8788 37.9878C50.8788 37.9878 52.5914 41.2191 54.3853 43.044C54.3853 43.044 53.6898 44.1269 52.0751 44.5793L52.7047 42.365C52.7047 42.365 49.3281 44.9348 47.262 45.855C47.262 45.855 47.8422 44.2073 48.004 43.6591L40.0341 48.448H39.9992L32.0293 43.6591C32.1911 44.2073 32.7742 45.855 32.7742 45.855C30.7052 44.9348 27.3295 42.365 27.3295 42.365L27.9591 44.5793C26.3434 44.1269 25.6479 43.044 25.6479 43.044C27.4419 41.2191 29.1544 37.9878 29.1544 37.9878H50.8788Z" fill="#002B5C"/>
</g>
<defs>
<clipPath id="clip0_413_1432">
<rect width="80" height="80" fill="white"/>
</clipPath>
</defs>
</svg>
