<svg width="80" height="80" viewBox="0 0 80 80" fill="none" xmlns="http://www.w3.org/2000/svg">
<path d="M16.3961 30.5478C21.1874 31.0125 21.9482 26.3731 14.835 22.127C7.72192 17.8768 5.79601 14.3386 6.01661 9.93488C6.24393 5.53196 9.81727 1.08625 16.5294 0.245765C23.2416 -0.59053 26.8519 0.749891 33.7402 3.62114C40.6302 6.49491 52.7762 3.39047 57.7386 2.72445C62.7002 2.05676 65.9262 2.86202 68.4662 5.02028C72.3591 8.32772 71.9103 17.0321 65.8138 19.2021C60.0554 21.2505 49.5275 17.173 45.1975 16.1354C42.6626 15.5281 42.968 17.3265 44.4879 17.8566L42.6014 18.4882C39.3225 17.1663 38.6548 15.6128 39.3753 14.2246L38.3805 14.3588C33.9524 14.7698 32.5449 14.2548 28.9212 13.582C22.6637 12.4194 23.1359 17.4984 28.2124 17.0975C33.2981 16.6982 35.5168 18.0462 36.9428 20.2388C28.532 27.5793 27.6303 38.3807 27.6303 38.3807C12.0795 46.9735 5.37744 32.082 10.5915 23.4691C10.641 24.0219 11.6056 30.0806 16.3961 30.5478Z" fill="#E92D2B"/>
<path d="M56.571 63.2161L56.779 61.3824C57.5767 56.2162 58.7099 54.4186 60.3003 49.8169L62.9132 50.94C64.7292 45.1036 68.1357 40.163 72.9077 34.5488L64.8425 34.8869C56.3294 22.0883 47.8087 19.8428 41.3323 17.5956C23.3934 26.914 25.4376 41.8482 27.3694 53.3005L24.4193 57.4215L24.1584 57.8108C38.1188 53.4481 48.1174 59.9606 56.571 64.528V63.2161ZM20.2647 1.56339C16.776 1.25051 7.94336 2.72598 7.94336 10.9094C7.94336 19.16 21.9146 20.6606 21.9146 28.3768C21.9146 31.9435 18.327 32.2849 18.327 32.2849C21.0313 32.4291 23.0898 30.8161 23.0898 28.0329C23.0898 20.1187 9.27288 17.828 9.19906 10.9111C9.13447 4.92199 15.7678 1.37214 20.2647 1.56339ZM68.9199 13.0744C68.8033 18.9008 59.5773 18.3673 55.785 17.2676C60.1669 17.4513 68.2556 17.1066 68.9199 13.0744Z" fill="white"/>
<path d="M65.153 34.5809C56.4193 21.2966 47.6914 18.9647 41.0581 16.6345C24.6836 25.2474 24.5159 38.2121 26.0794 49.4002C26.3151 51.4117 25.6047 53.5179 24.5704 55.4405C24.0772 56.3615 23.3969 57.2422 22.8408 57.8932L22.2276 58.5625L21.3301 59.3015C32.5634 54.2468 44.6574 58.6112 53.095 63.3228L56.7103 65.5079H60.4816L60.485 65.5029L56.7271 63.1986C57.5466 57.9133 58.8786 54.8214 60.4934 50.078L63.1734 51.2431C65.0339 45.1852 68.5241 40.0567 73.4153 34.2286L65.153 34.5809ZM65.9121 38.5795L65.1379 39.904C65.0238 40.1087 64.9055 40.3234 64.7881 40.5415L64.0894 41.8609C63.9803 42.0698 63.8704 42.282 63.7664 42.4968L63.1205 43.8213C62.5241 45.082 61.8975 46.4719 61.224 48.0422C58.2126 46.997 47.9355 44.7322 41.7518 43.9639C41.4775 42.7291 40.9851 40.721 40.2335 38.3438C39.6791 38.6483 39.0424 38.8219 38.3663 38.8219C38.1441 38.8219 37.9276 38.8026 37.7154 38.7674C38.9711 42.6989 39.5138 45.7002 39.5214 45.7421L39.5415 45.7379C39.5432 45.7472 39.5457 45.7564 39.5474 45.7648C47.3441 46.9341 51.4191 49.8464 54.9111 52.4098L50.4813 59.6597C47.4993 58.1356 44.5576 56.8438 41.8432 55.7651C35.3869 50.2734 27.1422 39.3026 39.3327 21.7949L39.7504 21.2245C30.2651 29.8072 28.0204 39.9443 32.3923 52.4493C31.3623 52.1305 30.5042 51.8764 29.8566 51.6818C24.4874 33.68 31.556 23.5405 41.5236 18.1469C57.6439 24.4254 62.2188 35.0062 62.2188 35.0062L60.2107 34.9508L58.8124 32.9704L44.6365 31.0839L46.9449 34.7814C46.2394 34.7814 44.41 34.6774 42.2299 34.4802C42.2467 34.6279 42.2568 34.778 42.2568 34.9298C42.2568 35.4256 42.1628 35.8987 41.9942 36.334C49.026 36.745 62.9712 37.2232 67.0436 36.9094C67.0436 36.9094 66.23 38.062 65.9121 38.5795ZM62.1022 38.5837C60.8977 40.9877 59.3467 44.088 58.5171 45.7723C59.1655 45.9376 59.7611 46.0961 60.287 46.2446C61.1787 44.4453 62.7724 41.2578 64.1145 38.582C63.7714 38.5854 63.4133 38.5871 63.0324 38.5871C62.7322 38.5871 62.4176 38.5854 62.1022 38.5837ZM58.7235 38.5409C57.6724 40.6363 56.353 43.2752 55.4764 45.0426C56.1005 45.1852 56.7003 45.3261 57.274 45.4645C58.1967 43.6074 59.5531 40.8963 60.719 38.572C60.074 38.5644 59.4063 38.5535 58.7235 38.5409ZM55.3615 38.4621C54.4304 40.3209 53.2771 42.6259 52.4089 44.3724C53.0237 44.5015 53.6285 44.6315 54.2224 44.7616C55.1283 42.9439 56.3152 40.5717 57.3478 38.5124C56.6935 38.4973 56.0309 38.4805 55.3615 38.4621ZM38.3663 37.5251C36.9311 37.5251 35.7711 36.3642 35.7711 34.9298C35.7711 33.498 36.9311 32.3346 38.3663 32.3346C39.7932 32.3346 40.9616 33.498 40.9616 34.9298C40.9616 36.3642 39.7932 37.5251 38.3663 37.5251Z" fill="#231F20"/>
<path d="M70.8926 70.9737C71.2122 71.0945 71.5326 71.2807 71.8522 71.5332L73.0207 69.3078C72.4612 69.0159 71.8765 68.7961 71.2676 68.6451C70.6586 68.495 70.0739 68.4203 69.5144 68.4203C68.9147 68.4203 68.3728 68.5076 67.8888 68.682C67.404 68.8565 66.9946 69.1014 66.66 69.4168C66.3244 69.7314 66.0652 70.1105 65.8807 70.5517C65.6953 70.993 65.6031 71.4853 65.6031 72.0281C65.6031 72.5716 65.6911 73.0204 65.8648 73.3735C66.0401 73.7283 66.2699 74.0211 66.5551 74.2534C66.8395 74.4866 67.1641 74.6728 67.529 74.8137C67.8939 74.9547 68.2654 75.083 68.6454 75.1996C68.965 75.3061 69.2376 75.4034 69.4616 75.4907C69.6872 75.5779 69.8684 75.6727 70.0085 75.7742C70.1486 75.8757 70.2484 75.9881 70.3088 76.1089C70.3683 76.2305 70.3985 76.3731 70.3985 76.5383C70.3985 76.8101 70.2811 77.0517 70.0462 77.2656C69.8114 77.4786 69.454 77.586 68.9751 77.586C68.5557 77.586 68.1304 77.4929 67.7018 77.3092C67.2715 77.1247 66.8369 76.8437 66.3974 76.4654L65.1392 78.7637C66.3571 79.5883 67.6808 80.0001 69.1101 80.0001C69.7988 80.0001 70.4162 79.9112 70.9605 79.7317C71.5049 79.5522 71.9646 79.2997 72.3396 78.9751C72.7137 78.6496 72.998 78.2596 73.1926 77.8033C73.3881 77.3478 73.4854 76.8386 73.4854 76.2758C73.4854 75.442 73.2631 74.7651 72.8185 74.2467C72.3731 73.7283 71.6719 73.3131 70.7131 73.0027C70.4732 72.9247 70.2308 72.8526 69.9858 72.7847C69.7418 72.7167 69.522 72.637 69.3274 72.5439C69.1328 72.4525 68.9751 72.3434 68.8551 72.2168C68.7352 72.0918 68.6748 71.9308 68.6748 71.737C68.6748 71.456 68.7956 71.2278 69.0346 71.0534C69.2745 70.878 69.5841 70.7908 69.9632 70.7908C70.2635 70.7908 70.573 70.852 70.8926 70.9737Z" fill="#0054A6"/>
<path d="M44.2872 79.0581V73.5807H39.7886V75.7968H41.1978V77.3419C41.0552 77.357 40.7994 77.373 40.6711 77.373C38.9632 77.373 37.7813 76.124 37.7813 74.1268C37.7813 72.1136 39.2048 70.8806 40.999 70.8806C41.2071 70.8806 41.4184 70.899 41.629 70.93C42.0283 71.0005 42.5005 71.1515 42.9434 71.4769L44.1119 69.2516C43.6287 68.9991 43.1246 68.8037 42.6045 68.6577C42.5265 68.6334 42.4468 68.6116 42.3663 68.5906L42.3562 68.5881C42.2321 68.557 42.1037 68.5294 41.9729 68.5042C41.5023 68.4119 41.046 68.3633 40.6056 68.3633C40.5461 68.3633 40.4882 68.3658 40.4303 68.3683C40.4253 68.3683 40.4202 68.3675 40.4152 68.3675C37.013 68.3675 34.3078 70.5375 34.3078 74.1117C34.3078 77.685 37.013 79.9171 40.4152 79.9171C41.7389 79.9171 43.4895 79.6361 44.2872 79.0581Z" fill="#0054A6"/>
<path d="M7.10768 79.5891H10.3254V74.8758L12.9441 79.5891H16.9159L13.2008 73.5958L16.6173 68.6804H12.9441L10.3254 73.0187V68.6804H6.15479V69.0855C6.9374 69.3506 7.10768 70.2095 7.10768 71.3956V79.5891Z" fill="#0054A6"/>
<path d="M30.1238 79.5891H33.3407V68.6804H29.1701V69.0855C29.9527 69.3506 30.1238 70.2095 30.1238 71.3956V79.5891Z" fill="#0054A6"/>
<path d="M59.0746 79.5891H62.278V71.4577H64.9966V68.6804H56.356V71.4577H59.0746V79.5891Z" fill="#0054A6"/>
<path d="M45.7811 79.5891H48.9979V75.3749H52.1863V79.5891H55.3888V68.6804H52.1863V72.8937H48.9979V68.6804H44.8265V69.0855C45.61 69.3506 45.7811 70.2095 45.7811 71.3956V79.5891Z" fill="#0054A6"/>
<path d="M18.1246 79.5891H21.0999V73.8609L25.8115 79.5891H28.3741V68.6804H25.4131V74.1578L20.9573 68.6804H17.1709V69.1014C17.9535 69.3665 18.1246 70.2095 18.1246 71.3956V79.5891Z" fill="#0054A6"/>
</svg>
