<svg width="80" height="80" viewBox="0 0 80 80" fill="none" xmlns="http://www.w3.org/2000/svg">
<path d="M29.7684 69.8294H24.8038V66.81C24.8038 65.9311 24.7501 65.3837 24.6438 65.1666C24.5387 64.9483 24.3055 64.8386 23.9432 64.8386C23.5352 64.8386 23.2758 64.9723 23.1649 65.2363C23.0552 65.5014 22.9992 66.074 22.9992 66.9529V75.026C22.9992 75.8706 23.0552 76.4226 23.1649 76.6786C23.2747 76.9369 23.5227 77.066 23.9078 77.066C24.2769 77.066 24.5181 76.9369 24.6324 76.6774C24.7467 76.4192 24.8038 75.8134 24.8038 74.8591V72.6717H29.7684V73.3494C29.7684 75.1471 29.6289 76.4226 29.3501 77.1746C29.0712 77.9254 28.4541 78.5837 27.4987 79.1506C26.5455 79.7163 25.3672 79.9986 23.9695 79.9986C22.5147 79.9986 21.3158 79.7597 20.3729 79.2797C19.4301 78.802 18.8049 78.138 18.4975 77.2923C18.1912 76.4443 18.0381 75.17 18.0381 73.4683V68.3952C18.0381 67.1437 18.0849 66.2066 18.1798 65.5791C18.2735 64.954 18.5547 64.3517 19.0221 63.7723C19.4895 63.1929 20.1387 62.738 20.9684 62.4054C21.7981 62.0729 22.7501 61.906 23.8278 61.906C25.2884 61.906 26.4964 62.1643 27.4472 62.6786C28.3981 63.1917 29.0232 63.8317 29.3215 64.5997C29.6209 65.3666 29.7707 66.5609 29.7707 68.1791V69.8294H29.7684Z" fill="white"/>
<path d="M39.8917 62.2742L42.7408 79.6307H37.6654L37.3979 76.5085H35.6208L35.3362 79.6307H30.1899L32.7145 62.2742H39.8917ZM37.2665 73.4342C37.0197 71.4696 36.7694 69.0387 36.5134 66.1439C36.0128 69.4696 35.6974 71.8982 35.5671 73.4342H37.2665Z" fill="white"/>
<path d="M52.0542 62.2742V66.0947H49.0965V79.6307H44.1308V66.0947H41.1982V62.2742H52.0542Z" fill="white"/>
<path d="M62.2954 67.5303H57.6874V66.2378C57.6874 65.6355 57.6268 65.2515 57.5102 65.0869C57.3925 64.9212 57.1948 64.8389 56.9194 64.8389C56.6199 64.8389 56.3937 64.9509 56.2405 65.1738C56.0874 65.3955 56.0108 65.7338 56.0108 66.1852C56.0108 66.7669 56.0965 67.2035 56.2679 67.4983C56.4302 67.792 56.8965 68.1463 57.6679 68.5589C59.8782 69.7486 61.2691 70.7258 61.8428 71.4915C62.4165 72.2561 62.7034 73.4915 62.7034 75.1932C62.7034 76.4309 62.5434 77.3429 62.2257 77.9292C61.9079 78.5166 61.2919 79.008 60.3811 79.4046C59.4691 79.8023 58.4062 80.0001 57.1971 80.0001C55.8691 80.0001 54.7354 79.7715 53.7971 79.3132C52.8588 78.8549 52.2439 78.2721 51.9525 77.5646C51.6611 76.8561 51.5171 75.8503 51.5171 74.5475V73.4103H56.1251V75.528C56.1251 76.1818 56.1902 76.6001 56.3205 76.7886C56.4485 76.9749 56.6794 77.0675 57.0097 77.0675C57.3422 77.0675 57.5868 76.9486 57.7491 76.7132C57.9091 76.4766 57.9914 76.1258 57.9914 75.6583C57.9914 74.6343 57.8382 73.9646 57.5319 73.6492C57.2199 73.3326 56.4451 72.8092 55.2097 72.0743C53.9742 71.3315 53.1559 70.7943 52.7548 70.4583C52.3537 70.1212 52.0211 69.6561 51.7582 69.0629C51.4942 68.4698 51.3628 67.7098 51.3628 66.7875C51.3628 65.4561 51.5491 64.4846 51.9228 63.8698C52.2954 63.2538 52.8999 62.7726 53.7331 62.4252C54.5651 62.0789 55.5719 61.9041 56.7525 61.9041C58.0405 61.9041 59.1399 62.0938 60.0485 62.4743C60.9571 62.8526 61.5571 63.3303 61.8519 63.9063C62.1457 64.4823 62.2931 65.4618 62.2931 66.8435V67.5303H62.2954Z" fill="white"/>
<path d="M6.61257 6.10743L5.496 6.52914L6.32457 7.38743C7.86057 8.97714 8.70629 11.0674 8.70629 13.2743C8.70629 16.6606 6.696 19.7166 3.58514 21.0594L3 21.312L3.128 21.9371C7.26971 42.2034 21.0229 59.416 39.9189 67.9829L40.2423 68.1291L40.5657 67.9829C59.4617 59.416 73.2148 42.2023 77.3566 21.9371L77.4846 21.312L76.8994 21.0594C73.7886 19.7166 71.7783 16.6606 71.7783 13.2743C71.7783 11.0686 72.624 8.97943 74.1566 7.38971L74.984 6.53143L73.8686 6.11086C63.1303 2.056 51.816 0 40.2377 0C28.6617 0 17.3486 2.05486 6.61257 6.10743Z" fill="white"/>
<path d="M70.9931 13.273C70.9931 10.7748 71.984 8.50961 73.592 6.84447C73.1714 6.68561 72.7474 6.53018 72.3234 6.37704C70.7166 8.22276 69.7417 10.6342 69.7417 13.273C69.7417 17.1953 71.8914 20.6136 75.0754 22.4193C70.8686 41.3108 57.6903 56.8193 40.2411 64.2399C22.7931 56.8205 9.61485 41.3108 5.408 22.4205C8.592 20.6148 10.7417 17.1965 10.7417 13.2742C10.7417 10.633 9.76685 8.22161 8.15771 6.37476C7.73371 6.5279 7.30971 6.68333 6.88914 6.84218C8.49828 8.50847 9.49028 10.7748 9.49028 13.2742C9.49028 17.0868 7.18628 20.3588 3.896 21.7793C8.048 42.0982 21.8183 58.9153 40.2423 67.2673C58.6663 58.9142 72.4366 42.097 76.5874 21.7782C73.2971 20.3588 70.9931 17.0856 70.9931 13.273Z" fill="#0A2240"/>
<path d="M15.5773 18.3931C15.2059 18.1382 14.5579 17.8159 14.6196 17.6091C14.7647 17.1245 18.2333 17.1119 18.8767 19.6331C19.4047 21.7051 19.9556 24.3371 21.1453 24.7657C22.399 25.2159 23.1464 24.7656 23.6882 24.3896C23.6882 24.3896 25.6184 22.7679 27.2596 22.7359C28.7053 22.7085 29.7339 23.1531 30.9842 23.8205C30.9842 23.8205 33.3956 25.3211 35.0916 25.2662C36.7876 25.2102 37.7602 24.2377 38.5659 23.7097C39.3716 23.1817 41.5716 21.8354 42.9853 22.5142C43.6802 22.8479 43.1236 23.8765 42.8459 24.3759C42.6584 24.7142 41.9213 26.2559 43.1796 26.7942C44.8916 27.5279 49.6002 22.7348 53.4927 22.7348C55.135 22.7348 57.0642 24.3885 57.0642 24.3885C57.607 24.7645 58.3567 25.2228 59.607 24.7645C60.7933 24.3291 61.4287 21.6239 61.8596 19.6982C62.4436 17.0959 65.8767 17.1542 65.9156 17.6125C65.935 17.8365 65.4184 18.1108 65.0344 18.3405C64.6242 18.5851 64.6013 18.6925 65.4047 18.9474C67.2059 19.5177 68.9556 20.1611 70.5979 20.8171C68.9659 18.7348 67.9899 16.1165 67.9899 13.2719C67.9899 10.4434 68.9556 7.83765 70.5704 5.76108C61.0493 2.53365 50.847 0.783936 40.2356 0.783936C29.6264 0.783936 19.4264 2.53251 9.90645 5.75879C11.5224 7.83651 12.4893 10.4434 12.4893 13.2731C12.4893 16.1097 11.519 18.7234 9.89502 20.8022C11.5579 20.1314 13.3247 19.4845 15.0927 18.9485C15.935 18.6937 15.8482 18.5794 15.5773 18.3931Z" fill="#0A2240"/>
<path d="M48.3568 47.4151C47.775 48.0859 45.599 51.4276 44.6379 52.5694C43.6596 53.7294 42.1099 54.8505 40.2356 54.8505C38.3602 54.8505 36.8105 53.7294 35.8322 52.5694C34.871 51.4276 32.695 48.0859 32.1133 47.4151C30.9488 46.0722 29.1785 46.1202 26.0996 46.8734C24.2756 47.3202 22.5236 47.9145 20.9385 48.5408C26.3133 54.3899 32.8745 59.1339 40.2459 62.3796C47.615 59.1351 54.1739 54.3934 59.5476 48.5465C57.9579 47.9179 56.2002 47.3214 54.3716 46.8734C51.2916 46.1214 49.5225 46.0734 48.3568 47.4151Z" fill="#0A2240"/>
<path d="M59.5229 27.5075C57.9972 27.0801 57.0532 26.8058 55.9069 26.6172C54.9675 26.4629 54.1995 27.0332 53.9961 27.8824C53.7001 29.1201 52.8487 30.9315 50.5904 31.3075C47.3721 31.8435 46.5949 29.1841 45.7915 29.4389C45.7915 29.4389 46.9401 28.3738 48.7332 27.3258C48.6247 27.6024 48.5469 27.9109 48.5469 28.2378C48.5469 29.4206 49.5389 30.3784 49.5389 30.3784C49.5389 30.3784 50.5309 29.4206 50.5309 28.2378C50.5309 27.6081 50.2498 27.0435 49.9869 26.6515C51.9355 25.5864 53.8692 25.3601 53.8692 25.3601C53.8692 25.3601 51.7446 24.1749 48.0612 26.1418C47.0612 26.6766 45.8635 27.3486 44.2681 28.7475C43.8898 29.0801 42.5664 30.0915 42.7641 31.5384C42.8795 32.3772 43.8704 32.9612 43.3698 33.5818C42.9309 34.1246 42.1115 33.2709 40.2361 33.2709C38.3606 33.2709 37.5401 34.1246 37.1012 33.5818C36.5995 32.9612 37.5915 32.3784 37.7058 31.5384C37.9046 30.0915 36.5801 29.0801 36.2018 28.7475C34.6064 27.3498 33.4087 26.6766 32.4087 26.1418C28.7252 24.1749 26.6007 25.3601 26.6007 25.3601C26.6007 25.3601 28.5344 25.5852 30.4829 26.6515C30.2201 27.0435 29.9389 27.6081 29.9389 28.2378C29.9389 29.4206 30.9309 30.3784 30.9309 30.3784C30.9309 30.3784 31.9241 29.4206 31.9241 28.2378C31.9241 27.9109 31.8464 27.6024 31.7366 27.3258C33.5286 28.3738 34.6784 29.4389 34.6784 29.4389C33.8749 29.1829 33.0978 31.8435 29.8795 31.3075C27.6201 30.9315 26.7687 29.1201 26.4738 27.8824C26.2715 27.0321 25.5024 26.4629 24.5629 26.6172C23.4167 26.8058 22.4727 27.0801 20.9469 27.5075C16.6589 28.7098 12.9149 30.1921 10.0532 31.4801C11.4384 34.8355 13.1321 38.0309 15.0955 41.0332C15.8932 40.6618 16.6441 40.3349 17.2612 40.1086C19.0692 39.4435 21.1504 38.5052 24.5504 40.0766C28.1549 41.7429 31.0407 44.9806 31.0407 44.9806C31.2441 44.8538 31.1824 44.3921 30.9847 44.0126C30.6361 43.3418 29.8521 42.5681 29.4212 42.1372C27.2155 39.9315 29.2372 39.6949 30.0349 39.7018C31.4338 39.7132 32.8772 40.2229 32.8772 40.2229C30.7207 38.0641 24.4338 37.9715 24.4338 37.9715C28.9012 36.7498 34.3904 39.3795 34.3904 39.3795C29.9629 35.4435 20.2875 36.3864 20.2875 36.3864C27.5024 34.3978 34.0452 37.7315 34.0452 37.7315C30.6715 34.7349 24.9069 34.5326 24.9069 34.5326C31.1024 33.8412 35.4761 36.9006 36.8429 38.6709C37.9218 40.0698 38.1961 40.5418 38.2909 40.7212C38.3972 40.9201 38.8464 41.7498 38.3458 42.3338C37.8464 42.9166 36.7344 42.8058 36.7344 42.8058C36.7344 42.8058 36.4018 44.1681 36.4852 44.6961C36.4852 44.6961 35.8452 44.2789 35.7344 42.8058C35.7344 42.8058 34.8452 42.6675 34.1229 42.2218C33.3995 41.7784 32.2589 41.0549 31.7035 41.5829C31.1481 42.1109 31.7869 42.9452 32.0647 43.3612C32.3424 43.7784 35.9001 49.9155 36.4704 50.7429C37.1447 51.7224 38.3046 52.7966 40.2384 52.7966C42.1709 52.7966 43.3309 51.7212 44.0052 50.7429C44.5755 49.9155 48.1321 43.7784 48.4098 43.3612C48.6875 42.9441 49.3275 42.1098 48.7721 41.5829C48.2167 41.0549 47.0761 41.7784 46.3527 42.2218C45.6304 42.6664 44.7412 42.8058 44.7412 42.8058C44.6304 44.2789 43.9904 44.6961 43.9904 44.6961C44.0738 44.1681 43.7412 42.8058 43.7412 42.8058C43.7412 42.8058 42.6292 42.9166 42.1298 42.3338C41.6292 41.7498 42.0795 40.9201 42.1847 40.7212C42.2795 40.5418 42.5538 40.0698 43.6326 38.6709C44.9984 36.9006 49.3732 33.8412 55.5686 34.5326C55.5686 34.5326 49.8029 34.7349 46.4292 37.7315C46.4292 37.7315 52.9721 34.3978 60.1869 36.3864C60.1869 36.3864 50.5115 35.4424 46.0841 39.3795C46.0841 39.3795 51.5732 36.7498 56.0407 37.9715C56.0407 37.9715 49.7538 38.0641 47.5972 40.2229C47.5972 40.2229 49.0418 39.7132 50.4406 39.7018C51.2395 39.6949 53.2612 39.9315 51.0544 42.1372C50.6235 42.5681 49.8395 43.3429 49.4909 44.0126C49.2932 44.3932 49.2315 44.8538 49.4361 44.9806C49.4361 44.9806 52.3218 41.7429 55.9264 40.0766C59.3264 38.5041 61.4075 39.4435 63.2155 40.1086C63.8361 40.3372 64.5926 40.6664 65.3972 41.0412C67.3618 38.0389 69.0555 34.8435 70.4406 31.4881C67.5698 30.1978 63.8201 28.7132 59.5229 27.5075ZM41.9458 48.9475L42.5229 49.5315C42.5229 49.5315 42.9606 48.8298 42.9824 47.6824C42.9824 47.6824 43.4704 48.7052 43.3435 49.5944C43.3229 49.7395 43.2749 50.1006 42.9138 50.2138C42.5527 50.3269 41.6772 50.6469 40.2589 50.6469C38.8418 50.6469 37.9652 50.3269 37.6041 50.2138C37.2418 50.1006 37.1938 49.7395 37.1744 49.5944C37.0475 48.7052 37.5355 47.6824 37.5355 47.6824C37.5561 48.8298 37.9949 49.5315 37.9949 49.5315L38.5709 48.9475L39.0784 49.6846L39.7446 49.0446L40.2589 49.7646L40.7732 49.0446L41.4407 49.6846L41.9458 48.9475ZM41.9275 38.3601C41.3835 38.7909 40.7469 39.3304 40.2064 39.3304C39.6658 39.3304 39.0292 38.7909 38.4852 38.3601C38.2852 38.1944 38.3229 37.9646 38.8178 37.8892C39.1549 37.8378 39.5961 37.8035 40.2075 37.8035C40.8189 37.8035 41.2589 37.8378 41.5972 37.8892C42.0898 37.9646 42.1275 38.1944 41.9275 38.3601Z" fill="#0A2240"/>
<path d="M21.3415 13.0928C20.873 13.2128 20.1015 13.879 18.7175 14.2333C16.3564 14.8379 14.7667 13.9533 14.2364 11.8836C13.7141 9.8459 14.7678 8.11333 17.3678 7.44704C18.2833 7.21275 18.993 7.2139 19.3987 7.1099C19.5233 7.0779 19.7255 7.00361 19.9964 6.88818L19.977 8.6299C19.1621 8.39333 18.3587 8.37047 17.609 8.56247C16.1004 8.94875 15.4638 10.015 15.8513 11.5259C16.2078 12.9202 17.0924 13.471 18.4238 13.1305C19.5793 12.8345 20.0855 12.2596 19.8935 11.5088L19.745 10.9293L18.3301 11.2916C18.0284 11.3682 17.8135 11.4813 17.5953 11.7545L17.6021 10.8733C17.6113 10.391 17.7061 10.2859 18.2273 10.1533L21.1198 9.41275C20.9895 9.64018 21.0341 9.81161 21.097 10.0585L21.8638 13.0505C21.6101 13.0585 21.4353 13.0688 21.3415 13.0928Z" fill="white"/>
<path d="M23.0182 11.8913L22.3256 7.61815C22.2296 7.02844 22.0147 6.70386 21.6147 6.58958L28.2296 5.51758C28.1713 5.62844 28.1542 5.72101 28.1656 5.79758C28.1873 5.92901 28.4296 6.34958 28.7862 7.14386C28.0033 6.81129 27.2433 6.82158 26.385 6.96101L23.873 7.36786L24.1187 8.88672L26.8959 8.43758C27.2662 8.37701 27.5176 8.24672 27.7153 8.12558L27.3336 9.12901C27.2342 9.39186 27.0227 9.56101 26.7359 9.60672L24.2982 10.001L24.5633 11.6399L27.2136 11.2113C28.2627 11.041 29.0559 10.6319 29.5473 10.0364C29.3473 11.0216 29.1862 11.5747 29.2136 11.7393C29.2273 11.8262 29.2845 11.9073 29.3759 12.0044L22.6662 13.0913C23.0125 12.8673 23.113 12.481 23.0182 11.8913Z" fill="white"/>
<path d="M30.5872 10.7359L30.2672 6.41936C30.2238 5.82393 30.0364 5.48222 29.6489 5.3325L36.3312 4.83765C36.2638 4.94279 36.2375 5.03308 36.2432 5.11079C36.2535 5.24336 36.4581 5.68336 36.7449 6.50622C35.9941 6.10622 35.2364 6.05136 34.3689 6.11536L31.8306 6.30279L31.9449 7.83765L34.7506 7.62965C35.1255 7.60222 35.3861 7.49365 35.5941 7.38965L35.1266 8.3565C35.0055 8.60908 34.7792 8.75879 34.4901 8.7805L32.0272 8.96222L32.1495 10.6182L34.8272 10.4205C35.8878 10.3428 36.7141 10.0034 37.2546 9.4525C36.9701 10.4171 36.7621 10.9542 36.7746 11.1199C36.7815 11.2079 36.8306 11.2936 36.9129 11.3976L30.1335 11.8994C30.4981 11.7074 30.6318 11.3314 30.5872 10.7359Z" fill="white"/>
<path d="M37.6802 4.76221L40.3533 4.80564C39.975 4.96564 39.775 5.34964 39.7659 5.92564L39.695 10.2536L41.5099 10.2834C42.5293 10.2994 43.3282 10.1028 44.0242 9.53821C43.655 10.4731 43.3888 10.9896 43.3865 11.1554C43.3853 11.2445 43.4368 11.3336 43.5099 11.4456L37.5728 11.3485C37.951 11.1771 38.1179 10.8148 38.1282 10.2285L38.199 5.90049C38.2082 5.30164 38.0539 4.94506 37.6802 4.76221Z" fill="white"/>
<path d="M46.7436 11.8045C44.355 11.6273 43.1036 10.2125 43.2556 8.15875C43.411 6.07189 44.9321 4.7416 47.2556 4.91418C49.6441 5.09246 50.9081 6.47418 50.747 8.6376C50.5996 10.6262 49.067 11.9782 46.7436 11.8045ZM49.0956 8.41589C49.1973 7.04675 48.5161 6.21932 47.2521 6.1256C45.8601 6.02275 45.0144 6.8136 44.9036 8.31532C44.803 9.66275 45.4841 10.4902 46.7493 10.5839C48.1298 10.6867 48.9858 9.89589 49.0956 8.41589Z" fill="white"/>
<path d="M52.7976 11.1191C52.7096 11.7213 52.7713 12.0802 53.1519 12.3442L50.6616 11.9373C51.0719 11.8253 51.2788 11.4893 51.377 10.8882L52.0685 6.65962C52.1668 6.05848 52.0776 5.67448 51.7245 5.43677L54.809 5.94077C54.7542 6.01048 54.7233 6.06191 54.7188 6.09391C54.7108 6.13734 54.729 6.22991 54.7645 6.34762L56.4205 11.6551L57.0822 7.47791C57.1805 6.87677 57.0605 6.47562 56.7165 6.25163L59.1439 6.6482C58.6045 6.81848 58.5325 7.18762 58.4525 7.67905C58.4502 7.69048 58.4468 7.7122 58.4433 7.73391L57.6628 12.5088C57.6262 12.7385 57.6182 12.9168 57.7199 13.0905L55.1873 12.6768C55.2548 12.5979 55.2868 12.5362 55.2936 12.4928C55.3016 12.4482 55.2799 12.3785 55.2456 12.2608L53.4022 6.76477L52.7976 11.1191Z" fill="white"/>
<path d="M64.6627 14.5154C64.1942 14.3966 63.1976 14.6114 61.8136 14.2583C59.4513 13.6571 58.4799 12.1189 59.0067 10.048C59.5256 8.00914 61.2799 6.99314 63.8822 7.65599C64.7976 7.88914 65.4204 8.22971 65.8262 8.33371C65.9507 8.36571 66.1644 8.39657 66.457 8.42514L65.6044 9.94514C65.0033 9.34628 64.3084 8.94171 63.5599 8.75085C62.0513 8.36685 60.9816 8.99771 60.5964 10.5109C60.241 11.9051 60.753 12.8126 62.0856 13.152C63.241 13.4457 63.961 13.184 64.153 12.4331L64.3004 11.8537L62.8844 11.4937C62.5827 11.4171 62.3404 11.4126 62.0182 11.5474L62.4467 10.7771C62.6867 10.3589 62.8204 10.312 63.3404 10.4446L66.2342 11.1806C66.0102 11.3177 65.9667 11.4891 65.9039 11.736L65.1427 14.7291C64.9142 14.6137 64.7564 14.5394 64.6627 14.5154Z" fill="white"/>
</svg>
