<svg width="80" height="80" viewBox="0 0 80 80" fill="none" xmlns="http://www.w3.org/2000/svg">
<path d="M76.468 9.62222C75.4716 9.27306 74.44 8.93071 73.3993 8.60196V5.58197L72.6115 5.21695C72.4981 5.16253 69.6878 3.87247 64.2589 2.5824C55.284 0.447782 46.215 0 40.1875 0C29.2661 0 21.07 1.40456 16.1161 2.58693C10.6871 3.877 7.88026 5.16707 7.7635 5.22035L6.97563 5.58651V8.60536C5.93382 8.93524 4.90222 9.27873 3.9069 9.62562L3 9.94304V32.7833L7.84058 38.1375C8.88692 45.0106 10.9014 51.3487 13.8148 56.9772C16.2427 61.6899 19.3934 65.9935 23.1525 69.7316C29.7933 76.3066 36.5191 79.1906 39.1479 79.796C39.5005 79.8764 39.9415 79.9558 39.9415 79.9569L40.1829 80L40.4233 79.9569C40.4233 79.9569 40.8767 79.8764 41.2259 79.7948C43.8457 79.1906 50.5522 76.3191 57.1783 69.7713C60.9267 66.0497 64.0715 61.766 66.4989 57.0747C69.4226 51.4757 71.437 45.1659 72.5015 38.3245L77.3761 32.7697V9.93963L76.468 9.62222Z" fill="#DE0316"/>
<path d="M68.3434 30.4583L68.2981 30.4469C67.1044 63.1895 45.5462 73.7787 40.8949 74.8737C40.6126 74.9406 40.2442 75.0086 40.2442 75.0086C40.2442 75.0086 39.8769 74.9406 39.5969 74.8749C34.949 73.7775 13.3761 63.1906 12.1904 30.4299L12.145 30.4413C12.5599 64.6768 34.8618 75.6378 39.5969 76.7556C39.8769 76.8213 40.2442 76.8893 40.2442 76.8893C40.2442 76.8893 40.6126 76.8213 40.8949 76.7556C45.6346 75.6344 67.9228 64.6688 68.3434 30.4583Z" fill="#DE0316"/>
<path d="M76.0772 10.7922C74.7546 10.3312 73.4275 9.89626 72.0959 9.4874V6.33705C72.0959 6.33705 61.128 1.24707 40.241 1.24707C19.3539 1.24707 8.38608 6.33705 8.38608 6.33705V9.4874C7.05445 9.89626 5.72735 10.3312 4.40479 10.7922V32.1452L9.17848 37.4165C13.5441 67.24 34.6533 77.2408 39.503 78.3563C39.8204 78.43 40.2376 78.5048 40.2376 78.5048C40.2376 78.5048 40.6559 78.43 40.9744 78.3563C45.8184 77.2397 66.8381 67.2785 71.2672 37.6127L76.0704 32.1452L76.0772 10.7922Z" fill="#061A33"/>
<path d="M68.3434 30.4583L68.2981 30.4469C67.1044 63.1895 45.5462 73.7787 40.8949 74.8737C40.6126 74.9406 40.2442 75.0086 40.2442 75.0086C40.2442 75.0086 39.8769 74.9406 39.5969 74.8749C34.949 73.7775 13.3761 63.1906 12.1904 30.4299L12.145 30.4413C12.5599 64.6768 34.8618 75.6378 39.5969 76.7556C39.8769 76.8213 40.2442 76.8893 40.2442 76.8893C40.2442 76.8893 40.6126 76.8213 40.8949 76.7556C45.6346 75.6344 67.9228 64.6688 68.3434 30.4583Z" fill="#DE0316"/>
<path d="M7.37793 13.1989C8.47981 12.8384 9.58888 12.4983 10.7051 12.1786C10.9575 14.495 11.21 16.811 11.4624 19.1266C11.5123 19.8306 11.5383 20.1831 11.5882 20.8871L11.7356 19.0495C12.0016 16.588 12.2684 14.1273 12.5359 11.6673C13.6582 11.365 14.7862 11.0805 15.9198 10.8137V26.6573C14.9109 26.8942 14.4064 27.0189 13.4009 27.2808V17.5089L13.2535 20.0029L12.4305 27.5358C11.7141 27.7297 11.3558 27.8306 10.6428 28.0369C10.3699 25.6873 10.0971 23.3369 9.8243 20.9857L9.67692 18.5496V28.3203C8.75529 28.5969 8.29503 28.7409 7.37793 29.039V13.1989Z" fill="#DE0316"/>
<path d="M16.9688 10.5722C18.7236 10.1811 20.483 9.82629 22.2605 9.52588V12.1094C21.1983 12.2919 20.6734 12.3894 19.6101 12.5991V16.5544C20.6428 16.3503 21.1598 16.2539 22.1959 16.076V18.621C21.1598 18.7989 20.6428 18.8942 19.6101 19.0994V23.4003C20.6678 23.1906 21.1972 23.0931 22.2605 22.9106V25.3728C20.4875 25.6744 18.7236 26.0292 16.9688 26.4192V10.5722Z" fill="#DE0316"/>
<path d="M23.3179 9.34893C24.3812 9.17776 24.914 9.09954 25.9808 8.95557V22.3403C26.9353 22.2111 27.4137 22.1521 28.3693 22.0444V24.5044C26.6802 24.7054 24.9964 24.9352 23.3179 25.1936V9.34893Z" fill="#DE0316"/>
<path d="M29.2955 8.56009C30.4654 8.43653 31.641 8.33337 32.8098 8.25515C35.4046 7.97741 35.7935 10.0009 35.8162 12.0868C35.8275 13.174 35.9794 14.9844 34.7959 15.6192C36.2492 16.0874 35.9193 18.5167 35.9204 19.63C35.9204 21.8201 35.4103 23.9921 32.8279 24.0976C31.6478 24.1781 30.4654 24.2801 29.2876 24.4048L29.2955 8.56009ZM32.5343 14.8608C33.2258 14.8109 33.2689 14.489 33.2689 12.7794C33.2689 11.0699 33.2474 10.7038 32.5343 10.7559C32.2917 10.7729 32.1704 10.782 31.9289 10.8013V14.9061L32.5343 14.8608ZM32.5774 21.7215C33.312 21.6682 33.355 21.1762 33.355 19.4871C33.355 17.798 33.312 17.3706 32.5774 17.4239C32.3178 17.4421 32.1885 17.4523 31.9289 17.4727V21.7702L32.5774 21.7215Z" fill="#DE0316"/>
<path d="M44.7162 19.4451V8.0918C45.7897 8.13714 46.3259 8.16662 47.3972 8.23917V19.6571C47.3972 21.3462 47.4414 21.7316 48.1976 21.7883C48.9537 21.845 48.9968 21.4663 48.9968 19.7772V8.35933C50.042 8.44549 50.5634 8.49537 51.6041 8.6076V19.962C51.6574 22.5569 51.0464 24.4478 48.1295 24.2698C45.2581 24.0827 44.6992 21.9867 44.7162 19.4451Z" fill="#DE0316"/>
<path d="M52.5552 8.71411C53.7402 8.85015 54.9229 9.00848 56.1034 9.1891C58.9284 9.64255 59.1733 12.3451 59.1642 14.7235C59.1642 16.1677 59.3116 18.359 57.9013 19.292C58.2951 21.3695 58.6877 23.4478 59.0792 25.5269C58.043 25.341 57.525 25.2537 56.4866 25.0927L55.4561 19.5504L55.1342 19.504V24.8921C54.1026 24.7459 53.5856 24.679 52.5518 24.5588L52.5552 8.71411ZM55.7599 17.1347C56.5115 17.248 56.5002 16.5135 56.5331 14.4718C56.5444 13.7077 56.7961 11.9155 55.7599 11.6377L55.1376 11.547V17.0429L55.7599 17.1347Z" fill="#DE0316"/>
<path d="M59.9873 9.84888C61.1153 10.0631 61.6775 10.1776 62.801 10.4214C63.1705 12.1996 63.539 13.9783 63.9063 15.7573C64.0854 16.7039 64.1738 17.1778 64.3529 18.1266V10.7705C65.346 10.9972 65.8413 11.1242 66.8299 11.3793V27.224C65.8334 26.9666 65.3335 26.8431 64.3359 26.6107C63.862 24.4643 63.3874 22.3188 62.9121 20.1739C62.7341 19.2965 62.6445 18.8578 62.4654 17.9815V26.1924C61.478 25.9815 60.9826 25.8818 59.9918 25.6936L59.9873 9.84888Z" fill="#DE0316"/>
<path d="M67.8696 11.656C69.6154 12.1287 71.351 12.6389 73.0707 13.2V15.7869C72.0368 15.4469 71.5176 15.2904 70.477 14.9809V18.9373C71.4972 19.2388 71.9983 19.3907 73.0072 19.7229V22.2667C71.9983 21.9403 71.4927 21.7827 70.477 21.4811V25.7799C71.5176 26.0882 72.0368 26.2492 73.0707 26.5859V29.0447C71.351 28.4779 69.6154 27.9734 67.8696 27.5007V11.656Z" fill="#DE0316"/>
<path d="M37.7104 23.1565C36.8126 22.0875 36.7695 20.056 36.7695 15.9081C36.7695 11.9313 36.8126 9.89987 37.6458 8.78778C38.1594 8.14615 39.0152 7.86841 40.2974 7.86841C41.5795 7.86841 42.4569 8.14615 42.9274 8.7447C43.8048 9.83525 43.8264 11.8667 43.8264 15.9081C43.8264 20.3292 43.8048 22.2564 42.9059 23.2426C42.4365 23.7766 41.5806 23.9693 40.2985 23.9693C39.0357 23.9693 38.1809 23.7335 37.7104 23.1565ZM41.1533 15.9727C41.1533 10.7977 41.1533 10.4984 40.2974 10.4984C39.4642 10.4984 39.4642 10.7977 39.4642 15.9727C39.4642 21.1874 39.4642 21.4674 40.2974 21.4674C41.1533 21.4674 41.1533 21.1897 41.1533 15.9727Z" fill="#DE0316"/>
<path d="M33.6214 34.9814H29.5029L31.0753 36.6241L31.0741 62.5014L29.5743 64.127H35.128L33.6384 62.5014V42.8386L38.4189 56.4455V49.0872L33.6214 34.9814Z" fill="#DE0316"/>
<path d="M30.4665 38.8075C30.3214 38.8948 30.1706 38.9798 30.0255 39.0614C29.8804 39.1431 29.7433 39.2201 29.605 39.3029C29.346 39.4587 29.0965 39.6298 28.8579 39.8153C28.4118 40.1554 27.9867 40.5223 27.5848 40.9138C26.8281 41.6518 26.1642 42.4795 25.6078 43.3783C25.073 44.2393 24.6322 45.1552 24.2928 46.1103C24.1794 46.4323 24.0661 46.7622 23.9527 47.0796C23.8983 47.2417 23.8393 47.4027 23.7872 47.5636C23.6251 48.0341 23.4879 48.4218 23.3553 48.7823C23.3526 48.7901 23.3492 48.7977 23.3451 48.8049C23.3296 48.8333 23.3203 48.8646 23.3179 48.8968C23.3211 48.9326 23.3319 48.9674 23.3496 48.9988L23.3621 49.026L23.5208 49.4613C23.5571 49.5588 23.5911 49.6574 23.6251 49.7572L24.2361 51.5291C24.5026 52.3007 24.8336 53.0485 25.2258 53.7646C25.988 55.1668 27.0008 56.4175 28.214 57.4545C28.6531 57.8432 29.125 58.1932 29.6242 58.5008C29.7569 58.5791 29.894 58.6562 30.0255 58.7276C30.157 58.799 30.3214 58.8942 30.4665 58.9804L30.5368 59.0223V55.5693C30.1102 55.2404 29.7075 54.8817 29.3318 54.4958C28.7235 53.873 28.2054 53.1682 27.7923 52.4019C27.3629 51.6081 27.0802 50.7433 26.9579 49.849C26.8124 48.7194 26.9315 47.5714 27.306 46.4957C27.5906 45.6956 27.9959 44.9437 28.5076 44.2659C29.0509 43.5454 29.6845 42.8978 30.3928 42.3387C30.4416 42.2991 30.4915 42.2617 30.5413 42.2254V38.7678L30.4665 38.8075Z" fill="#DE0316"/>
<path d="M44.2301 58.2638C43.0218 58.5271 41.7902 58.6688 40.5537 58.6866H40.2624C39.2036 58.6873 38.1467 58.5982 37.103 58.4202C36.106 58.2498 35.1261 57.9915 34.1748 57.6482V60.5616C35.3347 60.8909 36.52 61.1226 37.7185 61.2543C38.5632 61.3487 39.4125 61.396 40.2624 61.396C40.8292 61.396 41.396 61.3756 41.9628 61.3347C43.327 61.2356 44.6791 61.0106 46.0019 60.6625C46.1028 60.6353 46.2082 60.607 46.3205 60.5741V57.6641C45.6372 57.9083 44.9389 58.1086 44.2301 58.2638Z" fill="#DE0316"/>
<path d="M38.4204 39.1941V36.4734L38.2005 36.4927C37.0843 36.5919 35.9773 36.7761 34.8892 37.0436L35.7779 39.6509C36.6461 39.4328 37.5294 39.2801 38.4204 39.1941Z" fill="#DE0316"/>
<path d="M49.4186 42.8533L49.4175 36.6241L50.9898 34.9814H46.8714L42.0659 49.1087V56.4455L42.0727 56.4467L46.8544 42.8386L46.8555 61.1603H46.8544V62.5014L45.3648 64.127H50.9184L49.4186 62.5014V42.8533Z" fill="#DE0316"/>
<path d="M51.8366 43.7635C52.2248 44.2094 52.5667 44.6937 52.8568 45.2089L52.8931 45.2746L55.5515 42.8305L55.5004 42.7875C55.1263 42.4768 54.7523 42.1549 54.3906 41.842C54.1333 41.621 53.868 41.3886 53.605 41.1698L53.3488 40.951C53.0756 40.7175 52.7933 40.476 52.5031 40.2527C52.1302 39.967 51.7357 39.6859 51.331 39.4319C51.0736 39.2687 50.8152 39.1156 50.6191 39C50.4211 38.8797 50.2172 38.7696 50.008 38.6701H49.999L49.9536 38.6475V42.0483C50.6445 42.5465 51.2763 43.1219 51.8366 43.7635Z" fill="#DE0316"/>
<path d="M52.8544 52.5799C52.2876 53.6149 51.4408 54.5807 50.3491 55.4536C50.2233 55.5545 50.0918 55.6543 49.958 55.7529V59.1538L49.9977 59.1333H50.0079C50.3786 58.9542 50.7376 58.7517 51.0826 58.5269L51.1699 58.4724C51.578 58.2185 51.9759 57.9476 52.3511 57.6653C52.6651 57.4306 52.9667 57.1744 53.258 56.9273L53.4643 56.7516C53.8044 56.4637 54.1445 56.1723 54.5209 55.8447L54.6909 55.6996C54.955 55.4729 55.2271 55.2371 55.4992 55.0115L55.5502 54.9684L52.8896 52.5198L52.8544 52.5799Z" fill="#DE0316"/>
<path d="M41.5295 52.6933V39.1896C42.6016 39.2589 43.6656 39.422 44.7093 39.677L45.6094 37.03C44.5694 36.7763 43.5123 36.5987 42.4466 36.4983C42.1462 36.47 41.8355 36.4462 41.5249 36.4292L41.5306 33.4058C41.8627 33.4058 43.5076 33.4285 44.1674 33.501C44.8975 33.5815 46.1161 33.9885 46.1274 33.993L46.2034 34.018L46.2646 30.8857H37.5142L38.8484 32.5148L38.9618 33.4217V58.1052H39.0162C39.4493 58.1358 39.8098 58.1483 40.1906 58.1483C40.5715 58.1483 40.9649 58.1358 41.4762 58.1154H41.5329V57.5112L41.5295 52.6933Z" fill="#DE0316"/>
<path d="M40.2374 64.1248L42.2654 61.9324H38.2104L40.2374 64.1248Z" fill="#DE0316"/>
</svg>
