<svg width="80" height="80" viewBox="0 0 80 80" fill="none" xmlns="http://www.w3.org/2000/svg">
<path d="M22.8708 79.6367C22.7628 79.6367 22.6548 79.5876 22.5861 79.4993C22.5174 79.4109 22.4879 79.3029 22.5076 79.1949L23.0082 76.8585C23.0475 76.6916 23.1948 76.5639 23.3715 76.5639H26.3755C27.2689 76.5639 27.6027 76.4952 27.7106 76.4363C27.8677 76.3283 28.0052 76.0927 28.0052 76.0142C28.0052 75.9847 28.0052 75.9062 27.7106 75.7589C27.4849 75.6411 27.1707 75.543 26.8369 75.4252C25.5116 74.9736 23.5187 74.306 23.666 71.9793C23.7543 70.6933 24.2354 69.6821 25.06 69.0342C25.8552 68.4746 27.0431 68.1408 28.604 68.0426H28.6236C28.6727 68.0426 28.712 68.0426 28.7513 68.0721C29.0556 68.1114 30.6754 68.131 32.1284 68.131C32.2364 68.131 32.3443 68.1801 32.4131 68.2684C32.4818 68.3568 32.5112 68.4648 32.4916 68.5728L31.9909 70.9976C31.9517 71.1645 31.8044 71.2921 31.6277 71.2921H28.6236C28.388 71.2921 27.8972 71.2921 27.7794 71.3609C27.5732 71.5081 27.5634 71.567 27.5634 71.675C27.5536 71.8517 28.3488 72.0873 28.7316 72.1953C30.0766 72.588 32.1087 73.1868 31.9909 75.4546C31.8928 76.7701 31.3135 78.0267 30.5085 78.6452C29.4286 79.3127 28.0935 79.6465 26.5228 79.6465H22.8413L22.8708 79.6367ZM43.8991 79.3127C43.7322 79.3127 43.5752 79.3127 43.4083 79.3029C41.9946 79.2244 40.9245 78.7532 40.257 77.9089C39.5403 77.0155 39.3047 75.7295 39.56 74.1882C39.7367 73.1967 40.0803 72.1855 40.6104 71.2725H37.8027L38.1954 72.9905C38.2052 73.0396 38.2052 73.0985 38.1954 73.1476L37.0271 78.8317C36.9879 78.9986 36.8406 79.1262 36.6639 79.1262H33.6598C33.5519 79.1262 33.4439 79.0771 33.3751 78.9888C33.3064 78.9004 33.277 78.7924 33.2966 78.6844L34.8772 71.2725H32.5701C32.4622 71.2725 32.3542 71.2234 32.2854 71.1351C32.2167 71.0467 32.1873 70.9387 32.2069 70.8307L32.7076 68.4059C32.7468 68.239 32.8941 68.1114 33.0708 68.1114H41.0914C41.1994 68.1114 41.3074 68.1605 41.3761 68.2488C41.4448 68.3372 41.4743 68.4452 41.4547 68.5531L41.0227 70.6246C42.1124 69.1127 43.801 68.0132 46.1963 68.0132C46.3632 68.0132 46.5301 68.0132 46.7068 68.0328C47.8653 68.1114 48.847 68.5433 49.6225 69.3091C50.5061 70.2908 50.8202 71.5768 50.5552 73.0592C50.1723 75.3859 49.1022 77.2511 47.5609 78.3114C46.5792 78.9593 45.3226 79.3029 43.8991 79.3029V79.3127ZM45.7938 71.194C44.1053 71.194 43.5555 73.1476 43.369 74.306C43.2414 74.9637 43.2905 75.4546 43.5065 75.7295C43.6537 75.916 43.8795 76.024 44.2035 76.0534C44.282 76.0534 44.3605 76.0633 44.4293 76.0633C45.5681 76.0633 46.3436 75.003 46.7265 72.9218C46.8443 72.2444 46.805 71.7634 46.5989 71.4885C46.4614 71.3118 46.2258 71.2038 45.892 71.1743H45.784L45.7938 71.194ZM55.2085 79.136C55.0318 79.136 54.8845 79.0084 54.8453 78.8415L54.0206 74.7969L53.1371 78.8513C53.0978 79.0182 52.9506 79.136 52.7738 79.136H49.7698C49.6618 79.136 49.5538 79.087 49.4851 78.9986C49.4164 78.9102 49.3869 78.8023 49.4066 78.6943L51.5761 68.4157C51.6154 68.2488 51.7627 68.1212 51.9394 68.1212H56.4553C57.6726 68.1212 58.6543 68.4746 59.2826 69.1324C59.8422 69.7214 60.1171 70.546 60.0778 71.5081C59.9895 73.0494 59.2434 74.1784 57.8689 74.8754L58.6445 78.6844C58.6641 78.7924 58.6445 78.9102 58.566 78.9888C58.4972 79.0771 58.3893 79.1262 58.2813 79.1262H55.1889L55.2085 79.136ZM55.13 72.6371C56.0037 72.6371 56.1509 72.156 56.1804 71.8026C56.2098 71.5572 56.1313 71.4787 56.1117 71.4492C56.0233 71.351 55.8466 71.2921 55.6306 71.2921H54.0795L54.3544 72.6469H55.1398L55.13 72.6371ZM67.6665 79.0575C67.5585 79.0575 67.4505 79.0084 67.3818 78.9201C67.3131 78.8317 67.2836 78.7237 67.3032 78.6157L68.1181 74.8067L65.8012 78.3899C65.7325 78.4979 65.6147 78.5568 65.4871 78.5568H64.5642C64.3875 78.5568 64.2403 78.4292 64.201 78.2623L63.4745 74.6103L62.5026 78.7826C62.4634 78.9495 62.3161 79.0673 62.1394 79.0673H59.1354C59.0274 79.0673 58.9194 79.0182 58.8507 78.9299C58.7819 78.8415 58.7525 78.7335 58.7721 78.6255L60.9417 68.347C60.981 68.1801 61.1282 68.0525 61.305 68.0525H65.3104C65.4871 68.0525 65.6343 68.1703 65.6736 68.347L66.4688 72.0677L68.5795 68.2488C68.6482 68.131 68.766 68.0623 68.9034 68.0623H72.8303C72.9383 68.0623 73.0463 68.1114 73.115 68.1997C73.1837 68.2881 73.2132 68.3961 73.1935 68.5041L71.0239 78.7826C70.9847 78.9495 70.8374 79.0771 70.6607 79.0771H67.6567L67.6665 79.0575ZM71.4264 67.4438C71.3185 67.4438 71.2105 67.3947 71.1417 67.3064C71.073 67.3947 70.965 67.4536 70.8472 67.4536H70.3466C70.1993 67.4536 70.0717 67.3653 70.0128 67.2376L69.8557 66.8744C69.8361 66.9726 69.8164 67.0708 69.7968 67.1591C69.7575 67.3358 69.6103 67.4536 69.4336 67.4536H68.9329C68.8249 67.4536 68.7169 67.4045 68.6482 67.3162C68.5795 67.4045 68.4715 67.4536 68.3635 67.4536H67.8628C67.6959 67.4536 67.5585 67.3456 67.5094 67.1886C67.4407 67.2965 67.3229 67.3653 67.1952 67.3653H66.6946C66.5866 67.3653 66.4786 67.3162 66.4099 67.2278C66.3412 67.1395 66.3117 67.0217 66.3412 66.9137L66.3804 66.7566C66.1154 67.2082 65.6736 67.4438 65.114 67.4438C64.6919 67.4438 64.3974 67.3358 64.201 67.11C64.0832 66.9726 64.0145 66.7959 63.985 66.5995C63.6807 67.1395 63.1997 67.4536 62.6106 67.4536C62.1787 67.4536 61.8547 67.3162 61.6486 67.0511C61.5995 66.9824 61.5504 66.9039 61.5209 66.8253C61.3246 67.2082 60.8926 67.4438 60.3527 67.4438H59.3513C59.2434 67.4438 59.1354 67.3947 59.0666 67.3064C59.047 67.2867 59.0274 67.2573 59.0176 67.2278C58.9587 67.3555 58.831 67.4438 58.6838 67.4438H57.1817C57.0738 67.4438 56.9658 67.3947 56.897 67.3064C56.8283 67.3947 56.7203 67.4536 56.6025 67.4536H55.0122C54.9042 67.4536 54.7962 67.4045 54.7275 67.3162C54.6587 67.4045 54.5508 67.4634 54.4329 67.4634H53.9323C53.8243 67.4634 53.7163 67.4144 53.6476 67.326C53.6378 67.3064 53.6181 67.2867 53.6083 67.2671C53.5396 67.3358 53.4414 67.3751 53.3432 67.3751H53.1763C53.0487 67.3751 52.9211 67.3064 52.8622 67.1984C52.8131 67.3554 52.6757 67.4634 52.5088 67.4634H52.0081C51.9001 67.4634 51.7921 67.4144 51.7234 67.326C51.6547 67.2376 51.6252 67.1297 51.6547 67.0119L52.1554 64.7539C52.1946 64.587 52.3419 64.4692 52.5186 64.4692H53.1862C53.3629 64.4692 53.5101 64.5968 53.5494 64.7637L53.6083 65.0779L53.8734 64.6459C53.9421 64.5379 54.0599 64.4692 54.1875 64.4692H54.9434C55.0514 64.4692 55.1594 64.5183 55.2281 64.6066C55.2969 64.5183 55.4048 64.4594 55.5226 64.4594H57.113C57.221 64.4594 57.329 64.5085 57.3977 64.5968C57.4664 64.5085 57.5744 64.4496 57.6922 64.4496H58.1929C58.3009 64.4496 58.4089 64.4987 58.4776 64.587C58.5463 64.6754 58.5758 64.7932 58.5463 64.9012L58.2322 66.2854H58.7721C58.8801 66.2854 58.9881 66.3345 59.0568 66.4228C59.0765 66.4523 59.0961 66.4719 59.1059 66.5014L59.4986 64.7343C59.5379 64.5674 59.6851 64.4496 59.8618 64.4496H60.8632C61.3246 64.4496 61.5602 64.6263 61.678 64.7735C61.7467 64.8521 61.786 64.9502 61.8154 65.0582C62.11 64.5968 62.5419 64.3612 63.1211 64.3612C63.5531 64.3612 63.877 64.4987 64.0832 64.7637C64.1617 64.8717 64.2206 64.9895 64.2599 65.127L64.3483 64.7343C64.3875 64.5674 64.5348 64.4496 64.7115 64.4496H65.2122C65.3202 64.4496 65.4282 64.4987 65.4969 64.587C65.5656 64.6754 65.595 64.7932 65.5656 64.9012L65.2318 66.3246C65.2318 66.3246 65.2809 66.2854 65.3496 66.1283L65.6834 64.7343C65.7227 64.5674 65.8699 64.4496 66.0466 64.4496H66.5473C66.6553 64.4496 66.7633 64.4987 66.832 64.587C66.832 64.5968 66.8516 64.6165 66.8615 64.6263C66.9106 64.4692 67.048 64.3612 67.2149 64.3612H68.1377C68.2359 64.3612 68.3242 64.4005 68.3929 64.4692C68.6973 64.5183 68.8838 64.6557 68.982 64.7834C69.0114 64.8226 69.0409 64.8619 69.0703 64.9208L69.1096 64.7441C69.1489 64.5772 69.2961 64.4594 69.4728 64.4594H69.9735C70.1208 64.4594 70.2484 64.5379 70.3073 64.6754L70.4742 65.0386L70.5331 64.7637C70.5724 64.587 70.7196 64.4692 70.8963 64.4692H71.397C71.505 64.4692 71.613 64.5183 71.6817 64.6066C71.7504 64.5183 71.8584 64.4594 71.9762 64.4594H73.5666C73.6746 64.4594 73.7826 64.5085 73.8513 64.5968C73.92 64.6852 73.9495 64.7932 73.9298 64.9012L73.8513 65.3233C73.8316 65.4313 73.7629 65.5196 73.6746 65.5687C73.6942 65.6276 73.6942 65.6865 73.6746 65.7454L73.5862 66.1578C73.5862 66.1578 73.5568 66.2559 73.5273 66.2952C73.5764 66.3345 73.6255 66.3836 73.6451 66.4523C73.704 66.5897 73.6746 66.7468 73.5666 66.8548C73.5469 66.8842 73.4684 67.0609 73.3997 67.2278C73.3408 67.3653 73.2034 67.4634 73.0561 67.4634H71.4657L71.4264 67.4438ZM68.6286 66.6781L68.6973 66.3737C68.6973 66.3737 68.6286 66.4326 68.5893 66.4523L68.6384 66.6683L68.6286 66.6781ZM62.9739 65.5196C62.7972 65.5295 62.7186 65.7651 62.6794 65.9614C62.6401 66.1774 62.6597 66.2854 62.6794 66.305C62.7579 66.2854 62.9051 66.1087 62.9641 65.824C62.9935 65.6571 62.9837 65.5589 62.9739 65.5098V65.5196ZM26.0614 65.1859C25.9239 65.1859 25.8061 65.1171 25.7374 64.9993C25.6687 64.8815 25.6785 64.7441 25.7374 64.6263L34.0722 51.1473L33.6206 50.843C29.6741 48.4083 26.6308 44.9723 24.8342 40.908L6.967 54.5048C6.89828 54.5539 6.81974 54.5833 6.7412 54.5833C6.64303 54.5833 6.54486 54.5441 6.46632 54.4655C6.3387 54.3281 6.3387 54.1121 6.46632 53.9747L23.1653 35.3613C23.2046 33.0052 24.2059 30.4233 24.8833 29.2256C26.0712 27.0953 29.1636 23.4826 34.2587 19.7521C36.2025 18.358 38.6077 17.0033 39.2654 16.7873C39.3145 16.7578 40.6006 16.2572 41.8277 16.2572C43.2218 16.2572 44.7532 16.7775 45.8527 17.1996C46.9719 16.2277 53.3629 10.6908 55.0416 9.23789C58.8408 5.92951 65.5067 0.510436 65.5754 0.46135C65.6441 0.402447 65.7227 0.382812 65.811 0.382812C65.9092 0.382812 65.9976 0.422081 66.0663 0.490801C66.2037 0.628241 66.2135 0.834402 66.0957 0.981659C66.0663 1.02093 62.6303 5.29139 59.2335 9.25752C57.5057 11.2995 49.9661 19.6048 49.112 20.5473L48.8764 22.3536C48.8764 22.8248 48.0714 23.3746 47.718 23.3746C47.6198 23.3746 47.502 23.3157 47.4333 23.247C47.4039 23.2175 47.3842 23.1881 47.3646 23.1586C47.3646 23.355 47.3646 23.4924 47.3646 23.5513C47.3646 24.0814 46.4614 24.6508 46.0687 24.6508C45.9706 24.6508 45.8429 24.5821 45.7742 24.5134C45.7349 24.4741 45.6957 24.4152 45.6662 24.3563C45.6859 24.6017 45.6957 24.7686 45.6957 24.8079C45.6957 25.3478 44.6158 26.0645 44.2231 26.0645C44.1249 26.0645 43.9973 26.0056 43.9286 25.9271C43.909 25.9074 43.8893 25.8878 43.8795 25.8681C43.9384 26.3197 43.9482 26.359 43.9482 26.3983C43.9482 26.7811 43.3886 27.2622 42.8683 27.4683C42.7898 27.5469 42.672 27.6843 42.5542 27.861L37.194 33.6237C37.3216 33.7317 37.41 33.82 37.41 33.8299C39.344 35.5969 41.1111 38.0512 42.0437 39.4355C43.153 39.6318 49.4066 40.6233 50.9479 40.8589C52.3517 31.2381 56.8283 26.8204 57.0247 26.6437C57.3879 26.2805 57.6628 26.0449 57.8297 25.9074C57.8788 25.8583 57.918 25.8289 57.9377 25.8092C58.0064 25.7405 58.1046 25.7013 58.2027 25.7013C58.242 25.7013 58.2911 25.7013 58.3304 25.7209C59.0077 25.9761 59.5182 26.2314 59.5379 26.2412C63.3666 28.0476 67.7843 31.8173 69.2372 33.0543C69.4434 33.231 69.571 33.339 69.6103 33.3685L70.0815 33.8299C70.1698 33.9182 70.1993 34.036 70.1797 34.1538L68.8445 41.4185C68.8151 41.5952 68.658 41.7229 68.4813 41.7229L67.5683 41.664L67.3425 44.7269C67.3327 44.8742 67.2345 45.0018 67.0971 45.0509L65.8503 45.4926L65.2416 47.3285C65.2416 47.3285 65.2122 47.3972 65.1925 47.4266C65.114 47.5248 63.3371 49.9496 62.7481 50.627L62.5812 50.7939L67.3131 55.1331C67.3916 55.2018 67.4309 55.3 67.4309 55.3982C67.4309 55.4963 67.3916 55.5945 67.3229 55.6632L66.4884 56.4977C60.2742 62.2014 52.0965 65.2153 42.8291 65.2153H26.0319L26.0614 65.1859ZM43.4475 22.4223C43.4672 22.4812 43.477 22.5499 43.477 22.6285C43.5163 22.9623 43.6341 23.8458 43.7519 24.6705L43.585 22.5401C43.585 22.5401 43.5457 22.491 43.5261 22.4714C43.5163 22.4714 43.4966 22.4518 43.4574 22.4223H43.4475ZM45.4306 20.9498C45.4601 21.0185 45.4699 21.1068 45.4699 21.205C45.4699 21.4897 45.5386 22.3831 45.5975 23.1881C45.5975 23.1684 45.5975 23.1586 45.5975 23.139C45.5582 22.3634 45.4993 21.4112 45.4895 20.9792C45.4699 20.9792 45.4502 20.9596 45.4306 20.9498ZM47.237 19.7619C47.3155 19.9091 47.3155 20.0466 47.3155 20.1153C47.3155 20.2331 47.3155 20.508 47.3351 20.8712V19.8011C47.3351 19.8011 47.2762 19.7717 47.2468 19.7521L47.237 19.7619ZM56.7203 63.5955C56.5534 63.5955 56.4062 63.4875 56.3669 63.3206C56.3178 63.1439 56.4062 62.9475 56.5829 62.8788C62.4045 60.5325 65.7423 57.5677 66.8418 56.5958L67.5978 55.9283C67.6665 55.8694 67.7548 55.8399 67.8432 55.8399C67.9315 55.8399 68.0199 55.8694 68.0886 55.9381L69.679 57.3616C69.7575 57.4303 69.8066 57.5383 69.7968 57.6463C69.7968 57.7543 69.7477 57.8524 69.6594 57.9212L68.8249 58.5887C66.0368 60.5816 62.4437 62.7217 56.7891 63.5955C56.7694 63.5955 56.7498 63.5955 56.7302 63.5955H56.7203Z" fill="#092340"/>
<path d="M65.811 0.736287C65.811 0.736287 62.3848 4.99693 58.9586 9.01215C57.1228 11.1817 48.7684 20.3706 48.7684 20.3706L48.5132 22.2948C48.5132 22.5795 47.8947 22.9918 47.718 22.9918C47.6886 22.9918 47.6787 22.982 47.6787 22.9623V19.703C47.6787 19.6147 47.5904 19.5361 47.5904 19.5361C47.502 19.5361 44.3311 17.7789 44.3311 17.7789C44.3311 17.7789 46.7559 19.7816 46.8345 19.8699C46.9228 19.9583 46.9228 20.0368 46.9228 20.1252C46.9228 20.5473 47.0112 23.2176 47.0112 23.5514C47.0112 23.8262 46.3142 24.2778 46.0884 24.2778C46.0393 24.2778 46.0098 24.2582 46.0098 24.2189C46.0098 23.9637 45.8429 21.4603 45.8429 20.8811C45.8429 20.7927 45.7546 20.7142 45.7546 20.7142C45.6662 20.7142 42.7505 19.0453 42.7505 19.0453C42.7505 19.0453 44.9201 20.9694 45.0085 21.048C45.0968 21.048 45.0968 21.1363 45.0968 21.2149C45.0968 21.8039 45.3521 24.6411 45.3521 24.808C45.3521 25.0927 44.4882 25.6915 44.2427 25.6915C44.2035 25.6915 44.1838 25.6719 44.1838 25.6424L43.9286 22.4715C43.9286 22.3831 43.8402 22.3046 43.7617 22.2162C43.6832 22.1279 40.7576 20.2135 40.7576 20.2135C40.7576 20.2135 42.8487 22.2162 42.9272 22.3046C43.0156 22.3929 43.0941 22.4715 43.0941 22.6384C43.1825 23.3943 43.5948 26.31 43.5948 26.3983C43.5948 26.5652 43.1727 26.9874 42.672 27.1543C42.5836 27.2426 42.4167 27.4095 42.2498 27.6549L36.6541 33.6728C36.9093 33.8397 37.1547 34.095 37.1547 34.095C39.0789 35.8523 40.8264 38.2771 41.8375 39.7791C42.2597 39.8675 51.1147 41.2811 51.2816 41.2811C52.6168 31.4247 57.2995 26.9088 57.2995 26.9088C57.8002 26.4081 58.134 26.1529 58.2224 26.0744C58.8899 26.3296 59.3906 26.575 59.3906 26.575C63.8181 28.6661 69.1685 33.506 69.4139 33.6728L69.836 34.095L68.5009 41.3597L67.2443 41.2713L66.9891 44.6975L65.5656 45.1982L64.898 47.2009C64.898 47.2009 63.0622 49.7043 62.4732 50.3718L62.0511 50.794L67.0676 55.3884L66.2332 56.2229C60.1367 61.8186 52.1161 64.8325 42.8389 64.8325H26.0417L34.563 51.0492L33.8071 50.5485C29.8802 48.1237 26.8762 44.6975 25.1189 40.6921L24.952 40.3583L6.7412 54.2103L23.5383 35.4988V35.4105C23.5383 33.3194 24.4612 30.7277 25.2073 29.3926C26.3755 27.3015 29.4679 23.7084 34.4845 20.0368C36.821 18.3679 39.2458 17.1113 39.4127 17.1113C39.4127 17.1113 40.6693 16.6106 41.8375 16.6106C43.1727 16.6106 44.6747 17.1113 45.9313 17.612C45.9313 17.612 53.4512 11.0934 55.287 9.50301C59.1255 6.16517 65.811 0.72647 65.811 0.72647M67.8137 56.2032L69.4041 57.6267L68.5696 58.2943C66.2332 59.9632 62.6401 62.3095 56.7007 63.2225C62.2965 60.9645 65.5558 58.2059 67.0578 56.8708L67.8137 56.2032ZM68.069 64.7245V64.8129C68.5696 64.8129 68.8249 65.0681 68.7365 65.5688C68.6482 65.9026 68.4813 66.1578 68.1475 66.2364L68.3144 67.0708H67.8137L67.5585 65.8142H67.8137C67.9806 65.8142 68.1475 65.7259 68.2359 65.4804C68.3242 65.2252 68.1475 65.1466 67.9806 65.1466H67.5585L67.1363 66.9825H66.6357L67.1363 64.7245H68.0591M63.0426 64.7245C63.7985 64.7245 63.9654 65.2252 63.7985 65.8928C63.6316 66.5603 63.2095 67.061 62.5419 67.061C61.786 67.061 61.6191 66.5603 61.786 65.8928C61.9529 65.2252 62.2867 64.7245 63.0426 64.7245ZM62.6204 66.6487C62.9542 66.6487 63.2095 66.3149 63.288 65.8928C63.3764 65.4706 63.288 65.1368 62.9542 65.1368C62.6204 65.1368 62.3652 65.3921 62.2867 65.8928C62.1983 66.3149 62.2867 66.6487 62.6204 66.6487ZM73.4782 64.8129L73.3899 65.235H72.3885L72.3002 65.6571H73.223L73.1346 66.0793H72.2118L72.1234 66.5799H73.2132C73.1248 66.6683 72.9579 67.0806 72.9579 67.0806H71.3675L71.8682 64.8227H73.4586M71.289 64.8227L70.7883 67.0806H70.2876L69.6986 65.7455L69.6103 66.2462C69.5219 66.2462 69.355 67.0806 69.355 67.0806H68.8543L69.355 64.8227H69.8557L70.5233 66.2462L70.6116 65.6571L70.7785 64.8227H71.2792M66.4295 64.8227L66.0957 66.2462C65.9288 66.8352 65.5067 67.0806 65.006 67.0806C64.417 67.0806 64.1716 66.8254 64.2501 66.2462L64.5839 64.8227H65.0846L64.7508 66.2462C64.6624 66.4131 64.7508 66.6683 65.0846 66.6683C65.4183 66.6683 65.5067 66.4131 65.5852 66.2462L65.919 64.8227H66.4197M60.7356 64.8227C61.2362 64.8227 61.4031 65.0779 61.3246 65.4117C61.2362 65.667 61.0693 65.8338 60.8239 65.9124C61.0792 66.0007 61.246 66.1676 61.1577 66.4131C61.0693 66.8352 60.7356 67.0806 60.2349 67.0806H59.2335L59.7342 64.8227H60.7356ZM59.9796 65.6571H60.4018C60.5687 65.6571 60.657 65.5688 60.7356 65.4019C60.7356 65.235 60.6472 65.1466 60.4803 65.1466H60.0582L59.9698 65.6473M59.8029 66.5701H60.2251C60.392 66.5701 60.5588 66.4818 60.5588 66.3149C60.5588 66.148 60.4705 66.0596 60.3036 66.0596H59.8815L59.7931 66.5603M58.0358 64.803L57.6137 66.6388H58.615L58.5267 67.061H57.0247L57.5253 64.803H58.026M56.9363 64.803L56.848 65.2252H55.8466L55.7583 65.6473H56.6811L56.5927 66.0695H55.6699L55.5815 66.5701H56.6713C56.5044 66.6585 56.416 67.0708 56.416 67.0708H54.8256L55.3263 64.8129H56.9167M54.7471 64.8129L54.2464 67.0708H53.7457L54.001 65.9026L54.0893 65.5688L53.1665 66.9923H52.9996L52.6658 65.5688L52.5775 65.9026L52.3223 67.0708H51.8216L52.3223 64.8129H52.9898L53.2451 66.0695L54.001 64.8129H54.7569M46.0785 68.3863C46.2356 68.3863 46.4025 68.3863 46.5694 68.4059C47.826 68.4943 48.6605 68.995 49.2397 69.5742C49.9956 70.4086 50.3294 71.5769 50.0741 73.0004C49.7403 75.0031 48.8175 76.9272 47.237 78.0169C46.3338 78.6158 45.1655 78.9496 43.7813 78.9496C43.6242 78.9496 43.4672 78.9496 43.3101 78.9398C40.3061 78.7729 39.3832 76.7702 39.8054 74.257C40.365 71.1351 42.3873 68.3961 46.0884 68.3961M44.3311 76.4462C45.7546 76.4462 46.5988 75.1405 46.9915 73.0102C47.2468 71.5867 46.8246 70.9191 45.8233 70.8406C45.7742 70.8406 45.7251 70.8406 45.6859 70.8406C44.174 70.8406 43.2217 72.1659 42.8978 74.2668C42.6425 75.6019 43.0647 76.3578 44.066 76.4364C44.1544 76.4364 44.2427 76.4462 44.3311 76.4462ZM72.7321 68.4158L70.5625 78.6943H67.5585L68.6482 73.5992L68.9034 72.7648L65.3987 78.1936H64.4759L63.3862 72.7648L63.2193 73.6876L62.0511 78.7041H59.047L61.2166 68.4256H65.2318L66.2332 73.1084L68.8249 68.4256H72.7517M28.5549 68.4256C28.5549 68.5139 32.0596 68.5139 32.0596 68.5139L31.559 70.9388H28.5549C28.1328 70.9388 27.6321 70.9388 27.4652 71.1057C27.21 71.2725 27.1314 71.4394 27.1314 71.6947C27.0431 72.8629 31.7259 72.2837 31.559 75.4547C31.4706 76.6229 30.9699 77.7911 30.2238 78.3802C29.1341 79.0477 27.799 79.303 26.4639 79.303H22.7922L23.2929 76.9665H26.297C26.6308 76.9665 27.4652 76.9665 27.799 76.7996C28.0542 76.6327 28.2997 76.2989 28.2997 76.0437C28.2997 75.7884 28.1328 75.6216 27.799 75.4547C26.6308 74.8656 23.7838 74.6202 23.9605 72.0285C24.0488 70.8602 24.4612 69.9374 25.2171 69.3582C26.0515 68.7692 27.3081 68.5237 28.5549 68.4354M56.3767 68.5237C58.4678 68.5237 59.7146 69.6135 59.636 71.5278C59.5477 72.9513 58.8801 74.0312 57.3781 74.6987L58.2125 78.7925H55.1201L53.9519 73.0298H55.0416C55.7092 73.0298 56.3767 72.7746 56.4651 71.8616C56.5534 71.194 56.043 70.9388 55.5423 70.9388H53.5396L53.9617 73.0298L52.7051 78.7925H49.7011L51.8707 68.5139H56.3866M41.0129 68.5139L40.5122 70.9388H37.2529L37.7536 73.1084L36.5853 78.7925H33.5813L35.2502 70.9388H32.4916L32.9923 68.5139H41.0129ZM65.811 0C65.6441 0 65.4871 0.0589029 65.3496 0.166892C65.2809 0.225795 58.615 5.64486 54.806 8.95325C53.2058 10.3375 47.2664 15.4817 45.784 16.7677C44.6747 16.3456 43.2021 15.8743 41.8375 15.8743C40.5417 15.8743 39.1967 16.4045 39.1378 16.4241C38.1757 16.7579 35.5644 18.3581 34.0525 19.4282C28.8985 23.2078 25.7767 26.8597 24.5593 29.0293C23.8721 30.2565 22.8511 32.8777 22.7922 35.2043L6.19143 53.7195C5.93619 54.0042 5.93619 54.4361 6.19143 54.711C6.33869 54.8681 6.53503 54.9466 6.73138 54.9466C6.88845 54.9466 7.04553 54.8975 7.17315 54.7994L24.6673 41.4775C26.5031 45.4043 29.517 48.7618 33.4144 51.1572L33.5518 51.2456L25.4036 64.43C25.2662 64.6558 25.2563 64.9405 25.384 65.1761C25.5116 65.4117 25.757 65.5491 26.0319 65.5491H42.8291C45.9313 65.5491 48.9157 65.2154 51.743 64.5576C51.7332 64.5871 51.7234 64.6165 51.7136 64.6558L51.2129 66.9137C51.1638 67.1297 51.2129 67.3555 51.3602 67.5322C51.4583 67.65 51.5958 67.7384 51.743 67.7776C51.478 67.8464 51.2718 68.0623 51.2129 68.3372L50.7515 70.5363C50.565 70.0061 50.2803 69.5153 49.8974 69.0833C49.0335 68.2194 47.9732 67.758 46.7265 67.6697C46.5399 67.6598 46.3632 67.65 46.1865 67.65C44.4096 67.65 42.8585 68.2489 41.651 69.3484L41.7983 68.6416C41.8473 68.4256 41.7884 68.1998 41.651 68.0231C41.5136 67.8562 41.2976 67.7482 41.0816 67.7482H33.061C32.8941 67.7482 32.737 67.8071 32.6094 67.9053C32.4818 67.7973 32.3149 67.7482 32.148 67.7482C30.7736 67.7482 29.2127 67.7286 28.8494 67.6991C28.7807 67.6795 28.712 67.6697 28.6433 67.6697C28.6236 67.6697 28.6138 67.6697 28.5942 67.6697C26.9744 67.7776 25.7178 68.1311 24.8833 68.7201C23.9507 69.4466 23.4205 70.5559 23.3224 71.9401C23.1555 74.5515 25.4036 75.3074 26.7486 75.7688C27.0725 75.8768 27.3769 75.975 27.5732 76.083C27.5634 76.0928 27.5536 76.1026 27.5437 76.1124C27.4456 76.1419 27.1511 76.1909 26.405 76.1909H23.4009C23.0573 76.1909 22.753 76.4364 22.6843 76.7702L22.1836 79.1066C22.1345 79.3226 22.1836 79.5484 22.3308 79.7251C22.4683 79.9018 22.6843 80 22.9002 80H26.5718C28.2113 80 29.6053 79.6564 30.7147 78.9692C30.7343 78.9594 30.7638 78.9397 30.7834 78.9201C31.6768 78.2231 32.3051 76.8978 32.4032 75.4645C32.5407 72.8924 30.2435 72.2248 28.8789 71.8223C28.7022 71.7732 28.4862 71.7045 28.2997 71.6456C28.4273 71.6456 28.5647 71.6456 28.6629 71.6456H31.667C31.8437 71.6456 32.0007 71.5867 32.1284 71.4885C32.256 71.5965 32.4229 71.6456 32.5898 71.6456H34.4354L32.953 78.606C32.9039 78.8219 32.953 79.0477 33.1003 79.2244C33.2377 79.4012 33.4537 79.4993 33.6697 79.4993H36.6737C37.0271 79.4993 37.3216 79.2539 37.3904 78.9103L38.5586 73.2262C38.5782 73.1182 38.5782 73.02 38.5586 72.912L38.2641 71.6456H39.9821C39.6287 72.3819 39.3636 73.2163 39.1967 74.1195C38.9218 75.7786 39.1967 77.1628 39.9723 78.1347C40.7184 79.0674 41.867 79.5779 43.3886 79.6662C43.5653 79.6662 43.7322 79.676 43.8991 79.676C45.3913 79.676 46.7265 79.3128 47.7573 78.6158C48.3856 78.1936 48.9255 77.6439 49.3967 76.9861L49.0531 78.5961C49.004 78.8121 49.0531 79.0379 49.2004 79.2146C49.3378 79.3913 49.5538 79.4895 49.7698 79.4895H52.7738C53.1174 79.4895 53.4218 79.2441 53.4905 78.9103L54.001 76.5738L54.4722 78.9005C54.5409 79.2441 54.8453 79.4895 55.1987 79.4895H58.2911C58.4678 79.4895 58.6347 79.4306 58.7721 79.3128C58.8801 79.3717 59.0077 79.4012 59.1255 79.4012H62.1296C62.4732 79.4012 62.7677 79.1655 62.8462 78.8318L63.4353 76.3186L63.8378 78.3114C63.9065 78.655 64.2108 78.9005 64.5642 78.9005H65.4871C65.7325 78.9005 65.9681 78.7729 66.1055 78.5667L67.3327 76.6622L66.94 78.5078C66.8909 78.7238 66.94 78.9496 67.0873 79.1263C67.2247 79.303 67.4407 79.4012 67.6566 79.4012H70.6607C71.0043 79.4012 71.3086 79.1557 71.3773 78.8219L73.5469 68.5434C73.596 68.3274 73.5469 68.1016 73.3997 67.9249C73.3408 67.8562 73.2819 67.7973 73.2033 67.758C73.4193 67.6991 73.5862 67.542 73.6746 67.3261C73.7236 67.2082 73.7825 67.0708 73.8218 67.0119C73.9887 66.8057 74.028 66.521 73.9298 66.2756C73.92 66.2462 73.9004 66.2167 73.8905 66.1971L73.9691 65.7848C73.9691 65.7848 73.9789 65.7259 73.9789 65.6964C74.0574 65.608 74.1065 65.4902 74.136 65.3724L74.2243 64.9503C74.2636 64.7343 74.2145 64.5085 74.0672 64.3416C73.9298 64.1747 73.7138 64.0766 73.4979 64.0766H71.9075C71.7995 64.0766 71.7013 64.0962 71.613 64.1355C71.5246 64.0962 71.4264 64.0766 71.3184 64.0766H70.8178C70.6411 64.0766 70.484 64.1355 70.3564 64.2336C70.2287 64.1355 70.0717 64.0766 69.895 64.0766H69.3943C69.1979 64.0766 69.0212 64.1551 68.8838 64.2827C68.7758 64.214 68.6384 64.1551 68.4715 64.1158C68.3537 64.0373 68.2064 63.9882 68.0591 63.9882H67.1363C66.9793 63.9882 66.8418 64.0373 66.724 64.1158C66.6455 64.0864 66.5571 64.0668 66.4688 64.0668H65.9681C65.811 64.0668 65.6736 64.1158 65.546 64.1944C65.4282 64.106 65.2809 64.0668 65.1238 64.0668H64.6231C64.4072 64.0668 64.2108 64.1551 64.0734 64.3122C63.8574 64.1355 63.5236 63.9882 63.0328 63.9882C62.6401 63.9882 62.1689 64.0864 61.7762 64.43C61.5896 64.2533 61.2755 64.0766 60.7748 64.0766H59.7735C59.4299 64.0766 59.1255 64.3122 59.0568 64.6558L58.7721 65.9222C58.7721 65.9222 58.7132 65.9222 58.6838 65.9222H58.6052L58.8212 64.9798C58.8703 64.7638 58.8212 64.5282 58.674 64.3613C58.5365 64.1846 58.3205 64.0864 58.0947 64.0864H57.5941C57.4861 64.0864 57.3879 64.106 57.2995 64.1453C57.2112 64.106 57.113 64.0864 57.005 64.0864H55.4147C55.3067 64.0864 55.2085 64.106 55.1201 64.1453C55.0318 64.106 54.9336 64.0864 54.8256 64.0864H54.0697C53.8832 64.0864 53.7065 64.1551 53.569 64.2827C53.5101 64.2238 53.4316 64.1747 53.3531 64.1453C54.2268 63.8999 55.0907 63.6152 55.9251 63.3108C55.9251 63.3501 55.935 63.3894 55.9448 63.4385C56.0331 63.7624 56.3276 63.9784 56.6516 63.9784C56.6909 63.9784 56.7302 63.9784 56.7694 63.9784C62.5026 63.085 66.1448 60.9253 68.9525 58.9226L69.8164 58.2256C69.9833 58.0881 70.0913 57.8918 70.0913 57.6758C70.0913 57.4598 70.0029 57.2536 69.8459 57.1064L68.2555 55.6829C68.1181 55.5553 67.9413 55.4964 67.7646 55.4964H67.745C67.745 55.4571 67.745 55.4178 67.745 55.3786C67.745 55.1822 67.6566 54.9859 67.5094 54.8484L63.0524 50.7645C63.72 49.9693 65.3594 47.7408 65.4282 47.6427C65.4772 47.5838 65.5067 47.515 65.5361 47.4365L66.0859 45.7774L67.1658 45.3945C67.4407 45.2964 67.637 45.0411 67.6566 44.7564L67.853 42.0567L68.3733 42.096C68.3733 42.096 68.4028 42.096 68.4224 42.096C68.7758 42.096 69.0801 41.8407 69.1489 41.4971L70.484 34.2324C70.5233 33.9968 70.4545 33.7514 70.2778 33.5747L69.8557 33.1525C69.8557 33.1525 69.787 33.0838 69.7477 33.0642C69.7182 33.0445 69.6004 32.9366 69.4139 32.7795C67.9512 31.5327 63.5138 27.7433 59.6262 25.9075C59.6262 25.9075 59.0961 25.6424 58.3991 25.3872C58.3107 25.3577 58.2322 25.3381 58.1438 25.3381C57.9475 25.3381 57.761 25.4166 57.6235 25.5541C57.6137 25.5639 57.5744 25.5933 57.5352 25.6326C57.3781 25.77 57.0836 26.0155 56.7007 26.3885C56.5142 26.5652 52.0572 30.9535 50.5846 40.4467C48.6997 40.1522 43.5261 39.3275 42.2008 39.1115C41.2485 37.7077 39.5403 35.3614 37.6456 33.6238L42.7211 28.1752C42.7211 28.1752 42.7702 28.1163 42.7996 28.0771C42.8781 27.9593 42.9567 27.8611 43.0254 27.7924C43.5752 27.5568 44.2427 27.0266 44.2624 26.4376C44.8023 26.3689 45.8037 25.7111 45.9902 25.0337C46 25.0337 46.0196 25.0337 46.0295 25.0337C46.5301 25.0337 47.5217 24.4545 47.6689 23.7575C48.1598 23.7575 49.1317 23.1292 49.1906 22.3831L49.4066 20.7142C50.5944 19.4085 57.7511 11.5253 59.4593 9.50301C62.8462 5.53688 66.2921 1.2566 66.3215 1.21733C66.5571 0.922813 66.5375 0.500675 66.2626 0.235612C66.1154 0.0981716 65.9288 0.0196343 65.7423 0.0196343L65.811 0ZM63.2586 67.6795C63.4647 67.5911 63.6611 67.4733 63.828 67.3162C63.8378 67.3261 63.8476 67.3457 63.8574 67.3555C63.9752 67.4929 64.1323 67.6108 64.309 67.6795H63.2487H63.2586ZM59.2924 67.8169H60.2938C60.7454 67.8169 61.1381 67.6795 61.4326 67.4242C61.5307 67.5224 61.6584 67.6108 61.8253 67.6795H61.2951C60.9515 67.6795 60.6472 67.9249 60.5785 68.2587L60.2152 69.9571C60.068 69.5545 59.8422 69.1913 59.5477 68.8772C58.9881 68.298 58.2125 67.9347 57.2603 67.7973H58.6249C58.7427 67.7973 58.8605 67.7678 58.9586 67.7187C59.0568 67.7678 59.1746 67.7973 59.2924 67.7973V67.8169ZM65.6049 67.7482C65.7914 67.6991 65.9583 67.6206 66.1154 67.5126C66.2528 67.6598 66.4393 67.7384 66.6455 67.7384H67.1462C67.2345 67.7384 67.3229 67.7187 67.4014 67.6893C67.5192 67.7678 67.6665 67.8169 67.8137 67.8169H68.3144C68.3831 67.8169 68.4518 67.8169 68.5206 67.7875C68.4126 67.8562 68.3242 67.9445 68.2555 68.0623L66.616 71.0173L66.027 68.2587C65.9779 68.0231 65.811 67.8365 65.6049 67.7384V67.7482ZM69.8262 67.6893C69.8262 67.6893 69.8459 67.6697 69.8557 67.6598C69.8655 67.6598 69.8753 67.6795 69.8851 67.6893H69.8164H69.8262ZM52.7149 67.7776C52.764 67.758 52.8131 67.7286 52.8622 67.6991C52.9407 67.7286 53.0291 67.7482 53.1174 67.7482H53.2843C53.3531 67.7482 53.4218 67.7482 53.4807 67.7187C53.5199 67.7384 53.5592 67.758 53.5985 67.7776H52.7248H52.7149ZM54.6391 67.7776C54.6391 67.7776 54.6489 67.7776 54.6587 67.7776C54.6587 67.7776 54.6686 67.7776 54.6784 67.7776H54.6391ZM56.7891 67.7776C56.7891 67.7776 56.8185 67.7678 56.8283 67.758C56.848 67.758 56.8676 67.7776 56.8872 67.7776C56.8578 67.7776 56.8185 67.7776 56.7891 67.7776ZM44.4391 75.7197C44.3802 75.7197 44.3213 75.7197 44.2525 75.7099C43.9188 75.6805 43.8304 75.5626 43.801 75.5332C43.6537 75.3467 43.6341 74.9344 43.7322 74.414C43.8991 73.344 44.3802 71.5867 45.7938 71.5867C45.8233 71.5867 45.8626 71.5867 45.892 71.5867C46.0982 71.6063 46.2454 71.6652 46.3142 71.7536C46.3829 71.8321 46.5105 72.1168 46.3731 72.8924C46.0295 74.7675 45.3717 75.7197 44.4391 75.7197ZM54.5213 71.6652H55.6306C55.7288 71.6652 55.7975 71.6849 55.827 71.6947C55.827 71.6947 55.827 71.7241 55.827 71.7536C55.8073 71.999 55.7779 72.2739 55.1398 72.2739H54.6587L54.5311 71.6554L54.5213 71.6652ZM58.3009 75.0914C58.6936 74.8656 59.0274 74.6104 59.3121 74.3159L58.7132 77.1334L58.3009 75.0914Z" fill="white"/>
<path d="M40.08 60.7288C40.08 60.7288 49.4357 52.3744 50.9378 42.6849L51.0261 42.2628L41.6704 40.7607V51.6185L30.9795 63.7329H42.927C46.5201 63.7329 56.9655 63.3107 65.4868 55.3785L61.393 51.6185C55.3751 58.8047 40.0898 60.7288 40.0898 60.7288H40.08Z" fill="#512D82"/>
<path d="M34.73 29.0587L33.8956 26.0546L12.6709 48.6145L32.9728 32.4849L33.7287 34.9882L41.5824 26.5455L40.6596 23.8752C40.4927 23.8752 34.73 29.0587 34.73 29.0587ZM60.7161 5.8313L47.0997 18.034C47.0997 18.034 48.2679 18.4562 48.6017 18.8685L60.7161 5.8313Z" fill="white"/>
<path d="M38.7452 44.5209L29.9686 37.1678L28.2997 38.5029C30.8915 43.0188 36.1534 46.6119 36.1534 46.6119V50.5388L28.0445 63.7429L38.8237 50.9609C38.7354 50.9609 38.7354 44.5307 38.7354 44.5307L38.7452 44.5209ZM58.6347 27.4783C60.0582 29.0687 64.2305 33.3293 64.2305 33.3293L64.5643 38.6797L65.1533 39.4356L63.3961 40.5253L60.8043 36.3432C60.8043 36.3432 57.8003 39.1018 55.9547 43.5293L53.3629 43.1072C53.3629 43.1072 52.7739 47.5347 49.5244 52.8851L49.6128 52.7967C53.628 49.8712 55.0417 45.8658 55.0417 45.8658C55.0417 45.8658 58.6347 49.1251 58.8802 49.3705C58.9685 49.4589 59.2139 49.6258 59.5477 49.7927C59.8815 49.9596 60.2153 49.9596 60.6374 49.9596C60.9712 49.9596 61.305 49.9596 61.5602 49.7043C62.1493 49.0368 62.5616 48.3692 62.5616 48.3692L61.305 46.9457L61.5602 46.2781L63.1506 47.2795L63.7397 46.6905L61.2363 45.1001L59.8128 45.5222L60.1466 44.6878L61.2363 44.0987L63.3273 45.6008L63.9949 46.0229L64.417 44.8546L63.4942 44.0202V43.4312L65.2515 44.2656L65.9191 44.0104L66.1743 40.1719L67.5094 40.2602L68.3439 34.4975C68.4323 34.4092 62.9936 29.481 58.6544 27.4783H58.6347ZM63.7298 33.6631C62.5616 34.4975 61.2265 35.8327 61.2265 35.8327L63.4844 37.8354L63.7397 33.6533L63.7298 33.6631ZM41.5038 23.7183C41.5038 23.5514 41.4154 23.4631 41.3369 23.4631C40.5024 23.0409 36.6541 21.372 36.9879 20.9597C37.41 20.459 39.9134 18.0342 39.9134 18.0342C39.9134 18.0342 37.41 19.2024 35.1521 20.8713C29.9686 24.7098 27.1315 28.136 26.1301 29.8933C25.4626 31.1499 24.8735 33.1526 24.8735 33.1526L35.319 22.2065C35.319 22.2065 37.5769 22.6286 40.5024 23.8754L41.4253 26.5457L41.8474 26.4573C41.8474 26.4573 41.9358 26.4573 41.9358 26.2904C41.9358 25.8683 41.602 24.2877 41.5136 23.6987L41.5038 23.7183Z" fill="#C6C9C8"/>
</svg>
