<svg width="80" height="80" viewBox="0 0 80 80" fill="none" xmlns="http://www.w3.org/2000/svg">
<path d="M38.2104 80H36.0634V70.5202H39.928C40.3243 70.5202 40.7537 70.5202 41.1501 70.5862C41.3483 70.6193 41.5465 70.6523 41.7446 70.7184C41.9428 70.7844 42.108 70.8835 42.3062 70.9826C42.9668 71.445 43.3631 72.2048 43.4292 72.9975C43.4292 73.0966 43.4622 73.2287 43.4622 73.3608C43.4622 73.7572 43.3631 74.1536 43.231 74.5169C43.165 74.649 43.1319 74.7481 43.0659 74.8472C42.9668 75.0123 42.8347 75.1445 42.7025 75.2766C42.6034 75.3757 42.5043 75.4417 42.4053 75.5078C42.2401 75.6069 42.075 75.706 41.9098 75.772L43.5613 79.8348C42.8677 79.9009 42.2071 79.9339 41.7116 79.9669H41.2492L39.8619 76.2345H38.3095V80H38.2104ZM34.5109 74.2526C34.6761 73.9554 34.7422 73.559 34.7422 73.1626C34.7422 72.2378 34.3458 71.2138 33.6522 70.5202C33.3879 70.289 33.1237 70.0908 32.8594 69.9587C32.6612 69.8596 32.4961 69.7935 32.2979 69.7275C32.1988 69.6944 32.0997 69.6614 32.0006 69.6284C31.8024 69.5623 31.6043 69.5293 31.4391 69.4632L27.8057 68.4723V77.8199C28.4333 78.0512 29.0609 78.2824 29.5894 78.4145C29.6555 78.4475 29.7215 78.4475 29.8206 78.4806V74.7811L31.307 75.1775L32.6282 79.2733L34.8743 79.8678L33.2888 75.2436C33.8173 75.1114 34.2467 74.7811 34.5109 74.2526ZM44.7504 79.7688C45.6092 79.7027 46.3689 79.6036 46.8974 79.5045V70.2559L44.7504 70.6523V79.7688ZM54.9238 71.1478C54.9238 71.0817 54.8908 71.0157 54.8908 70.9496C54.7257 70.322 54.4944 69.7605 54.1641 69.3311C54.032 69.1659 53.8999 69.0338 53.7678 68.9347C53.7347 68.9017 53.6687 68.8687 53.6356 68.8356C53.4375 68.7035 53.2393 68.6374 53.0081 68.6044C52.942 68.6044 52.909 68.5714 52.8429 68.5714C52.7108 68.5714 52.6117 68.5384 52.4796 68.5714C52.1823 68.5714 51.852 68.6374 51.4887 68.7696C51.3235 68.8356 51.1914 68.8687 51.0262 68.9347C50.8941 69.0008 50.729 69.0669 50.5968 69.1329C50.1344 69.3972 49.705 69.7605 49.3417 70.1569C48.2847 71.379 47.8223 73.1296 47.8223 74.7481C47.8223 75.9372 48.0865 77.0933 48.7141 77.853C48.7471 77.919 48.8132 77.9521 48.8462 78.0181C49.1435 78.3484 49.5068 78.5466 49.9032 78.6127C50.1344 78.6457 50.3656 78.6787 50.6299 78.6457C50.8941 78.6127 51.1584 78.5466 51.4556 78.4806C51.5217 78.4475 51.5877 78.4475 51.6868 78.4145C51.819 78.3484 51.9841 78.3154 52.1162 78.2163C52.2484 78.1503 52.3805 78.0842 52.5126 77.9851C53.1071 77.6218 53.6357 77.0933 54.032 76.4327C54.1311 76.3005 54.2302 76.1354 54.2963 75.9702C54.3623 75.8381 54.4284 75.706 54.4944 75.5408C54.6596 75.1114 54.8248 74.649 54.9238 74.1866C55.056 73.559 55.122 72.9644 55.122 72.4029C55.122 72.1057 55.089 71.8084 55.056 71.5441C54.9899 71.412 54.9569 71.2799 54.9238 71.1478ZM22.686 65.7638L20.2087 73.7902L21.7942 74.7151L22.2896 73.0635L24.8 74.5169L25.2624 76.7299L25.4275 76.829C25.8239 76.9942 26.4185 77.2254 27.1121 77.4896L24.7669 66.9529L22.686 65.7638ZM61.6621 65.1032C61.596 64.9711 61.53 64.872 61.4639 64.7729C61.2987 64.5747 61.1336 64.4756 60.9024 64.4426C60.6381 64.4095 60.3739 64.4756 60.0766 64.6077C60.0436 64.6408 60.0105 64.6408 59.9445 64.6738C59.8784 64.7068 59.7793 64.7398 59.7133 64.8059C59.6802 64.8389 59.6472 64.8389 59.5811 64.872C59.4821 64.905 59.416 64.9711 59.3169 65.0371C59.1848 65.1032 59.0527 65.2023 58.9536 65.2683L55.7826 67.3823V76.8621L57.5332 75.673V71.9405L58.8214 71.0817L59.9775 74.0545L61.9263 72.7332L60.539 69.4632C61.0345 68.9017 61.4309 68.142 61.6621 67.4153C61.7942 66.9859 61.8603 66.5235 61.8603 66.1271C61.8603 65.8298 61.8272 65.5656 61.7612 65.3344C61.7281 65.2683 61.6951 65.1692 61.6621 65.1032ZM52.7769 74.9463C52.7438 75.0454 52.7438 75.1114 52.7108 75.1775C52.4796 75.9702 52.1162 76.4327 51.4226 76.6639C50.0023 77.1263 49.8702 75.2766 49.8702 74.0875C49.8702 73.7242 49.9032 73.2617 49.9693 72.7993C50.0023 72.6341 50.0353 72.436 50.0684 72.2708C50.1014 72.1717 50.1014 72.1057 50.1344 72.0396C50.3656 71.2799 50.762 70.7514 51.4226 70.5532C51.6538 70.4872 51.852 70.4541 52.0171 70.4872C52.2484 70.5202 52.4135 70.6523 52.5456 70.8835C52.5787 70.9496 52.6117 71.0156 52.6447 71.0817C52.6778 71.1478 52.7108 71.2138 52.7438 71.3129C52.909 71.8414 52.975 72.5351 52.975 73.1296C52.975 73.6581 52.942 74.3517 52.7769 74.9463ZM39.3995 74.616C39.8289 74.616 40.3243 74.649 40.6877 74.4178C41.051 74.1866 41.2162 73.7572 41.2162 73.3278C41.2162 73.1957 41.1831 73.0305 41.1171 72.8984C41.051 72.7332 40.9189 72.5681 40.7868 72.436C40.7537 72.4029 40.7207 72.3699 40.6877 72.3699C40.3243 72.1387 39.7298 72.2048 39.3004 72.2048H38.1773V74.616H39.3995ZM32.1328 73.526C31.8025 73.6581 31.4391 73.526 31.0427 73.4269C30.9767 73.4269 29.7876 73.0966 29.7876 73.0966V70.6854L30.8446 70.9826C30.9437 71.0156 31.0427 71.0487 31.1749 71.0487C31.274 71.0817 31.4061 71.1147 31.5382 71.1478C31.7694 71.2138 32.0006 71.346 32.1658 71.5111C32.2318 71.5772 32.2979 71.6432 32.364 71.7423C32.5291 72.0066 32.6612 72.3369 32.6612 72.6011C32.6282 72.9975 32.4631 73.3939 32.1328 73.526ZM19.482 64.2774L18.293 69.6614L18.2599 69.6284L16.9717 62.1635L15.3202 60.7762L14.065 66.1271L14.032 66.0941L12.8429 58.7283L10.9932 57.1758L12.975 68.3402L14.7257 69.8265L15.9478 64.5747L15.9808 64.6077L17.236 71.8744L19.1187 73.0966L20.9684 65.5656L19.482 64.2774ZM22.7191 71.5772L23.5448 68.7365L24.3706 72.5351L22.7191 71.5772ZM67.6406 63.1874C67.4424 63.1544 67.2112 63.2204 66.947 63.3195C66.7488 63.3856 66.5176 63.4847 66.2863 63.5838C66.1873 63.6168 66.1212 63.6498 66.0221 63.7159C65.89 63.782 65.7579 63.848 65.6588 63.881C65.2294 64.1123 64.5688 64.4426 64.5688 63.7489C64.5688 63.3195 64.7339 62.9562 64.9982 62.6589C65.0642 62.5928 65.0973 62.5268 65.1633 62.4607C65.2294 62.3947 65.2954 62.3286 65.3285 62.2956C65.4276 62.2295 65.5267 62.1304 65.5927 62.0644C65.7248 61.9653 65.8239 61.8992 65.956 61.8331C66.0551 61.7671 66.1542 61.7341 66.2533 61.701C66.3194 61.701 66.3854 61.668 66.4185 61.701C66.4515 61.701 66.4845 61.701 66.4845 61.701C66.5176 61.701 66.5836 61.7341 66.6167 61.7671C66.6497 61.7671 66.6497 61.8001 66.6827 61.8331C66.7488 61.8992 66.7818 61.9653 66.8479 62.0974C66.8479 62.1304 66.8809 62.1635 66.8809 62.1965L68.3673 60.4459C68.2682 60.1156 68.103 59.8843 67.9049 59.7522C67.6736 59.5871 67.3764 59.521 67.0791 59.5871C67.013 59.5871 66.947 59.6201 66.8809 59.6201C66.7488 59.6531 66.6167 59.7192 66.4515 59.7853C66.1542 59.9174 65.857 60.1156 65.5266 60.3798C65.2624 60.578 64.9982 60.8092 64.7669 61.0404C64.3706 61.4698 63.9742 61.9653 63.6439 62.5929C63.5118 62.8241 63.3797 63.0883 63.2806 63.3195C63.1815 63.5507 63.0824 63.815 63.0163 64.0462C62.9503 64.2774 62.8842 64.5086 62.8512 64.7399C62.8181 64.9711 62.7851 65.2023 62.7851 65.4335C62.7851 66.2592 63.0163 66.6886 63.3466 66.8538C63.4127 66.8868 63.5118 66.9199 63.6109 66.9199C63.6439 66.9199 63.6769 66.9199 63.71 66.9199C64.0403 66.9199 64.4036 66.8208 64.833 66.6226C65.0312 66.5235 65.2294 66.4244 65.4606 66.3253C65.923 66.0941 66.7818 65.5986 66.7818 66.3914C66.7818 66.8208 66.5836 67.2502 66.2863 67.6135C66.2203 67.6796 66.1542 67.7787 66.0882 67.8447C66.0221 67.9108 65.956 67.9768 65.89 68.0429C65.7909 68.142 65.6918 68.2081 65.5927 68.3071C65.0642 68.7035 64.6348 68.8687 64.3376 68.6705C64.2054 68.5714 64.1063 68.4062 64.0403 68.142L62.4218 69.8265C62.5539 70.4211 62.8181 70.7844 63.1484 70.9166C63.743 71.1478 64.5688 70.8175 65.4606 70.1569C66.2203 69.5953 67.0461 68.7696 67.6406 67.7456C67.7067 67.6135 67.7727 67.4814 67.8388 67.3493C67.9709 67.085 68.07 66.8208 68.1691 66.5565C68.4003 65.8959 68.5655 65.2353 68.5655 64.6407C68.5655 64.1783 68.4664 63.815 68.3012 63.5507C68.2021 63.3526 67.9709 63.2204 67.6406 63.1874ZM59.5811 68.7365C59.416 68.9678 59.2508 69.1329 59.0527 69.265C58.9536 69.3311 57.5332 70.289 57.5332 70.289V67.8778L58.4581 67.2502C58.5242 67.1841 58.6233 67.1181 58.7224 67.052C58.8545 66.9529 59.0196 66.8538 59.1848 66.7877C59.3499 66.7217 59.4821 66.6556 59.5811 66.6886C59.8454 66.7217 60.0105 66.9859 60.0105 67.3823C60.0436 67.7787 59.8784 68.3071 59.5811 68.7365ZM42.0419 65.7638L40.2583 67.6796L38.2104 65.7638L27.7727 64.4095L17.9296 58.7613L11.819 51.4285L8.54894 43.6663L5.51012 40L4.84951 36.8621V33.8893L6.83134 31.5772L3.99072 0.924805L76.6249 1.08996L73.6852 31.6102L75.634 35.772V39.2072L71.4721 45.3179L66.6167 54.3352L61.7612 58.7944L54.8247 63.1874L45.7413 65.7968H42.0419V65.7638Z" fill="#262C68"/>
<path d="M77.4839 0C77.4839 0 74.9075 27.4814 74.5442 31.5442C76.1627 33.1957 76.7242 35.2766 76.7242 36.9612C76.7242 39.0751 75.436 41.5524 73.1899 43.8646C72.9918 44.0628 72.7605 44.2609 72.5623 44.4921C71.5714 47.4979 69.9529 50.9992 67.4426 54.3022C62.7853 60.545 54.924 66.1272 42.2073 66.6887L40.2585 68.7036L38.3097 66.7217C25.4938 66.2593 17.6325 60.6111 12.9422 54.3022C10.4319 50.9331 8.84641 47.4319 7.8555 44.3931C7.65731 44.2279 7.49216 44.0297 7.29397 43.8646C5.04789 41.5524 3.7597 39.0751 3.7597 36.9612C3.7597 35.2766 4.32122 33.2287 5.90669 31.5772C5.24607 24.0462 3 0 3 0H77.4839Z" fill="#262C68"/>
<path d="M33.2559 59.2569H33.2229V59.1908L33.1898 59.1248L33.1568 59.0587V58.9596L33.1238 58.8605L33.0907 58.7284L33.0577 58.6293L33.0247 58.4642L32.9916 58.299L32.9256 58.1339L32.8925 57.9687L32.8595 57.7375L32.8265 57.5393L32.7604 57.3081L32.7274 57.0438L32.6943 56.7796L32.6613 56.4823L32.5953 56.1851L32.5622 55.8547L32.5292 55.4914L32.4632 55.1281L32.4301 54.7647L32.3971 54.3684L32.364 53.939L32.331 53.4765L32.298 53.0141L32.265 52.5187V52.5517L32.2319 52.0562V51.5608L32.265 51.0323V50.5038L32.298 49.9423L32.331 49.3808L32.364 48.7862L32.4301 48.2247L32.4632 47.6301L32.5292 47.0356L32.5953 46.4741L32.6613 45.8795L32.7604 45.318L32.8265 44.7565L32.8925 44.195L32.9586 43.6334L33.0577 43.105L33.1238 42.6095L33.1898 42.114L33.2889 41.6516L33.355 41.1892L33.421 40.7928L33.4871 40.3965L33.5532 40.0331L33.6192 39.7028L33.6522 39.4055L33.6853 39.2073L33.7844 39.2404L33.8835 39.3064L34.0156 39.4055L34.1477 39.5046L34.2798 39.5707L34.4119 39.6698L34.5771 39.7689L34.7092 39.868L34.8744 39.9671L35.0395 40.0661L35.2047 40.1652L35.3368 40.2643L35.5019 40.3634L35.6671 40.4625L35.8323 40.5946L35.9974 40.6937L36.1626 40.7928L36.2947 40.8919L36.4598 40.991L36.625 41.0901L36.7571 41.1561L36.8892 41.2552L37.0214 41.3543L37.1535 41.4204L37.2856 41.5195L37.4177 41.5855L37.5498 41.6846L37.682 41.7837L37.7811 41.8828L37.9132 41.9819L38.0453 42.081L38.1774 42.1801L38.3095 42.2792L38.4087 42.3783L38.5408 42.4774L38.6399 42.6095L38.772 42.6755L38.8711 42.7747L39.0032 42.8737L39.1023 42.9728L39.2014 43.0719L39.2344 43.105L40.3244 60.0827L41.4144 43.0059H41.4474L41.5796 42.9068L41.6787 42.8077L41.8108 42.7086L41.9099 42.6095L42.042 42.5104L42.1741 42.4113L42.3063 42.2792L42.4384 42.1801L42.5705 42.081L42.7026 41.9819L42.8347 41.8828L42.9669 41.7837L43.099 41.6846L43.2311 41.6186L43.3632 41.5195L43.4953 41.4204L43.6275 41.3543L43.6605 41.3213L43.7596 41.2552L43.8917 41.1561L44.0238 41.0571L44.156 40.991L44.2881 40.8919L44.4532 40.7928L44.5854 40.6937L44.7505 40.5616L44.9157 40.4625L45.0808 40.3634L45.246 40.2643L45.3781 40.1652L45.5432 40.0661L45.7084 39.9671L45.8736 39.868L46.0057 39.7689L46.1708 39.6698L46.3029 39.5707L46.4351 39.5046L46.6002 39.4055L46.6993 39.3395L46.8314 39.2404L46.9305 39.1743H46.9636L46.9966 39.4055L47.0296 39.7028L47.0957 40.0331L47.1618 40.3965L47.2278 40.7928L47.2939 41.1892L47.3599 41.6516L47.459 42.114L47.5251 42.6095L47.5911 43.105L47.6902 43.6334L47.7563 44.195L47.8224 44.7565L47.9214 45.318L47.9875 45.8795L48.0536 46.4741L48.1196 47.0356L48.1857 47.6301L48.2187 48.2247L48.2848 48.7862L48.3178 49.3808L48.3508 49.9423L48.3839 50.5038L48.4169 51.0323V51.5608V52.0562L48.3839 52.5517V52.5187V53.0141L48.3508 53.4765L48.2848 53.939L48.2518 54.3684L48.2187 54.7647L48.1857 55.1281L48.1196 55.4914L48.0866 55.8547L48.0536 56.1851L48.0205 56.4823L47.9545 56.7796L47.9214 57.0438L47.8884 57.3081L47.8224 57.5393L47.7893 57.7375L47.7563 57.9687L47.7233 58.1339L47.6572 58.299L47.6242 58.4642L47.5911 58.6293L47.5581 58.7284L47.5251 58.8605V58.9596L47.4921 59.0587L47.459 59.1248L47.426 59.1908V59.2569H47.3929L40.2584 66.5567L33.2559 59.2569Z" fill="white"/>
<path d="M35.3699 64.7068L33.1899 64.4096L31.142 63.9801L29.1932 63.4847L27.3765 62.8901L25.6589 62.1965L24.0405 61.4368L22.521 60.578L21.1007 59.6862L19.7795 58.7283L18.5574 57.7043L17.4013 56.6474L16.3443 55.5573L15.3534 54.4343L14.4286 53.2782L13.6028 52.1222L12.8431 50.9331L12.1495 49.744L11.5219 48.5549L10.9603 47.3988L10.4649 46.2758L10.1016 45.3179L10.564 45.6482L11.0925 46.0115L11.654 46.3749L12.2155 46.7382L12.8101 47.0685L13.4376 47.3988L14.0652 47.7291L14.7258 48.0264L15.3865 48.3237L16.0801 48.5879H16.1131C17.8637 51.3294 21.0347 55.194 26.0553 57.9025C28.6317 59.1577 31.109 59.9834 33.256 60.5119L37.4178 64.872L35.3699 64.7068Z" fill="white"/>
<path d="M67.806 50.9002L67.0463 52.0893L66.2205 53.2784L65.2957 54.4345L64.3048 55.5575L63.2148 56.6475L62.0587 57.7045L60.8035 58.7285L59.4493 59.6863L57.9959 60.6112L56.4435 61.47L54.792 62.2297L53.0413 62.9233L51.1916 63.5179L49.2098 64.0133L47.1289 64.4427L44.9158 64.74L43.1982 64.8721L47.4592 60.5451C49.5731 60.0166 52.0174 59.1909 54.4947 57.9357C59.6144 55.2272 62.8184 51.3626 64.602 48.6211H64.6351L65.3287 48.3568L65.9893 48.0596L66.6499 47.7623L67.2775 47.432L67.9051 47.1017L68.4996 46.7714L69.0612 46.4081L69.6227 46.0447L70.1512 45.6814L70.5806 45.3511L70.2172 46.2759L69.7218 47.399L69.1603 48.555L68.5327 49.7441L67.806 50.9002Z" fill="white"/>
<path d="M31.6704 58.7943C31.6704 58.7943 22.7852 56.4822 18.6564 49.8761C18.5573 49.7109 21.2988 51.0321 30.9107 51.2303C30.8777 51.2303 30.8116 55.0619 31.6704 58.7943Z" fill="white"/>
<path d="M49.7381 51.2303C59.3499 51.0321 62.0915 49.7109 61.9924 49.8761C57.8636 56.4822 48.9453 58.7943 48.9453 58.7943C49.8041 55.0619 49.7381 51.2303 49.7381 51.2303Z" fill="white"/>
<path d="M53.0743 35.2105L53.834 34.9463L54.5607 34.7151L55.3204 34.4508L56.047 34.2526L56.7737 34.0214L57.5334 33.8563L58.2601 33.6581L58.9537 33.526L59.6474 33.3939L60.341 33.2617L61.0347 33.1626L61.6953 33.0966L62.3559 33.0305L62.9835 32.9975L63.578 32.9645H64.1726L64.7341 33.0305L65.2956 33.0636L65.8241 33.1626L66.3196 33.2617L66.782 33.4269L67.2444 33.592L67.6408 33.7902L68.0371 34.0214L68.4005 34.3187L68.6977 34.616L68.962 34.9793L69.1932 35.3757L69.3914 35.7721L69.4905 36.2345L69.5896 36.7299L69.6226 37.2254L69.5896 37.7539L69.5235 38.2494L69.4244 38.7778L69.2593 39.2733L69.0941 39.7688L68.8629 40.2642L68.6317 40.7266L68.3344 41.1891L68.0041 41.6515L67.6738 42.0809L67.2774 42.5103L66.8811 42.9397L66.4186 43.3361L65.9562 43.7324L65.4608 44.1288L64.9323 44.4921L64.4038 44.8224L63.8423 45.1527L63.2477 45.483L62.6201 45.7803L61.9925 46.0776L61.3319 46.3418L60.6713 46.5731L59.9777 46.8043L59.284 47.0025L58.5574 47.2006L57.8307 47.3658L57.071 47.4979L56.3113 47.63L55.5186 47.6961L54.7258 47.7952L53.9331 47.8282H53.1404L52.3476 47.8612H51.5879L50.8612 47.8282H50.1346H49.4409L49.0776 47.7952V48.1255L49.1437 48.72L49.1767 49.3146L49.2097 49.744H49.6391L50.4979 49.777L51.4228 49.744H52.3476L53.3055 49.711L54.2634 49.6449L55.2213 49.5788L56.2122 49.5128L57.1701 49.3807L58.161 49.2485L59.1189 49.1164L60.0768 48.9182L61.0347 48.72L61.9925 48.4888L62.9174 48.2246L63.6111 47.9934L64.3047 47.7622L64.9653 47.4979L65.6259 47.2337L66.2535 46.9364L66.848 46.6061L67.4426 46.3088L68.0371 45.9785L68.5656 45.6152L69.0941 45.2849L69.6226 44.9215L70.1181 44.5252L70.5805 44.1618L71.0099 43.7655L71.4393 43.3691L71.8687 42.9727L72.232 42.5764L72.5954 42.18L72.9257 41.7836L73.256 41.3542L73.5202 40.9579L73.7845 40.5615L74.0487 40.1651L74.2469 39.7688L74.4451 39.3724L74.6102 38.976L74.7424 38.6127L74.8414 38.2494L74.9405 37.886L75.0066 37.5227L75.0396 37.1924L75.0727 36.8621L75.0396 36.5318V36.2015L74.9736 35.8381L74.9075 35.4748L74.8414 35.1115L74.7093 34.7811L74.6102 34.3848L74.4451 34.0545L74.2469 33.6911L74.0487 33.3278L73.8175 32.9975L73.5532 32.6672L73.256 32.3369L72.9587 32.0066L72.5954 31.7093L72.199 31.412L71.7696 31.1478L71.3072 30.8835L70.8117 30.6523L70.2832 30.4541L69.6887 30.256L69.0611 30.0908L68.4005 29.9587L67.6738 29.8596L66.9141 29.7935L66.0883 29.7605H65.2295L64.3047 29.7935L63.3468 29.8596L62.3559 29.9917L61.2659 30.1569L60.1428 30.355L58.9868 30.5863L57.8968 30.8505L56.8067 31.1147L55.7498 31.445L54.7258 31.7754L53.7349 32.1057L52.8101 32.469L51.8852 32.8654L50.9934 33.2617L50.1346 33.6581L49.3088 34.0875L48.5161 34.4839L47.7564 34.9133L47.0297 35.3096L46.3691 35.739L45.7085 36.1684L45.1139 36.5648L44.5194 36.9612L43.9909 37.3245L43.8588 37.4566L43.4954 37.6878V37.7209L43.033 38.0512L42.6036 38.4145L42.2073 38.7118L41.8769 39.0091L41.5466 39.2733L41.2824 39.5045L41.0512 39.7357L40.886 39.9009L40.7209 40.033L40.6218 40.1321L40.5557 40.1981L40.2254 40.5285L39.9281 40.1981H39.8951L39.8621 40.1321L39.763 40.033L39.5978 39.9009L39.4327 39.7027L39.2015 39.5045L38.9372 39.2733L38.6399 39.0091L38.3096 38.7118L37.9133 38.4145L37.5169 38.0512L37.0875 37.7539L36.9884 37.6548H36.9554L36.559 37.3245L36.0305 36.9612L35.469 36.5648L34.8414 36.1354L34.2139 35.739L33.5202 35.3096L32.8266 34.9133L32.0669 34.4839L31.3072 34.0875L30.4814 33.6581L29.6226 33.2617L28.7638 32.8654L27.839 32.469L26.8811 32.1057L25.8901 31.7754L24.8992 31.445L23.8422 31.1147L22.7522 30.8505L21.6622 30.5863L20.5062 30.355L19.3831 30.1569L18.3261 29.9917L17.3022 29.8596L16.3443 29.7935L15.4195 29.7605H14.5607L13.7349 29.7935L12.9752 29.8596L12.2485 29.9587L11.5879 30.0908L10.9603 30.256L10.3988 30.4541L9.8373 30.6523L9.34184 30.8835L8.87941 31.1478L8.45002 31.412L8.05364 31.7093L7.69032 32.0066L7.39303 32.3369L7.09575 32.6672L6.83151 32.9975L6.60029 33.3278L6.40212 33.6911L6.20394 34.0545L6.07181 34.3848L5.93968 34.7811L5.80757 35.1115L5.74151 35.4748L5.67544 35.8381L5.64242 36.2015L5.60938 36.5318V36.8621V37.1924L5.64242 37.5227L5.70848 37.886L5.80757 38.2494L5.90666 38.6127L6.03879 38.976L6.20394 39.3724L6.40212 39.7688L6.63333 40.1651L6.86455 40.5615L7.12879 40.9579L7.42606 41.3542L7.72334 41.7836L8.05364 42.18L8.41697 42.5764L8.81334 42.9727L9.20971 43.3691L9.63911 43.7655L10.0685 44.1618L10.5309 44.5252L11.0264 44.9215L11.5549 45.2849L12.0834 45.6152L12.6449 45.9785L13.2064 46.3088L13.801 46.6061L14.3955 46.9364L15.0231 47.2337L15.6837 47.4979L16.3443 47.7622L17.038 47.9934L17.7316 48.2246L18.6564 48.4888L19.6143 48.72L20.5722 48.9182L21.5301 49.1164L22.488 49.2485L23.4789 49.3807L24.4368 49.5128L25.3947 49.5788L26.3526 49.6449L27.3105 49.711L28.2353 49.744H29.1602L30.085 49.777L30.9769 49.744H31.2081H31.4393L31.4723 49.3146L31.5053 48.72L31.5714 48.1255L31.6044 47.7952L31.175 47.8282H30.5144H29.7877L29.0611 47.8612H28.3014L27.5087 47.8282H26.7159L25.9232 47.7952L25.1304 47.6961L24.3707 47.63L23.578 47.4979L22.8513 47.3658L22.0916 47.2006L21.365 47.0025L20.6713 46.8043L19.9777 46.5731L19.3171 46.3418L18.6564 46.0776L18.0289 45.7803L17.4013 45.483L16.8398 45.1527L16.2452 44.8224L15.7167 44.4921L15.1882 44.1288L14.6928 43.7324L14.2304 43.3361L13.801 42.9397L13.3716 42.5103L12.9752 42.0809L12.6449 41.6515L12.3146 41.1891L12.0173 40.7266L11.7861 40.2642L11.5549 39.7688L11.3897 39.2733L11.2246 38.7778L11.1255 38.2494L11.0594 37.7539L11.0264 37.2254L11.0594 36.7299L11.1255 36.2345L11.2576 35.7721L11.4558 35.3757L11.654 34.9793L11.9182 34.616L12.2485 34.3187L12.5788 34.0214L12.9752 33.7902L13.3716 33.592L13.834 33.4269L14.2964 33.2617L14.7919 33.1626L15.3204 33.0636L15.8488 33.0305L16.4104 32.9645H17.0049L17.5995 32.9975L18.2271 33.0305L18.8877 33.0966L19.5483 33.1626L20.2419 33.2617L20.9025 33.3939L21.6292 33.526L22.3559 33.6581L23.0825 33.8563L23.8092 34.0214L24.5359 34.2526L25.2956 34.4508L26.0553 34.7151L26.815 34.9463L27.5747 35.2105L27.6408 35.2436L27.6077 35.2105L28.3344 35.5078L29.0611 35.8051L29.7877 36.1024L30.4814 36.4327L31.142 36.763L31.8026 37.0933L32.4302 37.4236L33.0578 37.7539L33.0908 37.7869V37.7539L33.256 37.853L33.6193 38.0842L34.2139 38.4145L34.7423 38.7448L35.2708 39.0751L35.7663 39.4054L36.2287 39.7027L36.6911 40.033L37.1205 40.3303L37.4839 40.5945L37.616 40.6936L37.7481 40.7927L37.9133 40.8918L38.0454 40.9909L38.1775 41.09L38.3096 41.1891L38.4418 41.2882L38.5739 41.3873L38.706 41.4863L38.8381 41.6185L38.9702 41.7176L39.1024 41.8167L39.2345 41.9157L39.3336 42.0148L39.4657 42.147L39.5648 42.213L39.6639 42.3121L39.763 42.4112L39.8621 42.5103L39.9612 42.6094L40.0603 42.6754L40.1263 42.7415L40.1924 42.8076L40.2584 42.8736L40.3245 42.8076L40.4566 42.6754L40.6548 42.5103L40.853 42.3451L41.0842 42.147L41.3484 41.9157L41.6457 41.6845L41.943 41.4533L42.3063 41.1891L42.6697 40.8918L43.033 40.6276L43.4624 40.3303L43.8918 40.033L44.3542 39.7027L44.8497 39.4054L45.3452 39.0751L45.8736 38.7448L46.4021 38.4145L46.9967 38.0842L47.5912 37.7539L48.1858 37.4236L48.8464 37.0933L49.474 36.763L50.1676 36.4327L50.8612 36.1024L51.5879 35.8051L52.3146 35.5078L53.0743 35.2105Z" fill="white"/>
<path d="M29.0614 46.8373H29.788L31.1753 46.8042L31.6047 46.7712L31.6708 46.3418L31.7369 45.7803L31.8029 45.1857L31.869 44.6242L32.0341 43.5012L32.1002 42.9727L32.1663 42.4772L32.2323 41.9818L32.2984 41.4863L32.3644 41.0569L32.4305 40.6275L32.6287 39.5375L32.6947 39.2733L32.7278 39.0751C32.7278 38.976 32.7608 38.9099 32.7938 38.8109H32.7608C32.7278 38.8109 32.6617 38.7448 32.6617 38.7448C32.6287 38.7448 32.5956 38.7117 32.5956 38.7117L31.9681 38.3814L31.3405 38.0511L30.7129 37.7208L30.0523 37.3905L29.3917 37.0933L28.698 36.796L27.9714 36.4987L27.2777 36.2345L26.518 35.9702L25.7583 35.739L25.0317 35.5078L24.305 35.2766L23.5783 35.0784L23.1819 34.9793C18.921 34.2526 17.0052 36.1354 16.3777 36.9281C16.1464 37.3575 15.9482 37.853 15.8161 38.4145V38.4475C15.5189 39.5045 15.5849 41.2551 16.708 42.9727C16.708 42.9727 16.7079 43.0057 16.741 43.0057C16.774 43.0387 16.774 43.1048 16.807 43.1378C17.3025 43.7985 18.7228 45.1857 21.7286 46.0776L22.3892 46.2427L23.0829 46.4079L23.8095 46.54L24.5362 46.6391L25.2959 46.7382L26.0556 46.8042L26.8153 46.8373H27.608H28.3677H29.0614Z" fill="#262C68"/>
<path d="M52.3476 46.8373H53.1073H53.9001L54.6598 46.8043L55.1552 46.7712C55.4195 46.7382 55.7167 46.7052 56.047 46.6391C60.7374 46.0446 62.8513 44.2279 63.6441 43.303C63.6771 43.237 63.7101 43.1709 63.7432 43.1049C64.9653 41.3542 65.0974 39.5045 64.8662 38.3815C64.7341 37.853 64.5689 37.3906 64.3377 36.9942C63.8092 36.2675 61.8274 34.1205 57.3022 34.9793L57.038 35.0454L56.3113 35.2436L55.5846 35.4748L54.858 35.706L54.1313 35.9372L53.3716 36.2015L52.6779 36.4657L51.9513 36.763L51.2576 37.0602L50.564 37.3906L49.9034 37.7209L49.2758 38.0181L48.6482 38.3484L48.0536 38.6788L47.8555 38.7778C47.8885 38.8439 47.9215 38.943 47.9215 39.0091L47.9546 39.2733L48.1858 40.6276L48.3179 41.4863L48.4831 42.4773L48.5491 42.9727L48.6482 43.5342L48.8134 44.6573L48.8794 45.2188L48.9455 45.7803L49.0115 46.3418L49.0446 46.8043H49.4079L50.7952 46.8373H51.5219H52.3476Z" fill="#262C68"/>
<path d="M65.857 38.1174C65.2625 35.7392 63.9082 34.451 61.8604 33.9555L62.4219 33.8895L63.0164 33.8564H63.611H64.1725L64.701 33.8895L65.1964 33.9555L65.6589 34.0216L66.0883 34.1207L66.5177 34.2528L66.881 34.3849L67.2113 34.5501L67.5086 34.7483L67.7728 34.9795L68.004 35.2107L68.2022 35.4749L68.3674 35.7722L68.4995 36.1025L68.5986 36.4658L68.6646 36.8622V37.2916V37.754L68.5986 38.1834L68.4995 38.6128L68.3674 39.0422L68.2022 39.4716L68.004 39.901L67.7728 40.3304L67.5086 40.7598L67.2113 41.1562L66.881 41.5526L66.5177 41.9489L66.1213 42.3453L65.7249 42.7086L65.2955 43.072L64.8331 43.4353L64.4367 43.6995C65.857 41.8168 66.2204 39.6698 65.857 38.1174Z" fill="white"/>
<path d="M15.816 43.5013L15.6839 43.4022L15.2215 43.0388L14.7921 42.6755L14.3627 42.3122L13.9993 41.9158L13.636 41.5194L13.3057 41.1231L13.0084 40.6937L12.7442 40.2643L12.513 39.8349L12.3148 39.4055L12.1496 38.9761L12.0175 38.5467L11.9184 38.1173L11.8524 37.6879L11.8193 37.2254L11.8524 36.7961L11.9184 36.3997L12.0175 36.0364L12.1496 35.7061L12.3148 35.4088L12.513 35.1445L12.7442 34.9133L13.0084 34.6821L13.3057 34.4839L13.636 34.3188L13.9993 34.1867L14.3957 34.0545L14.8251 33.9554L15.2875 33.8894L15.783 33.8233L16.3115 33.7903H16.873H17.4345L18.0291 33.8233L18.6566 33.8894C16.6088 34.3848 15.2545 35.673 14.66 38.0512C14.3627 39.6367 14.6269 41.6846 15.816 43.5013Z" fill="white"/>
<path d="M66.1212 28.8688L66.8809 28.9019C68.8627 29.067 70.3491 29.4964 71.34 29.9258L71.6703 30.091H71.7033L72.1988 30.3883L72.6612 30.6855L72.9585 30.9167L75.7 1.84985H4.91553L7.65706 30.9167L7.95434 30.6855L8.41676 30.3883L8.91222 30.124C9.90313 29.6285 11.5216 29.067 13.8338 28.9019L14.5274 28.8688H15.4192L16.3771 28.9019L17.3681 28.9679L17.7974 29.034C17.8965 29.034 17.9956 29.067 18.0947 29.067L18.425 29.1001L19.515 29.2652L20.6711 29.4634L21.8272 29.6946L22.9502 29.9589L23.7099 30.157C23.2805 29.6616 23.0493 29.001 23.0493 28.2743C23.0493 27.911 23.1154 27.5807 23.2145 27.2504L25.8569 28.2743L24.0733 26.0613C24.5687 25.6649 25.1633 25.4337 25.8569 25.4337C27.4424 25.4337 28.6645 26.6888 28.6645 28.2743C28.6645 29.6286 27.8057 30.7186 26.5836 31.0489L27.1781 31.2801L28.136 31.6434L29.0609 32.0398L29.9527 32.4361L30.8115 32.8656L31.6373 33.295L32.43 33.7243L33.1897 34.1537L33.487 34.3189C33.5861 34.1537 34.0815 33.2619 34.9733 32.0728C33.6521 30.7186 30.4481 27.5807 25.8239 24.7731C19.6802 21.0406 13.008 19.257 13.008 19.257L13.4705 28.0761C12.3474 28.1422 11.1583 28.3073 10.1013 28.7698L9.14344 15.3263C9.14344 15.3263 18.0947 16.7466 26.8478 22.8243C32.1988 26.5237 34.9403 29.2983 36.0964 30.6525C36.5918 30.058 37.1864 29.3973 37.847 28.7698C38.0452 28.5716 38.2434 28.3734 38.4746 28.1752C39.0361 27.6798 39.5976 27.1513 40.2582 26.6558C40.2582 26.6558 41.5134 27.6797 42.0749 28.2082C42.2731 28.3734 42.4382 28.5386 42.6034 28.7367C43.297 29.3973 43.8916 30.091 44.4201 30.6855C45.5761 29.3313 48.2847 26.5897 53.5365 22.8573C62.4878 16.8127 71.4391 15.3594 71.4391 15.3594L70.4812 28.7698C69.3912 28.3073 68.136 28.1092 66.98 28.0761L67.6075 19.257C67.6075 19.257 60.9354 21.0406 54.7917 24.7731C50.1344 27.6137 46.8974 30.7516 45.6092 32.1058C46.468 33.2619 46.9634 34.1207 47.0625 34.3189L47.3268 34.1537L48.0865 33.7243L48.8792 33.295L49.705 32.8656L50.5638 32.4692L51.4556 32.0728L52.4135 31.6764L53.3714 31.3131L53.9659 31.0819C52.7438 30.7516 51.885 29.6616 51.885 28.3073C51.885 26.6888 53.1071 25.4667 54.6926 25.4667C55.3202 25.4667 55.9477 25.6979 56.4432 26.1273L54.6926 28.3073L57.269 27.2504C57.4011 27.5807 57.4671 27.944 57.4671 28.3073C57.4671 29.034 57.1699 29.6946 56.7405 30.1901L57.5662 29.9589L58.6893 29.6946L59.8453 29.4634L61.0014 29.2652L62.0914 29.1001L62.4217 29.067C62.4878 29.067 62.5869 29.034 62.6529 29.034L63.1154 28.9679L64.1063 28.9019L65.0642 28.8688H66.1212Z" fill="white"/>
<path d="M44.6847 33.1959L44.7838 33.361L44.8829 33.5262L44.982 33.6913L45.0811 33.8234L45.1802 33.9556L45.2793 34.0877L45.3454 34.2198L45.4114 34.3519L45.4775 34.484L45.5105 34.5501C45.7087 34.8804 45.8078 35.0786 45.8078 35.0786H45.7747L45.2462 35.4089L44.6187 35.8053L44.3214 36.0035L44.2884 36.0365C44.1893 35.7722 44.0902 35.4419 44.0902 35.0786C44.0902 34.1868 42.8681 32.9316 41.9762 33.4931C41.0844 34.0216 40.9193 35.4419 41.9762 35.9704C42.5047 36.3338 42.802 36.6971 43.0002 36.9613L42.9671 36.9944L42.5047 37.3577L42.0753 37.721L41.6789 38.0513L41.3156 38.3486L40.9853 38.6129L40.7211 38.8441L40.4899 39.0753L40.2917 39.2735L40.2586 39.3065L40.2256 39.2735L40.0274 39.1083L39.7962 38.8771L39.532 38.6459L39.2017 38.3816L38.8383 38.0844L38.442 37.7541L38.0126 37.3907L37.5832 37.0604C37.7483 36.7962 38.0456 36.3998 38.6401 36.0035C39.6971 35.475 39.3338 34.0547 38.6401 33.5262C37.5832 32.9977 36.5262 34.2528 36.5262 35.1116C36.5262 35.508 36.4271 35.8713 36.328 36.1356L35.9316 35.8713L35.3041 35.4419L34.8086 35.1116C34.8086 35.1116 34.8416 35.0456 34.9077 34.9465L34.9407 34.8474L35.0068 34.7483L35.0728 34.6162L35.1389 34.484L35.205 34.3519L35.271 34.2198L35.3371 34.0877L35.4362 33.9556L35.5353 33.8234L35.6344 33.6913L35.7004 33.5922C36.5592 32.304 38.0126 30.3552 40.2256 28.4725L40.2586 28.4395L41.1835 29.2322C42.769 30.6855 43.925 32.1389 44.6847 33.1959Z" fill="white"/>
<path d="M21.1009 51.4286C24.0737 54.6325 28.1364 56.4822 30.3495 57.275C30.0192 55.2271 29.9201 53.3113 29.8871 52.2213C26.4188 52.1222 23.4791 51.858 21.1009 51.4286ZM59.5155 51.4286C57.1373 51.858 54.1976 52.0892 50.7293 52.2213C50.6963 53.3443 50.5972 55.2271 50.2669 57.275C52.48 56.4822 56.5757 54.6656 59.5155 51.4286ZM31.6707 46.8703L32.1331 43.3361L32.5295 40.8918C32.5295 40.8918 32.8268 38.91 32.9589 38.7779C32.9589 38.7779 30.5477 37.3906 28.5658 36.6639C28.5658 36.6639 27.0464 35.9703 24.2058 35.1775C24.2058 35.1775 21.9928 34.3848 19.5485 34.9133C19.5485 34.9133 17.1373 35.4087 16.1133 37.1263C16.1133 37.1263 14.9903 39.1412 15.8491 41.5524C15.8491 41.5524 16.4436 43.1049 17.2363 43.7985C17.2363 43.7985 18.8548 45.5161 22.1909 46.2758C22.1909 46.2758 24.6352 46.8373 26.3198 46.9034C26.2537 46.8704 30.5477 46.9694 31.6707 46.8703ZM49.0778 46.8703L48.6154 43.3361L48.219 40.8588C48.219 40.8588 47.9217 38.8439 47.7896 38.7118C47.7896 38.7118 50.2009 37.3245 52.2157 36.5978C52.2157 36.5978 53.7351 35.9042 56.5758 35.1115C56.5758 35.1115 58.7888 34.3187 61.2661 34.8142C61.2661 34.8142 63.6773 35.3096 64.7343 37.0603C64.7343 37.0603 65.8904 39.1082 65.0316 41.5194C65.0316 41.5194 64.437 43.0718 63.6443 43.7655C63.6443 43.7655 61.9928 45.4831 58.6567 46.2758C58.6567 46.2758 56.1794 46.8373 54.5279 46.9034C54.4948 46.8704 50.2009 46.9694 49.0778 46.8703ZM28.6649 16.3831C23.2479 11.0322 14.6269 7.10156 7.98779 4.62427L8.68145 11.5937C8.68145 11.5937 14.66 12.6507 22.8846 16.9447C29.6889 20.2807 35.8326 26.5235 37.9135 28.7696C38.1117 28.5714 38.3098 28.3732 38.5411 28.1751C37.2198 25.8299 34.2141 21.5689 28.6649 16.3831ZM57.5997 16.9116C66.0225 12.6176 71.968 11.5607 71.968 11.5607L72.6616 4.59123C65.9895 7.10155 57.4015 10.9992 51.7863 16.3501C46.3693 21.5689 43.3635 25.8629 42.0753 28.142C42.2735 28.3072 42.4387 28.4723 42.6038 28.6705C44.8169 26.3584 50.9936 20.2147 57.5997 16.9116ZM64.6352 4.06274C59.3833 6.57307 53.7681 9.77704 49.5402 13.8728C44.982 18.332 42.0093 22.0644 40.2587 24.7399C38.508 22.0644 35.7004 18.332 31.1422 13.8728C26.9473 9.77704 21.3321 6.57307 16.0473 4.06274H64.6352Z" fill="#008445"/>
</svg>
