<svg width="80" height="80" viewBox="0 0 80 80" fill="none" xmlns="http://www.w3.org/2000/svg">
<path d="M66.4241 12.1848C66.4241 12.1848 63.2064 10.5839 55.0099 9.54337C55.8423 8.61486 56.6748 7.12604 57.027 4.46859C57.1871 3.31596 56.4667 2.8517 55.218 2.8517C52.1603 2.8517 50.3193 2.69162 47.8699 2.33942C43.7877 -0.157946 39.7695 1.33087 39.7695 1.33087C34.8548 0.0181504 30.4524 2.27539 30.4524 2.27539C28.1632 2.2914 25.5537 2.16333 23.7768 1.90719C22.9763 1.77912 22.464 1.66705 21.7917 1.76311C20.655 1.92319 20.575 5.52517 21.9518 7.63832C22.2559 8.15061 22.9123 8.93504 23.6007 9.63942C15.8364 10.68 12.7787 12.2008 12.7787 12.2008C8.05614 32.0517 15.6763 49.1491 29.2998 58.8504C32.6136 61.3317 36.0555 63.637 39.6094 65.7341C43.1634 63.637 46.6053 61.3317 49.9191 58.8504C63.5425 49.1331 71.1467 32.0357 66.4241 12.1848Z" fill="black"/>
<path d="M35.5272 35.1254C36.1195 34.405 36.8079 33.7486 37.5603 33.2203C37.2241 32.9642 36.9359 32.66 36.6798 32.3238C35.9434 32.676 35.255 32.9322 34.4706 33.5565C35.0629 32.708 35.4791 32.4359 36.3756 31.8436C36.3596 31.8115 36.2956 31.7315 36.2636 31.6835C35.0309 32.1317 34.0384 32.66 33.366 33.2523L33.334 33.2203L33.318 33.2363C32.9658 32.8841 32.5335 32.3078 32.1493 31.7155C31.9092 32.2438 31.6691 32.8201 31.477 33.4444C31.3329 33.9567 31.2368 34.389 31.2048 34.5811C31.2048 34.5971 31.2048 34.5971 31.1888 34.6131C31.1728 34.6931 31.1568 34.7892 31.1408 34.8692C30.8686 34.8212 30.5965 34.7572 30.3403 34.6771C30.3884 35.7337 30.6125 36.8383 30.9807 38.0229C30.9327 37.3506 30.9006 36.9664 30.9807 36.4541C31.2208 37.5747 31.3649 37.9909 32.1013 39.0155C34.4706 36.8063 36.9359 35.5576 39.8015 34.8212C39.7055 34.6771 39.6094 34.533 39.5294 34.389C38.889 34.1008 38.3447 33.8126 37.9445 33.5085C37.2401 33.8927 36.4557 34.405 35.5272 35.1254Z" fill="#FFD300"/>
<path d="M34.0062 62.1802C32.3092 57.2175 33.0136 54.1758 35.8472 47.3721C33.766 49.4372 32.1491 50.3177 31.1566 53.6475C31.2046 52.8311 31.3647 52.0627 31.5248 51.6625C30.3882 50.3017 29.5877 48.6848 29.1875 46.3315C28.9314 46.7478 28.6912 47.196 28.4831 47.8043C28.5151 46.8278 28.6592 46.3475 29.0434 45.451C29.0274 45.355 29.0114 45.2589 29.0114 45.1629C28.7713 45.5631 28.5312 45.9633 28.4351 46.2995C27.4586 43.466 27.0103 39.0315 27.9388 35.7657C28.179 40.6164 29.5877 43.594 31.957 46.1074C32.1651 45.7872 32.4053 45.4991 32.6774 45.2269C32.4693 45.5471 32.3092 45.8993 32.1651 46.2515C31.973 46.6517 31.877 46.9879 31.6689 47.7083C32.1331 46.9719 32.3733 46.5717 32.6454 46.1714C34.9827 42.9217 38.2965 41.8651 40.5217 39.6559C40.5217 39.6559 39.257 40.1521 38.2165 40.9366C39.8013 39.4318 41.5303 38.9675 42.9551 36.8383C43.0831 36.6622 43.2272 36.4381 43.3713 36.198C43.2752 36.214 43.1952 36.214 43.0991 36.214C42.811 36.6622 42.2507 37.3666 41.7224 37.7828C42.1706 37.1585 42.4108 36.6142 42.5548 36.198C41.9305 36.0859 40.7138 35.9579 40.2816 35.4296C39.8173 35.6537 39.193 35.8938 38.5687 36.214C37.416 36.8223 36.6316 37.3506 35.4469 38.2151C36.4235 37.7829 36.9358 37.5907 37.8162 37.3506C35.6711 38.3752 33.1737 40.3923 31.941 42.2173C31.1086 41.3528 30.6603 40.3122 30.2761 38.6473C30.2121 39.2396 30.2281 39.6559 30.3081 40.4403C29.4917 38.2311 29.2676 36.0219 29.4597 34.325C28.9634 34.0848 28.4831 33.7807 28.0669 33.4285C26.6421 36.182 25.2173 40.7605 25.2814 43.8182C25.5215 42.8576 25.8417 42.1532 25.8417 42.1532C25.4415 46.5396 26.1298 52.1107 28.9634 56.6892C30.2761 58.7864 31.893 60.4192 34.0062 62.1802Z" fill="white"/>
<path d="M44.4921 52.4149C49.855 46.8118 51.0236 42.0412 48.9745 36.6463C49.0226 41.0487 39.3052 47.5482 37.8164 49.9655C38.3287 49.5813 40.1057 48.4767 40.4739 48.2366C39.1291 49.3092 38.3927 49.9976 37.4642 51.3583C38.3767 50.4618 39.2252 49.9976 39.9616 49.5013C36.2636 52.7031 35.239 58.05 36.4237 63.7491C37.5123 64.4375 38.5528 65.0778 39.5934 65.7022C38.921 60.2112 41.4984 55.5366 44.4921 52.4149ZM22.7362 25.9044C22.9283 27.121 23.2805 28.2577 23.8087 29.2342C24.225 28.3377 24.9934 27.6333 25.5377 27.2651C25.5697 27.3612 25.5857 27.4252 25.6177 27.5213C25.1375 28.0175 24.7373 28.5778 24.3851 29.2182C24.8493 28.6579 25.3136 28.3217 25.7778 27.9535C26.4982 29.7785 27.8109 30.9311 29.2357 31.7156C29.5719 29.9866 30.1962 28.4818 30.9487 27.7454C30.9807 27.8094 31.0287 27.8895 31.0607 27.9535C30.5164 28.818 30.3403 29.2822 30.1162 30.1787C30.5805 29.3943 30.9326 28.914 31.3809 28.4338C31.7811 28.9941 32.1813 29.3783 32.5335 29.7305C33.8302 28.4498 36.5357 28.3857 38.0085 28.2577C36.2956 26.8969 29.9081 28.0976 27.3307 24.4476C27.4908 24.1594 27.6829 23.8873 28.003 23.5511C27.3627 23.9353 26.2421 24.9278 25.5697 25.7283C25.7298 25.312 25.8899 24.9759 26.066 24.6877C25.0094 22.6866 25.1855 20.1412 25.3936 18.2362C25.6978 18.012 26.0019 17.8199 26.3541 17.6438C25.4096 17.868 24.7212 18.1881 23.8248 18.7965C23.4886 16.2991 24.5451 13.5776 25.3936 11.7206C25.0094 11.7846 24.7212 11.9287 24.3691 12.1528C24.8013 10.0877 25.5697 8.32674 27.0745 6.69385C25.1535 8.32674 23.7607 10.4879 23.0723 12.9213C23.4886 12.7131 23.6647 12.6491 23.9848 12.5691C23.9528 12.6171 23.9048 12.7131 23.8728 12.7612C23.2644 13.0813 22.9123 13.3535 22.368 13.9458C22.8962 13.6096 23.2164 13.4335 23.5686 13.3055C22.2239 15.6908 21.0072 18.2362 21.5835 21.9822C21.9517 21.534 22.528 21.0857 22.8322 20.9417L22.8002 21.1498C22.2239 21.6941 21.7596 22.3504 21.4394 23.0868C21.8076 22.6066 22.1759 22.2224 22.6881 21.9022C22.528 23.2149 22.528 24.5756 22.7362 25.9044Z" fill="white"/>
<path d="M50.1432 22.6705C50.0791 23.0387 50.0631 23.4069 50.0791 23.7911C50.8316 23.9832 51.712 22.8306 52.0962 21.1177C52.4324 21.4058 52.7526 21.71 53.1208 22.1262C52.8487 21.4378 52.6085 21.0696 52.1763 20.6054C52.1923 20.5253 52.2403 20.4133 52.2403 20.3172C52.2403 20.3172 52.5605 20.5413 52.8006 20.8775C52.9927 20.3492 53.1368 19.1486 53.2169 17.4997C52.9287 18.06 52.4164 18.4762 51.9202 18.7163C51.4879 20.9736 50.7355 22.2703 50.1432 22.6705ZM53.3609 12.569C53.3609 12.0567 53.3289 11.6725 53.2009 11.2242C53.3289 11.2563 53.505 11.3523 53.6011 11.4003C53.521 10.3278 53.6011 9.75144 53.1688 8.7749C53.1528 9.33521 53.1368 10.0556 52.7846 10.3598C52.4965 10.6159 52.1923 10.808 51.9041 10.9521C52.4004 11.3203 52.9927 11.8806 53.3609 12.569ZM27.3147 21.9501C27.6509 21.662 27.987 21.5019 28.3713 21.3738L28.4353 21.4859C27.7949 21.9021 27.4107 22.2703 26.8664 22.9747C27.4427 22.5585 28.0511 22.2063 28.7074 21.9181C29.8921 23.615 32.4535 24.9758 35.287 25.344C34.9028 24.5435 33.446 23.535 32.9177 22.7345C31.9252 21.2297 32.5175 19.4528 33.366 18.3802C31.3169 19.2767 30.7726 19.917 30.5004 21.3098C28.0191 18.8924 27.7149 12.8411 28.1471 9.47929C26.7704 11.9606 25.6658 13.7536 25.6658 17.2595C26.066 17.0835 26.4982 16.9234 26.9785 16.8593C26.7384 18.2041 26.7864 20.3492 27.3147 21.9501Z" fill="#FFD300"/>
<path d="M34.2624 7.78236C35.0788 8.45473 35.479 8.951 37.144 9.3032C37.4321 9.36723 37.8163 9.36723 38.1525 9.33521C37.4961 9.81548 36.5836 10.0236 35.6391 10.1357C34.4065 10.2797 32.5014 9.33521 31.1086 9.07907C30.5964 8.53478 30.5003 7.99048 30.7404 7.62228C30.8365 7.46219 30.9806 7.11 31.3008 6.80583C31.3648 6.80583 31.4448 6.80583 31.5089 6.80583C31.9571 6.83785 32.3893 6.90188 32.8216 6.99793C33.3179 7.10999 33.8782 7.4782 34.2624 7.78236ZM35.5911 13.0012C36.8878 13.0813 37.9924 13.4014 38.9369 13.6416C39.081 13.6736 39.2411 13.7216 39.3852 13.7536C41.0821 14.2179 42.699 14.7462 44.1078 15.2585C44.6361 15.5946 42.1227 14.9703 39.4012 14.2339C39.4492 14.474 39.5773 14.6982 39.8174 14.9063C40.0736 15.1304 40.2497 15.3385 40.3937 15.5466C39.6573 15.3385 38.9049 15.1784 38.1525 15.0503C37.208 14.9063 36.2955 14.8422 35.463 14.9383C36.5356 15.0023 37.8804 15.1784 39.2571 15.5306L39.3372 15.5466L39.4332 15.5626C41.1782 15.9148 42.8431 16.315 44.2999 16.7473C44.7801 17.0194 43.0032 16.7473 40.7299 16.331C40.906 17.0354 40.81 17.5637 42.0747 17.9479C43.6275 18.4122 46.0288 18.1721 46.9893 17.7558C47.6297 17.4837 48.3021 16.8914 48.4141 16.6352C48.4622 16.5392 48.4942 16.4591 48.5262 16.3791C47.6457 16.1069 47.9499 15.0664 46.9573 14.458C46.2529 14.0258 46.2369 13.5935 45.8687 12.8892C45.6926 12.569 45.4845 12.2648 45.2604 11.9927C44.2358 10.792 43.8196 10.6159 42.8111 10.712C42.1387 10.776 41.0821 11.0161 40.2817 12.0247C40.0415 11.9286 39.7854 11.8326 39.5453 11.7365C38.2325 11.2563 36.9038 10.9201 35.5751 10.8881C36.9358 11.0642 37.8643 11.3523 39.5453 11.9607C41.3062 12.537 42.9551 13.1613 44.3799 13.7857C44.8442 14.1378 42.4909 13.4495 39.8654 12.601C39.6733 12.8892 39.5133 13.2253 39.4172 13.5615C39.049 13.4495 38.6808 13.3534 38.2966 13.2734C37.4001 13.0492 36.4716 12.9372 35.5911 13.0012ZM40.794 7.43017C40.7139 7.38214 40.6499 7.35013 40.5698 7.3021C40.5538 7.38214 40.5378 7.46219 40.5058 7.52622C39.7374 7.57425 38.7128 6.50166 38.2165 6.06943C37.4961 5.41307 36.7277 5.25298 35.6551 5.15693C35.1589 5.18894 35.0788 5.02886 35.6872 4.86877C36.3115 4.77272 36.9358 4.78872 37.5442 4.9328C37.16 4.61263 36.7597 4.32447 36.2795 4.14837C35.9113 4.0203 35.5111 3.86022 35.1108 3.84421C34.8707 3.8282 34.5665 3.90824 34.3104 3.98829C33.8622 4.13236 33.3179 4.3725 32.9657 4.5646C32.9817 5.06087 32.7896 5.54114 32.8696 6.03741C32.9016 6.29355 32.8536 6.46964 33.0777 6.61372C33.2058 6.69377 33.3499 6.83785 33.4779 6.90188C33.622 6.98192 33.9262 6.9339 34.1503 6.91789C34.6946 6.82184 35.1268 6.62973 35.5911 6.59771C36.8238 6.51767 37.9924 6.69377 38.7929 7.25407C39.5773 7.8464 40.5378 8.45473 40.7779 8.5828C40.874 8.63083 40.9861 8.74289 41.1301 8.72688C41.2262 8.67885 41.3062 8.61482 41.4023 8.56679C41.4023 8.51877 41.4023 8.47074 41.4023 8.43872C41.4183 8.19859 41.2902 7.6703 40.794 7.43017ZM51.5999 6.45364C51.5518 6.18149 51.4398 5.73324 51.3437 5.55714C51.1516 5.23697 50.9275 4.94881 50.6874 4.69267C50.2391 4.42052 49.6788 4.21241 48.9104 3.98829C48.5422 3.89223 47.8058 3.81219 47.6777 3.84421C47.4536 3.89223 47.3415 4.03631 47.2615 4.1964C47.1494 4.42052 47.6297 4.98083 47.9819 5.50912C48.254 5.12491 48.6222 4.94881 49.3266 4.90078C49.8229 4.91679 49.8389 5.06087 49.4547 5.12491C49.2306 5.15693 48.8304 5.41307 48.5582 6.06943C48.3821 6.51767 48.3661 7.20605 47.6617 7.39815C47.5977 7.33412 47.5497 7.25407 47.5176 7.17403C47.4216 7.33412 47.2455 7.62228 47.3896 7.91043L47.5657 8.07052C47.6297 8.10254 47.6937 8.13456 47.7578 8.18258C47.7097 7.65429 48.4461 7.20605 48.7343 6.91789C49.3586 6.30956 50.2391 6.51767 50.6393 6.66175C50.9275 6.77381 51.1676 7.02995 51.4238 7.14201C51.6639 7.19004 51.6639 6.91789 51.7119 6.80583C51.7119 6.69377 51.6159 6.5657 51.5999 6.45364ZM40.89 30.1946C40.874 30.5628 41.0341 30.9791 41.2582 31.3793C41.4983 31.7795 41.8185 32.1157 42.2027 32.2278C42.2828 32.5159 42.2988 32.7881 42.2828 33.0922C42.8111 33.2203 43.1793 33.0922 43.6435 32.8681C43.7556 33.0922 43.7876 33.3964 43.7396 33.8126C44.1718 33.7806 44.46 33.7006 44.7961 33.4444C44.8122 33.6365 44.7961 33.9407 44.7321 34.1808C44.9562 33.8606 45.0523 33.6365 45.1003 33.3484C45.1483 33.3324 45.1964 33.3163 45.2284 33.3003C45.2764 33.6365 45.2924 33.9407 45.1964 34.501C45.5326 33.8927 45.6446 33.5565 45.7086 32.9962C45.7567 32.9642 45.7567 32.9802 45.8047 32.9482C45.8847 33.2523 45.9648 33.5245 45.9488 33.9567C46.8613 33.7806 47.3255 33.3164 47.6617 32.5479C47.8058 32.692 47.9979 32.9321 48.126 33.1563C48.8944 32.7881 49.1986 31.8756 49.3426 31.2832C49.4227 30.9631 49.4867 30.3707 49.4227 30.1466C49.5027 30.1786 49.5828 30.2106 49.6468 30.2587C49.951 29.6183 49.7909 28.7218 50.1751 28.1775C50.4793 27.7453 50.2551 27.3131 50.1111 26.8168C49.983 29.4422 48.9904 28.2896 48.7503 28.1615C47.8698 27.7133 44.7961 27.7453 43.5475 28.0815C43.0352 28.2256 42.651 28.3056 42.3628 28.5778C41.4663 29.4262 41.1782 29.09 41.0181 28.3216C41.0021 28.0335 40.954 27.7613 40.89 27.4892C40.89 27.4411 40.874 27.3931 40.874 27.3291C40.874 27.3611 40.874 27.3931 40.874 27.4251C40.89 28.0975 40.1376 28.1135 40.1056 28.7378C40.1056 28.8339 40.1056 28.946 40.1376 29.042C40.2176 29.3142 40.922 29.8104 40.89 30.1946Z" fill="white"/>
<path d="M37.8963 7.83042C37.6562 7.78239 37.4801 7.65432 37.4961 7.52625C37.5121 7.39818 37.7363 7.33415 37.9764 7.36617C38.2165 7.41419 38.3926 7.54226 38.3766 7.67033C38.3446 7.81441 38.1365 7.87845 37.8963 7.83042ZM50.063 7.28612C50.095 7.39818 49.9509 7.54226 49.7428 7.6063C49.5347 7.67033 49.3266 7.62231 49.2946 7.51024C49.2626 7.39818 49.4066 7.2541 49.6148 7.19007C49.8389 7.14204 50.031 7.17406 50.063 7.28612ZM52.0481 9.70345C52.1281 9.4313 52.3363 9.11112 52.3683 8.85498C52.4003 8.58283 52.2722 8.13459 52.1442 7.67033C51.5198 7.52625 51.3597 7.70235 51.1356 7.99051C50.6873 8.55081 50.6073 8.67888 50.095 8.93502C49.7268 9.12713 49.3746 9.11112 49.0385 9.04709C49.4707 9.41529 50.015 9.65542 50.5273 9.71945C51.0395 9.76748 51.5838 9.95959 52.0481 9.70345Z" fill="white"/>
<path d="M52.3844 6.88597C52.3844 7.19013 52.6726 7.54233 52.5605 7.68641C52.4645 7.71842 52.2884 7.70242 52.1283 7.6704C52.2564 8.13465 52.3684 8.5829 52.3524 8.85505C52.3204 9.11119 52.1123 9.43136 52.0322 9.70351L52.0482 9.6875C52.1123 9.63947 52.1763 9.59145 52.2403 9.52741C52.8007 8.91908 53.0408 8.61491 52.9607 7.94255C52.9127 7.76645 53.377 7.99057 53.7131 8.55088C53.409 7.91053 53.1048 7.35022 52.8167 6.88597L52.5445 6.45373C52.4324 6.37369 52.3844 6.66185 52.3844 6.88597Z" fill="#FFD300"/>
<path d="M42.9713 27.073C42.411 27.3932 42.5711 26.929 42.443 26.6088C42.2189 26.0485 41.7867 25.5682 41.6906 24.3355C41.6266 23.8072 41.5946 22.9268 42.1389 22.7507C43.0033 22.4945 44.268 23.327 45.0044 23.327C45.7248 23.327 46.4452 22.5746 47.1656 22.7187C47.6619 22.8147 47.854 23.423 47.9981 24.0154C48.1742 24.6717 48.1101 25.136 48.1742 25.5842C48.2222 25.8724 48.2542 25.9684 48.3503 26.0965L48.1582 26.3366C48.1421 26.3206 48.1582 26.3206 48.1582 26.3366C48.0941 26.2726 47.9981 26.2406 47.902 26.2406C47.806 26.2406 47.6939 26.2886 47.6299 26.3526C47.5658 26.4167 47.5178 26.4807 47.4858 26.5447C47.4378 26.5127 47.3897 26.5127 47.3257 26.5127C47.2296 26.5127 47.1496 26.5447 47.0856 26.6088C47.0215 26.5608 46.9575 26.5447 46.8775 26.5447C46.7974 26.5447 46.7174 26.5768 46.6533 26.6248C46.5893 26.5768 46.5092 26.5447 46.4292 26.5447C46.3492 26.5447 46.2851 26.5608 46.2211 26.6088C46.1571 26.5447 46.077 26.5127 45.981 26.5127C45.9169 26.5127 45.8689 26.5287 45.8049 26.5608C45.7568 26.4807 45.6928 26.4167 45.6288 26.3366C45.5647 26.2726 45.4687 26.2246 45.3726 26.2246C45.2766 26.2246 45.1645 26.2726 45.1005 26.3366C45.0685 26.3686 45.0364 26.4007 45.0204 26.4327C44.8283 25.8404 44.7323 25.4081 44.6202 24.9919C44.5882 24.8478 44.5562 24.7037 44.5082 24.5597C44.4281 24.2075 44.3 23.8873 43.9799 23.8873C43.6117 23.8873 43.4836 24.3195 43.4035 24.5757C43.1954 25.248 43.0193 26.3847 42.9713 27.073Z" fill="#D52B1E"/>
<path d="M47.8058 26.5127C47.8538 26.4646 47.9019 26.4646 47.9499 26.4967C48.158 26.6888 48.222 26.8969 48.222 27.041C48.222 27.121 48.0299 27.185 47.9019 27.185C47.7738 27.185 47.5977 27.121 47.5977 27.057C47.5817 26.9449 47.6777 26.6407 47.8058 26.5127ZM45.6766 27.057C45.6766 27.137 45.4845 27.201 45.3565 27.201C45.2284 27.201 45.0523 27.137 45.0523 27.073C45.0523 26.9449 45.1483 26.6407 45.2764 26.5287C45.3244 26.4807 45.3885 26.4807 45.4205 26.5127C45.5646 26.6407 45.6606 26.8489 45.6766 27.057ZM46.1569 27.105C46.1569 27.153 46.0288 27.201 45.9648 27.201C45.8848 27.201 45.7727 27.153 45.7727 27.121C45.7887 26.9929 45.8367 26.8809 45.9168 26.7848C45.9488 26.7528 45.9808 26.7528 46.0128 26.7688C46.1249 26.8969 46.1569 27.0249 46.1569 27.105ZM46.4451 26.8008C46.5731 26.9289 46.6051 27.057 46.6051 27.137C46.6051 27.185 46.4771 27.2171 46.413 27.2171C46.333 27.2171 46.2209 27.169 46.2209 27.137C46.2369 27.0089 46.285 26.8969 46.365 26.8008C46.397 26.7848 46.429 26.7848 46.4451 26.8008ZM47.0534 27.153C47.0534 27.201 46.9253 27.2331 46.8453 27.2331C46.7652 27.2331 46.6532 27.185 46.6532 27.153C46.6532 27.073 46.7172 26.8969 46.7973 26.8168C46.8293 26.7848 46.8613 26.7848 46.8773 26.8168C47.0214 26.9289 47.0534 27.057 47.0534 27.153ZM47.5176 27.105C47.5176 27.153 47.3896 27.201 47.3095 27.201C47.2295 27.201 47.1174 27.153 47.1174 27.121C47.1334 26.9929 47.1815 26.8809 47.2615 26.7848C47.2935 26.7528 47.3255 26.7528 47.3576 26.7688C47.4696 26.8969 47.5016 27.0249 47.5176 27.105ZM48.142 18.5563C48.142 18.5083 48.2701 18.4603 48.3661 18.4603C48.4622 18.4603 48.5902 18.5083 48.6062 18.5723C48.5902 18.7164 48.5262 18.8605 48.4141 18.9725C48.3821 19.0046 48.3501 19.0046 48.3021 18.9565C48.222 18.8285 48.158 18.7004 48.142 18.5563ZM49.0545 18.4603C49.1986 18.4603 49.4227 18.5403 49.4387 18.6203C49.4387 18.7804 49.3587 19.0206 49.1345 19.2607C49.0865 19.3087 49.0225 19.2927 48.9744 19.2447C48.8304 19.1006 48.7183 18.7484 48.7183 18.6043C48.6863 18.5403 48.9104 18.4603 49.0545 18.4603ZM48.3021 26.9129C48.9104 25.8563 49.1185 25.248 49.3587 24.6396C49.5348 24.1754 49.7108 24.0633 49.7589 24.7997C49.8069 25.376 49.8229 26.0324 49.5988 26.9129C49.5187 27.121 49.1025 27.2491 48.8784 27.2491C48.6543 27.2491 48.222 27.089 48.3021 26.9129ZM44.8602 26.9129C44.9082 27.137 44.46 27.2651 44.2519 27.2651C44.0437 27.2651 43.5315 27.169 43.4994 26.9769C43.4834 25.8243 43.6115 25.1839 43.7396 24.6396C43.8676 24.0153 44.0598 23.9833 44.2358 24.6236C44.3959 25.296 44.508 25.8723 44.8602 26.9129ZM51.3437 18.9725C51.1356 19.853 50.7994 20.7175 50.3352 21.4859C49.8069 22.3664 49.6468 22.2223 49.6948 21.678C49.7589 20.9576 49.8869 20.2212 49.7429 18.9565C49.7429 18.7324 50.2391 18.5243 50.5433 18.5243C50.8475 18.5243 51.3758 18.7324 51.3437 18.9725ZM47.6297 18.5083C47.6297 18.4603 47.7578 18.4122 47.8538 18.4122C47.9499 18.4122 48.078 18.4603 48.094 18.5243C48.078 18.6684 48.0139 18.8125 47.9019 18.9245C47.8698 18.9565 47.8378 18.9565 47.8058 18.9085C47.6937 18.7964 47.6297 18.6524 47.6297 18.5083ZM47.1014 18.5083C47.1014 18.4603 47.2295 18.4122 47.3255 18.4122C47.4216 18.4122 47.5657 18.4603 47.5657 18.5243C47.5497 18.6684 47.4856 18.8125 47.3736 18.9245C47.3415 18.9565 47.3095 18.9565 47.2615 18.9085C47.1655 18.7964 47.1174 18.6524 47.1014 18.5083ZM46.5731 18.5563C46.5731 18.5083 46.7012 18.4603 46.7973 18.4603C46.8933 18.4603 47.0374 18.5083 47.0374 18.5723C47.0214 18.7164 46.9573 18.8605 46.8453 18.9725C46.8133 19.0046 46.7812 19.0046 46.7492 18.9565C46.6372 18.8285 46.5891 18.7004 46.5731 18.5563ZM45.7247 18.6203C45.7247 18.5403 45.9328 18.4603 46.0929 18.4603C46.2369 18.4603 46.4611 18.5403 46.4771 18.6203C46.4771 18.7804 46.397 19.0206 46.1729 19.2607C46.1249 19.3087 46.0608 19.2927 46.0128 19.2447C45.8367 19.1166 45.7247 18.7644 45.7247 18.6203ZM43.4514 18.9245C43.4514 18.6844 44.1078 18.5243 44.3959 18.5243C44.6841 18.5243 45.2764 18.7164 45.2444 18.9885C44.9562 20.2372 44.9242 20.9416 44.8122 21.7581C44.7161 22.5425 44.428 22.5105 44.1398 21.7421C43.8997 21.0857 43.6435 20.3173 43.4514 18.9245Z" fill="white"/>
<path d="M57.5712 36.7102C58.4037 37.4626 60.0686 38.9034 60.6129 39.8319C60.7249 40.024 60.6769 39.944 60.6769 39.944C60.869 39.1275 60.9811 38.151 61.1412 37.3346C60.1326 36.262 59.044 34.8852 58.5638 34.0207C57.6192 32.3718 57.187 30.9951 55.8263 29.6343C55.5861 29.3942 55.1859 29.026 54.8017 28.5778C54.5295 28.978 54.2734 29.2982 53.8572 29.7144C53.8732 29.8905 53.9212 30.4348 53.9372 30.7389C54.0173 33.3644 55.6342 34.9813 57.5712 36.7102ZM61.5254 35.1093C61.6054 34.565 61.7015 33.9727 61.7655 33.4284C60.6129 32.8521 59.092 31.6034 57.8754 30.5308C58.4837 31.6995 60.2287 33.8927 61.5254 35.1093Z" fill="#FFD300"/>
<path d="M55.3779 27.4892C56.5146 25.7762 56.4185 22.6865 56.0823 20.3012C56.3225 20.4293 56.5626 20.5894 56.8027 20.8135C56.6106 20.4133 56.3385 20.0451 55.9863 19.7569C55.9703 19.6769 55.9543 19.5648 55.9382 19.4688C56.1464 19.6128 56.3064 19.7409 56.4505 19.901C56.6266 17.8199 56.5626 16.203 55.8902 14.33C55.8902 14.33 56.0983 14.2979 56.2904 14.378C56.2424 14.2499 56.1784 14.0418 56.0983 13.8177C55.7942 13.9778 55.49 14.1218 55.1378 14.2499C55.2018 14.6021 55.2659 14.9703 55.3139 15.3225C54.7216 15.3225 54.0812 15.4666 53.4089 15.6907V15.6107C53.4249 15.3065 53.4089 15.0343 53.4089 14.7942C52.1442 15.1944 51.0236 15.4666 51.3117 15.2104C51.824 14.9543 52.3843 14.7302 52.9606 14.5061C52.9926 14.49 53.0407 14.474 53.0727 14.458C53.1687 14.426 53.2648 14.394 53.3448 14.362C54.3374 14.0098 55.3619 13.7696 56.3865 13.6096C56.2584 13.5775 56.1304 13.5775 55.9863 13.5615C55.8422 13.1773 55.6821 12.7291 55.506 12.2808C55.2499 12.4249 54.9937 12.569 54.7376 12.6971C54.8176 12.9852 54.9137 13.3054 54.9937 13.6416C54.4174 13.7696 53.8571 13.9618 53.3128 14.2019C53.2648 13.9297 53.1687 13.6736 53.0567 13.4335C52.1282 13.8017 51.4398 14.0098 51.6479 13.7857C53.0887 12.9532 54.2733 12.3289 56.0023 11.8806C56.0343 11.8646 56.0823 11.8646 56.1143 11.8486C55.8582 11.8326 55.6021 11.8486 55.3619 11.8806L55.1858 11.4484C55.1698 11.4003 55.0418 11.0962 55.0257 11.0321L55.1858 11.0482C54.4334 8.95101 53.2808 6.83785 51.6639 5.20496C52.2242 5.95737 52.3843 6.24553 52.7685 6.83785C53.5529 8.05452 54.4815 10.1036 54.9457 11.9607C54.2413 12.1688 53.5689 12.553 52.8325 13.0172C52.7845 12.9212 52.7205 12.8411 52.6725 12.7451C52.5444 12.537 52.0801 12.1528 51.7279 11.9607C51.856 12.2168 51.904 12.601 51.76 13.0332C51.5198 13.8177 51.1516 14.2659 50.7034 14.7942C50.3192 15.2585 49.8709 16.299 49.0225 16.3791C49.0225 16.4591 49.0225 16.5392 49.0225 16.5872C49.0225 17.0995 49.5988 17.7878 49.919 17.9319C50.5273 18.2201 50.6393 18.2361 51.3757 18.076C52.0961 17.9159 52.5124 17.4357 52.7525 17.1315C52.9446 16.8914 53.1207 16.6192 53.2328 16.315C51.9361 16.6512 50.7674 16.8753 51.0716 16.6192C51.6639 16.3631 52.2722 16.155 52.8966 15.9628C53.9372 15.6587 55.0418 15.4346 56.0983 15.3545C55.8582 15.4826 55.6181 15.5946 55.3459 15.6907C55.41 16.4111 55.41 17.0835 55.3299 17.6438C55.5861 17.8679 55.7782 18.14 56.0183 18.5403C55.8422 18.3962 55.6661 18.2681 55.49 18.14C54.8817 17.6918 54.4494 17.4837 53.7611 17.3556C54.1453 17.5317 54.4815 17.7718 54.7856 18.028C54.7376 19.853 54.4975 22.4464 53.9051 23.7591C53.713 23.471 53.4569 23.2308 53.1687 23.0387C53.1687 23.0707 53.1207 23.1508 53.1047 23.1828C53.5529 23.7111 53.7931 24.0953 54.0652 24.8317C53.633 24.3354 53.2808 23.9672 52.9606 23.6631C52.3203 25.4721 51.4718 25.8403 50.7674 25.8883C50.7674 25.8883 51.4398 27.281 50.8314 28.6418C50.7834 28.7699 50.7514 28.9139 50.7514 29.042C50.9275 29.4102 50.8795 29.6343 51.0236 30.0666C52.1602 29.6023 53.4729 28.2256 54.2573 27.137C54.5935 27.4411 54.9297 27.7773 55.3619 28.2736C55.1058 27.6172 54.8817 27.233 54.4975 26.7848C54.5455 26.7207 54.5775 26.7047 54.6095 26.6407C54.9457 26.9449 55.1218 27.121 55.3779 27.4892Z" fill="white"/>
<path d="M43.8997 6.06941C43.1153 5.26897 42.1547 4.72467 40.2657 4.42051C41.2902 4.24441 42.715 4.46853 43.4034 4.88476C44.1398 4.30844 44.8922 4.16436 45.7887 4.29243C44.9242 4.54857 43.7236 5.25296 43.8997 6.06941ZM36.8558 2.54748C38.5047 2.2273 40.778 2.46743 41.5944 3.09178C42.2348 2.64353 43.3714 2.33937 45.2764 2.65954C43.6916 2.7716 43.2433 2.86765 42.8751 3.1398C43.3394 3.02774 43.8517 3.01173 44.7481 3.21985C43.6916 3.29989 42.3949 3.58805 42.3949 4.18037C41.6905 3.66809 40.1856 3.23586 38.8249 3.23586C39.5133 3.02774 40.0256 3.04375 40.4418 3.1398C39.5933 2.75559 38.8569 2.5795 36.8558 2.54748ZM49.5508 12.681C49.967 12.697 50.6074 12.681 50.9916 12.5049C51.0076 12.7771 49.983 13.2413 49.7749 13.2573C49.5348 13.2734 49.2626 13.0812 49.0385 13.0332C48.7663 12.9692 48.5102 12.9052 48.2381 12.8571C48.078 12.8411 47.8699 12.7611 47.8538 12.553C48.4142 12.585 48.9745 12.665 49.5508 12.681ZM35.8633 12.1367C35.2069 12.617 34.1984 13.0172 33.2378 12.8251C33.1098 13.2253 33.1578 13.9297 33.462 14.7462C31.8291 14.0258 30.8365 12.7931 30.7245 11.8806C31.797 11.3683 34.0223 12.1047 35.8633 12.1367ZM55.8742 4.58059C54.7856 4.70866 53.569 4.5966 52.6084 4.06831C53.4249 4.10033 54.0332 3.95625 55.506 3.50801C55.0578 3.54002 50.5433 3.6841 47.9179 3.01173C46.7653 2.49945 43.0352 1.02665 40.794 2.24331C37.128 1.04266 32.5014 2.29134 31.1407 3.29989C28.6753 3.29989 26.0819 3.1238 24.6091 2.64353C25.8098 3.47599 26.7543 3.62007 27.4587 3.76415C25.6497 3.84419 24.353 3.57204 22.4159 3.15581C23.0563 3.78015 23.5205 4.03629 24.4971 4.32445C23.9207 4.37248 23.3444 4.34046 22.7201 4.2284C23.4565 4.83673 25.3455 5.84529 26.9304 5.1409C27.3946 4.93279 28.8674 4.16437 30.1161 4.02029C29.4278 4.38849 28.3392 5.36502 27.7148 6.08542C27.6988 6.11743 27.6668 6.14945 27.6508 6.19748C28.2271 5.79726 28.8835 5.47708 29.5558 5.34901C28.5633 6.08542 28.131 6.85384 28.083 7.65428C28.4352 7.28607 28.6914 6.90186 29.0916 6.77379C29.1876 6.74178 29.2677 6.83783 29.3477 7.01393C29.4918 7.22204 29.5878 7.68629 29.7799 8.11853C29.9881 8.55077 30.2762 8.93498 30.7405 8.983C30.8525 8.99901 30.9646 9.01502 31.0767 9.03103C30.5644 8.48673 30.4683 7.94243 30.7085 7.57423C30.8045 7.41414 30.9486 7.06195 31.2688 6.75779C31.0606 6.75779 30.8685 6.75779 30.7405 6.58169C30.6284 6.4216 30.5644 6.24551 30.5163 6.06941C30.4683 5.89331 30.2922 5.57314 30.3403 5.41305C30.7725 5.41305 31.1887 5.54112 31.6049 5.41305C32.2613 5.22094 32.0852 4.56458 32.8696 4.02029C32.9337 4.18037 32.9497 4.34046 32.9657 4.50055C33.3019 4.30844 33.8462 4.06831 34.3104 3.92423C34.5666 3.84419 34.8707 3.76415 35.1109 3.78015C35.4951 3.79616 35.9113 3.95625 36.2795 4.08432C36.7598 4.26042 37.16 4.54858 37.5442 4.86875C38.6648 5.1409 39.4973 5.86129 40.2977 6.64572C40.4898 6.83783 40.5859 6.99792 40.5538 7.25406C40.6339 7.30208 40.6979 7.35011 40.778 7.38213C41.2582 7.62226 41.3863 8.15055 41.3863 8.39068C41.3863 8.43871 41.3863 8.48673 41.3863 8.51875C42.619 7.81436 43.6435 7.39814 44.9082 7.95844C43.7396 7.86239 42.603 8.47072 41.6424 9.27116C41.0021 9.81546 39.6894 11.0001 38.7128 11.0481C38.6168 10.6159 38.7769 10.4078 39.081 10.1036C39.4973 9.78344 39.9135 9.46327 40.3297 9.17511C40.0896 9.12708 39.8335 9.12708 39.5773 9.1591C39.2251 9.63936 38.6968 9.91151 38.3767 10.0716C37.224 10.5999 36.6317 10.84 34.4385 10.6639C33.0457 10.5519 32.0212 10.776 31.3008 10.776C30.5644 10.776 30.1962 10.6159 29.7799 10.2477C29.3637 9.87949 29.1716 9.35121 28.9635 8.72686C28.9155 10.5839 29.4438 15.2104 31.3488 16.267C31.653 16.0589 32.2453 15.8988 32.7416 15.8988C31.9892 16.251 31.1887 16.9714 30.7405 17.8519C32.4694 16.347 33.7981 15.9628 35.9593 15.9628C35.0628 17.4997 34.8707 18.8124 34.9028 20.1091C34.9188 20.9255 35.0308 21.5499 35.2069 22.0622C35.5431 23.1348 36.1194 24.2394 36.8398 25.0558C36.6637 24.6556 36.5196 24.2714 36.3916 23.8712C36.9038 24.4155 37.5122 24.9758 38.1525 25.8562C38.969 26.9769 39.5293 27.1369 40.1056 28.6898C40.1536 28.0655 40.89 28.0494 40.874 27.3771C40.762 26.9448 40.5859 26.5126 40.2657 25.9043C39.6734 24.7356 37.6563 20.7014 37.5762 18.2361C37.5442 17.3876 38.1045 16.8913 38.2966 16.5231C38.4087 16.299 38.4407 16.0429 38.3767 15.8027C37.3361 15.5626 36.1674 15.2104 35.415 14.8902C36.2475 14.7942 37.176 14.8582 38.1045 15.0023C37.9924 14.6661 37.9284 14.2979 38.0245 13.8657L38.0405 13.8177C37.192 13.5615 36.3595 13.2734 35.5431 12.9532C36.4236 12.9052 37.3521 13.0172 38.2646 13.2093C38.4407 12.8891 38.6648 12.569 38.953 12.2488C37.4001 11.7045 36.2475 11.1922 35.5271 10.84C36.8398 10.872 38.1845 11.2082 39.4973 11.6885C39.7854 11.4003 40.1376 11.1122 40.5218 10.824C40.858 10.5519 41.2262 10.1837 41.5784 9.94353C42.635 9.20713 44.0758 8.27862 45.3245 9.06305C45.1163 9.07906 44.9082 9.09507 44.6841 9.11107C43.9477 9.19112 44.3799 10.2477 45.2124 11.0962C45.6606 11.5604 46.0929 12.2168 46.6052 12.9532C46.9413 13.4334 46.9894 13.5935 47.3576 13.7056C47.9979 13.8977 48.7023 14.2179 48.5422 14.6021C48.4302 14.8902 47.9659 14.7622 48.062 15.1144C48.2701 15.8508 48.7984 15.9948 49.2466 15.9148L49.4707 15.8508C49.5348 15.8187 49.5988 15.8027 49.6628 15.7547C49.887 15.6106 49.967 15.3865 50.2071 15.0183C50.3032 14.7942 50.1431 14.8102 50.1431 14.6181C50.1431 14.49 50.3992 14.1698 50.7354 13.8977C51.1516 13.5455 51.4078 12.8411 51.4078 12.553C51.4078 12.1687 51.4238 11.9126 51.2477 11.6565C50.6074 10.744 48.8944 9.71941 48.6863 9.55932C48.11 9.12708 47.5657 9.06305 46.9413 9.01502C47.2615 8.72686 47.5337 8.74287 47.7738 8.82292C47.5817 8.63081 47.4856 8.53476 47.3416 8.43871C46.8133 8.08651 46.221 7.95844 45.4845 7.91042C46.301 7.52621 46.7652 7.55822 47.4696 8.02248L47.2935 7.86239C47.1495 7.57423 47.3256 7.28608 47.4216 7.12599C47.3256 6.93388 47.3256 6.70976 47.3896 6.51765C47.5657 6.0534 47.7098 5.70121 47.8859 5.46108C47.5337 4.93279 47.0534 4.37248 47.1655 4.14836C47.2455 4.00428 47.3576 3.84419 47.5817 3.81217C47.7258 3.78015 48.4622 3.8602 48.8144 3.95625C49.5988 4.18037 50.1591 4.37248 50.5913 4.66064C50.5433 4.61261 50.4793 4.56458 50.4313 4.51656C49.999 4.18037 49.4707 3.82818 48.8304 3.47599C49.6308 3.82818 50.5753 4.26042 51.1196 4.53257C52.1762 5.06086 52.9927 5.8773 54.8177 5.76524C54.3374 5.66919 53.585 5.317 52.8646 4.80472C53.2648 4.82072 54.2093 5.09287 55.8742 4.58059ZM27.1225 32.5159C26.6903 32.0356 26.29 31.5234 25.9378 30.9791C25.0413 32.5479 23.8087 34.7731 23.1683 37.1584C23.6166 36.358 24.1609 35.5095 24.1609 35.5095C23.6806 37.0304 23.1683 39.0155 22.8482 41.3687C22.544 43.706 22.4479 46.7477 22.7521 49.8214C22.8001 50.2376 22.8642 50.7979 22.9602 51.5023C21.8396 49.8054 20.8791 47.9964 20.0946 46.1233C18.5738 42.4894 16.0924 35.4775 16.0924 29.6183C15.6442 22.2863 16.4286 16.219 17.4372 10.712C16.9409 10.824 16.4767 10.9521 16.0604 11.0481C12.5865 26.5446 14.8598 40.5683 22.1598 51.006C23.3604 52.735 25.2335 54.9602 26.4821 56.0328C23.3284 49.069 23.3284 39.2236 27.1225 32.5159Z" fill="#FFD300"/>
<path d="M55.0097 9.54337C55.8422 8.61486 56.6746 7.12605 57.0268 4.46859C57.1869 3.31596 56.4665 2.8517 55.2178 2.8517C52.1601 2.8517 50.3031 2.69162 47.8698 2.33942C43.7875 -0.157944 39.7693 1.33087 39.7693 1.33087C34.8547 0.0181525 30.4522 2.27539 30.4522 2.27539C28.163 2.2914 25.5536 2.16333 23.7766 1.90719C22.9761 1.77912 22.4639 1.66706 21.7915 1.76311C20.6549 1.9232 20.5748 5.52517 21.9516 7.63833C22.2397 8.15061 22.9121 8.93504 23.6005 9.63942C22.0156 9.84754 20.4308 10.1197 18.8619 10.4399C17.5652 16.8594 17.181 22.3664 17.181 26.9449C17.181 35.2374 19.038 44.2184 22.9761 51.5344C21.8555 49.8374 20.895 48.0285 20.1106 46.1554C18.5897 42.5214 16.1084 35.5096 16.1084 29.6504C15.6601 22.3184 16.4446 16.251 17.4531 10.744C14.1713 11.5125 12.7786 12.2008 12.7786 12.2008C10.2012 23.0228 11.2897 33.0122 15.0198 41.4489C10.6654 33.0122 9.25664 22.7826 12.0422 11.3684C12.0422 11.3684 15.0518 9.91157 22.624 8.871C22.0797 8.29469 21.5994 7.67034 21.1832 7.01398C19.6463 4.6767 19.9985 1.10675 21.1832 0.930652C21.8876 0.8346 22.3998 0.898636 23.2323 1.02671C25.0573 1.28285 27.2185 1.58701 29.5878 1.571C29.5878 1.571 33.9101 -0.910356 39.5132 0.482407C39.5132 0.482407 43.8036 -1.19851 48.1579 1.71508C50.6713 2.06728 52.5604 1.95521 55.7301 1.95521C57.0268 1.95521 57.8432 2.54754 57.7632 3.71618C57.6351 5.73328 56.8507 7.38219 55.7941 8.75894C63.9266 9.79951 67.1283 11.3524 67.1283 11.3524C69.9139 22.7666 68.5211 33.0122 64.1507 41.4328C67.8807 32.9962 68.9693 23.0067 66.3919 12.1848C66.3919 12.1848 64.9992 11.4964 61.7174 10.728C62.7099 16.235 63.5103 22.3024 63.0621 29.6344C63.0621 35.4776 60.5968 42.4894 59.0759 46.1394C58.2915 48.0124 57.331 49.8214 56.2104 51.5184C60.1325 44.2024 61.9895 35.2214 61.9895 26.9289C61.9895 22.3504 61.6053 16.8434 60.3086 10.4239" fill="white"/>
<path d="M63.1263 11.0642C62.6781 10.9361 62.2138 10.8241 61.7656 10.728C62.7581 16.235 63.5425 22.3024 63.1103 29.6344C63.1103 35.3815 60.741 42.2333 59.2042 45.9313L59.1241 46.1394C58.0195 48.7489 58.1796 47.8203 59.2362 44.7627C59.2202 44.2504 59.0121 43.61 58.9 43.2578C58.3237 41.5609 57.3952 40.0081 56.1625 38.7114C55.7303 38.2631 55.282 37.8469 54.8178 37.4467C52.9447 35.8458 51.9362 34.9653 52.1443 32.1798L52.1603 31.9877C52.1923 31.6355 52.2724 31.3313 52.3844 31.0752C51.7921 31.5234 51.1358 31.9236 50.4794 32.2278C50.4154 32.516 50.1592 33.4125 49.6309 34.0368C50.2233 36.0379 51.7281 38.1511 52.5125 39.0956C52.0963 38.2631 51.9842 37.7668 51.648 36.8543C52.8647 38.4232 54.2895 40.6324 54.4175 42.9217C53.6491 42.1212 52.8487 41.4489 52.2884 41.1607C53.345 43.546 53.2329 45.0828 52.5765 47.3721C51.2638 51.9506 48.9906 52.671 46.141 57.5697C46.7974 56.8493 47.3897 56.305 48.0621 55.8888C46.7173 57.3776 45.4526 59.7789 45.4526 62.0521C46.6053 61.2677 47.7419 60.4833 48.8625 59.6508C50.4794 58.3381 52.0002 56.9293 53.441 55.4245C54.6097 54.2399 56.0825 52.4789 57.059 51.0541C64.327 40.6004 66.6002 26.5767 63.1263 11.0642Z" fill="#FFD300"/>
<path d="M61.7656 10.728C62.7581 16.235 63.5585 22.3023 63.1103 29.6344C63.1103 35.4776 60.645 42.4894 59.1241 46.1394C58.3397 48.0124 57.3792 49.8214 56.2585 51.5183C60.1807 44.2023 62.0377 35.2214 62.0377 26.9289C62.0377 22.3504 61.6535 16.8433 60.3568 10.4238L61.7656 10.728Z" fill="white"/>
<path d="M30.4522 77.5326C30.5803 77.5326 30.8364 77.5486 31.0125 77.5486H31.7649C31.909 77.5486 32.1171 77.5486 32.2452 77.5326L32.2612 77.5486C32.2292 77.6607 32.2132 77.9168 32.1971 78.125C32.1811 78.141 32.1011 78.141 32.0851 78.141C32.0691 78.0289 32.0531 77.9328 32.005 77.8368C31.973 77.7728 31.909 77.7407 31.861 77.7407C31.6849 77.7247 31.5088 77.7247 31.3327 77.7407C31.3167 77.7407 31.3007 77.7888 31.3007 77.8048C31.3007 78.0609 31.3007 78.3331 31.3007 78.5892C31.3007 78.6052 31.3167 78.6212 31.3167 78.6212C31.4127 78.6212 31.7169 78.6212 31.8289 78.6212C31.909 78.6212 31.957 78.5732 31.989 78.4611C32.005 78.4131 32.005 78.3811 32.021 78.3331C32.0371 78.3171 32.1171 78.3171 32.1331 78.3331C32.1331 78.4291 32.1171 78.5732 32.1171 78.7013C32.1171 78.7973 32.1171 78.9574 32.1331 79.0695C32.1171 79.0855 32.0371 79.0855 32.021 79.0695C31.989 78.9574 31.989 78.9734 31.989 78.9254C31.973 78.8774 31.941 78.8133 31.8449 78.8133C31.7809 78.8133 31.4607 78.8133 31.3327 78.8133C31.3167 78.8133 31.3167 78.8293 31.3167 78.8453V79.5817C31.3167 79.6458 31.3487 79.6938 31.3967 79.7098C31.4767 79.7258 31.6528 79.7258 31.8449 79.7258C32.0531 79.7258 32.1011 79.7098 32.1811 79.6298C32.2772 79.5177 32.3412 79.3896 32.3893 79.2616C32.4213 79.2616 32.4693 79.2776 32.5013 79.2936C32.4693 79.4857 32.4053 79.6778 32.3412 79.8539C32.3252 79.9019 32.2932 79.9179 32.1331 79.9179C31.7969 79.9179 31.4287 79.9019 31.0605 79.9019C30.8524 79.9019 30.5963 79.9179 30.3882 79.9179C30.3721 79.8859 30.3721 79.8539 30.3882 79.8059C30.5162 79.7899 30.6123 79.7738 30.6603 79.7578C30.7403 79.7418 30.7724 79.6938 30.7724 79.5657C30.7884 79.3416 30.7884 79.0214 30.7884 78.6052C30.7884 78.3171 30.7884 77.9969 30.7724 77.8688C30.7724 77.7567 30.7564 77.7247 30.6603 77.7087C30.5963 77.6927 30.5322 77.6767 30.4682 77.6767C30.4362 77.6287 30.4362 77.5486 30.4522 77.5326ZM33.6539 79.7098C33.75 79.7738 33.8941 79.8059 34.0061 79.8059C34.1982 79.8059 34.3423 79.6938 34.3423 79.4857C34.3423 79.2936 34.2623 79.1655 33.9261 78.9574C33.5579 78.7173 33.3338 78.5412 33.3338 78.157C33.3338 77.7087 33.702 77.4686 34.1502 77.4686C34.4384 77.4686 34.5985 77.5166 34.7746 77.5326C34.7425 77.6767 34.7265 77.8528 34.7105 78.0929C34.6945 78.1089 34.6145 78.1089 34.5985 78.0929C34.5664 77.8688 34.5184 77.7407 34.4224 77.6767C34.3423 77.6127 34.2303 77.5806 34.1182 77.5967C33.9421 77.5806 33.782 77.7247 33.782 77.9008C33.782 77.9168 33.782 77.9168 33.782 77.9328C33.782 78.0929 33.8621 78.205 34.0221 78.317C34.1822 78.4291 34.2783 78.4771 34.4544 78.5892C34.7265 78.7653 34.8706 78.9414 34.8706 79.2135C34.8706 79.6298 34.5344 79.9339 33.9581 79.9339C33.766 79.9339 33.5579 79.9019 33.3818 79.8059C33.3498 79.7418 33.2697 79.3416 33.2697 79.2135C33.2857 79.1975 33.3658 79.1815 33.3818 79.1815C33.4138 79.4697 33.5099 79.5978 33.6539 79.7098ZM37.2239 79.8859C37.0798 79.8859 36.8877 79.8699 36.6316 79.8699C36.2634 79.8699 36.0873 79.8859 35.9592 79.8859C35.9432 79.8699 35.9432 79.7899 35.9592 79.7739C36.0392 79.7578 36.1513 79.7578 36.1993 79.7418C36.2954 79.7258 36.3274 79.6778 36.3274 79.5017C36.3434 79.1175 36.3434 78.3331 36.3434 77.7407L36.3274 77.7087C36.1993 77.6927 36.0713 77.6927 35.9432 77.7087C35.8471 77.7087 35.7991 77.7567 35.7511 77.8368C35.7031 77.9328 35.639 78.0449 35.607 78.173C35.591 78.189 35.495 78.173 35.495 78.141C35.527 77.9809 35.559 77.6607 35.559 77.5166C35.559 77.5166 35.575 77.4846 35.591 77.5006C35.7191 77.5486 35.8471 77.5486 35.9432 77.5486H37.3199C37.5121 77.5486 37.6241 77.5326 37.7362 77.5006C37.7522 77.5006 37.7522 77.5166 37.7682 77.5166C37.7362 77.6607 37.6882 77.9168 37.6721 78.173C37.6561 78.189 37.5601 78.189 37.5601 78.173C37.5441 78.0609 37.5121 77.9488 37.48 77.8368C37.448 77.7407 37.4 77.7247 37.3199 77.7087C37.1759 77.7087 37.0318 77.7087 36.9037 77.7087C36.9037 77.7087 36.8877 77.7247 36.8877 77.7407C36.8877 78.285 36.8877 79.2936 36.9037 79.5497C36.9037 79.6458 36.9357 79.7098 37.0158 79.7418C37.0798 79.7578 37.1118 79.7578 37.2399 79.7739C37.2399 79.7899 37.2399 79.8699 37.2239 79.8859ZM41.002 79.8859C40.8579 79.8859 40.6178 79.8699 40.3776 79.8699C40.1055 79.8699 39.9454 79.8859 39.8333 79.8859C39.8173 79.8699 39.8173 79.7899 39.8333 79.7739L40.0254 79.7418C40.1375 79.7098 40.1535 79.6138 40.1535 79.4857C40.1695 79.3256 40.1695 79.1015 40.1695 78.7333C40.1695 78.4131 40.1695 78.1249 40.1535 78.0289C40.1535 77.9649 40.1215 77.9008 40.0574 77.8848C39.9934 77.8688 39.9454 77.8688 39.8814 77.8528C39.8653 77.8368 39.8814 77.7567 39.8974 77.7407C40.2175 77.7247 40.5057 77.6287 40.6658 77.5486C40.6818 77.5486 40.7138 77.5646 40.7138 77.5646C40.6978 77.7247 40.6978 77.8528 40.6978 78.173C40.6978 78.4771 40.6978 79.1335 40.7138 79.4537C40.7138 79.5978 40.7298 79.6938 40.8419 79.7258C40.9219 79.7418 40.986 79.7418 41.034 79.7578C41.018 79.7899 41.018 79.8699 41.002 79.8859ZM42.3147 77.9969C42.3147 78.205 42.4267 78.3171 42.827 78.5412H42.843C42.923 78.4291 42.971 78.301 42.971 78.157C42.971 77.9008 42.843 77.6927 42.6028 77.6927C42.4267 77.6927 42.3147 77.8368 42.3147 77.9969ZM42.971 79.4857C42.971 79.2776 42.843 79.1335 42.4107 78.8774H42.3947C42.2827 78.9894 42.2346 79.1175 42.2186 79.2616C42.2186 79.5017 42.4107 79.7739 42.6669 79.7739C42.843 79.7899 42.971 79.6778 42.971 79.4857ZM43.3072 78.141C43.3072 78.285 43.2272 78.4291 42.923 78.6052C42.923 78.6212 42.923 78.6212 42.923 78.6212C43.2272 78.8133 43.4033 78.9734 43.4033 79.2456C43.4033 79.5817 43.0831 79.9179 42.5708 79.9179C42.0265 79.9179 41.8184 79.5978 41.8184 79.3416C41.8184 79.1815 41.9305 79.0374 42.2827 78.8293V78.8133C42.0746 78.6692 41.8985 78.4931 41.8985 78.221C41.8985 78.0289 41.9945 77.8528 42.1386 77.7407C42.2827 77.6287 42.4748 77.5646 42.6509 77.5806C43.0351 77.5806 43.3072 77.7888 43.3072 78.141ZM44.7 77.9969C44.7 78.205 44.8121 78.3171 45.1963 78.5412H45.2123C45.2923 78.4291 45.3403 78.301 45.3403 78.157C45.3403 77.9008 45.2123 77.6927 44.9721 77.6927C44.8121 77.6927 44.7 77.8368 44.7 77.9969ZM45.3564 79.4857C45.3564 79.2776 45.2283 79.1335 44.796 78.8774H44.78C44.668 78.9894 44.6199 79.1175 44.6039 79.2616C44.6039 79.5017 44.796 79.7739 45.0522 79.7739C45.2443 79.7899 45.3564 79.6778 45.3564 79.4857ZM45.6925 78.141C45.6925 78.285 45.6125 78.4291 45.3083 78.6052C45.3083 78.6212 45.3083 78.6212 45.3083 78.6212C45.6125 78.8133 45.7886 78.9734 45.7886 79.2456C45.7886 79.5817 45.4684 79.9179 44.9561 79.9179C44.4118 79.9179 44.2037 79.5978 44.2037 79.3416C44.2037 79.1815 44.3158 79.0374 44.668 78.8293V78.8133C44.4599 78.6692 44.2838 78.4931 44.2838 78.221C44.2838 78.0289 44.3798 77.8528 44.5239 77.7407C44.668 77.6287 44.8601 77.5646 45.0362 77.5806C45.4204 77.5806 45.6925 77.7888 45.6925 78.141ZM47.9017 77.5967C47.8697 77.7407 47.8057 77.8688 47.7096 77.9649C47.6616 78.0129 47.5976 78.0449 47.5175 78.0609C47.2614 78.0609 47.1013 78.0289 47.0373 78.0289C47.0373 78.0289 47.0053 78.0289 47.0053 78.0449C46.9732 78.1089 46.9572 78.173 46.9252 78.221C46.9252 78.221 46.9412 78.253 46.9572 78.253C47.0693 78.301 47.5015 78.4771 47.6616 78.5732C47.9017 78.7013 48.0618 78.8614 48.0618 79.1655C48.0618 79.6778 47.5175 79.998 47.0533 79.998C46.8612 80.014 46.6851 79.9339 46.557 79.8219C46.525 79.7899 46.493 79.7418 46.493 79.6938C46.493 79.6298 46.557 79.5017 46.605 79.4537C46.621 79.4377 46.6371 79.4377 46.6531 79.4217C46.8131 79.6458 47.0373 79.8219 47.3094 79.8219C47.5015 79.8219 47.6296 79.6778 47.6296 79.4857C47.6296 79.3256 47.5656 79.1495 47.3254 79.0054C47.1173 78.8774 46.7491 78.7173 46.6531 78.6692C46.6531 78.6532 46.6371 78.5732 46.6531 78.5412C46.7171 78.3171 46.9252 77.7888 47.0373 77.6447C47.0853 77.5967 47.1173 77.5806 47.1493 77.5806C47.2134 77.5806 47.4055 77.5967 47.6136 77.5967C47.7417 77.5967 47.7737 77.5807 47.8377 77.5326C47.8697 77.5646 47.9017 77.5806 47.9017 77.5967ZM27.1224 73.4824C26.8342 73.9467 26.45 74.4109 26.1778 74.635C25.8417 74.9072 25.5055 74.9392 25.2333 74.9392C23.3603 74.9392 22.736 73.1942 22.736 71.9296C22.736 69.9925 23.5044 69.08 24.689 69.08C25.1533 69.08 25.5695 69.16 25.9377 69.3682C26.386 69.6243 26.466 69.9925 26.6101 70.7129C26.6261 70.7929 27.1224 70.7449 27.1704 70.6489C27.1704 70.0405 27.2664 69.08 27.3145 68.6958C26.8822 68.6798 26.0178 68.4877 24.9292 68.4877C24.0007 68.4877 23.2803 68.6478 22.6559 68.9519C21.3912 69.5442 20.7349 70.7449 20.7349 72.0256C20.7349 74.4749 22.3037 75.7076 24.8811 75.7076C25.7136 75.7076 26.1939 75.5315 26.5621 75.4195C26.8982 75.2274 27.4105 74.2989 27.5866 73.8186C27.4746 73.6585 27.3145 73.5464 27.1224 73.4824Z" fill="black"/>
<path d="M13.9953 71.9135C13.8192 72.0095 13.2589 72.0416 12.7946 72.0416C12.7306 72.0416 12.7146 71.9775 12.7146 71.9295C12.7146 71.1131 12.7146 69.8644 12.7306 69.5122C12.7306 69.4642 12.7786 69.3841 12.8107 69.3361C12.8587 69.3041 13.0668 69.2881 13.1789 69.2881C13.9953 69.2881 14.5556 69.8324 14.5556 70.7769C14.5556 71.4652 14.3155 71.7694 13.9953 71.9135ZM20.0466 74.8751C19.7585 74.7791 19.7264 74.5549 19.7104 74.3628C19.6944 73.9306 19.6944 72.794 19.6944 71.7694C19.6944 70.8089 19.6784 70.2326 19.7104 69.8644C19.7264 69.6563 19.7264 69.4321 19.9826 69.3521C20.2067 69.2881 20.4308 69.256 20.6549 69.224C20.719 69.16 20.703 68.7598 20.6549 68.6797C20.3668 68.6797 19.9826 68.7117 18.7819 68.7117C17.9495 68.7117 17.3892 68.6797 17.005 68.6797C16.9409 68.7598 16.9409 69.144 16.9889 69.224C17.2291 69.256 17.4212 69.272 17.6773 69.3521C17.8694 69.4161 17.9655 69.5602 17.9655 69.8003C17.9975 70.2486 17.9975 70.6328 17.9975 71.8495C17.9975 72.3938 17.9975 74.0747 17.9655 74.3468C17.9335 74.7791 17.8694 74.8591 17.5332 74.9391C17.4532 74.9552 17.3571 74.9552 17.2771 74.9391C17.021 74.8751 16.9249 74.7631 16.6688 74.5229C16.1725 74.0267 15.18 72.762 14.9398 72.2977C14.9238 72.2657 14.9238 72.2177 14.9558 72.2017C15.7082 71.8815 16.2846 71.3852 16.2846 70.4887C16.2846 69.4962 15.4681 68.6797 14.0113 68.6797C13.6271 68.6797 12.9547 68.7117 11.7861 68.7117C11.3378 68.7117 10.3773 68.6797 10.0892 68.6797C10.0091 68.7277 9.96109 69.128 10.0411 69.224C10.2973 69.272 10.5534 69.3201 10.6815 69.3521C10.8896 69.4001 10.9696 69.5282 11.0017 69.7843C11.0337 70.1845 11.0337 70.969 11.0337 72.0736C11.0337 72.778 11.0177 74.0427 11.0017 74.3948C10.9857 74.699 10.9056 74.8591 10.6655 74.9071C10.4734 74.9552 10.2813 74.9872 10.0732 75.0032C9.9771 75.0672 10.0251 75.4995 10.0892 75.5475C10.4253 75.5475 11.0177 75.5155 11.9302 75.5155C12.8747 75.5155 13.499 75.5475 13.6911 75.5475C13.7712 75.5475 13.7872 75.0192 13.7232 75.0032C13.419 74.9552 13.3069 74.9552 13.0508 74.8751C12.8267 74.8111 12.7626 74.635 12.7626 74.3948C12.7466 74.0427 12.7466 73.5144 12.7466 72.826C12.7466 72.81 12.7786 72.7459 12.7946 72.7459C12.8267 72.7459 13.0188 72.746 13.1308 72.762C13.2909 72.778 13.371 72.794 13.467 72.922C13.8352 73.5144 14.2514 74.2027 14.7157 74.7951C14.7797 74.9071 14.9878 75.1313 15.308 75.3073C15.8683 75.5955 17.005 75.5795 17.6453 75.5315C17.9495 75.5155 18.3337 75.5155 18.894 75.5155C19.8865 75.5155 20.3828 75.5315 20.735 75.5475C20.815 75.4995 20.8791 75.0992 20.831 75.0032C20.5429 74.9712 20.1907 74.9071 20.0466 74.8751ZM45.2924 74.8591C45.0043 74.7791 44.9242 74.5389 44.9082 74.2668C44.8122 72.81 44.7642 71.3692 44.7642 69.9124C44.7642 69.6723 44.7962 69.4642 45.0523 69.3681C45.2124 69.3201 45.4846 69.272 45.8047 69.208C45.8848 69.144 45.8688 68.6957 45.8047 68.6637C45.2444 68.6637 44.7481 68.6957 43.0832 68.6957C43.0672 68.9038 42.9712 69.144 42.8751 69.4001C42.3949 70.5047 41.8666 71.6093 41.3063 72.6819C41.2903 72.6979 41.2582 72.7139 41.2102 72.6819C40.6659 71.6253 40.1536 70.5527 39.6734 69.4641C39.5453 69.224 39.4653 68.9519 39.4172 68.6797C38.5688 68.6797 37.3521 68.6477 36.4716 68.6477C36.4396 68.6797 36.3916 69.112 36.4236 69.192C36.7918 69.256 37.128 69.3201 37.3201 69.4001C37.5442 69.4962 37.6242 69.7203 37.6082 69.9124C37.5762 70.7288 37.3361 73.3383 37.24 74.2028C37.192 74.619 37.0639 74.7951 36.7438 74.8911C36.6317 74.9231 36.4236 74.9552 36.2475 74.9872C36.1354 75.0032 36.0234 75.0032 35.9113 74.9872C35.5911 74.9391 35.399 74.9071 35.2549 74.8431C35.0468 74.747 35.0148 74.5229 34.9988 74.3308C34.9828 73.8185 34.9828 72.906 34.9828 72.1536C34.9828 71.2251 34.9668 70.6648 34.9988 69.9444C35.0148 69.5762 35.0468 69.4321 35.2549 69.3521C35.383 69.2881 35.6392 69.24 35.8793 69.224C35.9593 69.144 35.9593 68.7598 35.8793 68.6797C35.4631 68.6797 35.1269 68.7117 34.1343 68.7117C33.2058 68.7117 32.9177 68.6797 32.3414 68.6797C32.2613 68.7438 32.2453 69.16 32.3253 69.224C32.6935 69.272 32.9017 69.2881 33.0617 69.3681C33.2218 69.4321 33.2539 69.6242 33.2699 69.7683C33.2859 70.4087 33.2859 71.001 33.2859 71.5453C33.2859 71.5613 33.2378 71.5933 33.2058 71.6093C33.0938 71.6253 32.8056 71.6253 31.9892 71.6253C30.8846 71.6253 30.7085 71.6253 30.6124 71.6093C30.5964 71.5773 30.5804 71.5773 30.5484 71.5133C30.5484 70.8889 30.5484 70.3126 30.5644 69.8484C30.5644 69.5762 30.5964 69.4161 30.8205 69.3201C30.9326 69.272 31.1887 69.224 31.4128 69.208C31.4769 69.144 31.4769 68.7277 31.4289 68.6637C31.1727 68.6637 30.5964 68.6957 29.6359 68.6957C28.5633 68.6957 28.1951 68.6637 27.9069 68.6637C27.8429 68.7117 27.8269 69.16 27.8749 69.208C28.083 69.224 28.3071 69.256 28.5313 69.3361C28.7714 69.4001 28.8034 69.5442 28.8194 69.8964C28.8354 70.2326 28.8354 70.8889 28.8354 71.9935C28.8354 73.0021 28.8354 74.0587 28.8194 74.2188C28.8034 74.619 28.7234 74.8111 28.4192 74.8751C28.2591 74.9231 28.115 74.9552 27.8589 75.0032C27.7789 75.0832 27.8109 75.4834 27.8589 75.5475C28.051 75.5475 28.6273 75.5155 29.5718 75.5155C30.7885 75.5155 31.3328 75.5475 31.5249 75.5475C31.5889 75.4995 31.653 75.0992 31.5729 75.0032C31.3168 74.9552 31.0126 74.9071 30.8525 74.8431C30.5964 74.747 30.5644 74.5549 30.5644 74.2828C30.5484 73.8826 30.5484 73.2902 30.5484 72.5699C30.5484 72.5538 30.5644 72.5218 30.5644 72.5058C30.6124 72.4898 30.7245 72.4738 31.9411 72.4738C32.4534 72.4738 33.0137 72.4738 33.2378 72.4898C33.2699 72.4898 33.3019 72.5378 33.3019 72.5538C33.3019 73.2902 33.3179 73.8826 33.2859 74.4269C33.2699 74.683 33.1898 74.8271 33.0297 74.8911C32.8216 74.9552 32.5975 74.9872 32.3894 75.0192C32.3093 75.1152 32.3253 75.4835 32.4054 75.5635C32.6295 75.5635 33.2378 75.5315 34.1984 75.5315C35.2069 75.5315 35.7672 75.5635 36.0394 75.5635H36.1354C36.5677 75.5635 37.0799 75.5315 37.5442 75.5315C38.4887 75.5315 39.065 75.5635 39.3372 75.5635C39.4012 75.4995 39.4332 75.0832 39.3692 75.0192C39.0971 74.9872 38.8409 74.9391 38.5848 74.8591C38.2166 74.747 38.1846 74.587 38.1846 74.2508C38.1846 73.4663 38.2486 71.8815 38.3286 70.7128C38.3446 70.6968 38.3927 70.6808 38.4087 70.6968C39.1291 72.2977 40.0576 74.4749 40.3617 75.4194C40.4098 75.4354 40.9221 75.4514 40.9541 75.4194C41.2903 74.5549 42.571 71.7694 43.0672 70.6328C43.0832 70.6168 43.1153 70.6168 43.1313 70.6328C43.1153 71.9615 43.1313 73.3863 43.1153 74.2988C43.0992 74.731 43.0512 74.8111 42.8591 74.8911C42.699 74.9392 42.4909 74.9712 42.2188 75.0192C42.1707 75.0992 42.1707 75.4835 42.2188 75.5635C42.8431 75.5635 43.3074 75.5315 43.9477 75.5315C45.0523 75.5315 45.6126 75.5635 46.0128 75.5635C46.0929 75.4995 46.1089 75.1152 46.0609 75.0192C45.7887 74.9712 45.5486 74.9231 45.2924 74.8591Z" fill="black"/>
<path d="M50.8155 74.7471C50.5913 74.9392 50.3032 75.0513 49.999 75.0513C49.5348 75.0513 49.2146 74.8912 48.8944 74.651C48.126 73.9947 47.8378 72.746 47.8378 71.7855C47.8378 70.7449 48.0299 69.8004 48.6703 69.3841C48.8784 69.2241 49.1826 69.16 49.4707 69.16C49.903 69.16 50.1911 69.2881 50.4953 69.5442C51.1677 70.1205 51.4718 71.2412 51.4718 72.4258C51.4878 73.3703 51.3277 74.2668 50.8155 74.7471ZM49.8229 68.5037C48.7663 68.5037 47.9019 68.8238 47.2455 69.2721C46.1889 70.0245 45.8848 71.1771 45.8848 72.1216C45.8848 72.9861 46.1249 73.9787 46.8453 74.7151C47.4696 75.3394 48.3021 75.7396 49.6788 75.7396C50.8155 75.7396 51.9521 75.3074 52.7525 74.3148C53.2328 73.6905 53.4569 72.858 53.4569 72.0256C53.4409 70.1366 52.1922 68.5037 49.8229 68.5037Z" fill="black"/>
<path d="M66.6002 74.2988C66.232 74.763 65.8478 74.9551 65.3195 74.9551C65.1114 74.9551 64.6471 74.8751 64.439 74.683C64.343 74.5869 64.2629 74.4589 64.2469 74.3148C64.2149 73.9946 64.2149 73.2262 64.2149 72.1536C64.2149 71.145 64.2149 69.8323 64.2309 69.4481C64.2309 69.4321 64.2789 69.336 64.327 69.32C64.439 69.288 64.5511 69.272 64.6631 69.272C65.1274 69.272 65.7037 69.3681 66.1199 69.6722C66.8563 70.1845 67.2405 71.129 67.2405 72.1056C67.2245 73.2102 66.9684 73.8185 66.6002 74.2988ZM67.8809 69.3841C67.2566 68.8878 66.4721 68.6797 65.4316 68.6797C64.5191 68.6797 64.2949 68.7117 63.3184 68.7117C62.9982 68.7117 61.8136 68.6797 61.5574 68.6797C61.2853 68.6797 60.9011 68.7117 60.0846 68.7117C59.2202 68.7117 58.7079 68.6797 58.4677 68.6797C58.4357 68.7117 58.4197 69.176 58.4677 69.224C58.7239 69.256 58.948 69.288 59.2041 69.3521C59.5884 69.4321 59.7004 69.6242 59.7324 70.0084C59.7805 70.8729 59.7805 71.7534 59.7965 73.1942C59.7805 73.1942 59.7484 73.2102 59.7324 73.2102C59.028 72.4418 57.5392 70.5527 56.5787 69.3841C56.3386 69.0959 56.2105 68.9038 56.1305 68.7117C55.9063 68.7277 55.4741 68.7277 55.1059 68.7277C54.2254 68.7277 53.7772 68.6957 53.393 68.6957C53.3609 68.7437 53.3449 69.208 53.393 69.256C53.7291 69.288 53.9693 69.3681 54.1774 69.4481C54.4655 69.5442 54.5616 69.8803 54.5616 70.1365C54.5616 71.3211 54.5296 73.5944 54.4655 74.2187C54.4495 74.5229 54.3375 74.763 54.0813 74.8751C53.8252 74.9711 53.6331 75.0031 53.3609 75.0352C53.3289 75.0832 53.2969 75.4994 53.3609 75.5795C53.8412 75.5795 54.4976 75.5474 54.9778 75.5474C55.5061 75.5474 56.0344 75.5795 56.5467 75.5795C56.6107 75.4834 56.6267 75.0992 56.5627 75.0352C56.2425 74.9711 56.0344 74.9391 55.8423 74.9071C55.5381 74.8271 55.346 74.651 55.33 74.1387C55.298 72.97 55.282 71.7854 55.298 70.6007C55.298 70.5847 55.33 70.5367 55.362 70.5847C56.3706 71.8174 58.4357 74.5389 59.2842 75.6435C59.4443 75.6115 60.3568 75.5955 60.5329 75.6275C60.5169 75.0992 60.5169 74.5709 60.5169 74.0266C60.5009 72.5378 60.5329 70.9209 60.6129 70.0404C60.6609 69.4801 60.837 69.4161 61.1412 69.336C61.2052 69.32 61.2853 69.304 61.3333 69.288C61.4294 69.272 61.6855 69.272 61.7976 69.288C61.9096 69.32 62.0537 69.336 62.1177 69.3521C62.4219 69.4481 62.4379 69.5762 62.4859 69.8964C62.502 70.4246 62.5019 70.9529 62.5019 72.1856C62.5019 73.0821 62.4859 74.1867 62.4859 74.3948C62.4699 74.699 62.3259 74.8751 62.0537 74.9231C61.8136 74.9711 61.6855 75.0031 61.3813 75.0352C61.3173 75.0512 61.3173 75.4674 61.3813 75.5795H61.9096C62.9342 75.5955 63.9748 75.6275 64.5991 75.6275C65.7837 75.6275 66.8884 75.4514 67.8169 74.715C68.5212 74.1707 69.0816 73.2902 69.0816 71.9455C69.0655 70.8729 68.6173 69.9604 67.8809 69.3841Z" fill="black"/>
<path d="M50.3351 7.2862C50.3191 7.25419 50.3191 7.22217 50.3031 7.19015C50.2551 7.19015 50.2071 7.19015 50.159 7.19015C50.2551 7.65441 49.9669 8.10265 49.5187 8.23072C49.0384 8.3748 48.5261 8.11866 48.3821 7.6544V7.6384C48.286 7.73445 48.206 7.8305 48.1419 7.94256C48.3501 8.53489 49.0064 8.85506 49.5987 8.63094C50.143 8.43884 50.4632 7.86252 50.3351 7.2862ZM38.7608 7.59037C38.6487 8.18269 38.0564 8.58291 37.4321 8.47085C36.8077 8.35879 36.3755 7.78248 36.4876 7.19015C36.4876 7.15813 36.5036 7.14212 36.5036 7.11011C36.3595 7.11011 36.2154 7.12612 36.1033 7.14212C35.8472 7.89454 36.2314 8.71098 36.9838 8.98313C37.0639 9.01515 37.1439 9.03116 37.224 9.04717C38.0084 9.19125 38.7608 8.66296 38.8889 7.87853C38.9049 7.8305 38.9049 7.76647 38.9049 7.71844C38.8568 7.6544 38.8088 7.62239 38.7608 7.59037Z" fill="#7E5300"/>
</svg>
