<svg width="80" height="80" viewBox="0 0 80 80" fill="none" xmlns="http://www.w3.org/2000/svg">
<g clip-path="url(#clip0_413_1057)">
<path d="M73.0782 45.8003L72.4138 35.6448C72.4138 35.6448 67.8739 51.4633 55.7095 63.4062C55.6937 63.4062 60.1545 70.6353 60.1545 70.6353C60.7398 70.0658 72.8884 61.0176 80.2915 39.7576C80.3389 39.6469 73.0782 45.8003 73.0782 45.8003Z" fill="black"/>
<path d="M72.3499 36.1986L72.9826 46.006L73.1408 45.8637C74.8492 44.44 78.962 40.9599 80.0693 40.0583C73.821 57.7275 64.2192 67.1079 60.3595 70.3191L60.1855 70.4614C59.8375 69.9078 56.1043 63.8651 55.8354 63.4064C66.6394 52.7763 71.4641 38.9826 72.3499 36.1986ZM55.6456 63.3273C55.5665 63.4697 60.0431 70.6671 60.1064 70.7145L60.1697 70.762L60.5018 70.4772C64.409 67.2345 74.1532 57.7275 80.4173 39.7735L80.449 39.6945L80.3857 39.647C80.3699 39.6312 80.3382 39.6312 80.2275 39.6945C79.8795 39.9159 78.5824 40.9916 73.1883 45.5789L72.5397 35.6291L72.3341 35.6133C72.2708 35.7715 67.636 51.5425 55.6456 63.3273Z" fill="white"/>
<path d="M63.6817 63.4539L66.9878 69.544L60.2175 70.3033L55.9307 63.5171L63.6817 63.4539Z" fill="white"/>
<path d="M63.6345 63.5329L66.8615 69.4648C66.6242 69.4965 60.2019 70.2083 60.2019 70.2083C60.2019 70.1292 56.4846 64.2289 56.0733 63.5803C56.358 63.5803 63.5396 63.5329 63.6345 63.5329ZM63.682 63.3747L55.7886 63.4222L60.1387 70.3348C60.2178 70.3665 66.9881 69.6072 66.9881 69.6072L67.1146 69.5914L63.7295 63.3589L63.682 63.3747Z" fill="white"/>
<path d="M6.33993 45.8003L7.00431 35.6448C7.00431 35.6448 11.7499 51.4791 23.9143 63.4221C23.8826 63.4221 18.8998 69.4014 18.8998 70.224C18.8998 71.0466 6.52975 61.0176 -0.873304 39.7418C-0.920759 39.6469 6.33993 45.8003 6.33993 45.8003Z" fill="#E00034"/>
<path d="M6.45051 45.8004L7.08325 36.1827C8.00072 38.9193 12.9677 52.7605 23.7718 63.4222C23.3763 63.8809 18.7889 69.3699 18.7889 70.2241C17.8873 70.1925 6.33978 59.8789 -0.651994 40.0425C0.439483 40.9283 4.56811 44.4242 6.27651 45.8795L6.43469 46.006L6.45051 45.8004ZM6.90925 35.6291L6.26069 45.5789C0.850764 41.0074 -0.430534 39.9317 -0.778541 39.6945C-0.88927 39.6312 -0.920907 39.6312 -0.936726 39.647L-1 39.6945L-0.968363 39.7735C6.21323 60.4167 18.0455 70.5089 18.868 70.3665L18.9471 70.3507L18.9788 70.2241C18.9788 69.5123 23.661 63.786 23.9616 63.5013L24.0407 63.4222L23.9616 63.3431C11.987 51.5583 7.16234 35.7715 7.11489 35.6133L6.90925 35.6291Z" fill="white"/>
<path d="M15.7837 63.533H23.8669V63.3274H15.7837V63.533Z" fill="white"/>
<path fill-rule="evenodd" clip-rule="evenodd" d="M70.0818 0H9.36719L9.15679 0.739486C9.15695 0.739098 9.1637 0.741461 10.1356 1.018L9.15679 0.739495L9.15627 0.741321L9.15549 0.744087L9.15315 0.75243L9.14548 0.780299C9.13907 0.803825 9.13012 0.837215 9.11892 0.880276C9.09651 0.966397 9.06511 1.09122 9.02708 1.25321C8.95103 1.57718 8.84842 2.04995 8.73819 2.65926C8.51777 3.87773 8.26669 5.64333 8.13683 7.85785C7.89255 12.0233 8.07687 17.7819 9.70383 24.4758H8.0965L8.08081 24.4915L7.088 24.4913L7.07227 24.4918L7.65165 26.1094C7.93551 26.924 8.80217 29.3547 9.59634 31.5775C9.99458 32.6921 10.3753 33.7564 10.6564 34.542L11.119 35.8342L11.3607 36.5092L11.3744 36.5092L13.984 36.5099C18.4915 46.0369 26.199 56.4324 39.1111 66.3799L39.7327 66.8588L40.3542 66.3796C53.251 56.4346 60.953 46.0457 65.4596 36.5247L67.5001 36.5253L67.7984 36.227C67.8757 36.1403 67.964 36.0094 67.984 35.9725C67.9936 35.9534 68.0081 35.9224 68.0133 35.9104C68.0187 35.8979 68.0232 35.8869 68.0264 35.8787C68.0287 35.873 68.0303 35.8688 68.0312 35.8665C68.0365 35.8524 68.0407 35.8404 68.0425 35.8354C68.0467 35.8233 68.0511 35.8103 68.0547 35.7994C68.0624 35.7764 68.0727 35.745 68.0849 35.7075C68.1096 35.6317 68.1449 35.5223 68.189 35.385C68.2773 35.11 68.4024 34.7187 68.5519 34.2503C68.8509 33.3133 69.2479 32.0657 69.6444 30.8189C70.0409 29.5721 70.4369 28.3258 70.7338 27.3912L71.2282 25.8341L71.2761 25.6833V24.4917H71.2603V24.4758H69.7461C71.373 17.7812 71.5572 12.0225 71.3127 7.85718C71.1827 5.64275 70.9315 3.8773 70.711 2.65894C70.6007 2.04969 70.4981 1.57697 70.422 1.25304C70.3839 1.09107 70.3525 0.966259 70.3301 0.880147C70.3189 0.83709 70.31 0.803704 70.3036 0.780179L70.2959 0.752311L70.2935 0.743968L70.2922 0.739376L70.0818 0ZM10.136 1.01812L10.1362 1.01812C10.1362 1.01812 7.22274 11.2577 11.0138 25.494L11.0137 25.494C10.9227 25.1523 10.8355 24.8129 10.7521 24.4758C7.36078 10.7721 10.136 1.01812 10.136 1.01812ZM8.51856 25.4948H8.51842C8.51869 25.4965 8.51998 25.5011 8.52227 25.5085L8.5227 25.5099L8.52259 25.5099H8.52284C8.52029 25.5017 8.51884 25.4966 8.51856 25.4948ZM8.51856 25.51L8.51842 25.51L8.53427 25.5543L8.61164 25.7703C8.67297 25.9463 8.76227 26.1999 8.87271 26.5121L8.87833 26.528C9.78257 29.0835 12.0776 35.4913 12.0776 35.4913L12.0777 35.4913C12.0777 35.4913 9.1731 27.3814 8.61178 25.7703L8.51856 25.51ZM12.0783 35.4913L12.0933 35.4913L12.0935 35.4913L12.0935 35.4913L12.0783 35.4913ZM12.1234 35.4913L14.4049 35.4919L12.3885 35.4913H12.1234ZM14.6323 35.492C19.0263 45.0224 26.6762 55.5148 39.7324 65.5734C39.7325 65.5734 39.7325 65.5734 39.7325 65.5733C26.6763 55.5148 19.0264 45.0224 14.6324 35.492L14.6323 35.492ZM8.53441 25.5099L8.53438 25.5098L8.88279 25.5099H8.53441Z" fill="white"/>
<path d="M16.0527 63.5171L12.3828 69.5439L19.5701 69.7812L23.6772 63.5329L16.0527 63.5171Z" fill="white"/>
<path d="M39.7167 71.4896C39.7167 71.4105 28.1692 72.502 15.8308 63.5171L11.2593 69.8919C11.2593 69.8919 20.9402 79.8892 39.7167 79.8892C58.4933 79.8892 68.1742 69.8919 68.1742 69.8919L63.6027 63.5171C51.2642 72.502 39.7167 71.3947 39.7167 71.4896Z" fill="white"/>
<path d="M15.8625 63.6595C26.0338 71.0309 35.7464 71.6636 39.4637 71.5845H39.9699C43.6873 71.6636 53.4157 71.0151 63.5711 63.6595L68.0319 69.892C67.3834 70.5247 57.6866 79.7944 39.701 79.7944C21.7154 79.7944 12.0186 70.5247 11.3701 69.892C11.4017 69.892 15.8625 63.6595 15.8625 63.6595ZM63.5395 63.438C53.384 70.8253 43.6715 71.458 39.9699 71.3947L39.7168 71.4105C39.6377 71.4105 39.5428 71.3947 39.4637 71.3947C35.7622 71.4738 26.0338 70.8411 15.8942 63.438L15.8151 63.3748L11.1328 69.9078L11.1961 69.9711C11.291 70.066 21.1143 80 39.7327 80C58.351 80 68.1743 70.066 68.2692 69.9711L68.3325 69.9078L63.6502 63.3748L63.5395 63.438Z" fill="white"/>
<path d="M51.5171 76.0929C52.5927 75.7607 52.4662 74.6851 52.2131 73.7043C51.9441 72.7077 51.4696 71.7586 50.2199 72.1383L49.1285 72.4705L50.3465 76.4409L51.5171 76.0929ZM41.5198 75.3652C41.5672 76.52 41.757 77.6273 42.9751 77.5798C44.1931 77.5324 44.3038 76.4251 44.2564 75.2703C44.2247 74.3212 44.0349 73.1981 42.8327 73.2456C41.583 73.293 41.4723 74.4161 41.5198 75.3652ZM37.312 76.9946C37.6126 76.6465 37.6759 75.6342 37.6917 75.3336C37.7233 74.3845 37.6126 73.2614 36.3787 73.2139C35.1607 73.1665 34.9867 74.2896 34.9551 75.2387C34.9234 76.3935 35.0342 77.5166 36.2364 77.5482C36.5369 77.564 36.9008 77.4533 37.0748 77.2793L37.5335 77.6747L37.7708 77.39L37.312 76.9946Z" fill="black"/>
<path d="M10.1362 1.01807C10.1362 1.01807 0.392039 35.2651 39.7326 65.5733C79.0574 35.2493 69.3132 1.01807 69.3132 1.01807H10.1362Z" fill="white"/>
<path d="M69.2342 1.11311C69.3449 1.52439 70.2308 5.06773 70.2308 10.6991C70.2308 23.0375 65.944 45.1993 39.7327 65.4469C13.5215 45.2151 9.23467 23.0375 9.23467 10.7149C9.23467 5.08355 10.1205 1.55603 10.2312 1.12893L69.2342 1.11311ZM69.3133 0.907471H10.0572L10.0414 0.986563C9.9465 1.33457 0.724318 35.6449 39.6695 65.6526L39.7327 65.7L39.796 65.6526C78.7253 35.6449 69.519 1.31875 69.4082 0.986563L69.3924 0.907471H69.3133Z" fill="white"/>
<path d="M39.717 65.4313C15.8469 47.0028 9.9624 27.1822 9.25056 13.7839L9.04492 13.7998C9.77257 27.2455 15.6729 47.161 39.6695 65.6528L39.7328 65.7002L39.7961 65.6528C63.7769 47.1768 69.693 27.2613 70.4365 13.7998L70.2309 13.7839C69.4716 27.1822 63.5713 47.0186 39.717 65.4313Z" fill="black"/>
<path d="M34.5601 13.7839H44.9054V61.3185L39.7169 65.5737L34.5601 61.3343V13.7839Z" fill="black"/>
<path d="M44.9051 13.7998L44.8892 61.3185C43.165 62.7264 41.425 64.15 39.7008 65.5579C39.7008 65.5421 34.5598 61.3185 34.5598 61.3185V13.7998C34.5756 13.7998 44.9051 13.7998 44.9051 13.7998ZM34.5439 13.7839V61.3343C34.5439 61.3502 39.7166 65.5895 39.7166 65.5895C39.7324 65.5895 44.9209 61.3343 44.9209 61.3343V13.7998L34.5439 13.7839Z" fill="black"/>
<path d="M70.3099 13.7838C70.737 5.96945 69.3133 1.00244 69.3133 1.00244H10.1363C10.1363 1.00244 8.72846 5.96945 9.13974 13.7838H70.3099Z" fill="#E00034"/>
<path d="M69.2341 1.11311C69.3448 1.50857 70.2781 5.16265 70.2781 10.9206C70.2781 11.7906 70.2465 12.7239 70.199 13.673H9.23454C9.18708 12.7555 9.15544 11.8381 9.15544 10.9048C9.15544 5.14683 10.0887 1.49275 10.1995 1.09729H69.2341V1.11311ZM10.1362 0.907471H10.0571L10.0413 0.986563C10.0255 1.03402 8.63343 6.04848 9.04472 13.7995V13.8945H70.4047V13.7995C70.8159 6.04848 69.4239 1.03402 69.4081 0.986563L69.3923 0.907471H10.1362ZM18.1878 69.6863C17.6816 70.7145 17.302 71.7743 18.3776 72.328C19.4533 72.8816 20.1018 71.9483 20.6239 70.936C21.0668 70.0818 21.4464 69.0219 20.3549 68.4683C19.2635 67.9146 18.6307 68.8321 18.1878 69.6863Z" fill="black"/>
<path d="M23.9458 5.00449H25.0848V3.40683H21.0194V5.02031H22.1109V8.40547H23.9458V5.00449ZM41.188 9.3704C40.492 9.3704 39.9225 9.92405 39.9225 10.6201C39.9225 11.3161 40.492 11.9014 41.188 11.9014C41.884 11.9014 42.4535 11.3161 42.4535 10.6201C42.4535 9.92405 41.884 9.3704 41.188 9.3704ZM20.1178 3.84974C19.5008 3.26446 18.2512 2.90063 17.3653 2.90063C15.6569 2.90063 14.4231 4.03957 14.4231 5.46323C14.4231 6.79198 15.3722 7.34563 16.6693 7.80437C17.4603 8.07328 18.4252 8.31056 18.4252 9.1964C18.4252 9.86077 17.9348 10.4302 17.1281 10.4302C16.2897 10.4302 15.5779 9.84495 15.3089 9.18058L14.0435 10.2404C14.7395 11.2212 15.7519 11.9014 17.1439 11.9014C19.2003 11.9014 20.4658 10.6833 20.4658 8.97494C20.4658 6.11179 16.4637 6.71289 16.4637 5.27341C16.4637 4.71976 17.0648 4.30848 17.6975 4.30848C18.3619 4.30848 18.8365 4.57739 19.2161 5.00449C19.2003 5.00449 20.1178 3.84974 20.1178 3.84974ZM33.5477 7.02926L33.516 3.48592H31.6178V11.9014H33.516V8.12074L36.6639 11.9014H39.1L35.1928 7.37727L38.8943 3.4701H36.5532L33.5477 7.02926ZM23.0442 9.3704C22.3482 9.3704 21.7787 9.92405 21.7787 10.6201C21.7787 11.3161 22.3482 11.9014 23.0442 11.9014C23.7402 11.9014 24.3097 11.3319 24.3097 10.6201C24.3097 9.92405 23.7402 9.3704 23.0442 9.3704ZM51.9129 9.3704C51.2169 9.3704 50.6475 9.92405 50.6475 10.6201C50.6475 11.3161 51.2169 11.9014 51.9129 11.9014C52.6089 11.9014 53.1784 11.3161 53.1784 10.6201C53.1784 9.92405 52.6089 9.3704 51.9129 9.3704ZM66.4501 9.3704C65.7541 9.3704 65.1847 9.92405 65.1847 10.6201C65.1847 11.3161 65.7541 11.9014 66.4501 11.9014C67.1461 11.9014 67.7156 11.3161 67.7156 10.6201C67.6998 9.92405 67.1461 9.3704 66.4501 9.3704ZM63.8243 3.69156C63.1915 3.37519 62.4955 3.217 61.7837 3.217C59.1104 3.217 57.2754 5.28923 57.2754 7.61455C57.2754 9.89241 59.1736 11.8855 61.752 11.8855C62.4955 11.8855 63.1599 11.6799 63.8243 11.3952V9.48113C63.3339 10.0031 62.5588 10.3511 61.7995 10.3511C60.1386 10.3511 59.1262 8.95912 59.1262 7.58291C59.1262 6.15924 60.1069 4.73558 61.8153 4.73558C62.5746 4.73558 63.3339 5.06777 63.8243 5.6056C63.8243 5.62142 63.8243 3.69156 63.8243 3.69156ZM50.9638 4.86213V3.42264H46.0601V11.9014H47.99V8.16819H50.7898V6.72871H47.99V4.86213H50.9638Z" fill="white"/>
<path d="M15.6255 70.5564L16.7012 68.9113L17.8718 69.6706L18.0932 69.3226L16.9385 68.5633L17.6819 67.4243L18.9316 68.2311L19.1531 67.8831L17.5238 66.8232L15.2617 70.3191L15.6255 70.5564Z" fill="black"/>
<path d="M20.197 70.7303C19.6433 71.806 19.2478 72.3122 18.5676 71.9642C17.8875 71.6162 18.0615 70.9992 18.6151 69.9236C19.0264 69.101 19.5326 68.5157 20.1495 68.8321C20.8139 69.1643 20.6241 69.9078 20.197 70.7303Z" fill="white"/>
<path d="M21.4148 71.7742L22.1583 72.0748C22.6645 72.2804 22.6803 72.6759 22.5221 73.0555C22.4114 73.3086 22.269 73.799 22.2532 74.0837L22.7594 74.2894L22.791 74.1945C22.6803 74.147 22.7277 73.973 22.7436 73.8939C22.8227 73.5934 22.9017 73.2928 23.0125 73.0081C23.1548 72.4703 23.0916 72.2646 22.617 72.0115V71.9957C23.0916 72.1223 23.5029 71.9008 23.6927 71.4579C24.0723 70.572 23.6452 70.1608 22.8385 69.8286L21.8419 69.4331L20.2759 73.2928L20.703 73.4668L21.4148 71.7742Z" fill="black"/>
<path d="M22.1266 70.0029L22.7277 70.2402C23.0124 70.3509 23.5344 70.5882 23.2655 71.2526C23.0124 71.9328 22.443 71.743 22.2373 71.6639L21.5571 71.395C21.5729 71.395 22.1266 70.0029 22.1266 70.0029Z" fill="white"/>
<path d="M24.3571 70.9043L25.3536 71.2997L23.9458 74.764L24.3729 74.938L25.7807 71.4737L26.7773 71.8692L26.9355 71.4895L24.5153 70.5088L24.3571 70.9043ZM26.4135 75.634L27.6948 71.6794L27.2519 71.537L25.9706 75.4916L26.4135 75.634ZM27.5366 74.9854C27.3784 75.7131 27.7897 76.1718 28.5332 76.33C29.2766 76.4882 29.8303 76.2351 29.9885 75.5074L30.6528 72.4228L30.1941 72.3279L29.5772 75.2543C29.5139 75.5707 29.3557 76.0769 28.6281 75.9187C27.9004 75.7605 27.9637 75.2385 28.0428 74.9222L28.6597 71.9957L28.201 71.9008L27.5366 74.9854ZM33.4369 74.1312C33.6425 73.3719 33.2629 72.8974 32.5194 72.7392C31.855 72.5968 31.2856 72.9448 31.1432 73.6092C31.0641 74.0047 31.0799 74.3527 31.4279 74.6374C31.6178 74.7956 31.95 74.9854 32.1556 75.1278C32.5352 75.3651 32.7883 75.4283 32.646 76.0453C32.5511 76.5198 32.1714 76.6938 31.7127 76.5989C31.0325 76.4565 31.0008 76.0453 31.159 75.46L30.7161 75.3651C30.6687 75.5865 30.6054 75.9029 30.6528 76.1244C30.7794 76.7096 31.2223 76.9153 31.6336 77.0102C32.4087 77.1842 32.994 76.8362 33.1522 76.0611C33.2629 75.5233 33.1838 75.2227 32.472 74.764L31.8867 74.3843C31.6494 74.2261 31.5545 74.0363 31.6178 73.7516C31.681 73.4352 31.8392 73.0398 32.5036 73.1821C32.9623 73.277 33.1205 73.6409 32.994 74.068C32.9782 74.0363 33.4369 74.1312 33.4369 74.1312Z" fill="black"/>
<path d="M36.743 76.9945C36.6006 77.0895 36.4108 77.1369 36.2368 77.1369C35.5249 77.1369 35.3826 76.3618 35.4142 75.4443C35.4617 74.2421 35.604 73.6094 36.3791 73.641C37.1384 73.6727 37.2492 74.3054 37.2175 75.5076C37.2017 75.9505 37.091 76.5358 36.9802 76.694L36.6006 76.3776L36.3475 76.6782C36.3475 76.6624 36.743 76.9945 36.743 76.9945Z" fill="white"/>
<path d="M38.3877 76.5514C38.356 77.2949 38.8464 77.6745 39.5899 77.6903C40.3492 77.722 40.8554 77.374 40.8712 76.6305L40.9819 73.4826L40.5232 73.4668L40.4124 76.4565C40.4124 76.7887 40.3334 77.3107 39.5899 77.279C38.8464 77.2474 38.8148 76.7254 38.8306 76.3932L38.9413 73.4035L38.4826 73.3877L38.3877 76.5514Z" fill="black"/>
<path d="M43.7665 75.3019C43.7981 76.5041 43.7032 77.1527 42.9439 77.1685C42.1846 77.2002 42.0422 76.5674 41.9948 75.3652C41.9631 74.4477 42.1055 73.6884 42.8173 73.6726C43.545 73.641 43.7506 74.3686 43.7665 75.3019Z" fill="white"/>
<path d="M46.8351 77.0579L46.5979 75.1122L47.9741 74.9382L47.9266 74.527L46.5504 74.701L46.3922 73.3406L47.8792 73.1508L47.8317 72.7395L45.9019 72.9768L46.408 77.1054L46.8351 77.0579ZM49.3661 76.5675L48.4961 72.5022L48.0532 72.5971L48.9232 76.6625L49.3661 76.5675Z" fill="black"/>
<path d="M49.6982 72.7234L50.4101 72.502C51.1219 72.2805 51.4383 72.85 51.7388 73.7516C52.1501 74.9222 52.0236 75.4916 51.375 75.6815L50.6632 75.9029L49.6982 72.7234Z" fill="white"/>
<path d="M55.5353 74.8905L55.4087 74.495L53.8427 74.9696L53.3998 73.4984L54.8551 73.0555L54.7285 72.6601L53.2732 73.103L52.8778 71.79L54.428 71.3155L54.3014 70.92L52.3083 71.5211L53.5263 75.4916L55.5353 74.8905ZM58.1769 73.7832L58.0188 73.4035L56.4527 74.0363L55.0449 70.572L54.6178 70.746L56.1838 74.6057L58.1769 73.7832ZM59.221 73.3244L57.3386 69.6229L56.9273 69.8285L58.8097 73.5301L59.221 73.3244ZM59.6322 71.9957C59.9644 72.6601 60.5814 72.755 61.2457 72.407C61.9101 72.059 62.1948 71.5211 61.8627 70.8568L60.4232 68.0411L60.0119 68.2467L61.3723 70.9042C61.5305 71.1889 61.7203 71.6951 61.0559 72.0273C60.3915 72.3595 60.1068 71.9166 59.9644 71.6319L58.604 68.9744L58.1928 69.18C58.2086 69.18 59.6322 71.9957 59.6322 71.9957ZM63.318 67.519C62.9383 66.8389 62.3372 66.7439 61.6887 67.1394C61.1192 67.5032 60.9452 68.136 61.309 68.7213C61.5305 69.0693 61.7836 69.3065 62.2265 69.2591C62.4796 69.2433 62.8434 69.1484 63.0965 69.1009C63.5394 69.0218 63.7609 68.8794 64.0931 69.4173C64.3462 69.8285 64.2038 70.2082 63.8083 70.4455C63.223 70.8093 62.9225 70.5404 62.6061 70.0184L62.2107 70.2556C62.3372 70.4455 62.5112 70.7302 62.6852 70.8568C63.1756 71.1889 63.6501 71.0308 63.9981 70.8093C64.6783 70.3822 64.8523 69.7336 64.4253 69.0693C64.1405 68.6105 63.8716 68.4365 63.049 68.6105L62.353 68.7529C62.0683 68.8162 61.8785 68.7213 61.7203 68.484C61.5463 68.2151 61.3881 67.8196 61.9576 67.4558C62.353 67.2185 62.7169 67.3609 62.9225 67.7563L63.318 67.519ZM16.4478 66.2694L16.511 66.4434L17.7765 66.0163L17.7132 65.8423L16.4478 66.2694ZM61.6412 66.0321L62.9067 66.4592L62.9699 66.2852L61.7045 65.8581L61.6412 66.0321Z" fill="black"/>
<path d="M70.2423 25.5098L67.0786 35.4912H12.0935L8.51855 25.5098H70.2423Z" fill="black"/>
<path d="M12.0936 35.4754C12.1094 35.4912 8.53443 25.5097 8.53443 25.5097L70.2266 25.5255L67.0629 35.4912L12.0936 35.4754ZM70.2424 25.4939H8.51861C8.50279 25.5097 12.0778 35.4912 12.0778 35.4912L67.0787 35.507C67.0945 35.4912 70.2582 25.5255 70.2582 25.5255V25.5097H70.2424V25.4939Z" fill="black"/>
</g>
<defs>
<clipPath id="clip0_413_1057">
<rect width="80" height="80" fill="white"/>
</clipPath>
</defs>
</svg>
