<svg width="80" height="80" viewBox="0 0 80 80" fill="none" xmlns="http://www.w3.org/2000/svg">
<path d="M28.924 36.2257C28.1434 35.8776 27.3733 35.4768 26.6455 35.0232C25.8016 34.5063 25.0105 33.9156 24.2721 33.2511C23.5442 32.597 22.9008 31.8692 22.3523 31.0675C21.7615 30.2025 21.3185 29.2321 21.0653 28.2194C20.8333 27.2595 20.7805 26.2679 20.9282 25.2975C21.0864 24.2532 21.4345 23.2405 21.9725 22.3228C22.4366 21.5 23.0485 20.7194 23.7869 19.981C24.4725 19.2954 25.2636 18.6519 26.1497 18.0612C26.8565 17.597 27.6265 17.154 28.4387 16.7637C29.1771 16.4051 29.9683 16.0781 30.8016 15.7827C32.1624 15.2975 33.5653 14.9388 34.9788 14.6857C35.5696 14.5696 36.1919 14.4852 36.8354 14.4114C37.4894 14.3376 38.1434 14.2743 38.7552 14.2426C39.3565 14.211 39.9577 14.1899 40.5274 14.1899H40.5379C41.1603 14.1899 41.7932 14.211 42.4472 14.2532C43.0379 14.2848 43.6497 14.3376 44.2615 14.4114H44.2932C44.5674 14.443 44.8417 14.4852 45.116 14.5274C43.2383 14.1793 41.329 14 39.4092 14H39.3987C38.1645 14 36.9409 14.0738 35.7172 14.2215C34.3881 14.3692 33.0801 14.6224 31.7826 14.9494C31.0653 15.1392 30.3797 15.3502 29.7151 15.5823C28.8923 15.8671 28.1012 16.1941 27.3628 16.5527C26.5506 16.943 25.7805 17.3755 25.0843 17.8397C24.2404 18.3882 23.4493 19.0211 22.732 19.7384C22.0252 20.4241 21.424 21.2046 20.9282 22.0591L20.886 22.1224C20.3797 23.0084 20.0421 23.9895 19.8839 25.0021C19.7468 25.962 19.7995 26.9536 20.021 27.8924C20.2636 28.884 20.6961 29.8333 21.3079 30.7194C21.8248 31.4789 22.4683 32.2068 23.2172 32.8819C23.9134 33.5148 24.7046 34.0949 25.5801 34.6329C26.2869 35.0654 27.0463 35.4662 27.848 35.8249C28.5126 36.1308 29.2193 36.4051 29.9472 36.6477C29.6096 36.5316 29.2615 36.384 28.924 36.2257Z" fill="#007CBB"/>
<path d="M58.0486 26.3313C58.0486 31.7954 50.2111 36.2258 40.5381 36.2258C30.8756 36.2258 23.0381 31.7954 23.0381 26.3313C23.0381 20.8671 30.8756 16.4368 40.5381 16.4368C50.2111 16.4368 58.0486 20.8671 58.0486 26.3313Z" fill="#E13210"/>
<path d="M39.6943 24.1687V24.1898C39.3356 24.0632 38.9664 23.9683 38.5972 23.905C38.3019 23.8522 38.0171 23.8206 37.7217 23.7995C37.1943 23.7573 36.6774 23.7362 36.15 23.7362H33.0698C33.0065 23.7362 32.9432 23.7362 32.8799 23.7468C32.8166 23.7468 32.7533 23.7573 32.6901 23.7573C31.1922 23.7573 30.5171 24.2109 30.2323 25.4134C30.1795 25.6455 30.1373 25.9197 30.0951 26.2362L29.9685 27.3965C29.9263 27.829 29.9369 28.1666 29.9474 28.4303L29.958 28.5674C30.0107 30.0337 31.1394 30.0337 32.3314 30.0337H35.5487C35.8124 30.0337 36.0339 30.0231 36.2344 29.9915C37.1837 29.8333 37.8166 29.6539 38.0276 28.5674C38.0382 28.5358 38.0382 28.5041 38.0487 28.4725L38.1436 27.5126H32.3631L32.4474 26.4577H39.5255L39.3145 28.7889C39.2829 29.1054 39.2196 29.4219 39.1141 29.7278C38.9453 30.2235 38.7344 30.5611 38.4917 30.7193C38.2597 30.8565 38.0065 30.9514 37.7323 31.0041C37.3841 31.078 37.0255 31.1202 36.6668 31.1307C36.3504 31.1518 35.9706 31.1624 35.4432 31.1624H31.593H31.5086H31.4981C30.3905 31.1518 29.6521 31.0041 29.1879 30.6877C28.8398 30.4556 28.6078 29.9809 28.5339 29.348C28.5023 29.021 28.5023 28.6835 28.5445 28.3565L28.8504 25.5822L28.8609 25.5505V25.54C28.9348 24.886 29.0825 24.3797 29.3356 23.9683C29.6626 23.4408 30.0951 23.1033 30.6753 22.924C31.1816 22.7657 31.8356 22.6919 32.669 22.6919H36.9306C37.1521 22.6919 37.3631 22.7024 37.6268 22.7235C37.9221 22.7446 38.1858 22.7763 38.4074 22.829C38.6183 22.8712 38.8082 22.9345 38.977 23.0084C39.1458 23.0716 39.2934 23.1771 39.42 23.3143C39.5677 23.4514 39.6626 23.7678 39.6943 24.1687ZM58.8609 29.6539C58.4495 30.4873 57.8799 31.2995 57.1626 32.0695C56.477 32.7974 55.6753 33.4725 54.7787 34.0949C54.0086 34.6117 53.2069 35.0759 52.3736 35.4662C51.5614 35.8565 50.7175 36.2046 49.8631 36.4894C49.1668 36.732 48.4074 36.943 47.6373 37.1328C46.2449 37.4704 44.842 37.7024 43.4179 37.829C42.7428 37.8923 42.0571 37.9345 41.382 37.9451C40.7597 37.9662 40.1479 37.9662 39.5255 37.9451C37.5107 37.8818 35.5065 37.6075 33.5445 37.1434C32.8377 36.9746 32.1521 36.7847 31.4981 36.5632C31.1816 36.4577 30.8546 36.3417 30.5382 36.2151C29.304 35.7615 28.112 35.1814 26.9833 34.5062C26.1711 34.0105 25.401 33.4408 24.6943 32.7974C24.0086 32.1856 23.3968 31.4894 22.8799 30.7299C22.3209 29.9282 21.92 29.021 21.6774 28.0716C21.4559 27.1961 21.4137 26.2889 21.5508 25.3923C21.6985 24.443 22.0044 23.5358 22.4791 22.7024L22.4896 22.6919L22.5213 22.6392C22.996 21.8269 23.5656 21.0885 24.2301 20.4345C24.9263 19.7489 25.6858 19.137 26.4981 18.5991C27.2048 18.1349 27.9538 17.713 28.7133 17.3438C29.4306 16.9957 30.2006 16.6792 31.0234 16.3944C32.9327 15.7193 34.9158 15.2763 36.9306 15.0442C37.574 14.9704 38.2069 14.9176 38.8187 14.886C39.4095 14.8543 40.0002 14.8333 40.5593 14.8333H40.5698C41.7934 14.8333 43.0171 14.9071 44.2407 15.0548H44.2618C45.6436 15.213 47.0044 15.4767 48.3441 15.8459C49.1458 16.0674 49.9369 16.3206 50.6753 16.6054C51.4875 16.9113 52.2681 17.27 52.996 17.6392C53.9031 18.1138 54.747 18.6518 55.496 19.2214C56.3082 19.8438 57.0255 20.5189 57.6162 21.2257C58.0171 21.7109 58.3652 22.2067 58.6394 22.7024C58.8609 23.0822 59.0403 23.4936 59.1985 23.905C59.5044 24.7278 59.6626 25.5716 59.6626 26.405C59.6626 26.4577 59.6626 26.521 59.6521 26.5949V26.7109C59.5782 27.7235 59.3145 28.7257 58.8609 29.6539ZM58.6605 26.3311C58.6605 25.4556 58.4706 24.5695 58.1014 23.7151C57.6479 22.7235 57.0255 21.8164 56.2449 21.0569C55.5487 20.3712 54.7892 19.7594 53.9559 19.2425C53.1542 18.7362 52.3209 18.3037 51.4559 17.924C50.7386 17.6181 50.0107 17.3438 49.2723 17.1117C48.5867 16.8902 47.8694 16.7003 47.1521 16.5421C46.5614 16.405 45.9601 16.2889 45.3694 16.194C43.7766 15.9408 42.1626 15.8143 40.5487 15.8143H40.4854C39.4622 15.8143 38.439 15.867 37.4263 15.9725C35.6858 16.1413 33.9664 16.4788 32.2892 16.9641C31.5508 17.1856 30.8335 17.4282 30.169 17.7024C29.4306 17.9978 28.7133 18.3354 28.0171 18.7151C27.1837 19.1687 26.3926 19.7067 25.6647 20.3079C24.8947 20.9514 24.2407 21.6581 23.7344 22.3965C23.112 23.3037 22.7112 24.2636 22.5318 25.2446C22.4791 25.5084 22.458 25.7826 22.4474 26.0569C22.4474 26.1096 22.4369 26.2362 22.4369 26.4366H26.4981L26.4137 27.4915H22.5424C22.5846 27.6919 22.6373 27.924 22.7006 28.1771L22.7428 28.3037C23.0171 29.1581 23.4812 30.002 24.1141 30.7932C24.6626 31.4788 25.3272 32.1223 26.0972 32.7024C26.7829 33.2299 27.5635 33.7151 28.4074 34.1581C29.0719 34.5062 29.7787 34.8227 30.5065 35.097C31.1711 35.3501 31.8778 35.5822 32.6057 35.7932C33.2069 35.9619 33.8187 36.1202 34.42 36.2362C35.5487 36.4683 36.6985 36.637 37.8483 36.732C38.7449 36.8058 39.6521 36.848 40.5593 36.848H40.9812H41.1078C41.6879 36.8375 42.2681 36.8164 42.8377 36.7742C44.747 36.637 46.6352 36.3206 48.4812 35.8143C49.2829 35.5822 50.074 35.3185 50.823 35.0231C51.6668 34.6856 52.458 34.3164 53.1858 33.905C54.1247 33.3776 54.9791 32.7868 55.7069 32.1434L55.728 32.1223L56.6985 31.1518H44.6837C44.304 31.1518 43.9453 31.1413 43.6183 31.0991C43.2175 31.0674 42.8272 30.9725 42.4685 30.8143C41.804 30.4978 41.4981 29.77 41.5719 28.6307V28.5674L41.5825 28.3565L41.8884 25.5716V25.5611L41.8989 25.5084V25.4978C41.9306 25.213 41.9833 24.9387 42.0677 24.6645C42.2681 23.9788 42.6162 23.5147 43.1436 23.2193C43.5445 22.9873 43.9981 22.829 44.4517 22.7657C44.8103 22.713 45.2217 22.6919 45.7069 22.6919H49.9685C50.9495 22.6919 51.6458 22.8079 52.0993 23.04C52.5107 23.251 52.7006 23.6096 52.7323 24.2214C52.6057 24.1687 52.4685 24.1265 52.342 24.0843C51.5614 23.8628 50.5065 23.7468 49.1774 23.7468H46.1078H45.8968H45.6858C44.9474 23.7468 44.1879 23.81 43.6922 24.5801C43.4917 24.8965 43.3652 25.2446 43.3019 25.6033C43.2597 25.8037 43.2386 26.0041 43.2069 26.2468L43.0804 27.4071L43.0698 27.5548V27.6181C43.0487 27.829 43.0487 28.04 43.0593 28.2615C43.0593 28.3565 43.0698 28.4408 43.0593 28.5147C43.0487 28.9894 43.1753 29.3586 43.4179 29.6117C43.7977 30.002 44.3778 30.0548 44.8947 30.0548C45.0213 30.0548 45.1479 30.0548 45.2744 30.0442C45.3799 30.0442 45.4854 30.0337 45.5804 30.0337H57.5529L57.7323 29.7172C58.2702 28.7995 58.5867 27.7763 58.6605 26.7214V26.6792C58.6605 26.5632 58.6605 26.4472 58.6605 26.3311Z" fill="#FCD800"/>
<path d="M40.3058 24.1371C40.2742 23.5781 40.1265 23.1561 39.8733 22.8713C39.694 22.6709 39.4725 22.5127 39.2193 22.4072C38.9978 22.3123 38.7657 22.2384 38.5231 22.1962C38.2383 22.1435 37.943 22.1013 37.6582 22.0802C37.4155 22.0591 37.1624 22.0591 36.9198 22.0485H32.6582C31.7615 22.0485 31.0548 22.1329 30.4852 22.3017C29.7573 22.5232 29.1982 22.9663 28.7974 23.6203C28.502 24.1055 28.3227 24.7068 28.2383 25.4557L27.9324 28.2722C27.8902 28.6414 27.8902 29.0211 27.9219 29.4009C28.0168 30.2342 28.3333 30.8566 28.8501 31.1941C29.4198 31.5739 30.2636 31.7637 31.5084 31.7743H35.4535C35.9915 31.7743 36.3818 31.7637 36.7088 31.7426C37.0991 31.7215 37.4894 31.6793 37.8691 31.595C38.2067 31.5317 38.5337 31.4051 38.829 31.2258C39.1982 30.9937 39.483 30.5506 39.7046 29.9072C39.8101 29.5907 39.8839 29.2426 39.9261 28.8312L40.2003 25.8249H31.8776L31.6877 28.1245H37.4577L37.4261 28.3882C37.4261 28.3988 37.4261 28.3987 37.4261 28.3987L37.4155 28.4198C37.289 29.1055 37.0463 29.211 36.1286 29.3587C35.9598 29.3903 35.77 29.4009 35.5379 29.4009H32.3206C30.8438 29.4009 30.5801 29.2743 30.559 28.5359L30.5484 28.3987C30.5273 28.0823 30.5379 27.7658 30.5695 27.4599L30.6961 26.2996C30.7278 26.0042 30.77 25.7616 30.8122 25.5506C31.0126 24.7279 31.329 24.3692 32.6792 24.3692C32.7636 24.3692 32.8375 24.3692 32.9008 24.3587H33.059H36.1392C36.6771 24.3587 37.1729 24.3798 37.6582 24.422C37.9746 24.4536 38.2489 24.4852 38.4915 24.5274C38.829 24.5907 39.156 24.6751 39.4725 24.7806C39.5885 24.8228 39.6835 24.8755 39.7784 24.9283L40.2847 25.2131L40.3164 24.6224C40.3058 24.4431 40.3058 24.2848 40.3058 24.1371ZM39.6835 24.1899C39.3248 24.0633 38.9556 23.9684 38.5864 23.9051C38.2911 23.8523 38.0063 23.8207 37.7109 23.7996C37.1835 23.7574 36.6666 23.7363 36.1392 23.7363H33.059C32.9957 23.7363 32.9324 23.7363 32.8691 23.7469C32.8058 23.7469 32.7425 23.7574 32.6792 23.7574C31.1814 23.7574 30.5063 24.211 30.2214 25.4135C30.1687 25.6456 30.1265 25.9198 30.0843 26.2363L29.9577 27.3966C29.9155 27.8291 29.9261 28.1667 29.9366 28.4304L29.9472 28.557C29.9999 30.0232 31.1286 30.0232 32.3206 30.0232H32.405C32.4366 30.0232 32.4788 30.0232 32.5105 30.0232H35.5379C35.8016 30.0232 36.0231 30.0127 36.2236 29.981C37.1729 29.8228 37.8058 29.6435 38.0168 28.557C38.0274 28.5253 38.0273 28.4937 38.0379 28.462L38.1328 27.5021H32.3522L32.4366 26.4473H39.5147L39.3037 28.7785C39.2721 29.095 39.2088 29.4114 39.1033 29.7279C38.9345 30.2236 38.7236 30.5612 38.4809 30.7194C38.2489 30.8566 37.9957 30.9515 37.7214 31.0042C37.3733 31.0781 37.0147 31.1203 36.656 31.1308C36.3396 31.1519 35.9598 31.1625 35.4324 31.1625H31.5822H31.4978H31.4873C30.3797 31.1519 29.6413 31.0042 29.1771 30.6878C28.829 30.4557 28.597 29.981 28.5231 29.3481C28.4915 29.0211 28.4915 28.6836 28.5337 28.3566L28.8396 25.5823L28.8501 25.5506V25.5401C28.924 24.8861 29.0717 24.3798 29.3248 23.9684C29.6518 23.4409 30.0843 23.1034 30.6645 22.9241C31.1708 22.7658 31.8248 22.692 32.6582 22.692H36.9198C37.1413 22.692 37.3522 22.7025 37.616 22.7131C37.9113 22.7342 38.175 22.7658 38.3965 22.8186C38.6075 22.8608 38.7974 22.9241 38.9662 22.9979C39.1349 23.0612 39.2826 23.1667 39.4092 23.3038C39.5674 23.4726 39.6624 23.7996 39.6835 24.2004V24.1899ZM56.2446 21.0464C55.5484 20.3608 54.789 19.749 53.9556 19.2321C53.1539 18.7258 52.3206 18.2933 51.4556 17.9135C50.7383 17.6076 50.0105 17.3334 49.2721 17.1013C47.4261 16.5317 45.5274 16.1414 43.6075 15.962C42.5843 15.8671 41.5717 15.8144 40.5484 15.8144H40.4852C39.462 15.8144 38.4387 15.8671 37.4261 15.9726C35.6856 16.1414 33.9662 16.4789 32.289 16.9642C31.5506 17.1857 30.8333 17.4283 30.1687 17.7025C29.4303 17.9979 28.713 18.3355 28.0168 18.7152C27.1835 19.1688 26.3923 19.7068 25.6645 20.308C24.8944 20.9515 24.2404 21.6582 23.7341 22.3966C23.1117 23.3038 22.7109 24.2637 22.5316 25.2447C22.4788 25.5085 22.4577 25.7827 22.4472 26.057C22.4472 26.1097 22.4366 26.2363 22.4366 26.4367H26.4978L26.4134 27.4916H22.5421C22.5843 27.692 22.6371 27.9241 22.7003 28.1772L22.7425 28.3038C23.0168 29.1582 23.4809 30.0021 24.1138 30.7933C24.6624 31.4789 25.3269 32.1224 26.097 32.7025C26.7826 33.23 27.5632 33.7152 28.4071 34.1582C29.0717 34.5063 29.7784 34.8228 30.5063 35.0971C31.1708 35.3502 31.8776 35.5823 32.6054 35.7933C33.2067 35.962 33.8185 36.1203 34.4198 36.2363C35.5484 36.4684 36.6982 36.6371 37.848 36.7321C38.7446 36.8059 39.6518 36.8481 40.559 36.8481H40.9809H41.1075C41.6877 36.8376 42.2679 36.8165 42.8375 36.7743C44.7468 36.6371 46.6349 36.3207 48.4809 35.8144C49.2826 35.5823 50.0738 35.3186 50.8227 35.0232C51.6666 34.6857 52.4577 34.3165 53.1856 33.9051C54.1244 33.3777 54.9788 32.7869 55.7067 32.1435L55.7278 32.1224L56.6982 31.1519H44.6835C44.3037 31.1519 43.9451 31.1414 43.6181 31.0992C43.2172 31.0675 42.8269 30.9726 42.4683 30.8144C41.8037 30.4979 41.4978 29.7701 41.5717 28.6308V28.5675L41.5822 28.3566L41.8881 25.5717V25.5612L41.8987 25.5085V25.4979C41.9303 25.2131 41.983 24.9388 42.0674 24.6646C42.2784 23.9789 42.616 23.5148 43.1434 23.2194C43.597 22.9663 44.0084 22.8186 44.4514 22.7658C44.8101 22.7131 45.2214 22.692 45.7067 22.692H49.9683C50.9493 22.692 51.6455 22.808 52.0991 23.0401C52.5105 23.2511 52.7003 23.6097 52.732 24.2215C52.6054 24.1688 52.4683 24.1266 52.3417 24.0844C51.5611 23.8629 50.5063 23.7469 49.1771 23.7469H45.675C44.9366 23.7469 44.1771 23.8101 43.6814 24.5696C43.4809 24.8861 43.3544 25.2342 43.2911 25.5928C43.2489 25.7933 43.2278 25.9937 43.1961 26.2363L43.0695 27.3966L43.059 27.5443V27.6076C43.0379 27.8186 43.0379 28.0296 43.0484 28.2511C43.0484 28.346 43.059 28.4304 43.0484 28.5042C43.0379 28.9789 43.1645 29.3481 43.4071 29.6013C43.7868 29.9916 44.367 30.0443 44.8839 30.0443C45.0105 30.0443 45.1371 30.0443 45.2636 30.0338C45.3691 30.0338 45.4746 30.0232 45.5695 30.0232H57.1624H57.5421L57.7214 29.7173C58.27 28.7574 58.5864 27.7447 58.6497 26.7215V26.6793C58.6603 26.5739 58.6603 26.4684 58.6603 26.3418C58.6603 25.4663 58.4704 24.5802 58.1012 23.7258C57.6582 22.7236 57.0252 21.8165 56.2446 21.0464ZM58.0379 26.6266V26.6793C57.9746 27.6076 57.6898 28.5253 57.1835 29.4009H45.5695C45.4641 29.4009 45.3586 29.4114 45.2425 29.4114C45.1265 29.4114 44.9999 29.422 44.8839 29.422C44.5147 29.422 44.0717 29.3903 43.8501 29.1688C43.7236 29.0317 43.6497 28.8207 43.6603 28.5148C43.6603 28.4198 43.6603 28.3249 43.6497 28.23C43.6497 28.0612 43.6392 27.8819 43.6603 27.6709V27.6076L43.6708 27.4705L43.7974 26.3101C43.8185 26.0886 43.8501 25.8988 43.8818 25.7194C43.9556 25.3819 44.0506 25.1182 44.1877 24.9177C44.4936 24.4536 44.9261 24.3692 45.675 24.3692H45.886H46.1075H49.1771C50.443 24.3692 51.4556 24.4747 52.1729 24.6857C52.4261 24.7595 52.6371 24.8439 52.8164 24.9388L53.3227 25.2131L53.3438 24.6329V24.5274C53.3649 23.8734 53.2805 22.9452 52.3733 22.481C51.8354 22.2068 51.0442 22.0696 49.9577 22.0696H45.6961C45.1898 22.0696 44.7468 22.0907 44.367 22.1435C43.829 22.2173 43.3122 22.4072 42.8375 22.6709C42.1624 23.0506 41.7299 23.6203 41.4662 24.4747C41.4029 24.6751 41.3607 24.8861 41.3185 25.0971C41.3079 25.1709 41.2868 25.2975 41.2763 25.4135V25.4241L41.2657 25.4557L41.2552 25.4979L40.9598 28.2827C40.9493 28.3671 40.9387 28.4515 40.9387 28.5359L40.9282 28.5992C40.8227 30.3608 41.5506 31.0886 42.1835 31.384C42.5421 31.5528 42.9852 31.6688 43.5337 31.7215C43.8712 31.7637 44.2615 31.7743 44.6624 31.7743H55.1476C54.4303 32.3861 53.6603 32.9135 52.8375 33.3671C52.0991 33.7785 51.3396 34.1371 50.5484 34.4431C49.1771 34.981 47.7636 35.3924 46.3185 35.6772C45.6961 35.8038 45.0527 35.9093 44.4092 35.9831C43.8607 36.057 43.3016 36.1097 42.7531 36.1519C42.194 36.1941 41.6244 36.2152 41.0548 36.2258H40.9493C38.7974 36.2679 36.6349 36.0675 34.5252 35.635C33.2278 35.3713 31.9514 35.0021 30.7172 34.5274C30.021 34.2637 29.3459 33.9578 28.6814 33.6203C27.9008 33.2194 27.1624 32.7553 26.4556 32.2173C25.7594 31.6899 25.1265 31.0886 24.578 30.403C24.0189 29.7279 23.597 28.9473 23.3122 28.1139H26.9725L27.1518 25.8249H23.0484C23.059 25.6667 23.0801 25.5085 23.1117 25.3608C23.27 24.4747 23.6392 23.5992 24.2088 22.7658C24.6835 22.0696 25.2953 21.4051 26.0231 20.8038C26.7299 20.2236 27.4788 19.7173 28.2805 19.2743C28.9556 18.9051 29.6518 18.5781 30.3586 18.2827C31.6033 17.7869 32.8797 17.3966 34.1982 17.1118C35.2742 16.8798 36.3607 16.7004 37.4577 16.595C37.9746 16.5422 38.502 16.5 39.0189 16.4789C39.5358 16.4578 40.0105 16.4367 40.4641 16.4367H40.4852H40.5168C40.9809 16.4367 41.4767 16.4473 42.0147 16.4789C43.6919 16.5528 45.3586 16.7743 47.0041 17.1435C47.7003 17.3017 48.3965 17.4916 49.0717 17.7025C49.8101 17.9346 50.5274 18.1983 51.1919 18.4937C52.0674 18.8734 52.8797 19.2954 53.6075 19.7595C54.4409 20.2869 55.1687 20.8671 55.7911 21.4895C56.5611 22.2701 57.1413 23.1034 57.521 23.9578C57.8586 24.7384 58.0273 25.5296 58.0273 26.3312C58.0484 26.4262 58.0484 26.5211 58.0379 26.6266ZM59.7573 23.673C59.5885 23.23 59.3881 22.7975 59.156 22.3755C58.8396 21.8165 58.4704 21.2996 58.059 20.8038C57.3944 20.0232 56.656 19.3165 55.8333 18.7047C55.021 18.0928 54.1455 17.5443 53.2383 17.0696C52.4999 16.6793 51.6982 16.3207 50.8544 16.0042C50.0949 15.7089 49.2826 15.4557 48.4598 15.2236C47.0885 14.8544 45.6961 14.5802 44.2932 14.422H44.2721C43.0379 14.2743 41.7932 14.2004 40.5379 14.2004H40.5273C39.9577 14.2004 39.3565 14.211 38.7446 14.2532C38.1223 14.2848 37.4788 14.3481 36.8248 14.422C36.2025 14.4958 35.5801 14.5802 34.9683 14.6962C33.5442 14.9494 32.1518 15.3186 30.7911 15.7933C29.9472 16.0886 29.156 16.4156 28.4176 16.7743C27.6054 17.1751 26.8354 17.6076 26.1286 18.0823C25.2742 18.6414 24.483 19.2848 23.7657 19.9916C23.059 20.6878 22.4472 21.4789 21.9514 22.3333L21.9303 22.3755L21.9092 22.4072C21.3923 23.3038 21.0548 24.2848 20.9071 25.308C20.77 26.2785 20.8122 27.2701 21.0548 28.23C21.2974 29.211 21.7299 30.1709 22.3417 31.0781C22.8586 31.8481 23.502 32.576 24.2615 33.2616C24.9577 33.8945 25.7594 34.4958 26.6455 35.0338C27.8058 35.7405 29.0295 36.3312 30.2953 36.7954C30.5906 36.9114 30.9282 37.038 31.2763 37.154C33.2805 37.808 35.348 38.2405 37.4472 38.4304C38.4704 38.5359 39.5041 38.5886 40.5379 38.5781C41.5084 38.5675 42.4788 38.5253 43.4493 38.4409C44.905 38.3144 46.3396 38.0717 47.7531 37.7236C49.4303 37.3228 51.0653 36.7532 52.616 36.0148C53.5126 35.5823 54.3565 35.1076 55.1054 34.6013C56.0126 33.9895 56.8459 33.2827 57.5949 32.4916C58.3544 31.6793 58.9662 30.8144 59.3987 29.9283C59.905 28.9051 60.1792 27.8291 60.232 26.7321C60.232 26.7004 60.232 26.6582 60.2425 26.6266C60.2742 25.6139 60.1054 24.6118 59.7573 23.673ZM59.6307 26.5844V26.7004C59.578 27.7236 59.3143 28.7258 58.8607 29.654C58.4493 30.4874 57.8797 31.2996 57.1624 32.0696C56.4767 32.7975 55.675 33.4726 54.7784 34.095C54.0084 34.6118 53.2067 35.076 52.3733 35.4663C51.5611 35.8566 50.7172 36.2047 49.8628 36.4895C49.1666 36.7321 48.4071 36.9431 47.6371 37.1329C46.2446 37.4705 44.8417 37.7025 43.4176 37.8291C42.7531 37.8924 42.0569 37.9346 41.3818 37.9452C40.7594 37.9663 40.1476 37.9663 39.5252 37.9452C38.2278 37.903 36.9198 37.7764 35.6328 37.576C34.2299 37.3439 32.8375 37.0063 31.4873 36.5739C31.1708 36.4684 30.8438 36.3523 30.5274 36.2258C29.2932 35.7722 28.1012 35.2025 26.9725 34.5169C26.1603 34.0211 25.3902 33.4515 24.6835 32.808C23.9978 32.1962 23.386 31.5 22.8691 30.7405C22.3101 29.9388 21.9092 29.0317 21.6666 28.0823C21.4556 27.2068 21.4134 26.2996 21.54 25.403C21.6771 24.4852 21.983 23.5886 22.4683 22.7236L22.4788 22.7131L22.5105 22.6604C22.9535 21.8903 23.5231 21.1519 24.2299 20.4557C24.9261 19.7701 25.6856 19.1582 26.4978 18.6203C27.2046 18.1561 27.9535 17.7342 28.713 17.365C29.4303 17.0169 30.2003 16.7004 31.0231 16.4156C32.9324 15.7405 34.9155 15.2975 36.9303 15.0654C37.5738 14.9916 38.2067 14.9388 38.8185 14.9072C39.4092 14.8755 39.9999 14.8544 40.559 14.8544H40.5695C41.1708 14.8544 41.8037 14.8755 42.4472 14.9177C43.0274 14.9494 43.6286 15.0021 44.2404 15.076H44.2615C45.6328 15.2447 47.0041 15.5085 48.3438 15.8671C49.156 16.0886 49.9366 16.3418 50.6856 16.6266C51.4978 16.9325 52.2784 17.2912 53.0063 17.6604C53.9134 18.135 54.7573 18.673 55.5063 19.2426C56.3185 19.865 57.0358 20.5401 57.6265 21.2469C58.0274 21.7321 58.3755 22.2279 58.6497 22.7236C58.8712 23.1034 59.0506 23.5148 59.2088 23.9262C59.5147 24.749 59.6729 25.5928 59.6729 26.4262C59.6413 26.4473 59.6307 26.5106 59.6307 26.5844Z" fill="#FEFEFE"/>
<path d="M11.8354 41.0781C11.6034 38.2089 10.0844 37.3755 8.79747 37.3755C6.96203 37.3755 5.95992 38.5781 5.95992 40.6667C5.95992 46.3734 17.5211 49.1055 17.5211 58.1878C17.5211 63.7047 13.8502 66.7637 8.53375 66.7637C3.25949 66.7637 0.232067 62.5021 0 57.4916L5.41139 56.7004C5.64346 60.076 6.97257 61.7426 8.79747 61.7426C10.77 61.7426 12.0992 60.6772 12.0992 58.6836C12.1097 52.0591 0.548523 50.2975 0.548523 40.7089C0.548523 35.3819 3.75527 32.365 9.35654 32.365C11.5612 32.365 13.3017 33.1561 14.6308 34.4536C16.097 35.8882 16.9726 37.9768 17.2468 40.4768C17.2363 40.4768 11.8354 41.0781 11.8354 41.0781ZM37.173 55.0443L37.1308 57.8608C37.1308 63.6097 33.8291 66.7637 28.4177 66.7637C23.0063 66.7637 19.7046 63.6097 19.7046 57.8608L19.8207 36.5106L25.4114 38.8312L25.3903 58.0823C25.3903 60.5401 26.3502 61.7426 28.4177 61.7426C30.4852 61.7426 31.4451 60.5401 31.4451 58.0823L31.4979 40.4346L37.2257 41.4367C37.2679 41.5317 41.4873 41.8903 41.4873 41.8903V42.9346C38.4599 43.0717 37.1203 42.8608 37.1203 46.9431L37.173 55.0443ZM59.7785 58.0823L59.7363 61.9747C59.7363 65.0338 61.5717 65.1182 64.7785 65.2658V66.4262C64.7785 66.4262 59.9156 66.4262 59.7363 66.289H54.7785L47.5422 46.7637L47.4473 47.2279V66.289H42.3101V41.827L50.654 40.2975L54.5042 51.9641H54.5991V38.9262L59.7363 37.0274L59.7785 58.0823Z" fill="white"/>
<path d="M74.3144 41.0781C74.0824 38.2089 72.5739 37.3755 71.287 37.3755C69.4516 37.3755 68.4495 38.5781 68.4495 40.6667C68.4495 46.3734 80.0001 49.1055 80.0001 58.1878C80.0001 63.7047 76.3292 66.7637 71.0128 66.7637C65.7385 66.7637 62.7111 62.5021 62.479 57.4916L67.8904 56.7004C68.1225 60.076 69.4516 61.7532 71.287 61.7532C73.2596 61.7532 74.5887 60.6878 74.5887 58.6941C74.5887 52.0696 63.0381 50.308 63.0381 40.7089C63.0381 35.3819 66.2448 32.365 71.8355 32.365C74.0402 32.365 75.7807 33.1561 77.1098 34.4536C78.5761 35.8882 79.4516 37.9768 79.7258 40.4768L74.3144 41.0781Z" fill="white"/>
</svg>
