<svg width="80" height="80" viewBox="0 0 80 80" fill="none" xmlns="http://www.w3.org/2000/svg">
<path d="M10 0V52.4129C10.005 53.9995 10.375 55.5637 11.0815 56.9843C11.7879 58.405 12.8118 59.6441 14.0739 60.6056L39.6578 80L65.2418 60.6104C66.5038 59.6489 67.5277 58.4098 68.2342 56.9892C68.9406 55.5685 69.3107 54.0043 69.3157 52.4177V0H10Z" fill="#008AAB"/>
<path d="M11.7061 1.70605V52.4129C11.7096 53.737 12.018 55.0426 12.6071 56.2285C13.1963 57.4144 14.0505 58.4487 15.1036 59.2514L39.6579 77.8603L64.2121 59.2514C65.2652 58.4487 66.1194 57.4144 66.7086 56.2285C67.2978 55.0426 67.6061 53.737 67.6097 52.4129V1.70605H11.7061Z" fill="white"/>
<path d="M64.8659 4.44983H14.4514V52.2956H64.8659V4.44983Z" fill="black"/>
<path d="M57.0378 61.245L51.9246 65.1197V54.5944H57.0378V61.245Z" fill="black"/>
<path d="M49.6258 66.8626L44.5142 70.7373V54.5944H49.6258V66.8626Z" fill="black"/>
<path d="M34.8016 70.7373L29.6899 66.8626V54.5944H34.8016V70.7373Z" fill="black"/>
<path d="M27.3895 65.1197L22.2778 61.245V54.5944H27.3895V65.1197Z" fill="black"/>
<path d="M14.8755 54.5944H19.9791V59.502L16.7662 57.065C15.9246 56.4272 15.2712 55.5735 14.8755 54.5944Z" fill="black"/>
<path d="M37.1021 54.5944H42.2137V72.4787L39.6579 74.416L37.1021 72.4787V54.5944Z" fill="black"/>
<path d="M62.5542 57.065L59.3413 59.502V54.5944H64.4449C64.0492 55.5735 63.3958 56.4272 62.5542 57.065Z" fill="black"/>
<path d="M38.3728 41.9454L38.0338 42.0193C38.0255 42.0214 38.0168 42.0218 38.0083 42.0204C37.9998 42.019 37.9916 42.0159 37.9844 42.0112C37.9772 42.0065 37.971 42.0004 37.9662 41.9932C37.9614 41.9861 37.9582 41.978 37.9567 41.9695L37.9326 41.7799C37.9302 41.7677 37.9308 41.7551 37.9341 41.7431C37.9375 41.7311 37.9435 41.7201 37.9519 41.7109L38.5077 41.245H38.7776C38.7869 41.2452 38.796 41.2472 38.8045 41.251C38.813 41.2547 38.8207 41.2601 38.8271 41.2668C38.8335 41.2735 38.8385 41.2815 38.8419 41.2901C38.8453 41.2988 38.8469 41.308 38.8467 41.3173V43.7928C38.8471 43.8117 38.8401 43.83 38.8272 43.8438C38.8143 43.8576 38.7965 43.8658 38.7776 43.8667H38.4451C38.4257 43.8663 38.4074 43.8583 38.3938 43.8445C38.3803 43.8307 38.3728 43.8121 38.3728 43.7928V41.9454Z" fill="white"/>
<path d="M39.7783 42.5205V42.5092C39.6656 42.4528 39.5697 42.3681 39.4998 42.2633C39.4299 42.1585 39.3886 42.0373 39.3799 41.9116C39.3799 41.4827 39.751 41.2064 40.2168 41.2064C40.6827 41.2064 41.0698 41.4827 41.0698 41.9116C41.0588 42.036 41.0166 42.1556 40.9473 42.2595C40.878 42.3633 40.7837 42.4481 40.673 42.506V42.5205C40.8465 42.6088 41.1389 42.8337 41.1389 43.163C41.1389 43.5839 40.7839 43.9036 40.2168 43.9036C39.6497 43.9036 39.3108 43.5823 39.3108 43.163C39.3108 42.8289 39.669 42.5703 39.7783 42.5205ZM40.2248 43.5116C40.2746 43.5151 40.3246 43.5087 40.3718 43.4926C40.4191 43.4766 40.4627 43.4513 40.5 43.4183C40.5374 43.3852 40.5679 43.3451 40.5896 43.3002C40.6113 43.2552 40.6238 43.2064 40.6265 43.1566C40.6265 43.1038 40.6162 43.0515 40.5961 43.0027C40.576 42.9539 40.5464 42.9095 40.5091 42.8722C40.4718 42.8348 40.4275 42.8051 40.3787 42.7849C40.3299 42.7647 40.2776 42.7543 40.2248 42.7543C40.172 42.7543 40.1198 42.7647 40.071 42.7849C40.0222 42.8051 39.9779 42.8348 39.9406 42.8722C39.9033 42.9095 39.8737 42.9539 39.8536 43.0027C39.8335 43.0515 39.8231 43.1038 39.8232 43.1566C39.8294 43.2569 39.8752 43.3507 39.9505 43.4173C40.0259 43.4839 40.1245 43.5178 40.2248 43.5116ZM40.5767 41.9309C40.5742 41.8862 40.5629 41.8423 40.5435 41.802C40.5241 41.7616 40.4969 41.7254 40.4634 41.6956C40.43 41.6657 40.391 41.6428 40.3487 41.628C40.3064 41.6133 40.2616 41.607 40.2168 41.6096C40.1291 41.6079 40.0442 41.6405 39.9803 41.7006C39.9163 41.7606 39.8784 41.8433 39.8746 41.9309C39.8746 42.1044 39.9823 42.2394 40.2248 42.2972C40.461 42.249 40.5767 42.0964 40.5767 41.9277V41.9309Z" fill="white"/>
<path d="M41.5359 43.751L42.5399 41.6627H41.5214C41.5021 41.6619 41.4837 41.6538 41.47 41.6401C41.4563 41.6265 41.4483 41.6081 41.4475 41.5888V41.3173C41.4483 41.2981 41.4564 41.2799 41.4701 41.2665C41.4839 41.2531 41.5022 41.2454 41.5214 41.245H43.1278C43.1468 41.2458 43.1647 41.2537 43.1781 41.267C43.1915 41.2804 43.1993 41.2984 43.2001 41.3173V41.3446L42.0515 43.7623C42.0434 43.7913 42.0263 43.8171 42.0026 43.8359C41.979 43.8546 41.95 43.8654 41.9198 43.8667H41.6339C41.5889 43.8667 41.5375 43.8554 41.5375 43.7928L41.5359 43.751Z" fill="white"/>
<path d="M43.2642 42.5558C43.2642 41.7108 43.6192 41.2064 44.236 41.2064C44.8529 41.2064 45.2079 41.7108 45.2079 42.5558C45.2079 43.4008 44.8529 43.9052 44.236 43.9052C43.6192 43.9052 43.2642 43.4008 43.2642 42.5558ZM44.7019 42.5558C44.7019 41.9839 44.5413 41.661 44.236 41.661C43.9308 41.661 43.7686 41.9823 43.7686 42.5558C43.7686 43.1293 43.9389 43.4506 44.236 43.4506C44.5332 43.4506 44.7019 43.1309 44.7019 42.5558Z" fill="white"/>
<path d="M42.077 11.955H27.2754V15.1453H29.2915V33.3847H27.2754V36.575H31.2915L32.477 33.3847V28.861H42.1477L40.9621 25.6722H32.4802V15.1453H42.077C42.9844 15.1449 43.8765 15.3792 44.6666 15.8255C45.4566 16.2719 46.1178 16.915 46.5857 17.6925C47.0537 18.4699 47.3125 19.3552 47.3371 20.2623C47.3617 21.1694 47.1512 22.0674 46.726 22.869L48.0384 26.3951C49.2256 25.2152 50.0354 23.7093 50.3654 22.0684C50.6953 20.4275 50.5304 18.7256 49.8915 17.1786C49.2527 15.6316 48.1687 14.3092 46.7771 13.3792C45.3856 12.4492 43.7491 11.9535 42.0754 11.955H42.077Z" fill="white"/>
<path d="M29.3157 44.1479H36.8321V40.9591H34.7679L36.0257 37.5776H47.0972L48.355 40.9591H46.2908V44.1479H53.8072V40.9591H51.7574L43.0554 17.5728H40.0659L37.645 24.0788H41.049L41.5615 22.7005L45.9101 34.3888H37.2113L38.6747 30.4563H35.2723L31.3639 40.9591H29.3157V44.1479Z" fill="white"/>
</svg>
