<svg width="80" height="80" viewBox="0 0 80 80" fill="none" xmlns="http://www.w3.org/2000/svg">
<path d="M67.2699 0H12V52.8583C12 55.4673 12.57 58.0323 13.6662 60.4659C14.7405 62.8336 16.2751 64.9603 18.2044 66.8019C21.9973 70.3755 26.2724 73.2255 31.293 75.5056L32.9592 76.2291C35.3489 77.2595 38.9444 78.8161 39.5802 79.7588L39.7556 80L39.9309 79.7588C40.5667 78.8161 44.1622 77.2595 46.5519 76.2291L48.2181 75.5056C53.2387 73.2255 57.5138 70.3755 61.3067 66.8019C63.236 64.9822 64.7706 62.8336 65.8449 60.4659C66.963 58.0104 67.5111 55.4673 67.5111 52.8583V0H67.2699Z" fill="#E2231B"/>
<path d="M67.0726 0.394531V52.8582C67.0726 55.4014 66.5245 57.9007 65.4503 60.3123C64.3979 62.6362 62.9071 64.719 60.9997 66.5168C57.2288 70.0684 52.9975 72.8966 48.0208 75.1547L46.3765 75.8782C43.8334 76.9744 40.7202 78.3118 39.7556 79.3422C38.7909 78.3118 35.6777 76.9744 33.1346 75.8782L31.4903 75.1547C26.5136 72.8966 22.2603 70.0684 18.5114 66.5168C16.604 64.719 15.1132 62.6362 14.0608 60.3123C12.9866 57.9226 12.4385 55.4233 12.4385 52.8582V0.394531H67.0726Z" fill="white"/>
<path d="M39.7336 67.087C40.2159 66.3635 41.3998 65.7058 45.1707 64.0396C48.832 62.4172 52.3836 60.2248 55.9353 56.8705C58.4127 54.5466 59.8158 51.4334 59.8158 48.3202V16.158H19.6514V48.3421C19.6514 51.4553 21.0545 54.5466 23.5319 56.8924C27.0835 60.2467 30.6352 62.4391 34.2965 64.0615C38.0674 65.7058 39.2513 66.3635 39.7336 67.087Z" fill="#E2231B"/>
<path d="M44.9296 24.0285C45.0611 24.2039 45.1269 24.5985 45.1707 25.037C45.6531 24.6424 45.9819 24.0724 46.3327 23.5243C46.53 23.6339 46.6835 23.6777 46.8808 23.6777V23.5023C47.2316 23.305 47.3631 22.9323 47.385 22.7569C47.407 22.5815 47.2754 22.5158 47.122 22.45C46.9904 22.3842 46.6616 22.1431 46.3108 21.7923C45.8504 22.5815 45.3461 23.5243 44.9296 24.0285ZM39.1198 25.0151C39.3609 25.3659 39.5582 25.4536 39.8432 25.5851C39.9967 24.8835 40.4571 24.2916 40.9833 23.875C40.764 23.1954 40.6106 22.2308 40.6106 21.3757C40.2817 21.6388 39.7775 21.8142 39.3609 21.8361C39.5582 23.3269 39.3609 24.3793 39.1198 25.0151ZM26.8863 20.1041C27.0397 20.6084 27.1274 21.0249 27.1055 21.1565C27.0836 21.288 27.0617 21.6388 27.3247 21.6169C27.5878 21.595 28.2894 21.3538 28.6402 21.2661C28.991 21.1784 30.3941 20.8715 31.0299 20.7619C31.1176 20.2576 31.1614 19.7314 31.0518 19.5999C30.9422 19.4684 30.7229 19.3807 30.4818 19.5999C30.2406 19.8191 29.8898 19.9726 29.4952 19.863C29.1006 19.7534 28.7498 19.6218 28.2017 19.6218C27.6755 19.6218 27.1274 19.9288 26.8863 20.1041ZM26.0532 20.6303C26.2943 21.31 26.4039 21.6827 26.1409 22.5158C26.7766 22.5377 27.6098 22.4061 28.1798 22.3184C28.7498 22.2308 30.0433 22.0554 30.8326 22.0115C30.8764 21.7923 30.9422 21.5073 30.9641 21.2661C29.9118 21.5292 28.9471 21.8142 28.1798 21.858C27.3905 21.9019 26.9959 21.9457 26.7328 21.8142C26.4697 21.6827 26.4916 21.6169 26.6013 21.4415C26.7109 21.2442 26.7328 20.9811 26.7109 20.8057C26.689 20.6084 26.6232 20.433 26.5574 20.3234C26.3601 20.433 26.1847 20.5426 26.0532 20.6303ZM23.7073 32.798C23.2031 32.2719 22.8304 31.8115 22.5892 31.5265C22.348 31.2414 22.1946 31.0222 21.9973 30.9784C21.7999 30.9345 21.4272 30.9345 21.1642 31.0661C20.9011 31.1976 20.7476 31.5045 20.5941 31.9211C20.4407 32.3157 20.0899 32.9515 19.783 33.39C20.0022 34.4862 19.9583 35.122 19.8049 36.0208C20.1776 36.3497 20.2653 36.6347 20.1337 37.0513C20.2653 37.1609 20.3968 37.2486 20.4626 37.4897C20.5284 37.7528 20.3968 38.0378 20.2434 38.3448C20.0899 38.6517 19.8049 39.2217 19.6076 39.5506C19.4102 39.8575 19.2568 40.0987 18.9718 40.0987C18.6648 40.1206 18.5991 39.9014 18.4456 39.5944C18.2921 39.3094 18.0729 38.849 17.9414 38.4544C17.6344 38.4105 17.5906 38.2351 17.5248 38.0597C17.459 37.8844 17.3933 37.7309 17.4371 37.5336C17.459 37.3363 17.6783 37.0074 17.744 36.8539C17.8098 36.7005 17.6563 36.5032 17.5248 36.4155C17.3056 36.2401 17.1521 35.977 17.0863 35.7797C16.9986 35.5604 16.9986 35.0781 17.0425 34.6835C17.0644 34.2889 17.174 34.1573 17.5029 33.6969C17.8317 33.2365 18.6868 31.6361 19.1691 30.7153C19.6514 29.7945 19.7391 29.2464 19.783 28.9175C19.8268 28.5887 19.9583 28.5448 20.1118 28.501C20.2653 28.4571 20.4407 28.4571 20.6599 28.3475C20.8791 28.2598 21.1861 28.0844 21.5149 28.1063C21.9973 28.1283 22.085 28.3475 22.348 28.501C22.6111 28.6544 23.225 29.0491 23.9266 29.4656C24.6062 29.8822 25.1543 30.211 25.6366 30.6933C25.8558 30.5618 26.1409 30.4522 26.4697 30.2987C26.7986 30.1453 27.0397 29.9699 27.2151 29.7506C27.3905 29.5314 27.4124 29.2464 27.5001 28.6325C27.5878 28.0186 27.7194 27.2075 27.9605 26.6594C28.2017 26.1113 28.7936 25.6728 29.6487 24.9055C30.5037 24.1381 30.6133 23.4585 30.6791 22.6254C30.131 22.6035 28.8375 22.7131 28.4648 22.735C28.0921 22.7569 26.7547 22.7788 26.4039 22.7788C26.0532 22.8008 25.7682 22.8665 25.6585 22.6692C25.527 22.4719 25.6147 22.2527 25.7024 21.9019C25.812 21.5511 25.8339 21.2223 25.7682 20.8057C25.4393 21.003 25.2639 21.003 24.8912 21.0469C24.5185 21.0907 24.365 20.9592 24.2116 20.8057C24.0581 20.6522 23.9485 20.3015 23.8827 20.0822C23.8389 19.863 23.9266 19.7095 23.9923 19.6437C24.1019 19.7972 24.2116 19.8411 24.365 19.8411C24.5185 19.8411 24.5623 19.6218 24.5843 19.4464C24.6281 19.2491 24.7158 19.271 24.8912 19.271C25.0666 19.271 25.0885 19.1176 25.0008 19.0299C24.9131 18.9422 24.8035 18.8106 24.6062 18.7449C24.4089 18.6791 24.2554 18.7229 24.1896 18.8326C24.1239 18.9422 23.9704 19.1395 23.8608 19.271C23.7512 19.4026 23.6196 19.5341 23.4881 19.556C23.3785 19.578 23.1154 19.4245 22.94 19.3587C22.7646 19.3149 22.655 19.3149 22.5892 19.3149C22.5454 19.3149 22.4577 19.3368 22.4357 19.2272C22.4138 19.1395 22.348 19.0299 22.348 18.7887C22.3261 18.5695 22.37 18.1968 22.37 17.9995C22.3919 17.8241 22.3261 17.7144 22.2823 17.6487C22.1946 17.4952 22.1946 17.4294 22.3042 17.2979C22.4577 17.1006 22.8961 16.8375 23.4004 16.5086C23.9046 16.2017 24.6062 15.7632 25.0227 15.4782C25.4612 15.1713 25.7901 14.974 26.0532 14.8424C26.3162 14.7109 26.5574 14.689 26.667 14.667C26.7766 14.6451 26.7328 14.5574 26.7766 14.3601C26.8424 14.097 27.2151 13.9216 27.6536 13.7462C28.0921 13.5708 28.7059 13.3297 29.276 13.0228C29.539 12.8912 29.5171 12.65 29.4952 12.5404C29.4733 12.387 29.4733 12.2116 29.5171 12.102C29.561 11.9923 29.7144 11.8608 29.8679 11.7292C29.9337 11.795 30.0214 11.8608 30.1968 11.9923C30.3502 12.102 30.4818 12.2335 30.6572 12.5404C31.271 12.2773 31.4903 11.7512 31.7534 11.2908C32.4768 11.9704 32.3891 12.6281 32.3672 13.0447C32.718 12.8693 33.1346 12.7158 33.4634 12.6939C33.7923 12.672 34.3184 12.8254 34.5596 12.8254C34.4719 13.0447 34.2527 13.1543 34.0554 13.2858C34.7788 13.3078 35.59 13.4832 35.9189 13.8778C36.2477 14.2724 36.5985 14.5136 36.9274 14.667C37.2562 14.7986 37.7166 14.9082 37.9139 14.9959C38.1113 15.0836 38.2428 15.1932 38.4182 15.3686C38.5936 15.5221 38.7251 15.7413 38.7909 15.8509C38.8786 15.9605 39.0321 16.1359 39.0978 16.3771C39.0101 16.2675 38.7909 16.1798 38.6374 16.2456C38.7251 16.3332 38.7471 16.4429 38.7909 16.5963C38.2866 16.3552 37.9139 16.3771 37.7386 16.399C37.5851 16.4209 37.5632 16.4867 37.6289 16.5306C37.7166 16.5963 37.9359 16.8375 38.1113 17.0567C38.2867 17.276 38.5059 17.6268 38.7251 17.8679C38.9444 18.1091 39.1636 18.0214 39.3171 17.9995C39.4486 17.9775 39.6898 17.9337 39.909 17.8679C39.7775 18.1968 39.4486 18.4599 39.1198 18.7668L39.2294 18.9203L39.1417 18.9641C39.054 18.8764 38.9882 18.8326 38.8347 18.6791C38.7032 18.5476 38.5936 18.6133 38.5936 18.7668C38.5936 19.2053 38.8567 19.8849 39.2294 19.9068C39.6021 19.9507 40.2817 19.4026 40.8737 18.9641C40.8517 18.8326 40.8298 18.5914 40.8517 18.3722C41.0929 18.2406 41.5533 17.9775 41.926 17.9118C42.2987 17.846 42.5618 17.9556 42.7591 17.9775C42.9345 17.9995 43.1099 17.9775 43.1099 17.846C43.1099 17.6925 42.8687 17.4952 42.496 17.3198C41.8383 17.0129 41.6629 16.7936 41.2025 16.1579C41.3341 15.7413 41.6848 15.1055 41.9699 14.7109L42.1891 14.7767C42.5399 14.5136 42.3864 14.1847 42.7591 13.7901C43.0222 13.4832 43.4607 13.1762 44.1842 13.1543L44.2719 12.6939C42.9126 12.8474 43.0003 11.8389 43.0003 11.4662C43.0003 11.0935 43.2195 10.4138 43.8115 10.4138C44.4472 10.4138 44.8638 10.8961 45.4338 10.8523C45.8942 10.8304 46.2669 10.6769 46.7931 10.7427C47.3193 10.8084 47.7577 11.1373 48.1304 11.5539C48.5031 11.9485 49.0732 12.8035 49.709 13.4174C50.3228 14.0312 51.2656 14.0312 51.6821 14.0751C52.0987 14.1409 52.7344 14.1409 53.0852 14.3382C53.4579 14.5355 54.006 15.1274 54.2691 15.544C54.5322 15.9605 54.4883 16.399 54.3787 16.7498C55.0584 17.0787 55.2557 17.8898 55.2776 18.2845C55.2995 18.6572 55.1022 19.4026 55.0584 19.4684C55.0145 19.556 54.6637 19.8411 54.291 20.1041C53.9183 20.3672 53.5676 20.5645 53.3702 20.6084C53.1729 20.6522 52.7564 20.5426 52.4714 20.4549C52.1644 20.3672 51.8356 20.2357 51.704 20.2138C51.5725 20.1918 51.3532 20.3234 51.2656 20.2576C51.1559 20.1918 51.0025 19.863 50.8709 19.5122C50.8271 19.4026 50.7394 19.271 50.6736 19.2272C50.6078 19.1833 50.5421 19.1176 50.5421 19.0518C50.5421 18.9641 50.6736 18.8983 50.9367 18.8983C51.2217 18.8983 51.2875 18.7887 51.3532 18.5476C51.4409 18.3283 51.2875 18.1529 51.0682 18.0214C50.849 17.9118 50.7394 17.7583 50.6736 17.5829C50.5859 17.4075 50.3667 17.254 50.2132 17.1883C50.0597 17.1006 49.687 17.2102 49.3143 17.0787C48.9197 16.9471 48.6785 16.684 48.6347 16.3552C48.5689 16.0263 48.7662 15.7632 49.0512 15.6317C49.0512 15.3686 48.9197 15.2151 48.8101 15.1713C48.6785 15.1274 48.4374 15.2371 48.1304 15.2371C47.8235 15.2371 47.5604 14.9301 47.4508 14.6232C47.3193 14.3163 47.407 13.8339 46.9466 13.1762C46.4862 12.5185 45.6311 12.3431 44.6226 12.3431L44.5788 13.2201C45.7627 13.3516 46.2669 14.2724 46.3765 15.1055C46.4862 15.9825 46.0915 16.4648 45.7188 16.9033C45.6531 17.3637 45.675 17.6268 45.9161 17.8898C46.1573 18.1529 46.5519 18.0652 46.8589 18.0433C46.8589 18.131 46.7931 18.1968 46.7054 18.2406C47.0123 18.4818 47.2316 18.7668 47.3412 18.8983C47.4727 19.0518 47.4289 19.1614 47.3412 19.293C47.9112 19.9068 48.4155 20.6742 48.8978 21.5511C49.0732 21.573 49.2486 21.595 49.3143 21.7046C49.402 21.8361 49.687 22.3185 49.8186 22.6035C49.9501 22.9104 49.8844 23.1296 49.7309 23.4146C49.5993 23.6997 49.2705 24.0943 49.0951 24.2039C48.9416 24.3135 48.832 24.182 48.7005 24.0943C48.3935 24.4889 47.8454 24.9493 47.7358 25.037C47.6262 25.1466 47.7139 25.322 47.7139 25.4316C47.7139 25.5632 47.6481 25.6289 47.5604 25.6947C47.4508 25.7605 46.3546 26.4182 45.6092 26.8348C45.6092 27.3828 45.2584 27.6021 44.9076 27.8433C45.1707 28.6983 44.9515 28.9833 44.6884 29.3779C45.5654 29.5095 46.4862 29.8164 46.9027 30.1233C47.3193 30.4303 47.2973 30.6714 47.2754 30.9345C47.8454 31.2634 48.2839 31.3949 48.832 31.5922C49.2266 31.3949 49.117 31.0661 49.0074 30.803C48.8759 30.4741 48.4593 30.1233 48.1304 29.8602C48.8759 29.7506 49.4897 30.1014 49.994 30.3426C50.4763 30.5837 50.9805 30.9126 51.6383 31.0222C52.296 31.1537 53.0633 30.9345 53.8526 30.6495C54.6418 30.3426 54.7295 30.1891 54.9488 30.0137C54.7514 30.496 54.313 31.1757 54.006 31.5703C53.1291 32.6007 52.0329 33.3681 50.8928 33.7627C51.9233 34.7931 52.8879 36.1743 53.2387 37.3363C53.8964 37.0074 54.2472 36.5689 54.4007 36.4155C54.5541 36.262 54.9707 35.8674 55.4311 35.8674C55.8915 35.8674 56.0011 35.9989 56.1984 36.4374C55.6284 36.4593 55.3434 36.5909 54.883 37.0293C54.4445 37.4459 54.291 38.1474 54.2691 38.8709C55.9134 39.3094 57.1192 40.3398 58.1496 41.6114C59.18 42.883 59.4212 44.2861 59.4212 45.1411C59.4212 45.9962 59.2677 46.917 59.0704 47.5308C58.895 48.1666 58.7635 48.5613 58.7854 49.2409C58.8073 49.9205 58.9827 50.359 59.2458 50.7536C57.6673 50.5125 58.3689 48.1886 58.4785 47.4651C58.61 46.7416 58.7635 45.7989 58.7635 45.2727C58.7635 44.7465 58.632 44.2642 58.4566 44.0669C58.5443 44.7027 58.5223 45.4262 58.3908 46.1496C58.2593 46.8731 57.8646 48.342 57.755 49.219C57.6235 50.0959 57.755 51.2798 58.3689 52.0691C58.9827 52.8583 59.5528 52.7926 60.0789 52.7706C59.4651 53.7791 58.5004 53.3187 57.6892 52.9022C57.7112 53.231 57.8865 53.6695 58.0619 54.0203C57.185 53.6695 55.6065 52.9022 55.1461 51.4771C54.5541 49.7013 54.7295 47.8816 55.168 45.8646C54.7295 44.9877 54.2472 44.7246 53.8526 44.7246C53.4799 44.7246 52.9318 44.9658 52.9318 45.755C52.9318 46.5443 53.151 46.7854 53.2387 46.9608C53.3264 47.1362 53.8306 47.5966 54.0499 48.2105C54.2691 48.8243 54.2033 49.197 53.8745 49.7671C53.9622 50.074 54.1814 50.644 54.313 51.0386C54.4445 51.4333 54.4445 51.5648 54.3568 51.8718C54.2472 52.1787 53.9403 53.3845 53.9622 54.8753C53.9841 56.3661 54.5103 58.3393 54.6199 58.997C54.7514 59.6547 54.4007 59.8959 54.0499 60.2466C54.313 61.014 54.1376 61.3648 53.9403 61.6059C53.7429 61.8471 53.3702 62.0663 52.9975 62.1759C52.9975 62.3952 52.8879 62.746 52.8221 62.9652C52.7345 63.1844 52.5591 63.5791 52.4056 63.9956C52.011 64.1272 51.3313 64.3464 50.6736 64.3903C50.0159 64.456 49.5993 64.3903 49.424 64.1491C49.2486 63.9079 49.3582 63.4475 49.6432 62.7898C49.9282 62.1321 50.3447 61.6717 50.7832 61.5182C51.0244 60.8824 51.3752 60.4001 52.1206 59.6986C51.6821 58.6024 52.011 57.857 52.3398 57.2212C52.2302 55.7303 52.0329 54.1299 51.6602 52.9679C51.2875 51.806 51.0025 51.6964 50.5421 51.4771C50.3009 52.1129 49.8624 52.3321 49.4678 52.4856C49.0732 52.6172 48.5689 52.7049 48.1304 52.7925C47.4947 52.946 47.2535 53.1214 46.9466 53.3626C46.6835 53.5599 46.5519 53.9107 46.3108 54.0641C46.0696 54.2176 45.8723 54.2176 45.675 54.3491C45.4777 54.4807 45.5215 54.6999 45.3242 54.8972C45.1488 55.0726 45.0392 55.0507 44.82 55.0946C44.6007 55.1384 44.6226 55.3138 44.6226 55.5769C44.6226 55.84 44.6007 56.0154 44.4692 56.1469C44.3157 56.2784 43.8334 56.3661 43.5922 56.41C43.4826 56.5415 43.4607 56.7169 43.4607 56.98C43.4826 57.2431 43.6361 57.3746 44.0088 57.6377C43.2634 57.9666 42.8907 57.6158 42.6933 57.4185C42.496 57.2212 42.3864 56.695 42.3645 56.1469C41.8383 56.41 41.7725 56.7608 41.7287 57.0896C41.6629 57.4185 41.5314 57.3965 41.1367 57.3965C40.7421 57.3965 40.4352 57.265 40.2159 57.265C39.9967 57.2431 39.7775 57.1335 39.5582 57.3527C39.2732 57.6377 39.5144 57.8789 39.3171 58.12C39.1198 58.3612 38.7251 58.3174 38.0674 58.3612C36.8178 58.427 36.0723 57.9446 35.9408 57.6158C35.8093 57.2869 36.0285 57.0677 36.4012 56.7608C36.7958 56.4319 37.1247 56.1469 37.4097 56.0811C37.5851 55.3796 38.7251 55.3796 39.2513 55.4453C39.7775 55.533 40.1063 55.4673 40.3694 55.2261C40.6325 54.9849 40.6763 54.6122 40.6763 54.3711C40.6763 54.1299 40.7421 54.0203 40.8517 53.9545C40.4571 53.8887 40.0406 53.6037 39.8432 53.2091C39.6459 53.231 39.4267 53.2091 38.9882 53.4064C38.5717 53.6037 38.6594 54.0203 38.6594 54.4368C38.484 54.4149 38.0455 54.2834 37.9359 53.9984C37.7824 53.6257 37.892 53.1214 38.3305 52.661C38.769 52.2225 39.624 52.2006 40.3475 52.2445C40.501 52.091 40.764 51.9594 41.0929 51.9594C41.8602 51.9594 41.7287 52.2445 42.496 52.2445C43.2853 52.2445 43.7676 51.7841 44.0745 51.3237C43.6361 51.3017 43.0003 51.7183 42.3426 51.6525C42.0356 51.6306 41.8822 51.4333 41.7725 51.2798C41.6629 51.1263 41.6191 50.8633 41.4875 50.6879C41.356 50.5344 41.2025 50.359 41.2025 50.0082C41.2025 49.6355 41.5752 48.8901 41.9918 48.3201C41.5314 47.8597 40.8737 48.2982 40.5886 48.4736C40.2159 48.7147 40.0844 48.649 39.909 48.5613C39.7336 48.4516 39.5802 48.4955 39.4267 48.627C39.2732 48.7586 38.9005 48.8901 38.6813 48.8901C38.462 48.8901 38.0674 48.8243 37.8263 48.7586C37.5851 48.6928 37.4316 48.8901 37.4316 49.0436C38.0893 49.6355 38.2209 50.1836 38.2209 50.6002C38.2209 50.9948 38.1551 51.3017 37.8482 51.7183C37.7605 51.3237 37.607 50.8852 37.3659 50.6221C37.1247 50.359 36.8616 50.2713 36.6643 50.2713C36.467 50.2494 36.16 50.2055 36.1381 50.2932C36.1162 50.3809 36.2916 50.4686 36.5327 50.5783C36.7739 50.6879 36.7301 50.8633 36.6424 51.1263C37.5632 51.8498 37.4316 52.4856 37.322 53.253C37.037 52.8583 36.7081 52.5295 36.5327 52.3541C36.3574 52.1787 36.2258 52.1568 36.16 52.1129C36.0723 52.0691 35.9408 51.9814 35.6558 51.8937C35.3708 51.7841 35.3927 52.0252 35.4804 52.2225C35.5681 52.3979 35.6119 52.5075 35.5462 52.6391C35.9189 53.3626 36.182 53.538 36.6643 53.7791C36.4231 53.9107 36.0285 53.9764 35.7654 53.9764C35.1515 53.9764 34.7788 53.6257 34.4281 53.2749H34.2307C34.2965 53.4283 34.4281 53.5599 34.5815 53.6695C34.2307 53.6914 33.8142 53.7572 33.3538 53.538C32.8934 53.3187 32.6961 52.8802 32.5426 52.2883C32.2138 52.0033 32.4549 51.214 32.5645 50.929C32.6961 50.644 33.0688 49.8986 33.4196 49.4601C33.3099 49.197 33.288 48.7805 33.3538 48.4297C32.433 47.6405 32.5426 47.487 32.5426 47.1143C32.3453 46.9389 32.0164 46.7635 31.9287 46.61C31.841 46.4785 31.7972 46.1496 31.7753 45.8427C31.6218 45.8646 31.4903 45.8427 31.3806 45.7989C31.293 46.325 31.0956 46.5223 30.7887 46.61C30.6791 46.895 30.5037 47.202 30.1529 47.4651C29.6706 47.8378 29.3198 47.7939 28.9033 47.8158C29.0567 47.6185 29.561 47.0047 29.7144 46.8074C29.8679 46.61 29.8021 46.3908 29.6706 46.1935C29.0129 46.7416 28.2236 46.5662 27.7194 46.4566C27.7632 46.5881 27.8071 46.7416 27.8948 46.8293C27.1932 46.9389 26.8643 46.6758 26.4478 46.2593C26.382 46.9389 26.1847 47.4431 26.0093 47.7501C26.382 48.1009 26.2066 48.8463 25.9874 49.2628C26.1409 49.4601 26.2066 49.6574 26.1847 50.0082C26.382 50.0521 26.5793 50.2055 26.6451 50.4467C26.7328 50.8413 26.6232 51.0386 26.1628 51.7183C25.7024 52.3979 25.3735 52.661 25.1762 52.8145C24.957 52.9679 24.6939 52.9679 24.5843 52.8583C24.4746 52.7487 24.2335 52.0471 24.1239 51.5867C24.0142 51.1263 24.2335 50.9729 24.387 50.7756C24.5404 50.5782 24.4089 50.3152 24.2773 50.0521C24.1458 49.789 23.7731 49.7232 23.6854 49.197C23.5758 48.4736 23.6415 47.9474 24.1458 47.7062C23.7073 46.6539 24.4966 45.8646 24.7816 45.1631C25.0666 44.4615 25.0008 43.9792 24.9789 43.4311C24.8474 43.5626 24.5843 43.7819 24.4746 43.7599C24.365 43.738 24.1896 43.5626 24.1896 43.2118C24.1896 42.291 25.1543 42.6418 25.1543 41.3483C25.1543 40.6468 25.0008 40.3617 24.672 39.9014C24.4089 39.5506 23.795 39.2217 23.5977 39.1779C23.3785 39.134 22.7646 38.9367 22.5673 38.8271C22.37 38.7175 22.1288 38.5201 21.6026 38.5201C21.6246 38.3009 21.9315 38.0159 22.1726 37.9282C22.4138 37.8405 22.94 37.8844 23.4442 37.9721C23.9485 38.0597 24.5185 37.5993 24.5185 36.7443C24.5185 35.8893 24.0142 35.385 23.795 35.2535C23.5758 35.122 23.1154 34.7493 23.0277 34.4862C22.94 34.2231 22.6111 33.9381 22.2603 33.675C22.8304 33.0611 23.5977 33.3242 23.9266 33.7846C24.2554 34.245 24.6281 34.3546 25.1324 34.2669C24.7597 33.8942 24.2116 33.3242 23.7073 32.798Z" fill="black"/>
<path d="M27.7632 41.9841C28.0921 42.1156 28.3771 42.3568 28.5525 42.6637C29.0567 42.2033 29.561 41.8306 30.2625 41.699C30.9641 41.5675 31.6657 41.6113 32.2795 41.7867C32.1041 42.1594 32.0384 42.5979 32.1041 42.9049C31.9507 43.0364 31.8191 43.3653 31.8191 43.5626L31.5122 43.4968C31.4026 43.146 31.3149 42.8829 30.6133 42.9706C30.2406 42.576 29.9118 42.3568 29.5391 42.4006C29.1664 42.4444 28.706 42.861 28.4648 43.1022C28.0921 43.1241 27.8071 43.146 27.5659 43.3433C27.3248 43.5406 27.1713 43.7599 26.9082 43.8695C26.974 43.2556 27.0178 42.9487 27.7632 41.9841Z" fill="#E2231B"/>
<path d="M40.0624 41.2825C40.6763 41.2825 41.4436 41.3044 41.7944 41.6552C41.4217 41.9621 41.0051 42.1375 40.0624 42.006C40.0186 41.699 40.0405 41.4579 40.0624 41.2825Z" fill="#E2231B"/>
<path d="M55.3215 44.5054C54.9927 43.9792 54.2034 43.8916 53.9403 43.1023C53.6553 42.313 53.9184 41.8307 54.028 41.6553C54.1376 41.4799 54.335 41.2388 54.7954 41.2388C55.1681 41.9623 55.3654 42.4446 55.3215 44.5054Z" fill="#E2231B"/>
<path d="M27.6756 33.127C28.0264 33.4339 27.9387 33.8066 28.0045 34.2889C28.0922 34.7712 28.443 36.3059 29.8022 37.5117C31.1615 38.7175 32.5646 39.1341 33.8143 39.5068C33.9239 39.3972 34.0774 39.1998 34.187 39.1121C31.4685 38.3667 30.5257 36.4155 30.2846 35.0562C30.0434 33.675 30.438 32.6665 30.7888 31.9431C31.1396 31.2196 32.1262 30.1892 32.6523 29.7288C33.1566 29.2684 33.2881 28.7422 33.2004 28.4133C32.8716 28.8518 32.2796 29.2684 31.8192 29.4876C31.3588 29.7068 30.8327 29.948 30.4161 30.2769C30.0215 30.6057 29.9119 30.9126 29.6707 31.1977C29.4295 31.4607 28.9253 32.0308 28.1141 32.1623C27.3029 32.2938 27.0618 31.7019 26.7987 31.1319C26.5794 31.5704 26.6671 31.8992 26.8206 32.1842C26.9741 32.4473 27.0837 32.7542 26.9521 33.3023C26.8206 33.8724 26.0094 34.2231 25.4175 34.3547C24.8255 34.4862 24.5844 34.4643 24.2336 34.3328C23.8828 34.2012 23.6855 33.8066 23.4443 33.6312C23.247 33.4777 22.8085 33.412 22.5455 33.6312C22.6551 33.7408 22.8305 33.8943 22.9182 34.0039C23.0936 34.2012 23.0936 34.3985 23.3347 34.6178C23.5759 34.837 23.7951 34.9686 24.0801 35.2536C24.6721 35.8455 24.694 36.4155 24.5844 37.0732C24.4967 37.6652 24.0801 37.9502 23.7732 38.0598C23.4224 38.1694 22.9401 38.0817 22.6112 38.0379C22.2824 37.994 21.9754 38.0379 21.9097 38.279C22.1508 38.279 22.4358 38.5641 22.677 38.6737C22.9182 38.7833 23.4663 38.8929 24.0801 39.156C24.694 39.4191 25.0229 40.0329 25.1763 40.4934C25.3298 40.9537 25.2859 41.6992 25.1982 41.9403C25.1105 42.1815 24.9571 42.2911 24.6282 42.5761C24.2994 42.8611 24.409 43.0584 24.4967 43.2557C24.6063 43.2119 24.7598 43.1023 24.8694 42.9269C25.0886 43.3215 25.3298 42.8392 25.549 42.598C25.7683 42.3569 26.3821 41.7869 27.0179 41.6553C27.6537 41.5238 28.0703 41.743 28.5745 42.2473C28.8595 41.9622 29.4076 41.7211 29.9338 41.5238C30.4819 41.3265 31.4685 41.3045 32.4112 41.4141C32.455 41.3045 32.5646 41.173 32.6304 41.0634C31.6658 40.7784 30.2188 40.5153 29.3857 40.4276C28.4649 40.318 27.6099 40.2083 26.9302 40.0768C26.119 39.9233 25.6148 39.7041 25.3736 39.6164C25.1325 39.5287 24.8255 39.2875 24.6721 39.1779C24.5186 39.0683 24.2117 39.0025 24.0582 38.9148C23.817 38.8052 24.2774 38.871 24.5405 38.9806C24.8036 39.0902 25.264 39.4849 26.0971 39.726C26.7987 39.9233 27.8729 40.0768 28.8376 40.1864C29.8022 40.296 31.315 40.5372 32.74 40.9318C32.8277 40.8441 32.9154 40.7345 33.0689 40.6687C33.047 40.5153 33.047 40.3399 33.0908 40.1864C32.0823 39.9672 31.1396 39.6822 30.1311 39.2875C28.9034 38.8052 28.136 38.4764 26.7548 37.4679C25.8121 36.7882 25.0667 35.8455 24.8694 35.6043C24.6721 35.3632 24.409 35.0124 24.4309 34.9247C24.4528 34.837 24.7159 35.2755 25.4613 36.0209C26.1848 36.7663 27.7195 37.994 29.2541 38.6737C31.03 39.4629 32.5866 39.8576 33.2224 39.9891C33.3101 39.8576 33.4635 39.726 33.6389 39.6383C33.1347 39.5068 32.2796 39.2437 31.5123 38.8929C30.723 38.5421 29.9338 37.9721 29.3418 37.424C28.7499 36.854 28.2676 35.8894 28.0483 35.3193C27.851 34.8151 27.7414 34.2451 27.7195 33.9381C27.6976 33.6531 27.7195 33.3681 27.6318 33.105L27.6756 33.127Z" fill="white"/>
<path d="M38.5718 28.9614C38.4183 29.4437 38.1772 29.8384 37.6948 30.1234C37.6291 30.1672 37.651 30.1891 37.6948 30.2111C37.8921 30.3426 37.9798 30.6715 38.0237 30.8249C38.3964 30.7811 38.7691 30.7592 39.098 30.7811C39.2295 30.4522 39.3391 30.1234 39.4926 29.8822C39.1418 29.8603 38.8349 29.7068 38.791 29.4657C38.7472 29.2026 38.7033 29.0272 38.6814 28.9614C38.6376 28.8737 38.5937 28.8956 38.5718 28.9614Z" fill="white"/>
<path d="M38.7911 31.0661C38.4404 30.9345 38.0896 30.9345 37.7826 31.088C37.4538 31.2415 37.2345 31.4169 37.103 31.658C36.9715 31.8992 36.7741 32.2719 36.4672 32.3377C36.1603 32.4034 36.0068 32.2719 35.9191 32.2061C35.6999 32.3377 35.6122 32.3815 35.1737 32.4253C34.7352 32.4692 33.8583 33.1708 33.9679 33.6969C34.1871 33.6531 34.4283 33.5873 34.6256 33.6531C34.8229 33.6969 35.1956 33.9819 35.2175 34.0916C35.2395 34.2012 35.3052 34.3766 35.2833 34.5958C35.2614 34.7931 35.2614 34.9685 35.2614 35.0562L35.4368 35.0781C35.5903 35.407 35.8753 35.8455 36.2918 35.9332C36.226 35.5605 36.0945 35.122 36.1822 34.6397L36.3795 34.6177C36.2918 34.7054 36.2699 34.815 36.2699 34.9247C36.5768 34.7712 37.1688 34.6177 37.5195 34.552C37.4757 34.4643 37.4319 34.3985 37.4099 34.3327C37.1249 34.3108 36.8618 34.3985 36.5549 34.5081C36.533 34.2889 36.533 34.2012 36.6645 34.1135C36.7961 34.0258 37.0811 33.9819 37.2784 34.0696C37.4757 34.1573 37.5634 34.3327 37.673 34.4643C37.7826 34.6177 38.0457 35.0562 38.0457 35.2097C38.0238 35.3631 38.0019 35.7139 37.958 35.8893C38.1115 35.8674 38.243 35.7139 38.3965 35.4508C38.55 35.1877 38.6596 35.0781 38.55 34.7712C38.4623 34.4643 38.3088 34.2012 38.3307 33.9162C38.3527 33.6092 38.528 33.3023 38.9008 33.1269C39.2735 32.9734 39.3831 33.0173 39.6242 33.1708C39.8873 33.3242 40.1285 33.5654 40.3477 33.8504C40.567 34.1354 40.6766 34.552 41.0712 34.6397C41.2685 34.6835 41.3781 34.552 41.4439 34.4204C41.1808 34.1793 41.0712 34.0258 41.1151 33.7627C41.1589 33.4996 41.4878 33.3242 41.8166 33.39C41.7508 33.1927 41.5097 32.9296 41.2685 32.7104C41.0493 32.4911 40.7862 32.3815 40.8958 32.1842C41.0054 31.9869 41.2466 31.9869 41.4001 31.9869C41.3562 31.7019 41.2247 31.4826 41.7728 31.0441C41.7289 30.7153 41.5097 30.3426 42.1455 29.7506C41.9262 29.4876 41.7508 29.356 41.7728 29.0272C41.7947 28.8298 41.7728 28.6544 41.7508 28.5448C41.7289 28.4133 41.5974 28.5229 41.5316 28.5668C41.4658 28.6106 41.2466 28.6764 40.9616 28.6764C40.6547 28.6764 40.3916 28.5668 40.282 28.5887C40.1504 28.6106 40.2381 28.6764 40.3039 28.786C40.3696 28.8737 40.5012 29.1368 40.4793 29.3122C40.4573 29.5095 40.4354 29.9918 40.282 30.1891C40.1285 30.3864 39.7777 30.7591 39.2954 30.9784C38.8131 31.1976 38.5938 31.3072 38.4404 31.3511C38.2869 31.3949 38.0019 31.4169 37.8265 31.6799C37.6511 31.943 37.6511 32.2938 37.2126 32.3815C37.1468 32.4034 37.1907 32.3157 37.2565 32.228C37.3222 32.1403 37.388 31.943 37.4976 31.7457C37.6072 31.5484 37.6511 31.4169 38.0019 31.3072C38.3746 31.2195 38.528 31.2195 38.7911 31.0661Z" fill="white"/>
<path d="M31.4023 32.7541C31.797 32.7103 32.2354 32.8638 32.5424 33.2145C32.8493 33.5872 32.8055 33.7846 33.1562 34.2669C33.507 34.7492 33.6605 34.9465 33.9017 35.1438C33.6605 35.2754 33.4632 35.2315 33.3097 35.2754C33.1562 35.3192 32.8055 35.4727 32.8055 35.7796C32.8055 36.0866 33.0247 36.4373 33.7263 36.4812C34.1209 36.5031 35.0417 36.0646 35.5898 35.5823C35.6556 35.6481 35.7871 35.7796 35.831 35.8673C35.3267 36.2619 34.8663 36.547 34.4498 36.6785C33.9455 36.8539 33.7263 36.9197 33.3316 36.7881C32.7616 36.6127 32.367 36.1743 32.367 35.5385C32.3451 34.9027 32.3889 34.3984 32.3451 34.0696C32.3012 33.7407 32.2355 33.5215 32.082 33.3461C32.0381 33.3022 32.0381 33.3461 32.0601 33.4338C32.1478 33.6311 32.2135 33.9161 32.2135 34.0476C32.2354 34.1792 32.2354 34.5738 32.2135 34.8588C32.1916 35.1438 32.1039 35.8235 32.3012 36.1743C32.1478 36.3935 31.9724 36.6566 31.9285 36.81C31.7093 36.4593 31.5558 36.0208 31.5558 35.5165C31.5558 35.0123 31.8408 34.1134 31.8189 33.6969C31.797 33.3022 31.5558 32.9514 31.4023 32.7541Z" fill="white"/>
<path d="M35.4367 35.4507C35.3928 35.3849 35.3271 35.2534 35.3271 35.2534L35.2613 35.2314C34.8667 35.5822 34.4282 35.933 34.1432 36.0865C33.9239 36.218 33.7486 36.2838 33.5074 36.2399C33.3758 36.218 33.4197 36.2838 33.5293 36.3057C33.6828 36.3496 33.9239 36.3276 34.2747 36.1742C34.5597 36.0426 34.779 35.9111 34.9544 35.7795C35.1078 35.7138 35.3271 35.5603 35.4367 35.4507Z" fill="white"/>
<path d="M36.2915 35.1658C36.2915 35.2974 36.3354 35.5166 36.3573 35.6262C36.6642 35.4947 37.0369 35.2754 37.8481 35.2316C37.8481 35.1 37.8042 34.8808 37.6727 34.7493C37.3 34.7712 36.6861 34.9685 36.2915 35.1658Z" fill="white"/>
<path d="M38.9224 33.4337C39.0758 33.2802 39.3828 33.1925 39.6678 33.4337C39.8212 33.5433 40.0624 33.8283 40.1062 33.8722C39.9747 34.0256 39.7555 34.1353 39.6239 34.201C39.4924 33.916 39.2074 33.4776 38.9224 33.4337Z" fill="white"/>
<path d="M38.6157 34.5299C38.6376 34.6615 38.7034 34.8369 38.7253 34.9246C38.8788 34.8369 39.1419 34.6615 39.1638 34.5519C39.1857 34.4861 38.9884 34.4642 38.6157 34.5299Z" fill="white"/>
<path d="M35.9189 34.3546C35.8093 34.2449 35.7654 34.1572 35.8312 33.8722C35.897 33.5872 36.2477 33.368 36.4012 33.3022C36.3793 33.1707 36.2697 33.0611 36.0504 33.0172C36.1162 32.9953 36.182 32.9514 36.2258 32.9295C36.1162 32.776 35.9847 32.6664 35.897 32.6007C36.1162 32.5787 36.4231 32.6007 36.5328 32.7103C36.6424 32.8418 36.7081 32.9295 36.7081 33.1049C36.8616 33.1707 37.0151 33.2584 36.9932 33.368C36.9932 33.4557 36.9055 33.4776 36.7739 33.5434C36.6424 33.6092 36.4012 33.7188 36.2697 33.8284C36.1381 33.9161 35.9408 34.1134 35.9189 34.3546Z" fill="black"/>
<path d="M34.3844 33.368C34.3624 33.2584 34.3844 33.1926 34.5159 33.083C34.6474 32.9734 34.779 32.9514 35.0421 32.9953C34.9544 33.1488 34.8886 33.3242 34.8886 33.4118C34.6913 33.368 34.5159 33.368 34.3844 33.368Z" fill="black"/>
<path d="M37.1465 32.6884C37.2561 32.82 37.563 32.7542 37.7603 32.798V32.8857C37.8261 32.8419 37.9796 32.7761 38.1111 32.7323C38.2427 32.6884 38.5496 32.535 38.7031 32.4911C38.8346 32.4473 39.0758 32.4034 39.2512 32.2938C39.3827 32.228 39.3827 32.1842 39.3827 31.9869C39.3827 31.8772 39.4485 31.7457 39.5142 31.6799C39.58 31.5922 39.6896 31.5703 39.7115 31.6142C39.7554 31.6799 39.7773 31.658 39.8212 31.6142C39.865 31.5703 39.9308 31.4388 40.0185 31.3072C40.1062 31.1757 40.3035 31.0222 40.4131 30.9345C40.5447 30.8468 40.7639 30.7372 40.8077 30.7372C40.8735 30.7372 40.8735 30.6934 40.8077 30.6934C40.7639 30.6934 40.6762 30.7153 40.5447 30.7591C40.435 30.7811 40.2596 30.8907 40.1281 31.0003C39.9966 31.1099 39.865 31.1976 39.6896 31.3291C39.5142 31.4607 39.2073 31.4826 39.0319 31.5045C38.8346 31.5265 38.5277 31.5922 38.3523 31.6361C38.1988 31.6799 38.0673 31.8115 38.0234 31.8553C38.0015 31.8992 37.9138 32.0965 37.7823 32.2719C37.6507 32.4473 37.3219 32.6446 37.1465 32.6446C37.1465 32.6227 37.1245 32.6446 37.1465 32.6884Z" fill="black"/>
<path d="M38.2427 31.943C38.2646 31.8553 38.3742 31.7676 38.4838 31.8115C38.5935 31.8553 38.7031 31.9211 38.725 32.0746C38.7469 32.2061 38.7688 32.4253 38.5277 32.4911C38.5277 32.3376 38.5277 32.228 38.5058 32.1842C38.4619 32.0965 38.3961 32.0746 38.3523 32.0307L38.2427 31.943Z" fill="white"/>
<path d="M38.1991 32.3813C38.1552 32.3375 38.1114 32.184 38.1114 32.1621C38.0894 32.184 38.0456 32.2279 38.0018 32.2717C37.9579 32.3156 37.9141 32.3813 37.9798 32.4471C38.0456 32.5129 38.1552 32.6006 38.2429 32.5787C38.3087 32.5567 38.3306 32.5567 38.3745 32.5129C38.3087 32.491 38.2648 32.469 38.1991 32.3813Z" fill="white"/>
<path d="M40.5889 30.0575C40.6327 29.9259 40.8081 29.5313 40.8739 29.3778C40.9616 29.2244 41.0493 29.0928 41.1808 28.9832C41.2904 28.8955 41.3781 28.8736 41.4439 28.9394C41.4878 29.0051 41.4439 29.1586 41.422 29.2244C41.3781 29.3121 41.2247 29.5313 41.0931 29.6848C40.9616 29.8382 40.7862 30.0356 40.7204 30.1013C40.6766 30.1452 40.6108 30.2109 40.5889 30.2548C40.567 30.2986 40.5231 30.2767 40.545 30.2329C40.545 30.1671 40.567 30.1013 40.5889 30.0575Z" fill="black"/>
<path d="M41.0054 30.1672C41.0492 30.1014 41.2027 29.9479 41.2685 29.8602C41.3342 29.7945 41.4658 29.6629 41.5315 29.6629C41.5973 29.641 41.7069 29.6849 41.7069 29.7506C41.7069 29.8383 41.5973 29.8822 41.5315 29.926C41.4658 29.9699 41.2465 30.0795 41.1808 30.1014C41.115 30.1453 41.0711 30.1453 41.0492 30.1672H41.0054Z" fill="black"/>
<path d="M40.457 31.5264C40.6105 31.5483 40.7859 31.5483 40.8736 31.5264C40.9394 31.5264 41.049 31.5264 41.0709 31.5921C41.0928 31.6798 41.0928 31.8114 41.049 31.8333C41.0051 31.8552 40.9832 31.921 40.8955 31.8333C40.8078 31.7456 40.6982 31.7018 40.6543 31.6798C40.5886 31.6579 40.5009 31.6141 40.457 31.5264Z" fill="black"/>
<path d="M37.826 35.4509C37.4753 35.429 37.0587 35.6043 36.8833 35.7797C36.7079 35.9551 36.4887 36.3278 36.5325 36.569C36.7079 36.5032 36.9272 36.3936 37.2341 36.8102C37.3876 36.6567 37.7383 36.3278 38.111 36.5909C38.2426 36.3717 38.3741 35.977 39.1195 36.0647C39.2292 35.692 39.2949 35.1659 40.15 35.2755C40.15 35.0124 40.3034 34.6835 40.6104 34.5958C40.5227 34.3985 40.3911 34.2231 40.3034 34.1135C39.8211 34.3766 39.5361 34.5958 39.3826 34.7055C39.2292 34.8151 38.9661 35.0124 38.8126 35.1001C38.6811 35.429 38.5934 35.714 38.3084 35.9551C38.2207 36.0209 38.0233 36.1963 37.7383 36.0867C37.7822 35.9113 37.8041 35.714 37.826 35.4509Z" fill="white"/>
<path d="M38.0895 37.0294C38.0237 36.8321 37.7606 36.6786 37.4756 36.9856C37.7167 36.9856 37.936 37.0075 38.0895 37.0294Z" fill="white"/>
<path d="M41.5971 31.5483C42.1671 31.5483 43.7895 32.2061 43.7895 34.0257C43.7895 35.8673 43.1318 37.0293 42.2548 38.1036C41.5094 39.0024 39.6678 39.9232 39.7774 41.9622C38.8566 41.7648 38.3304 41.6114 37.4535 41.8087C37.2123 41.8525 36.8396 42.0498 36.6642 42.1814C36.5546 42.2691 36.5327 42.3568 36.7081 42.2252C36.8835 42.0937 37.3219 41.9402 37.8043 41.8964C38.0235 41.8745 38.3304 41.9183 38.6374 41.9622C38.9443 41.9841 39.602 42.1375 39.887 42.2033C40.172 42.2472 40.5886 42.3568 41.1367 42.2033C41.6629 42.0279 42.1233 41.8306 42.2986 41.5675C42.474 41.3044 42.4302 41.1948 42.3863 40.9317C42.3206 40.6686 42.2986 40.2959 42.4083 40.0986C42.5398 39.8794 42.8248 39.704 43.3729 39.704C43.8991 39.704 45.7626 39.6821 47.0561 39.5944C48.3496 39.4848 48.7442 39.4628 49.8185 39.134C50.8928 38.8051 52.2301 38.3228 52.9098 37.8624C53.2825 37.6212 53.699 37.3362 53.9621 37.1389C54.2252 36.9635 54.5979 36.547 54.8171 36.3935C55.0364 36.24 55.2775 36.1085 55.5187 36.1304C55.7599 36.1523 55.8914 36.2839 55.9353 36.3716C55.5845 36.4374 55.1022 36.5689 54.7952 36.9416C54.4664 37.3143 54.2471 37.6212 54.1814 38.3886C54.1156 39.134 54.1594 39.5286 54.2033 39.7259C54.2471 39.9232 54.3129 40.0767 54.5541 40.2082C54.7952 40.3398 54.8171 40.2959 55.0583 40.2959C55.3214 40.2959 55.6283 40.5152 55.6941 40.7125C55.1021 40.7783 54.5321 40.8879 54.1156 41.2606C53.699 41.6333 53.5017 42.0937 53.6552 42.8391C53.8086 43.5845 54.0279 43.8038 54.4225 44.0449C54.8171 44.2861 55.3652 44.5492 55.3433 45.3165C54.8829 44.9657 54.2691 44.5272 53.9183 44.5492C53.5675 44.5492 53.0852 44.7684 52.8878 45.0534C52.6905 45.3165 52.6028 45.6454 52.6248 46.04C52.6467 46.4346 52.8659 46.7854 53.0852 47.1581C53.3044 47.5308 53.699 48.1227 53.7867 48.3858C53.8963 48.6489 54.0498 48.8462 53.5894 49.6355C53.4579 49.1093 53.3482 48.627 52.9536 48.2981C52.9536 48.1008 52.8878 47.9254 52.559 47.5527C52.0109 46.9389 51.112 46.2373 49.7089 45.47C47.6261 44.3518 46.2449 44.0011 45.7845 43.7818C45.3241 43.5626 44.8857 43.2118 44.798 43.0364C44.7322 42.9049 44.6883 42.9706 44.7322 43.0583C44.8857 43.3653 45.061 43.6503 45.8065 43.9791C46.5519 44.308 47.8015 44.7246 48.4592 45.0315C49.095 45.3165 50.2351 45.9304 50.9366 46.4346C51.6382 46.9169 52.3617 47.4212 52.5809 47.9254C51.8794 47.8597 51.2436 47.8158 50.7612 48.0789C50.2789 48.342 49.7966 48.7805 49.5993 49.2189C49.402 49.6574 49.3362 50.0959 49.2485 50.4467C49.1608 50.7975 49.1389 51.1482 48.7442 51.4113C48.7442 51.0167 48.5908 50.8194 48.5908 50.644C48.5908 50.4467 48.7223 50.2274 48.7442 50.0301C48.7662 49.8328 48.7442 49.2628 48.525 48.8024C48.3058 48.3639 48.0865 48.1666 47.6481 47.9035C47.2315 47.6404 46.6615 47.5308 46.2669 47.5089C46.1134 47.5089 45.3899 47.6623 45.2584 47.75C45.3241 47.3116 45.4118 46.7415 45.1268 46.2373C44.8418 45.755 44.1841 45.6234 43.7018 45.6234C43.2194 45.6234 42.781 45.8427 42.5617 46.1058C42.3425 46.3688 42.1671 46.8073 42.1452 47.1362C42.1013 47.465 42.1671 47.7281 42.2767 47.9693C41.9479 47.9474 41.6848 47.8377 41.619 47.5308C41.5532 47.2458 41.5094 46.7635 41.4217 46.4127C41.334 46.0838 41.0709 45.5577 40.6982 45.3165C40.3255 45.0753 40.0843 44.9876 39.5801 45.0096C39.0758 45.0315 38.7031 45.2288 38.5716 45.4919C38.4401 45.755 38.3743 46.0181 38.4401 46.2592C38.2647 46.2373 37.9139 46.0619 37.9358 45.755C37.9577 45.448 38.155 45.1411 38.2208 45.0096C38.2866 44.878 38.3524 44.5272 38.1331 44.1107C37.9139 43.6941 37.4316 43.4091 36.9712 43.453C37.1685 43.146 37.4754 42.861 38.155 42.861C38.747 42.861 39.2732 43.0803 39.7555 43.6064C39.9528 43.8257 40.3036 44.1326 40.5009 44.3738C40.7859 43.7599 41.1586 43.2995 41.5532 43.0583C41.9479 42.8172 42.9344 42.5541 44.0306 42.861C43.7237 42.4664 43.5045 42.1814 43.6141 41.9402C43.7237 41.6991 44.0306 41.5675 44.8199 41.7648C44.776 41.3921 44.7322 41.0194 45.1926 40.866C45.653 40.7125 46.6615 40.844 48.0865 40.9975C49.5116 41.151 51.112 41.1729 51.8136 41.129C52.5151 41.0852 53.3263 40.9317 53.6771 40.8002C53.8744 40.7344 53.699 40.7344 53.6333 40.7344C53.0632 40.8221 51.8794 40.9317 50.8928 40.9537C49.9062 40.9537 48.8758 40.844 47.9111 40.7125C46.9465 40.581 45.7845 40.4494 45.2803 40.6029C44.776 40.7563 44.6445 41.0633 44.6006 41.436C44.1183 41.3702 43.7675 41.3702 43.5264 41.6771C43.3729 41.8964 43.2852 42.0937 43.3729 42.4226C42.5398 42.4664 41.9479 42.5541 41.4436 42.8172C40.9394 43.0803 40.5886 43.4968 40.457 44.0011C39.9747 43.4749 39.317 42.5979 38.155 42.6199C36.9931 42.6418 36.6861 43.2557 36.5546 43.6503C37.0589 43.6503 37.6069 43.738 37.8043 44.0888C38.0016 44.4615 38.0454 44.6588 38.0235 44.7903C38.0016 44.8999 37.892 45.2288 37.8043 45.3823C37.7385 45.5357 37.585 45.9304 37.8043 46.2592C37.6289 46.4346 37.2781 46.6539 37.1904 46.7415C36.8615 46.6758 36.4231 46.6319 36.2915 46.6758C36.1161 46.7415 35.8311 47.0485 35.6557 47.3116C35.4803 47.5527 35.5023 47.6843 35.6777 47.7281C35.853 47.772 36.0504 47.7062 36.0504 47.9254C36.0504 48.1447 35.9627 48.1666 35.7434 48.3201C36.16 48.3201 36.5985 48.3858 36.7738 48.4735C36.9492 48.5612 37.0369 48.7147 37.0589 48.7805C37.0808 48.8462 37.1246 48.912 36.9712 48.9997C36.8177 49.0655 36.6423 49.3066 36.5985 49.4601C36.5546 49.6136 36.5546 49.8766 36.5765 50.052C36.16 50.0301 35.7653 50.0082 35.7434 50.2494C35.7215 50.4905 35.875 50.6001 36.0284 50.7317C36.1819 50.8632 36.2696 50.9728 36.3792 51.0386C36.1381 51.1482 35.9627 51.3017 35.875 51.5867C35.853 51.6963 35.7434 51.6525 35.6777 51.6086C35.59 51.5867 35.3488 51.4552 35.1953 51.6086C35.0419 51.7621 35.1076 52.1348 35.1515 52.2883C34.8007 52.376 34.4499 52.5514 34.3184 52.7048C34.0334 52.5952 33.6826 52.2444 33.7045 51.8059C33.7045 51.3455 33.858 50.8632 33.9237 50.6001C33.9676 50.337 33.9895 50.1178 33.9237 49.8766C33.8141 50.074 33.6826 50.3371 33.6387 50.5563C33.5949 50.7755 33.6387 51.2579 33.6168 51.4113C33.5949 51.5648 33.5291 51.7402 33.5072 51.8059C33.1783 51.8059 32.9372 51.8059 32.7837 52.069C32.6083 51.8498 32.4768 51.6744 32.6741 51.214C32.8714 50.7755 33.4195 49.8767 33.7264 49.4601C33.573 49.0435 33.4853 48.8462 33.6826 48.4516C33.573 48.1227 33.4853 47.9474 33.6826 47.4212C33.8799 46.8731 33.8799 46.5881 33.9457 46.325C34.0114 46.0838 34.428 45.163 34.9761 44.3957C35.0199 44.3299 34.998 44.2861 34.9542 44.1765C34.8884 44.0668 34.8665 43.8476 35.2173 43.5845C34.6472 43.5845 34.1649 43.6722 33.8361 43.738C33.5072 43.8257 33.0249 43.8695 32.2575 44.4834C32.1698 44.1545 32.0602 43.5845 32.3891 43.0803C32.5645 42.8172 33.1345 42.5541 33.4633 42.4226C33.7922 42.291 34.2965 42.1375 34.5815 42.1814C34.8665 42.2033 35.2392 42.3787 35.4584 42.7733C35.5023 42.8391 35.568 43.0364 35.568 43.1899C35.568 43.3434 35.6338 43.3434 35.6119 43.1899C35.568 42.5979 35.568 42.2691 35.6338 41.8525C35.7215 41.436 35.853 40.8879 36.0942 40.5152C36.3354 40.1425 36.6642 39.7917 38.9224 38.4543C39.9089 37.8624 40.5009 37.5774 41.0709 37.0951C41.6409 36.6127 42.3425 35.8893 42.3425 35.3412C42.3425 34.9904 42.0356 34.7492 41.8602 34.5958C41.9259 34.5519 41.9917 34.4861 42.0136 34.4204C41.7725 34.3107 41.5313 34.2669 41.5313 33.9161C41.5313 33.6092 41.9698 33.4338 42.189 33.675C42.2548 33.5873 42.2548 33.368 42.189 33.2584C42.1452 33.1488 41.9917 32.9295 41.7506 32.7761C41.5094 32.6226 41.3778 32.4034 41.4436 32.2718C41.5094 32.1403 41.6629 32.1403 41.7286 32.1841C41.7944 32.228 41.7944 32.1403 41.7506 32.0964C41.6409 32.1184 41.5313 32.0307 41.5971 31.5483Z" fill="white"/>
<path d="M52.4933 48.1666C52.4933 48.342 52.6029 48.4516 52.7563 48.5174C52.9098 48.5832 53.3044 48.912 53.2387 49.7451C52.7125 49.7671 51.5725 48.8463 51.4409 48.1447C51.7917 48.0789 52.2083 48.1008 52.4933 48.1666Z" fill="#E2231B"/>
<path d="M42.4302 47.6625C42.8467 47.2021 43.3291 46.7636 43.5264 46.5882C43.7237 46.4128 44.0306 46.1497 44.2499 45.9524C43.8333 45.8428 43.0002 45.8209 42.6714 46.2813C42.4302 46.6321 42.2767 47.2679 42.4302 47.6625Z" fill="white"/>
<path d="M41.0271 46.2812C41.3341 46.9609 41.1148 47.4871 41.4656 47.8378C41.2683 47.8598 40.8298 48.0352 40.6983 48.1009C40.5667 48.1667 40.3037 48.3421 40.1283 48.3202C39.9529 48.2982 39.909 48.2325 39.8433 48.1667C40.2817 47.794 40.7421 47.0924 41.0271 46.2812Z" fill="white"/>
<path d="M39.4926 45.2507C39.9092 45.2507 40.5669 45.3165 40.7423 45.8865C40.8081 46.1058 40.8081 46.4565 40.6984 46.6977C40.3915 47.2677 40.1942 47.5308 39.668 48.057C39.4269 48.2981 39.1418 48.627 38.5718 48.6489C38.3087 48.6708 38.1114 48.6051 37.936 48.5393C38.5499 47.8816 38.9445 47.4212 39.1857 46.7635C39.4269 46.1277 39.4926 45.6015 39.4926 45.2507Z" fill="white"/>
<path d="M36.4448 48.2105C36.7737 48.2763 37.0806 48.4079 37.2122 48.7148C37.6726 48.4298 37.9576 48.2325 38.1987 47.9255C38.4618 47.6186 38.8784 46.917 38.9441 46.6759C39.0318 46.4347 39.2072 45.8866 39.2072 45.2947C38.9003 45.3385 38.6591 45.492 38.5934 45.777C38.5276 46.062 38.5714 46.1936 38.5714 46.3032C38.6372 46.3251 38.703 46.3251 38.7687 46.347C38.6153 46.4786 38.4618 46.5005 38.3083 46.5005C38.133 46.5005 38.0014 46.4566 37.9356 46.4128C37.4314 46.7636 37.2122 46.917 37.1245 47.0924C36.971 47.3555 36.6641 47.8159 36.4448 48.2105Z" fill="white"/>
<path d="M37.0367 46.8951C36.8394 46.8512 36.4667 46.7635 36.2913 46.8512C36.094 46.9389 35.8967 47.2239 35.809 47.3336C35.7213 47.4651 35.6775 47.5967 35.8748 47.6186C36.0721 47.6405 36.1379 47.5967 36.1817 47.7282C36.2256 47.8597 36.2694 47.9474 36.2694 48.0351C36.5106 47.8159 36.6421 47.5528 36.7298 47.3555C36.8175 47.202 36.9271 47.0705 37.0367 46.8951Z" fill="white"/>
<path d="M37.1026 49.175C37.4314 49.4162 37.5849 49.6355 37.7384 49.9643C37.9138 50.337 37.9795 50.7097 37.8261 51.1263C37.6068 50.6659 37.3876 50.3809 37.2122 50.2493C37.1245 50.1835 36.971 50.0959 36.8833 50.0739C36.7518 50.052 36.708 50.052 36.686 49.8985C36.708 49.6793 36.7737 49.2847 37.1026 49.175Z" fill="white"/>
<path d="M36.4668 51.2798C36.2915 51.3456 36.0722 51.5429 36.0503 51.784C36.5326 52.091 36.8834 52.3979 37.1465 52.7048C37.1903 52.2225 37.0588 51.7402 36.4668 51.2798Z" fill="white"/>
<path d="M35.1732 52.5513C35.4144 53.0336 35.6556 53.4501 36.0502 53.7571C35.6336 53.8009 35.0417 53.6475 34.8444 53.4721C34.669 53.2967 34.5155 52.9897 34.4717 52.8582C34.6471 52.7047 34.8663 52.5732 35.1732 52.5513Z" fill="white"/>
<path d="M32.8055 52.5952C32.7178 52.4637 32.7178 52.3321 32.8055 52.2225C32.8932 52.091 33.0028 52.0252 33.4632 52.0471C33.5729 52.5514 33.7263 53.0556 33.9894 53.4064C33.6825 53.4722 33.1344 53.1652 32.8055 52.5952Z" fill="white"/>
<path d="M26.5356 45.0535C26.5356 45.492 26.6453 46.3031 27.3907 46.5662C27.2811 46.1716 27.2591 45.8647 27.2591 45.6454C27.2591 45.4043 27.2591 45.0754 27.2811 44.7904C27.018 44.7685 26.7987 44.8123 26.5356 45.0535Z" fill="white"/>
<path d="M27.2151 44.593C26.9739 44.593 26.7108 44.6807 26.5354 44.8123C26.5135 44.5272 26.5574 44.1107 27.1712 44.0449C27.1493 44.2422 27.1931 44.4615 27.2151 44.593Z" fill="white"/>
<path d="M27.6098 44.9218C27.6098 44.7245 27.5878 44.7026 27.7632 44.6149C27.9167 44.5272 28.3333 44.4834 28.5744 44.8122C28.3771 45.1191 28.2675 45.4042 28.2236 45.6892C28.1798 45.9961 28.114 46.2811 28.0482 46.2811C27.9825 46.2811 27.7852 45.9303 27.7194 45.5576C27.6536 45.2068 27.6098 45.0095 27.6098 44.9218Z" fill="white"/>
<path d="M29.0348 44.878C29.0129 44.8341 28.6402 44.8999 28.5086 45.2507C28.3771 45.6015 28.3113 46.0619 28.2894 46.1934C28.2455 46.3688 28.2894 46.3688 28.4209 46.2153C28.4648 46.1496 28.7498 45.9303 28.8813 45.6892C29.0129 45.5138 29.2321 45.1411 29.0348 44.878Z" fill="white"/>
<path d="M29.2319 44.8341C29.3196 45.141 29.2977 45.426 29.0784 45.7768C28.903 46.0399 28.6619 46.2811 28.5522 46.3688C28.7934 46.4126 28.9469 46.3907 29.3415 46.0618C29.7361 45.733 29.8458 45.5576 30.0431 45.2068C29.8238 44.9437 29.7581 44.7902 29.2319 44.8341Z" fill="white"/>
<path d="M29.9337 46.3031C29.9556 46.5005 29.8679 46.7855 29.7802 46.9389C29.6706 47.0705 29.4733 47.4432 29.3198 47.5747C29.5829 47.5747 29.8241 47.5528 30.0652 47.3116C30.3064 47.0705 30.5256 46.8074 30.5914 46.4785C30.3722 46.3251 30.1968 46.2812 29.9337 46.3031Z" fill="white"/>
<path d="M29.8239 46.0618C29.8239 45.8207 29.8458 45.5357 30.1089 45.4041C30.372 45.2726 30.5255 45.2726 30.6132 45.1191C30.7009 44.9437 30.5912 44.7025 30.6351 44.5929C30.6789 44.4833 30.8324 44.4614 30.8763 44.1983C30.8982 44.0448 30.7886 43.9352 30.7447 43.8475C30.6789 44.1983 30.5693 44.571 30.1966 45.0095C29.9335 44.7245 29.6485 44.4614 29.1004 44.5052C29.1004 44.3079 29.2539 44.0668 29.3854 43.8914C29.517 43.7379 29.6266 43.6721 29.6485 43.4967C29.6485 43.3871 29.6266 43.3871 29.517 43.4967C29.4293 43.5844 29.0566 43.9791 28.9689 44.0887C28.8593 44.2202 28.7935 44.4175 28.7716 44.5052C28.5085 44.3298 28.2892 44.2641 28.0919 44.2641C27.8727 44.2641 27.6535 44.3518 27.5219 44.4395C27.3904 44.3518 27.3027 44.0887 27.4342 43.8694C27.5877 43.6064 28.0262 43.2994 28.5085 43.2775C28.6839 43.0144 28.9689 42.7952 29.1662 42.7075C29.4074 42.5979 29.6704 42.5321 29.9554 42.6856C30.2185 42.8171 30.4378 43.0363 30.4378 43.146C30.6789 43.146 31.0736 43.2117 31.2051 43.3213C31.3147 43.4529 31.3586 43.5406 31.3805 43.7598C31.5559 43.7817 31.6655 43.8037 31.819 43.8256C31.819 44.001 31.8409 44.2421 31.9067 44.4175C31.9724 44.5929 31.9724 44.7464 31.9724 44.856C31.9724 44.9656 31.9286 45.1191 31.8628 45.2287C31.7971 45.3383 31.7313 45.5795 31.4901 45.5357C31.4243 45.5357 31.4243 45.5357 31.4463 45.2945C31.4463 45.1191 31.4682 45.0095 31.3586 45.0095C31.249 45.0095 31.1832 45.0314 31.0955 45.1629C31.0078 45.3164 30.9201 45.5357 30.8982 45.6891C30.8763 45.8645 30.8763 46.0837 30.7666 46.2153C30.7447 46.2372 30.7009 46.2153 30.5912 46.1714C30.4378 46.1495 30.1966 46.0837 29.8239 46.0618Z" fill="white"/>
<path d="M33.266 47.9474C33.3098 47.6185 33.3975 47.3116 33.4633 47.0485C33.5291 46.7854 33.6825 46.2373 33.836 45.7988C33.5291 45.8865 33.3317 45.9304 33.1344 46.1935C32.9152 46.4565 32.7617 46.7196 32.7617 47.0923C32.7617 47.465 32.8713 47.7281 33.266 47.9474Z" fill="white"/>
<path d="M32.5428 46.7196C32.6744 46.3689 32.8936 46.0619 33.069 45.9084C33.2663 45.755 33.661 45.5138 33.946 45.47C34.1871 45.0534 34.4283 44.6588 34.6037 44.4176C34.5598 44.2642 34.5379 44.1107 34.5818 43.9353C34.0337 43.9134 33.6829 43.9572 33.1786 44.1545C32.6963 44.3519 32.3455 44.7246 32.1701 45.0096C31.9947 45.2946 31.929 45.6015 31.9947 45.8865C32.0386 46.1715 32.214 46.5662 32.5428 46.7196Z" fill="white"/>
<path d="M32.3891 42.6858C32.8276 42.4007 33.7703 41.9623 34.428 41.9623C34.8227 41.9623 35.1077 42.1157 35.305 42.2911C35.3269 41.9842 35.4365 41.5676 35.4146 41.4799C35.3927 41.3703 35.2831 41.0634 34.9761 40.8442C34.6692 40.6249 34.0992 40.6249 33.5949 40.7784C33.1126 40.9318 32.8715 41.1292 32.7618 41.3046C32.6522 41.5019 32.4988 41.8307 32.4549 41.9842C32.4111 42.1596 32.3672 42.5104 32.3891 42.6858Z" fill="white"/>
<path d="M33.3537 40.6468C33.7921 40.5153 34.3841 40.4057 34.8006 40.5591C35.1953 40.6907 35.3487 40.8442 35.546 41.1292C35.7214 40.7565 35.9187 40.3838 35.9845 40.2522C36.0503 40.1207 36.138 40.0549 36.0284 39.8137C35.9187 39.5507 35.7872 39.3753 35.546 39.2437C35.3049 39.1122 34.8445 39.156 34.5814 39.2656C34.3183 39.3753 33.9237 39.6383 33.7921 39.7918C33.6387 39.9672 33.3317 40.318 33.3537 40.6468Z" fill="white"/>
<path d="M34.5376 39.0463C34.8665 38.9586 35.568 38.9147 35.9188 39.1998C36.2477 39.4628 36.3134 39.5725 36.3353 39.8355C36.6642 39.5725 37.1246 39.1778 37.585 38.9367C37.5412 38.7613 37.3438 38.542 36.9492 38.3228C36.5765 38.1036 36.0723 38.1693 35.7873 38.1913C35.5022 38.2351 34.9761 38.3886 34.8226 38.564C34.6911 38.6955 34.5595 38.849 34.5376 39.0463Z" fill="white"/>
<path d="M36.0063 37.7966C36.6421 37.8185 37.541 37.9939 38.0233 38.6736C38.396 38.4762 38.9441 38.1693 39.1634 38.0378C39.1853 37.7747 39.1195 37.5774 38.9661 37.4458C38.8345 37.3143 38.5714 37.2485 38.1987 37.2047C37.8041 37.1608 37.541 37.0731 37.0806 37.1389C36.6202 37.1827 36.4667 37.3143 36.3352 37.4458C36.1598 37.5554 36.0721 37.6651 36.0063 37.7966Z" fill="white"/>
<path d="M38.3086 37.0512C38.6813 37.1169 39.1855 37.1169 39.5802 37.7308C39.9529 37.5116 40.5887 37.1169 40.8737 36.8758C40.8298 36.6127 40.6106 36.3496 40.2598 36.1742C39.7775 35.955 39.624 35.9331 39.4267 35.9111C39.3609 36.0208 39.3171 36.1523 39.339 36.24C38.9882 36.24 38.7471 36.24 38.5717 36.3935C38.3963 36.5469 38.3305 36.7004 38.3086 36.7662C38.3086 36.8539 38.3086 36.9635 38.3086 37.0512Z" fill="white"/>
<path d="M39.5801 35.714C40.1501 35.8455 40.3474 35.9113 40.6324 36.0647C40.8078 36.1744 41.027 36.4155 41.1147 36.6128C41.2682 36.569 41.4436 36.4155 41.619 36.1744C41.7944 35.9332 42.0136 35.6701 42.0136 35.429C42.0136 35.1878 41.9698 35.0343 41.5751 34.7932C41.3778 34.9247 41.2024 35.0782 40.7201 34.7712C40.5009 34.8589 40.3474 35.0562 40.4132 35.4509C39.9747 35.4728 39.6678 35.5605 39.5801 35.714Z" fill="white"/>
<path d="M51.2873 38.3448C50.498 37.424 49.4895 36.3936 47.5383 36.3936C46.5298 36.3936 44.5566 37.0732 44.5566 38.5202C44.5566 38.8271 44.6005 39.156 44.7101 39.3313C44.7978 39.3313 44.9732 39.3971 45.0609 39.3752C44.9293 39.1121 44.7978 38.8271 45.0609 38.3229C44.9732 38.3009 44.8855 38.3229 44.8197 38.3229C44.9074 38.1694 45.017 38.1036 45.1486 38.0378C45.2801 37.9721 45.4555 37.8844 45.609 37.8844C45.324 38.1475 45.1924 38.4105 45.1267 38.6079C45.0609 38.7833 45.017 39.156 45.2801 39.3533C45.3897 39.3752 45.5432 39.3752 45.6748 39.3752C45.5651 39.1779 45.4117 39.0025 45.4774 38.7175C45.5432 38.4325 45.6528 38.2352 46.1132 37.994C46.3325 37.8844 46.464 37.8624 46.5298 37.8624C46.6175 37.8624 46.5956 37.9063 46.5298 37.9282C46.464 37.9501 46.2448 38.1036 46.0913 38.2132C45.9378 38.3448 45.7844 38.564 45.7405 38.7832C45.6967 39.0025 45.7186 39.1998 45.894 39.419C46.0913 39.419 46.2448 39.419 46.3982 39.3971C46.3105 39.0463 46.2886 38.9148 46.3325 38.8271C46.3763 38.6736 46.464 38.5859 46.6175 38.4763C46.749 38.3667 47.2094 38.0378 47.319 38.0378C47.4287 38.0378 47.6479 38.1913 47.7356 38.279L47.7137 38.3009C47.604 38.2132 47.4725 38.1694 47.4067 38.1694C47.341 38.1694 47.2313 38.2571 46.9902 38.4105C46.749 38.5859 46.5736 38.7175 46.5736 38.8929C46.5736 39.0683 46.5956 39.2437 46.6394 39.3533C46.8586 39.3533 47.034 39.3313 47.1875 39.3094C47.2094 39.134 47.2533 38.9586 47.4067 38.8929C47.4725 38.8709 47.4725 38.8929 47.4287 38.9586C47.3629 39.0463 47.341 39.1779 47.3848 39.3094C47.7137 39.3094 48.0425 39.3094 48.3056 39.2437C48.1741 39.0683 47.9987 38.9148 47.7575 38.8929C47.7794 38.8271 47.8452 38.7832 48.0206 38.7832C48.196 38.8052 48.3933 38.8271 48.5906 39.156C48.9633 39.134 49.5772 39.0025 50.3665 38.6956C49.8841 38.1036 49.4018 37.6871 48.9195 37.424C48.4372 37.1609 47.5164 36.832 46.5956 36.8978C46.7052 36.8101 46.8367 36.7663 46.9683 36.7224C47.0998 36.6786 47.5821 36.6128 47.911 36.7005C48.2398 36.7882 48.9414 37.0951 49.2483 37.2486C49.5333 37.402 50.0376 37.7967 50.2568 38.0159C50.498 38.2132 50.6953 38.4105 50.8049 38.5421C50.9803 38.4763 51.1119 38.4325 51.2873 38.3448Z" fill="white"/>
<path d="M54.4006 30.6934C53.6771 31.0661 53.0851 31.2634 52.0766 31.3291C51.3093 31.373 50.5639 30.9126 50.1693 30.7153C49.7746 30.518 49.1608 30.1891 48.6784 30.1453C48.9196 30.3645 49.2265 30.6495 49.3142 30.9126C49.38 31.1757 49.4458 31.4607 49.1827 31.7676C49.6212 31.9211 50.1693 32.0526 50.6077 32.0746C51.0462 32.0965 51.7039 32.0746 51.9232 32.0526C52.1424 32.0307 52.1643 32.0526 51.967 32.1184C51.8135 32.1623 51.1777 32.3157 50.4543 32.25C49.7308 32.1623 49.0731 32.0088 48.3934 31.7457C47.7138 31.4826 47.2534 31.3072 47.1438 31.2415C47.0341 31.1757 46.9465 31.1976 46.6176 31.3072C46.4641 31.373 45.8283 31.6361 45.6091 31.9869C45.3679 32.3376 45.2364 32.8419 45.4776 33.3242C45.7187 33.8065 46.0695 33.9819 46.2668 34.0916C46.4861 34.2012 46.9903 34.3108 47.648 34.2889C47.1218 34.0915 46.6834 33.9381 46.4203 33.6311C46.1791 33.3242 45.9599 33.0173 46.0257 32.6446C46.0695 32.2719 46.2668 31.9869 47.1438 32.0307C48.0207 32.0965 49.0731 32.4473 49.1169 33.0611C49.1388 33.4119 48.7223 33.6312 48.4592 33.7846C48.24 33.9162 48.1523 33.9162 48.3496 34.0258C48.503 34.0915 48.7223 34.1792 49.2704 34.1354C49.7966 34.0915 50.52 33.8942 51.2435 33.5654C51.9889 33.2146 52.7124 32.6665 53.2824 32.1403C53.8744 31.5484 54.1813 31.1976 54.4006 30.6934Z" fill="white"/>
<path d="M45.8503 31.3949C45.3461 31.7896 45.1049 32.2061 45.083 32.7323C45.0611 33.2585 45.5872 33.8285 45.8722 34.0696C46.1572 34.2889 46.5519 34.4643 47.4508 34.4862C48.3496 34.5081 49.7747 34.3766 50.5639 35.2755C51.3532 36.1524 51.4409 36.8978 50.8709 37.6432C50.3885 37.1609 49.6651 36.6786 49.095 36.4813C48.9635 36.2182 48.7662 35.977 48.0865 35.8893C47.4069 35.8016 46.223 35.6701 45.4995 35.1439C44.7541 34.6397 44.206 34.0916 44.206 33.0831C44.1841 32.228 44.9514 31.373 45.8503 31.3949Z" fill="white"/>
<path d="M40.3912 52.5075C39.9965 52.4417 39.295 52.4636 39.01 52.5294C38.7249 52.5952 38.2645 52.9898 38.1768 53.1433C38.0892 53.2967 37.9576 53.7571 38.2645 54.0641C38.3522 53.801 38.4838 53.4941 38.6373 53.3625C38.7907 53.231 39.3388 53.0337 39.8869 53.0556C40.0842 53.3187 40.2596 53.5379 40.4131 53.6037C40.5227 53.231 40.5885 52.9679 40.3912 52.5075Z" fill="white"/>
<path d="M40.5889 53.6257C40.6985 53.2311 40.8081 52.7926 40.545 52.3322C40.83 52.1788 41.2466 52.2007 41.5754 52.3761C41.9043 52.5295 42.1454 52.683 42.4524 52.5734C42.7593 52.4418 43.2416 52.2007 43.4389 52.2007C43.6363 52.1788 43.724 52.2664 44.1186 52.1349C44.4913 52.0034 44.7982 51.806 44.9736 51.6964C45.1709 51.5649 45.5436 51.4114 45.8506 51.4114C46.1356 51.3895 46.3548 51.3456 46.4425 51.3018C46.5302 51.258 46.5521 51.1703 46.3767 51.2141C46.2013 51.258 46.0479 51.3018 45.8067 51.3018C45.5656 51.3018 45.1709 51.3237 45.0175 51.3018C44.864 51.2799 44.6448 51.1264 44.2063 51.1483C43.7678 51.1703 43.3293 51.2799 43.0662 51.3457C42.8032 51.4114 42.2112 51.6307 42.0797 51.521C41.9481 51.4114 41.9262 51.1922 41.8385 51.0168C41.7508 50.8633 41.5316 50.5125 41.422 50.3372C41.3123 50.1618 41.3781 50.0521 41.4439 49.8329C41.4877 49.6137 41.6412 49.3287 41.8824 48.956C42.1235 48.5832 42.4962 48.1009 42.6497 47.8817C42.8032 47.6624 43.3732 47.0486 43.5924 46.8732C43.8117 46.6978 44.3159 46.2593 44.5132 46.062C44.7982 46.2593 45.0175 46.5443 45.0613 47.0267C45.1052 47.509 45.0175 47.8159 44.9078 47.9913C45.2805 47.8598 45.9821 47.6844 46.311 47.7063C46.6398 47.7282 47.0125 47.8378 47.1879 47.9913C46.9906 48.4517 46.8152 48.6929 46.1356 49.1094C45.9163 49.241 45.5875 49.3725 45.3682 49.3944C45.149 49.4164 44.7325 49.4602 44.4913 49.526C44.2282 49.5917 44.0309 49.6575 43.9651 49.6794C43.8774 49.7014 43.8117 49.811 43.987 49.7671C44.1624 49.7233 44.3597 49.6794 44.6228 49.6356C44.9078 49.5917 45.3244 49.5917 45.6094 49.5917C45.9163 49.5917 46.2233 49.5917 46.5083 49.7452C46.7933 49.8987 47.0125 50.1398 47.3852 50.1618C47.7579 50.1837 48.2622 50.1179 48.3499 50.2275C48.4376 50.3591 48.4376 50.5564 48.328 50.7318C48.4376 50.9291 48.4595 51.1045 48.4157 51.3457C48.3718 51.5649 48.2841 51.7841 48.1306 51.9595C48.4157 51.9157 48.6787 51.828 48.9857 51.4772C49.2707 51.1264 49.3584 50.7976 49.4022 50.5125C49.4461 50.2275 49.5118 50.0521 49.5995 49.9644C49.6872 49.8768 49.8188 49.811 49.9065 49.9425C49.9942 50.0741 50.2353 50.666 50.2353 51.0387C50.2353 51.4114 50.1696 51.6964 49.753 52.0691C49.3365 52.4418 48.9418 52.5295 48.3499 52.6392C47.7579 52.7488 47.2756 52.8365 46.9468 53.1215C46.6179 53.4065 46.3987 53.7353 46.1794 53.9327C45.9821 54.1081 45.6313 54.1519 45.4998 54.2615C45.3463 54.3931 45.2586 54.7 45.1052 54.8096C44.9736 54.9412 44.6228 54.9192 44.5132 55.0289C44.4036 55.1604 44.5351 55.3139 44.3159 55.6427C44.1624 55.862 44.009 55.9935 43.9213 56.0373C43.8336 56.0812 43.7678 56.0593 43.724 55.9497C43.6801 55.84 43.4389 55.6208 43.1101 55.6427C43.2855 55.9058 43.3951 56.0812 43.4389 56.3662C43.2416 56.6074 43.132 56.8266 43.1539 57.0239C43.1759 57.2212 43.3513 57.4624 43.4609 57.6378C43.132 57.6378 43.0005 57.572 42.847 57.3309C42.6935 57.0897 42.6058 56.8704 42.5839 56.6293C42.562 56.3881 42.6278 56.1908 42.7812 55.9935C42.6497 55.5769 42.562 55.3577 42.5839 55.2042C42.6278 55.0508 42.9128 54.8096 43.0224 54.7219C43.132 54.6342 43.3293 54.5246 43.3951 54.4588C43.4609 54.3931 43.5486 54.1957 43.702 54.0642C43.8555 53.9327 43.9651 53.9107 44.2282 53.8011C44.4913 53.6915 44.9517 53.538 45.0832 53.4723C45.2148 53.4284 45.4779 53.1434 45.5656 53.0557C45.6533 52.968 45.8725 52.8145 45.9821 52.7488C46.2452 52.6392 46.0917 52.5953 45.9383 52.6392C45.7848 52.683 45.5656 52.8145 45.4121 52.9242C45.2586 53.0557 45.1052 53.2092 44.7544 53.3846C44.3817 53.56 44.1844 53.6257 44.009 53.6696C43.8117 53.7134 43.6143 53.7134 43.4828 53.9327C43.3513 54.1519 43.2416 54.3273 42.9785 54.5246C42.7155 54.7219 42.3428 54.8973 42.3866 55.4016C42.1674 55.4016 42.0139 55.4454 41.8385 55.4893C41.6412 55.1823 41.5535 54.9631 41.4658 54.9192C41.3781 54.8754 41.2685 54.8973 41.2246 54.8973C41.1808 54.9192 41.2027 54.9412 41.2685 55.0289C41.3343 55.0946 41.4 55.2481 41.3562 55.3577C41.3343 55.4454 41.2904 55.4893 41.2027 55.5769C40.9616 55.8181 40.6327 56.3004 40.545 56.6074C40.3696 56.432 40.2381 56.0593 40.3258 55.6866C40.4135 55.2919 40.7204 54.985 40.8739 54.7877C40.8519 54.4588 40.8958 54.3273 41.0273 54.1738C41.1589 54.0204 41.4439 53.7792 41.5973 53.7353C41.7508 53.6915 42.1454 53.6038 42.3428 53.5819C42.5401 53.538 42.6278 53.6038 42.9128 53.253C43.1759 52.9242 43.4389 52.8365 43.7897 52.8584C44.1405 52.8584 44.4694 52.8365 44.8202 52.683C45.1709 52.5295 45.3902 52.3322 45.5217 52.2007C45.6313 52.113 45.5436 52.0911 45.434 52.1568C45.3244 52.2226 44.9736 52.398 44.6886 52.5076C44.4036 52.6172 44.2282 52.6392 43.8555 52.6392C43.4828 52.6172 43.3951 52.5515 43.132 52.7269C42.8689 52.9022 42.6497 53.1873 42.5181 53.2749C42.3866 53.3626 42.1235 53.4723 41.8604 53.5161C41.5754 53.56 41.1369 53.6915 40.5889 53.6257Z" fill="white"/>
<path d="M22.6328 5.54673C22.3697 5.26172 22.0628 5.08633 21.6024 5.08633C21.1858 5.08633 20.7693 5.34941 20.7693 5.70019C20.7693 6.62099 23.4659 6.24829 23.4659 8.08989C23.4659 9.20801 22.6109 9.97534 21.2297 9.97534C20.287 9.97534 19.6073 9.53686 19.125 8.90107L19.98 8.22143C20.1554 8.63799 20.6377 9.03261 21.2078 9.03261C21.7559 9.03261 22.0847 8.65991 22.0847 8.24336C22.0847 7.67334 21.427 7.51987 20.9008 7.34448C20.0239 7.05947 19.3881 6.68677 19.3881 5.83174C19.3881 4.91094 20.2212 4.16553 21.3832 4.16553C21.997 4.16553 22.8301 4.40669 23.2467 4.77939L22.6328 5.54673Z" fill="#E2231B"/>
<path d="M26.141 9.86582H24.8255V5.26182H23.4443V4.31909H27.5222V5.26182H26.141V9.86582Z" fill="#E2231B"/>
<path d="M28.2454 9.33965C28.2454 9.69043 27.8946 9.99736 27.4342 9.99736C26.9958 9.99736 26.623 9.69043 26.623 9.33965C26.623 8.98887 26.9738 8.70386 27.4342 8.70386C27.8727 8.70386 28.2454 8.98887 28.2454 9.33965Z" fill="#E2231B"/>
<path d="M34.3404 6.906V7.03755C34.3404 8.59414 33.3538 9.99726 31.2491 9.99726C29.2541 9.99726 28.0044 8.63799 28.0044 7.10332C28.0044 5.5248 29.2979 4.16553 31.3368 4.16553C32.4988 4.16553 33.5073 4.64785 34.0334 5.48096L32.8715 5.9852C32.6084 5.48096 32.0165 5.10825 31.3149 5.10825C30.0433 5.10825 29.4075 6.18252 29.4075 7.0814C29.4075 8.0022 30.0433 9.01069 31.3368 9.01069C32.1699 9.01069 32.8715 8.41875 32.8934 7.76103H31.4026V6.88408H34.3404V6.906Z" fill="#E2231B"/>
<path d="M35.9628 5.26182V6.48955H38.0675V7.41035H35.9628V8.92309H38.1552V9.86582H34.6255V4.31909H38.1552V5.26182H35.9628Z" fill="#E2231B"/>
<path d="M39.7557 7.03755C39.7557 7.87065 40.6327 8.94492 41.7508 8.94492C42.8689 8.94492 43.7458 7.87065 43.7458 7.03755C43.7458 6.13867 42.9127 5.23979 41.7508 5.23979C40.5888 5.23979 39.7557 6.13867 39.7557 7.03755ZM38.3745 7.0814C38.3745 5.5248 39.7557 4.16553 41.7508 4.16553C43.7458 4.16553 45.127 5.5248 45.127 7.0814C45.127 8.65991 43.7458 9.99726 41.7508 9.99726C39.7557 9.99726 38.3745 8.65991 38.3745 7.0814Z" fill="#E2231B"/>
<path d="M46.749 6.86226H46.9244C47.6479 6.86226 48.1741 6.68686 48.1741 6.00723C48.1741 5.32759 47.6479 5.19604 46.9463 5.19604H46.749V6.86226ZM50.0376 9.86582H48.4372L46.7929 7.62959H46.749V9.86582H45.4336V4.31909H47.2313C48.5687 4.31909 49.5114 4.80142 49.5114 5.9853C49.5114 6.68687 49.0291 7.38843 48.1302 7.51997L50.0376 9.86582Z" fill="#E2231B"/>
<path d="M56.001 6.906V7.03755C56.001 8.59414 55.0145 9.99726 52.9098 9.99726C50.9147 9.99726 49.665 8.63799 49.665 7.10332C49.665 5.5248 50.9585 4.16553 52.9975 4.16553C54.1594 4.16553 55.1679 4.64785 55.6941 5.48096L54.5102 5.9852C54.2471 5.48096 53.6552 5.10825 52.9536 5.10825C51.682 5.10825 51.0462 6.18252 51.0462 7.0814C51.0462 8.0022 51.682 9.01069 52.9755 9.01069C53.8086 9.01069 54.5102 8.41875 54.5321 7.76103H53.0852V6.88408H56.001V6.906Z" fill="#E2231B"/>
<path d="M57.6015 5.26182V6.48955H59.7062V7.41035H57.6015V8.92309H59.7939V9.86582H56.2642V4.31909H59.7939V5.26182H57.6015Z" fill="#E2231B"/>
<path d="M47.2534 69.6958L47.4069 69.6301C48.0427 69.3231 48.3935 68.9724 48.1304 68.3804C47.8454 67.7885 47.3411 67.8981 46.7272 68.1831L46.5738 68.2489L47.2534 69.6958ZM51.2874 70.9236L49.9062 71.5813L47.5823 70.3536H47.5604L48.4812 72.2609L47.3411 72.809L45.061 68.0735L46.5957 67.3281C47.7577 66.78 48.7442 66.8019 49.2266 67.8104C49.5116 68.4243 49.402 69.2135 48.6785 69.6958L51.2874 70.9236Z" fill="#E2231B"/>
<path d="M51.419 67.4815L51.5506 67.3938C52.1425 67.0431 52.4714 66.6265 52.1425 66.0784C51.8137 65.5303 51.3094 65.6838 50.7394 66.0346L50.5859 66.1223L51.419 67.4815ZM55.5407 68.2927L54.2253 69.082L51.7917 68.0735H51.7698L52.866 69.8932L51.7917 70.5509L49.0513 66.0565L50.5202 65.1795C51.6164 64.5218 52.6029 64.456 53.1949 65.4207C53.5457 65.9907 53.5018 66.8019 52.8222 67.35L55.5407 68.2927Z" fill="#E2231B"/>
<path d="M25.264 62.439L26.2725 63.2063L23.9047 66.4291L25.2859 67.4595L24.5625 68.4461L22.1289 66.6703L25.264 62.439Z" fill="#E2231B"/>
<path d="M28.1799 64.5437L29.2323 65.2672L26.9522 68.5777L28.3772 69.5643L27.6757 70.5728L25.2202 68.8627L28.1799 64.5437Z" fill="#E2231B"/>
<path d="M32.0602 70.4631L32.3233 68.6653C32.3452 68.5776 32.3891 68.3365 32.4768 67.9418C32.2356 68.2488 32.0602 68.4461 32.0164 68.5119L30.8105 69.8711L32.0602 70.4631ZM32.0164 66.8237L33.5949 67.5472L33.2002 73.072L31.7094 72.4801L31.8629 71.5154L30.0651 70.6823L29.4074 71.4716L28.1797 70.8358L32.0164 66.8237Z" fill="#E2231B"/>
<path d="M37.5851 70.9893C37.4316 71.362 37.5193 71.1866 37.322 71.6689L36.3792 73.9271L34.8884 73.5324L34.3403 67.8103L35.9188 68.468L36.0504 70.9893C36.0723 71.2523 36.0942 71.5374 36.0942 71.7785C36.1819 71.5154 36.2696 71.2523 36.3792 71.0112L37.1904 68.7969L38.5716 69.038L38.747 71.2962C38.8128 71.7785 38.8128 72.0416 38.8128 72.0854C38.9224 71.7566 39.1197 71.2523 39.2732 70.7262L39.8871 68.9723L41.5094 68.8188L39.4486 74.2998L37.9578 74.1244L37.7604 72.5458" fill="#E2231B"/>
<path d="M44.4473 71.5813L43.5923 69.9809C43.5484 69.9151 43.4607 69.6959 43.2854 69.3232C43.2634 69.7178 43.2634 69.959 43.2634 70.0467L43.11 71.8444L44.4473 71.5813ZM42.2549 68.6655L43.965 68.3147L46.7493 73.116L45.412 73.4449L44.9516 72.5241L43.0223 72.9187L42.9565 73.9491L41.3999 74.2341L42.2549 68.6655Z" fill="#E2231B"/>
<path d="M57.1851 64.478L55.6942 63.4695C55.6285 63.4256 55.4312 63.2722 55.1242 63.031C55.2996 63.3818 55.3873 63.6229 55.4312 63.6887L56.1327 65.3549L57.1851 64.478ZM53.8965 62.9214L55.2558 61.8252L59.9475 64.7849L58.8732 65.6619L58.0839 65.0918L56.5493 66.3415L56.9439 67.2404L55.8696 68.1173L53.8965 62.9214Z" fill="#E2231B"/>
<path d="M23.488 61.0359L24.4746 61.8032L21.2737 65.9687L20.2871 65.2014L23.488 61.0359Z" fill="#E2231B"/>
</svg>
