<svg width="80" height="80" viewBox="0 0 80 80" fill="none" xmlns="http://www.w3.org/2000/svg">
<path fill-rule="evenodd" clip-rule="evenodd" d="M63.24 70.7054C63.1511 70.6659 63.082 70.6363 63.0228 70.5968H62.8944L62.9635 70.5573C62.9635 70.5573 62.9536 70.5573 62.9437 70.5474L62.5586 70.5968H59.8228L60.3561 70.1622C60.4845 70.0437 60.5042 70.0141 60.5141 69.9153L60.6623 68.977C60.6623 68.977 60.5734 68.9869 60.4845 69.0067L60.0203 69.0857L60.1487 68.6708L60.4252 68.0881H63.4573L63.5857 68.7104L63.9215 68.0881H65.4623L65.087 68.5029C64.9981 68.6116 64.9882 68.6412 64.9783 68.7499L64.9289 69.9647C64.9289 70.0832 64.9388 70.1128 64.9882 70.182L65.2647 70.5671L64.8104 70.5968H63.5561L63.4573 70.7844L63.24 70.7054ZM61.64 69.9943C61.64 70.0634 61.64 70.1029 61.6499 70.1326C61.7289 70.0634 61.7487 70.0239 61.7684 70.0042C61.8079 69.9449 61.8277 69.8955 61.8277 69.8758L62.0944 69.0264L61.9956 69.0067C61.9067 68.9869 61.8474 68.977 61.7981 68.9671L61.64 69.9943Z" fill="#164C82"/>
<path d="M63.2501 68.335L63.4773 69.4313L64.06 68.335H64.8995C64.8995 68.335 64.8797 68.3547 64.8699 68.3646C64.7711 68.4831 64.7316 68.572 64.7316 68.73L64.6822 69.9449C64.6822 70.1226 64.7118 70.2016 64.7909 70.3103C64.7909 70.3202 64.8007 70.33 64.8106 70.3399H63.7637C63.7637 70.3399 63.7933 70.3202 63.8032 70.3103C63.9612 70.1819 64.0106 70.093 64.0205 69.9449L64.0699 69.1449L63.3489 70.4782H63.3291L63.2699 70.4486C63.1118 70.3794 63.0328 70.3103 62.9736 70.2016C62.9637 70.1819 62.9538 70.1621 62.9439 70.1325V70.1029L62.9143 70.0041L62.7168 69.1251L62.4797 69.9449C62.46 70.0041 62.4501 70.0634 62.4501 70.1128C62.4501 70.1819 62.4699 70.251 62.5192 70.3103C62.5192 70.3202 62.539 70.33 62.5489 70.3399H61.7686C61.7686 70.3399 61.7983 70.3202 61.8081 70.3103C61.8872 70.2412 61.9365 70.1819 61.976 70.1226C62.0155 70.0535 62.0452 69.9844 62.0649 69.9449L62.4501 68.73C62.4699 68.651 62.4797 68.5918 62.4797 68.5424C62.4797 68.4831 62.4699 68.414 62.4402 68.3646C62.4402 68.3547 62.4304 68.3449 62.4205 68.335H63.2501ZM62.2625 68.335L62.0649 68.7695H62.0155C61.8773 68.7202 61.8279 68.7202 61.6501 68.7103H61.5909L61.3933 69.9547C61.3933 69.9547 61.3933 70.0239 61.3933 70.0535C61.3933 70.1523 61.4229 70.2411 61.4921 70.3202C61.4921 70.33 61.5118 70.3399 61.5217 70.3498H60.5242L60.5637 70.3202C60.702 70.1918 60.7513 70.1128 60.7711 69.9547L60.9588 68.7202H60.8896L60.6921 68.73H60.6723C60.6723 68.73 60.5736 68.7399 60.4452 68.7597H60.3662L60.5736 68.335H62.2625ZM65.9859 67.8412H64.8995H64.06H63.7637L63.6847 67.9893L63.6551 67.8313H60.2674L60.1291 68.1177L59.9217 68.5523L59.5267 69.3819L60.3662 69.2634L60.2674 69.8658C60.2674 69.8658 60.2575 69.9053 60.218 69.935L59.2402 70.7942L60.5044 70.8239H61.9069H61.8871H62.9439C62.9933 70.8436 63.0328 70.8634 63.0822 70.8831L63.1513 70.9128L63.5563 71.0609L63.7044 70.8239H63.7736H64.8205H65.7785L65.2155 70.0436L65.1958 70.0239V70.014C65.176 69.9844 65.176 69.9646 65.176 69.935L65.2254 68.7399V68.7202L65.2748 68.6313L65.976 67.8115L65.9859 67.8412Z" fill="white"/>
<path d="M79.5578 47.7805C79.4986 47.6521 79.38 47.5534 79.2516 47.5237L77.1972 46.9311C75.7057 46.4471 73.7599 46.862 72.9895 47.099C72.8216 47.0496 72.6141 47.0002 72.3968 46.9509C72.5648 46.5261 72.7228 46.0915 72.8808 45.6668L72.9598 45.4495C72.9598 45.4495 72.9796 45.4001 72.9796 45.3804C74.7871 40.2344 75.7057 35.0587 75.7057 30.0016C75.7057 26.5248 75.4588 23.0381 74.9847 19.6305L74.8563 18.7218C74.8365 18.5835 74.7674 18.465 74.6488 18.386L73.8982 17.8625C71.8141 16.4007 69.6016 15.0969 67.3101 13.9709L67.3397 13.9017C68.2484 11.7584 69.1868 9.51625 70.2041 7.17535C70.3029 6.94817 70.2239 6.69137 70.0164 6.56296C69.9177 6.5037 59.6948 0.241549 41.8466 0.00449563C32.2756 -0.123908 21.7169 2.50343 12.8867 7.22473C12.6595 7.34326 12.5706 7.60995 12.6595 7.847C13.4694 9.85207 14.4275 12.2127 15.4547 14.6129C13.6077 15.5809 11.8002 16.6772 10.0914 17.8724L9.34075 18.3959C9.2321 18.4749 9.15309 18.5934 9.13333 18.7317L9.00493 19.6404C8.52094 23.0678 8.28389 26.5544 8.28389 30.0114C8.28389 35.839 9.50867 41.7851 11.9286 47.7213L7.27642 48.2053C7.05912 48.225 6.88133 48.3929 6.84182 48.6004C6.80231 48.8078 6.90108 49.0251 7.09863 49.1337L13.9238 52.6994C12.8077 55.3465 7.632 67.2485 7.3258 67.7621C5.15282 70.0932 1.20193 73.5996 1.16243 73.6292C1.00439 73.7675 0.955004 74.0045 1.0439 74.2021C1.13279 74.3996 1.34021 74.5181 1.55751 74.4885C7.75052 73.7082 17.1042 72.5921 18.3982 72.5526C18.8426 73.1255 19.4155 73.5996 20.0575 73.9156C22.9911 75.4071 27.4654 75.8219 32.6806 75.091C35.5351 77.3628 39.3971 80 42.0047 80C45.7876 80 52.4054 74.7157 56.9291 70.1919C57.7786 69.3425 58.6083 68.4634 59.4083 67.5843C62.4801 67.0707 64.5247 66.972 66.4508 67.2584C68.4361 67.5448 71.2906 68.2461 71.3202 68.256C71.5474 68.3153 71.7845 68.1967 71.8832 67.9893C71.9425 67.8609 71.9425 67.7029 71.8832 67.5843C71.6165 66.5374 71.1622 65.2731 70.4412 64.4533C71.982 63.8211 73.3846 62.6655 74.639 61.0259C75.6168 59.7616 76.3576 58.4183 76.7626 57.154C77.0984 56.107 77.1972 55.0996 77.049 54.2402L79.5776 48.2053C79.6368 48.0769 79.627 47.9287 79.5776 47.8003L79.5578 47.7805Z" fill="white"/>
<path fill-rule="evenodd" clip-rule="evenodd" d="M79.1134 47.9976L77.049 47.405C75.5576 46.921 73.5229 47.4346 72.9994 47.6223C72.7129 47.5235 72.2289 47.3951 71.7055 47.3852C71.9524 46.763 72.1894 46.1308 72.4166 45.4987L72.4956 45.2814C74.1451 40.6095 75.2119 35.4733 75.2119 30.0112C75.2119 26.5542 74.9649 23.0873 74.4908 19.7093L74.3624 18.8006L73.6118 18.2771C71.4091 16.7363 69.088 15.3831 66.6681 14.2176C67.636 11.9162 68.6534 9.51603 69.7399 6.98746C69.7399 6.98746 59.7343 0.745069 41.8269 0.498139C32.0682 0.369735 21.5095 3.16498 13.104 7.65911C14.0621 10.0494 15.0498 12.4496 16.0672 14.8398C14.0917 15.8572 12.1755 17.003 10.3581 18.2771L9.60746 18.8006L9.47905 19.7093C8.99507 23.1268 8.75802 26.5641 8.75802 30.0112C8.75802 36.5993 10.3285 42.7133 12.62 48.1359L7.30607 48.689L14.5362 52.4621C14.1707 53.3511 7.98759 67.6434 7.67152 68.0879C5.45903 70.4683 1.47852 73.9944 1.47852 73.9944C1.47852 73.9944 18.1216 71.9103 18.6451 72.0783C19.0599 72.6709 19.6131 73.145 20.265 73.4808C23.1096 74.9229 27.5642 75.3377 32.809 74.5772C36.3253 77.4021 39.812 79.5158 41.9849 79.5158C45.3827 79.5158 51.7535 74.6661 56.5637 69.8559C57.4428 68.9768 58.3021 68.0681 59.1416 67.1397C62.4209 66.5865 64.5149 66.4878 66.5002 66.7841C68.5349 67.0804 71.419 67.7915 71.419 67.7915C71.3993 67.7817 70.8165 64.9963 69.4436 64.2851C71.2116 63.7913 72.8216 62.5961 74.2439 60.7392C75.1921 59.5243 75.8934 58.2304 76.2885 57.0155C76.6243 55.9587 76.7033 55.0006 76.5354 54.1906L79.1232 48.0174L79.1134 47.9976Z" fill="#164C82"/>
<path fill-rule="evenodd" clip-rule="evenodd" d="M41.9845 77.3924C40.8387 77.3924 38.5077 76.2071 35.6137 74.0638C35.2779 74.1329 34.942 74.202 34.6062 74.2712C37.7472 76.6713 40.4831 78.1628 41.9944 78.1628C44.513 78.1628 50.2418 74.2613 55.615 68.898C55.9805 68.5325 56.3854 68.1177 56.8102 67.6732C56.3163 67.8016 55.8224 67.9498 55.3187 68.0979C49.5405 73.9354 44.0686 77.3924 41.9944 77.3924H41.9845ZM50.1233 11.4126C58.5584 12.6177 66.2034 15.6598 72.3964 19.9959C72.8606 23.3147 73.0977 26.6532 73.0977 30.0015C73.0977 35.9871 71.7346 41.706 69.5814 46.9805L70.6679 46.3483C72.5841 41.3998 73.8681 35.8982 73.8681 30.0015C73.8681 26.6038 73.6311 23.1961 73.1668 19.8873C73.1569 19.7786 73.1174 19.6799 73.0582 19.591C72.9989 19.5021 72.9298 19.4231 72.8409 19.3638C66.4997 14.9092 58.8251 11.946 50.6567 10.7114C50.4789 10.9385 50.3011 11.1657 50.1332 11.4028L50.1233 11.4126ZM14.8222 47.9089C12.422 42.3876 10.8812 36.3427 10.8812 30.0114C10.8812 26.5741 11.1281 23.2357 11.5824 20.0058C19.7114 14.2968 30.3491 10.8398 41.9944 10.8398C42.7648 10.8398 43.5253 10.8595 44.276 10.8891C44.7205 10.6422 45.1748 10.415 45.639 10.1879C44.4241 10.1088 43.2093 10.0693 41.9944 10.0693C30.6553 10.0693 19.6916 13.3683 11.1478 19.3737C11.0589 19.4329 10.9898 19.5119 10.9305 19.6008C10.8713 19.6897 10.8416 19.7885 10.8219 19.8972C10.3478 23.2455 10.1206 26.6235 10.1206 30.0114C10.1206 36.5501 11.7207 42.6246 14.0419 47.9978C14.3085 47.9682 14.5653 47.9385 14.832 47.9188L14.8222 47.9089Z" fill="white"/>
<path fill-rule="evenodd" clip-rule="evenodd" d="M59.5266 48.9955C60.4254 48.6202 61.828 48.1955 63.4775 48.3634C63.4775 48.3634 65.0776 48.6103 65.9665 48.5412C68.6038 42.9507 70.352 36.6984 70.352 30.0017C70.352 27.2459 70.1841 24.4902 69.8582 21.7838C60.6625 24.184 57.4721 31.7993 57.4721 31.7993C60.4057 38.1108 60.4649 43.5433 60.3563 44.8767C60.2279 46.4176 59.9316 47.7905 59.5365 48.9856L59.5266 48.9955ZM67.3296 20.0652C64.9393 18.712 62.4305 17.5663 59.8328 16.6378C57.4721 17.5564 55.9017 19.038 55.9017 19.038C60.3069 18.0008 64.5343 19.0182 67.3296 20.0652ZM48.6715 14.0105C48.1579 15.2056 48.0098 16.0155 48.0098 16.0155C50.1037 15.2747 52.336 15.0377 54.4003 15.0377C52.5138 14.5932 50.5976 14.2475 48.6715 14.0105ZM48.8493 70.2809C45.6689 71.3674 42.4489 72.3354 39.1993 73.1947C40.4735 74.0244 41.4612 74.5182 42.0143 74.6269C43.0712 74.459 45.659 72.928 48.8493 70.2809ZM40.2858 13.6252C35.8509 13.7635 31.505 14.4352 27.3763 15.6007C33.5199 15.9661 37.1152 17.6058 37.1152 17.6058C37.8461 16.0945 38.9623 14.771 40.2759 13.6252H40.2858ZM14.1606 21.5863C13.8149 24.3815 13.647 27.1965 13.647 30.0115C13.647 36.2934 15.257 42.2296 17.7065 47.6127C18.9905 47.4744 20.2548 47.346 21.3709 47.2275C25.0058 43.6717 28.1072 42.0617 28.1072 42.0617C28.7097 41.3506 29.3517 40.1752 29.3517 40.1752C29.1344 39.6221 28.927 38.6936 28.927 38.6936C34.7447 37.8343 36.1176 34.881 36.1176 34.881C35.3966 34.1204 34.5175 33.597 33.5298 33.4686C32.5421 33.3402 31.1296 33.6167 30.0234 33.597C28.9073 33.5772 27.3664 32.8068 26.517 32.9944C25.6577 33.192 24.4625 33.8439 23.5439 34.7032C22.8328 25.5273 31.6926 25.547 31.6926 25.547C29.6085 21.4085 25.5391 18.633 22.7933 17.1317C19.7215 18.3268 16.8176 19.8084 14.1606 21.5764V21.5863ZM24.7885 46.8719C31.6334 41.6765 37.9153 39.5727 37.9153 39.5727C37.7276 38.9109 37.5893 38.2294 37.5103 37.5478C35.7324 38.4269 28.0677 42.3383 23.0303 46.5756C23.0303 46.5756 23.7316 46.3386 24.1958 46.3781C24.1958 46.3781 23.86 46.5954 23.297 47.0201C23.8896 46.9608 24.3934 46.9016 24.7786 46.862L24.7885 46.8719Z" fill="white"/>
<path fill-rule="evenodd" clip-rule="evenodd" d="M58.5095 40.9255C58.549 37.5771 56.8995 33.5077 56.3661 31.878C56.3167 31.71 56.2575 31.5421 56.2081 31.3742C55.1907 28.7469 54.0845 26.4554 53.0967 25.3195C52.6819 24.8355 52.0201 24.2725 51.6349 24.0058C48.6026 21.9514 46.2815 21.9514 46.2815 21.9514C46.6766 20.8945 47.4272 20.5686 47.4272 20.5686C45.9061 20.8155 44.7999 21.981 44.7999 21.981C45.0468 20.8945 46.0839 19.8376 46.0839 19.8376C44.148 20.5784 42.9627 22.139 42.9627 22.139C43.0615 20.9241 43.6838 20.0747 43.6838 20.0747C42.1133 20.9538 41.0367 22.6922 41.0367 22.6922C40.9774 21.576 41.57 20.6772 41.57 20.6772C38.8933 22.5242 38.2513 25.3689 38.2513 25.3689C45.116 21.902 49.8076 26.2282 49.8076 26.2282C45.5407 27.0381 44.4147 29.4383 44.4147 29.4383C47.4569 31.5816 49.4126 36.0066 49.2446 39.0587C48.9582 44.3331 45.0271 46.0419 44.9184 47.4741C44.8592 48.2149 45.6098 48.6988 46.321 48.9655C39.7131 50.7533 37.5698 49.2915 37.5698 49.2915C35.1993 49.1828 32.8781 49.3804 30.7446 49.7261C30.794 50.1014 30.794 50.4965 30.7545 50.9212C35.6338 50.131 41.4416 49.8446 48.0396 50.5064C48.4643 50.378 48.8891 50.2891 49.3335 50.2397C49.3335 50.2397 50.3213 50.1014 51.4571 50.3483C51.9115 49.9928 52.3362 49.5878 52.7214 49.1433C52.9782 48.8569 53.2153 48.5507 53.4523 48.2445C54.5685 45.953 54.5586 42.7133 53.1165 39.9674C53.1165 39.9674 55.0129 41.1033 55.4376 44.0269C55.4376 44.0269 56.3167 41.4292 53.8277 37.824C53.8277 37.824 56.1389 38.8809 57.1365 42.8022C57.1365 42.8022 57.8477 39.6908 54.6277 35.6609C54.6277 35.6609 57.4724 37.4092 58.5095 40.9354V40.9255Z" fill="white"/>
<path fill-rule="evenodd" clip-rule="evenodd" d="M30.2407 48.1658C32.8384 47.4348 34.6953 47.1879 34.6953 47.1879C33.994 46.5953 33.51 45.9039 33.51 45.9039C31.9791 46.1706 30.4975 46.5854 29.085 47.099C29.569 47.3361 29.9641 47.7015 30.2505 48.1559L30.2407 48.1658ZM20.8474 9.65452C21.9636 9.45698 22.6747 9.25943 22.8328 9.71379C22.9315 10.0101 22.7439 10.2472 22.3883 10.3854C21.8944 10.5632 21.7364 10.4052 21.608 10.0299L21.5092 9.74342L18.714 10.7608L19.1881 12.1831C20.0671 12.2424 21.3413 12.0251 22.8328 11.4917C25.144 10.6521 26.0725 9.72366 25.6972 8.60754C25.3218 7.47166 24.4921 7.51117 22.6451 7.85687C21.4697 8.08405 20.966 8.20257 20.8376 7.83712C20.7585 7.59019 20.9166 7.40252 21.3018 7.26424C21.6771 7.12596 21.9438 7.22473 22.0525 7.56055L22.1315 7.79761L24.8378 6.81976L24.4032 5.53573C23.2575 5.52585 22.0525 5.74315 20.7487 6.21725C18.4473 7.04694 17.6077 7.94577 17.9831 9.06189C18.309 10.02 19.1683 9.97059 20.8376 9.67428L20.8474 9.65452ZM25.7268 5.89131L28.0084 7.55068L28.1368 8.21245C28.1961 8.47913 28.1368 8.63717 27.801 8.79521L27.9887 9.74342L31.8507 8.90386L31.663 7.95564C31.2679 7.95564 31.179 7.82724 31.1296 7.56055L31.0012 6.89878L32.4828 4.4196C32.5618 4.2912 32.6803 4.17267 32.8087 4.09366L32.6211 3.15532L29.648 3.79734L29.7863 4.46899C29.8357 4.7258 29.8159 4.96285 29.7172 5.19003L29.4307 5.77278L28.9468 5.37769C28.7196 5.18015 28.6702 4.94309 28.6208 4.67641L28.4924 4.05415L25.1342 4.78506L25.3218 5.72339C25.4996 5.77278 25.6478 5.82217 25.7465 5.90118L25.7268 5.89131ZM33.757 4.47887L33.9446 7.01731C33.9644 7.28399 33.9249 7.43215 33.6285 7.5408L33.6977 8.50877L37.4214 8.21245C40.3944 7.9754 41.2636 7.50129 41.1451 5.99008L41.0266 4.35046C40.9179 2.83925 39.9895 2.5133 37.0164 2.75035L33.2927 3.04667L33.3619 4.00476C33.6681 4.06402 33.7372 4.21218 33.757 4.47887ZM37.135 3.9455C37.8165 3.89611 37.9548 4.00476 37.9844 4.39985L38.1326 6.39504C38.1622 6.80989 38.0338 6.96792 37.3621 7.02719L37.0066 7.05682L36.7794 3.97513L37.135 3.9455ZM45.0861 7.1062C44.7602 7.01731 44.7305 6.86915 44.7404 6.58271L44.8095 5.44683L46.5578 8.16306L49.5308 8.34085L49.758 4.33071C49.7778 4.0739 49.8272 3.91587 50.1432 3.84672L50.1926 2.88864L47.0122 2.69109L46.9529 3.64918C47.3282 3.75783 47.3579 3.89611 47.348 4.17267L47.2788 5.48634L45.58 2.6022L42.2118 2.39478L42.1625 3.35286C42.4588 3.46151 42.518 3.60967 42.4983 3.87636L42.36 6.4148C42.3501 6.68148 42.2711 6.81976 41.9649 6.88891L41.9056 7.85687L45.0367 8.04454L45.096 7.07657L45.0861 7.1062ZM57.4919 9.91133L57.8573 7.94577L55.1115 7.38277C55.1115 7.46178 55.1016 7.52105 55.0818 7.58031C55.0028 8.02478 54.7559 8.15319 54.1139 8.02478C54.025 8.00503 53.946 7.98527 53.8571 7.96552L54.0645 6.87903L55.9609 7.26424L56.1585 6.22713L54.262 5.84192L54.4398 4.88383L54.6966 4.93322C55.3683 5.0715 55.5164 5.21966 55.4473 5.59499L55.4177 5.74315L58.1734 6.30615L58.5092 4.52825L51.3285 3.06643L51.1507 4.00476C51.4273 4.15292 51.4668 4.31095 51.4174 4.56776L50.9532 7.06669C50.9038 7.3235 50.8149 7.46178 50.4988 7.48154L50.3507 8.28159L50.321 8.43963L57.5018 9.90145L57.4919 9.91133ZM60.4155 8.63717L60.2081 9.27919C60.1291 9.536 60.0106 9.64465 59.6352 9.60514L59.3389 10.5237L63.0824 11.8275L63.3787 10.9089C63.0429 10.7015 63.0231 10.5435 63.112 10.2867L63.3194 9.64465L65.7986 8.28159C65.927 8.21245 66.0653 8.17294 66.2332 8.17294L66.5295 7.26424L63.6454 6.25676L63.438 6.90866C63.3589 7.15559 63.2207 7.35313 63.033 7.49141L62.4996 7.84699L62.2823 7.24448C62.1836 6.95805 62.2527 6.73087 62.3416 6.47406L62.5391 5.87155L59.2797 4.73567L58.9833 5.64438C59.1216 5.77278 59.2204 5.90118 59.2698 6.01971L60.4353 8.64705L60.4155 8.63717Z" fill="white"/>
<path fill-rule="evenodd" clip-rule="evenodd" d="M73.0586 52.4328C73.0586 52.4328 73.2364 52.2945 73.4043 52.2747C73.4043 52.2747 74.0562 52.1167 74.4908 52.739C74.8168 53.1933 75.3007 54.102 75.3007 54.102L77.4342 49.0152L76.3971 48.7189C74.9056 48.2053 73.029 48.8572 72.4166 49.1733L72.4857 48.9955C72.4857 48.9955 71.7548 48.6992 71.1227 48.7387C71.0634 48.7387 71.0042 48.7387 70.9449 48.7584C70.5399 48.8375 70.1251 48.9461 69.7201 49.1535L70.2041 47.9781L69.9177 48.1461L68.7917 48.7979L68.6336 48.8868C67.6558 49.4498 66.7175 49.7758 65.8384 49.8943C65.6705 49.9141 65.4729 49.9239 65.2754 49.9239C64.3074 49.9239 63.1024 49.7363 63.1024 49.7363L63.5864 50.5166C63.1221 50.0919 62.5098 49.9141 61.8974 49.8746C61.6208 49.8548 61.3442 49.8548 61.0677 49.8943C60.3269 49.9931 59.596 50.24 58.8651 50.6351C58.5391 50.803 58.2132 51.0104 57.8971 51.2376L58.0946 50.7734L56.1587 51.0006L58.3218 45.7854L56.0106 46.062C56.0106 46.062 55.576 47.4546 53.5511 49.9239C52.9387 50.6746 52.2177 51.2771 51.4177 51.8204C51.4177 51.8204 50.6571 51.5734 49.1163 51.613C48.0594 51.6327 46.7852 52.2253 45.7383 53.1736C45.4321 53.4501 45.116 53.7859 44.8493 54.0823C44.6715 54.2798 44.5036 54.4872 44.3357 54.6946C44.3061 54.4773 44.2567 54.2699 44.1875 54.0625C44.1085 53.8156 43.9999 53.5884 43.8517 53.3711C43.2788 52.5315 42.2812 52.176 40.9478 52.334C40.7206 52.3636 40.5033 52.4031 40.3058 52.4525C38.9625 52.7785 37.8266 53.4995 36.9475 54.2304C35.7326 55.2379 35.0215 56.2651 35.0017 56.2947C34.9721 55.5638 34.8042 54.9514 34.4782 54.4675C34.4782 54.4576 34.4585 54.4477 34.4486 54.428C33.8659 53.618 32.8781 53.2822 31.5743 53.4205C30.3891 53.5489 29.1149 54.181 28.2655 54.7737C28.6507 54.0921 28.9569 53.4106 29.1742 52.7587C29.3619 52.1858 29.4705 51.6525 29.5001 51.1586C29.5298 50.724 29.5001 50.3289 29.431 49.9733C29.3125 49.4202 29.0655 48.9757 28.7001 48.6597C28.5322 48.5115 28.3445 48.393 28.1371 48.314C27.7025 48.1559 27.3568 48.0967 26.7148 48.1065C26.3592 48.1065 25.9147 48.1362 25.3221 48.1658C25.2529 48.1658 11.9286 49.5387 11.9286 49.5387C11.9286 49.5387 15.2374 51.1784 15.6227 51.3759L15.84 51.4845C15.84 51.4845 16.0177 51.5932 15.9486 51.9982C15.9288 52.1167 15.8893 52.255 15.8202 52.4328L15.3066 53.6477C13.4497 58.0233 11.5928 62.3989 9.72596 66.7745C9.35063 67.614 9.04444 68.177 8.55058 68.8388C7.55298 70.1821 5.02441 72.3156 5.02441 72.3156L15.8597 71.1106L15.3856 70.0043C15.3362 69.8957 14.9609 68.9672 15.356 67.7227C15.4745 67.3473 16.1264 65.8263 16.4919 64.9669L16.5709 66.6164C16.64 68.3252 17.124 69.55 18.0722 70.1722C18.7932 70.6463 18.6648 70.5871 19.6229 70.8933C19.6229 70.8933 20.0378 71.7229 21.0749 72.2464C23.4652 73.4613 27.0901 73.8465 31.3966 73.4218C32.3546 73.3231 33.3029 73.1946 34.2511 73.0366C35.061 72.8983 35.8808 72.7304 36.7302 72.5428C37.1056 72.4539 37.471 72.365 37.8266 72.2761C43.0615 70.9624 46.963 69.629 50.1336 68.5524C50.5386 68.4141 50.9435 68.2758 51.3485 68.1375C53.2746 67.4757 55.2006 66.8238 57.0378 66.3399C57.4724 66.2213 57.9169 66.1127 58.3613 66.0238C58.5885 65.9744 58.8157 65.9151 59.0429 65.8756C59.5565 65.7867 60.0306 65.7077 60.4849 65.6386C63.4678 65.1941 65.3643 65.1941 67.0434 65.4608L68.9793 65.767C68.9793 65.767 67.2113 64.2953 63.9321 63.8212C63.3296 63.7323 62.7271 63.673 62.1245 63.6533C61.8875 63.6533 61.6504 63.6533 61.4134 63.6533L62.2036 63.5644L65.8285 63.1397L65.5618 62.8137C65.5618 62.8137 66.9545 63.1693 67.6657 63.2088C67.962 63.2285 68.2879 63.2088 68.5842 63.1792C70.3819 62.9717 71.9425 61.9643 73.3549 60.1074C74.1649 59.0505 74.7773 57.964 75.0933 56.9565C75.5674 55.4749 75.3106 54.3292 74.5797 53.6773C73.9476 53.1143 72.8117 52.9069 73.0784 52.4821L73.0586 52.4328Z" fill="white"/>
<path fill-rule="evenodd" clip-rule="evenodd" d="M61.4825 64.3939C62.1838 64.3741 62.8851 64.384 63.5765 64.4235C65.2655 64.542 66.5199 64.9273 66.2532 64.9075C64.663 64.7593 63.3493 64.6507 61.038 64.9174C60.4355 64.9865 59.7737 65.0853 59.0231 65.2038C58.8947 65.2236 58.7663 65.2433 58.628 65.273C58.3514 65.3322 58.065 65.3816 57.7884 65.4507C56.05 65.836 54.361 66.3397 52.5535 66.9422C48.5927 68.2559 44.0492 69.9745 37.0463 71.6833C36.9475 71.703 36.8487 71.7327 36.7598 71.7524C35.6635 71.9993 34.5572 72.2068 33.451 72.3747C33.1053 72.4241 32.7596 72.4734 32.4237 72.5129C31.8114 72.592 31.199 72.6512 30.5866 72.7006C26.5863 72.9969 23.5046 72.4932 21.5193 71.4956C21.4008 71.4363 21.2921 71.3672 21.1934 71.2981C21.9638 71.4363 22.7638 71.5351 23.5935 71.5647C25.3615 71.6438 27.1296 71.4758 28.8383 71.1005C29.3618 70.982 29.8754 70.8536 30.3792 70.6955C31.6533 70.3202 32.8781 69.8165 34.0535 69.2041C35.7919 68.2954 37.3327 67.1595 38.5871 65.8656C39.1798 66.0236 39.9699 66.2508 40.4243 66.3496C41.0959 66.4977 41.7676 66.6163 42.4787 66.6558C45.0369 66.7842 47.9507 66.2903 50.6176 65.8853C51.8028 65.7076 52.998 65.4903 54.1931 65.2828C54.7265 65.1939 55.25 65.0952 55.7735 65.0162C56.692 64.868 57.6007 64.7297 58.5095 64.6211C58.8749 64.5816 59.2404 64.542 59.6157 64.5025C60.238 64.4433 60.8503 64.4038 61.4627 64.3939H61.4825ZM47.931 56.7884C48.1384 56.907 48.3557 57.0354 48.7211 57.3119C49.1656 57.6379 49.3533 58.2404 49.2644 59.0207L51.0127 54.813L51.1608 54.4574L50.3608 54.5562L50.3114 54.6648L49.9953 55.4155C49.9459 55.3069 49.8768 55.2278 49.7978 55.1488C49.452 54.734 48.9977 54.5364 48.4545 54.5266C48.4545 54.5266 47.6445 54.5858 47.2692 55.0105C47.1112 55.1785 46.9926 55.376 46.9235 55.5933C46.8543 55.8007 46.8445 55.9884 46.9531 56.1168C47.2988 56.5218 47.9211 56.7983 47.9211 56.7983L47.931 56.7884ZM52.3461 61.1937C52.4152 61.2134 52.672 61.164 52.672 61.164C52.7313 60.522 52.8893 59.7911 53.1461 58.9614C53.5017 57.8552 54.0746 56.6699 54.8351 55.5044C55.1314 55.05 55.4574 54.5957 55.7932 54.171C55.7043 54.0623 55.5957 54.0129 55.329 54.0129L54.1437 54.1117L51.6942 60.0479C51.4077 60.9467 51.5756 61.2035 52.3559 61.2035L52.3461 61.1937Z" fill="white"/>
<path fill-rule="evenodd" clip-rule="evenodd" d="M17.6965 47.6027C15.2371 42.2295 13.637 36.2834 13.637 30.0015C13.637 27.1766 13.8148 24.3517 14.1506 21.5762C16.8174 19.8181 19.7213 18.3365 22.7833 17.1315C21.1535 16.2425 19.9979 15.8079 19.9979 15.8079C22.7438 15.4919 25.2131 15.4622 27.3762 15.5906C31.5048 14.4251 35.8508 13.7436 40.2857 13.6152C41.4907 12.5583 42.8636 11.6496 44.286 10.8792C43.5254 10.8496 42.7649 10.8298 42.0043 10.8298C30.369 10.8298 19.7312 14.2869 11.5924 19.9959C11.1282 23.3146 10.8911 26.6531 10.8911 30.0015C10.8911 36.3328 12.432 42.3776 14.8321 47.899C15.7803 47.8002 16.7483 47.7014 17.7064 47.6027H17.6965ZM48.8393 70.2807C45.6391 72.918 43.0612 74.4489 42.0043 74.6267C41.4413 74.5181 40.4635 74.0242 39.1893 73.1945C38.3596 73.4118 37.5003 73.6291 36.6311 73.8365C36.2953 73.9156 35.9496 73.9946 35.6236 74.0637C38.5177 76.2071 40.8586 77.3923 41.9944 77.3923C44.0785 77.3923 49.5406 73.9353 55.3188 68.0979C53.9162 68.5226 52.4742 69.0165 51.0518 69.5103C51.0518 69.5103 50.2419 69.8165 48.8393 70.2906V70.2807ZM54.3903 15.0276C58.5486 15.0276 61.976 16.0351 61.976 16.0351C61.2056 16.1635 60.4944 16.3808 59.8327 16.6376C62.4205 17.5562 64.9293 18.702 67.3295 20.065C69.3642 20.8256 70.6285 21.6059 70.6285 21.6059C70.3618 21.6651 70.105 21.7244 69.858 21.7935C70.184 24.5196 70.3519 27.2655 70.3519 30.0114C70.3519 36.6982 68.6036 42.9604 65.9664 48.5509C66.0059 48.5509 66.0454 48.5509 66.0849 48.5509C66.7764 48.462 67.527 48.1953 68.3172 47.741L69.5815 47.0002C71.7347 41.7257 73.0978 36.0068 73.0978 30.0212C73.0978 26.584 72.8508 23.2455 72.3965 20.0156C66.2035 15.6697 58.5585 12.6275 50.1234 11.4323C49.5505 12.2423 49.0566 13.1115 48.6616 14.03C50.6074 14.2671 52.5137 14.6128 54.3903 15.0573V15.0276Z" fill="#CE3729"/>
<path fill-rule="evenodd" clip-rule="evenodd" d="M37.7078 19.5613C37.7078 19.5613 32.4532 17.1019 25.0354 17.2303C25.0354 17.2303 30.8728 20.2823 33.3421 26.2086C33.4409 26.4457 33.5298 26.6827 33.6187 26.9198C35.278 26.6037 37.1053 27.4235 38.498 28.8261C39.9401 30.278 40.908 32.3621 40.7401 34.4956C40.7401 34.4956 39.9697 35.9377 38.8338 35.3549C38.5869 35.2364 38.3301 35.0191 38.0634 34.6833C38.0634 34.6833 37.8659 34.7919 37.6683 35.1673C37.6683 35.1673 37.6288 34.9105 37.4807 34.624C35.3867 38.644 30.1616 39.0391 29.9839 39.2861C29.9839 39.2861 30.132 39.8096 30.2209 40.017C30.2209 40.017 29.6579 40.9356 28.6307 42.506L29.8357 41.7554C29.8357 41.7554 30.6753 40.5602 30.9716 39.9083C30.9716 39.9083 33.3224 40.0071 37.4313 36.6785C37.4313 36.6785 37.4214 37.0044 37.4807 37.5378C37.5399 38.0514 37.6486 38.7527 37.8856 39.5626C37.8856 39.5626 31.6037 41.6665 24.7489 46.8619C25.2823 46.8026 25.5885 46.773 25.6181 46.773C25.6181 46.773 27.9689 46.6643 28.8381 46.9903C28.9072 47.0199 28.9863 47.0594 29.0554 47.0891C30.4678 46.5754 31.9593 46.1606 33.4804 45.8939C33.4804 45.8939 33.9644 46.5853 34.6656 47.1779C34.6656 47.1779 32.8087 47.4249 30.211 48.1558C30.4777 48.5904 30.6555 49.104 30.7246 49.6966C32.8581 49.3509 35.1793 49.1534 37.5498 49.262C37.5498 49.262 39.6931 50.7337 46.301 48.9361C45.5898 48.6793 44.8491 48.1854 44.8984 47.4446C45.0071 46.0223 48.9481 44.3136 49.2247 39.0293C49.3926 35.9772 47.427 31.5522 44.3947 29.4089C44.3947 29.4089 45.5207 27.0087 49.7877 26.1988C49.7877 26.1988 45.096 21.8725 38.2313 25.3394C38.2313 25.3394 38.8733 22.5047 41.5501 20.6478C41.5501 20.6478 40.9574 21.5565 41.0167 22.6627C41.0167 22.6627 42.1032 20.9243 43.6638 20.0453C43.6638 20.0453 43.0316 20.8947 42.9427 22.1096C42.9427 22.1096 44.128 20.549 46.0639 19.8082C46.0639 19.8082 45.0268 20.8651 44.7799 21.9516C44.7799 21.9516 45.896 20.786 47.4072 20.5391C47.4072 20.5391 46.6566 20.8651 46.2615 21.9219C46.2615 21.9219 48.5826 21.9219 51.6149 23.9764C52.0001 24.2332 52.652 24.8061 53.0768 25.2901C54.0645 26.4259 55.1707 28.7273 56.1881 31.3448C56.1881 31.3448 56.198 31.0682 56.3165 30.8509C57.4919 28.4409 61.1267 23.0084 67.1715 21.5663C67.1715 21.5663 62.6774 18.6131 53.3434 20.6675C53.3434 20.6675 54.4102 17.8822 57.4919 16.4697C57.4919 16.4697 53.5607 15.4129 46.1133 17.8822C46.1133 17.8822 46.0936 16.0647 47.0023 13.793C47.3776 12.8645 47.8616 11.9756 48.4345 11.1657C48.6123 10.9286 48.7901 10.6915 48.9777 10.4644C49.037 10.3952 49.0962 10.3162 49.1555 10.2471C49.1555 10.2471 48.9678 10.3063 48.632 10.4249C48.2863 10.5533 47.7628 10.7607 47.1504 11.0372C45.6491 11.7287 44.2169 12.5781 42.8934 13.5757C41.0068 14.998 39.061 16.9438 37.6584 19.5316L37.7078 19.5613ZM26.1021 70.2017C26.6256 70.1425 27.1491 70.0634 27.6627 69.9548C27.8504 69.9153 28.038 69.8856 28.2257 69.8461C28.5615 69.777 28.8875 69.6881 29.2134 69.5795C29.4307 69.5103 29.6382 69.4214 29.8456 69.3226C29.5591 69.3523 29.2826 69.372 28.9961 69.372C28.5912 69.372 28.1862 69.372 27.7812 69.3325C27.4948 69.3029 27.2084 69.2733 26.9318 69.214C26.2305 69.0955 25.391 68.8979 25.0057 68.73C23.9785 68.2757 23.3859 68.009 22.9612 66.9817C22.6451 66.2212 22.5759 65.3224 22.6056 64.3742C22.6253 63.742 22.6945 63.0803 22.7735 62.4284L22.9019 61.3616C22.9513 60.9665 22.9908 60.5813 23.0204 60.1862C23.0599 59.6924 23.1093 59.1886 23.1785 58.6948L23.86 58.3392C23.9193 58.3096 23.9785 58.2701 24.0378 58.2404C25.2527 57.5589 26.1317 56.749 26.8725 55.7119C26.9713 55.5736 27.0701 55.4353 27.159 55.297C27.7714 54.3784 28.206 53.5092 28.4825 52.6697C28.6406 52.1659 28.7393 51.6918 28.769 51.2671C28.7986 50.8325 28.769 50.4374 28.6603 50.1016C28.5023 49.588 28.1862 49.2127 27.7121 49.025C27.6825 49.0151 27.6528 49.0052 27.6331 48.9954C27.159 48.8274 26.7639 48.8176 25.144 48.9163C25.1243 48.9163 14.9014 49.9534 14.9014 49.9534C14.9014 49.9534 16.2545 50.7041 16.3237 50.7436C16.8077 50.9609 16.8669 51.3165 16.7385 51.84C16.6793 52.0672 10.3875 66.883 10.3875 66.883C9.64669 68.5621 8.97504 69.5103 7.4737 70.9425C7.33542 71.0709 7.21689 71.1598 7.07861 71.2981L14.7038 70.4486C14.6544 70.34 14.6248 70.261 14.605 70.1523C14.3581 69.2535 14.3482 68.6016 14.6742 67.6435C15.2174 66.0335 17.1336 61.8061 17.1336 61.8061C17.1336 63.2087 17.262 64.7199 17.3213 66.3299C17.3707 67.5645 17.667 68.7992 18.6053 69.451C20.5314 70.7943 23.5538 70.4882 26.1219 70.2017H26.1021Z" fill="#CE3729"/>
<path fill-rule="evenodd" clip-rule="evenodd" d="M60.1488 58.2404L62.1539 58.0033C62.3119 57.6872 62.9638 56.018 63.112 55.5439C63.4379 54.5167 63.6058 53.6672 63.6157 52.9659C63.6355 51.4942 62.9737 50.7337 61.66 50.6349C61.423 50.6152 61.1859 50.625 60.9489 50.6448C60.0402 50.7633 59.1512 51.1485 58.2623 51.7609C57.7487 52.1165 57.2746 52.5116 56.84 52.9561C56.593 53.2129 56.3659 53.4697 56.1288 53.7364L56.998 51.6325L55.0621 51.8597L57.2252 46.6445L56.4054 46.7433C55.9016 47.8496 55.151 49.0348 54.0052 50.3287C53.2051 51.2572 52.2668 52.0572 51.2297 52.6993L51.0717 52.798L51.1704 52.5709C51.1704 52.5709 50.3704 52.2252 48.9876 52.3536C47.8122 52.4622 47.0023 52.877 46.1133 53.6672C45.975 53.7956 45.8269 53.9339 45.6787 54.0821C45.5799 54.1808 45.491 54.2697 45.3923 54.3685C44.4144 55.4846 43.7823 56.5612 43.4761 57.5391C43.1205 58.6256 43.2193 59.5442 43.7131 60.0578C44.4144 60.7986 45.175 60.9171 45.3923 61.3221C45.4318 61.4505 45.4318 61.5394 45.3528 61.7962C45.0564 62.7147 43.9897 63.7222 42.3501 62.3789C41.9846 62.0727 41.7476 61.6579 41.6291 61.3912C41.8167 61.0653 42.0143 60.7294 42.1921 60.3739C42.6365 59.5244 42.9921 58.6848 43.2292 57.9243C43.7823 56.2155 43.7922 54.8426 43.2786 53.9932C42.844 53.2721 42.034 52.9166 40.829 53.0548C40.6413 53.0746 40.4537 53.124 40.2561 53.1635C39.5252 53.3413 38.8239 53.6573 38.1424 54.1018C37.2732 54.6747 36.4435 55.455 35.6336 56.4822C34.7743 57.5588 34.31 58.2503 33.668 59.5639C33.7767 59.2972 33.7668 59.2676 33.8458 59.0108C34.5471 56.8279 34.3792 55.1784 33.3421 54.4772C32.8779 54.171 32.2556 54.0426 31.4457 54.1413C30.7938 54.2203 30.0036 54.5167 29.1937 54.9809C28.117 55.5933 27.0305 56.4921 26.2502 57.5786C25.7959 58.2009 25.3811 58.8429 24.9958 59.5047C24.2254 60.8183 23.7908 61.8554 23.6328 62.2802C23.613 62.3295 23.6032 62.3789 23.5834 62.4283C23.5044 62.6851 23.4352 62.932 23.376 63.1691C23.2179 63.8309 23.1291 64.4531 23.1389 65.0063C23.1686 66.5471 23.8896 67.5447 25.3811 67.5645C25.549 67.5645 25.707 67.5645 25.8749 67.5348C26.112 67.5052 26.3688 67.4558 26.6355 67.3768C26.7441 67.3472 26.8528 67.3076 26.9515 67.2681C27.2083 67.1792 27.4651 67.0805 27.722 66.9619C27.7516 66.9422 27.7911 66.9323 27.8207 66.9224C28.6109 66.5175 29.3517 65.994 30.0332 65.3322C31.0604 64.3445 31.979 63.0604 32.7988 61.4603C32.9569 61.1541 32.9964 61.1245 33.1248 60.8282C33.0161 61.0949 33.0359 61.085 32.9569 61.3319C31.9593 64.4334 32.6112 66.7545 35.2484 66.4385C35.4854 66.4088 35.7422 66.3594 36.0089 66.2804C36.4139 66.1619 36.8189 66.0039 37.2041 65.8261C38.8239 65.0063 40.187 63.6728 41.392 61.7764L40.7796 65.0458C40.7796 65.0458 41.9056 65.352 42.5773 65.3816C42.8538 65.3915 43.1403 65.3816 43.407 65.352C45.0169 65.1643 46.3207 64.2556 47.5257 62.6851C47.743 62.4086 47.9307 62.1419 48.1085 61.8752C48.1085 61.8752 47.8319 62.5666 47.7727 62.7246C47.3578 64.0284 47.6245 64.9075 48.8493 64.7593C49.1357 64.7297 49.7975 64.5519 50.1432 64.384L52.6718 61.3122C52.5434 63.2086 53.3829 64.1766 55.3386 64.1173C55.5164 64.1173 55.7041 64.0976 55.9016 64.0778C57.0474 63.8704 58.5783 63.2185 58.5783 63.2185L61.5218 59.317C60.8699 59.801 60.4254 60.0578 59.3586 60.5023C58.8549 60.7097 58.4401 60.848 58.0845 60.9467C57.8968 60.9961 57.7092 61.0356 57.5215 61.0653C56.8004 61.1542 56.435 60.9171 56.2473 60.3739C56.03 59.7615 56.0498 59.238 56.1979 58.7145L60.1686 58.2502L60.1488 58.2404Z" fill="#CE3729"/>
<path fill-rule="evenodd" clip-rule="evenodd" d="M76.0709 49.4892C74.1547 48.946 72.3077 49.8843 71.4187 50.6745C71.2409 50.8325 71.0533 51.0103 70.8755 51.198L71.5471 49.5683C71.3101 49.5287 71.0632 49.5189 70.8261 49.5386C70.8162 49.5386 70.7965 49.5386 70.7866 49.5386C70.1248 49.6275 69.4334 50.0029 68.7914 50.6152C68.5445 50.8523 68.2975 51.1091 68.0704 51.4054L68.8408 49.5386C68.6729 49.6374 68.4951 49.7263 68.3173 49.8152C67.4185 50.2794 66.5394 50.556 65.7196 50.6548C65.443 50.6844 65.1566 50.7041 64.88 50.6844C64.8208 50.6844 64.7615 50.6844 64.7121 50.6844C64.7417 50.7338 64.7714 50.793 64.801 50.8424C64.9985 51.2375 64.9985 51.6425 64.7319 52.4623C64.6133 52.8376 61.4625 60.4332 61.4131 60.5517C60.9489 61.6086 60.6625 62.053 59.9217 62.7741C59.813 62.8827 59.7142 62.9815 59.6056 63.0605L59.8624 63.0309L60.939 62.9025L62.8256 62.6852L64.2182 62.5272C64.1689 62.4679 64.1392 62.379 64.0997 62.2901C63.9812 61.895 64.001 61.49 64.1491 60.9172C64.1689 60.8283 64.1985 60.7394 64.238 60.6307L66.085 56.1564C66.648 54.8131 66.895 54.3982 67.458 53.7463C67.9321 53.2327 68.3864 52.9265 68.8111 52.887C68.9297 52.8672 69.0383 52.887 69.1568 52.9068C69.2754 52.9265 69.3741 52.9858 69.4828 53.0549C69.1766 53.5784 68.9494 54.0723 68.7914 54.5464C68.4358 55.6329 68.5148 56.5811 69.0186 57.0749C69.0186 57.0749 69.4433 57.5194 70.0063 57.8256C70.273 57.9738 70.5594 58.1219 70.6483 58.2009C70.7372 58.2997 70.7471 58.5565 70.6582 58.8133C70.589 59.0306 70.2236 59.8208 69.3939 59.9887C69.2457 60.0183 68.8408 59.9887 68.5741 59.8998C68.3074 59.8208 67.942 59.6628 67.6456 59.3961C67.0826 58.8726 66.816 58.1219 66.816 58.1219L66.0752 62.0629C66.0752 62.0629 67.8432 62.4679 68.6926 62.3691C70.3026 62.1815 71.6163 61.2727 72.8114 59.7023C73.6016 58.675 74.1152 57.7071 74.3819 56.8774C74.7671 55.6921 74.6288 54.7538 74.0362 54.3192C73.6707 54.0426 72.5645 53.4994 72.278 53.1142C72.0212 52.7586 72.3373 52.245 72.5941 52.0079C72.8608 51.7511 73.3349 51.5733 73.7794 51.5239C74.4807 51.4548 75.1721 52.0277 75.3104 52.4129L76.4857 49.588L76.0808 49.4991L76.0709 49.4892ZM63.5762 64.4236C62.8749 64.3742 62.1737 64.3643 61.4823 64.3939C60.8699 64.4137 60.2575 64.4532 59.6352 64.5026C59.2698 64.5322 58.9043 64.5717 58.529 64.6211C57.6203 64.7298 56.7116 64.8681 55.793 65.0162C55.2695 65.1051 54.7361 65.194 54.2126 65.2829C53.0175 65.4903 51.8224 65.7076 50.6371 65.8854C47.9702 66.2904 45.0466 66.7842 42.4983 66.6558C41.7871 66.6163 41.1056 66.4978 40.4438 66.3496C39.9895 66.2509 39.1993 66.0237 38.6067 65.8657C37.3522 67.1694 35.8015 68.2954 34.073 69.2041C32.8976 69.8165 31.6729 70.3203 30.3987 70.6956C29.895 70.8536 29.3715 70.982 28.8578 71.1006C27.1491 71.4759 25.3811 71.6438 23.6131 71.5648C22.8031 71.5253 22.0031 71.4364 21.2129 71.2981C21.3215 71.3771 21.4302 71.4463 21.5388 71.4957C23.5242 72.4933 26.6058 72.9871 30.6061 72.7007C31.2185 72.6513 31.8309 72.592 32.4433 72.513C32.789 72.4735 33.1347 72.4241 33.4705 72.3747C34.5274 72.2167 35.6237 72.0093 36.7794 71.7525C36.8781 71.7327 36.9769 71.7031 37.0658 71.6833C44.0687 69.9746 48.6123 68.2559 52.573 66.9423C54.3806 66.3496 56.0696 65.836 57.8079 65.4508C58.0845 65.3915 58.3611 65.3323 58.6475 65.273C58.7858 65.2533 58.9043 65.2236 59.0426 65.2039C59.7933 65.0755 60.4649 64.9767 61.0575 64.9174C63.3688 64.6508 64.6825 64.7594 66.2727 64.9076C66.5394 64.9273 65.2751 64.5421 63.596 64.4236H63.5762Z" fill="#CE3729"/>
<path fill-rule="evenodd" clip-rule="evenodd" d="M34.1323 44.5204C35.1694 43.7697 36.3052 42.9006 36.3644 42.7031C36.1471 42.5154 36.0385 42.3771 36.0385 42.3771C39.841 40.9055 40.0978 36.708 40.0978 36.708C40.1373 41.0537 36.7496 42.7031 36.7496 42.7031C36.8582 42.871 37.1052 42.95 37.1052 42.95C36.1768 43.6413 35.357 44.5006 35.357 44.5006C38.9718 49.3105 42.0928 48.945 42.0928 48.945C37.7768 49.6957 34.1323 44.5302 34.1323 44.5302V44.5204Z" fill="#164C82"/>
<path fill-rule="evenodd" clip-rule="evenodd" d="M45.4119 31.9373C47.4367 35.7302 46.2317 40.0762 46.2317 40.0762C46.8145 36.1648 45.3329 33.1424 44.3155 31.6015C43.8315 30.8607 43.4463 30.4558 43.4463 30.4558C43.6636 30.9792 43.8118 31.5027 43.9007 31.967C44.1081 32.9942 44.0785 33.7449 44.0785 33.7449C43.9501 33.2411 43.7822 32.7473 43.5649 32.2633C43.0908 31.2361 42.5771 30.6928 42.5771 30.6928C42.8438 31.3151 43.0512 31.9472 43.2093 32.5892C44.7699 38.9502 41.0758 45.4987 41.0758 45.4987C43.229 41.0639 43.15 36.1845 42.7352 33.3992C42.7154 33.2806 42.6957 33.172 42.6759 33.0633C42.2216 30.4953 41.0758 29.5273 41.0758 29.5273C39.93 29.8236 38.4287 28.5198 38.4287 28.5198C38.4287 28.5198 38.8534 28.6976 39.6239 28.3815C40.3844 28.0655 40.8388 27.1963 41.5598 26.574C42.666 25.6258 45.7872 25.7937 45.7872 25.7937C43.1796 26.2876 42.1425 28.8359 42.1425 28.8359C42.4487 28.8359 42.7549 28.9149 43.0809 29.0927C43.8315 29.5174 44.6217 30.4558 45.4119 31.9275V31.9373Z" fill="#164C82"/>
<path fill-rule="evenodd" clip-rule="evenodd" d="M37.6781 35.1771C37.8855 34.8117 38.0732 34.6932 38.0732 34.6932C38.3399 35.029 38.5967 35.2463 38.8436 35.3648C39.5251 35.108 40.2561 34.545 40.1276 33.3202C39.9005 31.3053 39.2782 29.8632 38.5078 28.836C37.1151 27.4334 35.2878 26.6136 33.6284 26.9297C33.5395 26.6926 33.4507 26.4556 33.3519 26.2185C24.2649 26.337 24.571 32.7572 24.571 32.7572C24.571 32.7572 25.9637 31.6608 28.4725 31.0682L29.5887 29.7052L30.9517 30.3077C30.9517 30.3077 30.7048 30.0509 31.9098 29.8138C33.0161 29.5965 34.5767 29.8731 35.1298 29.8138C35.673 29.7545 35.8903 29.6261 36.1373 29.6558C36.3842 29.6854 36.4434 29.7842 36.7101 30.12C37.3423 30.9003 37.3917 31.651 37.3917 31.651C37.3917 31.651 35.8409 30.4262 35.4557 30.4262C35.0705 30.4262 31.7814 30.9003 28.0676 32.4411C28.0676 32.4411 29.8257 32.6387 30.1418 32.6091C31.5048 32.4411 33.184 31.967 34.8828 32.6387C36.7892 33.3894 37.3423 34.1104 37.5102 34.6536C37.6583 34.9401 37.6979 35.1969 37.6979 35.1969L37.6781 35.1771Z" fill="#F4CF53"/>
<path fill-rule="evenodd" clip-rule="evenodd" d="M34.8532 28.1744C34.4581 28.9349 32.71 28.5003 32.71 28.5003C34.6853 28.5793 34.4779 27.6806 33.7964 27.6016C33.7964 27.6016 35.0902 27.7201 34.8532 28.1744Z" fill="#164C82"/>
<path fill-rule="evenodd" clip-rule="evenodd" d="M41.4514 27.3447C41.4514 27.3447 40.5328 28.8559 39.2686 28.7967C39.2686 28.7967 39.713 29.1127 40.2958 29.2313C40.8292 29.3399 42.2317 28.7769 41.4514 27.3447ZM49.2643 59.0111C49.3532 58.2308 49.1655 57.6282 48.721 57.3023C48.4741 57.1048 48.2074 56.9368 47.9309 56.7788C47.9309 56.7788 47.3185 56.5022 46.9629 56.0973C46.8543 55.9689 46.8641 55.7911 46.9333 55.5738C47.0024 55.3565 47.1209 55.1589 47.279 54.991C47.6543 54.5762 48.4642 54.507 48.4642 54.507C48.9976 54.507 49.4618 54.7046 49.8075 55.1293C49.8767 55.2083 49.9557 55.2972 50.0051 55.396L50.3212 54.6453L50.3705 54.5367L51.1706 54.4379L51.0224 54.7935L49.2742 59.0012L49.2643 59.0111Z" fill="white"/>
<path fill-rule="evenodd" clip-rule="evenodd" d="M60.9192 58.9122C60.4846 59.2085 60.0895 59.4258 59.2499 59.7715C59.1116 59.8307 58.9931 59.8702 58.8746 59.9196C58.3412 60.1172 57.9264 60.2357 57.6202 60.2752C57.1559 60.3345 57.0275 60.2061 56.9288 59.9196C56.8695 59.7517 56.83 59.5739 56.8102 59.3863L59.5265 59.0702L60.9192 58.9023V58.9122ZM53.4915 64.6508C52.7705 64.7792 52.0396 64.8977 51.3086 65.0163C51.5556 64.6903 52.326 63.673 52.326 63.673C52.3556 63.7224 52.3853 63.7816 52.4149 63.831C52.6717 64.2063 53.0372 64.473 53.4915 64.6607V64.6508ZM47.98 65.52C46.7651 65.6879 45.5601 65.8262 44.4045 65.8657C45.2737 65.5793 46.0836 65.0755 46.854 64.3545C46.8935 64.5916 46.9725 64.799 47.0911 64.9669C47.2392 65.1842 47.5158 65.4212 47.98 65.5101V65.52ZM30.4776 69.7376L32.1469 68.7597C31.7024 68.8091 30.3887 68.7301 29.3516 68.661C28.917 68.6313 28.4725 68.5918 28.0379 68.5622C27.3959 68.5128 26.8626 68.3943 26.4082 68.2066C26.4773 68.1869 26.5465 68.177 26.6156 68.1572C26.9021 68.0683 27.1885 67.9696 27.4651 67.851C27.6231 67.7918 27.7713 67.7226 27.9293 67.6535C28.0182 67.6041 28.1071 67.5547 28.196 67.5053C29.0257 67.051 29.7961 66.4781 30.4677 65.8163C30.9418 65.3521 31.3764 64.8582 31.7715 64.3347C31.811 65.0755 31.9888 65.7176 32.3247 66.2015C32.8877 67.0312 33.8556 67.3868 35.11 67.2386C35.4063 67.1991 35.7027 67.1399 35.9891 67.0609C36.1373 67.0213 36.2953 66.9621 36.4533 66.9028C35.5249 67.6041 34.5371 68.2165 33.5 68.7202C32.5716 69.1845 31.6036 69.5697 30.6159 69.8759C30.3492 69.9648 30.0825 70.0438 29.8158 70.1129C29.8751 70.0833 29.9442 70.0635 30.0035 70.024L30.4776 69.7475V69.7376ZM65.275 62.4581C65.275 62.4581 64.5244 61.7173 64.9194 60.7098L66.2825 57.4207L66.1738 57.9541L65.275 62.4581ZM68.0801 54.4872C68.011 54.6946 67.9616 54.902 67.9221 55.0996C67.6949 56.2157 67.8727 57.1639 68.4357 57.6973L68.8604 58.0924C69.1666 58.3294 69.9371 58.7442 69.9568 58.7541C69.9371 58.8233 69.8284 59.1393 69.5222 59.1887C69.4432 59.1986 69.3642 59.1887 69.2555 59.1788C69.2555 59.1788 68.8111 59.1591 68.2085 58.7146C67.6949 58.3393 67.2208 57.4503 66.9146 56.7886C66.8455 56.6503 66.7862 56.5021 66.727 56.354L66.7665 56.2651C67.2801 55.0205 67.4776 54.7045 67.932 54.1711C68.0604 54.0328 68.2085 53.8847 68.3666 53.7859C68.2678 54.0131 68.1789 54.2402 68.0999 54.4773L68.0801 54.4872ZM47.7528 55.4058C47.7528 55.4058 48.5628 54.9119 49.185 55.7317C49.353 55.9589 49.4912 56.2157 49.5801 56.4922L49.4517 56.7984C48.9282 56.2058 47.7528 55.9095 47.6442 55.5737C47.6244 55.5243 47.6837 55.4551 47.743 55.4058H47.7528Z" fill="#164C82"/>
<path fill-rule="evenodd" clip-rule="evenodd" d="M22.7634 56.0773C23.3066 55.2872 23.5042 54.6255 23.5634 54.4576C23.84 53.5884 23.7017 53.0057 23.04 52.7687C22.7239 52.66 22.2894 52.6304 21.7264 52.6897C21.2128 52.7489 20.9659 52.8872 20.9659 52.8872L20.7585 53.3712L20.64 53.6477L19.2671 56.8279L19.0696 57.2921L18.4375 58.7539C18.4375 58.7539 19.1585 58.7539 19.761 58.4971C19.7906 58.4872 19.8202 58.4675 19.8498 58.4576C20.0869 58.3489 20.314 58.2304 20.5215 58.1119C21.4992 57.5588 22.1708 56.8971 22.6252 56.2749C22.6745 56.2057 22.7239 56.1465 22.7733 56.0773H22.7634Z" fill="white"/>
<path fill-rule="evenodd" clip-rule="evenodd" d="M20.1266 57.539C19.8006 57.7168 19.5735 57.8057 19.5537 57.8057L21.4105 53.4995C21.4105 53.4995 23.3068 53.1143 22.8624 54.3982C22.7636 54.6847 22.6056 55.0106 22.4475 55.3168C22.3784 55.4452 22.2994 55.5637 22.2204 55.6921C22.0821 55.8995 21.9241 56.097 21.7661 56.2748C21.213 56.8773 20.571 57.2921 20.1266 57.539Z" fill="#164C82"/>
<path fill-rule="evenodd" clip-rule="evenodd" d="M26.8039 61.7663C26.2113 63.9095 26.5471 64.9169 27.2582 64.8379C27.6039 64.7786 28.078 64.4724 28.5718 63.949C28.5915 63.9292 28.6212 63.8996 28.6409 63.87C29.1545 63.2774 29.9841 61.8453 30.5965 59.9589C31.4064 57.4897 31.1891 56.4922 30.0434 56.6305C29.194 56.8873 28.0483 58.2996 27.0607 60.8971C26.952 61.2033 26.8631 61.4996 26.794 61.7663H26.8039Z" fill="white"/>
<path fill-rule="evenodd" clip-rule="evenodd" d="M27.7617 60.9663C28.4926 58.8824 29.5494 57.5984 29.9938 57.4009C30.1815 57.4009 30.2309 57.4503 30.2506 57.47C30.3395 57.5885 30.4679 58.0725 29.905 59.9095C29.7766 60.3145 29.6284 60.7194 29.4704 61.1145C29.0161 62.2206 28.621 62.9219 28.2161 63.3861C28.1864 63.4157 28.1667 63.4453 28.1371 63.475C27.7815 63.8503 27.4951 64.0182 27.3667 64.0577C27.258 64.0577 27.2284 64.0379 27.2185 64.028C27.0506 63.9194 27.0309 63.4453 27.3272 62.3688C27.4358 61.9836 27.584 61.5194 27.7716 60.9663H27.7617Z" fill="#164C82"/>
<path fill-rule="evenodd" clip-rule="evenodd" d="M36.6414 63.7316C36.987 63.6724 37.4907 63.386 37.9549 62.8428C39.2784 61.3316 39.8414 59.2971 39.9895 58.8428C40.7599 56.3637 40.5821 55.3761 39.4364 55.5144C38.5969 55.7712 37.4512 57.1835 36.4537 59.781C35.4858 62.7341 35.8315 63.8205 36.6414 63.7218V63.7316Z" fill="white"/>
<path fill-rule="evenodd" clip-rule="evenodd" d="M37.1447 59.8701C38.0237 57.5788 38.9324 56.5121 39.3768 56.3047C39.5645 56.3047 39.6237 56.3541 39.6336 56.3738C39.7225 56.4923 39.8311 57.638 38.8435 60.0183C38.3595 61.1936 37.9447 61.9244 37.5102 62.3788C37.1546 62.7541 36.8682 62.922 36.7398 62.9615C36.1373 63.0701 37.1348 59.8701 37.1348 59.8701H37.1447Z" fill="#164C82"/>
<path fill-rule="evenodd" clip-rule="evenodd" d="M60.4647 55.3563C60.9981 53.6971 60.7413 52.9465 60.0005 53.0452C59.3191 53.1341 58.4203 53.9637 57.7981 54.902C57.5413 55.3168 57.3042 55.7316 57.1265 56.1662L60.3067 55.7909C60.366 55.6428 60.4252 55.5045 60.4746 55.3563H60.4647Z" fill="white"/>
<path fill-rule="evenodd" clip-rule="evenodd" d="M59.8425 55.0798L58.3413 55.2575C58.3413 55.2575 58.3709 55.2082 58.3808 55.1884C58.924 54.3785 59.5364 53.8353 59.8623 53.8254C60.129 53.8254 60.0697 54.3094 59.8425 55.0798Z" fill="#164C82"/>
<path fill-rule="evenodd" clip-rule="evenodd" d="M53.1361 58.9512C52.8793 59.7808 52.7213 60.5117 52.6621 61.1537C52.6621 61.1537 52.4053 61.203 52.3361 61.1833C51.5658 61.1833 51.388 60.9265 51.6744 60.0277L54.1238 54.0919L55.309 53.9932C55.5756 53.9932 55.6942 54.0524 55.7732 54.1512C55.4374 54.5759 55.1114 55.0203 54.8151 55.4845C54.0547 56.65 53.4818 57.8351 53.1263 58.9413L53.1361 58.9512Z" fill="white"/>
</svg>
