<svg width="80" height="80" viewBox="0 0 80 80" fill="none" xmlns="http://www.w3.org/2000/svg">
<path d="M21.2189 14.8938L22.4607 9.95707C22.6447 9.22116 22.7673 8.48524 22.844 7.71867H22.9053C22.9053 7.71867 22.982 8.82254 23.2273 9.9724L24.3158 14.8938H21.2189ZM26.5236 2.27597H19.609L15.4389 16.2737V2.27597H8.96895V9.31315H6.46991V2.27597H0V20.4592H6.46991V13.2993H8.96895V20.4592H19.8543L20.4063 18.2208H25.0517L25.3584 19.6006C27.3821 19.2787 29.4212 19.018 31.4603 18.834L26.5236 2.27597ZM75.9065 9.06784C74.3886 8.33193 73.8827 7.87198 73.8827 7.1054C73.8827 6.41548 74.404 6.09352 75.3545 6.09352C76.4124 6.09352 77.3783 6.46148 78.0529 6.82944L79.3561 3.10387C78.3289 2.52127 76.6884 2 74.3273 2C70.1878 2 67.5814 4.74435 67.5814 8.10195C67.5814 9.88041 68.3633 11.9348 71.1384 13.284C72.6408 14.0046 73.1008 14.4799 73.1008 15.1545C73.1008 15.7371 72.5795 16.1357 71.5983 16.1357C70.4791 16.1357 69.2986 15.6297 68.7926 15.2618L68.118 17.3162L64.9137 10.5243L69.1912 2.24531H62.66L59.2257 10.233H59.1644V2.27597H47.3591L45.7647 10.6163C45.5653 11.6435 45.5193 12.6401 45.5193 12.6401H45.458C45.458 12.6401 45.4274 11.6435 45.2281 10.6163L43.5416 2.27597H38.3595L36.5964 10.6163C36.3971 11.6435 36.3358 12.6401 36.3358 12.6401H36.2744C36.2744 12.6401 36.2284 11.6435 36.0291 10.6163L34.5113 2.27597H27.9494L32.6102 18.742C34.9406 18.5581 37.2863 18.4661 39.632 18.4507L40.6286 14.4492C40.8432 13.5753 40.9046 12.6861 40.9046 12.6861H40.9659C40.9659 12.6861 41.0425 13.5906 41.2725 14.4492L42.3304 18.4814C44.6455 18.5427 46.9452 18.6807 49.2296 18.9107L52.7098 6.55347V19.3246C54.8716 19.6313 57.018 19.9992 59.1491 20.4592H59.1798V11.8429H59.2411L62.4607 20.4592H69.6205L69.6052 20.4285C70.5251 20.6278 71.6443 20.7351 72.9475 20.7351C77.133 20.7351 80 18.0981 80 14.7099C79.9847 12.5788 79.494 10.785 75.9065 9.06784Z" fill="#FFC400"/>
<path d="M10.2568 24.89C10.7628 47.5193 21.5868 61.471 39.9694 76.1587C58.3519 61.471 69.1913 47.504 69.6819 24.89C60.1917 21.5324 50.1955 19.8306 39.9694 19.8306C29.7432 19.8306 19.7471 21.5324 10.2568 24.89Z" fill="#FFC400"/>
<path d="M72.365 33.7364C72.9323 30.4401 72.9016 28.4777 72.9016 28.4777C37.3478 14.6333 28.5781 30.4708 28.5781 30.4708C20.6211 32.1726 14.2738 37.094 16.6808 44.7904C17.4014 47.1208 19.0879 49.2673 21.3263 50.9077C20.7744 50.0032 20.6057 48.93 20.8664 47.9181C21.4796 45.2964 24.9905 43.5486 30.2799 43.7786C38.513 44.1312 40.9354 45.6184 40.9354 45.6184C40.9354 45.6184 27.1676 42.5674 23.3654 45.7257C24.316 45.4957 25.2972 45.373 26.2784 45.373C34.5268 45.373 41.2113 50.9384 41.2113 63.9395C41.2113 68.6617 40.3221 72.4026 38.8043 75.2542C21.7403 61.3945 11.4528 48.0254 10.3183 27.2052C9.26038 27.5885 8.21784 27.9871 7.17529 28.401C7.7119 57.393 39.9235 78.6732 39.9235 78.6732C39.9235 78.6732 42.4992 76.9867 44.0783 75.8215C46.8687 67.3125 46.0868 57.8376 41.6559 49.8039C46.9453 56.9484 48.4478 65.9786 46.2554 74.181C48.2332 72.6479 50.1496 71.0227 51.9894 69.3209C52.388 61.5938 50.0576 53.974 45.3968 47.8108C50.7935 53.1308 53.6912 60.3366 53.7219 67.6651C55.301 66.1166 56.8035 64.4915 58.2293 62.805C56.9721 55.9058 53.5685 49.5739 48.5091 44.6985C54.0438 48.7 57.9534 54.5413 59.5632 61.1645C60.8817 59.5241 62.1082 57.8069 63.2734 56.0438C60.4984 50.0185 56.1749 44.8824 50.6556 41.0802C56.4815 43.9932 61.2497 48.654 64.316 54.388C65.3125 52.7782 66.2324 51.1224 67.0756 49.4206C63.0741 44.0239 57.7847 39.7004 51.6981 36.864C58.03 38.8725 63.6414 42.6747 67.8575 47.8108C68.6701 46.063 69.3907 44.2845 70.0346 42.4601C64.6533 37.5693 58.2447 34.1044 51.2688 32.3259C58.398 33.2305 65.0672 36.1435 70.6172 40.7429C71.2305 38.8111 71.6751 37.0327 72.0124 35.4689C65.4198 31.2067 57.846 28.6923 50.0116 28.1557C57.846 27.8798 65.5885 29.8115 72.365 33.7364Z" fill="#562500"/>
<path d="M22.5833 36.2355C22.4146 37.416 22.6446 39.3171 25.5576 41.0342C27.8573 42.3987 31.4602 42.6134 33.8673 42.9353C36.7956 43.3186 39.9692 44.0852 40.9505 45.603C39.9539 42.9353 34.5419 42.6594 31.0923 41.6168C27.3054 40.4823 27.474 36.7874 28.1026 34.8249C28.4553 33.7211 29.1452 32.4792 28.5013 31.7893C27.98 31.222 26.9374 31.59 26.9374 31.59C25.0057 32.1419 23.2885 32.8932 21.832 33.7977C22.5679 34.1504 22.7366 35.1776 22.5833 36.2355Z" fill="#FFC400"/>
<path d="M26.9988 35.8366C26.9375 35.4686 26.5389 35.208 26.0943 35.2847C24.9444 35.484 24.0705 36.3732 24.0705 36.3732C23.9325 36.5112 23.8712 36.6952 23.9632 36.8178C24.0552 36.9558 24.2698 36.9711 24.4538 36.8638C24.4538 36.8638 24.7604 36.6952 25.0824 36.6032C25.5117 36.4959 25.9563 36.6338 25.9563 36.6338C26.0636 36.6645 26.1862 36.6645 26.3089 36.6492C26.7382 36.5725 27.0601 36.2199 26.9988 35.8366Z" fill="#562500"/>
<path d="M39.4326 32.2645C38.712 32.5558 37.7155 32.8011 36.7036 32.9391C36.9949 35.7601 39.5246 37.8299 42.3456 37.5386C45.1666 37.2473 47.2364 34.7176 46.9451 31.8966C46.8531 30.9613 46.5005 30.0874 45.9485 29.3362C43.8634 29.7961 41.7784 31.0993 41.7784 31.0993C41.0424 31.5439 40.2605 31.9425 39.4326 32.2645Z" fill="#212121"/>
<path d="M44.7376 29.6733C43.6797 30.0413 42.7445 30.5319 42.2232 30.8232C43.3424 31.0378 44.0783 32.1417 43.8637 33.2609C43.649 34.3801 42.5452 35.116 41.426 34.9014C40.3068 34.6868 39.5708 33.5829 39.7855 32.4637C39.8161 32.3257 39.8468 32.1877 39.9081 32.0651C39.7548 32.1417 39.6015 32.203 39.4329 32.2644C38.9116 32.4637 38.375 32.617 37.8384 32.7397C38.0224 34.9474 39.9541 36.5725 42.1465 36.4039C44.3543 36.2199 45.9794 34.2881 45.8108 32.0957C45.7341 31.1912 45.3662 30.3326 44.7376 29.6733Z" fill="#FFC400"/>
<path d="M42.1006 31.0226C42.1006 31.5132 42.4992 31.9272 42.9898 31.9272C43.4804 31.9272 43.8944 31.5286 43.8944 31.038C43.8944 30.7007 43.7104 30.394 43.4038 30.2407C42.8518 30.5014 42.3919 30.7467 42.1006 30.9153C42.1159 30.9306 42.1006 30.9766 42.1006 31.0226Z" fill="white"/>
<path d="M39.4327 32.2646C40.2453 31.9426 41.0272 31.5593 41.7784 31.084C41.7784 31.084 44.0782 29.6429 46.2552 29.2596C48.095 28.9376 48.7389 28.4623 48.9536 28.217C43.3269 28.539 37.8229 29.9955 32.7788 32.4945C34.082 33.5064 37.6389 32.9698 39.4327 32.2646Z" fill="#212121"/>
<path d="M33.8674 42.9353C36.7958 43.3186 39.9694 44.0851 40.9506 45.6029C40.9506 45.6029 38.5282 44.1158 30.2952 43.7632C25.0058 43.5332 21.4795 45.281 20.8816 47.9027C20.6363 48.9299 20.805 50.0031 21.3416 50.8923C19.1032 49.2519 17.432 47.0901 16.6961 44.775C15.3316 40.4056 16.7881 36.9253 19.7471 34.4263C19.7471 34.4263 20.9123 33.4297 21.7249 33.7363C22.5374 34.043 22.7367 35.1162 22.5834 36.2354C22.4148 37.4159 22.6447 39.317 25.5577 41.0341C27.8575 42.3987 31.4604 42.6133 33.8674 42.9353Z" fill="black"/>
<path d="M24.4077 33.0924C21.5867 34.3036 19.195 36.9406 19.3483 37.1246C19.4709 37.2626 20.6515 35.5148 24.7603 33.905C24.9903 33.813 25.0976 33.5523 25.0056 33.3224C25.0056 33.3224 25.0056 33.3224 25.0056 33.307C24.8983 33.0924 24.6377 32.9851 24.4077 33.0924Z" fill="white"/>
</svg>
