<svg width="80" height="80" viewBox="0 0 80 80" fill="none" xmlns="http://www.w3.org/2000/svg">
<path d="M57.8716 20.8657C57.8716 20.8657 59.4822 20.838 59.9404 21.0185C59.9404 21.0185 60.357 20.5186 61.2595 20.0743C61.2595 20.0743 59.5516 19.7827 57.8716 20.8657Z" fill="white"/>
<path d="M63.4949 33.2094C64.9251 29.155 59.6766 28.7662 59.6766 28.7662C56.9969 25.3506 39.3354 26.6141 39.3354 26.6141C45.7086 23.254 57.4273 19.4357 57.4273 19.4357C56.622 18.5471 54.5115 17.5751 54.5115 17.5751C55.1224 17.3669 55.6917 17.1725 56.2054 17.0058C56.2054 17.0058 53.2619 15.1592 48.5688 13.8679C48.5688 13.8679 49.8323 14.5205 52.4149 16.7143C52.4149 16.7143 46.8471 14.1317 36.3641 14.6454C36.3641 14.6454 38.7106 15.548 42.5706 17.8251C42.5706 17.8251 43.1676 17.2835 44.2645 17.0197C44.1673 18.4082 46.0279 19.6856 48.4161 19.8522C49.2492 19.9216 50.0961 19.8245 50.9015 19.5884C50.9015 19.5884 49.7074 20.9491 46.9721 20.9352C43.6675 20.9214 42.6956 19.1719 42.6956 19.1719C42.6956 19.1719 38.0858 20.5742 35.2533 22.0877C35.2533 22.0877 38.2247 21.8516 41.8069 22.0183C41.8069 22.0183 31.4767 25.8921 16.7172 39.7352C16.7172 39.7352 14.3706 32.4596 19.1748 26.864C19.1748 26.864 20.8409 25.545 27.7833 23.2123C27.7833 23.2123 17.6613 25.2951 11.6909 27.2945C11.6909 27.2945 13.1488 21.5045 20.5077 18.0056C20.5077 18.0056 22.8265 17.3113 29.3662 16.5615C29.3662 16.5615 22.8265 16.0895 14.5373 16.8115C14.5373 16.8115 18.8693 11.6602 25.6728 10.2717C25.6728 10.2717 26.4226 10.1745 30.6852 10.1884C30.6852 10.1884 26.7975 8.88326 21.077 7.60586C21.077 7.60586 44.4867 5.71754 59.1629 16.0895C59.1629 16.0895 58.427 16.3394 57.5939 16.6448C57.5939 16.6448 64.3003 19.0608 66.9245 22.5875C70.6178 27.3222 63.4949 33.2094 63.4949 33.2094ZM47.0276 30.724C49.2214 29.5021 51.5124 28.1414 51.5124 28.1414C56.2193 27.9609 58.1493 29.0023 58.1493 29.0023C52.3038 29.3078 47.0276 30.724 47.0276 30.724ZM37.3499 43.3314C33.6982 41.4847 32.8096 38.8744 32.8096 38.8744C37.7665 31.7376 45.2781 31.2794 45.2781 31.2794C39.6131 36.6667 37.3499 43.3314 37.3499 43.3314ZM26.1727 45.3585C26.1727 45.3585 22.521 41.8735 21.7712 37.6525C21.7712 37.6525 29.0746 28.5024 41.4182 29.4883C41.4182 29.4883 31.9765 34.098 26.1727 45.3585ZM61.3011 16.0478C61.3011 16.0478 62.1065 15.7701 62.8007 15.5896C62.8007 15.5896 46.139 1.67707 13.0516 5.74531C13.0516 5.74531 17.2726 7.49479 20.9242 9.43865C20.9242 9.43865 15.1343 11.1326 9.26105 19.0886C9.26105 19.0886 10.0525 19.0608 14.565 18.9219C14.565 18.9219 9.80255 22.3515 8.09473 30.8767C8.09473 30.8767 10.7745 29.9187 14.8983 28.8912C14.8983 28.8912 11.7325 34.4451 15.898 44.456C15.898 44.456 17.6613 42.3178 20.0495 40.124C20.0495 40.124 21.5352 45.5946 27.1169 49.3712C27.1169 49.3712 29.1718 44.581 31.435 41.443C31.435 41.443 33.2678 44.7615 38.6968 46.4138C43.8897 30.6268 57.5245 31.2794 57.5245 31.2794C64.4252 31.1128 60.1626 36.6945 60.1626 36.6945C60.1626 36.6945 68.7295 34.2091 70.2846 26.267C70.2707 26.2809 71.5342 20.6992 61.3011 16.0478ZM21.5352 68.199L20.9798 65.8247L20.716 64.3529L20.0773 65.8247L18.8832 68.199H21.5352ZM27.0197 73.8362C26.1033 74.0028 25.1452 74.1139 24.2705 74.1139C23.7706 74.1139 23.2847 74.0722 22.8542 74.0028L22.2988 71.6285H17.1198L15.9257 74.0028C15.3009 74.0722 14.6483 74.1 14.0235 74.1C13.2182 74.1 12.4684 74.0306 11.8992 73.8501L19.4247 59.2294C20.1328 59.1183 20.8687 59.0906 21.5629 59.0906C22.2711 59.0906 22.8959 59.1183 23.5624 59.2294L27.0197 73.8362ZM53.0119 72.17C52.9286 72.7948 52.7898 73.3919 52.5815 73.9889H42.6678L44.6672 59.2294C45.3614 59.1183 46.0557 59.0489 46.7638 59.0489C47.458 59.0489 48.1384 59.1183 48.8049 59.2294L47.3192 70.2678H53.0952C53.1369 70.9065 53.1091 71.5313 53.0119 72.17Z" fill="white"/>
<path d="M66.4902 72.5862C66.7679 71.1561 67.6427 69.8509 68.7257 69.2539C69.6143 69.962 71.2111 70.559 72.9883 70.559C74.349 70.559 74.835 70.3091 74.9044 69.8232C74.9877 69.2539 74.7378 69.0178 72.3218 68.3791C69.8365 67.7404 67.7815 66.7685 68.1703 63.7277C68.5591 60.6731 71.2527 58.8264 74.8766 58.8264C77.5425 58.8264 79.2642 59.7012 80.0001 60.3676C79.7363 61.6589 78.9449 63.0335 77.6814 63.7277C76.9593 63.1585 75.6681 62.617 74.0297 62.617C72.8772 62.617 72.2663 62.8947 72.2108 63.3529C72.1413 63.8805 72.308 64.0471 75.0016 64.7136C77.5842 65.3523 79.2781 66.5463 79.0004 69.1289C78.6394 72.5307 76.0846 74.3496 72.3913 74.3496C69.2394 74.3635 67.3927 73.4193 66.4902 72.5862Z" fill="white"/>
<path d="M65.1751 70.3373H59.0519L59.3296 68.3101H64.578C64.8002 67.7131 64.9252 67.116 65.0085 66.519C65.0918 65.8942 65.1334 65.2971 65.064 64.7001H59.8156L60.0655 62.8812H65.9804C66.2026 62.2564 66.3275 61.6593 66.4108 61.0484C66.4941 60.4514 66.5219 59.8265 66.4664 59.2295H54.5949L56.1778 61.0623L54.4283 74.0029H64.6891C64.8974 73.4058 65.0501 72.7949 65.1196 72.1562C65.189 71.5592 65.2306 70.9344 65.1751 70.3373ZM10.7468 70.3373H4.63751L4.91521 68.3101H10.1636C10.3858 67.7131 10.5108 67.116 10.5941 66.519C10.6774 65.8942 10.719 65.2971 10.6496 64.7001H5.38729L5.63722 62.8812H11.5521C11.7743 62.2564 11.8992 61.6593 11.9826 61.0484C12.0659 60.4514 12.0936 59.8404 12.0381 59.2295H0.166617L1.74948 61.0623L0 74.0029H10.2608C10.483 73.3781 10.608 72.781 10.6913 72.1562C10.7746 71.5592 10.8023 70.9344 10.7468 70.3373Z" fill="white"/>
<path d="M35.3183 65.1784C34.7907 66.0948 34.624 67.2055 34.6379 68.2053H36.9567L36.5818 70.4824C36.2069 70.524 35.7904 70.5518 35.3044 70.5518C33.1939 70.5518 32.0554 69.0383 32.3886 66.6224C32.7218 64.1648 34.2075 62.693 36.443 62.693C37.4565 62.693 38.3591 62.9429 39.0533 63.4567C40.3585 62.7902 41.3859 61.3184 41.7747 59.9994C40.7472 59.2912 39.1644 58.7358 37.04 58.7358C32.097 58.7358 28.5009 62.0682 27.8761 66.6918C27.2512 71.3432 29.7505 74.4395 34.7907 74.4395C37.5676 74.4395 39.1227 73.8425 40.3585 73.2593L41.4415 65.1784H35.3183Z" fill="white"/>
<path d="M19.1612 51.4679C19.0223 51.4679 18.8974 51.4818 18.8002 51.4818H18.7308L18.7169 51.5512C18.4114 53.0508 17.9393 54.5087 17.3284 55.8972C17.1479 54.8003 17.009 53.4396 16.898 51.7456V51.6762L16.8285 51.6623C16.6064 51.6207 16.3703 51.5929 16.1343 51.5929C15.8705 51.5929 15.6345 51.6068 15.4123 51.6623L15.3568 51.6762L15.3429 51.7317C15.1485 52.898 14.6348 54.4254 13.9683 55.8972C13.76 54.467 13.6628 53.0091 13.6767 51.5651V51.4818L13.6073 51.4679C13.4684 51.454 13.3157 51.4401 13.1769 51.4401C12.8297 51.4401 12.4132 51.4818 12.0938 51.5512L12.0244 51.5651V51.6345C12.1077 53.8561 12.3854 55.7444 12.8714 57.3828L12.8853 57.4384L12.9408 57.4523C13.1907 57.4939 13.4268 57.5217 13.7184 57.5217C13.9405 57.5217 14.2043 57.4939 14.4542 57.4523H14.4959L14.5237 57.4245C14.8708 56.8691 15.5095 55.7861 15.8566 54.5226C15.926 55.3973 16.0232 56.3415 16.287 57.3967L16.3009 57.4523L16.3565 57.4661C16.6064 57.5078 16.8285 57.5356 17.1062 57.5356C17.3839 57.5356 17.6339 57.5078 17.856 57.4661L17.8977 57.4523L17.9116 57.4245C19.0362 55.675 19.7166 53.6339 20.272 51.6762L20.2997 51.5929L20.2303 51.5651C20.0637 51.5096 19.5361 51.4679 19.1612 51.4679ZM25.2844 51.5235H21.4522L20.6469 57.4939H24.5485L24.5762 57.4384C24.7567 57.0774 24.8123 56.7164 24.7567 56.1887L24.7429 56.1054H22.3686L22.5074 55.0918H24.5485L24.5762 55.0363C24.729 54.717 24.7845 54.3282 24.7429 53.8561L24.729 53.7728H22.6879L22.799 52.8842H25.1039L25.1316 52.8286C25.326 52.4121 25.3816 52.065 25.3121 51.579L25.2844 51.5235ZM28.7833 51.3707C27.9919 51.3707 27.3254 51.6206 26.895 52.065C26.5479 52.426 26.3813 52.8981 26.3951 53.4257C26.4507 54.6198 27.3948 54.953 28.0752 55.1751C28.5751 55.3418 28.8805 55.4667 28.8944 55.7305C28.8944 55.8694 28.8666 55.9666 28.7972 56.036C28.6861 56.1471 28.464 56.2026 28.1307 56.2026C27.5615 56.2026 26.9783 56.0082 26.6312 55.7028L26.5895 55.6611L26.534 55.6889C26.1452 55.911 25.8398 56.3415 25.7426 56.8274L25.7287 56.883L25.7703 56.9107C26.048 57.1746 26.7284 57.6189 28.0197 57.6189C28.825 57.6189 29.4914 57.3828 29.908 56.9385C30.269 56.5636 30.4356 56.0638 30.4217 55.4945C30.3662 54.2449 29.3943 53.9116 28.6722 53.6756C28.2557 53.5367 27.9225 53.4257 27.9086 53.1896C27.9086 53.1063 27.9364 53.023 27.9919 52.9675C28.103 52.8425 28.339 52.787 28.6584 52.787C29.3248 52.787 29.783 53.0647 29.9496 53.1896L29.9913 53.2174L30.0468 53.1896C30.4217 52.9952 30.7272 52.537 30.8244 52.0511L30.8383 52.0094L30.7966 51.9678C30.6439 51.8428 30.033 51.3707 28.7833 51.3707ZM36.531 51.5235H31.9629L31.9352 51.579C31.7963 51.9261 31.7408 52.3288 31.7685 52.8147V52.898H33.3098L32.6849 57.4661L32.7683 57.48C32.9765 57.5217 33.1987 57.5494 33.4486 57.5494C33.6846 57.5494 33.9207 57.5356 34.1428 57.48L34.2123 57.4661L34.8371 52.8842H36.3644L36.3922 52.8286C36.531 52.4676 36.5866 52.065 36.5588 51.5929C36.531 51.6068 36.531 51.5235 36.531 51.5235ZM42.8486 51.3152C41.9322 51.3152 41.0991 51.6623 40.5021 52.2871C39.8356 52.9814 39.5024 53.9811 39.544 55.0918C39.6134 56.6608 40.6409 57.6466 42.2377 57.6466C43.0152 57.6466 43.6678 57.4523 44.1676 57.0496L44.2093 57.0218V56.9802C44.1815 56.4664 43.9594 56.0777 43.5428 55.8416L43.4873 55.8138L43.4456 55.8555C43.1679 56.0638 42.9458 56.2165 42.4182 56.2165C41.6823 56.2165 41.2241 55.7305 41.1963 54.9113C41.1685 54.2032 41.349 53.6062 41.7239 53.2174C41.9877 52.9397 42.3487 52.787 42.7236 52.787C43.1124 52.787 43.3762 52.8703 43.64 53.1063L43.6817 53.148L43.7372 53.1202C44.1399 52.9119 44.5148 52.4537 44.6536 52.0094L44.6675 51.9539L44.6258 51.9122C44.3343 51.6345 43.7928 51.3152 42.8486 51.3152ZM48.3331 51.3291C47.4445 51.3291 46.6669 51.6484 46.1115 52.2316C45.4589 52.9119 45.1396 53.9116 45.1812 55.0641C45.2507 56.6608 46.2781 57.6466 47.861 57.6466C48.7635 57.6466 49.5272 57.3273 50.0964 56.7441C50.749 56.0638 51.0684 55.0641 51.0267 53.9116C50.9573 52.3288 49.9298 51.3291 48.3331 51.3291ZM48.8746 55.8277C48.6385 56.0777 48.3053 56.2165 47.9582 56.2026C47.264 56.2026 46.8474 55.7305 46.8196 54.9113C46.7919 54.1477 46.9585 53.5229 47.3195 53.1619C47.5555 52.9119 47.8888 52.787 48.2359 52.787C49.1384 52.787 49.3467 53.4951 49.3744 54.0783C49.4022 54.8419 49.2217 55.4667 48.8746 55.8277ZM55.4837 51.5235C55.2616 51.4818 55.0394 51.4679 54.8034 51.4679C54.609 51.4679 54.3452 51.4679 54.0814 51.5235L54.0397 51.5373L51.1378 57.3967L51.235 57.4245C51.4155 57.4939 51.6654 57.5356 51.9709 57.5356C52.2069 57.5356 52.4152 57.5217 52.6096 57.4939H52.6651L53.2066 56.3554H55.0533L55.2755 57.4939L55.331 57.5078C55.5115 57.5356 55.6781 57.5494 55.8309 57.5494C56.0947 57.5494 56.3862 57.5078 56.7334 57.4384L56.8167 57.4245L55.5254 51.5512L55.4837 51.5235ZM53.7898 55.0918L54.3868 53.8422L54.4979 53.5923L54.5396 53.8283L54.7895 55.1057H53.7898V55.0918ZM60.6628 51.3707C59.8713 51.3707 59.2048 51.6206 58.7744 52.065C58.4273 52.426 58.2607 52.8981 58.2746 53.4257C58.3301 54.6198 59.2743 54.953 59.9546 55.1751C60.4545 55.3418 60.7599 55.4667 60.7738 55.7305C60.7738 55.8694 60.7461 55.9666 60.6766 56.036C60.5656 56.1471 60.3434 56.2026 60.0102 56.2026C59.4409 56.2026 58.8577 56.0082 58.5106 55.7028L58.4551 55.6611L58.3995 55.6889C58.0108 55.911 57.7053 56.3415 57.6081 56.8274L57.5942 56.883L57.6359 56.9107C57.9136 57.1746 58.5939 57.6189 59.8852 57.6189C60.6905 57.6189 61.357 57.3828 61.7874 56.9385C62.1484 56.5636 62.315 56.0638 62.3012 55.4945C62.2456 54.2449 61.2598 53.9116 60.5517 53.6756C60.1351 53.5367 59.8019 53.4257 59.788 53.1896C59.788 53.1063 59.8158 53.023 59.8713 52.9675C59.9824 52.8425 60.2184 52.787 60.5378 52.787C61.2043 52.787 61.6625 53.0647 61.8291 53.1896L61.8707 53.2174L61.9263 53.1896C62.3012 52.9952 62.6066 52.537 62.7038 52.0511L62.7177 52.0094L62.676 51.9678C62.5233 51.8428 61.9124 51.3707 60.6628 51.3707ZM68.4104 51.6068V51.5235H63.8424L63.8146 51.579C63.6757 51.9261 63.6202 52.3288 63.6341 52.8147V52.898H65.1753L64.5505 57.4661L64.6338 57.48C64.8421 57.5217 65.0642 57.5494 65.3141 57.5494C65.5502 57.5494 65.7862 57.5356 66.0084 57.48L66.0778 57.4661L66.7026 52.8842H68.2299L68.2577 52.8286C68.3966 52.4815 68.4382 52.0788 68.4104 51.6068Z" fill="white"/>
<path d="M46.8473 17.714C46.0003 17.4641 45.917 16.756 45.917 16.756C45.917 16.756 47.0972 16.6588 48.805 16.9365C48.805 16.9365 47.5832 17.2697 46.8473 17.714Z" fill="black"/>
<path d="M66.9662 22.6015C70.6179 27.3223 63.495 33.2234 63.495 33.2234C64.9251 29.169 59.6767 28.7802 59.6767 28.7802C56.9969 25.3507 39.3355 26.6142 39.3355 26.6142C45.7086 23.2541 57.4273 19.4358 57.4273 19.4358C56.622 18.5472 54.5115 17.5752 54.5115 17.5752C55.1225 17.367 55.6917 17.1726 56.2055 17.0059C56.2055 17.0059 53.2619 15.1593 48.5689 13.868C48.5689 13.868 49.8324 14.5206 52.4149 16.7144C52.4149 16.7144 46.8471 14.1318 36.3641 14.6455C36.3641 14.6455 38.7107 15.548 42.5706 17.8251C42.5706 17.8251 43.1677 17.2836 44.2646 17.0198C44.1674 18.4083 46.0279 19.6857 48.4161 19.8523C49.3325 19.9217 50.1795 19.8107 50.9015 19.5885C50.9015 19.5885 49.7074 20.9492 46.9721 20.9353C43.6675 20.9215 42.6956 19.172 42.6956 19.172C42.6956 19.172 38.0859 20.5743 35.2534 22.0878C35.2534 22.0878 38.2247 21.8517 41.807 22.0183C41.807 22.0183 31.4767 25.8922 16.7172 39.7353C16.7172 39.7353 14.3707 32.4597 19.1748 26.8641C19.1748 26.8641 20.841 25.5451 27.7834 23.2124C27.7834 23.2124 17.6614 25.2952 11.6909 27.2946C11.6909 27.2946 13.1349 21.5046 20.5077 18.0057C20.5077 18.0057 22.8265 17.3114 29.3662 16.5616C29.3662 16.5616 22.8265 16.0896 14.5373 16.8116C14.5373 16.8116 18.8693 11.6603 25.6729 10.2718C25.6729 10.2718 26.4227 10.1746 30.6853 10.1885C30.6853 10.1885 26.7975 8.88336 21.0909 7.60596C21.0909 7.60596 44.5006 5.71763 59.1768 16.1034C59.1768 16.1034 58.4409 16.3534 57.6078 16.6588C57.6217 16.6449 64.3281 19.0609 66.9662 22.6015ZM59.9405 21.0186C59.9405 21.0186 60.357 20.5188 61.2595 20.0745C61.2595 20.0745 59.5517 19.7829 57.8716 20.8659C57.8716 20.8659 59.4823 20.8381 59.9405 21.0186ZM47.0276 30.7241C47.0276 30.7241 52.3039 29.3217 58.1355 29.0163C58.1355 29.0163 56.2055 27.9749 51.4985 28.1554C51.5124 28.1415 49.2214 29.5022 47.0276 30.7241ZM37.35 43.3315C37.35 43.3315 39.6132 36.6529 45.2782 31.2795C45.2782 31.2795 37.7665 31.7377 32.8096 38.8745C32.8096 38.8883 33.6983 41.4848 37.35 43.3315ZM21.7713 37.6526C21.7713 37.6526 29.0746 28.5025 41.4182 29.4884C41.4182 29.4884 31.9766 34.112 26.1727 45.3586C26.1727 45.3586 22.521 41.8736 21.7713 37.6526Z" fill="#F2A900"/>
</svg>
