<svg width="80" height="80" viewBox="0 0 80 80" fill="none" xmlns="http://www.w3.org/2000/svg">
<g clip-path="url(#clip0_401_987)">
<path d="M69.8296 62.0397L68.9448 63.2356C68.9448 63.2356 69.042 63.4884 68.7893 64.801C68.5365 66.1136 66.9711 67.4554 64.9487 67.4457C61.8179 67.4359 48.9254 67.4457 44.482 67.4457C40.6415 67.4457 41.6721 64.2274 42.0805 63.2356C41.5068 63.1773 40.622 63.2648 40.622 63.2648C41.3901 62.7592 41.5943 62.7106 41.6429 62.7009C40.2234 62.7203 39.4456 63.012 39.4456 63.012C39.922 62.5939 40.3692 62.2731 40.7776 62.03H31.3172L31.5603 61.4855C31.5603 61.4855 30.7047 62.0203 29.8977 62.0203H12.834L17.569 55.2337L15.8189 55.5837L17.4621 53.785L14.6813 54.4656C14.6813 54.4656 17.9093 50.6056 21.7693 50.6445C22.6249 50.6542 29.0615 50.6445 31.5992 50.6445C34.9244 50.6445 35.08 51.4029 35.0897 51.5001C35.08 50.7028 34.2146 50.6348 34.2146 50.6348H48.1475L49.0809 50.6445H65.7946L77.2676 51.9668L74.2146 62.0106L69.8296 62.0397Z" fill="#0D2240"/>
<path d="M0 22.5841C0 22.5841 39.6014 -4.76639 69.0423 32.939C69.0423 32.939 85.3768 43.3814 78.1624 57.4407L76.6456 53.0751C76.6456 53.0751 69.9951 52.9779 61.5459 49.6527C53.0967 46.3274 45.9699 49.079 45.9699 49.079C45.9699 49.079 46.1643 47.183 47.7783 45.7538C47.7783 45.7538 40.1847 48.6026 39.2319 50.8777C39.2319 50.8777 39.6111 46.8914 41.4195 44.8009C41.4195 44.8009 37.054 45.8413 33.1551 48.5054C33.1551 48.5054 34.0107 44.3245 37.9971 41.7674C37.9971 41.7674 29.3534 41.8646 20.7098 46.5122C20.7098 46.5122 26.8838 35.0197 36.4706 31.218C36.4706 31.218 28.5853 28.6512 17.9485 29.9832C17.9485 29.9832 22.9849 24.2856 30.9577 23.2355C30.9577 23.2453 13.3884 19.7353 0 22.5841Z" fill="#0D2240"/>
<path d="M31.7552 56.3421C32.1344 55.117 31.551 54.6017 30.3356 54.592H30.1314L29.0911 57.9658H29.2953C30.4037 57.9755 31.4051 57.4894 31.7552 56.3421ZM21.3906 57.431H22.7226L22.8101 55.8948C22.8296 55.5254 22.8879 55.1462 22.9365 54.7767L21.3906 57.431ZM21.6336 51.8695H25.5811L25.9506 57.4213L27.4382 52.589C27.4674 52.4335 27.4771 52.2585 27.4188 52.1321C27.3021 51.8598 27.0104 51.8501 27.0104 51.8501L28.5758 51.8598H31.0454C33.8164 51.8598 35.6832 52.9099 35.2846 55.4767L36.1694 52.6085C36.1985 52.4529 36.2083 52.2682 36.1499 52.1418C36.0235 51.8695 35.7416 51.8598 35.7416 51.8598L37.3167 51.8695H42.5476L41.8184 54.2517H39.0182L38.7654 55.0878H41.3225L40.6225 57.3533H38.0653L37.8028 58.2089H40.7002L39.971 60.591H33.7289L34.7887 57.1588C33.7775 59.2784 31.5899 60.591 29.198 60.591H22.6545L22.6837 59.502H20.1752L19.5724 60.591H16.043L20.0294 54.66L20.0488 54.6308C20.1946 54.3392 20.2724 54.0961 20.3016 53.8919C19.4168 53.8336 18.1528 54.3003 18.1528 54.3003C18.7557 53.8627 19.4071 53.4933 20.0682 53.2307C19.3488 52.7154 17.3167 53.4641 17.3167 53.4641C18.6487 52.4918 20.146 51.8695 21.6336 51.8695ZM48.7605 54.767L48.8286 54.6211C48.9744 54.3294 49.0522 54.0864 49.0814 53.8822C48.1966 53.8238 46.9326 54.2905 46.9326 54.2905C47.5354 53.853 48.1869 53.4835 48.848 53.221C48.1285 52.7057 46.0964 53.4544 46.0964 53.4544C47.6521 52.3071 49.1689 51.8598 51.2788 51.8598H54.3804L54.8665 59.3173L57.1514 51.8695H64.356C66.9423 51.8695 68.7411 52.7835 68.6536 54.9906L69.2661 52.9877L69.3633 52.6765C69.4022 52.5015 69.4314 52.2876 69.3633 52.1418C69.2369 51.8695 68.955 51.8598 68.955 51.8598L70.5204 51.8695H75.761L75.0318 54.2517H72.2316L71.9788 55.0878H74.5359L73.8359 57.3533H71.2787L71.0162 58.2089H73.9137L73.1844 60.591H66.9423L67.8563 57.6158C66.7673 59.4728 64.7255 60.591 62.5087 60.591H58.2987L60.7877 52.4821C60.7975 52.3654 60.7975 52.239 60.7488 52.1418C60.6808 51.9862 60.5641 51.9182 60.4669 51.889L57.7931 60.591H51.4246L51.4538 59.502H48.9453L48.3424 60.591H40.1071L42.7907 51.8793H46.1159L44.2977 57.8005H46.709L48.7605 54.767ZM65.095 56.3615C65.4742 55.1364 64.8908 54.6114 63.6754 54.6114H63.4907L62.4309 57.9852H62.6351C63.7435 57.995 64.7352 57.5088 65.095 56.3615ZM50.1898 57.4408H51.5218L51.6093 55.9045C51.6288 55.5351 51.6871 55.1559 51.7357 54.7864L50.1898 57.4408Z" fill="#CF0A2C"/>
<path d="M10.9385 19.3853C10.9385 19.3853 45.3381 3.74114 67.3702 34.5238C67.3702 34.5238 80.8267 44.0231 78.0459 52.5209C78.0459 52.5209 77.7056 50.4986 77.0347 48.7387C76.3639 46.9691 66.2715 38.5588 56.0916 36.799L57.6862 41.6799L58.0265 38.7339C58.0265 38.7339 63.0727 45.4621 75.0999 50.168C75.0999 50.168 74.1762 51.85 66.184 49.079C58.1918 46.308 55.0804 45.1218 51.3857 45.7149C51.3857 45.7149 54.079 43.5272 58.114 44.1203C58.114 44.1203 53.4081 41.7674 44.1519 44.9565C44.1519 44.9565 46.5923 42.3508 49.5384 42.0105C49.5384 42.0105 45.4159 40.9215 37.3459 44.7815C37.3459 44.7815 41.8865 40.3284 46.0965 39.7353C46.0965 39.7353 36.5097 38.0533 26.5048 41.8355C26.5048 41.8355 30.2093 35.0197 43.6657 30.2263C43.6657 30.2263 34.6623 27.3678 23.2282 27.8734C23.2282 27.8734 30.5496 23.4981 38.9599 24.0037C38.9501 24.0134 29.5287 18.1213 10.9385 19.3853Z" fill="#002D73"/>
<path d="M49.8981 21.0576C50.1606 21.1451 44.006 17.0712 35.8679 16.4684C27.7298 15.8656 18.3667 17.4213 18.3667 17.4213C18.3667 17.4213 34.6526 15.6906 49.8981 21.0576Z" fill="#002D73"/>
<path d="M77.3555 46.6094C77.3555 46.6094 74.0595 40.9798 70.3356 37.9463L66.6117 34.9127L67.0492 37.081C67.0492 37.081 73.2913 41.7577 77.3555 46.6094ZM49.8981 21.0576C50.1606 21.1451 44.006 17.0712 35.8679 16.4684C27.7298 15.8656 18.3667 17.4213 18.3667 17.4213C18.3667 17.4213 34.6526 15.6906 49.8981 21.0576ZM31.8426 25.8607C32.426 25.6371 38.5223 22.9439 45.6103 26.3177C45.6103 26.3177 39.3876 25.0246 31.8426 25.8607Z" fill="#3C518E"/>
<path d="M57.54 28.2332C57.4622 28.2623 54.662 29.4096 55.7704 31.6362C56.7427 33.5905 60.3985 33.0849 60.5736 30.5569" fill="#FFCE00"/>
<path d="M58.454 28.8069C58.454 28.8069 53.962 27.9999 51.2104 27.9707C51.2104 27.9707 54.6329 28.9333 55.5371 30.3625C55.5274 30.3625 55.7705 28.1749 58.454 28.8069ZM61.0986 30.7028C61.0986 30.7028 61.6431 32.346 60.5347 33.153C59.4263 33.96 55.9066 34.7184 55.2746 31.1015C55.2746 31.1015 56.4511 33.5711 59.0763 32.5891C61.7015 31.6071 59.1541 28.8652 59.1541 28.8652L61.0986 30.7028Z" fill="#0D2240"/>
<path d="M59.446 29.5555L58.1431 27.9999L57.0833 29.5166C57.0833 29.5166 56.5486 30.1973 57.0055 30.8001C57.4625 31.4029 57.9098 31.7821 58.9015 31.3348C59.8932 30.8779 59.446 29.5555 59.446 29.5555Z" fill="#0D2240"/>
<path d="M57.9289 28.4957C57.8706 28.5152 55.8871 29.3319 56.6649 30.9362C57.4428 32.5502 59.8443 31.9571 60.1068 30.1583C60.3694 28.3596 59.7082 29.6528 59.7082 29.6528C59.7082 29.6528 59.0179 31.9085 57.6567 31.0723C56.4413 30.3236 57.6275 28.7582 58.629 29.0208C59.6401 29.293 57.9289 28.4957 57.9289 28.4957Z" fill="#CF0A2C"/>
<path d="M63.1795 34.0767C63.1795 34.0767 63.724 27.3873 50.9092 25.2969C50.8995 25.2969 60.4085 29.7111 63.1795 34.0767Z" fill="#0D2240"/>
<path d="M51.8424 63.1481C52.3188 61.8744 51.4924 61.3883 50.2964 61.3883H48.3324L47.7004 61.3785C47.7004 61.3785 47.8171 61.3785 47.856 61.4855C47.8852 61.5633 47.8657 61.6799 47.8365 61.7675L46.0864 66.4442H47.9629L48.5658 64.8204H48.6047L48.838 66.4442L51.0548 66.4539L50.5201 64.8107C50.4715 64.6649 50.3839 64.5774 50.3062 64.5093L50.3256 64.4704C51.1229 64.2371 51.5507 63.9162 51.8424 63.1481ZM49.9367 63.2064C49.8006 63.5856 49.4603 63.6245 49.1491 63.6245H49.013L49.3339 62.7689H49.4797C49.8103 62.7689 50.0825 62.8175 49.9367 63.2064Z" fill="#FFCE00"/>
<path d="M55.2746 61.3202C53.6704 61.3202 51.9689 62.3508 51.3758 63.9357C50.7729 65.5594 51.7161 66.5317 53.3301 66.5414C54.9441 66.5414 56.6164 65.5788 57.2192 63.9551C57.822 62.3605 56.8887 61.3202 55.2746 61.3202ZM54.6621 62.9828C55.2747 62.9828 55.4788 63.4301 55.2844 63.9745C55.0705 64.5482 54.5163 64.9468 53.9329 64.9468C53.3495 64.9468 53.0967 64.5482 53.3106 63.9745C53.5051 63.4301 54.0496 62.9828 54.6621 62.9828Z" fill="#FFCE00"/>
<path d="M57.2191 61.398L57.1802 66.4637H58.8136L60.0582 64.4705C60.2137 64.2177 60.3498 63.9746 60.4665 63.7121H60.5249L60.097 66.4637H61.7694L65.5321 61.398L63.539 61.3883L62.1972 63.5371C62.0222 63.8288 61.8666 64.1302 61.7305 64.4316H61.6916L62.1 61.398H60.6318L59.2803 63.4982C59.0859 63.7996 58.9206 64.1204 58.7747 64.4316H58.7358L59.1928 61.4077L57.2191 61.398Z" fill="#FFCE00"/>
<path d="M62.9947 66.0941C63.4809 66.3858 64.1907 66.5608 64.8518 66.5608C65.9991 66.5608 67.37 65.9677 67.8173 64.7621C68.1381 63.9065 67.7006 63.4884 66.952 63.3134L66.5533 63.2162C66.4172 63.187 66.1936 63.1578 66.2616 62.9634C66.3394 62.7592 66.6117 62.6911 66.7769 62.6911C67.1853 62.6911 67.4964 62.8564 67.7492 63.08L68.7507 61.7869C68.3423 61.4855 67.8465 61.3396 67.2436 61.3396C66.0963 61.3396 64.6962 62.0008 64.249 63.2064C63.9573 63.994 64.424 64.4218 65.1338 64.5482L65.4935 64.6163C65.6588 64.6454 65.9019 64.6746 65.8144 64.8982C65.7269 65.1218 65.3963 65.1996 65.2116 65.1996C64.774 65.1996 64.4337 64.9857 64.1907 64.7329L64.1226 64.6552L62.9947 66.0941ZM51.3273 54.2419C51.3273 54.2419 49.7035 57.0518 49.548 57.3144C49.4313 57.4991 49.2952 58.0728 50.0244 58.0728H51.8912L51.5217 57.5672H49.9174L51.6384 54.6406L51.3273 54.2419ZM62.985 54.2419L63.335 54.5531L62.2461 58.1116C62.2461 58.1116 62.6933 58.2478 64.1129 57.8686C64.1129 57.8686 61.3418 59.3076 61.8085 57.8005C62.2655 56.3615 62.3627 56.0601 62.985 54.2419ZM71.7356 53.6197C71.7356 53.6197 71.3273 54.9711 71.2786 55.1656C71.2397 55.292 71.1134 55.6615 71.6773 55.6615H73.7677L73.4177 56.8574L73.7483 57.256L74.3511 55.2531H71.7842L72.1245 54.1253L71.7356 53.6197ZM70.7633 56.7699C70.7633 56.7699 70.3744 58.0922 70.3161 58.2769C70.2772 58.4033 70.1508 58.7728 70.7147 58.7728H73.1357L72.7857 59.9687L73.0871 60.3576L73.6899 58.3547H70.8119L71.1425 57.256L70.7633 56.7699ZM51.3467 52.0446H54.1761C54.1761 52.0446 54.6914 59.6965 54.6914 59.7451C54.7108 59.9007 54.8372 60.0465 55.0122 60.0659C55.0122 60.0659 54.1761 60.2993 54.1177 59.3951C54.0497 58.4811 53.7094 52.521 53.7094 52.521H51.055L51.3467 52.0446ZM42.9072 52.0446L43.1406 52.5113H45.1727C45.1727 52.5113 43.5684 57.5574 43.4906 57.7908C43.4128 58.0144 43.5976 58.5006 44.0837 58.5006H46.8158L46.5047 58.0144H44.0448L45.8824 52.0446H42.9072Z" fill="#FFCE00"/>
<path d="M47.9532 61.4369L48.1087 61.6605H50.6561C51.327 61.6605 51.9979 62.3508 51.5992 63.3523C51.5992 63.3523 52.0562 62.6717 51.8229 62.1175C51.5992 61.5827 51.0936 61.4855 50.6756 61.4661C50.17 61.4369 47.9532 61.4369 47.9532 61.4369ZM44.589 63.2745C44.589 63.2745 44.0348 64.0523 44.239 64.6454C44.4432 65.2385 45.3863 65.3844 46.0572 65.0732L45.5419 66.2886L45.8238 66.2206L46.4461 64.626C46.4461 64.626 45.9016 65.0344 45.2794 64.9663C44.6571 64.8982 44.2196 64.3927 44.6571 63.6732L44.589 63.2745ZM43.539 62.3314C43.4417 62.3314 42.8486 62.6036 42.8486 62.6036C42.8486 62.6036 43.6459 62.4772 44.0834 62.4772" fill="#FFE692"/>
<path d="M49.2366 53.2988C49.0615 53.2988 48.1768 53.785 48.1768 53.785C48.1768 53.785 49.4116 53.4933 50.1602 53.4933" fill="#FFCE00"/>
<path d="M48.5171 64.7038L48.381 64.3538L47.7393 66.0942L47.9143 66.3372L48.5171 64.7038Z" fill="#FFE692"/>
<path d="M49.9951 64.4023L50.6174 66.1622L50.9674 66.3858C50.9674 66.3858 50.4618 64.8496 50.4132 64.7524C50.3257 64.5579 49.9951 64.4023 49.9951 64.4023Z" fill="#FFE592"/>
<path d="M49.1105 62.4189C49.1105 62.4189 48.7021 63.4593 48.7021 63.6343C48.7021 63.8093 48.7216 63.9163 49.13 63.9163C49.48 63.9163 49.6939 63.6732 49.6939 63.6732C49.6939 63.6732 49.1202 63.7412 48.9258 63.6732L49.2661 62.662L49.1105 62.4189ZM53.5247 62.9926C53.5247 62.9926 52.6788 63.6148 52.8149 64.5385C52.9511 65.4622 53.9233 65.2969 54.8081 64.9566C54.8081 64.9566 54.0984 65.0052 53.865 64.9858C53.6317 64.9663 52.9511 64.8691 53.1747 63.9746C53.2233 63.7704 53.4858 63.469 53.4858 63.469L53.5247 62.9926ZM52.9316 62.1272C52.9316 62.1272 53.6219 61.5536 54.5164 61.4369C55.4109 61.3202 56.7624 61.3008 57.3166 62.4286L57.0152 62.4967C57.0152 62.4967 56.461 61.6022 54.9734 61.6022C53.4858 61.6022 52.9316 62.1272 52.9316 62.1272ZM57.268 61.4466L57.3555 61.6703H58.8431C58.8431 61.6703 58.425 64.451 58.4153 64.6066C58.4056 65.0052 58.814 64.4899 58.814 64.4899C58.814 64.4899 58.6292 64.6357 58.6876 64.3149C58.707 64.1885 59.1348 61.4369 59.1348 61.4369L57.268 61.4466ZM60.6808 61.4466L60.7585 61.6703H61.7503C61.7503 61.6703 61.3808 64.451 61.3808 64.6066C61.3711 65.0052 61.7794 64.4899 61.7794 64.4899C61.7794 64.4899 61.5947 64.6357 61.653 64.3149C61.6725 64.1885 62.042 61.4369 62.042 61.4369L60.6808 61.4466ZM58.7945 66.3956L58.6487 66.1331L60.321 63.4301L60.4474 63.6537L58.7945 66.3956ZM61.76 66.3761L61.6433 66.2011L64.2782 62.6523L64.2491 63.0412L61.76 66.3761ZM63.5879 61.4466H65.4644C65.4644 61.4466 64.8033 62.2245 64.9394 62.2342C65.0755 62.2536 65.2602 62.1661 65.2602 62.1661C65.2602 62.1661 64.5796 62.5745 64.6963 62.2147C64.8227 61.855 65.0366 61.6703 65.0366 61.6703H63.7143L63.5879 61.4466ZM65.4547 62.0106C65.4547 62.0106 65.8047 61.6314 66.6992 61.4564C67.4868 61.3008 68.3521 61.573 68.6244 61.8161L67.7688 62.9342L67.6812 62.6328L68.216 61.9231C68.216 61.9328 67.1659 61.3105 65.4547 62.0106ZM66.0478 62.837C66.0478 62.837 65.6978 63.1676 66.077 63.3329C66.4367 63.4884 66.7381 63.5662 67.127 63.6732C67.7396 63.8385 67.8076 64.7135 66.8256 65.7539C66.8256 65.7539 67.5354 65.4622 67.7882 64.558C67.9924 63.819 67.4479 63.5079 66.9618 63.3912C66.6409 63.3134 66.0672 63.2162 66.1742 63.0023L66.0478 62.837Z" fill="#FFE692"/>
<path d="M57.2485 52.0446H60.2821L57.6861 60.3674L57.2485 59.9979L59.5431 52.5113H57.4235L57.2485 52.0446Z" fill="#FFCE00"/>
<path d="M58.4543 29.643C58.4543 29.643 57.6764 29.9541 57.6473 30.4305C57.6473 30.4305 57.2389 29.7791 57.9292 29.2638L58.4543 29.643Z" fill="white"/>
<path d="M47.3504 52.9196C47.3504 52.9196 48.7213 52.0446 51.3368 52.0446L51.6965 52.521C51.6965 52.521 48.7894 52.4626 47.3504 52.9196ZM22.4598 54.2419C22.4598 54.2419 20.8361 57.0518 20.6805 57.3144C20.5638 57.4991 20.4277 58.0728 21.1569 58.0728H23.0237L22.6542 57.5672H21.05L22.7709 54.6406L22.4598 54.2419ZM22.4792 52.0446H25.3086C25.3086 52.0446 25.8239 59.6965 25.8239 59.7451C25.8434 59.9007 25.9698 60.0465 26.1448 60.0659C26.1448 60.0659 25.3086 60.2993 25.2503 59.3951C25.1822 58.4811 24.8419 52.521 24.8419 52.521H22.1875L22.4792 52.0446ZM20.3694 53.2988C20.1944 53.2988 19.3096 53.785 19.3096 53.785C19.3096 53.785 20.5444 53.4933 21.293 53.4933" fill="#FFCE00"/>
<path d="M18.4834 52.9196C18.4834 52.9196 19.8543 52.0446 22.4698 52.0446L22.8295 52.521C22.8295 52.521 19.9224 52.4626 18.4834 52.9196ZM69.5189 52.0348C69.5967 52.1126 69.6647 52.2585 69.6258 52.5015H74.954L74.5845 53.6683L74.9443 54.1544L75.5957 52.0348H69.5189ZM38.4542 53.6197C38.4542 53.6197 38.0459 54.9711 37.9973 55.1656C37.9584 55.292 37.832 55.6615 38.3959 55.6615H40.4863L40.1363 56.8574L40.4669 57.256L41.0697 55.2531H38.5028L38.8431 54.1253L38.4542 53.6197ZM37.4722 56.7699C37.4722 56.7699 37.0833 58.0922 37.025 58.2769C36.9861 58.4033 36.8597 58.7728 37.4236 58.7728H39.8446L39.4946 59.9687L39.796 60.3576L40.3988 58.3547H37.5208L37.8514 57.256L37.4722 56.7699ZM36.2374 52.0348C36.3152 52.1126 36.3833 52.2585 36.3444 52.5015H41.6725L41.303 53.6683L41.6628 54.1544L42.3142 52.0348H36.2374ZM68.2355 53.678C67.584 52.3557 66.0089 52.0348 64.6477 52.0348H60.8461C60.9238 52.1126 61.0016 52.2585 60.9627 52.5015H64.9491C66.7187 52.5015 68.5466 53.6002 68.1771 56.4199C68.1869 56.4296 68.7508 54.7183 68.2355 53.678ZM29.655 54.2128L30.005 54.5239L28.9161 58.0825C28.9161 58.0825 29.3633 58.2186 30.7829 57.8394C30.7829 57.8394 28.0118 59.2784 28.4785 57.7713C28.9355 56.3421 29.0327 56.0309 29.655 54.2128ZM34.9054 53.6586C34.2539 52.3362 32.6788 52.0154 31.3176 52.0154H27.516C27.5938 52.0932 27.6715 52.239 27.6326 52.4821H31.6288C33.3983 52.4821 35.2262 53.5808 34.8568 56.4004C34.8568 56.4004 35.4207 54.6892 34.9054 53.6586ZM47.6715 61.5049L47.0104 63.4301C46.8062 63.1578 46.5048 62.9148 46.0673 62.9148C45.4936 62.9148 44.8616 63.3523 44.6574 63.8968C44.4533 64.451 44.7838 64.8885 45.3575 64.8885C45.795 64.8885 46.2131 64.7135 46.6312 64.4218L45.8728 66.3178C45.5131 66.4539 44.7741 66.5122 44.4338 66.5122C42.9268 66.5122 42.1684 65.3844 42.7031 63.9454C42.8684 63.4981 43.1407 63.0703 43.481 62.7008C42.9268 62.7203 42.2073 62.7884 42.2073 62.7884C43.1698 62.2147 43.7143 62.1272 43.9185 62.1175C42.5087 62.0883 41.76 62.3119 41.76 62.3119C43.6657 61.398 45.3283 61.0188 46.952 61.3202C47.2048 61.3591 47.4576 61.4271 47.6715 61.5049Z" fill="#FFCE00"/>
<path d="M46.981 63.2162L46.7768 62.8273L47.1754 61.7189C47.1754 61.7189 46.4851 61.5244 45.2989 61.6217C43.9377 61.7383 42.5376 62.0981 42.5376 62.0981C42.5376 62.0981 45.0753 60.8049 47.5546 61.573L46.981 63.2162Z" fill="#FFE692"/>
</g>
<defs>
<clipPath id="clip0_401_987">
<rect width="80" height="80" fill="white"/>
</clipPath>
</defs>
</svg>
