<svg width="80" height="80" viewBox="0 0 80 80" fill="none" xmlns="http://www.w3.org/2000/svg">
<path d="M40.328 0C24.008 0 9 2 9 2V52C9 58.656 11.656 63.44 16.664 66.336L40.328 80L63.992 66.336C69 63.44 71.656 58.656 71.656 52V2C71.656 2 56.648 0 40.328 0ZM69.656 52V52.176V52.336C69.656 52.816 69.64 53.056 69.608 53.504C69.24 58.544 67.032 62.272 63 64.592L40.328 77.696L17.656 64.608C13.576 62.24 11.4 58.624 11.048 53.536C11.016 53.072 11 52.832 11 52.336V44.448V38.704C11 38.592 11 38.48 11 38.368V30.48V3.776C11 3.776 25.224 2 40.328 2C55.432 2 69.656 3.776 69.656 3.776V52ZM13.208 54.784C13.784 58.432 15.592 61.088 18.664 62.864L40.328 75.376L61.992 62.864C65.064 61.088 66.872 58.432 67.448 54.784L40.328 70.448L13.208 54.784ZM13 40.688V45.6L40.328 61.392L67.656 45.6V40.688L40.328 56.464L13 40.688ZM13 5.552V31.632L40.328 47.408L67.656 31.632V5.552C67.656 5.552 54.104 4 40.328 4C26.104 4 13 5.552 13 5.552Z" fill="white"/>
<path d="M23.3521 10.672H19.4321V26.88H23.3841V17.904H23.4641L29.1601 26.88H33.0481V14.096H41.8321C43.4641 14.096 44.2481 14.816 44.2481 16.32C44.2481 17.696 43.4321 18.512 42.0561 18.512H39.5761V15.952H35.4161V26.88H39.5761V22.032H41.5921L45.5281 26.88H50.6641L45.8161 21.056C47.4001 20.08 48.2641 18.368 48.2641 16.208C48.2641 12.752 45.9121 10.656 42.1201 10.656H29.0001V19.68H28.9201C28.9041 19.68 23.3521 10.672 23.3521 10.672ZM62.7761 26.88V23.28H54.5201V10.672H50.3281V23.776L52.9201 26.896H62.7761V26.88Z" fill="#00D470"/>
</svg>
