<svg width="80" height="80" viewBox="0 0 80 80" fill="none" xmlns="http://www.w3.org/2000/svg">
<path d="M34.8152 26.621C28.7873 26.6014 24.5727 22.671 24.5727 17.0645C24.5727 14.5161 25.7488 11.9873 27.8072 10.1447C29.6596 8.4882 32.1492 7.57666 34.7956 7.57666C40.8334 7.57666 45.0578 11.4973 45.0578 17.1037C45.0578 19.6521 43.8424 22.2495 41.8233 24.053C39.9414 25.7389 37.5205 26.621 34.8152 26.621ZM34.6486 11.3012C32.208 11.3012 30.6888 13.2909 30.6888 16.5058C30.6888 20.4657 32.4041 23.1219 34.9623 23.1219C37.5205 23.1219 38.9417 21.1616 38.9417 17.8879C38.9417 13.8888 37.2558 11.3012 34.6486 11.3012ZM18.0743 26.1995C17.8782 26.1995 17.692 26.0819 17.6234 25.8957C17.545 26.0819 17.3685 26.1995 17.1725 26.1995H5.97918C5.77334 26.1995 5.59692 26.0721 5.52831 25.8859C5.44989 25.6997 5.4989 25.484 5.64593 25.3468C6.43985 24.6019 6.47905 23.9158 6.47905 22.6612V11.4973C6.47905 10.2623 6.47905 9.58597 5.65573 8.83125C5.5087 8.69403 5.44989 8.4784 5.52831 8.29217C5.59692 8.10594 5.78315 7.97852 5.98898 7.97852H12.8108C13.0167 7.97852 13.1931 8.10594 13.2715 8.29217C13.3499 8.4784 13.2911 8.69403 13.1441 8.83125C12.3502 9.55657 12.311 10.2133 12.311 11.4973V22.426C13.1049 22.6514 13.84 22.7592 14.5947 22.7592C15.7513 22.7592 16.702 22.4358 17.7998 21.6712C17.888 21.6124 17.986 21.583 18.0841 21.583C18.1821 21.583 18.2801 21.6124 18.3585 21.6712C18.5251 21.7889 18.6035 21.9947 18.5545 22.1907L17.7704 25.3272C18.5447 24.5921 18.5741 23.906 18.5741 22.671V11.5071C18.5741 10.3113 18.5741 9.59577 17.7508 8.84106C17.6038 8.70384 17.545 8.4882 17.6234 8.30197C17.692 8.11574 17.8782 7.98832 18.0841 7.98832H24.9059C25.1117 7.98832 25.2882 8.11574 25.3666 8.30197C25.445 8.4882 25.3862 8.70384 25.2392 8.84106C24.4452 9.57617 24.406 10.2231 24.406 11.5071V22.671C24.406 23.9256 24.4452 24.6117 25.2392 25.3566C25.3862 25.4938 25.4352 25.7095 25.3568 25.8957C25.2784 26.0819 25.1019 26.2093 24.9059 26.2093H18.0841L18.0743 26.1995Z" fill="#8B0042"/>
<path d="M60.1032 26.66C56.2708 26.2091 54.8496 24.3468 53.3402 22.3767L48.8805 16.5644V22.4453C48.8805 23.8077 49.0275 24.5624 49.8802 25.4054C50.0175 25.5426 50.0665 25.7582 49.9881 25.9445C49.9096 26.1307 49.7332 26.2483 49.5372 26.2483H44.4992C44.3032 26.2483 44.1267 26.1307 44.0483 25.9641C43.9699 25.7974 43.9993 25.5818 44.1267 25.4348C45.1951 24.2292 45.1951 23.1608 45.1951 21.3966V12.1439C45.1951 11.0364 45.1951 10.164 43.9503 8.82121C43.8131 8.67419 43.7837 8.46835 43.8621 8.29193C43.9405 8.1155 44.1169 7.99788 44.313 7.99788H49.6254C49.7822 7.99788 49.9292 8.07629 50.0175 8.19391L56.9569 17.5544V12.2321C56.9569 11.0952 56.8785 10.1248 55.8396 8.80161C55.7219 8.65458 55.7023 8.44875 55.7808 8.28213C55.8592 8.1155 56.0356 8.00768 56.2218 8.00768H61.1618C61.3382 8.00768 61.5048 8.1057 61.5931 8.25272C61.6813 8.39974 61.6813 8.59577 61.5931 8.7428C60.7207 10.1934 60.6423 11.252 60.6423 12.3007V21.1319C60.6423 21.1319 60.7011 21.0633 60.7403 21.0339C60.8285 20.9653 60.9265 20.9359 61.0344 20.9359C61.1226 20.9359 61.201 20.9555 61.2794 21.0045C63.4357 22.2787 65.0138 22.8178 66.533 22.8178C67.8072 22.8178 68.6599 22.2493 68.6599 21.3966C68.6599 20.436 67.817 19.9949 66.0625 19.1618C65.6509 18.9658 65.2 18.7501 64.7197 18.5051C62.2007 17.2113 60.8187 15.2804 60.8187 13.0653C60.8187 9.78176 63.5632 7.57642 67.6406 7.57642C69.1108 7.57642 70.5418 7.84106 72.1395 8.41935C72.3355 8.48796 72.4629 8.67419 72.4629 8.88002V11.7813C72.4629 11.9479 72.3747 12.1145 72.2277 12.2027C72.1493 12.2517 72.0611 12.2713 71.9729 12.2713C71.8945 12.2713 71.816 12.2517 71.7474 12.2223C70.2282 11.448 69.1892 11.0952 68.3757 11.0952C67.3563 11.0952 66.6114 11.595 66.6114 12.2811C66.6114 13.0457 67.425 13.4965 69.2774 14.4277C69.8361 14.7119 70.4634 15.0256 71.1593 15.4078C73.2863 16.584 74.3154 18.2601 74.3154 20.5144C74.3154 24.0822 71.3848 26.4737 67.0329 26.4737C65.3666 26.4737 63.7004 26.1797 61.7695 25.5426C61.6127 25.4936 61.4852 25.3564 61.446 25.1897L60.6423 21.8964V26.1503C60.6423 26.2875 60.5835 26.4247 60.4757 26.513C60.3875 26.5914 60.2698 26.6404 60.1522 26.6404C60.1326 26.6404 60.113 26.6404 60.0934 26.6404L60.1032 26.66Z" fill="#8B0042"/>
<path d="M34.6486 10.811C32.0316 10.811 30.1987 12.8498 30.1987 16.5057C30.1987 20.9164 32.1884 23.6118 34.9623 23.6118C37.7361 23.6118 39.4318 21.5731 39.4318 17.8877C39.4318 13.5163 37.4519 10.811 34.6486 10.811ZM34.9623 22.6317C32.6981 22.6317 31.1789 20.1715 31.1789 16.5057C31.1789 13.5555 32.4727 11.7912 34.6486 11.7912C36.9618 11.7912 38.4516 14.1828 38.4516 17.8877C38.4516 20.9066 37.1774 22.6317 34.9623 22.6317Z" fill="white"/>
<path d="M71.414 15.006C70.7083 14.6238 70.081 14.3003 69.5223 14.0161C67.9933 13.2417 67.121 12.7811 67.121 12.3008C67.121 11.9577 67.6012 11.6049 68.3952 11.6049C69.1107 11.6049 70.1104 11.9479 71.5414 12.6733C71.6787 12.7419 71.8355 12.7811 71.9825 12.7811C72.1589 12.7811 72.3354 12.7321 72.4922 12.634C72.7862 12.4576 72.9627 12.144 72.9627 11.8009V8.89967C72.9627 8.48801 72.7078 8.11555 72.3158 7.97833C70.6691 7.38044 69.1891 7.10599 67.6502 7.10599C65.2293 7.10599 63.2396 7.84111 61.9556 9.1055C61.9752 9.0761 61.9948 9.04669 62.0144 9.01729C62.2006 8.71344 62.2006 8.34098 62.034 8.02734C61.8673 7.71369 61.5341 7.52746 61.1812 7.52746H56.2413C55.8688 7.52746 55.5258 7.74309 55.3591 8.07634C55.1925 8.40959 55.2415 8.81146 55.467 9.1055C56.4079 10.3111 56.4863 11.1638 56.4863 12.2322V16.0744L50.429 7.89992C50.2427 7.65488 49.9487 7.50786 49.6449 7.50786H44.3324C43.9404 7.50786 43.5875 7.74309 43.4307 8.09595C43.2739 8.4586 43.3425 8.87027 43.6169 9.15451C44.7343 10.3503 44.7343 11.056 44.7343 12.144V12.9673C43.1759 9.37014 39.5199 7.09619 34.8152 7.09619C32.0413 7.09619 29.4439 8.05674 27.4934 9.79161C26.3564 10.811 25.4743 12.0362 24.896 13.3496V11.5069C24.896 10.3013 24.9254 9.79161 25.5625 9.20352C25.8566 8.92908 25.9546 8.49781 25.8076 8.12535C25.6605 7.75289 25.2979 7.49805 24.896 7.49805H18.0742C17.6723 7.49805 17.3096 7.74309 17.1626 8.12535C17.0156 8.50761 17.1234 8.92908 17.4175 9.20352C18.0546 9.77201 18.084 10.2425 18.084 11.5069V21.0928C17.8879 21.0928 17.6919 21.1516 17.5253 21.2692C16.5255 21.9651 15.6532 22.2689 14.6044 22.2689C14.0065 22.2689 13.4282 22.2003 12.8107 22.0533V11.5069C12.8107 10.3013 12.8402 9.79161 13.4772 9.20352C13.7713 8.92908 13.8693 8.49781 13.7223 8.12535C13.5753 7.75289 13.2126 7.49805 12.8107 7.49805H5.97909C5.57723 7.49805 5.21457 7.74309 5.06755 8.12535C4.92052 8.50761 5.02834 8.92908 5.32239 9.20352C5.95949 9.77201 5.98889 10.2425 5.98889 11.5069V22.6708C5.98889 23.847 5.95949 24.3861 5.31258 24.9938C5.01854 25.2682 4.92052 25.6995 5.06755 26.0719C5.21457 26.4444 5.57723 26.6894 5.97909 26.6894H17.1626C17.3292 26.6894 17.4763 26.6502 17.6135 26.5816C17.7507 26.6502 17.9075 26.6894 18.0644 26.6894H24.8862C25.2881 26.6894 25.6507 26.4444 25.7978 26.0719C25.9448 25.6995 25.8468 25.2682 25.5527 24.9938C24.9058 24.3861 24.8764 23.8372 24.8764 22.6708V21.083C26.4349 24.7193 30.1398 27.1011 34.8054 27.1207C37.638 27.1207 40.1668 26.1895 42.1467 24.4253C43.2641 23.4353 44.1266 22.2101 44.7147 20.8869V21.4064C44.7147 23.1609 44.7147 24.043 43.7639 25.1212C43.5091 25.4054 43.4503 25.8171 43.6071 26.1699C43.7639 26.5228 44.1168 26.7482 44.4991 26.7482H49.537C49.9389 26.7482 50.2918 26.5032 50.4486 26.1405C50.5956 25.7681 50.5172 25.3466 50.2329 25.0722C49.4684 24.3175 49.3802 23.6608 49.3802 22.465V18.0347L52.8303 22.5336L52.9578 22.7002C54.526 24.7585 56.006 26.6992 60.0541 27.1795C60.0933 27.1795 60.1325 27.1795 60.1717 27.1795C60.4069 27.1795 60.6422 27.0913 60.8186 26.9345C61.0244 26.7482 61.1518 26.4836 61.1518 26.1994V25.6995C61.2695 25.8661 61.4361 25.9837 61.6321 26.0523C63.612 26.709 65.3371 27.0129 67.0524 27.0129C71.6983 27.0129 74.825 24.4155 74.825 20.5635C74.825 18.1131 73.7076 16.3096 71.4238 15.0354L71.414 15.006ZM17.1626 25.7093H5.97909C6.94944 24.7977 6.96904 23.8764 6.96904 22.6708V11.5069C6.96904 10.2523 6.96904 9.37014 5.97909 8.47821H12.8009C11.8306 9.37014 11.811 10.2523 11.811 11.5069V22.7982C12.7519 23.0923 13.6439 23.2491 14.5848 23.2491C15.859 23.2491 16.9176 22.8766 18.0644 22.0729L17.1528 25.7093H17.1626ZM23.9061 11.4971V22.661C23.9061 23.8666 23.9257 24.7977 24.896 25.6995H18.0742C19.0445 24.7879 19.0641 23.8666 19.0641 22.661V11.4971C19.0641 10.2621 19.0641 9.36034 18.0742 8.4684H24.896C23.9257 9.36034 23.9061 10.2425 23.9061 11.4971ZM41.4998 23.6804C39.7159 25.278 37.3734 26.1307 34.8152 26.1307C29.0715 26.1111 25.0626 22.3376 25.0626 17.0643C25.0626 14.6924 26.1604 12.2812 28.1403 10.5071C29.9144 8.91927 32.2668 8.05674 34.8054 8.05674C40.5784 8.05674 44.5775 11.7911 44.5775 17.0937C44.5775 19.4657 43.4797 21.9259 41.4998 23.6804ZM60.1619 12.3106V26.1699C56.4275 25.7289 55.1729 23.9548 53.6047 21.9063L48.4001 15.1138V22.4356C48.4001 23.749 48.5079 24.7291 49.5468 25.7485H44.5089C45.7046 24.3959 45.7046 23.1903 45.7046 21.3868V12.1342C45.7046 10.909 45.6752 9.91903 44.3226 8.47821H49.6351L57.4567 19.0344V12.2322C57.4567 11.056 57.3586 9.93863 56.2315 8.49781H61.1714C60.2305 10.0464 60.1521 11.1932 60.1521 12.3106H60.1619ZM64.5138 18.956C64.994 19.2011 65.4449 19.4167 65.8664 19.6127C67.5816 20.4263 68.1795 20.7693 68.1795 21.4064C68.1795 22.0435 67.3562 22.3376 66.5427 22.3376C65.1117 22.3376 63.612 21.8181 61.5341 20.5929C61.4067 20.5243 61.2793 20.4753 61.142 20.4655V15.9764C61.8379 17.1525 62.9847 18.1719 64.5138 18.956ZM67.0425 26.0033C65.3371 26.0033 63.6904 25.6701 61.9262 25.0918L61.0342 21.4358C63.0533 22.6316 64.7686 23.3177 66.5427 23.3177C68.1697 23.3177 69.1597 22.4846 69.1597 21.4064C69.1597 19.7794 67.3758 19.3187 64.9548 18.0837C62.5731 16.8585 61.3185 15.104 61.3185 13.0849C61.3185 10.1641 63.6904 8.08614 67.6502 8.08614C69.1205 8.08614 70.5025 8.37039 71.9825 8.89967V11.8009C70.5417 11.0658 69.3655 10.6247 68.3952 10.6247C67.0131 10.6247 66.1408 11.3893 66.1408 12.3008C66.1408 13.7318 67.9737 14.2317 70.9436 15.8587C72.9235 16.9565 73.8448 18.4464 73.8448 20.5341C73.8448 23.7686 71.1788 26.0033 67.0524 26.0033H67.0425Z" fill="white"/>
<path d="M55.5062 6.77276C54.2026 6.62573 53.7223 5.99844 53.2127 5.34173L51.8404 3.55786V5.28293C51.8404 5.67499 51.8601 5.93963 52.1541 6.22387C52.2227 6.29248 52.2521 6.4003 52.2129 6.48851C52.1737 6.57673 52.0855 6.64534 51.9875 6.64534H50.2918C50.1938 6.64534 50.1056 6.58653 50.0664 6.49831C50.0664 6.47871 50.0566 6.45911 50.0468 6.4395C50.0468 6.45911 50.0468 6.48851 50.0272 6.50812C49.988 6.60613 49.8997 6.66494 49.8017 6.66494H47.2925C47.1945 6.66494 47.1063 6.60613 47.0671 6.51792C47.0279 6.4297 47.0377 6.33169 47.1063 6.25328C47.3023 6.02784 47.3612 5.94943 47.3612 5.81221C47.3612 5.7436 47.3514 5.65538 47.3219 5.59657L47.0867 4.93007H45.6949L45.4891 5.56717C45.4499 5.66518 45.4401 5.7632 45.4205 5.85141C45.4205 5.95923 45.4891 6.08665 45.6165 6.22387C45.6851 6.29248 45.7047 6.4003 45.6655 6.48851C45.6263 6.57673 45.5381 6.63554 45.4401 6.63554H43.7444C43.6464 6.63554 43.5582 6.57673 43.519 6.48851C43.4798 6.4003 43.4994 6.29248 43.568 6.22387C43.813 5.97883 43.96 5.7534 44.058 5.46915L45.4499 1.46033C45.4891 1.36232 45.5185 1.28391 45.5185 1.18589C45.5185 1.07807 45.4597 0.98986 45.293 0.79383C45.2342 0.725219 45.2146 0.617403 45.2538 0.529189C45.293 0.440975 45.3812 0.391968 45.4793 0.391968H47.518C47.6258 0.391968 47.714 0.460578 47.7532 0.558593L49.3803 5.29273C49.5077 5.67499 49.7135 5.99844 49.9586 6.23367C49.9978 6.27288 50.0272 6.32189 50.037 6.37089C50.037 6.32189 50.0664 6.26308 50.1056 6.22387C50.429 5.87102 50.429 5.54757 50.429 4.94967V1.85239C50.429 1.48974 50.429 1.2251 50.037 0.79383C49.9684 0.725219 49.9586 0.617403 49.9978 0.529189C50.037 0.440975 50.1252 0.382166 50.2232 0.382166H52.0071C52.0855 0.382166 52.1541 0.421372 52.2031 0.480181L54.379 3.41084V1.8622C54.379 1.49954 54.3496 1.18589 54.0262 0.754624C53.9674 0.676212 53.9576 0.578196 53.9968 0.499784C54.036 0.411571 54.1242 0.362563 54.2124 0.362563H55.8591C55.9473 0.362563 56.0257 0.411571 56.0747 0.489983C56.1237 0.568395 56.1139 0.66641 56.0747 0.735021C55.7905 1.20549 55.7611 1.55835 55.7611 1.8818V6.52772C55.7611 6.59633 55.7317 6.66494 55.6826 6.71395C55.6336 6.75315 55.5748 6.77276 55.516 6.77276C55.516 6.77276 55.4964 6.77276 55.4866 6.77276H55.5062ZM46.6848 3.63627L46.4398 2.89135L46.185 3.63627H46.6848ZM35.3249 6.74335C34.7466 6.74335 34.1585 6.63554 33.5312 6.4199C33.4528 6.3905 33.394 6.33169 33.3744 6.24347L33.0803 5.01828C33.0607 4.92027 33.0901 4.82225 33.1686 4.76345C33.2078 4.73404 33.2666 4.71444 33.3156 4.71444C33.3548 4.71444 33.4038 4.72424 33.443 4.74384C34.1781 5.17511 34.678 5.35154 35.1681 5.35154C35.5503 5.35154 35.8052 5.19471 35.8052 4.94967C35.8052 4.68503 35.5797 4.55761 34.9524 4.25377C34.8152 4.19496 34.678 4.12635 34.531 4.04793C33.6586 3.59706 33.1686 2.93056 33.1686 2.14644C33.1686 0.999662 34.1193 0.225342 35.5307 0.225342C36.0208 0.225342 36.5207 0.313555 37.0598 0.509586C37.1578 0.548792 37.2264 0.637006 37.2264 0.744822V1.71517C37.2264 1.80339 37.1774 1.8818 37.1088 1.921C37.0696 1.94061 37.0304 1.96021 36.9813 1.96021C36.9421 1.96021 36.9029 1.96021 36.8735 1.93081C36.3933 1.68577 36.0404 1.56815 35.7758 1.56815C35.4817 1.56815 35.2661 1.70537 35.2661 1.8916C35.2661 2.09743 35.5503 2.24445 36.1286 2.5385C36.3148 2.63652 36.5207 2.73453 36.7559 2.86195C37.491 3.26381 37.8537 3.8519 37.8537 4.64583C37.8537 5.89062 36.8441 6.72375 35.3347 6.72375L35.3249 6.74335ZM28.062 6.66494C27.268 6.66494 26.876 6.21407 26.4937 5.49856L26.1997 4.93987V5.39074C26.1997 5.81221 26.2193 6.01804 26.4545 6.23367C26.5231 6.30228 26.5525 6.4101 26.5133 6.49831C26.4741 6.58653 26.3859 6.65514 26.2879 6.65514H23.9943C23.8963 6.65514 23.8081 6.59633 23.7689 6.49831C23.7297 6.4101 23.7591 6.30228 23.8277 6.23367C24.0825 5.98864 24.0825 5.7828 24.0825 5.39074V1.63676C24.0825 1.20549 24.0825 1.01926 23.8375 0.803631C23.7591 0.735021 23.7395 0.627204 23.7689 0.529189C23.8081 0.431174 23.8963 0.372365 23.9943 0.372365H26.2389C28.2972 0.372365 28.7285 1.34271 28.7285 2.15624C28.7285 2.79334 28.4148 3.28342 27.7777 3.66567L28.6991 5.23392C28.8167 5.42995 29.0323 5.7436 29.4342 6.14546C29.5028 6.21407 29.5224 6.31209 29.493 6.4003C29.4636 6.48851 29.3852 6.55712 29.2872 6.56692L28.3266 6.66494C28.258 6.68454 28.16 6.68454 28.0718 6.68454L28.062 6.66494ZM26.2095 3.11679C26.5133 2.95997 26.6603 2.70513 26.6603 2.35227C26.6603 1.99942 26.5035 1.78378 26.2095 1.74458V3.11679ZM29.9046 6.64534C29.8066 6.64534 29.7184 6.58653 29.6792 6.48851C29.64 6.4003 29.6694 6.29248 29.738 6.22387C29.9929 5.97883 29.9929 5.773 29.9929 5.38094V1.63676C29.9929 1.20549 29.9929 1.01926 29.7478 0.803631C29.6694 0.735021 29.6498 0.627204 29.6792 0.529189C29.7086 0.431174 29.8066 0.372365 29.9046 0.372365H32.1786C32.2766 0.372365 32.3746 0.431174 32.404 0.529189C32.4432 0.627204 32.4138 0.735021 32.3354 0.803631C32.1002 1.01926 32.0904 1.20549 32.0904 1.63676V5.37114C32.0904 5.773 32.1002 5.98864 32.3452 6.23367C32.4138 6.30228 32.4334 6.4101 32.3942 6.49831C32.355 6.58653 32.2668 6.64534 32.1688 6.64534H29.8948H29.9046ZM57.0647 6.62573C56.9568 6.62573 56.8686 6.55712 56.8294 6.45911C56.7902 6.36109 56.8294 6.25328 56.9078 6.18467C57.1823 5.95923 57.1823 5.7534 57.1823 5.35154V1.63676C57.1823 1.20549 57.1823 1.01926 56.9372 0.803631C56.8588 0.735021 56.8392 0.627204 56.8686 0.529189C56.9078 0.431174 56.996 0.372365 57.0941 0.372365H60.4658C60.603 0.372365 60.7108 0.480181 60.7108 0.617403V1.82299C60.7108 1.921 60.652 2.00922 60.5638 2.04842C60.5344 2.05823 60.4952 2.06803 60.4658 2.06803C60.407 2.06803 60.3482 2.04842 60.2992 1.99942C60.0639 1.77398 59.9071 1.73478 59.6327 1.73478H59.2798V2.68552H60.1521C60.2894 2.68552 60.3972 2.79334 60.3972 2.93056V4.04793C60.3972 4.15575 60.3286 4.24396 60.2305 4.28317C60.2011 4.28317 60.1815 4.29297 60.1521 4.29297C60.0737 4.29297 60.0051 4.25377 59.9561 4.19496C59.8581 4.05774 59.7209 3.99893 59.5248 3.99893H59.2798V5.27312C59.4268 5.29273 59.5542 5.31233 59.6817 5.31233C60.2404 5.31233 60.6226 5.20451 60.9755 4.93987C61.0147 4.91047 61.0735 4.89086 61.1225 4.89086C61.1715 4.89086 61.2205 4.90067 61.2597 4.93007C61.3479 4.98888 61.3871 5.0967 61.3577 5.19471L61.0441 6.44931C61.0147 6.55712 60.9167 6.63554 60.8088 6.63554H57.0647V6.62573ZM38.6574 6.62573C38.5594 6.62573 38.4614 6.56692 38.432 6.46891C38.3928 6.37089 38.4222 6.26308 38.5006 6.19447C38.7358 5.97883 38.7456 5.7828 38.7456 5.36134V1.63676C38.7456 1.20549 38.726 1.00946 38.4908 0.79383C38.4222 0.725219 38.3928 0.617403 38.432 0.529189C38.4712 0.440975 38.5594 0.372365 38.6574 0.372365H40.8039C42.9897 0.372365 43.2249 1.49954 43.2249 1.97981C43.2249 2.43068 43.0289 2.81294 42.6662 3.08739C43.2347 3.41084 43.5386 3.93032 43.5386 4.62622C43.5386 5.1359 43.3621 5.60638 43.0191 5.97883C42.5192 6.51792 41.9311 6.62573 41.147 6.62573H38.6574ZM40.9608 5.30253C41.3332 5.30253 41.5783 5.01828 41.5783 4.60662C41.5783 4.13615 41.343 3.8519 40.9608 3.8519C40.9412 3.8519 40.9118 3.8519 40.8725 3.8519V5.30253C40.8725 5.30253 40.9314 5.30253 40.9608 5.30253ZM40.8627 2.57771C41.147 2.57771 41.2058 2.33267 41.2058 2.13664C41.2058 1.94061 41.098 1.73478 40.8725 1.73478V2.57771H40.8627ZM18.182 6.63554C18.084 6.63554 17.9958 6.57673 17.9566 6.47871C17.9174 6.3905 17.9468 6.28268 18.0154 6.21407C18.2408 5.99844 18.2506 5.81221 18.2506 5.37114V1.63676C18.2506 1.20549 18.231 1.00946 17.9958 0.79383C17.9272 0.725219 17.8978 0.617403 17.937 0.529189C17.9762 0.440975 18.0644 0.372365 18.1624 0.372365H20.309C22.4947 0.372365 22.7299 1.49954 22.7299 1.97981C22.7299 2.43068 22.5339 2.81294 22.1713 3.08739C22.7397 3.41084 23.0436 3.93032 23.0436 4.62622C23.0436 5.1359 22.8672 5.60638 22.5241 5.97883C22.0242 6.51792 21.4361 6.62573 20.652 6.62573H18.1722L18.182 6.63554ZM20.4756 5.31233C20.848 5.31233 21.0931 5.02809 21.0931 4.61642C21.0931 4.14595 20.8578 3.86171 20.4756 3.86171C20.456 3.86171 20.4266 3.86171 20.3874 3.86171V5.31233C20.3874 5.31233 20.4462 5.31233 20.4756 5.31233ZM20.3776 2.58751C20.6618 2.58751 20.7206 2.34247 20.7206 2.14644C20.7206 1.95041 20.6128 1.74458 20.3874 1.74458V2.58751H20.3776Z" fill="#0055A3"/>
<path d="M35.5208 0.490076C36.0108 0.490076 36.4813 0.588091 36.9616 0.754717V1.72507C36.4715 1.47023 36.0795 1.33301 35.756 1.33301C35.3051 1.33301 35.0013 1.58785 35.0013 1.90149C35.0013 2.37197 35.609 2.5484 36.6185 3.09728C37.2752 3.45994 37.5889 3.95981 37.5889 4.66552C37.5889 5.74369 36.697 6.49841 35.3149 6.49841C34.7465 6.49841 34.1878 6.39059 33.6095 6.18476L33.3154 4.95957C34.0015 5.37123 34.57 5.60647 35.1679 5.60647C35.7168 5.60647 36.0501 5.32222 36.0501 4.95957C36.0501 4.41068 35.4522 4.25386 34.6386 3.8422C33.8349 3.43053 33.4134 2.84244 33.4134 2.16614C33.4134 1.19579 34.2172 0.490076 35.5306 0.490076M60.4656 0.617496V1.82308C60.1814 1.55844 59.9658 1.48983 59.6325 1.48983H59.0346V2.93065H60.152V4.04803C60.0148 3.8618 59.8089 3.75398 59.5247 3.75398H59.0346V5.47905C59.2503 5.52806 59.4561 5.55746 59.6815 5.55746C60.2598 5.55746 60.7009 5.44964 61.1223 5.136L60.8087 6.39059H57.0645C57.4272 6.09654 57.4272 5.7927 57.4272 5.37123V1.63685C57.4272 1.21539 57.4272 0.911541 57.0939 0.617496H60.4656ZM55.8883 0.617496C55.5747 1.13698 55.5453 1.52904 55.5453 1.89169V6.53761C54.2907 6.40039 53.879 5.8025 53.3497 5.10659L51.6051 2.83264V5.28302C51.6051 5.72409 51.6345 6.04754 51.9971 6.40039H50.3015C50.6935 5.97893 50.6935 5.56726 50.6935 4.95957V1.85249C50.6935 1.44082 50.6739 1.11737 50.2427 0.627297H52.0265L54.6435 4.15584V1.87209C54.6435 1.48003 54.6141 1.10757 54.2319 0.617496H55.8785M40.794 0.617496C42.2348 0.617496 42.9699 1.13698 42.9699 1.97991C42.9699 2.47978 42.6759 2.89145 42.1074 3.12668C42.8719 3.36192 43.2836 3.8618 43.2836 4.63612C43.2836 5.08699 43.1267 5.49865 42.8327 5.8319C42.3916 6.30238 41.8722 6.40039 41.137 6.40039H38.6475C38.9807 6.10635 38.9807 5.7927 38.9807 5.38103V1.63685C38.9807 1.21539 38.9611 0.911541 38.6475 0.617496H40.794ZM40.843 2.83264C41.2057 2.83264 41.4409 2.5778 41.4409 2.14653C41.4409 1.78388 41.2057 1.49963 40.8626 1.49963C40.7842 1.49963 40.6862 1.51924 40.6078 1.52904V2.81304C40.7156 2.83264 40.794 2.83264 40.843 2.83264ZM40.9508 5.55746C41.4703 5.55746 41.8133 5.1458 41.8133 4.61652C41.8133 4.00882 41.4703 3.61676 40.9508 3.61676C40.8724 3.61676 40.7646 3.63636 40.6176 3.64617V5.50845C40.7744 5.55746 40.8822 5.55746 40.9508 5.55746ZM32.1687 0.617496C31.8354 0.911541 31.8354 1.21539 31.8354 1.63685V5.37123C31.8354 5.7927 31.855 6.09654 32.1687 6.41019H29.8947C30.228 6.09654 30.228 5.8025 30.228 5.39084V1.63685C30.228 1.21539 30.228 0.911541 29.8947 0.617496H32.1687ZM26.2387 0.617496C27.7286 0.617496 28.4833 1.11737 28.4833 2.15633C28.4833 2.78363 28.1402 3.2247 27.4345 3.56775L28.4833 5.35163C28.6401 5.61627 28.8949 5.94952 29.2478 6.31218L28.2873 6.41019C28.2088 6.4298 28.1304 6.4298 28.052 6.4298C27.4051 6.4298 27.0817 6.11615 26.6994 5.39084L25.9447 3.93041V5.39084C25.9447 5.8025 25.9643 6.11615 26.2779 6.41019H23.9844C24.3176 6.09654 24.3176 5.8025 24.3176 5.39084V1.63685C24.3176 1.21539 24.3176 0.911541 23.9844 0.617496H26.2289M25.9447 3.46974C26.5524 3.31291 26.8856 2.92085 26.8856 2.35236C26.8856 1.82308 26.572 1.48983 26.0721 1.48983C26.0231 1.48983 25.9937 1.48983 25.9447 1.50943V3.46974ZM20.3088 0.617496C21.7496 0.617496 22.4848 1.13698 22.4848 1.97991C22.4848 2.47978 22.1907 2.89145 21.6222 3.12668C22.3867 3.36192 22.7984 3.8618 22.7984 4.63612C22.7984 5.08699 22.6416 5.49865 22.3475 5.8319C21.9065 6.30238 21.387 6.40039 20.6519 6.40039H18.1721C18.4857 6.10635 18.4857 5.8025 18.4857 5.38103V1.63685C18.4857 1.21539 18.4661 0.911541 18.1525 0.617496H20.299M20.348 2.83264C20.7107 2.83264 20.9459 2.5778 20.9459 2.14653C20.9459 1.78388 20.7107 1.49963 20.3676 1.49963C20.3186 1.49963 20.2402 1.51924 20.1128 1.52904V2.81304C20.2206 2.83264 20.299 2.83264 20.348 2.83264ZM20.4558 5.55746C20.9753 5.55746 21.3184 5.1458 21.3184 4.61652C21.3184 4.00882 20.9753 3.61676 20.4558 3.61676C20.3774 3.61676 20.2696 3.63636 20.1226 3.64617V5.50845C20.2794 5.55746 20.3872 5.55746 20.4558 5.55746ZM47.5374 0.627297L49.1645 5.36143C49.3017 5.77309 49.5271 6.12595 49.8114 6.40039H47.3022C47.4884 6.18476 47.6158 6.03774 47.6158 5.8025C47.6158 5.70448 47.5962 5.59667 47.5668 5.50845L47.2728 4.67532H45.5281L45.2635 5.47905C45.2145 5.58687 45.2047 5.71429 45.1851 5.8221C45.1851 6.02793 45.2831 6.21416 45.4497 6.39059H43.754C44.0187 6.12595 44.1951 5.86131 44.3029 5.54766L45.6555 1.67606C45.7045 1.51924 45.783 1.38201 45.783 1.18598C45.783 0.980152 45.6751 0.842931 45.4987 0.637099H47.5374M45.8418 3.8814H47.018L46.4397 2.10733L45.8418 3.8814ZM35.5208 0C33.9819 0 32.9136 0.891938 32.9136 2.16614C32.9136 3.03847 33.4428 3.79319 34.4034 4.28326C34.5602 4.36168 34.7072 4.43029 34.8347 4.4891C35.3149 4.71453 35.5404 4.83215 35.5404 4.95957C35.5404 5.03798 35.3934 5.11639 35.1483 5.11639C34.6974 5.11639 34.2368 4.94977 33.5507 4.5381C33.4723 4.4891 33.384 4.46949 33.3056 4.46949C33.1978 4.46949 33.0998 4.4989 33.0116 4.56751C32.8548 4.68513 32.7763 4.88116 32.8254 5.07719L33.1194 6.30238C33.1586 6.4592 33.2762 6.59642 33.433 6.64543C34.0897 6.87086 34.6974 6.98848 35.3051 6.98848C36.9322 6.98848 38.0692 6.02793 38.0692 4.66552C38.0692 3.78339 37.6575 3.11688 36.844 2.66601C36.6087 2.53859 36.4029 2.43078 36.2167 2.33276C35.9128 2.17594 35.5404 1.98971 35.4816 1.89169C35.4914 1.89169 35.5796 1.82308 35.7462 1.82308C35.9716 1.82308 36.2853 1.9309 36.7264 2.15633C36.795 2.19554 36.8734 2.21514 36.9518 2.21514C37.04 2.21514 37.1282 2.19554 37.2066 2.14653C37.3537 2.05832 37.4419 1.90149 37.4419 1.72507V0.754717C37.4419 0.548885 37.3144 0.362656 37.1184 0.294046C36.5597 0.0980152 36.0304 0 35.511 0L35.5208 0ZM60.4558 0.12742H57.0841C56.8783 0.12742 56.7019 0.254839 56.6234 0.441068C56.5548 0.627297 56.6038 0.842931 56.7509 0.980152C56.9077 1.11737 56.9175 1.20559 56.9175 1.63685V5.37123C56.9175 5.7927 56.9077 5.87111 56.7313 6.00833C56.5744 6.13575 56.5156 6.36119 56.5842 6.54741C56.6528 6.74344 56.8391 6.87086 57.0449 6.87086H60.7891C61.0145 6.87086 61.2106 6.71404 61.2694 6.49841L61.583 5.24381C61.632 5.04778 61.5536 4.83215 61.3772 4.71453C61.2988 4.65572 61.2008 4.63612 61.1027 4.63612C61.0047 4.63612 60.8969 4.66552 60.8087 4.73413C60.495 4.96937 60.1716 5.05758 59.6619 5.05758C59.6129 5.05758 59.5639 5.05758 59.5051 5.05758V4.24406C59.6325 4.24406 59.6913 4.28326 59.7403 4.34207C59.8383 4.46949 59.9854 4.5381 60.1324 4.5381C60.1814 4.5381 60.2402 4.5381 60.2892 4.5087C60.4852 4.44009 60.6225 4.25386 60.6225 4.04803V2.93065C60.6225 2.65621 60.4068 2.44058 60.1324 2.44058H59.5051V1.97991H59.6129C59.8383 1.97991 59.9266 2.00931 60.103 2.17594C60.1912 2.26415 60.3186 2.31316 60.4362 2.31316C60.5048 2.31316 60.5637 2.30336 60.6323 2.27395C60.8087 2.19554 60.9263 2.01911 60.9263 1.82308V0.617496C60.9263 0.343053 60.7107 0.12742 60.4362 0.12742H60.4558ZM55.8785 0.12742H54.2319C54.0456 0.12742 53.879 0.235236 53.7908 0.401862C53.7124 0.568488 53.732 0.77432 53.8398 0.921343C54.1241 1.284 54.1437 1.53884 54.1437 1.87209V2.67581L52.4088 0.333252C52.3206 0.205832 52.1736 0.137221 52.0167 0.137221H50.2329C50.0368 0.137221 49.8604 0.254839 49.782 0.431267C49.7036 0.607694 49.733 0.813526 49.8702 0.960549C50.2034 1.32321 50.2034 1.50943 50.2034 1.85249V4.93997C50.2034 5.45945 50.2034 5.70448 50.0368 5.92992C49.8702 5.73389 49.733 5.48885 49.635 5.20461L48.0079 0.470473C47.9393 0.274443 47.7531 0.137221 47.5472 0.137221H45.5085C45.3223 0.137221 45.1459 0.245038 45.0675 0.421465C44.989 0.597893 45.0184 0.793923 45.1361 0.940946C45.1949 1.00956 45.3027 1.13698 45.3027 1.17618C45.3027 1.22519 45.2831 1.2742 45.2537 1.36241C45.2341 1.41142 45.2145 1.47023 45.2047 1.51924L43.8619 5.37123C43.7737 5.61627 43.6462 5.8221 43.4306 6.02793C43.2934 6.16516 43.2444 6.38079 43.3228 6.55722C43.4012 6.74345 43.5776 6.86106 43.7737 6.86106H45.4693C45.6653 6.86106 45.8418 6.74345 45.9202 6.55722C45.9986 6.37099 45.9496 6.16516 45.8124 6.02793C45.7438 5.95932 45.6947 5.89071 45.6947 5.8319C45.7046 5.75349 45.7144 5.69468 45.734 5.65548L45.9006 5.1556H46.9395L47.1258 5.66528C47.1258 5.66528 47.1454 5.75349 47.1454 5.8025C47.1454 5.84171 47.1062 5.90051 46.9591 6.06714C46.8317 6.21416 46.8023 6.41999 46.8807 6.59642C46.9591 6.77285 47.1258 6.89047 47.3218 6.89047H49.831C49.9192 6.89047 50.0074 6.86106 50.0858 6.82186C50.1544 6.86106 50.2329 6.88067 50.3113 6.88067H52.0069C52.203 6.88067 52.3892 6.76305 52.4578 6.57682C52.5362 6.39059 52.4872 6.17496 52.3402 6.03774C52.1343 5.84171 52.0951 5.68488 52.0951 5.28302V4.28326L52.9577 5.41044L53.0263 5.49865C53.5458 6.17496 54.0848 6.87086 55.4865 7.02769C55.5061 7.02769 55.5257 7.02769 55.5453 7.02769C55.6629 7.02769 55.7805 6.98848 55.8687 6.90027C55.9765 6.81206 56.0354 6.67483 56.0354 6.53761V1.88189C56.0354 1.58785 56.055 1.284 56.3098 0.862534C56.398 0.715511 56.4078 0.519481 56.3098 0.372458C56.2118 0.225435 56.055 0.12742 55.8785 0.12742ZM40.794 0.12742H38.6475C38.4514 0.12742 38.2652 0.245038 38.1966 0.431267C38.1182 0.617496 38.1672 0.833129 38.3142 0.97035C38.471 1.11737 38.4906 1.23499 38.4906 1.63685V5.37123C38.4906 5.7829 38.4808 5.89071 38.324 6.02793C38.177 6.16516 38.1182 6.38079 38.1966 6.56702C38.2652 6.75325 38.4514 6.88067 38.6573 6.88067H41.1468C41.9702 6.88067 42.6367 6.76305 43.1954 6.16516C43.5776 5.74369 43.7835 5.21441 43.7835 4.63612C43.7835 3.96962 43.5286 3.43053 43.0581 3.06788C43.3228 2.77383 43.4698 2.40137 43.4698 1.98971C43.4698 1.55844 43.2738 0.137221 40.8038 0.137221L40.794 0.12742ZM41.1076 5.03798V4.13624C41.2743 4.21465 41.3233 4.43029 41.3233 4.61652C41.3233 4.78314 41.2645 4.95957 41.1076 5.03798ZM32.1687 0.12742H29.8947C29.6889 0.12742 29.5124 0.254839 29.434 0.441068C29.3654 0.627297 29.4144 0.842931 29.5614 0.980152C29.7183 1.11737 29.7281 1.20559 29.7281 1.63685V5.38103C29.7281 5.72409 29.7281 5.85151 29.6105 5.97893C29.6105 5.97893 29.6007 5.96912 29.5909 5.95932C29.2184 5.58687 29.0028 5.28302 28.8949 5.09679L28.0912 3.73438C28.6793 3.33252 28.9636 2.80323 28.9636 2.14653C28.9636 1.39182 28.6107 0.117618 26.2289 0.117618H23.9844C23.7786 0.117618 23.6021 0.245038 23.5237 0.431267C23.4551 0.617496 23.5041 0.833129 23.6511 0.97035C23.808 1.10757 23.8178 1.19579 23.8178 1.62705V5.37123C23.8178 5.76329 23.8178 5.87111 23.6413 6.03774C23.4943 6.17496 23.4453 6.39059 23.5237 6.57682C23.6021 6.76305 23.7786 6.88067 23.9746 6.88067H26.2681C26.4642 6.88067 26.6504 6.76305 26.719 6.57682C26.7484 6.50821 26.7582 6.4298 26.7484 6.35138C27.0621 6.69444 27.4541 6.90027 28.0324 6.90027C28.1402 6.90027 28.2578 6.90027 28.3657 6.87086L29.2772 6.78265C29.3556 6.78265 29.434 6.74345 29.4928 6.70424C29.5811 6.81206 29.7183 6.88067 29.8653 6.88067H32.1392C32.3353 6.88067 32.5117 6.76305 32.5901 6.57682C32.6685 6.39059 32.6195 6.18476 32.4823 6.04754C32.3157 5.88091 32.2961 5.76329 32.2961 5.36143V1.63685C32.2961 1.20559 32.3059 1.11737 32.4627 0.980152C32.6097 0.842931 32.6685 0.627297 32.5901 0.441068C32.5215 0.254839 32.3353 0.12742 32.1294 0.12742H32.1687ZM20.3088 0.12742H18.1623C17.9663 0.12742 17.78 0.245038 17.7114 0.431267C17.633 0.617496 17.682 0.833129 17.829 0.97035C17.9859 1.11737 18.0055 1.23499 18.0055 1.63685V5.37123C18.0055 5.8025 17.9957 5.89071 17.8486 6.03774C17.7016 6.17496 17.6526 6.39059 17.731 6.57682C17.8094 6.76305 17.9859 6.88067 18.1819 6.88067H20.6617C21.485 6.88067 22.1515 6.76305 22.7102 6.16516C23.0924 5.74369 23.2983 5.21441 23.2983 4.63612C23.2983 3.96962 23.0434 3.43053 22.573 3.06788C22.8376 2.77383 22.9846 2.40137 22.9846 1.98971C22.9846 1.55844 22.7886 0.137221 20.3186 0.137221L20.3088 0.12742ZM20.6225 5.03798V4.13624C20.7891 4.21465 20.8381 4.43029 20.8381 4.61652C20.8381 4.78314 20.7793 4.95957 20.6225 5.03798Z" fill="white"/>
<path d="M39.7553 79.3433C39.6867 79.3139 33.2275 76.0108 26.8467 70.4631C18.3586 63.0728 13.8695 55.0747 13.8695 47.3119C13.8695 44.9792 14.2909 43.2933 14.4674 42.6758C14.5752 42.3033 14.5654 42.0289 14.4282 41.8525C14.2517 41.627 13.8401 41.5388 13.5362 41.5388H13.0069L12.9775 41.0095C13.1148 39.3531 15.0555 38.1475 16.4669 37.2752C16.9276 36.9909 17.3294 36.7459 17.5548 36.5498C17.6627 36.4616 17.6823 36.4126 17.6823 36.4126C17.6333 36.3342 17.2412 36.1186 16.8883 36.0206L16.5159 35.9127L16.5355 35.5305C16.6727 32.639 20.0836 29.9142 21.3774 28.9831C21.2206 28.9145 21.0344 28.8655 20.9168 28.8557L20.1523 28.787L20.5345 28.1205C22.6124 24.5724 27.5916 22.9943 29.1696 22.5631C29.0912 22.4161 28.9638 22.2396 28.8462 22.1024L28.3757 21.5829L29.0324 21.3183C31.9337 20.1519 34.7761 19.9167 36.6482 19.9167C37.1873 19.9167 37.6284 19.9363 37.942 19.9559C37.9224 19.8971 37.9028 19.8383 37.8734 19.7696L37.8342 19.6814V19.554L37.8244 19.0835L38.2949 19.0639C38.4517 19.0639 38.6085 19.0639 38.7653 19.0639C41.1961 19.0639 43.7543 19.6912 44.7247 19.9559C44.7737 19.7794 44.7835 19.603 44.7737 19.5442L44.7443 19.0051L45.2833 19.0247C48.0278 19.1325 50.7526 21.6221 51.772 22.6513L51.8504 22.1122L52.3796 22.2396C54.7516 22.8571 56.6629 26.2681 57.2706 27.4736C57.447 27.4344 57.6333 27.405 57.8391 27.405C58.4272 27.405 58.9173 27.5913 58.9663 27.6207L59.4661 27.8265L59.2211 28.3068C58.8879 28.9439 59.0839 30.0416 59.3583 30.4925C59.5152 30.7408 59.7177 30.8878 59.966 30.9336L60.1032 30.9532C62.9751 31.4237 63.2495 32.8155 63.2691 32.9723L63.3377 33.482L62.8281 33.531C62.5536 33.5604 62.4654 33.6878 62.4164 33.8054C62.2498 34.2367 62.4752 35.1482 63.0829 35.8147C65.3667 38.3239 65.5823 40.3822 65.5921 40.4705L65.6509 41.0683L65.0432 41.0095C65.004 41.0095 64.9746 41.0095 64.9354 41.0095C66.0724 43.4795 66.1018 47.2825 66.1018 47.3217C66.1018 55.0845 61.6127 63.0924 53.1148 70.4729C46.734 76.0206 40.2552 79.3237 40.1964 79.3531L39.9709 79.4609L39.7455 79.3531L39.7553 79.3433Z" fill="#EDC157"/>
<path d="M45.2638 19.4952C48.4983 19.6226 51.8211 23.3962 51.8211 23.3962C52.2131 23.1315 52.2621 22.6904 52.2621 22.6904C54.8987 23.3766 57.0257 28.0715 57.0257 28.0715C57.2805 27.9245 57.5647 27.8755 57.8392 27.8755C58.3489 27.8755 58.7899 28.0519 58.7899 28.0519C58.3685 28.8654 58.6037 30.1494 58.9468 30.7179C59.3192 31.3256 59.3976 31.2962 60.0249 31.404C62.6321 31.8255 62.789 33.0016 62.789 33.0016C61.4363 33.1291 61.7402 35.0208 62.7301 36.1087C64.9257 38.5199 65.1119 40.4802 65.1119 40.4802C65.0825 40.4802 65.0433 40.4802 65.0139 40.4802C64.612 40.4802 64.269 40.7252 64.269 40.7252C65.504 42.8718 65.6314 46.8414 65.6314 47.2923C65.6314 65.9249 39.9906 78.8924 39.9906 78.8924C39.9906 78.8924 14.3792 65.9249 14.3792 47.2923C14.3792 45.0673 14.7713 43.4305 14.9575 42.7934C15.428 41.1369 13.9186 41.0389 13.5559 41.0389C13.5069 41.0389 13.4775 41.0389 13.4775 41.0389C13.6343 39.1276 16.8786 37.7652 17.8882 36.9125C18.8977 36.0597 17.0453 35.5304 17.0453 35.5304C17.2021 32.2567 22.1421 29.0418 22.1421 29.0418C21.9068 28.4341 20.9855 28.3557 20.9855 28.3557C23.3378 24.3371 29.7872 22.9159 29.7872 22.9159C29.8657 22.465 29.2384 21.7691 29.2384 21.7691C32.1102 20.6223 34.933 20.3969 36.6679 20.3969C37.7461 20.3969 38.4126 20.4851 38.4126 20.4851C38.6184 20.1126 38.3342 19.5638 38.3342 19.5442C38.4812 19.5442 38.638 19.5442 38.785 19.5442C41.7647 19.5442 44.9992 20.5243 44.9992 20.5243C45.3128 20.1028 45.2834 19.505 45.2834 19.505M44.2445 18.4856L44.2837 19.3187C43.0585 19.0149 40.8728 18.564 38.7752 18.564C38.6086 18.564 38.4518 18.564 38.2852 18.564L37.3442 18.5934V19.4265C37.1384 19.4265 36.9031 19.4167 36.6581 19.4167C34.7468 19.4167 31.8358 19.6716 28.8659 20.8576L27.5525 21.3868L28.366 22.2886C26.2783 22.9355 22.044 24.5919 20.1327 27.8656L19.3486 29.2085L20.1817 29.2771C18.5645 30.5905 16.1827 32.933 16.0651 35.501L16.0259 36.2754L16.7708 36.491C16.7708 36.491 16.7904 36.491 16.8002 36.5008C16.6238 36.6184 16.4278 36.736 16.2219 36.8634C14.7223 37.7946 12.664 39.0688 12.5072 40.9703L12.4189 42.0975L13.5461 42.0288C13.8206 42.0288 14.0264 42.1073 14.0656 42.1465C14.0656 42.1465 14.1048 42.2543 14.0166 42.5385C13.8304 43.1658 13.3991 44.9105 13.3991 47.3021C13.3991 55.2119 17.947 63.3471 26.5429 70.8257C32.9629 76.4126 39.2849 79.6373 39.5495 79.7745L39.9906 79.9999L40.4317 79.7745C40.6963 79.6373 47.0281 76.4126 53.4481 70.8257C62.0538 63.3471 66.6017 55.2119 66.6017 47.3021C66.6017 47.2629 66.5723 44.0578 65.6902 41.5486L66.1999 41.6074L66.0823 40.4116C66.0823 40.3136 65.8372 38.0984 63.4457 35.4716C62.9458 34.9227 62.8086 34.2366 62.8576 34.0014C62.8576 34.0014 62.8576 34.0014 62.8674 34.0014L63.8867 33.9034L63.7495 32.8938C63.7103 32.5802 63.3378 30.9727 60.1719 30.4532L60.0445 30.4336C59.9857 30.4238 59.9367 30.414 59.8877 30.4042C59.8583 30.365 59.8191 30.3062 59.7701 30.218C59.5643 29.875 59.4172 28.9536 59.6525 28.5125L60.1523 27.5618L59.1526 27.1599C59.0938 27.1305 58.5253 26.9149 57.8392 26.9149C57.7412 26.9149 57.6432 26.9149 57.5451 26.9247C56.7708 25.4447 54.8987 22.3866 52.5072 21.7593L51.2722 21.4359V21.4947C49.9098 20.2793 47.626 18.613 45.303 18.5248L44.2249 18.4856H44.2445Z" fill="white"/>
<path d="M21.7399 37.2065C21.7399 37.2065 20.6911 37.7358 19.0444 37.8534C19.0444 37.8534 20.0834 38.667 21.9457 38.6376C21.9653 38.6572 21.7889 37.9123 21.7399 37.2065Z" fill="#8B0042"/>
<path d="M64.7392 48.4783C63.8473 40.3431 59.9071 37.0008 59.9071 37.0008C61.6517 36.8635 62.9945 38.275 62.9945 38.275C60.2011 32.8449 57.3195 31.6687 56.0747 31.4237C57.8487 32.5215 59.0837 35.3247 57.4861 40.4215C55.8394 37.5791 54.1928 36.8145 54.1928 36.8145C55.0847 36.3147 56.4863 37.0792 56.4863 37.0792C55.4082 34.4426 52.7225 34.521 52.7225 34.521C53.8497 33.5212 55.7022 34.2073 55.7022 34.2073C53.5067 32.0706 50.0565 32.9723 50.0565 32.9723C50.0565 32.9723 51.811 30.718 54.3692 30.8552C54.7613 30.8748 55.1337 30.963 55.5258 31.1198C55.9472 29.63 57.4273 29.189 57.4273 29.189C54.9475 28.4538 52.0364 30.3455 52.0364 30.3455C53.2126 27.6305 52.9186 24.9939 52.9186 24.9939C50.9877 30.1495 48.3903 32.4235 48.3903 32.4235C50.7622 27.7775 47.9786 21.8378 47.9786 21.8378C48.9392 28.052 45.8615 31.3747 45.8615 31.3747C46.3908 23.9059 43.1465 21.5928 43.1465 21.5928C45.6066 25.3762 43.5581 30.816 43.5581 30.816C42.0977 23.259 35.8443 21.7692 35.8443 21.7692C41.9899 25.5134 41.0685 33.0115 41.0685 33.0115C39.912 26.8954 35.0602 24.4156 35.0602 24.4156C37.9909 27.209 38.4319 31.9138 38.4319 31.9138C33.9624 22.8768 26.0134 25.1409 26.0134 25.1409C33.5704 25.827 35.3248 31.9824 35.3248 31.9824C30.6691 25.8858 24.2981 27.7481 24.2981 27.7481C29.1303 28.0422 30.9828 31.6883 30.9828 31.6883C24.8078 26.9542 19.3288 33.0213 19.3288 33.0213C21.0832 32.4431 21.7399 33.4134 21.7399 33.4134C19.8384 34.2955 19.0445 35.7462 19.0445 35.7462C20.799 35.2169 21.6909 35.5697 21.6909 35.5697C21.7105 35.0993 21.985 31.806 24.7 31.0218C27.6797 30.1397 29.8458 32.9821 29.8458 32.9821C25.9546 32.149 24.2295 34.2073 24.2295 34.2073C26.3173 33.5212 27.1798 34.5406 27.1798 34.5406C24.2197 34.6484 23.4356 37.0792 23.4356 37.0792C25.0333 36.2951 25.7292 36.8243 25.7292 36.8243C21.6027 40.9606 16.6922 39.5394 16.6922 39.5394C20.4559 41.9995 25.1019 40.6665 25.1019 40.6665C21.1813 43.5482 16.1433 42.6464 16.1433 42.6464C21.1911 45.5281 24.0335 44.3421 24.0335 44.3421C22.0144 47.263 15.8198 47.0865 15.8198 47.0865C19.662 49.5663 24.0335 48.1843 24.0335 48.1843C22.8769 49.9388 20.4265 50.1936 20.4265 50.1936C22.9553 51.3404 24.6412 50.7915 24.6412 50.7915C22.6613 52.7322 18.2702 51.9089 18.2702 51.9089C21.6615 54.6729 26.1408 53.6535 26.1408 53.6535C21.5929 56.839 16.7608 53.9672 16.7608 53.9672C20.1913 57.633 26.4349 57.2899 26.4349 57.2899C24.0335 58.9562 21.1028 58.2897 21.1028 58.2897C23.5336 60.3088 25.4449 60.2206 25.4449 60.2206C22.7299 61.3967 19.4072 59.9853 19.4072 59.9853C22.2496 63.4649 27.4836 63.2982 27.4836 63.2982C25.788 64.4254 22.7201 63.8177 22.7201 63.8177C27.0916 66.768 30.9044 66.0917 30.9044 66.0917C27.4542 67.4541 24.8078 66.6112 24.8078 66.6112C29.2479 68.9831 31.9139 68.7577 31.9139 68.7577C30.3653 69.9143 28.9147 69.5124 28.9147 69.5124C28.9147 69.5124 32.0021 72.002 34.1389 73.5898C37.8536 76.1284 39.961 77.2164 39.961 77.2164C51.664 70.6004 50.8308 67.0228 50.8308 67.0228C51.713 67.7873 51.9482 68.8851 51.9482 68.8851C56.0257 65.4938 56.4765 60.8675 56.4765 60.8675C57.4469 62.7199 56.3981 65.4448 56.3981 65.4448C61.1028 60.299 59.4366 55.2022 59.4366 55.2022C60.848 55.7021 61.0342 59.015 61.0342 59.015C65.8762 50.6543 61.3479 44.1167 61.3479 44.1167C62.9651 44.6361 64.7392 48.4881 64.7392 48.4881V48.4783Z" fill="#8B0042"/>
<path d="M64.7395 48.4782C63.8475 40.343 59.9073 37.0006 59.9073 37.0006C61.652 36.8634 62.9948 38.2748 62.9948 38.2748C60.2014 32.8448 57.3197 31.6686 56.0749 31.4236C57.849 32.5214 59.084 35.3246 57.4863 40.4214C55.8397 37.5789 54.193 36.8144 54.193 36.8144C55.085 36.3145 56.4866 37.0791 56.4866 37.0791C55.4084 34.4425 52.7228 34.5209 52.7228 34.5209C53.85 33.5211 55.7025 34.2072 55.7025 34.2072C53.5069 32.0705 50.0568 32.9722 50.0568 32.9722C49.802 33.0212 49.5667 33.0702 49.3217 33.129C49.3217 33.129 46.5282 32.737 43.7348 33.6975C40.4219 34.8247 40.1769 38.4807 39.971 38.4807C39.7652 38.4807 39.5006 34.8247 36.1876 33.6975C33.3844 32.737 30.591 33.129 30.591 33.129C30.591 33.129 32.2964 33.5015 32.267 34.0896C32.2474 34.4523 31.6593 34.5601 31.0124 34.6973C30.6792 34.7561 29.3952 35.0894 28.7581 35.7657C28.7581 35.7657 30.2283 35.5304 30.4243 35.9519C30.6596 36.4518 28.9541 37.3437 26.9252 38.0886C26.9252 38.0886 27.8367 38.0396 28.0524 38.5395C28.3464 39.1962 27.6309 40.0587 27.3467 40.4704C24.2886 44.8125 25.4158 48.39 26.8566 50.8992C27.8269 52.5949 30.8066 57.3584 30.8066 57.3584C30.8066 57.3584 30.2283 58.5052 30.3655 60.044C30.542 62.0827 30.542 63.0433 31.4633 64.1214C31.7966 64.4939 32.5905 65.5819 32.5023 66.6306C32.3748 68.0127 32.7963 69.3555 34.2763 70.3944C34.2763 70.3944 34.4822 69.8945 34.8546 69.7965C34.8546 69.7965 35.2663 70.4728 36.7855 71.2668C38.6968 72.2861 39.8142 73.3251 39.9416 77.2261C39.9612 77.2261 39.9612 77.2457 39.971 77.2457C51.674 70.6297 50.8409 67.0521 50.8409 67.0521C51.723 67.8166 51.9583 68.9144 51.9583 68.9144C56.0357 65.5231 56.4866 60.8968 56.4866 60.8968C57.4569 62.7492 56.4082 65.4741 56.4082 65.4741C61.1129 60.3283 59.4466 55.2315 59.4466 55.2315C60.8581 55.7313 61.0443 59.0443 61.0443 59.0443C65.8862 50.6836 61.3579 44.146 61.3579 44.146C62.9556 44.6164 64.7297 48.4782 64.7297 48.4782H64.7395Z" fill="#69003D"/>
<path d="M54.3596 47.4394C54.7222 45.5281 54.438 42.8131 52.5855 40.4607C52.3797 40.2059 51.1937 38.7553 50.39 37.7947C49.9391 37.2458 49.1942 36.5597 49.3412 36.1481C49.5764 35.462 51.1741 35.7756 51.1741 35.7756C50.5958 35.1189 49.4196 34.8641 48.9197 34.7073C48.3709 34.5504 47.6847 34.472 47.6651 34.0996C47.6357 33.5213 49.3412 33.139 49.3412 33.139C49.3412 33.139 46.5674 32.7469 43.7543 33.7075C40.4414 34.8347 40.1964 38.4906 39.9906 38.4906C39.7847 38.4906 39.5201 34.8347 36.2072 33.7075C33.4039 32.7469 30.6105 33.139 30.6105 33.139C30.6105 33.139 32.316 33.5115 32.2866 34.0996C32.267 34.4622 31.6789 34.57 31.032 34.7073C30.6987 34.7661 29.4147 35.0993 28.7776 35.7756C28.7776 35.7756 30.2478 35.5404 30.4439 35.9618C30.6791 36.4617 28.9736 37.3537 26.9447 38.0986C26.9447 38.0986 27.8563 38.0496 28.0719 38.5494C28.366 39.2062 27.6504 40.0687 27.3662 40.4803C24.3081 44.8224 25.4353 48.4 26.8761 50.9092C27.8465 52.6048 30.8261 57.3684 30.8261 57.3684C31.473 56.055 32.61 55.8001 32.61 55.8001C31.8455 56.2706 31.4338 57.0057 31.2182 57.7604C32.9139 57.584 34.6193 57.731 36.2562 58.2015C36.3836 58.2309 36.5502 58.3877 36.4718 58.6426C36.3934 58.8974 36.1386 58.8974 36.0503 58.8582C34.7369 58.4171 33.3549 58.2015 31.9533 58.2015C30.0224 58.2015 28.1895 58.623 26.5429 59.3581L26.5919 59.4855C28.0229 58.8778 29.5421 58.5151 31.081 58.4465C31.032 58.7406 31.0222 59.0248 31.0222 59.2797C32.61 59.064 34.2077 59.1718 35.7465 59.5933C35.8739 59.6227 36.0405 59.7795 35.9817 60.0148C35.9229 60.2696 35.6485 60.299 35.5603 60.2696C34.4037 59.8972 33.1883 59.7011 31.9729 59.7011C30.2184 59.7011 28.5424 60.0932 27.0526 60.7989L27.1016 60.9263C28.3562 60.3774 29.6892 60.0442 31.0516 59.9658C31.0712 60.1422 31.1104 60.5735 31.1496 60.7793C32.512 60.5735 33.894 60.6519 35.227 60.9949C35.3544 61.0243 35.5407 61.1714 35.4819 61.4066C35.4034 61.6712 35.1486 61.6908 35.0604 61.6614C32.5806 60.8969 29.9048 61.0929 27.5818 62.2299L27.6308 62.3377C28.7874 61.8084 30.0322 61.5046 31.2966 61.4458C31.3554 61.7594 31.4044 62.0535 31.4338 62.2103C31.6887 63.7001 33.1883 64.2 34.2371 63.7001C34.3155 63.6707 38.0008 61.8967 38.1283 61.8477C39.177 61.3772 39.9023 60.3872 40.0396 59.2405C40.1768 60.397 40.9315 61.3772 41.9509 61.8477C42.0783 61.9065 45.7636 63.6707 45.8421 63.7001C46.881 64.1902 48.3807 63.7001 48.6453 62.2103C48.6747 62.0045 48.7237 61.7398 48.7825 61.4458C50.0861 61.5046 51.3211 61.8183 52.4483 62.3377L52.4973 62.2299C50.1645 61.0831 47.4789 60.8773 44.9991 61.6614C44.8227 61.7104 44.6365 61.6124 44.5777 61.4458C44.4993 61.2106 44.6855 61.0537 44.8129 61.0243C46.1459 60.6813 47.5279 60.6029 48.8903 60.7891C48.9099 60.7401 48.9687 60.2892 48.9982 59.9756C50.3606 60.054 51.6936 60.3676 52.9384 60.9361L52.9874 60.8087C51.4485 60.0834 49.7725 59.7109 48.067 59.7109C46.8418 59.7109 45.6362 59.8972 44.4895 60.2794C44.3914 60.3088 44.1464 60.299 44.068 60.0442C44.0092 59.8579 44.117 59.6717 44.3032 59.6227C45.8421 59.2012 47.4593 59.0934 49.0374 59.3091C49.0374 59.0248 49.008 58.7602 48.9589 58.4759C50.4978 58.5347 52.017 58.8974 53.448 59.5149L53.497 59.3875C51.8014 58.623 49.9489 58.2309 48.0866 58.2309C46.6556 58.2309 45.2834 58.4661 43.9896 58.8876C43.8916 58.917 43.6269 58.8876 43.5681 58.6524C43.5191 58.4759 43.6171 58.2897 43.7837 58.2407C45.4304 57.7702 47.1359 57.6134 48.8315 57.7996C48.7825 57.6722 48.7531 57.535 48.6943 57.4076C48.0866 55.7903 46.5184 55.4473 46.5184 55.4473C46.5184 55.4473 47.3221 54.5063 46.6948 52.9675L45.8617 50.9876C45.8617 50.9876 47.2731 52.1049 49.2334 52.1442C52.5463 52.1246 54.0361 49.2723 54.3792 47.4394H54.3596Z" fill="#EDC157"/>
<path d="M38.8634 68.2087C38.8634 68.2087 38.2851 68.5027 38.0009 69.228C38.0009 69.228 37.2462 68.7282 37.1678 67.8754C37.1678 67.8754 36.3836 68.1695 36.07 68.9144C36.07 68.9144 35.2565 68.5811 35.2565 67.6304C35.2565 67.6304 34.7076 67.9636 34.4233 68.6204C34.4233 68.6204 33.4824 67.4638 33.5804 66.2974C33.7176 64.7782 34.933 64.2783 35.0996 64.1999C36.1386 63.7 37.158 63.2099 38.1871 62.7296C38.736 62.4944 39.3339 62.367 39.9318 62.3572C40.5787 62.3572 41.1668 62.514 41.6765 62.7296C41.8137 62.7884 44.5973 64.1117 44.7639 64.1999C44.9404 64.2979 46.1459 64.7782 46.2832 66.2974C46.3812 67.4246 45.5186 68.5223 45.4402 68.6204C45.4402 68.6204 45.2246 68.0421 44.6071 67.6304C44.6071 67.6304 44.5091 68.5223 43.7936 68.9144C43.7936 68.9144 43.5583 68.2381 42.6958 67.8754C42.6958 67.8754 42.6762 68.6301 41.8627 69.228C41.8627 69.228 41.6569 68.5811 40.8629 68.2087C40.8629 68.2087 40.8041 69.1692 39.7456 69.7769C39.7946 69.7769 39.5397 68.5223 38.8634 68.2087Z" fill="#EDC157"/>
<path d="M51.5074 43.4011C51.4878 43.3422 51.429 43.2932 51.3702 43.2736L51.3114 43.1168C51.3114 43.1168 51.4388 43.009 51.4192 42.8326C51.3898 42.6169 51.2134 42.5189 51.0761 42.4895C50.1058 42.3033 49.6059 41.921 49.2923 41.6858C48.9786 41.4702 48.763 41.3525 48.3709 41.3525C47.1653 41.3525 44.8718 43.1266 44.1857 43.1266C44.0288 43.1266 43.8916 43.0482 43.8132 42.911V42.8914C42.9997 44.0382 43.48 45.1457 43.8132 45.9691C43.8916 46.1553 45.2246 49.3996 45.2736 49.5466V49.5662C45.2736 49.5662 45.6069 49.3604 45.6167 48.9095C45.6363 48.3802 46.1852 47.1648 47.5182 47.1648C48.959 47.1648 50.1548 46.5964 50.5763 44.9889C50.6351 44.7341 50.8409 43.999 51.4584 43.6069C51.5172 43.6069 51.5858 43.5089 51.5368 43.4011H51.5074ZM27.0428 44.8321C27.4055 43.156 28.513 43.2932 28.5817 43.2834L28.6405 43.1266C28.6405 43.1266 28.513 43.0188 28.5326 42.8424C28.5621 42.6267 28.7385 42.5287 28.8757 42.4993C29.8461 42.3131 30.3459 41.9308 30.6596 41.6956C30.9732 41.48 31.1889 41.3623 31.5809 41.3623C32.7865 41.3623 35.0801 43.1364 35.7662 43.1364C36.0014 43.1364 36.1092 42.96 36.1386 42.9208V42.9012C36.9522 44.048 36.4719 45.1751 36.1386 45.9887C36.0602 46.1749 34.7272 49.4192 34.6782 49.5662V49.5858L33.3158 52.8791C32.7081 54.3101 33.4922 55.3589 33.4922 55.3589C32.0514 55.3589 30.4145 54.0063 28.1896 50.3699C26.8762 48.2038 26.7978 45.9985 27.033 44.8321H27.0428Z" fill="#F8E3A2"/>
<path d="M43.7543 42.9111C44.0091 43.5972 44.6364 43.6168 45.0089 43.509C45.8714 43.2443 46.7143 42.9601 47.5474 42.6464C48.3022 42.3524 48.508 42.4896 48.9001 42.666C50.0468 43.1659 51.2818 43.1365 51.2818 43.1365L51.3406 43.2933C50.3801 43.6854 50.1056 44.1068 49.6156 44.8812C49.0863 45.7143 48.1551 46.2142 47.1652 46.2142C46.3223 46.2142 46.038 45.8711 45.6263 46.0083C45.3911 46.0868 45.1559 46.2926 45.0775 46.7729C44.8912 47.8902 45.7048 49.1448 45.2049 49.5957C45.2049 49.5957 43.8131 46.1946 43.7347 46.0083C43.421 45.1948 42.9309 44.0774 43.7543 42.9209V42.9111ZM43.4896 56.0647C43.127 55.653 42.5193 55.6138 42.1076 55.9667C41.794 56.2509 41.6861 56.7018 41.8528 57.0939L39.9709 58.2896L38.0694 57.0939C38.285 56.594 38.0498 56.0255 37.5499 55.8099C37.1578 55.6334 36.707 55.7511 36.4227 56.0647L35.5798 55.5354C35.5798 55.5354 34.4526 54.8003 34.4036 54.1044C34.384 53.8202 34.58 53.6045 34.8937 54.0554C35.0309 54.2416 35.1877 54.4769 35.6288 54.4769C35.9228 54.4769 36.4325 54.0064 37.4029 54.0064C38.8633 54.0064 38.9907 54.6631 39.9415 54.6631C40.8922 54.6631 41.0392 54.0064 42.4801 54.0064C43.47 54.0064 43.9503 54.4769 44.2541 54.4769C44.6952 54.4769 44.852 54.2416 44.9892 54.0358C45.3225 53.5849 45.5087 53.8202 45.4793 54.0848C45.4303 54.7709 44.3031 55.5158 44.3031 55.5158L43.4896 56.0647ZM36.1777 42.9111C35.9228 43.5972 35.2955 43.6168 34.9231 43.509C34.0606 43.2443 33.2176 42.9601 32.3845 42.6464C31.6298 42.3524 31.4239 42.4896 31.0319 42.666C29.8851 43.1659 28.6501 43.1365 28.6501 43.1365L28.5913 43.2933C29.5519 43.6854 29.8263 44.1068 30.3164 44.8812C30.8457 45.7143 31.7768 46.2338 32.7668 46.2142C33.6097 46.2142 33.8939 45.8711 34.3056 46.0083C34.5408 46.0868 34.7761 46.2926 34.8545 46.7729C35.0407 47.8902 33.6587 50.174 34.2566 50.7523L36.1973 45.9985C36.5109 45.185 37.001 44.0676 36.1777 42.9111Z" fill="#69003D"/>
<path d="M47.3025 43.6463C47.3221 43.7835 47.2045 43.9011 47.0869 43.9109C46.9595 43.9305 46.8321 43.8129 46.8223 43.6953V43.6659C46.8419 43.5287 46.9497 43.4307 47.0869 43.4503C47.1947 43.4307 47.3025 43.5287 47.3025 43.6561V43.6463Z" fill="white"/>
<path d="M47.2044 45.4204C48.3218 45.4204 49.2235 44.5774 49.3019 43.4797C49.1451 43.4307 48.9883 43.3718 48.8315 43.3032C48.5374 43.1758 48.2042 43.1268 47.8709 43.166C48.1356 43.5777 48.0277 44.1266 47.6161 44.3912C47.2044 44.6558 46.6555 44.548 46.3909 44.1364C46.3125 44.0089 46.2537 43.8521 46.2537 43.6953C45.9204 43.8325 45.5774 43.9501 45.2343 44.0383C45.5186 44.8715 46.3027 45.4204 47.1946 45.4204H47.2044ZM32.6394 43.6463C32.6198 43.7835 32.7374 43.9011 32.855 43.9109C32.9922 43.9305 33.1098 43.8129 33.1196 43.6953V43.6659C33.1 43.5287 32.9922 43.4307 32.855 43.4503C32.7472 43.4307 32.6394 43.5287 32.6394 43.6561V43.6463Z" fill="white"/>
<path d="M32.7372 45.4204C31.6394 45.4204 30.7181 44.5774 30.6396 43.4797C30.7965 43.4307 30.9533 43.3718 31.1101 43.3032C31.3944 43.1758 31.7374 43.1268 32.0707 43.166C31.806 43.5777 31.9138 44.1266 32.3255 44.3912C32.7372 44.6558 33.2861 44.548 33.5507 44.1364C33.6291 44.0089 33.6879 43.8521 33.6879 43.6953C34.0996 43.8521 34.3446 43.9501 34.7073 44.0383C34.423 44.8715 33.6389 45.4204 32.747 45.4204H32.7372Z" fill="white"/>
</svg>
