<svg width="80" height="80" viewBox="0 0 80 80" fill="none" xmlns="http://www.w3.org/2000/svg">
<path d="M70.7244 40.1338H68.8855C69.9622 36.9323 70.6006 33.7594 70.6768 31.1582C70.6863 30.8342 70.6196 30.5198 70.4767 30.2244C70.0765 29.4241 69.6478 28.6237 69.1999 27.8614C68.9617 27.4517 68.5806 27.1468 68.1423 27.0039C64.3024 25.7652 61.4535 24.9363 56.5559 23.8786C56.1939 23.8024 55.8223 23.8405 55.4888 23.9644C54.3644 22.5637 53.2782 21.2107 52.2968 19.9435L52.8113 19.0192C53.2211 18.2951 53.1067 17.3899 52.535 16.7801C52.0205 16.237 51.4679 15.732 50.9724 15.3127C51.0296 15.227 51.0963 15.1412 51.163 15.0555C53.2782 12.1112 54.0119 8.44287 53.2401 4.7078C53.2306 4.61251 53.2115 4.51723 53.1829 4.43148C52.6589 2.57347 51.9347 0.0389562 49.7623 0.000843168C49.0858 -0.0182133 48.3807 0.286691 47.8852 0.820272C47.8471 0.858385 47.809 0.906027 47.7709 0.953668C47.142 1.76357 46.5132 2.55441 45.8938 3.33573L44.598 4.98412C44.4265 5.12704 44.2645 5.26996 44.1025 5.40336C43.5689 5.47006 43.083 5.7559 42.7686 6.22279L41.4632 8.14749C40.5485 9.25277 39.7767 10.4057 39.1383 11.5967C38.9382 11.5681 38.7381 11.5681 38.5476 11.5967C37.7186 10.8154 36.8039 10.0817 35.832 9.42428C35.308 9.06221 34.7553 8.72872 34.1931 8.42381C32.3542 7.28995 30.4581 6.51816 30.3723 6.48005C29.9626 6.31807 29.5148 6.29901 29.1051 6.42288C27.3995 5.99411 25.5987 5.7559 23.7121 5.72732C22.4448 5.72732 21.2538 5.79402 20.1676 5.92741L19.6816 5.96553C18.7669 6.07034 17.433 6.33713 16.3086 6.98505C16.2324 7.03269 16.1657 7.08033 16.0895 7.12797C15.432 7.6425 15.1843 8.20466 15.1176 8.65249C14.8222 10.0722 15.7274 10.863 16.766 11.7587C17.4139 12.3304 18.1095 12.8449 18.9003 13.3499L19.977 14.217C20.1104 14.398 20.2057 14.5505 20.2152 14.5886C21.149 16.6276 23.0546 19.5623 28.924 22.4113L28.905 22.497C23.2833 23.7357 15.9466 25.5365 12.3068 26.718C11.8589 26.861 11.4778 27.1754 11.2396 27.5851C10.8775 28.214 10.4011 29.062 9.96282 29.9672C9.83895 30.2244 9.77225 30.5198 9.77225 30.8057C9.77225 30.9486 9.79131 34.3025 11.4588 39.5526C11.5255 39.7527 11.6207 39.9242 11.7446 40.0862H9.90565C8.85754 40.0862 8 40.9437 8 41.9918V68.5852C8 69.2426 8.33349 69.8524 8.89566 70.1954C9.20056 70.386 9.5531 70.4908 9.90565 70.4908C10.1915 70.4908 10.4773 70.4241 10.7346 70.3002C12.1162 69.6333 13.5169 69.0139 15.0128 68.4232C15.3939 68.2707 15.7084 68.0039 15.918 67.6704C16.3086 67.7848 16.7279 67.7753 17.109 67.6419C18.2143 67.2512 19.3767 66.8796 20.6154 66.5175V70.4622C20.6154 71.5103 21.4729 72.3679 22.521 72.3679H23.7692C23.8359 72.3679 23.9026 72.3679 23.9789 72.3583C24.0456 72.3583 24.1123 72.3679 24.1885 72.3679H25.1508C25.2175 72.3679 25.2938 72.3679 25.3605 72.3583C25.4272 72.3583 25.4939 72.3679 25.5701 72.3679H26.8183C27.047 72.3679 27.2661 72.3202 27.4662 72.244C27.6377 72.3012 27.8283 72.3393 28.0188 72.3393H30.1818C30.3628 72.3393 30.5438 72.3012 30.7153 72.2535C30.7153 72.2535 30.7249 72.2535 30.7344 72.2535C30.7344 72.7585 30.9154 73.254 31.287 73.6161C34.8411 77.1225 37.6328 79.4188 37.8996 79.6189C38.2331 79.8666 38.6333 80 39.043 80H41.0058C41.4727 80 41.9206 79.8285 42.2636 79.5236L48.8666 73.6828C49.2573 73.3398 49.4574 72.8633 49.486 72.3583H50.4674C50.6865 72.3583 50.8962 72.3107 51.0867 72.244C51.2678 72.3012 51.4583 72.3393 51.6584 72.3393H52.8971C53.0019 72.3393 53.0972 72.3393 53.1925 72.3202C53.2878 72.3393 53.3926 72.3393 53.4879 72.3393H54.6884C54.8885 72.3393 55.0791 72.3012 55.2601 72.244C55.4602 72.3107 55.6698 72.3583 55.8794 72.3583H58.0424C59.0905 72.3583 59.948 71.5008 59.948 70.4527V69.7095C59.948 69.4332 59.8908 69.1664 59.786 68.9282C59.8337 68.7567 59.8622 68.5756 59.8622 68.3946V67.6514C59.8622 67.5275 59.8527 67.3941 59.8241 67.2798C59.9004 67.0797 59.9385 66.8605 59.9385 66.6319V66.4889C61.3105 66.8796 62.6254 67.2988 63.9308 67.7753C64.169 67.861 64.4263 67.8991 64.674 67.8896C64.855 68.0802 65.0837 68.2231 65.341 68.3279C66.8274 68.9091 68.3614 69.5761 69.8955 70.3098C70.1528 70.4336 70.4386 70.5003 70.7244 70.5003C71.077 70.5003 71.4295 70.4051 71.7344 70.205C72.2871 69.8524 72.6301 69.2426 72.6301 68.5947V42.0014C72.6301 40.9532 71.7726 40.0957 70.7244 40.0957V40.1338Z" fill="white"/>
<path d="M25.8795 35.1499C25.0564 35.6376 22.7092 36.9942 21.2002 37.8477C24.0505 37.0246 26.8855 36.2016 29.6596 35.3785C29.7358 34.6469 29.8577 33.8086 29.9949 32.9245C28.745 33.6866 27.4799 34.464 26.2148 35.2566C26.2453 34.3878 25.8795 35.1499 25.8795 35.1499ZM48.2244 12.2867C49.7639 10.0461 50.2669 7.63787 49.7182 5.13817V5.12292C49.6572 4.90953 49.6115 4.81808 49.581 4.7876C49.5048 4.83332 49.3981 4.92478 49.2914 5.03147C49.3219 5.12292 49.3828 5.29059 49.3828 5.30583V5.33631C49.9163 7.85126 49.1542 10.2138 47.569 12.4086C46.6393 13.7042 45.6485 14.6645 45.2218 14.9998C45.298 15.0303 45.3742 15.076 45.4656 15.1065C46.5478 14.3444 47.4776 13.3841 48.2244 12.2867ZM47.2032 20.5022C48.9408 22.7733 50.9223 24.9377 52.7818 27.2697C53.361 27.9556 53.8488 28.6415 54.428 29.3426L54.5347 29.3121L54.6109 29.0988C52.4922 26.3094 50.4041 23.4897 48.3464 20.6394L48.0111 20.1821L48.5445 18.5055C45.8619 16.082 43.5908 15.5638 43.5604 15.5638C43.0879 15.4571 42.6001 15.4113 42.1124 15.4113H42.0971C41.7923 15.4113 41.4722 15.4266 41.1674 15.4723H41.1216L41.0302 15.4876C40.1919 15.6857 39.1249 15.8838 38.2866 16.0668C38.8658 16.4478 39.0944 16.4935 39.6736 16.8746V16.8898L39.6889 16.9051C39.826 16.966 39.948 17.027 40.009 17.1032C40.1766 17.2099 40.2223 17.2252 40.3748 17.3471L40.5577 17.3623C40.1766 16.7984 39.2164 15.8229 41.7008 15.4571C42.4629 15.2894 46.8069 17.088 47.4776 18.7798C47.5081 18.7646 47.2032 20.5022 47.2032 20.5022ZM21.6117 10.0004C23.517 10.1833 29.1718 10.5034 33.3024 13.3994C33.653 13.6128 35.8326 15.0303 37.1892 16.3868H37.2501C35.4973 14.2072 31.0466 9.87846 23.3493 9.87846C22.6787 9.87846 21.9775 9.90894 21.2764 9.98515C21.2612 9.98515 21.6117 10.0004 21.6117 10.0004ZM33.3024 28.8396C33.3634 28.9463 33.4396 29.0988 33.5006 29.2054L33.5615 29.175C33.5768 29.2054 33.5768 29.2054 33.6073 29.2512L33.6987 29.3884C33.8207 29.556 33.8969 29.6475 33.9121 29.6627L33.9274 29.678L33.9426 29.6932C34.5218 30.3943 35.7412 31.5832 37.5092 31.7052C37.6922 31.7356 37.8598 31.7356 38.0275 31.7356C38.439 31.7356 38.8201 31.6442 39.1706 31.507C37.7988 31.4003 37.2654 28.3976 37.0977 27.1782L37.0215 27.163C36.7014 30.4858 33.3634 29.5865 34.1865 21.4472C33.2262 23.0629 32.7385 24.6176 32.7537 26.1113V26.1265L32.5708 26.9496C32.5708 26.9801 32.5556 27.0106 32.5556 27.0411H32.4641C32.5098 27.5288 32.6013 27.9861 32.7537 28.3824C32.7537 28.3824 33.1652 29.4493 33.5311 29.7999C33.4396 29.6627 33.4091 29.5713 33.4091 29.5713L33.3177 28.9006C33.2719 28.8549 33.3024 28.8396 33.3024 28.8396ZM47.3252 7.59214C47.2642 7.65311 47.188 7.74457 47.0813 7.83602C46.7155 8.12562 46.3497 8.46094 45.9991 8.81151C44.7645 10.0004 43.0726 11.9361 42.0209 14.3444H42.1124C42.1886 14.3444 42.2648 14.3444 42.3562 14.3444H42.402L42.5391 14.1005C43.2403 12.9116 44.8255 10.29 45.8619 9.57362C45.8619 9.58886 43.4537 13.2165 43.347 14.4511C43.6213 14.5425 43.9109 14.6188 44.2158 14.6492C44.1091 13.5061 46.9594 8.2628 47.2794 7.6836C47.2947 7.63787 47.3099 7.60739 47.3252 7.59214ZM52.3703 35.409C52.0959 35.5614 51.8216 35.7138 51.5472 35.851C53.2696 36.6436 55.0224 37.4362 56.7753 38.2288L57.4154 38.5184L57.5069 38.5641C55.7845 37.4972 54.0774 36.4607 52.3703 35.409ZM47.9958 26.1723C47.63 25.6845 47.2947 25.1968 46.9441 24.709C47.7062 26.4009 49.4895 29.4341 50.3126 30.9888L51.3948 31.2784L50.0535 29.0225C49.52 28.2757 48.4683 26.8734 47.9958 26.1723Z" fill="#C3D0E4"/>
<path d="M56.0894 34.22L56.0589 34.5705L55.7388 34.6925C55.3273 34.8449 54.9157 35.0126 54.5042 35.165C54.2451 34.9516 53.986 34.7382 53.7116 34.5248L53.8793 34.4029C54.367 34.2047 54.87 34.0066 55.373 33.8084L55.4187 33.7932V33.7475C55.5254 32.3147 55.6474 30.8057 55.7845 29.1139L55.7998 28.8243L55.7693 28.7938C53.3915 25.974 51.0595 23.1085 48.7732 20.2277L49.8401 18.3225L49.8706 18.2767L49.5658 17.9871C48.194 16.6915 47.5538 16.341 46.7002 15.8837C47.1575 15.4874 48.4683 14.2223 49.3219 12.6371C50.6937 10.046 50.8766 7.74443 50.2821 5.01609C50.0687 4.08633 49.8554 3.53761 49.7182 3.55285C49.7182 3.55285 49.6877 3.53761 49.642 3.58334C49.1999 4.13205 48.7732 4.68077 48.3311 5.22948C47.9044 5.85441 47.4776 6.47934 47.0356 7.10426C46.6698 7.37862 45.6333 8.15597 44.4139 9.49727L44.5054 8.91807L43.2098 10.93C42.4629 11.9208 41.7466 13.0639 41.2131 14.3443L40.8473 14.4052H40.8168L40.2681 14.5272L40.5882 14.8015L39.2316 14.771L39.0639 15.2131C38.5914 15.1978 37.7074 14.9692 37.7074 14.9692L37.6007 15.3045C36.8843 14.4814 35.665 13.1401 33.9578 11.997C33.6225 11.7836 33.2872 11.5702 32.9366 11.3721L30.0559 9.69542L30.1016 10.107C27.922 9.36009 25.5594 9.02477 23.0597 9.02477C21.9623 9.02477 20.9716 9.04001 19.8284 9.19243C19.615 9.22291 19.3102 9.2534 19.2492 9.48203C19.1882 9.69542 19.2797 9.92405 19.4474 10.046C20.3009 10.6404 21.1392 11.2349 21.9928 11.8293C22.1757 12.0732 22.633 12.6676 22.8616 13.1706C23.7456 15.1064 25.6509 18.2615 33.1653 21.1422C32.7232 22.1939 32.4336 23.2914 32.2965 24.4193C32.1135 24.0992 31.9154 23.7791 31.7935 23.581C31.8087 23.5657 31.0771 26.8428 30.4522 30.2875L19.3864 38.4725L22.0995 36.2319L28.8517 30.6381C28.5926 30.8362 28.6383 30.8057 29.4919 30.1046L30.9094 22.1635L30.9704 21.9196L31.5648 22.5445L31.7173 21.6147C24.8278 18.734 22.8463 15.7923 21.9471 13.826C21.8404 13.6126 21.627 13.2621 21.3526 12.9115L20.3466 12.1037L20.0113 11.8293C19.3102 11.3873 18.6395 10.8995 18.0146 10.3508C16.9781 9.45155 16.9019 9.34485 16.9934 8.99428C16.9781 8.87235 17.2525 8.65896 17.2525 8.65896C18.1213 8.15597 19.234 7.95782 19.8894 7.88161L20.3009 7.85113C21.4288 7.71395 22.5567 7.65298 23.6999 7.65298C25.7881 7.68346 27.7848 7.9883 29.6748 8.58275L29.6443 8.26266C29.6443 8.26266 31.4886 9.00953 33.2262 10.0917C33.7444 10.3661 34.2474 10.6709 34.7352 11.0062C35.9241 11.8141 37.0367 12.7438 38.0275 13.7955L38.439 14.329L38.8353 13.4907L40.1919 13.7955L40.4357 13.2468C41.1521 11.7226 42.0819 10.3813 42.9812 9.29913L44.3377 7.30241L44.3225 7.82064C44.8407 7.28717 45.3894 6.79942 45.9686 6.32692L46.9441 5.07706C47.7062 4.11681 48.4988 3.12607 49.2762 2.12009C49.4895 1.89146 49.7182 1.90671 49.7182 1.90671C50.1145 1.90671 50.587 2.27252 51.3491 4.95513V4.98561C52.0045 8.03403 51.5167 11.2958 49.6115 13.948C49.1542 14.5881 48.7122 15.1369 48.2245 15.5941C48.2245 15.5941 49.8401 16.7068 51.1509 18.0938L50.9375 18.4749L50.0383 20.121C51.8673 22.5598 54.0622 25.2119 56.4552 28.2298L56.6533 28.4737C56.5924 28.5042 56.0894 34.22 56.0894 34.22Z" fill="#C3D0E4"/>
<path d="M34.4302 38.3507C34.9941 37.3599 37.631 33.0922 41.5635 33.0007C42.9962 33.5494 43.484 35.4394 43.6059 36.0644H43.6821C43.9565 34.8145 44.0632 33.9762 44.1089 33.4732C44.0784 33.458 44.0479 33.4427 44.0327 33.4427C43.3925 33.0922 42.7066 32.8635 42.0055 32.7416C41.6701 32.6806 41.4568 32.6806 41.4568 32.6806L41.472 32.6349L41.7006 32.1319L40.2222 32.4672L38.3626 32.894L38.4693 32.4368C36.6707 32.1319 36.564 32.0862 35.3904 31.5527H35.3752L35.2989 31.507H35.2837C35.2227 31.4765 35.177 31.446 35.116 31.4155C34.8569 33.6714 34.5826 35.9729 34.293 38.3354C34.3387 38.3507 34.4302 38.3507 34.4302 38.3507Z" fill="#C3D0E4"/>
<path d="M25.0256 65.2835C24.9036 66.2286 24.7817 67.1736 24.6445 68.0881C24.4921 67.1888 24.3549 66.32 24.2178 65.4665C23.6538 65.6036 23.0898 65.7408 22.5259 65.9085C22.5259 67.4327 22.5259 68.9721 22.5259 70.4964H23.7757L23.7605 67.9204C23.8977 68.7587 24.0501 69.6123 24.1873 70.4964H25.1475C25.2695 69.5818 25.4066 68.6521 25.5286 67.707L25.5591 70.4964H26.8089L26.7327 64.9482C26.1687 65.0397 25.5895 65.1464 25.0256 65.2835ZM29.3239 69.5056L29.2934 67.7985C29.5525 67.7833 29.7964 67.768 30.0555 67.7528L30.0402 66.762C29.7811 66.7773 29.5372 66.8078 29.2781 66.823L29.2629 65.4817C29.5372 65.4512 29.8268 65.4207 30.1012 65.3902L30.086 64.3995C29.3696 64.491 28.6532 64.5977 27.9368 64.7196L28.013 70.4659H30.1774L30.1622 69.4751L29.3239 69.5056ZM33.5002 69.4446L32.6466 69.4599L32.5857 64.1404C32.1436 64.1861 31.7016 64.2318 31.2596 64.2776L31.3511 70.4964H33.5154L33.5002 69.4446ZM36.259 69.4142C36.1676 69.4142 36.0761 69.4142 35.9847 69.4142L35.9694 67.5241H36.2438L36.3657 67.6766L36.381 69.3075L36.259 69.4142ZM35.9542 64.9635L36.2285 64.9482L36.3505 65.1006L36.3657 66.3353L36.2438 66.4419L35.9694 66.4572L35.9542 64.9635ZM37.6918 64.3538L37.1583 63.8508C36.3047 63.8813 35.4664 63.927 34.6129 63.9727L34.6738 70.4811H37.1888L37.7223 69.9629L37.707 67.2345L37.4174 66.9297L37.707 66.6249L37.6918 64.3538ZM40.6335 69.2922L40.5116 69.3989H40.3744L40.2372 69.2922V64.9939L40.3744 64.8873H40.5116L40.6335 64.9939V69.2922ZM39.4294 63.7898L38.9111 64.3233L38.9264 69.9629L39.4446 70.4811H41.4413L41.9748 69.9629L41.99 64.3385L41.4566 63.8051C40.7707 63.7898 40.1 63.7898 39.4294 63.7898ZM43.1942 63.8355L43.1637 69.9629L43.6819 70.4811H45.6786L46.2121 69.9629L46.2731 63.988C45.8311 63.9575 45.389 63.927 44.9318 63.8965L44.886 69.2922L44.7641 69.3989C44.7184 69.3989 44.6727 69.3989 44.6269 69.3989L44.4898 69.2922L44.5355 63.8813C44.0935 63.8813 43.6514 63.8508 43.1942 63.8355ZM49.1691 66.6858L49.0471 66.7773L48.7728 66.762L48.788 65.2531L49.0624 65.2835L49.1843 65.3902L49.1691 66.6858ZM47.4772 64.0947L47.401 70.4964H48.7271L48.7728 67.7833L49.0471 67.7985C49.0929 67.829 49.1233 67.8595 49.1691 67.9052C49.1538 68.774 49.1386 69.6428 49.1386 70.4964H50.4647L50.5104 67.6766C50.4037 67.5699 50.2817 67.4632 50.1751 67.3565L50.5256 67.0974L50.5561 64.9025C50.3884 64.7196 50.2055 64.5367 50.0379 64.3538C49.1691 64.2623 48.3308 64.1709 47.4772 64.0947ZM53.4978 67.2041C53.3149 66.3962 53.132 65.5884 52.9491 64.7806C52.5528 64.7196 52.1413 64.6434 51.745 64.5824L51.6535 70.4811C52.0651 70.4811 52.4766 70.4811 52.8881 70.4811L52.9186 68.1338C53.1015 68.9264 53.2997 69.719 53.4826 70.4811H54.6867L54.7477 65.1159C54.3361 65.0397 53.9399 64.9482 53.5283 64.8873L53.4978 67.2041ZM55.8756 70.4964H58.04V69.7495L57.2017 69.719V68.3472C57.4455 68.3777 57.7047 68.4082 57.9485 68.4387V67.6918C57.7047 67.6461 57.4455 67.6156 57.2017 67.5699V66.4877C57.476 66.5486 57.7504 66.6096 58.0247 66.6706V65.9237C57.3236 65.7256 56.6225 65.5579 55.9061 65.3902L55.8756 70.4964ZM44.444 23.7793C42.3863 25.0291 40.7097 24.5566 40.3287 24.4195L40.3134 24.45C41.2127 25.3645 41.4718 26.6448 41.5328 27.1021H41.5938C41.7309 26.7363 42.2492 26.1113 42.7979 25.5017H41.99L43.7734 24.4652C44.0782 24.1603 44.3373 23.9012 44.444 23.7793ZM56.8816 26.5381C60.7988 27.7422 62.9479 28.6415 66.1031 29.9523C65.9964 31.2022 65.7525 34.2354 64.5484 37.5277C65.3562 38.2441 66.1945 38.9452 67.0481 39.6311C68.7399 34.6317 68.7552 31.4461 68.7704 31.0803C68.3894 30.3182 67.9778 29.5561 67.5511 28.8244C63.7253 27.5898 60.9207 26.782 56.15 25.7455L56.8816 26.5381Z" fill="#003CA0"/>
<path d="M49.2301 35.3022C47.5383 35.3022 45.9379 34.7992 45.7702 34.6925C45.7092 34.5096 45.7245 34.0676 45.7092 33.6865H45.7397C45.9988 33.7475 46.2427 33.8085 46.4713 33.8695C48.2547 34.3267 49.2606 34.8907 49.7789 35.2108L49.8551 35.2565C49.6417 35.3327 49.2301 35.3022 49.2301 35.3022ZM54.0771 33.336L54.4125 32.6501L54.4429 32.5739L54.4887 32.4824L54.7478 31.9642L55.1441 31.1106L54.9307 33.1988L53.9552 33.5646L54.0771 33.336ZM45.252 15.0302C44.9166 14.8778 44.5661 14.7406 44.2155 14.6339C43.9411 14.5425 43.7887 14.512 43.7887 14.512C43.6363 14.4815 43.4839 14.451 43.3467 14.4205C43.4534 13.2012 45.8616 9.5583 45.8616 9.54306C44.8404 10.2594 43.24 12.8963 42.5389 14.07L42.4017 14.3138H42.356C42.2798 14.3138 42.2035 14.3138 42.1121 14.3138H42.0206C43.0723 11.9056 44.7642 9.98508 45.9988 8.78095C46.3646 8.43038 46.7304 8.1103 47.0963 7.80546C47.2029 7.714 47.2944 7.60731 47.3859 7.50061C47.8126 6.93666 48.2394 6.35746 48.6509 5.77826L48.7881 5.59535C48.9405 5.3972 49.1235 5.18381 49.2911 5.01615C49.3978 4.90946 49.5045 4.818 49.5807 4.77228C49.6112 4.80276 49.6569 4.89421 49.7179 5.1076V5.12285C50.2666 7.62255 49.7636 10.0156 48.2242 12.2714C47.4773 13.3688 46.5475 14.3291 45.4806 15.1217C45.4044 15.1064 45.3282 15.0607 45.252 15.0302ZM29.6898 36.3387C29.8574 35.8509 30.1775 34.7535 30.4671 33.7018C30.65 33.0616 30.8329 32.3605 31.0158 31.6441C31.4883 29.8151 31.9761 27.8793 32.3114 26.5837C32.3267 26.7209 32.3571 26.8581 32.3876 26.9953H32.4486H32.54L32.5553 26.9038L32.7382 26.0807V26.0655C32.7382 24.587 33.2107 23.0171 34.171 21.4014C34.2624 21.2642 34.3386 21.1271 34.4301 20.9746L34.4453 20.9594L34.3539 20.1211L34.3081 20.1058C25.7878 16.9507 24.3246 13.7499 23.852 12.6829C23.5472 12.0123 22.9223 11.2197 22.8003 11.0673C22.7699 11.0215 22.7394 10.9911 22.6936 10.9606L21.6419 10.229L21.2609 9.96983C21.962 9.90887 22.6632 9.86314 23.3338 9.86314C31.0311 9.86314 35.4818 14.1919 37.2346 16.3715H37.2956H37.3261H37.3413C37.9662 16.4172 39.0637 16.5849 39.6734 16.844V16.8288C39.0942 16.4477 38.8655 16.402 38.2863 16.0209C39.1246 15.8228 40.1916 15.6399 41.0299 15.4417L41.1214 15.4265H41.1671C41.4719 15.3808 41.792 15.3655 42.0968 15.3655H42.1121C42.6303 15.3655 43.1181 15.4113 43.5601 15.518C43.5753 15.518 45.8464 16.0362 48.5443 18.4597L48.0108 20.1363L48.3461 20.5936C50.1904 23.1695 52.2481 25.9436 54.6106 29.0529L54.5344 29.2663L54.4277 29.2968C53.9095 29.4492 53.0864 29.6931 52.5987 29.7236H52.5682C52.2938 29.7236 52.2938 29.6779 51.8213 29.4188C51.6536 29.3273 51.5012 29.2359 51.3336 29.1444L50.9525 28.931L46.7762 24.2212L46.7914 24.4803L46.9286 24.6785C47.2792 25.1662 47.6145 25.6387 47.9803 26.1417C48.4528 26.8428 49.5045 28.2451 50.0227 28.992L51.364 31.2478L53.5589 32.0861C53.3608 32.6806 53.2693 33.0616 53.0712 33.6713L51.7603 34.5096C51.6079 34.6163 51.4403 34.7078 51.2726 34.7992C50.419 35.165 50.3885 35.1345 50.3885 35.1345C50.2514 35.165 50.1752 35.1803 50.038 35.1955L49.9923 35.1498L47.2639 33.1226L46.2579 32.3452L46.0598 32.1928C45.8921 32.3605 45.7397 32.5281 45.5568 32.6806C45.5416 32.8177 45.5416 32.9397 45.5416 33.0769V33.0921C45.5416 33.1378 45.5416 33.1531 45.5416 33.1531C44.124 32.2233 41.3805 30.9277 41.3805 30.9277C41.2585 30.44 41.4872 29.9522 41.5939 29.7846L41.5329 29.7084L41.4567 29.5559C41.3652 29.6779 40.4812 30.9277 39.1551 31.4307C38.7893 31.5831 38.4083 31.6441 38.012 31.6593C37.8443 31.6593 37.6614 31.6441 37.4937 31.6289C35.7256 31.5069 34.5063 30.318 33.9271 29.6169L33.9118 29.6017L33.8966 29.5864C33.8814 29.5712 33.8051 29.4797 33.6832 29.3121C33.6527 29.2663 33.6222 29.2206 33.5918 29.1749C33.5613 29.1292 33.5613 29.1292 33.546 29.0987L33.4851 29.1292C33.4088 29.0072 33.3479 28.8853 33.2869 28.7633L33.2564 28.7786C33.2869 29.0072 33.3174 29.2206 33.3631 29.4492C33.3631 29.4492 33.4088 29.5407 33.4851 29.6779C33.546 29.7846 33.6375 29.9065 33.7747 30.0742C34.171 30.5772 34.5672 31.0344 35.1617 31.3697C35.2227 31.4002 35.2684 31.4307 35.3294 31.4612H35.3446L35.4208 31.5069H35.436C36.6097 32.0404 36.7164 32.1014 38.515 32.391L38.4083 32.8482L40.2678 32.4215L41.7463 32.0861L41.5176 32.5891L41.5024 32.6348C41.731 32.6806 41.9597 32.7111 42.1883 32.7263C42.6913 32.8177 43.3924 33.0007 44.0783 33.3969C44.1088 33.4122 44.1393 33.4274 44.1545 33.4274C44.3832 33.5341 44.5661 33.6408 44.7337 33.7475C44.8861 34.2048 45.0386 34.7383 45.0538 34.7687L45.191 35.3784L45.4196 35.4851C45.4501 35.5004 47.8736 36.3387 49.5807 36.3387C49.8703 36.3387 50.1447 36.2929 50.419 36.2167C50.8153 36.11 51.2116 35.9576 51.5774 35.7747C51.8366 35.6528 52.1109 35.5004 52.4005 35.3327C54.885 36.8721 57.3999 38.3964 59.9149 39.9053L59.9453 39.9206L60.3416 39.7681L60.2502 39.6919C59.3814 39.006 58.5278 38.3049 57.659 37.619C56.6378 36.7959 55.6014 35.9576 54.5496 35.1041L53.7571 34.4639L53.9247 34.342C54.4125 34.1438 54.9155 33.9457 55.4184 33.7475L55.4642 33.7323V33.6865C55.5709 32.2538 55.6928 30.7448 55.83 29.0529L55.8452 28.7633L55.8147 28.7329C53.4522 25.9131 51.1049 23.0476 48.8186 20.1668L49.8856 18.2615L49.916 18.2158L49.6112 17.9262C48.2394 16.6306 47.5992 16.2801 46.7457 15.8228C47.2029 15.4265 48.5138 14.1614 49.3673 12.5762C50.7391 9.98508 50.922 7.68352 50.3276 4.95518C50.1142 4.02541 49.9008 3.4767 49.7636 3.49194C49.7636 3.49194 49.7331 3.4767 49.6874 3.52242C49.2454 4.07114 48.8186 4.61986 48.3766 5.16857C47.9498 5.7935 47.523 6.41842 47.081 7.04335C46.7152 7.31771 45.6787 8.09506 44.4594 9.43636L44.5508 8.85716L43.2552 10.8691C42.5084 11.8599 41.792 13.003 41.2585 14.2833L40.8927 14.3443H40.8622L40.3135 14.4663L40.6336 14.7406L39.2771 14.7101L39.1094 15.1521C38.6369 15.1369 37.7528 14.9083 37.7528 14.9083L37.6461 15.2436C36.9298 14.4205 35.7104 13.0792 34.0033 11.9361C33.7594 11.7684 33.5003 11.616 33.2412 11.4636L32.9821 11.3111L30.0556 9.69548L30.1013 10.107C27.9217 9.36015 25.5592 9.02482 23.0595 9.02482C21.962 9.02482 20.9713 9.04007 19.8281 9.19249C19.6147 9.22297 19.3099 9.25346 19.2489 9.48209C19.188 9.69548 19.2794 9.92411 19.4471 10.046C20.3006 10.6405 21.139 11.2349 21.9925 11.8294C22.1754 12.0732 22.6327 12.6677 22.8613 13.1707C23.7454 15.1064 25.6506 18.2615 33.165 21.1423C32.723 22.194 32.4334 23.2914 32.2962 24.4193C32.1133 24.0993 31.9151 23.7792 31.7932 23.581C31.8084 23.5658 31.0768 26.8428 30.4519 30.2876L19.3861 38.4726H20.1025C20.3311 38.3506 20.7274 38.122 21.1999 37.8476C22.7089 36.9941 25.0562 35.6223 25.8792 35.1498C25.8792 35.1498 26.2451 34.3877 26.2146 35.2565C27.4949 34.4791 28.76 33.7018 29.9946 32.9397C29.8574 33.7475 29.7507 34.5706 29.6593 35.3937C29.6288 35.668 29.5678 36.1405 29.5526 36.3692L29.6898 36.3387Z" fill="#003CA0"/>
<path d="M42.4324 22.0416C42.341 22.1787 42.2495 22.3312 41.9752 22.3007C42.1276 22.194 42.1123 21.9653 42.1581 21.7977C42.4019 21.9196 42.4324 22.0416 42.4324 22.0416ZM41.5789 19.5571L41.8989 20.4564L41.3502 19.9839C40.4967 19.3132 39.5517 18.7797 38.5304 18.4139C38.2103 18.4444 37.936 18.4749 37.7378 18.5054C38.2713 18.7493 38.7591 19.0541 39.1858 19.4352C39.4907 19.7095 40.1613 20.3954 39.7346 20.7765C39.5669 20.8679 39.445 20.8222 39.3383 20.7612L39.2925 20.8069C39.3383 20.8527 39.4754 20.9441 39.5364 20.9746C39.8413 21.2032 40.1766 21.5081 40.4357 21.7977C40.39 21.4166 40.6338 21.249 40.9387 21.1118C40.8167 20.8527 40.6186 20.7002 40.4357 20.5326C40.7558 20.6545 41.1368 20.9594 41.4417 21.2185C41.2588 21.3252 41.1368 21.3404 41.0301 21.4624C40.2375 22.4531 42.4629 23.3981 42.783 22.1482C42.9506 22.194 43.1335 22.2397 43.3165 22.2702C43.2707 22.3464 43.0116 22.4074 42.9202 22.3769C43.0116 23.3219 41.9294 23.7487 40.9692 23.6877L40.9844 23.7334C41.8227 24.0992 43.3165 23.4133 43.9261 22.8037C44.0176 22.7122 44.109 22.5141 44.231 22.4683C44.3072 22.4378 44.5206 22.5445 44.6578 22.5903C45.0083 22.4074 46.121 21.8129 46.8526 21.4014L46.5325 21.4166C45.5418 21.6757 44.3986 21.7824 43.667 21.569C42.8592 21.2947 41.7618 19.801 41.5789 19.5571ZM16.4446 51.8856C15.7282 48.6085 15.0271 45.3162 14.3412 42.024H9.90576V68.6214C11.3538 67.9203 12.817 67.2801 14.3107 66.6857L14.3565 56.504C15.0728 59.7353 15.774 62.8447 16.4751 65.8778C17.9231 65.3596 19.3864 64.9024 20.8496 64.4908L21.002 42.024H16.4904L16.4446 51.8856ZM28.9736 59.0494L28.5164 59.4304L27.9981 59.5066L27.5104 59.2475L27.6018 45.7735L28.0896 45.4382L28.6078 45.4229L29.0498 45.743L28.9736 59.0494ZM24.7058 42.0392C24.0657 42.6032 23.4255 43.1824 22.8006 43.7616L22.6634 62.296C23.2883 62.7227 23.9285 63.1495 24.5534 63.5763C26.9769 63.0428 29.4157 62.6313 31.8849 62.3569C32.5403 61.7472 33.1957 61.1528 33.8511 60.5736L33.9121 43.6091C33.2719 43.0909 32.6317 42.5574 31.9916 42.024L24.7058 42.0392ZM41.5484 50.0565C41.213 50.0565 40.8777 50.0565 40.5424 50.0565V45.2705H41.5484L42.0056 45.5906V49.7517C41.838 49.8431 41.7008 49.9498 41.5484 50.0565ZM46.8526 52.8001C46.4258 52.4495 46.0143 52.1142 45.5875 51.7789L46.8526 50.8796L46.8221 43.6091C46.182 43.0757 45.5266 42.5574 44.8864 42.024H35.7106L35.6497 62.0064C37.2806 61.8997 38.9115 61.8539 40.5424 61.8539V53.2879H41.5484L42.0056 53.608L42.0209 61.8844C43.6518 61.9149 45.2827 62.0064 46.9136 62.1435L46.8526 52.8001ZM47.6452 42.0392L47.6605 45.3315C48.6817 45.3467 49.7029 45.362 50.7241 45.3925L50.8308 62.616C52.4617 62.8447 54.0774 63.1343 55.693 63.4848L55.5711 45.5296C56.5923 45.5601 57.6135 45.6058 58.6348 45.6516L58.6043 42.0392C58.589 42.0392 47.6452 42.0392 47.6452 42.0392ZM65.9357 42.0392C65.951 45.2248 65.9662 48.3952 65.9815 51.5807C65.4937 51.5045 65.006 51.4283 64.503 51.3674L64.4573 42.0392H59.656L59.8084 64.5061C61.4088 64.9481 62.994 65.4511 64.5792 66.0303L64.5182 55.2693C65.006 55.3608 65.4937 55.4675 65.9815 55.5742L66.0272 66.5942C67.5971 67.2039 69.1671 67.8898 70.7218 68.6367V42.0392H65.9357ZM15.7282 36.8721C14.707 33.8542 14.5089 31.4154 14.3717 30.0741L13.6096 30.0132C13.8535 29.9217 14.3412 29.7083 14.3412 29.7083C18.2889 28.1384 23.1969 26.5227 28.1048 25.2119C28.2573 24.9985 28.4249 24.7699 28.5926 24.5717C23.0597 25.6692 17.3591 27.1172 12.8932 28.5652C12.4664 29.312 12.0549 30.0589 11.6738 30.8362C11.6738 30.8362 11.6738 33.9761 13.2743 39.006C14.0973 38.2896 14.9204 37.5885 15.7282 36.8721ZM24.9954 13.2926C30.3607 18.7797 33.3329 19.1456 34.6589 18.9017C34.3236 18.673 33.531 18.3377 33.1957 18.1091H34.2017L33.6987 17.5604L35.0095 17.9109C34.2626 17.0421 33.2414 16.2953 32.1288 15.7008L28.8212 14.5272L29.2023 14.4205C27.8762 13.9328 26.5044 13.5517 25.1174 13.2773L24.9954 13.2926ZM41.0606 76.3034L40.4509 76.7302L35.6497 72.2948H32.6165C36.1374 75.77 38.8505 77.9953 39.0334 78.1325H40.9997L47.5995 72.2948H46.4868L41.0606 76.3034Z" fill="#003CA0"/>
</svg>
