<svg width="80" height="80" viewBox="0 0 80 80" fill="none" xmlns="http://www.w3.org/2000/svg">
<path d="M10 0V52.4128C10.005 53.9995 10.375 55.5637 11.0815 56.9843C11.7879 58.405 12.8118 59.6441 14.0739 60.6056L39.6578 80L65.2418 60.6104C66.5038 59.6489 67.5277 58.4098 68.2342 56.9892C68.9406 55.5685 69.3107 54.0043 69.3157 52.4177V0H10Z" fill="#008AAB"/>
<path d="M11.7061 1.70605V52.4129C11.7096 53.737 12.018 55.0426 12.6071 56.2285C13.1963 57.4144 14.0505 58.4487 15.1036 59.2514L39.6579 77.8603L64.2121 59.2514C65.2652 58.4487 66.1194 57.4144 66.7086 56.2285C67.2978 55.0426 67.6061 53.737 67.6097 52.4129V1.70605H11.7061Z" fill="white"/>
<path d="M64.8656 4.44971H14.4512V52.2955H64.8656V4.44971Z" fill="black"/>
<path d="M57.0376 61.2448L51.9243 65.1195V54.5942H57.0376V61.2448Z" fill="black"/>
<path d="M49.6258 66.8625L44.5142 70.7372V54.5942H49.6258V66.8625Z" fill="black"/>
<path d="M34.8016 70.7372L29.6899 66.8625V54.5942H34.8016V70.7372Z" fill="black"/>
<path d="M27.3895 65.1195L22.2778 61.2448V54.5942H27.3895V65.1195Z" fill="black"/>
<path d="M14.8755 54.5942H19.9791V59.5019L16.7662 57.0649C15.9246 56.4271 15.2712 55.5734 14.8755 54.5942Z" fill="black"/>
<path d="M37.1021 54.5942H42.2137V72.4786L39.6579 74.4159L37.1021 72.4786V54.5942Z" fill="black"/>
<path d="M62.5542 57.0649L59.3413 59.5019V54.5942H64.4449C64.0492 55.5734 63.3958 56.4271 62.5542 57.0649Z" fill="black"/>
<path d="M38.3728 41.9453L38.0338 42.0192C38.0255 42.0213 38.0168 42.0217 38.0083 42.0203C37.9998 42.0189 37.9916 42.0157 37.9844 42.0111C37.9772 42.0064 37.971 42.0003 37.9662 41.9931C37.9614 41.9859 37.9582 41.9779 37.9567 41.9694L37.9326 41.7798C37.9302 41.7676 37.9308 41.755 37.9341 41.743C37.9375 41.731 37.9435 41.72 37.9519 41.7107L38.5077 41.2449H38.7776C38.7869 41.2451 38.796 41.2471 38.8045 41.2509C38.813 41.2546 38.8207 41.26 38.8271 41.2667C38.8335 41.2734 38.8385 41.2813 38.8419 41.29C38.8453 41.2986 38.8469 41.3079 38.8467 41.3172V43.7927C38.8471 43.8116 38.8401 43.8299 38.8272 43.8437C38.8143 43.8575 38.7965 43.8657 38.7776 43.8666H38.4451C38.4257 43.8661 38.4074 43.8582 38.3938 43.8444C38.3803 43.8305 38.3728 43.812 38.3728 43.7927V41.9453Z" fill="white"/>
<path d="M39.7785 42.5206V42.5094C39.6659 42.453 39.5699 42.3682 39.5 42.2634C39.4302 42.1586 39.3888 42.0374 39.3801 41.9118C39.3801 41.4828 39.7512 41.2065 40.2171 41.2065C40.6829 41.2065 41.0701 41.4828 41.0701 41.9118C41.059 42.0361 41.0169 42.1558 40.9476 42.2596C40.8782 42.3635 40.7839 42.4482 40.6733 42.5061V42.5206C40.8468 42.6089 41.1391 42.8339 41.1391 43.1632C41.1391 43.5841 40.7841 43.9037 40.2171 43.9037C39.65 43.9037 39.311 43.5824 39.311 43.1632C39.311 42.829 39.6693 42.5704 39.7785 42.5206ZM40.2251 43.5118C40.2749 43.5152 40.3248 43.5088 40.3721 43.4928C40.4193 43.4767 40.4629 43.4515 40.5003 43.4184C40.5377 43.3854 40.5681 43.3452 40.5898 43.3003C40.6115 43.2554 40.624 43.2066 40.6267 43.1567C40.6268 43.1039 40.6165 43.0516 40.5963 43.0028C40.5762 42.954 40.5466 42.9097 40.5093 42.8723C40.472 42.8349 40.4277 42.8053 40.379 42.785C40.3302 42.7648 40.2779 42.7544 40.2251 42.7544C40.1723 42.7544 40.12 42.7648 40.0712 42.785C40.0225 42.8053 39.9781 42.8349 39.9408 42.8723C39.9035 42.9097 39.874 42.954 39.8538 43.0028C39.8337 43.0516 39.8234 43.1039 39.8235 43.1567C39.8297 43.2571 39.8755 43.3508 39.9508 43.4174C40.0261 43.484 40.1248 43.5179 40.2251 43.5118ZM40.5769 41.931C40.5744 41.8863 40.5632 41.8425 40.5437 41.8021C40.5243 41.7617 40.4971 41.7256 40.4637 41.6957C40.4302 41.6659 40.3912 41.6429 40.3489 41.6282C40.3066 41.6134 40.2618 41.6072 40.2171 41.6098C40.1294 41.608 40.0445 41.6406 39.9805 41.7007C39.9166 41.7607 39.8786 41.8434 39.8749 41.931C39.8749 42.1045 39.9825 42.2395 40.2251 42.2973C40.4612 42.2491 40.5769 42.0965 40.5769 41.9278V41.931Z" fill="white"/>
<path d="M41.5356 43.7509L42.5396 41.6625H41.5212C41.5018 41.6618 41.4835 41.6537 41.4698 41.64C41.4561 41.6263 41.4481 41.608 41.4473 41.5887V41.3172C41.4481 41.298 41.4562 41.2798 41.4699 41.2664C41.4836 41.253 41.502 41.2453 41.5212 41.2449H43.1276C43.1465 41.2457 43.1644 41.2535 43.1778 41.2669C43.1912 41.2803 43.1991 41.2982 43.1999 41.3172V41.3445L42.0513 43.7621C42.0432 43.7912 42.026 43.817 42.0024 43.8358C41.9787 43.8545 41.9497 43.8653 41.9196 43.8666H41.6336C41.5886 43.8666 41.5372 43.8553 41.5372 43.7927L41.5356 43.7509Z" fill="white"/>
<path d="M43.2642 42.5559C43.2642 41.711 43.6192 41.2065 44.236 41.2065C44.8529 41.2065 45.2079 41.711 45.2079 42.5559C45.2079 43.4009 44.8529 43.9053 44.236 43.9053C43.6192 43.9053 43.2642 43.4009 43.2642 42.5559ZM44.7019 42.5559C44.7019 41.9841 44.5413 41.6612 44.236 41.6612C43.9308 41.6612 43.7686 41.9824 43.7686 42.5559C43.7686 43.1294 43.9389 43.4507 44.236 43.4507C44.5332 43.4507 44.7019 43.131 44.7019 42.5559Z" fill="white"/>
<path d="M42.077 11.9551H27.2754V15.1454H29.2915V33.3848H27.2754V36.5752H31.2915L32.477 33.3848V28.8611H42.1477L40.9621 25.6723H32.4802V15.1454H42.077C42.9844 15.145 43.8765 15.3793 44.6666 15.8257C45.4566 16.272 46.1178 16.9151 46.5857 17.6926C47.0537 18.47 47.3125 19.3553 47.3371 20.2624C47.3617 21.1695 47.1512 22.0675 46.726 22.8691L48.0384 26.3952C49.2256 25.2153 50.0354 23.7094 50.3654 22.0685C50.6953 20.4276 50.5304 18.7257 49.8915 17.1787C49.2527 15.6317 48.1687 14.3093 46.7771 13.3793C45.3856 12.4493 43.7491 11.9536 42.0754 11.9551H42.077Z" fill="white"/>
<path d="M29.3154 44.1479H36.8319V40.9591H34.7676L36.0255 37.5776H47.097L48.3548 40.9591H46.2905V44.1479H53.807V40.9591H51.7572L43.0552 17.5728H40.0656L37.6447 24.0788H41.0488L41.5612 22.7005L45.9098 34.3888H37.211L38.6745 30.4563H35.2721L31.3636 40.9591H29.3154V44.1479Z" fill="white"/>
</svg>
