<svg width="80" height="80" viewBox="0 0 80 80" fill="none" xmlns="http://www.w3.org/2000/svg">
<path d="M68.4456 19.7752L68.4952 19.5728L75.3952 14.7824L69.6376 14.6752L70.58 14L61.68 9.0896L56.8032 4.7752L45.8928 0L40.0528 1.58L34.2032 0L23.2976 4.7752L18.4232 9.0904L9.5152 14L10.46 14.6752L4.7032 14.7824L11.6032 19.5728L11.6528 19.7728L2 21.4152L9.228 24.9072L3.4576 28.7248L11.0328 30.3328L11.0576 30.6672L5.5952 36.6024L11.9128 36.6824L12.0632 37.6952L13.9624 38.2248L13.2624 39.8904L25.3728 46.6152L32.1632 56.86L40.048 55.3248L47.9328 56.86L54.72 46.6152L66.8328 39.8896L66.1328 38.2248L68.0328 37.6952L68.1824 36.6824L74.4976 36.6024L69.0352 30.6672L69.06 30.3328L76.6352 28.7248L70.8656 24.9072L78.0952 21.4152L68.4456 19.7752ZM72.8576 28.0352L67.7128 29.1448L67.3528 31.4872L71.4904 35.2872L66.9576 35.1872L66.7528 36.5624L64.18 37.2824L65.0128 39.2576L53.72 45.6072L47.288 55.3472L40.0504 53.9424L32.8128 55.3472L26.38 45.6072L15.0856 39.2576L15.9176 37.2824L13.348 36.5624L13.1424 35.1872L8.6104 35.2872L12.748 31.4872L12.3856 29.1448L7.2424 28.0352L12.9104 24.56L6.4776 22.04L13.44 21.0072L13.2056 20.0648L14.5904 19.5096L8.6352 15.8696L15.2352 16.32L12.2024 14.1576L19.2528 10.2696L24.1376 5.9472L34.328 1.6952L40.0504 3.0824L45.7728 1.6952L55.9624 5.9472L60.848 10.2696L67.8952 14.1576L64.8624 16.3224L71.4624 15.8696L65.5056 19.5096L66.8928 20.0648L66.6576 21.0072L73.62 22.04L67.1904 24.56L72.8576 28.0352ZM67.9456 22.6728L63.5552 22.4704L64.1976 21.1824L62.0104 19.5624L66.1224 17.6376L60.9728 18.7672L60.448 17.2776L59.0328 13.8248L55.8824 11.5648L55.6176 9.9224L45.908 7.3896L45.8704 7.3848C45.8327 7.38503 45.7965 7.39923 45.7687 7.42465C45.7409 7.45007 45.7236 7.48491 45.72 7.5224L44.8528 15.3752C44.8492 15.405 44.8547 15.4353 44.8685 15.462C44.8824 15.4887 44.9039 15.5105 44.9304 15.5248L48.94 17.6752L51.9856 16.8248L54.5376 13.3528L58.1632 22.7528C58.1978 22.8489 58.213 22.9508 58.208 23.0528L58.12 25.9096L50.7056 33.8552L46.9376 48.0896L46.48 50.3728C46.4702 50.4226 46.4496 50.4697 46.4195 50.5107C46.3895 50.5516 46.3508 50.5854 46.3061 50.6097C46.2615 50.634 46.2121 50.6482 46.1614 50.6512C46.1107 50.6542 46.06 50.646 46.0128 50.6272L40.0528 48.3376L34.0856 50.6352C34.0381 50.653 33.9873 50.6603 33.9367 50.6566C33.8861 50.653 33.8369 50.6384 33.7924 50.6139C33.748 50.5895 33.7093 50.5557 33.6792 50.5149C33.649 50.4741 33.628 50.4273 33.6176 50.3776L33.16 48.0952L29.3952 33.86L21.9776 25.9152L21.8904 23.06C21.8855 22.9576 21.9024 22.8554 21.94 22.76L25.5632 13.36L28.1128 16.8328L31.16 17.68L35.1704 15.5296C35.1968 15.5153 35.2183 15.4934 35.2321 15.4667C35.246 15.44 35.2515 15.4098 35.248 15.38L34.3832 7.5248C34.3796 7.48744 34.3624 7.45272 34.3348 7.42732C34.3072 7.40191 34.2711 7.38762 34.2336 7.3872C34.2206 7.38749 34.2077 7.38938 34.1952 7.3928L24.4832 9.9248L24.2176 11.5672L21.068 13.8272L19.6528 17.2776L19.128 18.7696L13.9776 17.6376L18.088 19.5624L15.9 21.1872L16.5456 22.4728L12.1528 22.6728L16.2232 23.4728L14.1528 26.1552L11.18 27.3848L14.42 27.7072L15.0928 31.8448L12.528 33.6272L15.34 33.0928L15.62 34.7424L19.0256 35.6928L18.0952 38.1352L27.9704 44.4048L34.3504 52.4976H45.7504L52.1328 44.4048L62.0032 38.1352L61.0752 35.6928L64.4776 34.7424L64.7576 33.0928L67.5728 33.6272L65.008 31.8448L65.68 27.7072L68.9176 27.3824L65.948 26.1552L63.8776 23.4696L67.9456 22.6752V22.6728ZM43.5328 46.8328L42.6128 45.1824L41.7576 46.2376L40.8552 45.1624L40.0504 46.2352L39.2456 45.1648L38.3432 46.2376L37.488 45.1824L36.568 46.8328C35.5576 44.8048 35.4976 43.2328 35.0832 41.14C34.0832 42.9552 34.108 44.8752 34.3256 48.04C34.3306 48.1109 34.3509 48.18 34.3849 48.2424C34.419 48.3048 34.466 48.3592 34.5229 48.4018C34.5798 48.4445 34.6452 48.4744 34.7147 48.4895C34.7842 48.5047 34.8561 48.5047 34.9256 48.4896L37.3504 47.7552C38.1232 47.5752 39.28 47.1424 40.0504 46.9624C40.82 47.1424 41.9752 47.5752 42.748 47.7552L45.1728 48.4928C45.2423 48.5068 45.3139 48.506 45.383 48.4904C45.4521 48.4747 45.5171 48.4447 45.5738 48.4021C45.6304 48.3596 45.6775 48.3055 45.7118 48.2435C45.7461 48.1816 45.7669 48.113 45.7728 48.0424C45.9904 44.8752 46.0152 42.9552 45.0176 41.14C44.6 43.2296 44.5432 44.8048 43.5328 46.8328ZM63.1352 31.5048L57.9656 37.9048L54.2776 41.7296L52.3728 40.9224L48.4856 45.6328C48.4697 45.6503 48.4487 45.6624 48.4256 45.6672C48.4022 45.671 48.3782 45.6664 48.358 45.654C48.3377 45.6417 48.3225 45.6226 48.3152 45.6C48.3088 45.5779 48.3096 45.5544 48.3176 45.5328L52.36 35.8328C52.46 35.5992 52.6392 35.408 52.8656 35.2928L58.0776 32.6696L61.5152 27.7152L58.2904 16.5824L58.288 16.5528C58.288 16.4632 58.3608 16.3896 58.4504 16.3896C58.508 16.3896 58.5608 16.4208 58.5904 16.4696L63.5904 26.5576L63.1352 31.5048ZM31.6104 45.6328L27.7232 40.9224L25.8176 41.7304L22.1304 37.9048L16.96 31.5048L16.5032 26.5552L21.5032 16.4696C21.5169 16.4431 21.5376 16.4208 21.5632 16.4054C21.5888 16.39 21.6182 16.3821 21.648 16.3824C21.7352 16.3824 21.8104 16.4552 21.8104 16.5448L21.8056 16.5824L18.58 27.7152L22.0152 32.6696L27.2304 35.2952C27.4552 35.4072 27.6352 35.6 27.7328 35.8352L31.7776 45.5304C31.7871 45.5525 31.7882 45.5773 31.7809 45.6003C31.7736 45.6232 31.7582 45.6427 31.7376 45.6552C31.7174 45.6663 31.694 45.6702 31.6712 45.6661C31.6485 45.662 31.6279 45.6503 31.6128 45.6328H31.6104ZM33.8728 29.6072L31.0032 30.4776C30.8906 30.5116 30.7936 30.584 30.7291 30.6823C30.6646 30.7806 30.6368 30.8984 30.6504 31.0152C31.0704 34.5152 31.6056 37.8472 33.0152 40.5824C33 36.8528 32.9656 33.72 34.0904 29.8248C34.0989 29.7944 34.0992 29.7622 34.0914 29.7316C34.0835 29.701 34.0677 29.673 34.0456 29.6504C34.0232 29.6285 33.9954 29.6129 33.9651 29.6053C33.9347 29.5977 33.9028 29.5984 33.8728 29.6072ZM49.0976 30.4752L46.228 29.6072C46.2055 29.6005 46.1818 29.5984 46.1584 29.6011C46.1351 29.6039 46.1125 29.6113 46.0921 29.6231C46.0718 29.6349 46.054 29.6507 46.04 29.6695C46.0259 29.6884 46.0158 29.7099 46.0104 29.7328C46.0024 29.7629 46.0024 29.7947 46.0104 29.8248C47.1352 33.72 47.1 36.8504 47.0856 40.5824C48.4952 37.8472 49.028 34.5152 49.4504 31.0152C49.4645 30.8981 49.4368 30.7797 49.3723 30.681C49.3078 30.5822 49.2105 30.5094 49.0976 30.4752ZM37.2032 30.6248L37.7656 31.9448L38.5304 30.6224L39.1952 31.9872L40.0504 30.6672L40.9056 31.9904L41.568 30.6224L42.3352 31.9448L42.8952 30.6224C43.6203 31.2961 44.1903 32.1194 44.5656 33.0352C44.7152 32.7376 44.9056 29.2848 44.9056 29.2848L42.6856 28.6872C42.6219 28.6709 42.5556 28.6668 42.4904 28.6752L40.1704 28.9352C40.0899 28.9448 40.0085 28.9448 39.928 28.9352L37.608 28.6752C37.5435 28.668 37.4783 28.672 37.4152 28.6872L35.1952 29.2872C35.1952 29.2872 35.3856 32.7376 35.5352 33.0352C35.9088 32.119 36.478 31.2955 37.2032 30.6224V30.6248ZM35.668 24.5672L30.6032 22.0928L29.5832 22.7248L35.4232 25.5648C35.4327 25.5702 35.4402 25.5784 35.4446 25.5883C35.4491 25.5983 35.4503 25.6094 35.448 25.62C35.4432 25.6304 35.4354 25.639 35.4256 25.6448C35.4152 25.6504 35.404 25.652 35.3928 25.6504L27.968 24.22L26.3128 25.1672L35.1256 26.5128C35.1352 26.5128 35.1456 26.52 35.1528 26.5272C35.1607 26.536 35.1648 26.5475 35.1643 26.5593C35.1639 26.5711 35.1589 26.5822 35.1504 26.5904C35.1421 26.598 35.1313 26.6022 35.12 26.6024L26.5576 26.9776L29.7104 29.4648L30.0776 29.6248L38.5128 26.9928C38.9128 26.8672 39.188 26.4952 39.188 26.0776V25.4728L34.3928 19.6496L32.0176 21.1624L35.7232 24.4872C35.7307 24.4958 35.7356 24.5064 35.7376 24.5176C35.7376 24.5272 35.7376 24.54 35.7304 24.5496C35.7238 24.5595 35.7139 24.5668 35.7025 24.57C35.691 24.5732 35.6788 24.5722 35.668 24.5672ZM40.9128 26.0776C40.9128 26.4976 41.188 26.8696 41.588 26.9952L50.0232 29.6248L50.388 29.4672L53.5432 26.9776L44.9776 26.6024C44.9657 26.6024 44.9543 26.5977 44.9459 26.5893C44.9375 26.5809 44.9328 26.5695 44.9328 26.5576C44.9328 26.5328 44.9528 26.5152 44.9752 26.5128L53.7856 25.1672L52.1352 24.2176L44.7056 25.6496C44.6952 25.6496 44.6832 25.6496 44.6752 25.6448C44.66 25.6376 44.6528 25.6224 44.6528 25.6048C44.6528 25.5872 44.6632 25.5728 44.6776 25.5648L50.5176 22.7248L49.4952 22.0928L44.4328 24.5672C44.422 24.5722 44.4098 24.5732 44.3983 24.57C44.3869 24.5668 44.377 24.5595 44.3704 24.5496C44.3552 24.5296 44.36 24.5024 44.3776 24.4848L48.0832 21.1624L45.708 19.6496L40.9128 25.4752V26.0776ZM40.0504 24.9328C40.1328 24.9344 40.2104 24.8896 40.2504 24.8176L41.2256 23.0952C41.267 23.0224 41.3336 22.9672 41.4128 22.94L42.3304 22.6072C42.3913 22.5869 42.4451 22.5497 42.4856 22.5L42.9656 21.8928C42.9896 21.8634 43.0049 21.8279 43.0095 21.7902C43.0142 21.7526 43.0081 21.7144 42.9919 21.6801C42.9758 21.6458 42.9502 21.6167 42.9182 21.5963C42.8862 21.5759 42.8491 21.565 42.8112 21.5648H37.2872C37.2491 21.5647 37.2118 21.5754 37.1796 21.5957C37.1474 21.6161 37.1217 21.6452 37.1055 21.6796C37.0893 21.7141 37.0833 21.7524 37.0881 21.7902C37.0929 21.8279 37.1084 21.8635 37.1328 21.8928L37.6128 22.5C37.6528 22.5496 37.708 22.5872 37.768 22.6096L38.688 22.9424C38.766 22.9707 38.8314 23.0257 38.8728 23.0976L39.8504 24.82C39.8904 24.8928 39.9672 24.9368 40.0504 24.9352V24.9328ZM51.6952 15.8696L49.1352 16.9424L45.7728 15.2824L46.748 8.8424C46.7504 8.8152 46.7704 8.7952 46.7976 8.7952C46.8104 8.7952 46.82 8.8 46.8304 8.8072C46.8405 8.81464 46.8476 8.82542 46.8504 8.8376L47.72 12.5872L55.6752 10.7952L51.6928 15.8696H51.6952ZM32.3776 12.5872L33.248 8.8376C33.2504 8.8096 33.2704 8.7896 33.2976 8.7896C33.3256 8.7896 33.348 8.8128 33.348 8.84L34.3232 15.2824L30.96 16.9424L28.4032 15.8672L24.42 10.7952L32.3776 12.5872ZM30.7352 15.2896C31.0219 15.2378 31.2917 15.1167 31.5209 14.9369C31.7501 14.757 31.9319 14.5238 32.0504 14.2576L31.24 13.8928C31.1821 14.0645 31.0719 14.2137 30.9248 14.3194C30.7777 14.4252 30.6012 14.4822 30.42 14.4824C30.1936 14.4814 29.9765 14.3921 29.8149 14.2334C29.6534 14.0747 29.5602 13.8592 29.5552 13.6328C29.5552 13.4776 29.5976 13.3248 29.6776 13.1896L28.8304 12.8072C28.6491 13.137 28.5848 13.5186 28.648 13.8896C28.7455 14.3486 29.018 14.7515 29.4077 15.0129C29.7974 15.2742 30.2735 15.3735 30.7352 15.2896ZM49.3656 15.2896C49.8267 15.3714 50.3016 15.2712 50.6904 15.0101C51.0792 14.749 51.3516 14.3474 51.4504 13.8896C51.5152 13.52 51.4504 13.14 51.2704 12.8072L50.42 13.1896C50.4912 13.3176 50.528 13.4616 50.528 13.6072C50.528 14.0792 50.1416 14.4672 49.6704 14.4696C49.4919 14.4692 49.318 14.4135 49.1725 14.3102C49.0269 14.2069 48.9169 14.0611 48.8576 13.8928L48.0504 14.2576C48.2904 14.7976 48.784 15.1848 49.3656 15.2896Z" fill="white"/>
<path d="M45.22 38.5377C45.0864 38.3064 44.8718 38.1328 44.6176 38.0505C43.3928 37.5273 41.52 37.4329 41.0304 38.1001C40.9257 38.251 40.847 38.4184 40.7976 38.5953C40.4122 39.7751 40.1608 40.9945 40.048 42.2305C39.9379 40.9944 39.6878 39.7749 39.3024 38.5953C39.252 38.4177 39.1728 38.2496 39.068 38.0977C38.58 37.4329 36.708 37.5273 35.4824 38.0505C35.2274 38.1323 35.0119 38.306 34.8776 38.5377C34.472 39.2577 34.156 40.0241 33.9352 40.8201C33.7856 41.4014 33.7019 41.9977 33.6856 42.5977C33.9536 41.3182 34.5332 40.1245 35.3728 39.1225C35.3728 39.1225 35.72 40.7625 35.9104 41.6273C36.1656 42.7977 36.3 44.0305 36.7304 44.8105L37.3656 43.7305L38.3352 44.9105L39.2352 43.7801L40.0504 44.9425L40.8656 43.7801L41.7656 44.9105L42.7352 43.7305L43.368 44.8105C43.7976 44.0305 43.9352 42.7977 44.1928 41.6273C44.38 40.7625 44.7256 39.1201 44.7256 39.1201C45.5665 40.1225 46.1469 41.3171 46.4152 42.5977C46.3971 41.997 46.3134 41.4002 46.1656 40.8177C45.9455 40.0216 45.6279 39.2558 45.22 38.5377ZM24.2176 11.5649L24.4824 9.92249L34.1928 7.39049C34.2052 7.38662 34.2182 7.38473 34.2312 7.38489C34.308 7.38489 34.3736 7.44569 34.38 7.52249L35.2456 15.3777C35.2491 15.4075 35.2436 15.4377 35.2297 15.4644C35.2159 15.491 35.1944 15.513 35.168 15.5273L31.1576 17.6777L28.1104 16.8305L25.56 13.3553L21.9352 22.7553C21.8984 22.8508 21.8823 22.9531 21.888 23.0553L21.9752 25.9129L25.7624 17.4129L26.3376 20.2825L30.7104 19.9873L32.0176 21.1625L34.3928 19.6505L33.08 18.0577C33.0563 18.0295 33.0437 17.9935 33.0447 17.9566C33.0458 17.9197 33.0603 17.8845 33.0856 17.8577C33.1103 17.831 33.1438 17.8141 33.1799 17.81C33.216 17.8059 33.2523 17.8149 33.2824 17.8353L37.3256 20.5505H42.7752L46.8176 17.8353C46.8442 17.8146 46.8767 17.8031 46.9104 17.8025C46.9399 17.8026 46.9687 17.8114 46.9933 17.8278C47.0178 17.8442 47.037 17.8674 47.0484 17.8946C47.0598 17.9218 47.063 17.9518 47.0575 17.9808C47.0521 18.0098 47.0382 18.0365 47.0176 18.0577L45.7056 19.6505L48.08 21.1625L49.3904 19.9873L53.76 20.2825L54.3352 17.4153L58.1224 25.9153L58.2104 23.0577C58.2162 22.9554 58.1999 22.8531 58.1624 22.7577L54.54 13.3577L51.9904 16.8305L48.94 17.6777L44.9328 15.5273C44.9058 15.5135 44.8837 15.4917 44.8694 15.465C44.8551 15.4383 44.8493 15.4078 44.8528 15.3777L45.72 7.52249C45.7231 7.48925 45.7371 7.45796 45.7598 7.4335C45.7825 7.40905 45.8127 7.3928 45.8456 7.38729C45.8664 7.38476 45.8875 7.38584 45.908 7.39049L55.6176 9.92249L55.8832 11.5649L59.0328 13.8249L60.4456 17.2753L64.4328 14.8305L59.328 11.5905L53.9456 7.37289L45.0528 3.84009L40.0528 5.07049L35.0528 3.84009L26.1552 7.37289L20.7752 11.5905L15.6704 14.8305L19.6552 17.2777L21.0704 13.8249L24.2176 11.5649ZM44.0352 17.0273L40.0528 19.0377L36.0656 17.0273C36.0518 17.0184 36.0405 17.0062 36.0325 16.9918C36.0246 16.9774 36.0203 16.9613 36.02 16.9449C36.02 16.8905 36.0656 16.8449 36.12 16.8449H36.1352C37.4104 17.1953 38.728 17.3849 40.0528 17.4129C41.3768 17.3857 42.6928 17.1945 43.9704 16.8449H43.9824C44.0376 16.8449 44.0824 16.8905 44.0824 16.9449C44.0825 16.9613 44.0785 16.9775 44.0707 16.9919C44.0628 17.0063 44.0515 17.0185 44.0376 17.0273H44.0352ZM44.2976 14.9177L42.0376 14.2001L44.52 8.05769C44.5304 8.03289 44.5576 8.01769 44.5824 8.02489C44.5953 8.02687 44.6069 8.03368 44.6149 8.04394C44.623 8.05419 44.6268 8.06712 44.6256 8.08009L44.3 14.9177H44.2976ZM35.8 14.9153L35.4752 8.08009C35.474 8.07288 35.4746 8.06551 35.4768 8.05856C35.479 8.05161 35.4829 8.04528 35.488 8.04009C35.4978 8.02962 35.5113 8.02332 35.5256 8.02249C35.5376 8.02249 35.5504 8.02489 35.56 8.03289C35.568 8.04009 35.5752 8.04729 35.5776 8.05769L38.0624 14.2001L35.8 14.9153ZM28.5328 7.92009L34.288 4.94489L40.0504 7.11289L45.8128 4.94249L51.568 7.92009C51.6 7.93609 51.62 7.96889 51.62 8.00489C51.6198 8.01986 51.6161 8.03458 51.6093 8.04788C51.6024 8.06117 51.5925 8.07267 51.5803 8.08146C51.5682 8.09024 51.5542 8.09607 51.5394 8.09847C51.5246 8.10087 51.5095 8.09978 51.4952 8.09529L45.3528 6.22489L40.0504 8.83289L34.748 6.22489L28.6056 8.09529C28.5936 8.10005 28.5809 8.10249 28.568 8.10249C28.5462 8.10235 28.5251 8.09473 28.5082 8.0809C28.4914 8.06707 28.4798 8.04787 28.4754 8.02651C28.471 8.00515 28.474 7.98293 28.484 7.96355C28.4941 7.94418 28.5104 7.92884 28.5304 7.92009H28.5328Z" fill="#F77111"/>
<path d="M66.6575 21.0073L66.8927 20.0649L65.5055 19.5097L71.4632 15.8697L64.8631 16.3201L67.8951 14.1577L60.8455 10.2697L55.9631 5.94731L45.7727 1.69531L40.0479 3.08251L34.3279 1.69531L24.1375 5.94731L19.2527 10.2697L12.2031 14.1577L15.2351 16.3225L8.63514 15.8697L14.5903 19.5097L13.2055 20.0649L13.4399 21.0073L6.47754 22.0401L12.9079 24.5601L7.23994 28.0353L12.3831 29.1449L12.7455 31.4873L8.60794 35.2873L13.1399 35.1873L13.3455 36.5625L15.9151 37.2825L15.0831 39.2577L26.3775 45.6073L32.8103 55.3473L40.0527 53.9401L47.2879 55.3473L53.7231 45.6073L65.0151 39.2577L64.1831 37.2825L66.7551 36.5625L66.9599 35.1873L71.4928 35.2873L67.3551 31.4873L67.7151 29.1449L72.8599 28.0353L67.1927 24.5601L73.6231 22.0401L66.6575 21.0073ZM65.9479 26.1529L68.9175 27.3825L65.6799 27.7049L65.0055 31.8425L67.5727 33.6249L64.7575 33.0897L64.4775 34.7401L61.0751 35.6897L62.0031 38.1329L52.1327 44.4025L45.7503 52.4953H34.3503L27.9679 44.4025L18.0951 38.1329L19.0255 35.6897L15.6199 34.7401L15.3399 33.0897L12.5279 33.6249L15.0927 31.8425L14.4175 27.7049L11.1799 27.3801L14.1551 26.1529L16.2231 23.4673L12.1527 22.6729L16.5455 22.4697L15.8999 21.1825L18.0879 19.5625L13.9775 17.6377L19.1279 18.7673L19.6527 17.2777L15.6679 14.8273L20.7727 11.5897L26.1527 7.37531L35.0527 3.84011L40.0527 5.06731L45.0527 3.84011L53.9479 7.37291L59.3303 11.5897L64.4351 14.8273L60.4479 17.2777L60.9727 18.7673L66.1231 17.6353L62.0151 19.5601L64.1999 21.1849L63.5575 22.4697L67.9479 22.6697L63.8799 23.4673L65.9479 26.1529ZM53.7599 20.2825L49.3903 19.9873L44.3775 24.4873C44.3729 24.4919 44.3693 24.4974 44.3668 24.5035C44.3644 24.5095 44.3631 24.516 44.3631 24.5225C44.3631 24.5441 44.3767 24.5633 44.3975 24.5697C44.4103 24.5729 44.4231 24.5729 44.4327 24.5673L49.4951 22.0929L50.5175 22.7249L44.6775 25.5649C44.6575 25.5753 44.6455 25.5977 44.6527 25.6201C44.6575 25.6305 44.6653 25.6391 44.6751 25.6449C44.6796 25.6477 44.6846 25.6495 44.6899 25.6504C44.6951 25.6512 44.7004 25.651 44.7055 25.6497L52.1327 24.2201L53.7855 25.1649L44.9751 26.5129C44.9631 26.5129 44.9527 26.5201 44.9455 26.5273C44.9382 26.5366 44.9345 26.5483 44.9351 26.5601C44.9351 26.5729 44.9399 26.5825 44.9503 26.5897C44.9583 26.5977 44.9687 26.6025 44.9799 26.6025L53.5431 26.9777L50.3879 29.4649L50.0231 29.6249L41.5879 26.9929C41.3926 26.9322 41.2217 26.8107 41.1002 26.6461C40.9788 26.4814 40.9131 26.2823 40.9127 26.0777V25.4729L47.0175 18.0577C47.0405 18.0292 47.0525 17.9934 47.0517 17.9568C47.0508 17.9202 47.037 17.8851 47.0127 17.8577C46.9884 17.8311 46.9555 17.814 46.9197 17.8095C46.8839 17.8049 46.8477 17.8132 46.8175 17.8329L42.7727 20.5497H37.3279L33.2855 17.8353C33.2632 17.8191 33.2368 17.8093 33.2092 17.8071C33.1816 17.805 33.154 17.8105 33.1294 17.8231C33.1048 17.8357 33.0841 17.8549 33.0698 17.8785C33.0554 17.9021 33.0478 17.9293 33.0479 17.9569C33.0479 17.9945 33.0599 18.0297 33.0831 18.0577L39.1903 25.4729V26.0777C39.1903 26.4977 38.9151 26.8697 38.5151 26.9953L30.0775 29.6249L29.7127 29.4673L26.5575 26.9777L35.1199 26.6025C35.1314 26.6024 35.1423 26.5978 35.1503 26.5897C35.1588 26.5817 35.1638 26.5707 35.1642 26.559C35.1647 26.5474 35.1605 26.536 35.1527 26.5273C35.1451 26.5202 35.1357 26.5153 35.1255 26.5129L26.3127 25.1649L27.9655 24.2201L35.3927 25.6497C35.4036 25.6523 35.4151 25.6507 35.4249 25.6452C35.4347 25.6397 35.442 25.6308 35.4455 25.6201C35.4479 25.615 35.4491 25.6094 35.4491 25.6037C35.4491 25.5981 35.4479 25.5925 35.4455 25.5873C35.4432 25.5817 35.4397 25.5766 35.4353 25.5723C35.4309 25.5681 35.4257 25.5647 35.4199 25.5625L29.5855 22.7249L30.6055 22.0929L35.6703 24.5673L35.6927 24.5729C35.706 24.5727 35.7187 24.5673 35.7282 24.5579C35.7376 24.5485 35.7429 24.5358 35.7431 24.5225C35.7423 24.5082 35.736 24.4947 35.7255 24.4849L30.7127 19.9873L26.3431 20.2825L25.7679 17.4153L21.9775 25.9153L29.3951 33.8577L33.1599 48.0929L33.6175 50.3753C33.6278 50.4251 33.6487 50.472 33.6789 50.5128C33.709 50.5537 33.7477 50.5875 33.7921 50.612C33.8366 50.6365 33.8859 50.6511 33.9366 50.6547C33.9872 50.6583 34.038 50.6509 34.0855 50.6329L40.0527 48.3329L46.0175 50.6329C46.0584 50.6486 46.1018 50.657 46.1455 50.6577C46.2259 50.6566 46.3035 50.6279 46.3654 50.5765C46.4272 50.5252 46.4697 50.4541 46.4855 50.3753L46.9431 48.0929L50.7103 33.8577L58.1255 25.9129L54.3399 17.4129L53.7655 20.2825H53.7599ZM45.7751 48.0401C45.7693 48.1109 45.7484 48.1797 45.714 48.2419C45.6795 48.304 45.6322 48.3582 45.5753 48.4007C45.5183 48.4432 45.453 48.4731 45.3836 48.4885C45.3142 48.5038 45.2423 48.5042 45.1727 48.4897L42.7479 47.7553C41.9775 47.5753 40.8199 47.1425 40.0479 46.9625C39.2799 47.1425 38.1231 47.5753 37.3527 47.7553L34.9279 48.4929C34.8583 48.507 34.7865 48.5063 34.7173 48.4908C34.648 48.4752 34.5827 48.4452 34.5259 48.4026C34.469 48.3601 34.4217 48.3061 34.3872 48.244C34.3527 48.1819 34.3317 48.1133 34.3255 48.0425C34.1079 44.8753 34.0855 42.9553 35.0831 41.1401C35.4975 43.2297 35.5575 44.8049 36.5679 46.8329L37.4879 45.1825L38.3399 46.2377L39.2455 45.1625L40.0503 46.2353L40.8551 45.1649L41.7575 46.2377L42.6127 45.1825L43.5327 46.8329C44.5399 44.8049 44.5999 43.2329 45.0175 41.1401C46.0151 42.9553 45.9927 44.8753 45.7751 48.0401ZM58.2903 16.5825L61.5151 27.7153L58.0799 32.6697L52.8679 35.2953C52.6397 35.408 52.4602 35.6 52.3631 35.8353L48.3199 45.5297C48.3108 45.5521 48.3099 45.5771 48.3175 45.6001C48.3249 45.6227 48.34 45.6418 48.3603 45.6542C48.3805 45.6665 48.4045 45.6712 48.4279 45.6673C48.4511 45.6625 48.4721 45.6504 48.4879 45.6329L52.3751 40.9225L54.2799 41.7297L57.9679 37.9049L63.1375 31.5049L63.5927 26.5553L58.5927 16.4697C58.579 16.4431 58.5582 16.4207 58.5327 16.4049C58.5072 16.3891 58.4779 16.3805 58.4479 16.3801C58.4181 16.3797 58.3887 16.3876 58.3631 16.403C58.3375 16.4184 58.3167 16.4407 58.3031 16.4673C58.2851 16.5029 58.2805 16.5438 58.2903 16.5825ZM27.7351 35.8353C27.6383 35.6 27.46 35.4074 27.2327 35.2929L22.0175 32.6697L18.5831 27.7153L21.8079 16.5825L21.8103 16.5529C21.8101 16.5098 21.793 16.4686 21.7626 16.438C21.7322 16.4075 21.691 16.3901 21.6479 16.3897C21.6197 16.3898 21.5919 16.3972 21.5674 16.4112C21.5428 16.4252 21.5224 16.4454 21.5079 16.4697L16.5079 26.5577L16.9631 31.5049L22.1327 37.9049L25.8199 41.7297L27.7255 40.9225L31.6127 45.6329C31.6221 45.6437 31.6336 45.6524 31.6466 45.6583C31.6596 45.6643 31.6737 45.6673 31.6879 45.6673C31.7088 45.6675 31.7293 45.6611 31.7463 45.649C31.7634 45.637 31.7763 45.6199 31.7831 45.6001C31.7897 45.578 31.7886 45.5543 31.7799 45.5329L27.7351 35.8329V35.8353ZM44.7255 39.1201C44.7255 39.1201 44.3799 40.7625 44.1903 41.6273C43.9351 42.7977 43.7975 44.0297 43.3679 44.8097L42.7351 43.7297L41.7631 44.9097L40.8631 43.7801L40.0503 44.9425L39.2351 43.7801L38.3351 44.9097L37.3655 43.7297L36.7303 44.8097C36.2999 44.0297 36.1655 42.7977 35.9103 41.6273C35.7199 40.7625 35.3727 39.1201 35.3727 39.1201C34.533 40.1224 33.9527 41.3159 33.6831 42.5953C33.7031 41.9953 33.7855 41.4001 33.9351 40.8201C34.1551 40.0225 34.4727 39.2577 34.8775 38.5401C35.0119 38.3081 35.2279 38.1329 35.4831 38.0497C36.7079 37.5273 38.5799 37.4329 39.0679 38.1001C39.1751 38.2497 39.2527 38.4177 39.3031 38.5953C39.6879 39.7753 39.9375 40.9953 40.0503 42.2297C40.1604 40.994 40.4103 39.7747 40.7951 38.5953C40.8455 38.4177 40.9247 38.2497 41.0303 38.0977C41.5199 37.4329 43.3927 37.5273 44.6175 38.0473C44.8719 38.1321 45.0871 38.3073 45.2199 38.5401C45.6279 39.2577 45.9455 40.0249 46.1655 40.8201C46.3151 41.4001 46.3975 41.9953 46.4151 42.5953C46.1452 41.316 45.565 40.1226 44.7255 39.1201ZM49.4503 31.0153C49.0279 34.5153 48.4951 37.8473 47.0831 40.5825C47.0999 36.8529 47.1327 33.7201 46.0103 29.8249C46.0006 29.7945 45.9997 29.7619 46.0076 29.7309C46.0155 29.6999 46.032 29.6718 46.0551 29.6497C46.0777 29.6281 46.1056 29.6129 46.1359 29.6054C46.1662 29.598 46.198 29.5986 46.2279 29.6073L49.0975 30.4753C49.3295 30.5457 49.4775 30.7753 49.4479 31.0153H49.4503ZM33.0151 40.5825C31.6055 37.8473 31.0703 34.5153 30.6503 31.0153C30.6359 30.8986 30.6631 30.7805 30.727 30.6818C30.7909 30.583 30.8875 30.5099 30.9999 30.4753L33.8727 29.6073C33.888 29.6025 33.9039 29.6001 33.9199 29.6001C33.9471 29.6003 33.9739 29.6067 33.9982 29.619C34.0224 29.6313 34.0435 29.649 34.0598 29.6708C34.0761 29.6925 34.0871 29.7178 34.092 29.7445C34.0969 29.7713 34.0955 29.7988 34.0879 29.8249C32.9631 33.7201 32.9999 36.8497 33.0151 40.5825ZM37.4151 28.6897C37.4779 28.6725 37.5433 28.6676 37.6079 28.6753L39.9279 28.9353C40.0087 28.9449 40.0911 28.9449 40.1727 28.9353L42.4903 28.6753C42.5556 28.6669 42.6218 28.671 42.6855 28.6873L44.9055 29.2873C44.9055 29.2873 44.7151 32.7377 44.5655 33.0353C44.191 32.1191 43.6209 31.2956 42.8951 30.6225L42.3351 31.9449L41.5679 30.6225L40.9055 31.9873L40.0503 30.6673L39.1951 31.9897L38.5303 30.6225L37.7655 31.9449L37.2031 30.6225C36.4777 31.2954 35.9084 32.119 35.5351 33.0353C35.3855 32.7377 35.1951 29.2849 35.1951 29.2849L37.4151 28.6873V28.6897ZM38.8727 23.0953C38.8314 23.0234 38.7659 22.9685 38.6879 22.9401L37.7679 22.6073C37.707 22.5872 37.6531 22.55 37.6127 22.5001L37.1327 21.8929C37.1096 21.8631 37.0951 21.8275 37.0907 21.79C37.0863 21.7525 37.0923 21.7145 37.1079 21.6801C37.1239 21.6448 37.15 21.615 37.1829 21.5945C37.2158 21.574 37.254 21.5637 37.2927 21.5649H42.8079C42.8458 21.5654 42.8827 21.5765 42.9145 21.5968C42.9464 21.6172 42.972 21.646 42.9883 21.6801C43.0047 21.7142 43.0113 21.7522 43.0072 21.7898C43.0032 21.8273 42.9888 21.8631 42.9655 21.8929L42.4855 22.5001C42.4447 22.55 42.3911 22.5879 42.3303 22.6097L41.4127 22.9425C41.3345 22.9704 41.2689 23.0255 41.2279 23.0977L40.2479 24.8201C40.2279 24.8555 40.1988 24.8851 40.1637 24.9057C40.1286 24.9264 40.0887 24.9374 40.0479 24.9377C40.0075 24.9374 39.968 24.9263 39.9332 24.9056C39.8985 24.885 39.8699 24.8555 39.8503 24.8201L38.8727 23.0953ZM43.9679 16.8449C42.6904 17.1947 41.3746 17.3855 40.0503 17.4129C38.7261 17.3855 37.4103 17.1947 36.1327 16.8449H36.1175C36.0911 16.8451 36.0658 16.8557 36.0471 16.8744C36.0284 16.8931 36.0178 16.9185 36.0175 16.9449C36.0178 16.9613 36.0221 16.9774 36.03 16.9918C36.038 17.0062 36.0494 17.0184 36.0631 17.0273L40.0527 19.0377L44.0375 17.0273C44.0599 17.0176 44.0779 16.9999 44.0879 16.9777C44.0946 16.9607 44.0965 16.9423 44.0935 16.9243C44.0904 16.9063 44.0826 16.8895 44.0708 16.8757C44.059 16.8618 44.0436 16.8514 44.0263 16.8455C44.0091 16.8397 43.9906 16.8387 43.9727 16.8425L43.9679 16.8449ZM30.9631 16.9425L34.3279 15.2825L33.3527 8.84011C33.3527 8.82688 33.3475 8.81418 33.3383 8.80476C33.329 8.79533 33.3164 8.78992 33.3031 8.78971C33.2751 8.78971 33.2551 8.80971 33.2527 8.83771L32.3775 12.5873L24.4231 10.7953L28.4055 15.8697L30.9631 16.9425ZM46.8503 8.83771C46.8479 8.80971 46.8279 8.78971 46.7999 8.78971C46.7867 8.78992 46.7741 8.79533 46.7648 8.80476C46.7555 8.81418 46.7503 8.82688 46.7503 8.84011L45.7727 15.2825L49.1351 16.9425L51.6927 15.8673L55.6751 10.7953L47.7199 12.5873L46.8503 8.83771ZM28.8303 12.8073L29.6799 13.1897C29.6087 13.3185 29.5712 13.4633 29.5711 13.6105C29.5721 13.7528 29.6079 13.8927 29.6753 14.018C29.7428 14.1433 29.8399 14.2502 29.9582 14.3294C30.0765 14.4085 30.2123 14.4575 30.3539 14.4721C30.4955 14.4866 30.6384 14.4663 30.7703 14.4129C30.9935 14.3137 31.1639 14.1249 31.2399 13.8929L32.0503 14.2577C31.9072 14.5726 31.6764 14.8397 31.3856 15.0271C31.0948 15.2145 30.7563 15.3142 30.4103 15.3145C29.9984 15.3137 29.5991 15.1719 29.2789 14.9127C28.9588 14.6534 28.7369 14.2925 28.6503 13.8897C28.5862 13.5189 28.6497 13.1374 28.8303 12.8073ZM48.8575 13.8929C48.9184 14.0589 49.0288 14.2022 49.1737 14.3035C49.3186 14.4048 49.4911 14.4592 49.6679 14.4593C50.1359 14.4593 50.5231 14.0777 50.5303 13.6097C50.5303 13.4633 50.4927 13.3185 50.4199 13.1897L51.2703 12.8073C51.4511 13.1377 51.5143 13.5193 51.4503 13.8897C51.3621 14.2915 51.1394 14.6512 50.8191 14.9093C50.4989 15.1675 50.1001 15.3087 49.6887 15.3097C49.3437 15.3093 49.0059 15.2101 48.7155 15.0236C48.4251 14.8371 48.1943 14.5714 48.0503 14.2577L48.8575 13.8929ZM44.5831 8.02491C44.5714 8.02207 44.5591 8.0229 44.5479 8.02731C44.5362 8.03401 44.5273 8.04485 44.5231 8.05771L42.0375 14.2001L44.2975 14.9177L44.6231 8.08011C44.6243 8.06714 44.6205 8.05422 44.6125 8.04396C44.6044 8.03371 44.5928 8.0269 44.5799 8.02491H44.5831ZM35.5775 8.05771C35.5737 8.04727 35.5665 8.0384 35.5571 8.03247C35.5477 8.02653 35.5366 8.02388 35.5255 8.02491C35.5122 8.02491 35.4994 8.03022 35.4899 8.03967C35.4804 8.04913 35.4751 8.06195 35.4751 8.07531L35.7999 14.9177L38.0631 14.2001L35.5775 8.05771ZM28.6031 8.09531L34.7479 6.22491L40.0479 8.83291L45.3527 6.22491L51.4951 8.09531C51.5051 8.09775 51.5153 8.09936 51.5255 8.10011C51.5506 8.0997 51.5745 8.08951 51.5921 8.07172C51.6098 8.05394 51.6197 8.02996 51.6199 8.00491C51.6203 7.99278 51.6179 7.98072 51.6127 7.96971C51.6047 7.94806 51.5887 7.93032 51.5679 7.92011L45.8127 4.94491L40.0503 7.11291L34.2879 4.94251L28.5327 7.92011C28.5119 7.93011 28.4958 7.94793 28.4879 7.96971C28.48 7.9925 28.48 8.01733 28.4879 8.04011C28.4964 8.06232 28.5131 8.08042 28.5345 8.09069C28.556 8.10096 28.5805 8.10261 28.6031 8.09531Z" fill="black"/>
<g clip-path="url(#clip0_413_1377)">
<path d="M33.9998 75.34L33.4998 77.57H33.2898C32.2698 77.57 31.5498 77.38 31.1398 77.01C30.7298 76.64 30.6098 76.07 30.7798 75.29C30.8698 74.77 31.0998 74.3 31.4598 73.92C31.8198 73.54 32.2798 73.27 32.7898 73.16C33.5098 72.98 34.2398 72.89 34.9798 72.9C35.6898 72.9 36.4098 72.96 37.1098 73.08L37.4098 71.72L36.4598 70.91C36.0198 70.87 35.5798 70.85 35.1398 70.86C32.9498 70.86 31.1998 71.23 29.9098 71.98C29.2998 72.32 28.7598 72.79 28.3498 73.35C27.9298 73.91 27.6398 74.56 27.4998 75.25C27.1798 76.71 27.4798 77.8 28.3998 78.52C29.3298 79.24 30.8898 79.6 33.0998 79.6C34.0798 79.6 35.0498 79.53 36.0198 79.4L36.9198 75.34H33.9898H33.9998Z" fill="#F77111"/>
<path d="M61.0802 73.01C61.5902 72.87 62.1302 72.81 62.6602 72.84C63.1002 72.84 63.5402 72.86 63.9702 72.91C64.3502 72.94 64.7202 73.01 65.0902 73.1L65.5302 71.1C64.6602 70.92 63.7702 70.84 62.8802 70.85C61.2602 70.85 59.9802 71.09 59.0502 71.57C58.1202 72.05 57.5602 72.73 57.3602 73.61C57.2802 73.89 57.2702 74.19 57.3302 74.48C57.4002 74.77 57.5302 75.03 57.7302 75.25C58.1302 75.67 58.8002 75.97 59.7302 76.16L60.6502 76.36C60.8902 76.4 61.1202 76.47 61.3502 76.55C61.4702 76.59 61.5702 76.66 61.6502 76.76C61.7002 76.84 61.7102 76.94 61.6902 77.03C61.6602 77.14 61.6002 77.23 61.5202 77.31C61.4402 77.39 61.3402 77.45 61.2402 77.48C60.8402 77.6 60.4202 77.66 60.0002 77.64C58.9502 77.64 57.9002 77.5 56.8702 77.25L56.4302 79.25C56.9102 79.38 57.4002 79.47 57.9002 79.53C58.4602 79.6 59.0202 79.63 59.5802 79.63C60.4502 79.64 61.3102 79.53 62.1502 79.29C62.8202 79.11 63.4502 78.78 63.9702 78.33C64.4202 77.95 64.7302 77.43 64.8602 76.86C64.9502 76.58 64.9502 76.27 64.8802 75.99C64.8102 75.7 64.6602 75.44 64.4602 75.22C64.0402 74.8 63.3202 74.49 62.2802 74.29L61.3602 74.09C61.1702 74.05 60.9802 73.99 60.7902 73.92C60.6902 73.89 60.6002 73.82 60.5402 73.74C60.5002 73.67 60.4902 73.58 60.5202 73.5C60.5602 73.31 60.7402 73.16 61.0602 73.04L61.0802 73.01Z" fill="#F77111"/>
<path d="M27.4799 70.96L25.5899 79.48H22.4199L24.1399 71.74L23.2299 70.96H27.4799Z" fill="#F77111"/>
<path d="M23.14 71.97L21.97 70.96H13.66L13.21 73.02H16.47L15.03 79.48H18.21L19.64 73.02H22.91L23.14 71.97Z" fill="#F77111"/>
<path d="M40.9301 76.12H45.1901L45.6201 74.15H41.3701L41.6401 72.93H46.6001L46.8601 71.73L45.9701 70.96H37.8201L38.7801 71.77L37.0601 79.48H45.2001L45.6401 77.51H40.6201L40.9301 76.12Z" fill="#F77111"/>
<path d="M56.1602 73.72C56.3802 72.74 56.1202 72.02 55.3902 71.54C54.8002 71.16 54.1102 70.96 53.4002 70.96H47.2602L47.9602 71.56L46.2002 79.48H49.3102L49.9502 76.6L50.6502 76.62L52.3902 79.49H55.8102L53.7402 76.18C54.3402 75.97 54.8902 75.64 55.3502 75.2C55.7602 74.8 56.0402 74.28 56.1602 73.72ZM53.2102 73.72C53.1802 73.89 53.1102 74.06 53.0102 74.2C52.9102 74.34 52.7702 74.46 52.6202 74.54C52.2202 74.73 51.7802 74.81 51.3302 74.79C51.0202 74.79 50.7002 74.78 50.3702 74.75L50.8202 72.72C51.1402 72.67 51.4602 72.65 51.7902 72.65C52.9002 72.65 53.3702 73.01 53.2102 73.73V73.72Z" fill="#F77111"/>
<path d="M62.88 62.1601C63.39 62.0201 63.93 61.9701 64.46 61.9901C64.9 61.9901 65.34 62.0101 65.77 62.0601C66.15 62.1001 66.53 62.1601 66.89 62.2501L67.33 60.2501C66.46 60.0701 65.57 59.9901 64.68 60.0001C63.06 60.0001 61.78 60.2401 60.85 60.7201C59.92 61.2001 59.36 61.8801 59.16 62.7601C59.08 63.0401 59.07 63.3401 59.13 63.6301C59.2 63.9201 59.34 64.1801 59.53 64.4001C59.93 64.8201 60.6 65.1201 61.53 65.3101L62.45 65.5101C62.69 65.5601 62.92 65.6201 63.15 65.7001C63.27 65.7401 63.37 65.8101 63.45 65.9001C63.47 65.9401 63.49 65.9901 63.49 66.0301C63.49 66.0801 63.49 66.1201 63.49 66.1701C63.46 66.2801 63.4 66.3701 63.32 66.4501C63.24 66.5301 63.14 66.5801 63.04 66.6201C62.64 66.7501 62.22 66.8001 61.8 66.7801C60.75 66.7801 59.7 66.6401 58.68 66.3901L58.23 68.3901C58.72 68.5201 59.21 68.6101 59.7 68.6701C60.26 68.7401 60.82 68.7701 61.38 68.7701C62.25 68.7801 63.11 68.6701 63.95 68.4301C64.62 68.2501 65.25 67.9201 65.78 67.4701C66.22 67.0901 66.54 66.5701 66.67 66.0001C66.76 65.7201 66.76 65.4101 66.69 65.1201C66.62 64.8301 66.47 64.5701 66.27 64.3501C65.85 63.9401 65.13 63.6301 64.09 63.4201L63.17 63.2301C62.98 63.1901 62.78 63.1301 62.6 63.0601C62.5 63.0301 62.42 62.9601 62.36 62.8801C62.32 62.8101 62.31 62.7201 62.33 62.6401C62.37 62.4501 62.55 62.3001 62.87 62.1801L62.88 62.1601ZM42.23 60.7201C41.3 61.2001 40.73 61.8801 40.54 62.7601C40.46 63.0401 40.45 63.3401 40.51 63.6301C40.58 63.9201 40.71 64.1801 40.91 64.4001C41.31 64.8201 41.97 65.1201 42.91 65.3101L43.83 65.5101C44.07 65.5601 44.3 65.6201 44.53 65.7001C44.65 65.7401 44.75 65.8101 44.83 65.9001C44.85 65.9401 44.87 65.9901 44.87 66.0301C44.87 66.0801 44.87 66.1201 44.87 66.1701C44.84 66.2801 44.78 66.3701 44.7 66.4501C44.62 66.5301 44.52 66.5801 44.42 66.6201C44.02 66.7501 43.6 66.8001 43.18 66.7801C42.13 66.7801 41.08 66.6401 40.06 66.3901L39.61 68.3901C40.09 68.5201 40.59 68.6101 41.08 68.6701C41.64 68.7401 42.2 68.7701 42.76 68.7701C43.63 68.7801 44.49 68.6701 45.33 68.4301C46 68.2501 46.63 67.9201 47.16 67.4701C47.61 67.0901 47.92 66.5701 48.05 66.0001C48.14 65.7201 48.15 65.4101 48.08 65.1201C48.01 64.8301 47.86 64.5701 47.66 64.3501C47.24 63.9401 46.52 63.6301 45.48 63.4201L44.56 63.2301C44.37 63.1901 44.18 63.1301 43.99 63.0601C43.89 63.0301 43.81 62.9601 43.74 62.8801C43.7 62.8101 43.69 62.7201 43.72 62.6401C43.76 62.4501 43.94 62.3001 44.26 62.1801C44.77 62.0401 45.31 61.9901 45.84 62.0101C46.28 62.0101 46.72 62.0301 47.15 62.0801C47.53 62.1201 47.91 62.1801 48.27 62.2701L48.71 60.2701C47.84 60.0901 46.95 60.0101 46.06 60.0201C44.44 60.0201 43.16 60.2601 42.23 60.7401V60.7201ZM59.25 60.1201H49.55L49.09 62.1801H52.35L50.91 68.6401H54.08L55.52 62.1801H58.78L59.24 60.1201H59.25ZM34.19 65.2801H38.45L38.89 63.3101H34.63L34.9 62.1001H39.86L40.3 60.1201H31.09L32.04 60.9401L30.32 68.6401H38.46L38.9 66.6601H33.88L34.19 65.2701V65.2801ZM29.99 60.1201H28.48L25.2 66.3801L24.7 60.1201H21.26L17.92 66.2501L17.49 60.1201H13L14.42 61.3501L15.12 68.6401H19.15L22.31 62.9401L22.82 68.6401H26.86L31 60.9801L29.99 60.1101V60.1201Z" fill="white"/>
</g>
<defs>
<clipPath id="clip0_413_1377">
<rect width="54.34" height="19.6" fill="white" transform="translate(13 60)"/>
</clipPath>
</defs>
</svg>
