<svg width="80" height="80" viewBox="0 0 80 80" fill="none" xmlns="http://www.w3.org/2000/svg">
<g clip-path="url(#clip0_413_990)">
<path fill-rule="evenodd" clip-rule="evenodd" d="M67.3187 12.0464L67.2105 11.5916L66.792 11.3834L66.7888 11.3818L66.7843 11.3796L66.7719 11.3736L66.7328 11.355C66.7002 11.3397 66.6546 11.3189 66.5956 11.2929C66.4777 11.2409 66.3062 11.1686 66.0777 11.0802C65.6206 10.9033 64.9356 10.6617 63.9954 10.3891C62.3716 9.91834 59.9868 9.35491 56.7002 8.87147C57.2562 7.85316 57.7126 6.51336 57.9524 4.70611C58.0641 3.89672 57.8799 3.10326 57.2217 2.56167C56.6382 2.0816 55.8613 1.9585 55.1563 1.9585C52.2357 1.9585 50.4617 1.81087 48.1585 1.48533C45.9735 0.204736 43.8183 -0.0550356 42.2053 0.00888451C41.3771 0.0417092 40.6862 0.159855 40.1974 0.271452C39.9964 0.317339 39.8286 0.36232 39.6985 0.400211C37.145 -0.21834 34.7578 0.0378498 33.0093 0.445896C32.0988 0.658382 31.35 0.914673 30.825 1.11962C30.5622 1.22224 30.3544 1.31239 30.2094 1.37839L30.1969 1.38409C27.9986 1.3904 25.5602 1.26403 23.9081 1.02659C23.8224 1.01284 23.7373 0.998647 23.6524 0.984498C23.0128 0.877857 22.3887 0.773805 21.6352 0.88132C20.788 1.00125 20.3744 1.71881 20.1921 2.21022C19.9899 2.75553 19.9102 3.41757 19.9158 4.08066C19.9269 5.39737 20.2793 7.01475 21.0877 8.26528C21.2226 8.48995 21.4039 8.74509 21.6137 9.01326C18.6501 9.48119 16.4818 10.0072 14.9892 10.4462C14.0966 10.7087 13.4457 10.9401 13.011 11.1094C12.7936 11.194 12.6303 11.2631 12.518 11.3127C12.4618 11.3375 12.4183 11.3575 12.3871 11.3721L12.3496 11.3899L12.3377 11.3957L12.3334 11.3978L12.3317 11.3986C12.3314 11.3988 12.3303 11.3994 12.775 12.2935L12.3303 11.3994L11.9117 11.6076L11.8035 12.0624C6.99332 32.2814 14.7582 49.7634 28.6845 59.6859C32.0188 62.1821 35.4831 64.5022 39.0616 66.6138L39.5691 66.9133L40.0766 66.6138C43.6552 64.5021 47.1196 62.1819 50.4541 59.6856C64.3803 49.7469 72.1288 32.265 67.3187 12.0464ZM19.9892 10.3044C21.0533 10.1074 22.2481 9.91439 23.5821 9.73561C23.5821 9.73561 23.5821 9.73561 23.5821 9.73561C23.1652 9.79148 22.7619 9.84873 22.3719 9.90707C21.5141 10.0354 20.7207 10.1689 19.9892 10.3044ZM47.8183 2.44558C47.8183 2.44558 47.8183 2.44557 47.8183 2.44558V2.44558ZM55.1563 2.95716C55.1563 2.95716 55.1563 2.95716 55.1563 2.95716V2.95716ZM56.9628 4.57184C56.6111 7.22567 55.7798 8.71245 54.9484 9.63969C55.1799 9.38147 55.4115 9.07984 55.6327 8.72172C56.2056 7.79385 56.709 6.48663 56.9628 4.57184ZM66.3471 12.2775C66.7919 11.3834 66.7923 11.3836 66.792 11.3834L66.3471 12.2775ZM49.8646 58.8794C49.8646 58.8794 49.8646 58.8794 49.8646 58.8794V58.8794Z" fill="white"/>
<path d="M54.5761 9.30582L53.9397 10.0156L54.8854 10.1356C58.9544 10.6522 61.7784 11.3067 63.5779 11.8284C64.4777 12.0893 65.1214 12.317 65.5365 12.4777C65.6968 12.5397 65.8231 12.5918 65.9168 12.6319C70.4681 32.1537 62.9606 48.924 49.5742 58.4722L49.5741 58.4721L49.5648 58.4791C46.3486 60.8873 43.0117 63.1284 39.5689 65.1726C36.1262 63.1284 32.7893 60.8873 29.573 58.4791L29.5731 58.4789L29.5634 58.472C16.1771 48.9396 8.65401 32.1695 13.205 12.648C13.2927 12.6105 13.4088 12.5626 13.5545 12.5058C13.9483 12.3525 14.5588 12.1347 15.4119 11.8838C17.1181 11.382 19.7948 10.7475 23.6484 10.2311L24.6361 10.0987L23.9396 9.38605C23.2602 8.69085 22.6382 7.94145 22.3653 7.48188L22.36 7.47293L22.3543 7.46421C21.7314 6.50806 21.4236 5.18102 21.4142 4.06792C21.4095 3.51225 21.4798 3.04751 21.5971 2.73125C21.7243 2.38811 21.844 2.36524 21.8452 2.36506L21.8462 2.36492C22.3581 2.29179 22.7479 2.35556 23.4067 2.46337C23.4926 2.47742 23.583 2.49221 23.6789 2.50755L23.6789 2.50761L23.6865 2.50872C25.4946 2.76934 28.1275 2.8976 30.4279 2.88152L30.5468 2.88069L30.6521 2.82666L30.6523 2.82658L30.6525 2.82645L30.6533 2.82606L30.6604 2.82251L30.6931 2.80646C30.723 2.79196 30.769 2.77011 30.83 2.74231C30.9522 2.68671 31.1347 2.60739 31.3699 2.51557C31.8406 2.33178 32.5206 2.09874 33.3497 1.90523C35.0115 1.51742 37.2497 1.29367 39.5998 1.92137L39.7534 1.9624L39.9016 1.90748L39.9019 1.90738L39.9022 1.90728L39.9022 1.90728L39.9025 1.90715L39.9076 1.90535L39.9351 1.89584C39.9608 1.88715 40.001 1.87398 40.0546 1.85766C40.162 1.82501 40.3233 1.77978 40.5308 1.73242C40.9461 1.6376 41.5442 1.53481 42.2645 1.50626C43.7049 1.44918 45.6232 1.6888 47.5572 2.87199L47.6451 2.92573L47.747 2.94039C50.2155 3.29533 52.0778 3.45706 55.1562 3.45706C55.7389 3.45706 56.0876 3.56936 56.2693 3.71886C56.4132 3.83721 56.531 4.04505 56.4674 4.50295L56.467 4.50605C56.1265 7.0757 55.3304 8.46438 54.5761 9.30582Z" fill="black" stroke="black"/>
<path d="M35.4923 35.1867C36.0838 34.4673 36.7712 33.8118 37.5226 33.2843C37.1869 33.0285 36.8991 32.7247 36.6433 32.389C35.9079 32.7407 35.2205 32.9965 34.4371 33.62C35.0286 32.7727 35.4443 32.5009 36.3396 31.9094C36.3236 31.8774 36.2596 31.7975 36.2277 31.7495C34.9967 32.1971 34.0055 32.7247 33.334 33.3162L33.3021 33.2843L33.2861 33.3002C32.9344 32.9485 32.5027 32.373 32.119 31.7815C31.8792 32.3091 31.6394 32.8846 31.4476 33.5081C31.3037 34.0197 31.2078 34.4513 31.1758 34.6431C31.1758 34.6591 31.1758 34.6591 31.1598 34.6751C31.1438 34.7551 31.1278 34.851 31.1118 34.9309C30.8401 34.883 30.5683 34.819 30.3125 34.7391C30.3605 35.7942 30.5843 36.8973 30.952 38.0803C30.904 37.4089 30.872 37.0252 30.952 36.5136C31.1918 37.6327 31.3357 38.0484 32.0711 39.0715C34.4371 36.8653 36.8991 35.6183 39.7608 34.8829C39.6648 34.7391 39.5689 34.5952 39.489 34.4513C38.8495 34.1635 38.306 33.8758 37.9063 33.572C37.2029 33.9557 36.4195 34.4673 35.4923 35.1867Z" fill="#FFD300"/>
<path d="M33.9732 62.2044C32.2786 57.2485 32.9821 54.211 35.8117 47.4165C33.7334 49.4789 32.1188 50.3581 31.1276 53.6834C31.1755 52.8681 31.3354 52.1007 31.4953 51.701C30.3602 50.3422 29.5609 48.7275 29.1612 46.3774C28.9054 46.7931 28.6656 47.2407 28.4578 47.8482C28.4897 46.873 28.6336 46.3934 29.0173 45.4981C29.0013 45.4022 28.9853 45.3063 28.9853 45.2104C28.7455 45.61 28.5057 46.0097 28.4098 46.3454C27.4346 43.5157 26.987 39.0874 27.9142 35.826C28.154 40.6701 29.5609 43.6436 31.9269 46.1536C32.1348 45.8338 32.3746 45.5461 32.6463 45.2743C32.4385 45.594 32.2786 45.9457 32.1347 46.2975C31.9429 46.6971 31.847 47.0329 31.6392 47.7523C32.1028 47.0169 32.3426 46.6172 32.6144 46.2175C34.9484 42.9722 38.2577 41.917 40.4799 39.7109C40.4799 39.7109 39.217 40.2064 38.1778 40.9898C39.7605 39.487 41.4871 39.0234 42.9099 36.8972C43.0378 36.7213 43.1817 36.4975 43.3256 36.2577C43.2297 36.2737 43.1497 36.2737 43.0538 36.2737C42.7661 36.7213 42.2065 37.4247 41.6789 37.8404C42.1266 37.2169 42.3664 36.6733 42.5103 36.2577C41.8868 36.1458 40.6718 36.0179 40.2401 35.4903C39.7765 35.7141 39.153 35.9539 38.5295 36.2737C37.3785 36.8812 36.5951 37.4087 35.4121 38.272C36.3873 37.8404 36.8989 37.6485 37.7781 37.4087C35.6359 38.4319 33.1419 40.4463 31.9109 42.2688C31.0796 41.4055 30.632 40.3663 30.2483 38.7037C30.1843 39.2952 30.2003 39.7109 30.2803 40.4942C29.4649 38.288 29.2411 36.0818 29.433 34.3872C28.9374 34.1474 28.4578 33.8437 28.0421 33.4919C26.6193 36.2417 25.1964 40.8139 25.2604 43.8674C25.5002 42.9082 25.8199 42.2048 25.8199 42.2048C25.4202 46.5852 26.1077 52.1487 28.9374 56.7209C30.2483 58.8152 31.863 60.4459 33.9732 62.2044Z" fill="white"/>
<path d="M44.4447 52.4526C49.8003 46.8572 50.9674 42.0931 48.9211 36.7055C48.969 41.1019 39.265 47.5925 37.7782 50.0066C38.2898 49.6229 40.0643 48.5198 40.432 48.28C39.0891 49.3511 38.3537 50.0386 37.4265 51.3974C38.3377 50.5022 39.185 50.0386 39.9204 49.543C36.2275 52.7403 35.2043 58.08 36.3873 63.7713C37.4744 64.4588 38.5136 65.0982 39.5527 65.7217C38.8813 60.2382 41.4552 55.57 44.4447 52.4526ZM22.7185 25.9782C22.9104 27.1932 23.2621 28.3283 23.7896 29.3035C24.2053 28.4083 24.9727 27.7048 25.5162 27.3371C25.5482 27.4331 25.5642 27.497 25.5962 27.5929C25.1166 28.0885 24.7169 28.6481 24.3652 29.2875C24.8288 28.728 25.2924 28.3923 25.756 28.0246C26.4754 29.8471 27.7864 30.9981 29.2092 31.7815C29.5449 30.0549 30.1684 28.5521 30.9198 27.8167C30.9518 27.8807 30.9997 27.9606 31.0317 28.0246C30.4882 28.8879 30.3123 29.3515 30.0885 30.2467C30.5521 29.4634 30.9038 28.9838 31.3514 28.5042C31.7511 29.0637 32.1508 29.4474 32.5025 29.7991C33.7974 28.5202 36.4992 28.4562 37.97 28.3283C36.2594 26.9694 29.8807 28.1685 27.3068 24.5234C27.4666 24.2357 27.6585 23.9639 27.9782 23.6282C27.3387 24.0119 26.2196 25.003 25.5482 25.8024C25.7081 25.3867 25.8679 25.051 26.0438 24.7632C24.9887 22.7649 25.1645 20.223 25.3723 18.3205C25.6761 18.0967 25.9798 17.9049 26.3316 17.729C25.3883 17.9528 24.7009 18.2726 23.8056 18.8801C23.4699 16.3861 24.525 13.6683 25.3723 11.8138C24.9887 11.8778 24.7009 12.0217 24.3492 12.2455C24.7808 10.1832 25.5482 8.42461 27.051 6.79395C25.1325 8.42461 23.7417 10.5828 23.0542 13.0129C23.4699 12.805 23.6458 12.7411 23.9655 12.6611C23.9335 12.7091 23.8856 12.805 23.8536 12.853C23.2461 13.1727 22.8944 13.4445 22.3508 14.036C22.8784 13.7003 23.1981 13.5244 23.5498 13.3965C22.2069 15.7786 20.9919 18.3205 21.5675 22.0614C21.9352 21.6138 22.5107 21.1662 22.8144 21.0223L22.7825 21.2301C22.2069 21.7737 21.7433 22.4291 21.4236 23.1645C21.7913 22.6849 22.159 22.3013 22.6706 21.9815C22.5107 23.2924 22.5107 24.6513 22.7185 25.9782Z" fill="white"/>
<path d="M50.088 22.749C50.0241 23.1167 50.0081 23.4844 50.0241 23.868C50.7755 24.0599 51.6548 22.9088 52.0384 21.1982C52.3742 21.486 52.6939 21.7897 53.0616 22.2054C52.7898 21.518 52.55 21.1503 52.1184 20.6866C52.1344 20.6067 52.1823 20.4948 52.1823 20.3989C52.1823 20.3989 52.5021 20.6227 52.7419 20.9584C52.9337 20.4309 53.0776 19.2318 53.1575 17.5852C52.8698 18.1447 52.3582 18.5604 51.8626 18.8002C51.4309 21.0543 50.6796 22.3493 50.088 22.749ZM53.3014 12.6612C53.3014 12.1496 53.2694 11.7659 53.1415 11.3183C53.2694 11.3503 53.4453 11.4462 53.5412 11.4942C53.4613 10.423 53.5412 9.84752 53.1096 8.87231C53.0936 9.43186 53.0776 10.1513 52.7259 10.455C52.4381 10.7108 52.1344 10.9027 51.8466 11.0465C52.3422 11.4142 52.9337 11.9738 53.3014 12.6612ZM27.2907 22.0295C27.6264 21.7418 27.9621 21.5819 28.3458 21.454L28.4098 21.5659C27.7703 21.9816 27.3866 22.3493 26.8431 23.0527C27.4186 22.637 28.0261 22.2853 28.6816 21.9976C29.8646 23.6922 32.4225 25.0511 35.2522 25.4188C34.8685 24.6194 33.4137 23.6122 32.8861 22.8129C31.8949 21.3101 32.4864 19.5356 33.3337 18.4645C31.2874 19.3597 30.7439 19.9992 30.4721 21.3901C27.9941 18.976 27.6904 12.933 28.122 9.57574C26.7471 12.0537 25.644 13.8442 25.644 17.3454C26.0437 17.1695 26.4754 17.0097 26.955 16.9457C26.7152 18.2886 26.7631 20.4309 27.2907 22.0295Z" fill="#FFD300"/>
<path d="M34.2291 7.8811C35.0444 8.55255 35.4441 9.04815 37.1067 9.39986C37.3945 9.46381 37.7782 9.46381 38.1139 9.43183C37.4584 9.91144 36.5472 10.1193 35.604 10.2312C34.373 10.3751 32.4705 9.43184 31.0797 9.17604C30.5681 8.63249 30.4721 8.08893 30.712 7.72123C30.8079 7.56137 30.9518 7.20965 31.2715 6.9059C31.3354 6.9059 31.4154 6.9059 31.4793 6.9059C31.927 6.93788 32.3586 7.00182 32.7903 7.09774C33.2858 7.20965 33.8454 7.57735 34.2291 7.8811ZM35.556 13.0928C36.8509 13.1728 37.954 13.4925 38.8973 13.7323C39.0411 13.7643 39.201 13.8122 39.3449 13.8442C41.0395 14.3078 42.6542 14.8354 44.061 15.347C44.5886 15.6827 42.0787 15.0592 39.3609 14.3238C39.4088 14.5636 39.5367 14.7875 39.7765 14.9953C40.0323 15.2191 40.2082 15.4269 40.3521 15.6348C39.6167 15.4269 38.8653 15.2671 38.1139 15.1392C37.1707 14.9953 36.2594 14.9313 35.4281 15.0273C36.4992 15.0912 37.8421 15.2671 39.217 15.6188L39.2969 15.6348L39.3929 15.6507C41.1354 16.0025 42.7981 16.4021 44.2529 16.8338C44.7325 17.1056 42.9579 16.8338 40.6878 16.4181C40.8636 17.1215 40.7677 17.6491 42.0307 18.0328C43.5814 18.4964 45.9795 18.2566 46.9387 17.841C47.5781 17.5692 48.2496 16.9777 48.3615 16.7219C48.4095 16.6259 48.4414 16.546 48.4734 16.4661C47.5941 16.1943 47.8979 15.1551 46.9067 14.5476C46.2033 14.116 46.1873 13.6844 45.8196 12.9809C45.6437 12.6612 45.4359 12.3574 45.2121 12.0857C44.1889 10.8866 43.7733 10.7108 42.7661 10.8067C42.0946 10.8707 41.0395 11.1105 40.2402 12.1176C40.0004 12.0217 39.7446 11.9258 39.5048 11.8299C38.1938 11.3503 36.8669 11.0145 35.54 10.9826C36.8989 11.1584 37.8261 11.4462 39.5048 12.0537C41.2633 12.6292 42.91 13.2527 44.3328 13.8762C44.7964 14.2279 42.4463 13.5405 39.8245 12.6932C39.6327 12.9809 39.4728 13.3167 39.3769 13.6524C39.0092 13.5405 38.6415 13.4446 38.2578 13.3646C37.3625 13.1408 36.4353 13.0289 35.556 13.0928ZM40.7517 7.52939C40.6718 7.48143 40.6079 7.44946 40.5279 7.4015C40.5119 7.48143 40.4959 7.56137 40.464 7.62531C39.6966 7.67327 38.6734 6.60215 38.1778 6.1705C37.4584 5.51504 36.6911 5.35517 35.6199 5.25925C35.1243 5.29122 35.0444 5.13135 35.6519 4.97149C36.2754 4.87556 36.8989 4.89155 37.5064 5.03543C37.1227 4.71569 36.723 4.42793 36.2434 4.25207C35.8757 4.12418 35.4761 3.96431 35.0764 3.94832C34.8366 3.93234 34.5328 4.01227 34.277 4.09221C33.8294 4.23609 33.2858 4.47589 32.9341 4.66773C32.9501 5.16333 32.7583 5.64294 32.8382 6.13853C32.8702 6.39432 32.8222 6.57018 33.046 6.71406C33.1739 6.79399 33.3178 6.93788 33.4457 7.00182C33.5896 7.08176 33.8934 7.0338 34.1172 7.01781C34.6607 6.92189 35.0924 6.73005 35.556 6.69807C36.787 6.61814 37.954 6.79399 38.7534 7.35353C39.5367 7.94505 40.4959 8.55255 40.7358 8.68045C40.8317 8.72841 40.9436 8.84032 41.0875 8.82433C41.1834 8.77637 41.2633 8.71242 41.3592 8.66446C41.3592 8.6165 41.3592 8.56854 41.3592 8.53657C41.3752 8.29676 41.2473 7.7692 40.7517 7.52939ZM51.5429 6.55419C51.4949 6.28241 51.383 5.83478 51.2871 5.65892C51.0953 5.33918 50.8715 5.05142 50.6317 4.79563C50.184 4.52385 49.6245 4.31602 48.8571 4.09221C48.4894 3.99628 47.754 3.91635 47.6261 3.94832C47.4023 3.99628 47.2904 4.14017 47.2105 4.30003C47.0985 4.52385 47.5782 5.08339 47.9299 5.61096C48.2016 5.22728 48.5693 5.05142 49.2728 5.00346C49.7684 5.01945 49.7843 5.16333 49.4007 5.22728C49.1768 5.25925 48.7772 5.51504 48.5054 6.1705C48.3295 6.61814 48.3135 7.30557 47.6101 7.49742C47.5462 7.43347 47.4982 7.35353 47.4662 7.2736C47.3703 7.43347 47.1945 7.72123 47.3383 8.009L47.5142 8.16887C47.5781 8.20084 47.6421 8.23282 47.706 8.28078C47.6581 7.75321 48.3935 7.30557 48.6812 7.01781C49.3047 6.41031 50.184 6.61814 50.5837 6.76202C50.8715 6.87393 51.1113 7.12972 51.3671 7.24163C51.6069 7.28959 51.6069 7.01781 51.6548 6.9059C51.6548 6.79399 51.5589 6.6661 51.5429 6.55419ZM40.8477 30.2628C40.8317 30.6305 40.9915 31.0461 41.2154 31.4458C41.4552 31.8455 41.7749 32.1812 42.1586 32.2931C42.2385 32.5809 42.2545 32.8527 42.2385 33.1564C42.7661 33.2843 43.1338 33.1564 43.5974 32.9326C43.7093 33.1564 43.7413 33.4602 43.6933 33.8758C44.125 33.8439 44.4127 33.7639 44.7485 33.5081C44.7645 33.7 44.7485 34.0037 44.6845 34.2435C44.9083 33.9238 45.0043 33.7 45.0522 33.4122C45.1002 33.3962 45.1481 33.3802 45.1801 33.3642C45.2281 33.7 45.2441 34.0037 45.1481 34.5633C45.4839 33.9558 45.5958 33.62 45.6597 33.0605C45.7077 33.0285 45.7077 33.0445 45.7556 33.0125C45.8356 33.3163 45.9155 33.5881 45.8995 34.0197C46.8108 33.8439 47.2744 33.3802 47.6101 32.6129C47.754 32.7567 47.9458 32.9965 48.0737 33.2204C48.8411 32.8527 49.1449 31.9414 49.2888 31.3499C49.3687 31.0302 49.4326 30.4386 49.3687 30.2148C49.4486 30.2468 49.5286 30.2788 49.5925 30.3267C49.8963 29.6873 49.7364 28.792 50.1201 28.2484C50.4238 27.8168 50.2 27.3851 50.0561 26.8895C49.9282 29.5114 48.937 28.3603 48.6972 28.2324C47.818 27.7848 44.7485 27.8168 43.5015 28.1525C42.9899 28.2964 42.6062 28.3763 42.3185 28.6481C41.4232 29.4954 41.1354 29.1597 40.9756 28.3923C40.9596 28.1046 40.9116 27.8328 40.8477 27.561C40.8477 27.513 40.8317 27.4651 40.8317 27.4011C40.8317 27.4331 40.8317 27.4651 40.8317 27.497C40.8477 28.1685 40.0963 28.1845 40.0643 28.808C40.0643 28.9039 40.0643 29.0158 40.0963 29.1117C40.1762 29.3835 40.8796 29.8791 40.8477 30.2628Z" fill="white"/>
<path d="M37.8582 7.92888C37.6184 7.88092 37.4425 7.75302 37.4585 7.62513C37.4745 7.49723 37.6983 7.43329 37.9381 7.46526C38.1779 7.51322 38.3538 7.64112 38.3378 7.76901C38.3058 7.91289 38.098 7.97684 37.8582 7.92888ZM50.0083 7.38533C50.0402 7.49723 49.8963 7.64112 49.6885 7.70506C49.4807 7.76901 49.2729 7.72105 49.2409 7.60914C49.2089 7.49723 49.3528 7.35335 49.5606 7.2894C49.7844 7.24144 49.9763 7.27342 50.0083 7.38533ZM51.9906 9.79935C52.0706 9.52757 52.2784 9.20783 52.3104 8.95204C52.3423 8.68027 52.2145 8.23263 52.0866 7.76901C51.4631 7.62513 51.3032 7.80099 51.0794 8.08875C50.6317 8.64829 50.5518 8.77619 50.0402 9.03198C49.6725 9.22382 49.3208 9.20783 48.9851 9.14389C49.4167 9.51159 49.9603 9.75139 50.4719 9.81534C50.9835 9.8633 51.527 10.0551 51.9906 9.79935Z" fill="white"/>
<path d="M52.3263 6.98582C52.3263 7.28957 52.6141 7.64129 52.5022 7.78517C52.4063 7.81714 52.2304 7.80116 52.0705 7.76918C52.1984 8.2328 52.3103 8.68044 52.2943 8.95221C52.2624 9.208 52.0545 9.52774 51.9746 9.79952L51.9906 9.78353C52.0545 9.73557 52.1185 9.68761 52.1824 9.62366C52.742 9.01616 52.9818 8.71241 52.9019 8.04096C52.8539 7.8651 53.3175 8.08892 53.6532 8.64846C53.3495 8.00899 53.0457 7.44944 52.758 6.98582L52.4862 6.55418C52.3743 6.47424 52.3263 6.76201 52.3263 6.98582Z" fill="#FFD300"/>
<path d="M42.9261 27.1453C42.3665 27.4651 42.5264 27.0014 42.3985 26.6817C42.1747 26.1222 41.743 25.6425 41.6471 24.4116C41.5832 23.884 41.5512 23.0047 42.0947 22.8288C42.958 22.5731 44.221 23.4044 44.9564 23.4044C45.6758 23.4044 46.3952 22.653 47.1146 22.7969C47.6102 22.8928 47.8021 23.5003 47.946 24.0918C48.1218 24.7473 48.0579 25.2109 48.1218 25.6585C48.1698 25.9463 48.2017 26.0422 48.2977 26.1701L48.1058 26.4099C48.0898 26.3939 48.1058 26.3939 48.1058 26.4099C48.0419 26.346 47.946 26.314 47.85 26.314C47.7541 26.314 47.6422 26.362 47.5783 26.4259C47.5143 26.4899 47.4663 26.5538 47.4344 26.6177C47.3864 26.5858 47.3384 26.5858 47.2745 26.5858C47.1786 26.5858 47.0986 26.6177 47.0347 26.6817C46.9707 26.6337 46.9068 26.6177 46.8269 26.6177C46.7469 26.6177 46.667 26.6497 46.603 26.6977C46.5391 26.6497 46.4592 26.6177 46.3792 26.6177C46.2993 26.6177 46.2354 26.6337 46.1714 26.6817C46.1075 26.6177 46.0275 26.5858 45.9316 26.5858C45.8677 26.5858 45.8197 26.6018 45.7557 26.6337C45.7078 26.5538 45.6438 26.4898 45.5799 26.4099C45.5159 26.346 45.42 26.298 45.3241 26.298C45.2282 26.298 45.1163 26.346 45.0523 26.4099C45.0203 26.4419 44.9884 26.4739 44.9724 26.5058C44.7805 25.9143 44.6846 25.4827 44.5727 25.067C44.5407 24.9231 44.5088 24.7793 44.4608 24.6354C44.3809 24.2837 44.253 23.9639 43.9332 23.9639C43.5655 23.9639 43.4376 24.3956 43.3577 24.6514C43.1499 25.3228 42.974 26.4579 42.9261 27.1453Z" fill="#D52B1E"/>
<path d="M47.7542 26.5857C47.8022 26.5378 47.8501 26.5378 47.8981 26.5697C48.1059 26.7616 48.1699 26.9694 48.1699 27.1133C48.1699 27.1932 47.978 27.2572 47.8501 27.2572C47.7222 27.2572 47.5464 27.1932 47.5464 27.1293C47.5304 27.0174 47.6263 26.7136 47.7542 26.5857ZM45.6279 27.1293C45.6279 27.2092 45.4361 27.2732 45.3082 27.2732C45.1803 27.2732 45.0045 27.2092 45.0045 27.1453C45.0045 27.0174 45.1004 26.7136 45.2283 26.6017C45.2762 26.5537 45.3402 26.5537 45.3722 26.5857C45.516 26.7136 45.612 26.9214 45.6279 27.1293ZM46.1076 27.1772C46.1076 27.2252 45.9797 27.2732 45.9157 27.2732C45.8358 27.2732 45.7239 27.2252 45.7239 27.1932C45.7399 27.0653 45.7878 26.9534 45.8678 26.8575C45.8997 26.8255 45.9317 26.8255 45.9637 26.8415C46.0756 26.9694 46.1076 27.0973 46.1076 27.1772ZM46.3953 26.8735C46.5232 27.0014 46.5552 27.1293 46.5552 27.2092C46.5552 27.2572 46.4273 27.2891 46.3633 27.2891C46.2834 27.2891 46.1715 27.2412 46.1715 27.2092C46.1875 27.0813 46.2354 26.9694 46.3154 26.8735C46.3474 26.8575 46.3793 26.8575 46.3953 26.8735ZM47.0028 27.2252C47.0028 27.2732 46.8749 27.3051 46.795 27.3051C46.7151 27.3051 46.6031 27.2572 46.6031 27.2252C46.6031 27.1453 46.6671 26.9694 46.747 26.8895C46.779 26.8575 46.811 26.8575 46.827 26.8895C46.9708 27.0014 47.0028 27.1293 47.0028 27.2252ZM47.4664 27.1772C47.4664 27.2252 47.3385 27.2732 47.2586 27.2732C47.1787 27.2732 47.0668 27.2252 47.0668 27.1932C47.0828 27.0653 47.1307 26.9534 47.2107 26.8575C47.2426 26.8255 47.2746 26.8255 47.3066 26.8415C47.4185 26.9694 47.4505 27.0973 47.4664 27.1772ZM48.0899 18.6402C48.0899 18.5923 48.2178 18.5443 48.3137 18.5443C48.4097 18.5443 48.5376 18.5923 48.5536 18.6562C48.5376 18.8001 48.4736 18.944 48.3617 19.0559C48.3297 19.0879 48.2978 19.0879 48.2498 19.0399C48.1699 18.912 48.1059 18.7841 48.0899 18.6402ZM49.0012 18.5443C49.1451 18.5443 49.3689 18.6242 49.3849 18.7042C49.3849 18.864 49.3049 19.1038 49.0811 19.3436C49.0332 19.3916 48.9692 19.3756 48.9212 19.3277C48.7774 19.1838 48.6655 18.8321 48.6655 18.6882C48.6335 18.6242 48.8573 18.5443 49.0012 18.5443ZM48.2498 26.9854C48.8573 25.9303 49.0651 25.3228 49.3049 24.7153C49.4808 24.2516 49.6566 24.1397 49.7046 24.8751C49.7526 25.4506 49.7686 26.1061 49.5447 26.9854C49.4648 27.1932 49.0491 27.3211 48.8253 27.3211C48.6015 27.3211 48.1699 27.1612 48.2498 26.9854ZM44.8126 26.9854C44.8606 27.2092 44.4129 27.3371 44.2051 27.3371C43.9973 27.3371 43.4857 27.2412 43.4537 27.0493C43.4377 25.8983 43.5656 25.2588 43.6935 24.7153C43.8214 24.0918 44.0133 24.0598 44.1891 24.6993C44.349 25.3707 44.4609 25.9462 44.8126 26.9854ZM51.2873 19.0559C51.0795 19.9352 50.7438 20.7985 50.2801 21.5658C49.7526 22.4451 49.5927 22.3012 49.6407 21.7577C49.7046 21.0383 49.8325 20.3029 49.6886 19.0399C49.6886 18.8161 50.1842 18.6082 50.488 18.6082C50.7917 18.6082 51.3193 18.8161 51.2873 19.0559ZM47.5783 18.5923C47.5783 18.5443 47.7062 18.4963 47.8022 18.4963C47.8981 18.4963 48.026 18.5443 48.042 18.6082C48.026 18.7521 47.962 18.896 47.8501 19.0079C47.8182 19.0399 47.7862 19.0399 47.7542 18.9919C47.6423 18.88 47.5783 18.7361 47.5783 18.5923ZM47.0508 18.5923C47.0508 18.5443 47.1787 18.4963 47.2746 18.4963C47.3705 18.4963 47.5144 18.5443 47.5144 18.6082C47.4984 18.7521 47.4345 18.896 47.3226 19.0079C47.2906 19.0399 47.2586 19.0399 47.2107 18.9919C47.1147 18.88 47.0668 18.7361 47.0508 18.5923ZM46.5232 18.6402C46.5232 18.5923 46.6511 18.5443 46.747 18.5443C46.843 18.5443 46.9868 18.5923 46.9868 18.6562C46.9708 18.8001 46.9069 18.944 46.795 19.0559C46.763 19.0879 46.731 19.0879 46.6991 19.0399C46.5872 18.912 46.5392 18.7841 46.5232 18.6402ZM45.6759 18.7042C45.6759 18.6242 45.8837 18.5443 46.0436 18.5443C46.1875 18.5443 46.4113 18.6242 46.4273 18.7042C46.4273 18.864 46.3474 19.1038 46.1235 19.3436C46.0756 19.3916 46.0116 19.3756 45.9637 19.3277C45.7878 19.1998 45.6759 18.8481 45.6759 18.7042ZM43.4058 19.0079C43.4058 18.7681 44.0612 18.6082 44.349 18.6082C44.6368 18.6082 45.2283 18.8001 45.1963 19.0719C44.9085 20.3188 44.8766 21.0223 44.7646 21.8376C44.6687 22.621 44.381 22.589 44.0932 21.8216C43.8534 21.1662 43.5976 20.3988 43.4058 19.0079Z" fill="white"/>
<path d="M57.5058 36.7695C58.3372 37.5209 59.9998 38.9598 60.5434 39.887C60.6553 40.0788 60.6073 39.9989 60.6073 39.9989C60.7991 39.1836 60.9111 38.2084 61.0709 37.393C60.0637 36.3219 58.9766 34.947 58.497 34.0837C57.5538 32.4371 57.1222 31.0622 55.7633 29.7033C55.5235 29.4635 55.1238 29.0958 54.7401 28.6482C54.4683 29.0479 54.2125 29.3676 53.7969 29.7833C53.8129 29.9591 53.8608 30.5027 53.8768 30.8064C53.9567 33.4283 55.5714 35.043 57.5058 36.7695ZM61.4546 35.1709C61.5345 34.6273 61.6305 34.0358 61.6944 33.4922C60.5434 32.9167 59.0246 31.6697 57.8096 30.5986C58.4171 31.7656 60.1597 33.9559 61.4546 35.1709Z" fill="#FFD300"/>
<path d="M55.316 27.5609C56.4511 25.8503 56.3552 22.7648 56.0195 20.3828C56.2593 20.5107 56.4991 20.6706 56.7389 20.8944C56.547 20.4947 56.2753 20.127 55.9235 19.8392C55.9076 19.7593 55.8916 19.6474 55.8756 19.5515C56.0834 19.6954 56.2433 19.8232 56.3872 19.9831C56.563 17.9048 56.4991 16.2901 55.8276 14.4197C55.8276 14.4197 56.0355 14.3877 56.2273 14.4676C56.1793 14.3397 56.1154 14.1319 56.0355 13.9081C55.7317 14.068 55.4279 14.2118 55.0762 14.3397C55.1402 14.6914 55.2041 15.0591 55.2521 15.4109C54.6606 15.4109 54.0211 15.5547 53.3497 15.7786V15.6986C53.3656 15.3949 53.3497 15.1231 53.3497 14.8833C52.0867 15.283 50.9676 15.5547 51.2554 15.2989C51.7669 15.0432 52.3265 14.8193 52.902 14.5955C52.934 14.5795 52.982 14.5636 53.0139 14.5476C53.1098 14.5156 53.2058 14.4836 53.2857 14.4516C54.2769 14.0999 55.3001 13.8601 56.3232 13.7003C56.1953 13.6683 56.0674 13.6683 55.9235 13.6523C55.7797 13.2686 55.6198 12.821 55.4439 12.3733C55.1881 12.5172 54.9324 12.6611 54.6766 12.789C54.7565 13.0768 54.8524 13.3965 54.9324 13.7322C54.3568 13.8601 53.7973 14.052 53.2537 14.2918C53.2058 14.02 53.1098 13.7642 52.9979 13.5244C52.0707 13.8921 51.3833 14.0999 51.5911 13.8761C53.0299 13.0448 54.2129 12.4213 55.9395 11.9737C55.9715 11.9577 56.0195 11.9577 56.0514 11.9417C55.7956 11.9257 55.5399 11.9417 55.3001 11.9737L55.1242 11.542C55.1082 11.4941 54.9803 11.1903 54.9643 11.1264L55.1242 11.1424C54.3728 9.04807 53.2218 6.93779 51.6071 5.30713C52.1666 6.05851 52.3265 6.34628 52.7102 6.93779C53.4935 8.1528 54.4208 10.1991 54.8844 12.0536C54.181 12.2614 53.5095 12.6451 52.7741 13.1087C52.7262 13.0128 52.6622 12.9329 52.6143 12.837C52.4864 12.6291 52.0227 12.2455 51.671 12.0536C51.7989 12.3094 51.8469 12.6931 51.703 13.1247C51.4632 13.9081 51.0955 14.3557 50.6479 14.8833C50.2642 15.3469 49.8165 16.3861 48.9692 16.466C48.9692 16.5459 48.9692 16.6259 48.9692 16.6738C48.9692 17.1854 49.5448 17.8728 49.8645 18.0167C50.472 18.3045 50.5839 18.3205 51.3193 18.1606C52.0387 18.0007 52.4544 17.5211 52.6942 17.2174C52.886 16.9776 53.0619 16.7058 53.1738 16.402C51.8789 16.7378 50.7118 16.9616 51.0156 16.7058C51.6071 16.45 52.2146 16.2422 52.8381 16.0503C53.8772 15.7466 54.9803 15.5228 56.0355 15.4428C55.7956 15.5707 55.5558 15.6826 55.2841 15.7786C55.348 16.498 55.348 17.1694 55.2681 17.729C55.5239 17.9528 55.7157 18.2246 55.9555 18.6242C55.7797 18.4803 55.6038 18.3525 55.428 18.2246C54.8204 17.7769 54.3888 17.5691 53.7014 17.4412C54.0851 17.6171 54.4208 17.8569 54.7245 18.1126C54.6766 19.9352 54.4368 22.525 53.8452 23.836C53.6534 23.5482 53.3976 23.3084 53.1098 23.1166C53.1098 23.1485 53.0619 23.2285 53.0459 23.2604C53.4935 23.788 53.7333 24.1717 54.0051 24.9071C53.5735 24.4115 53.2218 24.0438 52.902 23.74C52.2625 25.5466 51.4152 25.9143 50.7118 25.9622C50.7118 25.9622 51.3833 27.3531 50.7758 28.712C50.7278 28.8399 50.6958 28.9837 50.6958 29.1116C50.8717 29.4793 50.8237 29.7032 50.9676 30.1348C52.1027 29.6712 53.4136 28.2963 54.197 27.2092C54.5327 27.513 54.8684 27.8487 55.3001 28.3443C55.0443 27.6888 54.8204 27.3051 54.4368 26.8575C54.4847 26.7935 54.5167 26.7776 54.5487 26.7136C54.8844 27.0174 55.0602 27.1932 55.316 27.5609Z" fill="white"/>
<path d="M43.8539 6.17057C43.0705 5.37122 42.1113 4.82767 40.2249 4.52392C41.248 4.34806 42.6709 4.57188 43.3583 4.98754C44.0937 4.41201 44.8451 4.26813 45.7403 4.39602C44.877 4.65181 43.678 5.35524 43.8539 6.17057ZM36.8196 2.65345C38.4663 2.33371 40.7364 2.57351 41.5518 3.197C42.1912 2.74937 43.3263 2.44562 45.2288 2.76536C43.6461 2.87726 43.1984 2.97319 42.8307 3.24496C43.2943 3.13306 43.8059 3.11707 44.7012 3.3249C43.6461 3.40483 42.3511 3.6926 42.3511 4.28411C41.6477 3.77253 40.1449 3.34088 38.786 3.34088C39.4735 3.13306 39.985 3.14904 40.4007 3.24496C39.5534 2.86128 38.818 2.68542 36.8196 2.65345ZM49.4973 12.7732C49.9129 12.7892 50.5524 12.7732 50.9361 12.5973C50.9521 12.8691 49.9289 13.3327 49.7211 13.3487C49.4813 13.3647 49.2095 13.1728 48.9857 13.1249C48.7139 13.0609 48.4581 12.997 48.1863 12.949C48.0265 12.933 47.8186 12.8531 47.8026 12.6453C48.3622 12.6772 48.9217 12.7572 49.4973 12.7732ZM35.8284 12.2296C35.173 12.7092 34.1658 13.1089 33.2066 12.917C33.0787 13.3167 33.1267 14.0201 33.4304 14.8355C31.7997 14.1161 30.8086 12.8851 30.6966 11.9738C31.7678 11.4622 33.99 12.1976 35.8284 12.2296ZM55.8121 4.68379C54.725 4.81168 53.51 4.69977 52.5508 4.17221C53.3661 4.20418 53.9736 4.0603 55.4444 3.61266C54.9968 3.64464 50.4885 3.78852 47.8666 3.11707C46.7155 2.60549 42.9906 1.13469 40.7524 2.3497C37.0914 1.15068 32.4712 2.39766 31.1123 3.40483C28.6503 3.40483 26.0604 3.22898 24.5897 2.74937C25.7887 3.58069 26.7319 3.72457 27.4353 3.86845C25.6288 3.94839 24.3339 3.67661 22.3994 3.26095C23.0389 3.88444 23.5025 4.14023 24.4777 4.428C23.9022 4.47596 23.3267 4.44398 22.7032 4.33207C23.4386 4.93958 25.325 5.94675 26.9078 5.24333C27.3714 5.0355 28.8422 4.26813 30.0891 4.12424C29.4017 4.49194 28.3146 5.46714 27.6911 6.18656C27.6751 6.21853 27.6432 6.2505 27.6272 6.29846C28.2027 5.89879 28.8582 5.57905 29.5296 5.45116C28.5384 6.18656 28.1068 6.95393 28.0588 7.75327C28.4105 7.38557 28.6663 7.00189 29.066 6.87399C29.1619 6.84202 29.2418 6.93794 29.3218 7.1138C29.4657 7.32163 29.5616 7.78525 29.7534 8.21689C29.9613 8.64854 30.249 9.03223 30.7126 9.08019C30.8245 9.09617 30.9365 9.11216 31.0484 9.12815C30.5368 8.58459 30.4409 8.04104 30.6807 7.67334C30.7766 7.51347 30.9205 7.16176 31.2402 6.85801C31.0324 6.85801 30.8405 6.85801 30.7126 6.68215C30.6007 6.52228 30.5368 6.34643 30.4888 6.17057C30.4409 5.99471 30.265 5.67497 30.313 5.51511C30.7446 5.51511 31.1603 5.643 31.5759 5.51511C32.2314 5.32326 32.0555 4.6678 32.8389 4.12424C32.9028 4.28411 32.9188 4.44398 32.9348 4.60385C33.2705 4.41201 33.8141 4.1722 34.2777 4.02832C34.5335 3.94839 34.8373 3.86845 35.0771 3.88444C35.4608 3.90043 35.8764 4.0603 36.2441 4.18819C36.7237 4.36405 37.1234 4.65181 37.5071 4.97155C38.6262 5.24333 39.4575 5.96274 40.2568 6.7461C40.4487 6.93794 40.5446 7.09781 40.5126 7.3536C40.5926 7.40156 40.6565 7.44952 40.7364 7.4815C41.216 7.7213 41.3439 8.24887 41.3439 8.48867C41.3439 8.53663 41.3439 8.58459 41.3439 8.61657C42.5749 7.91314 43.5981 7.49748 44.8611 8.05702C43.694 7.9611 42.5589 8.56861 41.5997 9.36795C40.9603 9.91151 39.6493 11.0945 38.6741 11.1425C38.5782 10.7109 38.7381 10.503 39.0418 10.1993C39.4575 9.87953 39.8731 9.55979 40.2888 9.27203C40.049 9.22407 39.7932 9.22407 39.5374 9.25604C39.1857 9.73565 38.6581 10.0074 38.3384 10.1673C37.1873 10.6949 36.5958 10.9347 34.4056 10.7588C33.0148 10.6469 31.9916 10.8707 31.2722 10.8707C30.5368 10.8707 30.1691 10.7109 29.7534 10.3432C29.3378 9.97545 29.1459 9.44789 28.9381 8.8244C28.8901 10.6789 29.4177 15.2991 31.3201 16.3542C31.6239 16.1464 32.2154 15.9865 32.711 15.9865C31.9596 16.3382 31.1603 17.0577 30.7126 17.9369C32.4392 16.4342 33.7661 16.0505 35.9244 16.0505C35.0291 17.5852 34.8373 18.8962 34.8692 20.1911C34.8852 21.0064 34.9971 21.6299 35.173 22.1415C35.5087 23.2126 36.0842 24.3157 36.8037 25.131C36.6278 24.7314 36.4839 24.3477 36.356 23.948C36.8676 24.4916 37.4751 25.0511 38.1146 25.9304C38.9299 27.0495 39.4895 27.2094 40.065 28.7601C40.1129 28.1366 40.8483 28.1206 40.8324 27.4492C40.7204 27.0175 40.5446 26.5859 40.2249 25.9784C39.6333 24.8113 37.619 20.7826 37.5391 18.3206C37.5071 17.4733 38.0666 16.9777 38.2585 16.61C38.3704 16.3862 38.4023 16.1304 38.3384 15.8906C37.2992 15.6508 36.1322 15.2991 35.3808 14.9794C36.2121 14.8834 37.1394 14.9474 38.0666 15.0913C37.9547 14.7555 37.8908 14.3878 37.9867 13.9562L38.0027 13.9082C37.1554 13.6524 36.324 13.3647 35.5087 13.0449C36.388 12.997 37.3152 13.1089 38.2265 13.3007C38.4023 12.981 38.6262 12.6613 38.9139 12.3415C37.3632 11.798 36.2121 11.2864 35.4927 10.9347C36.8036 10.9666 38.1466 11.3024 39.4575 11.782C39.7452 11.4942 40.097 11.2064 40.4806 10.9187C40.8164 10.6469 41.1841 10.2792 41.5358 10.0394C42.5909 9.304 44.0297 8.37676 45.2767 9.16012C45.0689 9.17611 44.8611 9.1921 44.6372 9.20808C43.9018 9.28802 44.3335 10.3432 45.1648 11.1905C45.6124 11.6541 46.0441 12.3095 46.5557 13.0449C46.8914 13.5246 46.9394 13.6844 47.3071 13.7963C47.9465 13.9882 48.65 14.3079 48.4901 14.6916C48.3782 14.9794 47.9146 14.8515 48.0105 15.2032C48.2183 15.9386 48.7459 16.0825 49.1935 16.0025L49.4173 15.9386C49.4813 15.9066 49.5452 15.8906 49.6092 15.8427C49.833 15.6988 49.9129 15.475 50.1527 15.1073C50.2486 14.8834 50.0888 14.8994 50.0888 14.7076C50.0888 14.5797 50.3446 14.2599 50.6803 13.9882C51.096 13.6365 51.3517 12.933 51.3517 12.6453C51.3517 12.2616 51.3677 12.0058 51.1919 11.75C50.5524 10.8387 48.8418 9.81559 48.634 9.65572C48.0584 9.22407 47.5149 9.16012 46.8914 9.11216C47.2111 8.8244 47.4829 8.84038 47.7227 8.92032C47.5309 8.72848 47.435 8.63255 47.2911 8.53663C46.7635 8.18492 46.172 8.05703 45.4366 8.00906C46.2519 7.62538 46.7155 7.65735 47.419 8.12097L47.2431 7.9611C47.0992 7.67334 47.2751 7.38557 47.371 7.22571C47.2751 7.03386 47.2751 6.81005 47.339 6.6182C47.5149 6.15458 47.6588 5.80287 47.8346 5.56307C47.4829 5.0355 47.0033 4.47596 47.1152 4.25214C47.1951 4.10826 47.3071 3.94839 47.5309 3.91641C47.6748 3.88444 48.4102 3.96437 48.7619 4.0603C49.5452 4.28411 50.1048 4.47596 50.5364 4.76372C50.4884 4.71576 50.4245 4.6678 50.3765 4.61984C49.9449 4.28411 49.4173 3.9324 48.7779 3.58069C49.5772 3.9324 50.5204 4.36405 51.064 4.63582C52.1191 5.16339 52.9344 5.97873 54.757 5.86682C54.2773 5.7709 53.526 5.41918 52.8066 4.9076C53.2062 4.92359 54.1495 5.19537 55.8121 4.68379ZM27.0996 32.581C26.6679 32.1013 26.2683 31.5898 25.9166 31.0462C25.0213 32.6129 23.7903 34.8351 23.1508 37.2172C23.5985 36.4178 24.142 35.5705 24.142 35.5705C23.6624 37.0893 23.1508 39.0716 22.8311 41.4217C22.5273 43.7558 22.4314 46.7933 22.7352 49.8628C22.7831 50.2785 22.8471 50.838 22.943 51.5414C21.8239 49.8468 20.8647 48.0403 20.0813 46.1698C18.5626 42.5408 16.0846 35.5385 16.0846 29.6873C15.637 22.3653 16.4203 16.3063 17.4275 10.8068C16.9319 10.9187 16.4683 11.0466 16.0526 11.1425C12.5835 26.6178 14.8536 40.6224 22.1437 51.0458C23.3427 52.7724 25.2131 54.9946 26.4601 56.0657C23.3107 49.1114 23.3107 39.2795 27.0996 32.581Z" fill="#FFD300"/>
<path d="M54.9483 9.63947C55.7797 8.71223 56.611 7.22545 56.9627 4.57162C57.1226 3.42056 56.4032 2.95694 55.1562 2.95694C52.1027 2.95694 50.2482 2.79707 47.8182 2.44536C43.7415 -0.0485971 39.7288 1.43819 39.7288 1.43819C34.8208 0.127259 30.4244 2.38141 30.4244 2.38141C28.1383 2.3974 25.5324 2.26951 23.7579 2.01372C22.9585 1.88582 22.4469 1.77391 21.7755 1.86983C20.6404 2.0297 20.5605 5.62676 21.9354 7.73703C22.2231 8.24861 22.8946 9.03197 23.582 9.7354C21.9993 9.94323 20.4166 10.215 18.8499 10.5347C17.555 16.9455 17.1713 22.445 17.1713 27.0173C17.1713 35.2985 19.0257 44.2671 22.9585 51.5732C21.8394 49.8785 20.8802 48.072 20.0969 46.2016C18.5781 42.5725 16.1001 35.5703 16.1001 29.719C15.6525 22.397 16.4359 16.338 17.443 10.8385C14.1657 11.6059 12.7749 12.2933 12.7749 12.2933C10.201 23.1005 11.2881 33.0763 15.013 41.5014C10.6646 33.0763 9.25774 22.8607 12.0395 11.462C12.0395 11.462 15.045 10.0072 22.6068 8.96802C22.0633 8.3925 21.5837 7.769 21.168 7.11354C19.6333 4.77945 19.985 1.21437 21.168 1.03851C21.8714 0.942591 22.383 1.00654 23.2143 1.13444C25.0368 1.39023 27.1951 1.69398 29.5611 1.67799C29.5611 1.67799 33.8776 -0.799982 39.473 0.59088C39.473 0.59088 43.7575 -1.08775 48.1059 1.82187C50.6159 2.17358 52.5023 2.06168 55.6678 2.06168C56.9627 2.06168 57.778 2.65319 57.6981 3.82024C57.5702 5.83459 56.7868 7.48124 55.7317 8.85611C63.8531 9.89526 67.0504 11.446 67.0504 11.446C69.8322 22.8447 68.4413 33.0763 64.0769 41.4854C67.8018 33.0603 68.8889 23.0845 66.315 12.2773C66.315 12.2773 64.9242 11.5899 61.6469 10.8225C62.6381 16.322 63.4374 22.381 62.9898 29.7031C62.9898 35.5383 60.5278 42.5406 59.009 46.1856C58.2257 48.056 57.2664 49.8626 56.1474 51.5572C60.0642 44.2512 61.9186 35.2825 61.9186 27.0013C61.9186 22.429 61.535 16.9295 60.24 10.5188" fill="white"/>
<path d="M63.0539 11.1582C62.6062 11.0303 62.1426 10.9184 61.695 10.8225C62.6862 16.322 63.4695 22.3811 63.0379 29.7031C63.0379 35.4424 60.6718 42.2848 59.1371 45.9777L59.0571 46.1856C57.954 48.7914 58.1139 47.8642 59.169 44.8107C59.153 44.2991 58.9452 43.6596 58.8333 43.3079C58.2578 41.6133 57.3305 40.0626 56.0995 38.7676C55.6679 38.32 55.2203 37.9043 54.7566 37.5047C52.8862 35.906 51.879 35.0267 52.0868 32.245L52.1028 32.0531C52.1348 31.7014 52.2147 31.3977 52.3266 31.1419C51.7351 31.5895 51.0797 31.9892 50.4242 32.2929C50.3602 32.5807 50.1045 33.476 49.5769 34.0995C50.1684 36.0978 51.6712 38.2081 52.4545 39.1513C52.0389 38.32 51.927 37.8244 51.5912 36.9132C52.8062 38.4799 54.2291 40.6861 54.357 42.9722C53.5896 42.1729 52.7903 41.5014 52.2307 41.2136C53.2858 43.5957 53.1739 45.1304 52.5185 47.4166C51.2075 51.9888 48.9374 52.7082 46.0917 57.6002C46.7472 56.8808 47.3387 56.3373 48.0102 55.9216C46.6673 57.4084 45.4043 59.8064 45.4043 62.0766C46.5554 61.2932 47.6904 60.5098 48.8095 59.6785C50.4242 58.3676 51.9429 56.9607 53.3818 55.458C54.5488 54.2749 56.0196 52.5164 56.9948 51.0935C64.2529 40.6541 66.523 26.6496 63.0539 11.1582Z" fill="#FFD300"/>
<path d="M61.6948 10.8228C62.686 16.3223 63.4853 22.3813 63.0377 29.7033C63.0377 35.5386 60.5757 42.5408 59.057 46.1859C58.2736 48.0563 57.3144 49.8628 56.1953 51.5575C60.1121 44.2514 61.9666 35.2828 61.9666 27.0016C61.9666 22.4293 61.5829 16.9298 60.288 10.519L61.6948 10.8228Z" fill="white"/>
<path d="M30.4243 77.5358C30.5522 77.5358 30.808 77.5518 30.9838 77.5518H31.7352C31.8791 77.5518 32.0869 77.5518 32.2148 77.5358L32.2308 77.5518C32.1988 77.6637 32.1828 77.9195 32.1668 78.1273C32.1509 78.1433 32.0709 78.1433 32.0549 78.1433C32.0389 78.0314 32.023 77.9354 31.975 77.8395C31.943 77.7756 31.8791 77.7436 31.8311 77.7436C31.6553 77.7276 31.4794 77.7276 31.3036 77.7436C31.2876 77.7436 31.2716 77.7916 31.2716 77.8076C31.2716 78.0634 31.2716 78.3351 31.2716 78.5909C31.2716 78.6069 31.2876 78.6229 31.2876 78.6229C31.3835 78.6229 31.6872 78.6229 31.7991 78.6229C31.8791 78.6229 31.927 78.5749 31.959 78.463C31.975 78.4151 31.975 78.3831 31.991 78.3351C32.007 78.3191 32.0869 78.3191 32.1029 78.3351C32.1029 78.431 32.0869 78.5749 32.0869 78.7028C32.0869 78.7987 32.0869 78.9586 32.1029 79.0705C32.0869 79.0865 32.007 79.0865 31.991 79.0705C31.959 78.9586 31.959 78.9746 31.959 78.9266C31.943 78.8787 31.9111 78.8147 31.8151 78.8147C31.7512 78.8147 31.4314 78.8147 31.3036 78.8147C31.2876 78.8147 31.2876 78.8307 31.2876 78.8467V79.5821C31.2876 79.6461 31.3195 79.694 31.3675 79.71C31.4474 79.726 31.6233 79.726 31.8151 79.726C32.023 79.726 32.0709 79.71 32.1509 79.6301C32.2468 79.5182 32.3107 79.3903 32.3587 79.2624C32.3907 79.2624 32.4386 79.2784 32.4706 79.2943C32.4386 79.4862 32.3747 79.678 32.3107 79.8539C32.2947 79.9018 32.2628 79.9178 32.1029 79.9178C31.7672 79.9178 31.3995 79.9018 31.0318 79.9018C30.8239 79.9018 30.5682 79.9178 30.3603 79.9178C30.3443 79.8859 30.3443 79.8539 30.3603 79.8059C30.4882 79.7899 30.5841 79.7739 30.6321 79.758C30.712 79.742 30.744 79.694 30.744 79.5661C30.76 79.3423 30.76 79.0226 30.76 78.6069C30.76 78.3191 30.76 77.9994 30.744 77.8715C30.744 77.7596 30.728 77.7276 30.6321 77.7116C30.5682 77.6956 30.5042 77.6797 30.4403 77.6797C30.4083 77.6317 30.4083 77.5518 30.4243 77.5358ZM33.6217 79.71C33.7176 79.7739 33.8615 79.8059 33.9734 79.8059C34.1652 79.8059 34.3091 79.694 34.3091 79.4862C34.3091 79.2943 34.2292 79.1664 33.8934 78.9586C33.5257 78.7188 33.3019 78.543 33.3019 78.1593C33.3019 77.7116 33.6696 77.4718 34.1173 77.4718C34.405 77.4718 34.5649 77.5198 34.7407 77.5358C34.7088 77.6797 34.6928 77.8555 34.6768 78.0953C34.6608 78.1113 34.5809 78.1113 34.5649 78.0953C34.5329 77.8715 34.4849 77.7436 34.389 77.6797C34.3091 77.6157 34.1972 77.5837 34.0853 77.5997C33.9094 77.5837 33.7496 77.7276 33.7496 77.9035C33.7496 77.9195 33.7496 77.9195 33.7496 77.9355C33.7496 78.0953 33.8295 78.2072 33.9894 78.3191C34.1492 78.431 34.2451 78.479 34.421 78.5909C34.6928 78.7668 34.8367 78.9426 34.8367 79.2144C34.8367 79.6301 34.5009 79.9338 33.9254 79.9338C33.7336 79.9338 33.5257 79.9018 33.3499 79.8059C33.3179 79.742 33.238 79.3423 33.238 79.2144C33.254 79.1984 33.3339 79.1824 33.3499 79.1824C33.3819 79.4702 33.4778 79.5981 33.6217 79.71ZM37.1867 79.8859C37.0429 79.8859 36.851 79.8699 36.5952 79.8699C36.2275 79.8699 36.0517 79.8859 35.9238 79.8859C35.9078 79.8699 35.9078 79.7899 35.9238 79.7739C36.0037 79.758 36.1156 79.758 36.1636 79.742C36.2595 79.726 36.2915 79.678 36.2915 79.5022C36.3075 79.1185 36.3075 78.3351 36.3075 77.7436L36.2915 77.7116C36.1636 77.6956 36.0357 77.6956 35.9078 77.7116C35.8119 77.7116 35.7639 77.7596 35.7159 77.8395C35.668 77.9354 35.604 78.0474 35.5721 78.1753C35.5561 78.1912 35.4602 78.1753 35.4602 78.1433C35.4921 77.9834 35.5241 77.6637 35.5241 77.5198C35.5241 77.5198 35.5401 77.4878 35.5561 77.5038C35.684 77.5518 35.8119 77.5518 35.9078 77.5518H37.2827C37.4745 77.5518 37.5864 77.5358 37.6983 77.5038C37.7143 77.5038 37.7143 77.5198 37.7303 77.5198C37.6983 77.6637 37.6504 77.9195 37.6344 78.1753C37.6184 78.1912 37.5225 78.1912 37.5225 78.1753C37.5065 78.0633 37.4745 77.9514 37.4425 77.8395C37.4106 77.7436 37.3626 77.7276 37.2827 77.7116C37.1388 77.7116 36.9949 77.7116 36.867 77.7116C36.867 77.7116 36.851 77.7276 36.851 77.7436C36.851 78.2872 36.851 79.2943 36.867 79.5501C36.867 79.646 36.899 79.71 36.9789 79.742C37.0429 79.758 37.0748 79.758 37.2027 79.7739C37.2027 79.7899 37.2027 79.8699 37.1867 79.8859ZM40.9597 79.8859C40.8158 79.8859 40.576 79.8699 40.3362 79.8699C40.0644 79.8699 39.9045 79.8859 39.7926 79.8859C39.7766 79.8699 39.7766 79.7899 39.7926 79.7739L39.9844 79.742C40.0964 79.71 40.1123 79.6141 40.1123 79.4862C40.1283 79.3263 40.1283 79.1025 40.1283 78.7348C40.1283 78.4151 40.1283 78.1273 40.1123 78.0314C40.1123 77.9674 40.0804 77.9035 40.0164 77.8875C39.9525 77.8715 39.9045 77.8715 39.8406 77.8555C39.8246 77.8395 39.8406 77.7596 39.8566 77.7436C40.1763 77.7276 40.4641 77.6317 40.6239 77.5518C40.6399 77.5518 40.6719 77.5678 40.6719 77.5678C40.6559 77.7276 40.6559 77.8555 40.6559 78.1753C40.6559 78.479 40.6559 79.1345 40.6719 79.4542C40.6719 79.5981 40.6879 79.694 40.7998 79.726C40.8797 79.742 40.9437 79.742 40.9916 79.758C40.9756 79.7899 40.9756 79.8699 40.9597 79.8859ZM42.2706 77.9994C42.2706 78.2072 42.3825 78.3191 42.7822 78.543H42.7981C42.8781 78.431 42.926 78.3031 42.926 78.1593C42.926 77.9035 42.7981 77.6957 42.5583 77.6957C42.3825 77.6957 42.2706 77.8395 42.2706 77.9994ZM42.926 79.4862C42.926 79.2784 42.7981 79.1345 42.3665 78.8787H42.3505C42.2386 78.9906 42.1906 79.1185 42.1747 79.2624C42.1747 79.5022 42.3665 79.7739 42.6223 79.7739C42.7981 79.7899 42.926 79.678 42.926 79.4862ZM43.2618 78.1433C43.2618 78.2872 43.1818 78.4311 42.8781 78.6069C42.8781 78.6229 42.8781 78.6229 42.8781 78.6229C43.1818 78.8147 43.3577 78.9746 43.3577 79.2464C43.3577 79.5821 43.0379 79.9178 42.5264 79.9178C41.9828 79.9178 41.775 79.5981 41.775 79.3423C41.775 79.1824 41.8869 79.0385 42.2386 78.8307V78.8147C42.0308 78.6709 41.8549 78.495 41.8549 78.2232C41.8549 78.0314 41.9508 77.8555 42.0947 77.7436C42.2386 77.6317 42.4304 77.5678 42.6063 77.5837C42.99 77.5837 43.2618 77.7916 43.2618 78.1433ZM44.6526 77.9994C44.6526 78.2072 44.7645 78.3191 45.1482 78.543H45.1642C45.2441 78.431 45.2921 78.3031 45.2921 78.1593C45.2921 77.9035 45.1642 77.6957 44.9244 77.6957C44.7645 77.6957 44.6526 77.8395 44.6526 77.9994ZM45.3081 79.4862C45.3081 79.2784 45.1802 79.1345 44.7486 78.8787H44.7326C44.6207 78.9906 44.5727 79.1185 44.5567 79.2624C44.5567 79.5022 44.7485 79.7739 45.0043 79.7739C45.1962 79.7899 45.3081 79.678 45.3081 79.4862ZM45.6438 78.1433C45.6438 78.2872 45.5639 78.4311 45.2601 78.6069C45.2601 78.6229 45.2601 78.6229 45.2601 78.6229C45.5639 78.8147 45.7397 78.9746 45.7397 79.2464C45.7397 79.5821 45.42 79.9178 44.9084 79.9178C44.3649 79.9178 44.157 79.5981 44.157 79.3423C44.157 79.1824 44.2689 79.0385 44.6207 78.8307V78.8147C44.4128 78.6709 44.237 78.495 44.237 78.2232C44.237 78.0314 44.3329 77.8555 44.4768 77.7436C44.6207 77.6317 44.8125 77.5678 44.9884 77.5837C45.372 77.5837 45.6438 77.7916 45.6438 78.1433ZM47.85 77.5997C47.818 77.7436 47.7541 77.8715 47.6582 77.9674C47.6102 78.0154 47.5463 78.0474 47.4663 78.0633C47.2105 78.0633 47.0507 78.0314 46.9867 78.0314C46.9867 78.0314 46.9547 78.0314 46.9547 78.0474C46.9228 78.1113 46.9068 78.1753 46.8748 78.2232C46.8748 78.2232 46.8908 78.2552 46.9068 78.2552C47.0187 78.3032 47.4503 78.479 47.6102 78.5749C47.85 78.7028 48.0099 78.8627 48.0099 79.1664C48.0099 79.678 47.4663 79.9978 47.0027 79.9978C46.8109 80.0137 46.635 79.9338 46.5071 79.8219C46.4751 79.7899 46.4432 79.742 46.4432 79.694C46.4432 79.6301 46.5071 79.5022 46.5551 79.4542C46.5711 79.4382 46.587 79.4382 46.603 79.4222C46.7629 79.6461 46.9867 79.8219 47.2585 79.8219C47.4503 79.8219 47.5782 79.678 47.5782 79.4862C47.5782 79.3263 47.5143 79.1505 47.2745 79.0066C47.0667 78.8787 46.6989 78.7188 46.603 78.6708C46.603 78.6549 46.587 78.5749 46.603 78.543C46.667 78.3191 46.8748 77.7916 46.9867 77.6477C47.0347 77.5997 47.0667 77.5837 47.0986 77.5837C47.1626 77.5837 47.3544 77.5997 47.5622 77.5997C47.6901 77.5997 47.7221 77.5837 47.7861 77.5358C47.818 77.5678 47.85 77.5837 47.85 77.5997ZM27.099 73.4911C26.8112 73.9547 26.4275 74.4183 26.1558 74.6421C25.82 74.9139 25.4843 74.9459 25.2125 74.9459C23.3421 74.9459 22.7186 73.2033 22.7186 71.9404C22.7186 70.0059 23.486 69.0947 24.669 69.0947C25.1326 69.0947 25.5483 69.1746 25.916 69.3825C26.3636 69.6382 26.4435 70.0059 26.5874 70.7253C26.6034 70.8053 27.099 70.7573 27.147 70.6614C27.147 70.0539 27.2429 69.0947 27.2908 68.711C26.8592 68.695 25.9959 68.5032 24.9088 68.5032C23.9815 68.5032 23.2621 68.663 22.6386 68.9668C21.3757 69.5583 20.7202 70.7573 20.7202 72.0363C20.7202 74.4823 22.2869 75.7133 24.8608 75.7133C25.6921 75.7133 26.1718 75.5374 26.5395 75.4255C26.8752 75.2337 27.3868 74.3064 27.5626 73.8268C27.4507 73.6669 27.2908 73.555 27.099 73.4911Z" fill="white"/>
<path d="M13.9898 71.9247C13.814 72.0206 13.2545 72.0526 12.7908 72.0526C12.7269 72.0526 12.7109 71.9886 12.7109 71.9406C12.7109 71.1253 12.7109 69.8783 12.7269 69.5266C12.7269 69.4787 12.7748 69.3987 12.8068 69.3508C12.8548 69.3188 13.0626 69.3028 13.1745 69.3028C13.9898 69.3028 14.5494 69.8464 14.5494 70.7896C14.5494 71.477 14.3096 71.7808 13.9898 71.9247ZM20.0329 74.8822C19.7451 74.7863 19.7132 74.5625 19.6972 74.3707C19.6812 73.939 19.6812 72.8039 19.6812 71.7808C19.6812 70.8216 19.6652 70.246 19.6972 69.8783C19.7132 69.6705 19.7132 69.4467 19.969 69.3668C20.1928 69.3028 20.4166 69.2708 20.6404 69.2389C20.7044 69.1749 20.6884 68.7752 20.6404 68.6953C20.3526 68.6953 19.969 68.7273 18.7699 68.7273C17.9386 68.7273 17.3791 68.6953 16.9954 68.6953C16.9314 68.7752 16.9314 69.1589 16.9794 69.2389C17.2192 69.2708 17.411 69.2868 17.6668 69.3668C17.8587 69.4307 17.9546 69.5746 17.9546 69.8144C17.9866 70.262 17.9866 70.6457 17.9866 71.8607C17.9866 72.4043 17.9866 74.0829 17.9546 74.3547C17.9226 74.7863 17.8587 74.8663 17.523 74.9462C17.443 74.9622 17.3471 74.9622 17.2672 74.9462C17.0114 74.8822 16.9155 74.7703 16.6597 74.5305C16.1641 74.0349 15.1729 72.772 14.9331 72.3083C14.9171 72.2764 14.9171 72.2284 14.9491 72.2124C15.7004 71.8927 16.276 71.3971 16.276 70.5018C16.276 69.5106 15.4606 68.6953 14.0058 68.6953C13.6221 68.6953 12.9507 68.7273 11.7837 68.7273C11.336 68.7273 10.3768 68.6953 10.089 68.6953C10.0091 68.7433 9.96115 69.1429 10.0411 69.2389C10.2969 69.2868 10.5527 69.3348 10.6806 69.3668C10.8884 69.4147 10.9683 69.5426 11.0003 69.7984C11.0323 70.1981 11.0323 70.9814 11.0323 72.0845C11.0323 72.7879 11.0163 74.0509 11.0003 74.4026C10.9843 74.7064 10.9044 74.8662 10.6646 74.9142C10.4727 74.9622 10.2809 74.9942 10.0731 75.0101C9.97713 75.0741 10.0251 75.5057 10.089 75.5537C10.4248 75.5537 11.0163 75.5217 11.9275 75.5217C12.8708 75.5217 13.4943 75.5537 13.6861 75.5537C13.766 75.5537 13.782 75.0261 13.7181 75.0101C13.4143 74.9622 13.3024 74.9622 13.0466 74.8822C12.8228 74.8183 12.7589 74.6424 12.7589 74.4026C12.7429 74.0509 12.7429 73.5233 12.7429 72.8359C12.7429 72.8199 12.7748 72.756 12.7908 72.756C12.8228 72.756 13.0146 72.756 13.1266 72.772C13.2864 72.788 13.3664 72.8039 13.4623 72.9318C13.83 73.5234 14.2456 74.2108 14.7093 74.8023C14.7732 74.9142 14.981 75.138 15.3008 75.3139C15.8603 75.6016 16.9954 75.5857 17.6349 75.5377C17.9386 75.5217 18.3223 75.5217 18.8818 75.5217C19.873 75.5217 20.3686 75.5377 20.7203 75.5537C20.8003 75.5057 20.8642 75.1061 20.8163 75.0101C20.5285 74.9782 20.1768 74.9142 20.0329 74.8822ZM45.2443 74.8663C44.9565 74.7863 44.8766 74.5465 44.8606 74.2747C44.7647 72.8199 44.7167 71.3811 44.7167 69.9263C44.7167 69.6865 44.7487 69.4787 45.0045 69.3827C45.1643 69.3348 45.4361 69.2868 45.7559 69.2229C45.8358 69.1589 45.8198 68.7113 45.7559 68.6793C45.1963 68.6793 44.7007 68.7113 43.0381 68.7113C43.0221 68.9191 42.9262 69.1589 42.8302 69.4147C42.3506 70.5178 41.8231 71.6209 41.2635 72.692C41.2475 72.708 41.2156 72.724 41.1676 72.692C40.624 71.6369 40.1125 70.5658 39.6329 69.4787C39.505 69.2389 39.425 68.9671 39.3771 68.6953C38.5298 68.6953 37.3148 68.6633 36.4355 68.6633C36.4035 68.6953 36.3555 69.1269 36.3875 69.2069C36.7552 69.2708 37.0909 69.3348 37.2828 69.4147C37.5066 69.5106 37.5865 69.7345 37.5705 69.9263C37.5386 70.7416 37.2988 73.3475 37.2029 74.2108C37.1549 74.6265 37.027 74.8023 36.7073 74.8982C36.5953 74.9302 36.3875 74.9622 36.2117 74.9941C36.0998 75.0101 35.9878 75.0101 35.8759 74.9941C35.5562 74.9462 35.3644 74.9142 35.2205 74.8503C35.0126 74.7543 34.9807 74.5305 34.9647 74.3387C34.9487 73.8271 34.9487 72.9158 34.9487 72.1645C34.9487 71.2372 34.9327 70.6777 34.9647 69.9583C34.9807 69.5906 35.0126 69.4467 35.2205 69.3668C35.3484 69.3028 35.6042 69.2548 35.844 69.2389C35.9239 69.1589 35.9239 68.7752 35.844 68.6953C35.4283 68.6953 35.0926 68.7273 34.1014 68.7273C33.1741 68.7273 32.8864 68.6953 32.3109 68.6953C32.2309 68.7592 32.2149 69.1749 32.2949 69.2389C32.6626 69.2868 32.8704 69.3028 33.0303 69.3827C33.1901 69.4467 33.2221 69.6385 33.2381 69.7824C33.2541 70.4219 33.2541 71.0134 33.2541 71.557C33.2541 71.5729 33.2061 71.6049 33.1741 71.6209C33.0622 71.6369 32.7745 71.6369 31.9591 71.6369C30.856 71.6369 30.6802 71.6369 30.5843 71.6209C30.5683 71.5889 30.5523 71.5889 30.5203 71.525C30.5203 70.9015 30.5203 70.326 30.5363 69.8623C30.5363 69.5906 30.5683 69.4307 30.7921 69.3348C30.904 69.2868 31.1598 69.2389 31.3836 69.2229C31.4476 69.1589 31.4476 68.7433 31.3996 68.6793C31.1438 68.6793 30.5683 68.7113 29.6091 68.7113C28.5379 68.7113 28.1702 68.6793 27.8825 68.6793C27.8185 68.7273 27.8025 69.1749 27.8505 69.2229C28.0583 69.2389 28.2822 69.2708 28.506 69.3508C28.7458 69.4147 28.7777 69.5586 28.7937 69.9103C28.8097 70.246 28.8097 70.9015 28.8097 72.0046C28.8097 73.0118 28.8097 74.0669 28.7937 74.2268C28.7777 74.6264 28.6978 74.8183 28.3941 74.8822C28.2342 74.9302 28.0903 74.9622 27.8345 75.0101C27.7546 75.0901 27.7866 75.4897 27.8345 75.5537C28.0264 75.5537 28.6019 75.5217 29.5451 75.5217C30.7601 75.5217 31.3037 75.5537 31.4955 75.5537C31.5595 75.5057 31.6234 75.1061 31.5435 75.0101C31.2877 74.9622 30.9839 74.9142 30.8241 74.8503C30.5683 74.7543 30.5363 74.5625 30.5363 74.2907C30.5203 73.8911 30.5203 73.2995 30.5203 72.5801C30.5203 72.5641 30.5363 72.5322 30.5363 72.5162C30.5843 72.5002 30.6962 72.4842 31.9112 72.4842C32.4228 72.4842 32.9823 72.4842 33.2061 72.5002C33.2381 72.5002 33.2701 72.5481 33.2701 72.5641C33.2701 73.2995 33.2861 73.891 33.2541 74.4346C33.2381 74.6904 33.1582 74.8343 32.9983 74.8982C32.7905 74.9622 32.5666 74.9941 32.3588 75.0261C32.2789 75.122 32.2949 75.4897 32.3748 75.5697C32.5986 75.5697 33.2061 75.5377 34.1653 75.5377C35.1725 75.5377 35.7321 75.5697 36.0038 75.5697H36.0998C36.5314 75.5697 37.043 75.5377 37.5066 75.5377C38.4498 75.5377 39.0254 75.5697 39.2971 75.5697C39.3611 75.5057 39.3931 75.0901 39.3291 75.0261C39.0573 74.9941 38.8015 74.9462 38.5457 74.8663C38.1781 74.7543 38.1461 74.5945 38.1461 74.2588C38.1461 73.4754 38.21 71.8927 38.29 70.7256C38.3059 70.7096 38.3539 70.6937 38.3699 70.7097C39.0893 72.3083 40.0165 74.4826 40.3203 75.4258C40.3683 75.4418 40.8798 75.4578 40.9118 75.4258C41.2475 74.5625 42.5265 71.7808 43.0221 70.6457C43.0381 70.6297 43.07 70.6297 43.086 70.6457C43.07 71.9726 43.086 73.3955 43.07 74.3067C43.0541 74.7384 43.0061 74.8183 42.8143 74.8982C42.6544 74.9462 42.4466 74.9782 42.1748 75.0261C42.1268 75.1061 42.1268 75.4897 42.1748 75.5697C42.7983 75.5697 43.2619 75.5377 43.9014 75.5377C45.0045 75.5377 45.564 75.5697 45.9637 75.5697C46.0436 75.5057 46.0596 75.122 46.0116 75.0261C45.7399 74.9782 45.5001 74.9302 45.2443 74.8663Z" fill="white"/>
<path d="M50.7599 74.7542C50.5361 74.946 50.2483 75.0579 49.9446 75.0579C49.481 75.0579 49.1612 74.8981 48.8415 74.6583C48.0741 74.0028 47.7863 72.7558 47.7863 71.7966C47.7863 70.7575 47.9782 69.8142 48.6177 69.3986C48.8255 69.2387 49.1292 69.1748 49.417 69.1748C49.8487 69.1748 50.1364 69.3026 50.4402 69.5584C51.1116 70.134 51.4154 71.253 51.4154 72.4361C51.4314 73.3793 51.2715 74.2746 50.7599 74.7542ZM49.7687 68.5193C48.7136 68.5193 47.8503 68.839 47.1948 69.2867C46.1397 70.038 45.8359 71.1891 45.8359 72.1323C45.8359 72.9956 46.0757 73.9868 46.7952 74.7222C47.4186 75.3457 48.25 75.7454 49.6248 75.7454C50.7599 75.7454 51.895 75.3137 52.6943 74.3225C53.1739 73.699 53.3977 72.8677 53.3977 72.0364C53.3818 70.15 52.1348 68.5193 49.7687 68.5193Z" fill="white"/>
<path d="M66.5227 74.3065C66.155 74.7701 65.7714 74.9619 65.2438 74.9619C65.036 74.9619 64.5723 74.882 64.3645 74.6902C64.2686 74.5942 64.1887 74.4663 64.1727 74.3225C64.1407 74.0027 64.1407 73.2353 64.1407 72.1642C64.1407 71.1571 64.1407 69.8461 64.1567 69.4624C64.1567 69.4465 64.2046 69.3505 64.2526 69.3345C64.3645 69.3026 64.4764 69.2866 64.5883 69.2866C65.0519 69.2866 65.6275 69.3825 66.0431 69.6863C66.7785 70.1978 67.1622 71.1411 67.1622 72.1163C67.1462 73.2194 66.8904 73.8269 66.5227 74.3065ZM67.8017 69.3985C67.1782 68.9029 66.3949 68.6951 65.3557 68.6951C64.4444 68.6951 64.2206 68.727 63.2454 68.727C62.9257 68.727 61.7427 68.6951 61.4869 68.6951C61.2151 68.6951 60.8314 68.727 60.0161 68.727C59.1528 68.727 58.6412 68.6951 58.4014 68.6951C58.3694 68.727 58.3534 69.1907 58.4014 69.2386C58.6572 69.2706 58.881 69.3026 59.1368 69.3665C59.5205 69.4465 59.6324 69.6383 59.6644 70.022C59.7123 70.8853 59.7123 71.7646 59.7283 73.2034C59.7123 73.2034 59.6803 73.2194 59.6644 73.2194C58.9609 72.452 57.4741 70.5655 56.5149 69.3985C56.2751 69.1107 56.1472 68.9189 56.0673 68.727C55.8435 68.743 55.4118 68.743 55.0441 68.743C54.1649 68.743 53.7172 68.7111 53.3335 68.7111C53.3016 68.759 53.2856 69.2226 53.3335 69.2706C53.6693 69.3026 53.9091 69.3825 54.1169 69.4624C54.4047 69.5584 54.5006 69.8941 54.5006 70.1499C54.5006 71.3329 54.4686 73.6031 54.4047 74.2265C54.3887 74.5303 54.2768 74.7701 54.021 74.882C53.7652 74.9779 53.5733 75.0099 53.3016 75.0419C53.2696 75.0898 53.2376 75.5055 53.3016 75.5854C53.7812 75.5854 54.4366 75.5535 54.9162 75.5535C55.4438 75.5535 55.9714 75.5854 56.483 75.5854C56.5469 75.4895 56.5629 75.1058 56.499 75.0419C56.1792 74.9779 55.9714 74.946 55.7795 74.914C55.4758 74.834 55.2839 74.6582 55.268 74.1466C55.236 72.9796 55.22 71.7965 55.236 70.6135C55.236 70.5975 55.268 70.5495 55.2999 70.5975C56.3071 71.8285 58.3694 74.5463 59.2167 75.6494C59.3766 75.6174 60.2878 75.6014 60.4637 75.6334C60.4477 75.1058 60.4477 74.5783 60.4477 74.0347C60.4317 72.5479 60.4637 70.9332 60.5436 70.054C60.5916 69.4944 60.7675 69.4305 61.0712 69.3505C61.1352 69.3345 61.2151 69.3186 61.2631 69.3026C61.359 69.2866 61.6148 69.2866 61.7267 69.3026C61.8386 69.3345 61.9825 69.3505 62.0464 69.3665C62.3502 69.4624 62.3661 69.5903 62.4141 69.9101C62.4301 70.4376 62.4301 70.9652 62.4301 72.1962C62.4301 73.0915 62.4141 74.1946 62.4141 74.4024C62.3981 74.7061 62.2542 74.882 61.9825 74.93C61.7427 74.9779 61.6148 75.0099 61.311 75.0419C61.2471 75.0579 61.2471 75.4735 61.311 75.5854H61.8386C62.8617 75.6014 63.9009 75.6334 64.5244 75.6334C65.7074 75.6334 66.8105 75.4575 67.7378 74.7221C68.4412 74.1786 69.0007 73.2993 69.0007 71.9564C68.9847 70.8853 68.5371 69.974 67.8017 69.3985Z" fill="white"/>
<path d="M50.2802 7.38557C50.2642 7.3536 50.2642 7.32163 50.2482 7.28965C50.2003 7.28965 50.1523 7.28965 50.1043 7.28965C50.2003 7.75327 49.9125 8.20091 49.4649 8.3288C48.9853 8.47268 48.4737 8.21689 48.3298 7.75327V7.73728C48.2339 7.83321 48.1539 7.92913 48.09 8.04104C48.2978 8.63255 48.9533 8.95229 49.5448 8.72847C50.0884 8.53663 50.4081 7.9611 50.2802 7.38557ZM38.7217 7.68932C38.6098 8.28084 38.0182 8.68051 37.3947 8.5686C36.7713 8.4567 36.3396 7.88117 36.4515 7.28965C36.4515 7.25768 36.4675 7.24169 36.4675 7.20972C36.3236 7.20972 36.1797 7.2257 36.0678 7.24169C35.812 7.99308 36.1957 8.80841 36.9471 9.08019C37.027 9.11216 37.107 9.12815 37.1869 9.14413C37.9703 9.28802 38.7217 8.76045 38.8496 7.97709C38.8655 7.92913 38.8655 7.86518 38.8655 7.81722C38.8176 7.75327 38.7696 7.7213 38.7217 7.68932Z" fill="#7E5300"/>
</g>
<defs>
<clipPath id="clip0_413_990">
<rect width="80" height="80" fill="white"/>
</clipPath>
</defs>
</svg>
