<svg viewBox="0 0 40 40" fill="none" xmlns="http://www.w3.org/2000/svg">
<g clip-path="url(#clip0_141_4900)">
<path d="M28.4949 18.1996C26.7752 18.2037 25.0976 17.6674 23.6992 16.6664V23.6477C23.6987 24.9407 23.3035 26.2027 22.5664 27.265C21.8293 28.3274 20.7855 29.1393 19.5745 29.5924C18.3634 30.0455 17.0429 30.118 15.7896 29.8003C14.5362 29.4826 13.4097 28.7899 12.5607 27.8147C11.7116 26.8395 11.1806 25.6283 11.0385 24.3431C10.8964 23.058 11.15 21.76 11.7655 20.6229C12.381 19.4858 13.3289 18.5637 14.4826 17.9798C15.6363 17.396 16.9407 17.1783 18.2215 17.3559V20.8672C17.6354 20.6828 17.0061 20.6884 16.4233 20.8831C15.8406 21.0777 15.3343 21.4515 14.9767 21.9511C14.6191 22.4507 14.4285 23.0505 14.4321 23.6649C14.4357 24.2793 14.6334 24.8768 14.9968 25.3721C15.3603 25.8675 15.871 26.2353 16.456 26.4231C17.041 26.6109 17.6703 26.609 18.2542 26.4178C18.838 26.2265 19.3466 25.8557 19.7071 25.3582C20.0676 24.8607 20.2617 24.262 20.2617 23.6477V10H23.6992C23.6968 10.2903 23.7212 10.5802 23.7719 10.866C23.8913 11.5041 24.1397 12.1111 24.5018 12.6499C24.8639 13.1887 25.3321 13.648 25.8777 13.9996C26.6541 14.5129 27.5642 14.7865 28.4949 14.7863V18.1996Z" fill="white"/>
</g>
<defs>
<clipPath id="clip0_141_4900">
<rect width="17.5" height="20" fill="white" transform="translate(11 10)"/>
</clipPath>
</defs>
</svg>
